<svg width="16" height="16" viewBox="0 0 16 16" fill="none" xmlns="http://www.w3.org/2000/svg">
<path opacity="0.5" d="M13.9998 1H1.9998C1.44752 1 0.999802 1.44772 0.999802 2V5C0.999802 5.55228 1.44752 6 1.9998 6H13.9998C14.5521 6 14.9998 5.55228 14.9998 5V2C14.9998 1.44772 14.5521 1 13.9998 1Z" fill="#BD93F9"/>
<path d="M8 3L7 5H1C0.446 5 0 5.446 0 6V14C0 14.554 0.446 15 1 15H15C15.554 15 16 14.554 16 14V4C16 3.5 15.5 3 15 3H8Z" fill="#44475A"/>
<path opacity="0.25" d="M8.918 3L7.8594 3.2832H7.85745L7.00003 5H1.45313L0.279327 5.31445C0.109097 5.4936 2.69e-05 5.73221 2.69e-05 6V7.459L15.629 3.2715C15.6237 3.26675 15.6169 3.26445 15.6114 3.25978C15.5271 3.1875 15.4361 3.12471 15.338 3.08009C15.229 3.0332 15.1152 3.00001 15.0001 3.00001H8.91812L8.918 3ZM16 4.2285L0 8.5176V10.5879L16 6.2988V4.2285ZM16 7.3535L0 11.6426V13.7129L16 9.4258V7.3535V7.3535ZM16 10.4805L0.283 14.6934C0.46459 14.8812 0.71671 15 0.9998 15H6.8631L15.9998 12.5508V10.4805L16 10.4805ZM16 13.6075L10.8066 15.0001H15C15.554 15.0001 16 14.5541 16 14.0001V13.6075V13.6075Z" fill="white"/>
</svg>
