<svg width="64" height="64" version="1.1" viewBox="0 0 16.933 16.933" xmlns="http://www.w3.org/2000/svg" xmlns:xlink="http://www.w3.org/1999/xlink">
 <defs>
  <linearGradient id="c" x1="42" x2="44" y1="51" y2="55" gradientUnits="userSpaceOnUse">
   <stop offset="0"/>
   <stop stop-opacity="0" offset="1"/>
  </linearGradient>
 </defs>
 <circle cx="8.4665" cy="8.4665" r="7.4082" fill="#ce6c35" style="paint-order:stroke fill markers"/>
 <path transform="scale(.26458)" d="m16.17 14a24 24 0 0 0-8.1699 18 24 24 0 0 0 24 24 24 24 0 0 0 24-24 24 24 0 0 0-8.1582-18h-31.672z" fill="#fff" style="paint-order:stroke fill markers"/>
 <path d="m7.9374 4.2333c-0.35022 0-0.6429 0.27778-0.79374 0.52916l-0.31728 0.52916h-5.0432c-0.47418 0.99143-0.72183 2.076-0.725 3.175-2e-7 4.0915 3.3168 7.4082 7.4082 7.4082 4.0915 0 7.4082-3.3168 7.4082-7.4082-0.002675-1.005-0.20979-1.9988-0.60875-2.9212-0.20522-0.45891-0.46987-0.93487-0.73069-1.3121z" fill="#fb8441" stroke-width=".26458" style="paint-order:stroke fill markers"/>
 <path transform="scale(.26458)" d="m32 4a28 28 0 0 0-18.467 7h36.951a28 28 0 0 0-18.484-7z" opacity=".15" style="paint-order:stroke fill markers"/>
 <path transform="scale(.26458)" d="m57.312 43.891-27.693 15.99a28 28 0 0 0 2.3809 0.11914 28 28 0 0 0 25.312-16.109z" fill="url(#c)" opacity=".1" style="paint-order:stroke fill markers"/>
 <path d="m8.467 7.405a2.381 2.381 0 0 0-2.382 2.381 2.381 2.381 0 0 0 2.382 2.381 2.381 2.381 0 0 0 2.38-2.38 2.381 2.381 0 0 0-2.38-2.382zm0.212 0.254c0.232 0.021 0.456 0.074 0.66 0.163a0.2 0.2 0 0 0-0.039 0.07c-0.063 0.188-0.156 0.098-0.046 0.334 0.11 0.235 0.201 0.296 0.233 0.186 0.031-0.11-0.08-0.265 0.046-0.202s0.218-0.017 0.124 0.124c-0.094 0.142-0.092 0.218-0.202 0.187-0.11-0.032-0.107 0.186-0.217 0.217s-0.148-0.047-0.148 0.031c0 0.079 0.063 6e-3 0.047 0.132-5e-3 0.039-4e-3 0.046-8e-3 0.062-0.103-0.03-0.149-0.045-0.225-0.015-0.078 0.031-0.17 0.232-0.17 0.232 0.097 0.098 0.143 0.169 0.178 0.202-0.022 0.011-0.048 0.016-0.07 0.031-0.157 0.11-0.279 0.13-0.326 0.288-0.047 0.157-0.031 0.013-0.031 0.201 0 0.189-0.048 0.061 0.046 0.234 0.094 0.172 0.325 0.255 0.435 0.35 0.11 0.093 0.223-0.206 0.443 0.077 0.22 0.282 0.234 0.169 0.155 0.326-0.078 0.157-0.155 0.209-0.186 0.271-0.032 0.063 0.06 0.28 0.17 0.326h8e-3l-0.015 0.04c-0.142 0.064-0.317 0.153-0.35 0.163-0.077 0.022-0.351 0.068-0.55 0.124-0.026 7e-3 -0.046 7e-3 -0.055 8e-3 0.024-0.027 0.221-0.13 0.318-0.187 0.133-0.077-8e-3 -0.07-8e-3 -0.07s-0.211-0.023-0.644-0.023c-0.216 0-0.31 0.01-0.357 0.023a0.122 0.122 0 0 0-0.047 0.024c-0.012 0.01-0.02 0.02-0.039 0.031-0.078 0.044 0.046 0.09-0.054 0.124-0.075 0.025-0.084 0-0.148-0.047 0.046-0.045 0.109-0.1 0.187-0.194 0.14-0.17 0.186-0.14 0.233-0.295s-0.396-0.109-0.396-0.202-0.077-0.155-0.218-0.217-0.045-0.093-0.202-0.14c-0.157-0.046-0.333 0.233-0.38 0.14s0.147-0.093 0.147-0.202c0-0.106-0.223 0.08-0.264-0.054 0-5e-3 -7e-3 -5e-3 -7e-3 -8e-3 -4e-3 -0.02-2e-3 -0.032 0-0.047 0.01-0.112 0.139-0.155 0.194-0.264 0.062-0.124 0.03 0.093 0.109 0.202 0.078 0.109 0.047-0.14 0-0.28-0.048-0.14 0.03-0.14 0.14-0.326 0.109-0.186 0.108-0.295 0.108-0.434 0-0.14 0.076-0.156 0.233-0.296 0.072-0.064 0.128-0.12 0.17-0.17 0.011-5e-3 0.021-5e-3 0.032-8e-3 0.166-0.067 0.236-0.167 0.38-0.466 0.144-0.3-0.056-0.02-0.1-0.031-0.045-0.011-0.11-0.09-0.265-0.179a0.247 0.247 0 0 0-0.085-0.03l0.287-0.475c0.092-0.024 0.19-0.041 0.287-0.054 0.036 0.201 0.016 0.389 0.016 0.389s-0.055 0.064-0.055 0.108c0 0.045 0.298-0.366 0.342-0.388 0.045-0.022 0.157 0.117 0.179-0.093zm0.393 0.838a0.176 0.176 0 0 0-0.028 9e-3c0 0.054-0.022 0.094-0.031 0.116-6e-3 -0.01-0.023-0.024-0.023-0.024-0.024 0.044-0.075 0.082-0.024 0.07 0.051-0.01 0.09 0.02 0.055-0.023l-8e-3 -8e-3c6e-3 5e-3 0.02 8e-3 0.047 8e-3h0.07c-0.039 0.028-0.08 0.04-0.024 0.055 0.075 0.02 0.109 0.023 0.109 8e-3a0.362 0.362 0 0 0-0.024-0.07c0.015-6e-3 0.028-0.014 0.016-0.04-0.024-0.046-0.06-0.093-0.109-0.1a0.07 0.07 0 0 0-0.026-2e-3zm1.214 0.132c0.039 0.06 0.076 0.122 0.109 0.187-0.022 0.125-0.077 0.21 0.015 0.21 0.026 0 0.05-6e-3 0.07-9e-3l8e-3 0.023c-0.157 0-0.232 0.047-0.31 0.032-0.079-0.016-0.297-0.03-0.156-0.171 0.083-0.083 0.186-0.214 0.264-0.272zm-0.978 0.287c0.014 6e-3 0.027 0.02 0.039 0.047 0.047 0.11 0.125 0.202 0.062 0.217a0.476 0.476 0 0 0-0.093 0.032s0.217 0.141 0.233-0.016c0.015-0.157-0.062-0.248-0.062-0.248s0.108 0.108 0.14 0.17c0.03 0.063 0.03 0 0.108 0.078 0.078 0.079 0.06-0.311 0.17-0.202 0.11 0.11 0.18 0.108 0.148 0.186-0.031 0.079 0.202-0.094 0.202 0.063 0 0.151 0.097 0.212-0.093 0.287-0.072-5e-3 -0.129-0.017-0.14-0.039-0.031-0.063-0.21-0.015-0.21-0.015-0.469-0.117-0.673-0.155-0.807-0.132 2e-3 -5e-3 5e-3 -5e-3 8e-3 -8e-3 0.068-0.124 0.197-0.295 0.155-0.357 0.06-0.035 0.107-0.072 0.14-0.062zm1.32 0.785v0.093c0 0.089-5e-3 0.178-0.015 0.264-0.142-0.126-0.342-0.124-0.342-0.124s0.122-0.14 0.295-0.202a0.272 0.272 0 0 0 0.062-0.031z" fill="#fff"/>
</svg>
