<?xml version="1.0" encoding="UTF-8"?>
<svg width="64" height="64" version="1.1" viewBox="0 0 16.933 16.933" xmlns="http://www.w3.org/2000/svg" xmlns:cc="http://creativecommons.org/ns#" xmlns:dc="http://purl.org/dc/elements/1.1/" xmlns:rdf="http://www.w3.org/1999/02/22-rdf-syntax-ns#" xmlns:xlink="http://www.w3.org/1999/xlink">
 <defs>
  <linearGradient id="linearGradient835">
   <stop offset="0"/>
   <stop stop-opacity="0" offset="1"/>
  </linearGradient>
  <clipPath id="clipPath827">
   <rect transform="rotate(45)" x=".52917" y="285.36" width="15.875" height="9.525" ry=".52916" fill="#4d4d4d" style="paint-order:markers stroke fill"/>
  </clipPath>
  <linearGradient id="linearGradient837" x1="-197.1" x2="-196.91" y1="217.68" y2="219.37" gradientUnits="userSpaceOnUse" xlink:href="#linearGradient835"/>
 </defs>
 <metadata>
  <rdf:RDF>
   <cc:Work rdf:about="">
    <dc:format>image/svg+xml</dc:format>
    <dc:type rdf:resource="http://purl.org/dc/dcmitype/StillImage"/>
    <dc:title/>
   </cc:Work>
  </rdf:RDF>
 </metadata>
 <g transform="translate(0 -280.07)">
  <path d="m3.0692 287.16c-0.17589 0-0.23664 0.1613-0.3175 0.3175h-0.47625c-0.1759 0-0.3175 0.1416-0.3175 0.3175v3.175c0 0.17589 0.1416 0.3175 0.3175 0.3175h7.62c0.1759 0 0.3175-0.14161 0.3175-0.3175v-3.175c0-0.1759-0.1416-0.3175-0.3175-0.3175h-4.2862c-0.093221-0.14915-0.14161-0.3175-0.3175-0.3175z" fill="#4d4d4d" style="paint-order:markers stroke fill"/>
  <path d="m3.0692 287.16c-0.17589 0-0.23664 0.1613-0.3175 0.3175h-0.47625c-0.1759 0-0.3175 0.1416-0.3175 0.3175v3.175c0 0.17589 0.1416 0.3175 0.3175 0.3175h7.62c0.1759 0 0.3175-0.14161 0.3175-0.3175v-3.175c0-0.1759-0.1416-0.3175-0.3175-0.3175h-4.2862c-0.093221-0.14915-0.14161-0.3175-0.3175-0.3175z" opacity=".18" style="paint-order:markers stroke fill"/>
  <rect x="2.4342" y="287.95" width="7.3025" height="3.0163" ry=".15876" fill="#f2f2f2" style="paint-order:markers stroke fill"/>
  <path transform="matrix(.26458 0 0 .26458 0 280.07)" d="m23 31c-0.66481 0-0.86424 0.62496-1.1992 1.1992l-0.70117 1.2012h-14.9c-0.66479 0-1.1992 0.53443-1.1992 1.1992v19.201c0 0.66479 0.53443 1.1992 1.1992 1.1992h33.602c0.66479 0 1.1992-0.53443 1.1992-1.1992v-12.602-6.5996-2.4004c0-0.66482-0.53441-1.1992-1.1992-1.1992h-16.801z" fill="#4d4d4d" style="paint-order:markers stroke fill"/>
  <rect x="3.2279" y="287.32" width="1.905" height=".3175" ry=".15875" opacity=".25" style="paint-order:stroke markers fill"/>
  <rect transform="matrix(.42426 -.42426 .42426 .42426 1.0054 117.69)" x="-199.59" y="217.87" width="5.2917" height="4.7625" ry=".13229" clip-path="url(#clipPath827)" fill="url(#linearGradient837)" opacity=".1" style="paint-order:stroke markers fill"/>
  <path d="m8.0962 283.19c-0.17589 0-0.23664 0.1613-0.3175 0.3175h-0.47625c-0.1759 0-0.3175 0.1416-0.3175 0.3175v3.175c0 0.17589 0.1416 0.3175 0.3175 0.3175h7.62c0.1759 0 0.3175-0.14161 0.3175-0.3175v-3.175c0-0.1759-0.1416-0.3175-0.3175-0.3175h-4.2862c-0.09322-0.14915-0.14161-0.3175-0.3175-0.3175z" fill="#4d4d4d" style="paint-order:markers stroke fill"/>
  <path d="m8.0962 283.19c-0.17589 0-0.23664 0.1613-0.3175 0.3175h-0.47625c-0.1759 0-0.3175 0.1416-0.3175 0.3175v3.175c0 0.17589 0.1416 0.3175 0.3175 0.3175h7.62c0.1759 0 0.3175-0.14161 0.3175-0.3175v-3.175c0-0.1759-0.1416-0.3175-0.3175-0.3175h-4.2862c-0.09322-0.14915-0.14161-0.3175-0.3175-0.3175z" opacity=".1" style="paint-order:markers stroke fill"/>
  <rect x="7.4612" y="283.98" width="7.3025" height="3.0163" ry=".15876" fill="#fff" style="paint-order:markers stroke fill"/>
  <path transform="matrix(.26458 0 0 .26458 0 280.07)" d="m42 16c-0.66481 0-0.86424 0.62496-1.1992 1.1992l-0.70117 1.2012h-14.9c-0.66479 0-1.1992 0.53443-1.1992 1.1992v19.201c0 0.66479 0.53443 1.1992 1.1992 1.1992h33.602c0.66479 0 1.1992-0.53443 1.1992-1.1992v-12.602-6.5996-2.4004c0-0.66482-0.53441-1.1992-1.1992-1.1992h-16.801z" fill="#4d4d4d" style="paint-order:markers stroke fill"/>
  <path d="m11.112 284.3c-0.1759 0-0.22866 0.16536-0.31729 0.3173l-0.18552 0.31781h-3.9424c-0.17589 0-0.31729 0.1414-0.31729 0.31729v5.0803c0 0.17589 0.1414 0.31729 0.31729 0.31729h8.8904c0.17589 0 0.31729-0.1414 0.31729-0.31729v-5.7154c0-0.1759-0.1414-0.3173-0.31729-0.3173z" fill="#fff" opacity=".15" style="paint-order:markers stroke fill"/>
  <rect x="8.255" y="283.35" width="1.905" height=".3175" ry=".15875" opacity=".25" style="paint-order:stroke markers fill"/>
  <rect transform="matrix(.42426 -.42426 .42426 .42426 6.0325 113.72)" x="-199.59" y="217.87" width="5.2917" height="4.7625" ry=".13229" clip-path="url(#clipPath827)" fill="url(#linearGradient837)" opacity=".1" style="paint-order:stroke markers fill"/>
 </g>
</svg>
