<?xml version="1.0" encoding="UTF-8" standalone="no"?>
<svg
   width="64"
   height="64"
   version="1.1"
   viewBox="0 0 64 64"
   id="svg22"
   sodipodi:docname="default-folder-stack.svg"
   inkscape:version="1.1.1 (3bf5ae0d25, 2021-09-20)"
   xmlns:inkscape="http://www.inkscape.org/namespaces/inkscape"
   xmlns:sodipodi="http://sodipodi.sourceforge.net/DTD/sodipodi-0.dtd"
   xmlns="http://www.w3.org/2000/svg"
   xmlns:svg="http://www.w3.org/2000/svg">
  <sodipodi:namedview
     id="namedview24"
     pagecolor="#505050"
     bordercolor="#ffffff"
     borderopacity="1"
     inkscape:pageshadow="0"
     inkscape:pageopacity="0"
     inkscape:pagecheckerboard="1"
     showgrid="false"
     inkscape:zoom="11.1875"
     inkscape:cx="31.955307"
     inkscape:cy="32"
     inkscape:window-width="1920"
     inkscape:window-height="1000"
     inkscape:window-x="0"
     inkscape:window-y="44"
     inkscape:window-maximized="1"
     inkscape:current-layer="svg22" />
  <defs
     id="defs8">
    <style
       id="current-color-scheme"
       type="text/css">.ColorScheme-Text {
        color:#333333;
      }
      .ColorScheme-Highlight {
        color:#5294e2;
      }</style>
    <linearGradient
       id="linearGradient892"
       x1="-197.72"
       x2="-197.72"
       y1="263.86"
       y2="273.76"
       gradientTransform="rotate(-45,-337.55,-145.8)"
       gradientUnits="userSpaceOnUse">
      <stop
         offset="0"
         id="stop3" />
      <stop
         stop-opacity="0"
         offset="1"
         id="stop5" />
    </linearGradient>
  </defs>
  <g
     transform="scale(3.7796)"
     id="g20">
    <path
       class="ColorScheme-Highlight"
       transform="scale(.26458)"
       d="m27.002 8.9844-14 0.00391c-1.1097 0-1.4926 1.0128-2.002 1.998v0.01367h-1c-2.216 0-4 1.784-4 4v5c-2.216 0-4 1.784-4 4v28c0 2.216 1.784 4 4 4h52c2.216 0 4-1.784 4-4v-32c0-2.216-1.784-4-4-4v-1c0-2.216-1.784-4-4-4h-16.859c-0.04729-0.0032-0.09249-0.01387-0.14062-0.01367h-7.9961c-0.58584-0.94113-0.8907-2.002-2.002-2.002z"
       fill="currentColor"
       id="path10" />
    <path
       d="m7.1441 2.3771-3.7041 0.00103c-0.2936 0-0.39492 0.26798-0.52967 0.52864v0.00362h-0.26458c-0.58631 0-1.0583 0.472-1.0583 1.0583v1.3229h6.6145l0.79373-1.0583h6.3499v-0.26458c0-0.58631-0.472-1.0583-1.0583-1.0583l-6.6134-0.00362c-0.155-0.249-0.23566-0.52967-0.52967-0.52967z"
       fill="#000000"
       opacity=".2"
       id="path12" />
    <path
       transform="scale(.26458)"
       d="m11.016 13.984c-1.1166 0-2.0156 0.89903-2.0156 2.0156v4h22l3-4h21c0-1.1166-0.89903-2.0156-2.0156-2.0156h-41.969z"
       fill="#ffffff"
       id="path14" />
    <rect
       x="3.704"
       y="2.64"
       width="3.175"
       height=".529"
       rx=".2645"
       ry=".2645"
       opacity=".25"
       id="rect16" />
    <path
       transform="scale(.26458)"
       d="m62 40-16 16h12c2.216 0 4-1.784 4-4z"
       fill="url(#linearGradient892)"
       opacity=".2"
       stroke-linecap="round"
       stroke-linejoin="round"
       stroke-width="2"
       id="path18" />
  </g>
  <path
     style="fill:#fefefe;fill-opacity:1;stroke-width:0.138271"
     d="m 27.040971,46.665463 c -2.689315,-0.682256 -4.944868,-1.274588 -5.012345,-1.316288 -0.169175,-0.104582 -0.157232,-2.41012 0.01247,-2.41012 0.07434,0 2.20979,0.528861 4.745445,1.175305 2.535652,0.646418 4.870237,1.175312 5.187958,1.175312 0.317751,0 2.670221,-0.527628 5.227775,-1.172553 2.557551,-0.644902 4.704373,-1.13901 4.770705,-1.098012 0.162976,0.100726 0.15451,2.233299 -0.0091,2.334501 -0.09294,0.05749 -10.033098,2.590479 -10.033098,2.556716 0,-0.0024 -2.200344,-0.562602 -4.889652,-1.244861 z m -0.16086,-5.917651 C 24.33046,40.089783 22.16824,39.501065 22.075175,39.439536 21.96534,39.366966 21.906,38.94239 21.906,38.229663 c 0,-0.976819 0.02835,-1.098012 0.256219,-1.098012 0.140942,0 2.349881,0.528914 4.908785,1.175305 2.558908,0.646422 4.805715,1.175309 4.992903,1.175309 0.187166,0 2.42765,-0.528857 4.978794,-1.175309 2.551152,-0.646417 4.733691,-1.175305 4.850088,-1.175305 0.176847,0 0.205081,0.198014 0.171707,1.205156 l -0.04018,1.20516 -4.839508,1.212667 c -2.661728,0.666971 -5.026172,1.207477 -5.254324,1.201127 -0.228174,-0.0064 -2.500891,-0.549924 -5.050542,-1.207949 z m 0.02608,-5.829167 C 24.29495,34.251931 22.098949,33.646881 22.026154,33.57409 21.953364,33.5013 21.912047,32.921844 21.934344,32.286417 l 0.04071,-1.15533 5.015903,-1.250542 5.015894,-1.250545 4.317436,1.080153 c 2.374588,0.594086 4.644099,1.170921 5.043357,1.281852 l 0.72593,0.201718 v 1.166582 c 0,0.970465 -0.04071,1.187928 -0.241971,1.293583 -0.314689,0.165169 -9.737211,2.515001 -9.998321,2.493434 -0.10957,-0.0091 -2.335642,-0.561947 -4.94686,-1.228654 z"
     id="path1438" />
</svg>
