<?xml version="1.0" encoding="UTF-8" standalone="no"?>
<svg
   width="64"
   height="64"
   version="1.1"
   viewBox="0 0 64 64"
   id="svg22"
   sodipodi:docname="default-folder-git.svg"
   inkscape:version="1.1.2 (0a00cf5339, 2022-02-04)"
   xmlns:inkscape="http://www.inkscape.org/namespaces/inkscape"
   xmlns:sodipodi="http://sodipodi.sourceforge.net/DTD/sodipodi-0.dtd"
   xmlns="http://www.w3.org/2000/svg"
   xmlns:svg="http://www.w3.org/2000/svg">
  <sodipodi:namedview
     id="namedview24"
     pagecolor="#505050"
     bordercolor="#ffffff"
     borderopacity="1"
     inkscape:pageshadow="0"
     inkscape:pageopacity="0"
     inkscape:pagecheckerboard="1"
     showgrid="false"
     inkscape:zoom="11.5625"
     inkscape:cx="32"
     inkscape:cy="32"
     inkscape:window-width="1920"
     inkscape:window-height="1000"
     inkscape:window-x="0"
     inkscape:window-y="44"
     inkscape:window-maximized="1"
     inkscape:current-layer="svg22" />
  <defs
     id="defs8">
    <style
       id="current-color-scheme"
       type="text/css">.ColorScheme-Text {
        color:#333333;
      }
      .ColorScheme-Highlight {
        color:#5294e2;
      }</style>
    <linearGradient
       id="linearGradient892"
       x1="-197.72"
       x2="-197.72"
       y1="263.86"
       y2="273.76"
       gradientTransform="rotate(-45,-337.55,-145.8)"
       gradientUnits="userSpaceOnUse">
      <stop
         offset="0"
         id="stop3" />
      <stop
         stop-opacity="0"
         offset="1"
         id="stop5" />
    </linearGradient>
  </defs>
  <g
     transform="scale(3.7796)"
     id="g20">
    <path
       class="ColorScheme-Highlight"
       transform="scale(.26458)"
       d="m27.002 8.9844-14 0.00391c-1.1097 0-1.4926 1.0128-2.002 1.998v0.01367h-1c-2.216 0-4 1.784-4 4v5c-2.216 0-4 1.784-4 4v28c0 2.216 1.784 4 4 4h52c2.216 0 4-1.784 4-4v-32c0-2.216-1.784-4-4-4v-1c0-2.216-1.784-4-4-4h-16.859c-0.04729-0.0032-0.09249-0.01387-0.14062-0.01367h-7.9961c-0.58584-0.94113-0.8907-2.002-2.002-2.002z"
       fill="currentColor"
       id="path10" />
    <path
       d="m7.1441 2.3771-3.7041 0.00103c-0.2936 0-0.39492 0.26798-0.52967 0.52864v0.00362h-0.26458c-0.58631 0-1.0583 0.472-1.0583 1.0583v1.3229h6.6145l0.79373-1.0583h6.3499v-0.26458c0-0.58631-0.472-1.0583-1.0583-1.0583l-6.6134-0.00362c-0.155-0.249-0.23566-0.52967-0.52967-0.52967z"
       fill="#000000"
       opacity=".2"
       id="path12" />
    <path
       transform="scale(.26458)"
       d="m11.016 13.984c-1.1166 0-2.0156 0.89903-2.0156 2.0156v4h22l3-4h21c0-1.1166-0.89903-2.0156-2.0156-2.0156h-41.969z"
       fill="#ffffff"
       id="path14" />
    <rect
       x="3.704"
       y="2.64"
       width="3.175"
       height=".529"
       rx=".2645"
       ry=".2645"
       opacity=".25"
       id="rect16" />
    <path
       transform="scale(.26458)"
       d="m62 40-16 16h12c2.216 0 4-1.784 4-4z"
       fill="url(#linearGradient892)"
       opacity=".2"
       stroke-linecap="round"
       stroke-linejoin="round"
       stroke-width="2"
       id="path18" />
  </g>
  <path
     style="fill:#ffffff;fill-opacity:1;stroke-width:0.00701846"
     d="m 27.635435,50.394897 c 0.252088,-0.03099 0.457555,-0.129943 0.63192,-0.304787 0.147938,-0.148387 0.243237,-0.32395 0.283803,-0.522848 0.02302,-0.112821 0.02517,-0.238871 0.02321,-1.358597 l -0.002,-1.112427 -0.747468,-0.0045 c -0.411106,-0.0025 -0.761678,-0.0064 -0.77905,-0.0087 -0.01746,-0.0023 -0.07897,-0.0076 -0.13687,-0.01172 -0.236505,-0.01663 -0.510257,-0.05208 -0.740449,-0.09536 -0.854332,-0.160414 -1.523368,-0.478021 -1.998503,-0.948495 -0.297475,-0.294556 -0.497796,-0.619356 -0.654566,-1.061316 -0.244152,-0.688307 -0.602093,-1.24782 -1.147324,-1.79344 -0.227921,-0.228099 -0.37418,-0.355471 -0.794159,-0.691633 -0.39127,-0.313178 -0.493846,-0.420972 -0.493846,-0.518894 0,-0.0641 0.04861,-0.111649 0.178613,-0.174769 0.182853,-0.08878 0.361156,-0.124953 0.581737,-0.118037 0.263537,0.0083 0.519215,0.08103 0.816917,0.232559 0.35032,0.178284 0.706479,0.446821 1.085241,0.818318 0.231898,0.227456 0.396497,0.411606 0.659119,0.737431 0.793315,0.984231 1.296344,1.352678 2.015922,1.476573 0.213642,0.03666 0.303351,0.04245 0.673774,0.04245 0.351775,0 0.43545,-0.0042 0.656225,-0.03175 0.305849,-0.03851 0.585892,-0.109155 0.762121,-0.192268 l 0.06378,-0.03024 0.0045,-0.125558 c 0.0265,-0.737257 0.311107,-1.380568 0.829986,-1.875843 0.084,-0.0802 0.217403,-0.19121 0.292224,-0.24318 0.022,-0.0155 0.04022,-0.02986 0.04035,-0.03213 1.5e-4,-0.0025 -0.01587,-0.0064 -0.03564,-0.0091 -0.0743,-0.0098 -0.436749,-0.07499 -0.58873,-0.105753 -1.399759,-0.283281 -2.555613,-0.724954 -3.505414,-1.339491 -0.579967,-0.375239 -1.083763,-0.822328 -1.48425,-1.317157 -0.710963,-0.8785 -1.13912,-1.92585 -1.291112,-3.15836 -0.07375,-0.598042 -0.07894,-1.327215 -0.01429,-2.003771 0.145511,-1.522485 0.630554,-2.83413 1.467896,-3.969468 0.01338,-0.01803 0.01338,-0.01825 -0.02574,-0.161423 -0.370458,-1.359697 -0.34521,-2.805072 0.07539,-4.31583 l 0.01656,-0.05966 0.136303,0.0011 c 0.565371,0.0046 1.303668,0.173094 2.010235,0.458703 0.701386,0.283515 1.441893,0.712405 1.977026,1.145066 0.03742,0.03024 0.07194,0.05498 0.07672,0.05498 0.0048,0 0.07135,-0.01905 0.147892,-0.04235 0.843518,-0.256684 1.812015,-0.435515 2.792001,-0.515541 0.445981,-0.03644 0.770782,-0.04857 1.298417,-0.04857 0.543104,0 0.883242,0.01323 1.340527,0.05217 0.989034,0.08421 1.898358,0.252697 2.778442,0.514813 l 0.128983,0.03841 0.109665,-0.08555 c 0.157436,-0.122841 0.26904,-0.203044 0.461974,-0.332016 1.118044,-0.747385 2.411212,-1.209491 3.476871,-1.242438 L 41.234862,26 l 0.01058,0.04144 c 0.006,0.02279 0.02532,0.09513 0.04286,0.16075 0.304106,1.129844 0.374483,2.292076 0.204249,3.372372 -0.03829,0.24293 -0.102616,0.551097 -0.157269,0.75338 -0.0155,0.05729 -0.02797,0.108962 -0.02797,0.114813 0,0.0059 0.03251,0.05372 0.07234,0.10638 0.544047,0.719957 0.944855,1.5253 1.200802,2.412761 0.203758,0.706511 0.309171,1.417586 0.335175,2.260549 0.02608,0.845579 -0.06837,1.648952 -0.278217,2.367198 -0.244615,0.837128 -0.640608,1.563318 -1.209431,2.21784 -0.10734,0.123479 -0.406004,0.423905 -0.53123,0.534314 -0.94272,0.831157 -2.148421,1.429465 -3.674167,1.823227 -0.375564,0.09691 -0.947258,0.215211 -1.277359,0.26427 -0.04439,0.0064 -0.08312,0.01398 -0.08604,0.01663 -0.0029,0.0027 0.02865,0.03024 0.07019,0.06138 0.285345,0.213926 0.541389,0.498855 0.716969,0.797848 0.154805,0.263627 0.270907,0.584266 0.323115,0.892428 0.04126,0.243482 0.03793,0.02797 0.0426,2.768638 0.0041,2.339479 0.005,2.513133 0.01633,2.568757 0.03284,0.161503 0.07969,0.277083 0.165032,0.407071 0.05144,0.07835 0.195322,0.222467 0.274762,0.275155 0.155939,0.103485 0.321504,0.163279 0.4998,0.180514 0.03213,0.0032 -2.29635,0.0057 -5.174097,0.006 -4.2922,1.63e-4 -5.219025,-0.0014 -5.158572,-0.0087 z"
     id="path852" />
</svg>
