<svg width="64" height="64" version="1.1" id="svg22" xmlns="http://www.w3.org/2000/svg"><defs id="defs8"><linearGradient id="linearGradient892" x1="-197.72" x2="-197.72" y1="263.86" y2="273.76" gradientTransform="rotate(-45 -337.55 -145.8)" gradientUnits="userSpaceOnUse"><stop offset="0" id="stop3"/><stop stop-opacity="0" offset="1" id="stop5"/></linearGradient><style id="current-color-scheme" type="text/css">.ColorScheme-Text{color:#333}</style></defs><g transform="scale(3.7796)" id="g20"><path transform="scale(.26458)" d="m27.002 8.984-14 .004c-1.11 0-1.493 1.013-2.002 1.998V11h-1c-2.216 0-4 1.784-4 4v5c-2.216 0-4 1.784-4 4v28c0 2.216 1.784 4 4 4h52c2.216 0 4-1.784 4-4V20c0-2.216-1.784-4-4-4v-1c0-2.216-1.784-4-4-4H37.141c-.047-.003-.092-.014-.14-.014h-7.997c-.586-.94-.89-2.002-2.002-2.002z" fill="currentColor" id="path10" style="color:#5294e2"/><path d="m7.144 2.377-3.704.001c-.294 0-.395.268-.53.529v.003h-.264c-.587 0-1.059.472-1.059 1.059v1.323h6.615l.794-1.059h6.35V3.97c0-.587-.472-1.059-1.059-1.059l-6.613-.003c-.155-.25-.236-.53-.53-.53z" fill="#000" opacity=".2" id="path12"/><path transform="scale(.26458)" d="M11.016 13.984A2.011 2.011 0 0 0 9 16v4h22l3-4h21a2.011 2.011 0 0 0-2.015-2.016h-41.97z" fill="#fff" id="path14"/><rect x="3.704" y="2.64" width="3.175" height=".529" rx=".265" ry=".265" opacity=".25" id="rect16"/><path transform="scale(.26458)" d="M62 40 46 56h12c2.216 0 4-1.784 4-4z" fill="url(#linearGradient892)" opacity=".2" stroke-linecap="round" stroke-linejoin="round" stroke-width="2" id="path18"/></g><path d="M27.801 44.22c2.124-2.21 4.065-4.51 4.313-5.108.248-.598 1.224-1.78 2.172-2.626 2.478-2.215 3.924-2.04 5.167.62.318.68.754 1.234.97 1.234.495 0 2.776-2.22 2.776-2.703 0-.623-1.17-1.698-1.85-1.698-.716 0-1.401-1.028-1.401-2.101 0-.814-2.24-3.08-3.865-3.91-.775-.395-2.11-.59-4.043-.59-2.924 0-4.146.485-2.275.902.562.125 1.62.728 2.352 1.34 1.881 1.575 1.806 2.758-.341 5.31-.919 1.09-1.894 1.983-2.17 1.983-.608 0-8.804 7.62-8.804 8.185 0 .427 2.516 3.184 2.906 3.184.127 0 1.969-1.81 4.093-4.021z" color="#000" fill="#919caf" overflow="visible" style="isolation:auto;mix-blend-mode:normal;fill:#fff;fill-opacity:1;stroke-width:.746558" id="path13"/></svg>