<?xml version="1.0" encoding="UTF-8" standalone="no"?>
<svg
   width="64"
   height="64"
   version="1.1"
   viewBox="0 0 64 64"
   id="svg22"
   sodipodi:docname="default-folder-git.svg"
   inkscape:version="1.1.1 (3bf5ae0d25, 2021-09-20)"
   xmlns:inkscape="http://www.inkscape.org/namespaces/inkscape"
   xmlns:sodipodi="http://sodipodi.sourceforge.net/DTD/sodipodi-0.dtd"
   xmlns="http://www.w3.org/2000/svg"
   xmlns:svg="http://www.w3.org/2000/svg">
  <sodipodi:namedview
     id="namedview24"
     pagecolor="#505050"
     bordercolor="#ffffff"
     borderopacity="1"
     inkscape:pageshadow="0"
     inkscape:pageopacity="0"
     inkscape:pagecheckerboard="1"
     showgrid="false"
     inkscape:zoom="11.1875"
     inkscape:cx="31.955307"
     inkscape:cy="32"
     inkscape:window-width="1920"
     inkscape:window-height="1000"
     inkscape:window-x="0"
     inkscape:window-y="44"
     inkscape:window-maximized="1"
     inkscape:current-layer="svg22" />
  <defs
     id="defs8">
    <style
       id="current-color-scheme"
       type="text/css">.ColorScheme-Text {
        color:#333333;
      }
      .ColorScheme-Highlight {
        color:#5294e2;
      }</style>
    <linearGradient
       id="linearGradient892"
       x1="-197.72"
       x2="-197.72"
       y1="263.86"
       y2="273.76"
       gradientTransform="rotate(-45,-337.55,-145.8)"
       gradientUnits="userSpaceOnUse">
      <stop
         offset="0"
         id="stop3" />
      <stop
         stop-opacity="0"
         offset="1"
         id="stop5" />
    </linearGradient>
  </defs>
  <g
     transform="scale(3.7796)"
     id="g20">
    <path
       class="ColorScheme-Highlight"
       transform="scale(.26458)"
       d="m27.002 8.9844-14 0.00391c-1.1097 0-1.4926 1.0128-2.002 1.998v0.01367h-1c-2.216 0-4 1.784-4 4v5c-2.216 0-4 1.784-4 4v28c0 2.216 1.784 4 4 4h52c2.216 0 4-1.784 4-4v-32c0-2.216-1.784-4-4-4v-1c0-2.216-1.784-4-4-4h-16.859c-0.04729-0.0032-0.09249-0.01387-0.14062-0.01367h-7.9961c-0.58584-0.94113-0.8907-2.002-2.002-2.002z"
       fill="currentColor"
       id="path10" />
    <path
       d="m7.1441 2.3771-3.7041 0.00103c-0.2936 0-0.39492 0.26798-0.52967 0.52864v0.00362h-0.26458c-0.58631 0-1.0583 0.472-1.0583 1.0583v1.3229h6.6145l0.79373-1.0583h6.3499v-0.26458c0-0.58631-0.472-1.0583-1.0583-1.0583l-6.6134-0.00362c-0.155-0.249-0.23566-0.52967-0.52967-0.52967z"
       fill="#000000"
       opacity=".2"
       id="path12" />
    <path
       transform="scale(.26458)"
       d="m11.016 13.984c-1.1166 0-2.0156 0.89903-2.0156 2.0156v4h22l3-4h21c0-1.1166-0.89903-2.0156-2.0156-2.0156h-41.969z"
       fill="#ffffff"
       id="path14" />
    <rect
       x="3.704"
       y="2.64"
       width="3.175"
       height=".529"
       rx=".2645"
       ry=".2645"
       opacity=".25"
       id="rect16" />
    <path
       transform="scale(.26458)"
       d="m62 40-16 16h12c2.216 0 4-1.784 4-4z"
       fill="url(#linearGradient892)"
       opacity=".2"
       stroke-linecap="round"
       stroke-linejoin="round"
       stroke-width="2"
       id="path18" />
  </g>
  <path
     d="m 42.321288,37.548554 -9.366535,-9.233622 c -0.539175,-0.531909 -1.414051,-0.531909 -1.953946,0 l -1.944815,1.917639 2.467107,2.432287 c 0.573469,-0.190889 1.231011,-0.06277 1.687908,0.387757 0.45965,0.45333 0.58841,1.107138 0.389867,1.674445 l 2.378015,2.344088 c 0.575454,-0.195534 1.238921,-0.06914 1.698573,0.384628 0.64204,0.63277 0.64204,1.658543 0,2.291841 -0.6425,0.633314 -1.68279,0.633314 -2.325573,0 -0.482883,-0.476513 -0.602352,-1.176076 -0.35749,-1.762647 l -2.217947,-2.186378 v 5.753396 c 0.156415,0.07639 0.30414,0.178171 0.434555,0.306412 0.642037,0.632883 0.642037,1.658543 0,2.292393 -0.642039,0.632675 -1.683076,0.632675 -2.324644,0 -0.64204,-0.63385 -0.64204,-1.65951 0,-2.292393 0.158698,-0.156248 0.342451,-0.274474 0.538518,-0.353619 v -5.8066 c -0.196053,-0.07912 -0.379388,-0.196364 -0.538518,-0.353693 -0.486268,-0.479227 -0.603284,-1.18293 -0.353846,-1.771738 l -2.432276,-2.398199 -6.422661,6.331227 c -0.53944,0.532348 -0.53944,1.394842 0,1.92673 l 9.367005,9.23364 c 0.539265,0.531805 1.413858,0.531805 1.953942,0 l 9.322761,-9.190851 c 0.539618,-0.531983 0.539618,-1.394911 0,-1.926734"
     style="fill:#ffffff;fill-opacity:1;fill-rule:nonzero;stroke:none;stroke-width:0.023181"
     id="path870" />
</svg>
