<?xml version="1.0" encoding="UTF-8" standalone="no"?>
<svg
   width="64"
   height="64"
   viewBox="0 0 16.933 16.933"
   version="1.1"
   id="svg21"
   sodipodi:docname="green-folder-git.svg"
   inkscape:version="1.1.2 (0a00cf5339, 2022-02-04)"
   xmlns:inkscape="http://www.inkscape.org/namespaces/inkscape"
   xmlns:sodipodi="http://sodipodi.sourceforge.net/DTD/sodipodi-0.dtd"
   xmlns="http://www.w3.org/2000/svg"
   xmlns:svg="http://www.w3.org/2000/svg">
  <sodipodi:namedview
     id="namedview23"
     pagecolor="#505050"
     bordercolor="#ffffff"
     borderopacity="1"
     inkscape:pageshadow="0"
     inkscape:pageopacity="0"
     inkscape:pagecheckerboard="1"
     showgrid="false"
     inkscape:zoom="11.5625"
     inkscape:cx="31.308108"
     inkscape:cy="30.962162"
     inkscape:window-width="1920"
     inkscape:window-height="1000"
     inkscape:window-x="0"
     inkscape:window-y="44"
     inkscape:window-maximized="1"
     inkscape:current-layer="svg21" />
  <defs
     id="defs7">
    <linearGradient
       id="a"
       x1="-197.72"
       x2="-197.72"
       y1="263.86"
       y2="273.76"
       gradientTransform="rotate(-45 -337.55 -145.8)"
       gradientUnits="userSpaceOnUse">
      <stop
         offset="0"
         id="stop2" />
      <stop
         stop-opacity="0"
         offset="1"
         id="stop4" />
    </linearGradient>
  </defs>
  <path
     transform="scale(.26458)"
     d="m27.002 8.984-14 .004c-1.11 0-1.493 1.013-2.002 1.998V11h-1c-2.216 0-4 1.784-4 4v28c0 2.216 1.784 4 4 4h44c2.216 0 4-1.784 4-4V15c0-2.216-1.784-4-4-4H37.141c-.047-.003-.092-.014-.14-.014h-7.997c-.586-.94-.89-2.002-2.002-2.002z"
     fill="#66bb6a"
     style="paint-order:stroke fill markers"
     id="path9" />
  <path
     transform="scale(.26458)"
     d="m27.002 8.984-14 .004c-1.11 0-1.493 1.013-2.002 1.998V11h-1c-2.216 0-4 1.784-4 4v28c0 2.216 1.784 4 4 4h44c2.216 0 4-1.784 4-4V15c0-2.216-1.784-4-4-4l-24.996-.014c-.586-.94-.89-2.002-2.002-2.002z"
     opacity=".18"
     style="paint-order:stroke fill markers"
     id="path11" />
  <rect
     x="2.381"
     y="3.7"
     width="12.171"
     height="5.027"
     ry=".533"
     fill="#fff"
     paint-order="markers stroke fill"
     id="rect13" />
  <rect
     x="3.704"
     y="2.64"
     width="3.175"
     height=".529"
     ry=".265"
     opacity=".25"
     paint-order="stroke markers fill"
     id="rect15" />
  <path
     transform="scale(.26458)"
     d="m34 16-3 4H6c-2.216 0-4 1.784-4 4v28c0 2.216 1.784 4 4 4h52c2.216 0 4-1.784 4-4V20c0-2.216-1.784-4-4-4z"
     fill="#66bb6a"
     style="paint-order:stroke fill markers"
     id="path17" />
  <path
     transform="scale(.26458)"
     d="M62 40 46 56h12c2.216 0 4-1.784 4-4V40z"
     fill="url(#a)"
     opacity=".2"
     style="paint-order:stroke fill markers"
     id="path19" />
  <path
     style="fill:#ffffff;fill-opacity:1;stroke-width:0.00185693"
     d="m 7.3117243,13.333369 c 0.0667,-0.0082 0.121059,-0.03438 0.167192,-0.08064 0.03914,-0.03926 0.06436,-0.08571 0.07509,-0.138334 0.0061,-0.02985 0.0067,-0.0632 0.0061,-0.359455 l -5.16e-4,-0.294324 -0.197763,-0.0012 c -0.10877,-6.6e-4 -0.201524,-0.0017 -0.20612,-0.0023 -0.0046,-6e-4 -0.02089,-0.002 -0.03621,-0.0031 -0.06257,-0.0044 -0.135003,-0.01378 -0.195907,-0.02523 -0.226037,-0.04244 -0.403049,-0.126474 -0.52876,-0.250951 -0.07871,-0.07793 -0.131706,-0.163868 -0.173184,-0.280801 -0.0646,-0.182111 -0.1593,-0.330146 -0.303556,-0.474505 -0.0603,-0.06035 -0.099,-0.09405 -0.210117,-0.182991 -0.103522,-0.08286 -0.130661,-0.11138 -0.130661,-0.137288 0,-0.01696 0.01286,-0.02954 0.04726,-0.04624 0.04838,-0.02349 0.09555,-0.03306 0.153915,-0.03123 0.06973,0.0022 0.137373,0.02144 0.216138,0.06153 0.09269,0.04717 0.186919,0.118219 0.287131,0.216509 0.06135,0.06018 0.104904,0.108902 0.174388,0.195108 0.209894,0.260406 0.342985,0.357889 0.533369,0.390669 0.05653,0.0097 0.08026,0.01123 0.178266,0.01123 0.09307,0 0.115211,-0.0011 0.173623,-0.0084 0.08092,-0.01019 0.155014,-0.02888 0.201641,-0.05087 l 0.01687,-0.008 0.0012,-0.03322 c 0.007,-0.195062 0.08231,-0.365268 0.219597,-0.496307 0.02223,-0.02122 0.05752,-0.05059 0.07732,-0.06434 0.0058,-0.0041 0.01064,-0.0079 0.01068,-0.0085 4e-5,-6.6e-4 -0.0042,-0.0017 -0.0094,-0.0024 -0.01966,-0.0026 -0.115555,-0.01984 -0.155765,-0.02798 -0.370346,-0.07495 -0.67616,-0.191807 -0.927456,-0.3544 -0.153447,-0.09928 -0.28674,-0.21757 -0.3927,-0.348491 -0.188106,-0.232432 -0.301387,-0.5095379 -0.3416,-0.8356329 -0.01951,-0.158229 -0.02089,-0.3511522 -0.0038,-0.5301541 0.0385,-0.4028161 0.16683,-0.7498488 0.388373,-1.0502343 0.0035,-0.00477 0.0035,-0.00483 -0.0068,-0.042709 -0.09802,-0.3597462 -0.09133,-0.7421606 0.01995,-1.1418741 l 0.0044,-0.015784 0.03606,2.952e-4 c 0.149585,0.00122 0.344922,0.045797 0.531864,0.1213627 0.185571,0.075012 0.381493,0.1884869 0.523078,0.3029595 0.0099,0.008 0.01903,0.014547 0.0203,0.014547 0.0013,0 0.01888,-0.00504 0.03913,-0.011205 0.223176,-0.067913 0.479419,-0.1152278 0.738702,-0.1364009 0.117997,-0.00964 0.203932,-0.01285 0.343533,-0.01285 0.143693,0 0.233686,0.0035 0.354674,0.013804 0.261676,0.02228 0.502264,0.066858 0.735115,0.1362082 l 0.03413,0.010163 0.02901,-0.022636 c 0.04165,-0.032501 0.07118,-0.053721 0.122228,-0.087844 C 10.247546,7.0111914 10.58969,6.8889283 10.87164,6.8802112 l 0.03823,-0.00118 0.0028,0.010963 c 0.0016,0.00603 0.0067,0.025168 0.01134,0.042531 0.08046,0.2989321 0.09908,0.6064333 0.05404,0.8922558 -0.01013,0.064274 -0.02715,0.1458084 -0.04161,0.1993279 -0.0041,0.015159 -0.0074,0.028829 -0.0074,0.030377 0,0.00155 0.0086,0.014214 0.01914,0.028146 0.143943,0.1904848 0.249988,0.4035609 0.317706,0.6383636 0.05391,0.1869274 0.0818,0.3750622 0.08868,0.5980919 0.0069,0.2237217 -0.01809,0.4362767 -0.07361,0.6263087 -0.06472,0.2214859 -0.169491,0.4136199 -0.319989,0.5867919 -0.0284,0.03267 -0.10742,0.112156 -0.140552,0.141368 -0.249423,0.219906 -0.568425,0.378205 -0.9721037,0.482386 -0.09937,0.02564 -0.250624,0.05694 -0.337961,0.06992 -0.01175,0.0017 -0.02199,0.0037 -0.02276,0.0044 -7.8e-4,7.2e-4 0.0076,0.008 0.01857,0.01624 0.0755,0.0566 0.143239,0.131986 0.189694,0.211093 0.04096,0.06975 0.07168,0.154584 0.08549,0.236117 0.01092,0.06442 0.01004,0.0074 0.01127,0.732521 0.0011,0.618975 0.0013,0.66492 0.0043,0.679637 0.0087,0.04273 0.02108,0.07331 0.04366,0.107702 0.01361,0.02073 0.05168,0.05886 0.0727,0.0728 0.04126,0.02738 0.08506,0.0432 0.1322357,0.04776 0.0085,8.39e-4 -0.6075637,0.0015 -1.3689527,0.0016 -1.135622,4.3e-5 -1.38084,-3.76e-4 -1.364845,-0.0023 z"
     id="path852" />
</svg>
