<?xml version="1.0" encoding="UTF-8" standalone="no"?>
<svg
   width="64"
   height="64"
   viewBox="0 0 16.933 16.933"
   version="1.1"
   id="svg21"
   sodipodi:docname="grey-folder.svg"
   inkscape:version="1.1.2 (0a00cf5339, 2022-02-04)"
   xmlns:inkscape="http://www.inkscape.org/namespaces/inkscape"
   xmlns:sodipodi="http://sodipodi.sourceforge.net/DTD/sodipodi-0.dtd"
   xmlns="http://www.w3.org/2000/svg"
   xmlns:svg="http://www.w3.org/2000/svg">
  <sodipodi:namedview
     id="namedview23"
     pagecolor="#505050"
     bordercolor="#ffffff"
     borderopacity="1"
     inkscape:pageshadow="0"
     inkscape:pageopacity="0"
     inkscape:pagecheckerboard="1"
     showgrid="false"
     inkscape:zoom="11.5625"
     inkscape:cx="32"
     inkscape:cy="32"
     inkscape:window-width="1920"
     inkscape:window-height="1000"
     inkscape:window-x="0"
     inkscape:window-y="44"
     inkscape:window-maximized="1"
     inkscape:current-layer="g838" />
  <defs
     id="defs7">
    <linearGradient
       id="a"
       x1="-197.72"
       x2="-197.72"
       y1="263.86"
       y2="273.76"
       gradientTransform="rotate(-45 -337.55 -145.8)"
       gradientUnits="userSpaceOnUse">
      <stop
         offset="0"
         id="stop2" />
      <stop
         stop-opacity="0"
         offset="1"
         id="stop4" />
    </linearGradient>
  </defs>
  <path
     transform="scale(.26458)"
     d="m27.002 8.984-14 .004c-1.11 0-1.493 1.013-2.002 1.998V11h-1c-2.216 0-4 1.784-4 4v28c0 2.216 1.784 4 4 4h44c2.216 0 4-1.784 4-4V15c0-2.216-1.784-4-4-4H37.141c-.047-.003-.092-.014-.14-.014h-7.997c-.586-.94-.89-2.002-2.002-2.002z"
     fill="#bdbdbd"
     style="paint-order:stroke fill markers"
     id="path9" />
  <path
     transform="scale(.26458)"
     d="m27.002 8.984-14 .004c-1.11 0-1.493 1.013-2.002 1.998V11h-1c-2.216 0-4 1.784-4 4v28c0 2.216 1.784 4 4 4h44c2.216 0 4-1.784 4-4V15c0-2.216-1.784-4-4-4l-24.996-.014c-.586-.94-.89-2.002-2.002-2.002z"
     opacity=".18"
     style="paint-order:stroke fill markers"
     id="path11" />
  <rect
     x="2.381"
     y="3.7"
     width="12.171"
     height="5.027"
     ry=".533"
     fill="#fff"
     paint-order="markers stroke fill"
     id="rect13" />
  <rect
     x="3.704"
     y="2.64"
     width="3.175"
     height=".529"
     ry=".265"
     opacity=".25"
     paint-order="stroke markers fill"
     id="rect15" />
  <path
     transform="scale(.26458)"
     d="m34 16-3 4H6c-2.216 0-4 1.784-4 4v28c0 2.216 1.784 4 4 4h52c2.216 0 4-1.784 4-4V20c0-2.216-1.784-4-4-4z"
     fill="#bdbdbd"
     style="paint-order:stroke fill markers"
     id="path17" />
  <path
     transform="scale(.26458)"
     d="M62 40 46 56h12c2.216 0 4-1.784 4-4V40z"
     fill="url(#a)"
     opacity=".2"
     style="paint-order:stroke fill markers"
     id="path19" />
  <g
     id="g838"
     transform="scale(0.26457812)">
    <g
       id="g849"
       transform="matrix(3.779602,0,0,3.779602,-2.2692014e-4,-1.0000004)"
       style="fill:#666666;fill-opacity:1">
      <path
         d="M 8.2609786,7.5404766 5.9030519,8.8949327 8.4783207,10.382115 11.029915,8.8949327 8.6961212,7.5404766 v 1.0401269 l 0.9191606,0.5318241 c 0.036351,0.012066 0.036351,0.072701 0,0.096987 L 8.5270433,9.83792 c -0.036351,0.012218 -0.072854,0.012218 -0.096987,0 L 7.3418177,9.2094145 c -0.036351,-0.012218 -0.036351,-0.072854 0,-0.096987 L 8.2609786,8.5804508 Z M 11.030068,8.8949327 8.4784735,10.382421 5.9032047,8.8949327 V 11.591473 L 6.7977749,11.07141 v -1.051888 c 0,-0.0362 0.048265,-0.060638 0.072548,-0.048565 l 1.088544,0.628812 c 0.036352,0.01222 0.048265,0.04826 0.048265,0.09668 v 1.257774 c 0.024285,0.0362 -0.024285,0.06033 -0.060483,0.04827 l -0.9191608,-0.531837 -0.8945702,0.519605 2.345555,1.354457 2.3337941,-1.354457 -0.8947231,-0.519605 -0.9191603,0.544043 c -0.036198,0.02429 -0.072396,-0.01222 -0.072396,-0.04856 v -1.257471 c 0,-0.0362 0.024133,-0.0724 0.048265,-0.09668 L 10.062491,9.9831754 c 0.03635,-0.024136 0.07285,0.012063 0.07285,0.048264 v 1.051888 l 0.89457,0.520063 z"
         fill="#333333"
         id="path4"
         style="fill:#666666;stroke-width:0.152736;fill-opacity:1" />
    </g>
  </g>
</svg>
