<?xml version="1.0" encoding="UTF-8"?>
<svg width="64" height="64" version="1.1" viewBox="0 0 16.933 16.933" xmlns="http://www.w3.org/2000/svg" xmlns:cc="http://creativecommons.org/ns#" xmlns:dc="http://purl.org/dc/elements/1.1/" xmlns:rdf="http://www.w3.org/1999/02/22-rdf-syntax-ns#">
 <metadata>
  <rdf:RDF>
   <cc:Work rdf:about="">
    <dc:format>image/svg+xml</dc:format>
    <dc:type rdf:resource="http://purl.org/dc/dcmitype/StillImage"/>
    <dc:title/>
   </cc:Work>
  </rdf:RDF>
 </metadata>
 <defs>
  <linearGradient id="linearGradient892" x1="-197.72" x2="-197.72" y1="263.86" y2="273.76" gradientTransform="rotate(-45,-337.55,-145.8)" gradientUnits="userSpaceOnUse">
   <stop offset="0"/>
   <stop stop-opacity="0" offset="1"/>
  </linearGradient>
 </defs>
 <path transform="scale(.26458)" d="m27.002 8.9844-14 0.00391c-1.1097 0-1.4927 1.0128-2.002 1.998v0.01367h-1c-2.216 0-4 1.784-4 4v28c0 2.216 1.784 4 4 4h44c2.216 0 4-1.784 4-4v-28c0-2.216-1.784-4-4-4h-16.859c-0.04729-0.0032-0.09249-0.01387-0.14062-0.01367h-7.9961c-0.58584-0.94112-0.89075-2.002-2.002-2.002z" fill="#bdbdbd" stroke-linecap="round" stroke-linejoin="round" stroke-width="1.8619" style="paint-order:stroke fill markers"/>
 <path transform="scale(.26458)" d="m27.002 8.9844-14 0.00391c-1.1097 0-1.4927 1.0128-2.002 1.998v0.01367h-1c-2.216 0-4 1.784-4 4v28c0 2.216 1.784 4 4 4h44c2.216 0 4-1.784 4-4v-28c0-2.216-1.784-4-4-4l-24.996-0.01367c-0.58584-0.94112-0.89075-2.002-2.002-2.002z" opacity=".18" stroke-linecap="round" stroke-linejoin="round" stroke-width="1.8619" style="paint-order:stroke fill markers"/>
 <rect x="2.381" y="3.7" width="12.171" height="5.027" ry=".53326" fill="#fff" paint-order="markers stroke fill"/>
 <rect x="3.704" y="2.64" width="3.175" height=".529" ry=".265" opacity=".25" paint-order="stroke markers fill"/>
 <path d="m8.9957 4.2332-0.79374 1.0583h-6.6145c-0.58631 0-1.0583 0.47201-1.0583 1.0583v7.4082c0 0.58631 0.47201 1.0583 1.0583 1.0583h13.758c0.58631 0 1.0583-0.47201 1.0583-1.0583v-8.4666c0-0.58631-0.47201-1.0583-1.0583-1.0583z" fill="#bdbdbd" stroke-linecap="round" stroke-linejoin="round" stroke-width=".52916" style="paint-order:stroke fill markers"/>
 <path transform="scale(.26458)" d="m62 40-16 16h12c2.216 0 4-1.784 4-4z" fill="url(#linearGradient892)" opacity=".2" stroke-linecap="round" stroke-linejoin="round" stroke-width="2" style="paint-order:stroke fill markers"/>
 <path transform="scale(.26458)" d="m23.998 28.99c-1.108 0-2 0.892-2 2v12.01c0 1.108 0.892 2 2 2h16.002c1.108 0 2-0.892 2-2v-12.01c0-1.108-0.892-2-2-2h-16.002zm0 1.0098h16.002c0.554 0 1 0.446 1 1v11.186l-6.8398-6.8379-7.3711 7.3691a0.30237 0.30237 0 0 1 0.03125-0.38477l2.1172-2.125-3.0547-3.0605-2.8848 2.8789v-9.0254c0-0.554 0.446-1 1-1zm14.002 1.9863 0.003906 0.003906a1.0016 1.0016 0 0 0-1.002 0.99805 1.0016 1.0016 0 0 0 0.99805 0.99805 1.0016 1.0016 0 0 0 1.002-0.99805 1.0016 1.0016 0 0 0-1.002-1.002z" fill="#666" stroke-width="3.7796"/>
</svg>
