<?xml version="1.0" encoding="UTF-8"?>
<svg width="64" height="64" version="1.1" viewBox="0 0 16.933 16.933" xmlns="http://www.w3.org/2000/svg" xmlns:cc="http://creativecommons.org/ns#" xmlns:dc="http://purl.org/dc/elements/1.1/" xmlns:rdf="http://www.w3.org/1999/02/22-rdf-syntax-ns#">
 <metadata>
  <rdf:RDF>
   <cc:Work rdf:about="">
    <dc:format>image/svg+xml</dc:format>
    <dc:type rdf:resource="http://purl.org/dc/dcmitype/StillImage"/>
    <dc:title/>
   </cc:Work>
  </rdf:RDF>
 </metadata>
 <path transform="scale(.26458)" d="m6 9c-2.2164 0-4 1.7836-4 4v38c0 2.2164 1.7836 4 4 4h52c2.2164 0 4-1.7836 4-4v-38c0-2.2164-1.7836-4-4-4h-52z" fill="#e6e6e6" stroke-width="3.7796" style="paint-order:stroke markers fill"/>
 <rect x="1.5875" y="2.64" width="1.0583" height=".52918" ry=".26459" opacity=".25" style="paint-order:stroke markers fill"/>
 <rect x="7.1437" y="2.64" width="2.6458" height=".52918" ry=".26459" opacity=".25" style="paint-order:stroke markers fill"/>
 <rect x="15.081" y="2.64" width=".52917" height=".52918" ry=".26459" opacity=".25" style="paint-order:stroke markers fill"/>
 <rect x="14.023" y="2.64" width=".79375" height=".52918" ry=".26459" opacity=".25" style="paint-order:stroke markers fill"/>
 <rect x="13.229" y="2.64" width=".52917" height=".52918" ry=".26459" opacity=".25" style="paint-order:stroke markers fill"/>
 <g fill="#666">
  <path d="m3.9687 13.494c-0.29315 0-0.52916 0.23601-0.52916 0.52916v0.52916h10.054v-0.52916c0-0.29316-0.23601-0.52916-0.52916-0.52916z" opacity=".5" stroke-width=".26458" style="paint-order:stroke markers fill"/>
  <rect x="4.4979" y="12.7" width="1.3229" height="1.3229" ry=".13229" style="paint-order:stroke markers fill"/>
  <rect x="6.7028" y="12.7" width="1.3229" height="1.3229" ry=".13229" style="paint-order:stroke markers fill"/>
  <rect x="8.9076" y="12.7" width="1.3229" height="1.3229" ry=".13229" style="paint-order:stroke markers fill"/>
  <rect x="11.112" y="12.7" width="1.3229" height="1.3229" ry=".13229" style="paint-order:stroke markers fill"/>
 </g>
 <path d="m1.5875 2.3812c-0.58641 0-1.0583 0.4719-1.0583 1.0583h15.875c0-0.58641-0.4719-1.0583-1.0583-1.0583z" opacity=".35" stroke-width=".26458" style="paint-order:stroke markers fill"/>
 <rect x="1.587" y="2.645" width="1.058" height=".529" ry=".265" opacity=".25" style="paint-order:stroke markers fill"/>
 <rect x="7.144" y="2.645" width="2.646" height=".529" ry=".265" opacity=".25" style="paint-order:stroke markers fill"/>
 <rect x="15.081" y="2.645" width=".529" height=".529" ry=".265" opacity=".25" style="paint-order:stroke markers fill"/>
 <rect x="14.023" y="2.645" width=".794" height=".529" ry=".265" opacity=".25" style="paint-order:stroke markers fill"/>
 <rect x="13.229" y="2.645" width=".529" height=".529" ry=".265" opacity=".25" style="paint-order:stroke markers fill"/>
</svg>
