<?xml version="1.0" encoding="UTF-8" standalone="no"?>
<svg
   width="64"
   height="64"
   version="1.1"
   viewBox="0 0 16.933 16.933"
   id="svg23"
   sodipodi:docname="grey-folder-devices.svg"
   inkscape:version="1.1.1 (3bf5ae0d25, 2021-09-20)"
   xmlns:inkscape="http://www.inkscape.org/namespaces/inkscape"
   xmlns:sodipodi="http://sodipodi.sourceforge.net/DTD/sodipodi-0.dtd"
   xmlns="http://www.w3.org/2000/svg"
   xmlns:svg="http://www.w3.org/2000/svg"
   xmlns:rdf="http://www.w3.org/1999/02/22-rdf-syntax-ns#"
   xmlns:cc="http://creativecommons.org/ns#"
   xmlns:dc="http://purl.org/dc/elements/1.1/">
  <sodipodi:namedview
     id="namedview25"
     pagecolor="#ffffff"
     bordercolor="#666666"
     borderopacity="1.0"
     inkscape:pageshadow="2"
     inkscape:pageopacity="0.0"
     inkscape:pagecheckerboard="0"
     showgrid="false"
     inkscape:zoom="6.15625"
     inkscape:cx="-0.081218274"
     inkscape:cy="32"
     inkscape:window-width="1366"
     inkscape:window-height="688"
     inkscape:window-x="0"
     inkscape:window-y="0"
     inkscape:window-maximized="1"
     inkscape:current-layer="g28" />
  <metadata
     id="metadata2">
    <rdf:RDF>
      <cc:Work
         rdf:about="">
        <dc:format>image/svg+xml</dc:format>
        <dc:type
           rdf:resource="http://purl.org/dc/dcmitype/StillImage" />
      </cc:Work>
    </rdf:RDF>
  </metadata>
  <defs
     id="defs9">
    <linearGradient
       id="linearGradient892"
       x1="-197.72"
       x2="-197.72"
       y1="263.86"
       y2="273.76"
       gradientTransform="rotate(-45 -337.55 -145.8)"
       gradientUnits="userSpaceOnUse">
      <stop
         offset="0"
         id="stop4" />
      <stop
         stop-opacity="0"
         offset="1"
         id="stop6" />
    </linearGradient>
  </defs>
  <path
     transform="scale(.26458)"
     d="m27.002 8.9844-14 0.0039062c-1.1097 0-1.4927 1.0128-2.002 1.998v0.013672h-1c-2.216 0-4 1.784-4 4v28c0 2.216 1.784 4 4 4h44c2.216 0 4-1.784 4-4v-28c0-2.216-1.784-4-4-4h-16.859c-0.047294-0.003154-0.092488-0.013872-0.14062-0.013672h-7.9961c-0.58584-0.94112-0.89075-2.002-2.002-2.002z"
     fill="#bdbdbd"
     stroke-linecap="round"
     stroke-linejoin="round"
     stroke-width="1.8619"
     style="paint-order:stroke fill markers"
     id="path11" />
  <path
     transform="scale(.26458)"
     d="m27.002 8.9844-14 0.00391c-1.1097 0-1.4927 1.0128-2.002 1.998v0.013668h-1c-2.216 0-4 1.784-4 4v28c0 2.216 1.784 4 4 4h44c2.216 0 4-1.784 4-4v-28c0-2.216-1.784-4-4-4l-24.996-0.013672c-0.58584-0.94112-0.89075-2.002-2.002-2.002z"
     opacity=".18"
     stroke-linecap="round"
     stroke-linejoin="round"
     stroke-width="1.8619"
     style="paint-order:stroke fill markers"
     id="path13" />
  <rect
     x="2.381"
     y="3.7"
     width="12.171"
     height="5.027"
     ry=".53326"
     fill="#fff"
     paint-order="markers stroke fill"
     id="rect15" />
  <rect
     x="3.704"
     y="2.64"
     width="3.175"
     height=".529"
     ry=".265"
     opacity=".25"
     paint-order="stroke markers fill"
     id="rect17" />
  <path
     transform="scale(.26458)"
     d="m34 16-3 4h-25c-2.216 0-4 1.784-4 4v28c0 2.216 1.784 4 4 4h52c2.216 0 4-1.784 4-4v-32c0-2.216-1.784-4-4-4z"
     fill="#bdbdbd"
     stroke-linecap="round"
     stroke-linejoin="round"
     stroke-width="2"
     style="paint-order:stroke fill markers"
     id="path19" />
  <path
     transform="scale(.26458)"
     d="m62 40-16 16h12c2.216 0 4-1.784 4-4v-12z"
     fill="url(#linearGradient892)"
     opacity=".2"
     stroke-linecap="round"
     stroke-linejoin="round"
     stroke-width="2"
     style="paint-order:stroke fill markers"
     id="path21" />
  <g
     style="fill:#ffffff"
     id="g28"
     transform="matrix(0.26457812,0,0,0.26457812,5.2915625,6.6657813)">
    <path
       d="M 0,0 H 24 V 24 H 0 Z"
       fill="none"
       id="path16" />
    <path
       d="M 4,6 H 22 V 4 H 4 C 2.9,4 2,4.9 2,6 V 17 H 0 v 3 H 14 V 17 H 4 Z m 19,2 h -6 c -0.55,0 -1,0.45 -1,1 v 10 c 0,0.55 0.45,1 1,1 h 6 c 0.55,0 1,-0.45 1,-1 V 9 C 24,8.45 23.55,8 23,8 Z m -1,9 h -4 v -7 h 4 z"
       id="path18"
       style="fill:#666666;fill-opacity:1" />
  </g>
</svg>
