<?xml version="1.0" encoding="UTF-8"?>
<svg width="64" height="64" version="1.1" viewBox="0 0 16.933 16.933" xmlns="http://www.w3.org/2000/svg" xmlns:cc="http://creativecommons.org/ns#" xmlns:dc="http://purl.org/dc/elements/1.1/" xmlns:rdf="http://www.w3.org/1999/02/22-rdf-syntax-ns#">
 <metadata>
  <rdf:RDF>
   <cc:Work rdf:about="">
    <dc:format>image/svg+xml</dc:format>
    <dc:type rdf:resource="http://purl.org/dc/dcmitype/StillImage"/>
   </cc:Work>
  </rdf:RDF>
 </metadata>
 <defs>
  <linearGradient id="linearGradient892" x1="-197.72" x2="-197.72" y1="263.86" y2="273.76" gradientTransform="rotate(-45 -337.55 -145.8)" gradientUnits="userSpaceOnUse">
   <stop offset="0"/>
   <stop stop-opacity="0" offset="1"/>
  </linearGradient>
 </defs>
 <path transform="scale(.26458)" d="m27.002 8.9844-14 0.0039062c-1.1097 0-1.4927 1.0128-2.002 1.998v0.013672h-1c-2.216 0-4 1.784-4 4v28c0 2.216 1.784 4 4 4h44c2.216 0 4-1.784 4-4v-28c0-2.216-1.784-4-4-4h-16.859c-0.047294-0.003154-0.092488-0.013872-0.14062-0.013672h-7.9961c-0.58584-0.94112-0.89075-2.002-2.002-2.002z" fill="#bdbdbd" stroke-linecap="round" stroke-linejoin="round" stroke-width="1.8619" style="paint-order:stroke fill markers"/>
 <path transform="scale(.26458)" d="m27.002 8.9844-14 0.00391c-1.1097 0-1.4927 1.0128-2.002 1.998v0.013668h-1c-2.216 0-4 1.784-4 4v28c0 2.216 1.784 4 4 4h44c2.216 0 4-1.784 4-4v-28c0-2.216-1.784-4-4-4l-24.996-0.013672c-0.58584-0.94112-0.89075-2.002-2.002-2.002z" opacity=".18" stroke-linecap="round" stroke-linejoin="round" stroke-width="1.8619" style="paint-order:stroke fill markers"/>
 <rect x="2.381" y="3.7" width="12.171" height="5.027" ry=".53326" fill="#fff" paint-order="markers stroke fill"/>
 <rect x="3.704" y="2.64" width="3.175" height=".529" ry=".265" opacity=".25" paint-order="stroke markers fill"/>
 <path transform="scale(.26458)" d="m34 16-3 4h-25c-2.216 0-4 1.784-4 4v28c0 2.216 1.784 4 4 4h52c2.216 0 4-1.784 4-4v-32c0-2.216-1.784-4-4-4z" fill="#bdbdbd" stroke-linecap="round" stroke-linejoin="round" stroke-width="2" style="paint-order:stroke fill markers"/>
 <path transform="scale(.26458)" d="m62 40-16 16h12c2.216 0 4-1.784 4-4v-12z" fill="url(#linearGradient892)" opacity=".2" stroke-linecap="round" stroke-linejoin="round" stroke-width="2" style="paint-order:stroke fill markers"/>
 <path d="m9.8681 7.6701c-0.0797 3.175e-4 -0.15345 0.026458-0.2229 0.076064-0.17528 0.12633-0.53839 0.25796-1.1767 0.25796-0.64158 0-1.0054-0.13162-1.1807-0.25796-0.06945-0.049608-0.13559-0.072756-0.21496-0.072756-0.07937 0-0.1723 0.023151-0.2682 0.072756-0.34064 0.18255-0.65811 0.77188-0.83009 1.5408-0.14551 0.65613-0.19843 1.5474-0.11244 1.9062 0.07606 0.31154 0.20835 0.44812 0.44317 0.44812 0.34395-0.0066 0.77717-0.39224 1.055-0.91277 0.19843-0.28839 0.66142-0.41769 1.1079-0.40414 0.44317-0.01654 0.9065 0.11575 1.1049 0.40414 0.27781 0.52053 0.71071 0.90615 1.0579 0.91277 0.2315 0 0.3638-0.13659 0.43986-0.44812 0.08599-0.35882 0.03307-1.2501-0.11244-1.9062-0.17197-0.76892-0.48944-1.3582-0.83009-1.5405-0.094254-0.051593-0.18024-0.076725-0.26027-0.076064zm-2.7244 0.99479h0.33072v0.33072h0.33072v0.33072h-0.33072v0.33072h-0.33072v-0.33072h-0.33072v-0.33072h0.33072zm2.4803 0a0.16536 0.16536 0 0 1 0.16536 0.16536 0.16536 0.16536 0 0 1-0.16536 0.16536 0.16536 0.16536 0 0 1-0.16536-0.16536 0.16536 0.16536 0 0 1 0.16536-0.16536zm-0.33072 0.33072a0.16536 0.16536 0 0 1 0.16536 0.16536 0.16536 0.16536 0 0 1-0.16536 0.16536 0.16536 0.16536 0 0 1-0.16536-0.16536 0.16536 0.16536 0 0 1 0.16536-0.16536zm0.66142 0a0.16536 0.16536 0 0 1 0.16536 0.16536 0.16536 0.16536 0 0 1-0.16536 0.16536 0.16536 0.16536 0 0 1-0.16536-0.16536 0.16536 0.16536 0 0 1 0.16536-0.16536zm-0.33072 0.33072a0.16536 0.16536 0 0 1 0.16536 0.16536 0.16536 0.16536 0 0 1-0.16536 0.16536 0.16536 0.16536 0 0 1-0.16536-0.16536 0.16536 0.16536 0 0 1 0.16536-0.16536z" fill="#666" stroke-width=".26458"/>
</svg>
