<?xml version="1.0" encoding="UTF-8" standalone="no"?>
<svg
   width="64"
   height="64"
   viewBox="0 0 16.933 16.933"
   version="1.1"
   id="svg21"
   sodipodi:docname="orange-folder-git.svg"
   inkscape:version="1.1.2 (0a00cf5339, 2022-02-04)"
   xmlns:inkscape="http://www.inkscape.org/namespaces/inkscape"
   xmlns:sodipodi="http://sodipodi.sourceforge.net/DTD/sodipodi-0.dtd"
   xmlns="http://www.w3.org/2000/svg"
   xmlns:svg="http://www.w3.org/2000/svg">
  <sodipodi:namedview
     id="namedview23"
     pagecolor="#505050"
     bordercolor="#ffffff"
     borderopacity="1"
     inkscape:pageshadow="0"
     inkscape:pageopacity="0"
     inkscape:pagecheckerboard="1"
     showgrid="false"
     inkscape:zoom="11.1875"
     inkscape:cx="32"
     inkscape:cy="32"
     inkscape:window-width="1920"
     inkscape:window-height="1000"
     inkscape:window-x="0"
     inkscape:window-y="44"
     inkscape:window-maximized="1"
     inkscape:current-layer="svg21" />
  <defs
     id="defs7">
    <linearGradient
       id="a"
       x1="-197.72"
       x2="-197.72"
       y1="263.86"
       y2="273.76"
       gradientTransform="rotate(-45 -337.55 -145.8)"
       gradientUnits="userSpaceOnUse">
      <stop
         offset="0"
         id="stop2" />
      <stop
         stop-opacity="0"
         offset="1"
         id="stop4" />
    </linearGradient>
  </defs>
  <path
     transform="scale(.26458)"
     d="m27.002 8.984-14 .004c-1.11 0-1.493 1.013-2.002 1.998V11h-1c-2.216 0-4 1.784-4 4v28c0 2.216 1.784 4 4 4h44c2.216 0 4-1.784 4-4V15c0-2.216-1.784-4-4-4H37.141c-.047-.003-.092-.014-.14-.014h-7.997c-.586-.94-.89-2.002-2.002-2.002z"
     fill="#ff9800"
     style="paint-order:stroke fill markers"
     id="path9" />
  <path
     transform="scale(.26458)"
     d="m27.002 8.984-14 .004c-1.11 0-1.493 1.013-2.002 1.998V11h-1c-2.216 0-4 1.784-4 4v28c0 2.216 1.784 4 4 4h44c2.216 0 4-1.784 4-4V15c0-2.216-1.784-4-4-4l-24.996-.014c-.586-.94-.89-2.002-2.002-2.002z"
     opacity=".18"
     style="paint-order:stroke fill markers"
     id="path11" />
  <rect
     x="2.381"
     y="3.7"
     width="12.171"
     height="5.027"
     ry=".533"
     fill="#fff"
     paint-order="markers stroke fill"
     id="rect13" />
  <rect
     x="3.704"
     y="2.64"
     width="3.175"
     height=".529"
     ry=".265"
     opacity=".25"
     paint-order="stroke markers fill"
     id="rect15" />
  <path
     transform="scale(.26458)"
     d="m34 16-3 4H6c-2.216 0-4 1.784-4 4v28c0 2.216 1.784 4 4 4h52c2.216 0 4-1.784 4-4V20c0-2.216-1.784-4-4-4z"
     fill="#ff9800"
     style="paint-order:stroke fill markers"
     id="path17" />
  <path
     transform="scale(.26458)"
     d="M62 40 46 56h12c2.216 0 4-1.784 4-4V40z"
     fill="url(#a)"
     opacity=".2"
     style="paint-order:stroke fill markers"
     id="path19" />
  <path
     style="fill:#ffffff;fill-opacity:1;stroke-width:0.00185693"
     d="m 7.3117135,13.333369 c 0.0667,-0.0082 0.121059,-0.03438 0.167192,-0.08064 0.03914,-0.03926 0.06436,-0.08571 0.07509,-0.138334 0.0061,-0.02985 0.0067,-0.0632 0.0061,-0.359455 l -5.17e-4,-0.294324 -0.197763,-0.0012 c -0.10877,-6.6e-4 -0.201524,-0.0017 -0.20612,-0.0023 -0.0046,-6e-4 -0.02089,-0.002 -0.03621,-0.0031 -0.06257,-0.0044 -0.1350029,-0.01378 -0.1959065,-0.02523 C 6.6975773,12.386344 6.5205652,12.302312 6.3948548,12.177835 6.3161493,12.099902 6.2631488,12.013967 6.221671,11.897034 6.1570735,11.714923 6.0623704,11.566888 5.9181142,11.422529 c -0.060303,-0.06035 -0.099,-0.09405 -0.2101171,-0.182991 -0.1035216,-0.08286 -0.130661,-0.11138 -0.130661,-0.137288 0,-0.01696 0.012861,-0.02954 0.047257,-0.04624 0.048379,-0.02349 0.095554,-0.03306 0.1539151,-0.03123 0.069726,0.0022 0.1373729,0.02144 0.2161384,0.06153 0.092687,0.04717 0.1869187,0.118219 0.287131,0.216509 0.061355,0.06018 0.1049043,0.108902 0.1743883,0.195108 0.2098939,0.260406 0.3429843,0.357889 0.533369,0.390669 0.056525,0.0097 0.08026,0.01123 0.1782656,0.01123 0.09307,0 0.115211,-0.0011 0.173623,-0.0084 0.08092,-0.01019 0.155014,-0.02888 0.201641,-0.05087 l 0.01687,-0.008 0.0012,-0.03322 c 0.007,-0.195062 0.08231,-0.365268 0.219596,-0.496307 0.02222,-0.02122 0.05752,-0.05059 0.07732,-0.06434 0.0058,-0.0041 0.01064,-0.0079 0.01068,-0.0085 3.9e-5,-6.6e-4 -0.0042,-0.0017 -0.0094,-0.0024 -0.01966,-0.0026 -0.115555,-0.01984 -0.155765,-0.02798 -0.370346,-0.07495 -0.67616,-0.191807 -0.9274564,-0.3544 -0.1534467,-0.09928 -0.2867399,-0.21757 -0.3927,-0.348491 C 6.1952707,10.264486 6.0819899,9.9873801 6.0417761,9.6612851 6.0222631,9.5030561 6.0208891,9.3101329 6.0379961,9.131131 6.0764951,8.7283149 6.2048267,8.3812822 6.4263692,8.0808967 c 0.00354,-0.00477 0.00354,-0.00483 -0.00681,-0.042709 -0.098015,-0.3597462 -0.091335,-0.7421606 0.019946,-1.1418741 l 0.00438,-0.015784 0.036063,2.952e-4 c 0.1495848,0.00122 0.3449219,0.045797 0.5318643,0.1213627 0.185571,0.075012 0.381493,0.1884869 0.523078,0.3029595 0.0099,0.008 0.01903,0.014547 0.0203,0.014547 0.0013,0 0.01888,-0.00504 0.03913,-0.011205 0.223176,-0.067913 0.479419,-0.1152278 0.738702,-0.1364009 0.117997,-0.00964 0.203932,-0.01285 0.343533,-0.01285 0.143693,0 0.233686,0.0035 0.354674,0.013804 0.261676,0.02228 0.502264,0.066858 0.735115,0.1362082 l 0.03413,0.010163 0.02901,-0.022636 c 0.04165,-0.032501 0.07118,-0.053721 0.122228,-0.087844 0.2958095,-0.1977419 0.6379535,-0.320005 0.9199035,-0.3287221 l 0.03823,-0.00118 0.0028,0.010963 c 0.0016,0.00603 0.0067,0.025168 0.01134,0.042531 0.08046,0.2989321 0.09908,0.6064333 0.05404,0.8922558 -0.01013,0.064274 -0.02715,0.1458084 -0.04161,0.1993279 -0.0041,0.015159 -0.0074,0.028829 -0.0074,0.030377 0,0.00155 0.0086,0.014214 0.01914,0.028146 0.143943,0.1904848 0.249988,0.4035609 0.317706,0.6383636 0.05391,0.1869274 0.0818,0.3750622 0.08868,0.5980919 0.0069,0.2237217 -0.01809,0.4362767 -0.07361,0.6263087 -0.06472,0.2214859 -0.169491,0.4136199 -0.319989,0.5867919 -0.0284,0.03267 -0.10742,0.112156 -0.140552,0.141368 -0.249423,0.219906 -0.568425,0.378205 -0.9721035,0.482386 -0.09937,0.02564 -0.250624,0.05694 -0.337961,0.06992 -0.01174,0.0017 -0.02199,0.0037 -0.02276,0.0044 -7.8e-4,7.2e-4 0.0076,0.008 0.01857,0.01624 0.0755,0.0566 0.143239,0.131986 0.189694,0.211093 0.04096,0.06975 0.07168,0.154584 0.08549,0.236117 0.01092,0.06442 0.01004,0.0074 0.01127,0.732521 0.0011,0.618975 0.0013,0.66492 0.0043,0.679637 0.0087,0.04273 0.02109,0.07331 0.04366,0.107702 0.01361,0.02073 0.05168,0.05886 0.0727,0.0728 0.04126,0.02738 0.08506,0.0432 0.1322355,0.04776 0.0085,8.39e-4 -0.6075635,0.0015 -1.3689525,0.0016 -1.135622,4.3e-5 -1.38084,-3.76e-4 -1.364845,-0.0023 z"
     id="path852" />
</svg>
