<svg width="64" height="64" viewBox="0 0 16.933 16.933" xmlns="http://www.w3.org/2000/svg"><defs><linearGradient id="a" x1="-197.72" x2="-197.72" y1="263.86" y2="273.76" gradientTransform="rotate(-45 -337.55 -145.8)" gradientUnits="userSpaceOnUse"><stop offset="0"/><stop stop-opacity="0" offset="1"/></linearGradient></defs><path transform="scale(.26458)" d="m27.002 8.984-14 .004c-1.11 0-1.493 1.013-2.002 1.998V11h-1c-2.216 0-4 1.784-4 4v28c0 2.216 1.784 4 4 4h44c2.216 0 4-1.784 4-4V15c0-2.216-1.784-4-4-4H37.141c-.047-.003-.092-.014-.14-.014h-7.997c-.586-.94-.89-2.002-2.002-2.002z" fill="#7e57c2" style="paint-order:stroke fill markers"/><path transform="scale(.26458)" d="m27.002 8.984-14 .004c-1.11 0-1.493 1.013-2.002 1.998V11h-1c-2.216 0-4 1.784-4 4v28c0 2.216 1.784 4 4 4h44c2.216 0 4-1.784 4-4V15c0-2.216-1.784-4-4-4l-24.996-.014c-.586-.94-.89-2.002-2.002-2.002z" opacity=".18" style="paint-order:stroke fill markers"/><rect x="2.381" y="3.7" width="12.171" height="5.027" ry=".533" fill="#fff" paint-order="markers stroke fill"/><rect x="3.704" y="2.64" width="3.175" height=".529" ry=".265" opacity=".25" paint-order="stroke markers fill"/><path d="m34 16-3 4H6c-2.216 0-4 1.784-4 4v28c0 2.216 1.784 4 4 4h52c2.216 0 4-1.784 4-4V20c0-2.216-1.784-4-4-4z" fill="#7e57c2" style="paint-order:stroke fill markers" transform="scale(.26458)"/><path transform="scale(.26458)" d="M62 40 46 56h12c2.216 0 4-1.784 4-4V40z" fill="url(#a)" opacity=".2" style="paint-order:stroke fill markers"/><g style="fill:#fff"><path fill="none" d="M5.292 6.404h6.35v6.35h-6.35z"/><path d="M7.673 7.463v.365a1.874 1.874 0 0 0-.69-.133c-.474 0-1.258.224-1.62.586l.88.881.604-.043v.294c.228.227.524.346.823.36v1.216H6.88v.794c0 .29.238.529.53.529h2.645c.44 0 .794-.355.794-.794V7.463Zm-.294 1.696v-.57h-.603l-.586-.231c.151-.058.626-.133.792-.133.355 0 .685.137.937.386l.373.373-.053.053a.715.715 0 0 1-.508.212.732.732 0 0 1-.352-.09zm2.94 2.359c0 .145-.12.265-.265.265a.265.265 0 0 1-.265-.265v-.53H8.202v-1.3c.15-.061.291-.151.413-.273l.053-.053.748.746h.373v-.373l-1.587-1.58v-.163h2.117z"/></g></svg>