<?xml version="1.0" encoding="UTF-8"?>
<svg width="64" height="64" version="1.1" viewBox="0 0 16.933 16.933" xmlns="http://www.w3.org/2000/svg" xmlns:cc="http://creativecommons.org/ns#" xmlns:dc="http://purl.org/dc/elements/1.1/" xmlns:rdf="http://www.w3.org/1999/02/22-rdf-syntax-ns#">
 <metadata>
  <rdf:RDF>
   <cc:Work rdf:about="">
    <dc:format>image/svg+xml</dc:format>
    <dc:type rdf:resource="http://purl.org/dc/dcmitype/StillImage"/>
    <dc:title/>
   </cc:Work>
  </rdf:RDF>
 </metadata>
 <defs>
  <linearGradient id="linearGradient892" x1="-197.72" x2="-197.72" y1="263.86" y2="273.76" gradientTransform="matrix(.18709 -.18709 .18709 .18709 1.1192 -74.45)" gradientUnits="userSpaceOnUse">
   <stop offset="0"/>
   <stop stop-opacity="0" offset="1"/>
  </linearGradient>
 </defs>
 <path d="m7.1442 2.3771-3.7041 0.00103c-0.2936 0-0.39494 0.26797-0.52969 0.52863v0.00362h-0.26458c-0.58631 0-1.0583 0.47201-1.0583 1.0583v7.4082c0 0.58631 0.47201 1.0583 1.0583 1.0583h11.642c0.58631 0 1.0583-0.47201 1.0583-1.0583v-7.4082c0-0.58631-0.47201-1.0583-1.0583-1.0583h-4.4606c-0.012512-8.466e-4 -0.024471-0.00367-0.037205-0.00362h-2.1156c-0.155-0.249-0.23567-0.52969-0.52969-0.52969z" fill="#ffca28" stroke-linecap="round" stroke-linejoin="round" stroke-width=".49262" style="paint-order:stroke fill markers"/>
 <path d="m7.1442 2.3771-3.7041 0.00103c-0.2936 0-0.39494 0.26797-0.52969 0.52863v0.00362h-0.26458c-0.58631 0-1.0583 0.47201-1.0583 1.0583v7.4082c0 0.58631 0.47201 1.0583 1.0583 1.0583h11.642c0.58631 0 1.0583-0.47201 1.0583-1.0583v-7.4082c0-0.58631-0.47201-1.0583-1.0583-1.0583l-6.6134-0.0036168c-0.155-0.249-0.23567-0.52969-0.52969-0.52969z" opacity=".18" stroke-linecap="round" stroke-linejoin="round" stroke-width=".49262" style="paint-order:stroke fill markers"/>
 <rect x="3.704" y="2.64" width="3.175" height=".529" ry=".265" opacity=".25" paint-order="stroke markers fill"/>
 <path d="m8.467 3.436-2.382 2.381h1.323v2.382c0 0.146 0.118 0.264 0.265 0.264h1.587a0.264 0.264 0 0 0 0.265-0.264v-2.382h1.323l-2.381-2.38z" fill="#fff" stroke="#000" stroke-opacity=".039" stroke-width=".26458" paint-order="stroke markers fill"/>
 <path d="m8.9957 6.3499-0.79374 1.0583h-6.6145c-0.58631 0-1.0583 0.47201-1.0583 1.0583v5.2917c0 0.58631 0.47201 1.0583 1.0583 1.0583h13.758c0.58631 0 1.0583-0.47201 1.0583-1.0583v-6.35c0-0.58631-0.47202-1.056-1.0583-1.0583z" fill="#ffca28" stroke-linecap="round" stroke-linejoin="round" stroke-width=".52916" style="paint-order:stroke fill markers"/>
 <path d="m16.404 10.583-4.2333 4.2333h3.175c0.58631 0 1.0583-0.47201 1.0583-1.0583z" fill="url(#linearGradient892)" opacity=".2" stroke-linecap="round" stroke-linejoin="round" stroke-width=".52916" style="paint-order:stroke fill markers"/>
</svg>
