<svg width="16" height="16" version="1.1" id="svg7" xmlns="http://www.w3.org/2000/svg"><defs id="defs3"><style id="current-color-scheme" type="text/css">.ColorScheme-Text{color:#555}.ColorScheme-Highlight{color:#5294e2}</style></defs><path d="M15.573 7.314 8.704.534a1.026 1.026 0 0 0-1.433 0L5.843 1.948 7.65 3.731a1.215 1.215 0 0 1 1.24.286c.337.332.432.812.285 1.228l1.747 1.72a1.217 1.217 0 0 1 1.245.282 1.175 1.175 0 0 1 0 1.68 1.22 1.22 0 0 1-1.708 0 1.176 1.176 0 0 1-.261-1.292L8.57 6.033v4.22a1.178 1.178 0 0 1 .32 1.908 1.22 1.22 0 0 1-1.706 0 1.178 1.178 0 0 1 .394-1.941V5.952a1.176 1.176 0 0 1-.655-1.558L5.141 2.633.427 7.278a.99.99 0 0 0 0 1.414l6.874 6.774a1.026 1.026 0 0 0 1.434 0l6.838-6.744a.99.99 0 0 0 0-1.414" style="fill:#545454;fill-opacity:1;fill-rule:nonzero;stroke:none;stroke-width:.0170071" id="path21"/></svg>