<svg width="16" height="16" xmlns="http://www.w3.org/2000/svg"><defs><style id="current-color-scheme" type="text/css">.ColorScheme-Highlight{color:#5294e2}</style></defs><path style="fill:currentColor;color:#555" d="M8 1c-.553 0-1 .447-1 1v5.586L5.172 5.758c-.392-.392-1.022-.392-1.414 0s-.392 1.022 0 1.414l3.525 3.525a.998.998 0 0 0 1.094.23l.006-.003c.122-.05.234-.125.326-.217l3.535-3.535a.998.998 0 0 0 0-1.414.998.998 0 0 0-1.414 0L9 7.586V2c0-.554-.447-1-1-1zM2 11v2c0 1.108.892 2 2 2h8c1.108 0 2-.892 2-2v-2h-2v2H4v-2H2z"/></svg>