<?xml version="1.0" encoding="UTF-8" standalone="no"?>
<svg
   width="16"
   height="16"
   version="1.1"
   id="svg7"
   sodipodi:docname="folder-build-symbolic.svg"
   inkscape:version="1.1.2 (0a00cf5339, 2022-02-04)"
   xmlns:inkscape="http://www.inkscape.org/namespaces/inkscape"
   xmlns:sodipodi="http://sodipodi.sourceforge.net/DTD/sodipodi-0.dtd"
   xmlns="http://www.w3.org/2000/svg"
   xmlns:svg="http://www.w3.org/2000/svg">
  <sodipodi:namedview
     id="namedview9"
     pagecolor="#505050"
     bordercolor="#ffffff"
     borderopacity="1"
     inkscape:pageshadow="0"
     inkscape:pageopacity="0"
     inkscape:pagecheckerboard="1"
     showgrid="false"
     inkscape:zoom="22.375"
     inkscape:cx="10.905028"
     inkscape:cy="11.128492"
     inkscape:window-width="1920"
     inkscape:window-height="1000"
     inkscape:window-x="0"
     inkscape:window-y="44"
     inkscape:window-maximized="1"
     inkscape:current-layer="svg7" />
  <defs
     id="defs3">
    <style
       id="current-color-scheme"
       type="text/css">.ColorScheme-Text { color:#555555; } .ColorScheme-Highlight { color:#5294e2; }</style>
  </defs>
  <path
     d="M 5.014701,12.571622 C 6.5245998,10.999635 7.9044734,9.3655431 8.0806734,8.9399071 8.2568788,8.5148011 8.951055,7.6741411 9.6245371,7.0728341 11.386532,5.4987194 12.414003,5.6223748 13.298179,7.5143931 c 0.225564,0.482423 0.536032,0.876749 0.689942,0.876749 0.351333,0 1.972686,-1.5783598 1.972686,-1.9212053 0,-0.443152 -0.832169,-1.2073885 -1.314597,-1.2073885 -0.509489,0 -0.996689,-0.7308009 -0.996689,-1.4939788 0,-0.5784846 -1.592164,-2.1886894 -2.747538,-2.77884975 -0.550887,-0.2812817 -1.4992858,-0.4197998 -2.8738514,-0.4197998 -2.0788327,0 -2.947621,0.3444374 -1.6171061,0.64110965 0.3996326,0.089159 1.1516637,0.5174522 1.6717706,0.9526428 1.3374145,1.1198191 1.2838114,1.9610104 -0.2425444,3.774483 -0.6527875,0.7753817 -1.3464384,1.4101217 -1.5422741,1.4101217 -0.4325388,0 -6.25878435,5.4170579 -6.25878435,5.8188129 0,0.303572 1.78852775,2.26299 2.06609565,2.26299 0.090225,0 1.3995082,-1.285934 2.9094067,-2.858458 z"
     color="#000000"
     fill="#919caf"
     overflow="visible"
     style="isolation:auto;mix-blend-mode:normal;fill:#545454;fill-opacity:1;stroke-width:0.53072"
     id="path13" />
</svg>
