<svg width="16" height="16" xmlns="http://www.w3.org/2000/svg"><path class="ColorScheme-Text" d="M2.5 2C1.669 2 1 2.669 1 3.5V12c0 1.108.892 2 2 2h10c1.108 0 2-.892 2-2V6c0-1.108-.892-2-2-2H8L6 2zM3 6h10v6H3z" color="#555" fill="currentColor"/><path d="M8.537 5.394 2 7.146v1.036L12.346 5.41A4.001 4.001 0 0 0 12 5.395zm5.309.612L2 9.18v1.035L14 7v-.605a.603.603 0 0 0-.155-.39zM14 7.963 2 11.18v1.035L14 9zm0 2L2.486 13.049c.366.211.907.345 1.514.345h1.064L14 11z" fill="#555" style="paint-order:fill markers stroke"/></svg>