<svg width="16" height="16" xmlns="http://www.w3.org/2000/svg"><path style="fill:#545454;fill-opacity:1;stroke-width:.1088" d="M4.1 14.607a128.691 128.691 0 0 1-3.947-1.038c-.13-.08-.122-1.895.012-1.895.06 0 1.737.417 3.732.922 1.996.512 3.834.928 4.084.928.25 0 2.1-.416 4.113-.922 2.013-.508 3.702-.898 3.753-.865.128.08.122 1.754-.006 1.838-.074.044-7.896 2.037-7.896 2.01L4.1 14.604Zm-.128-4.658C1.964 9.432.263 8.968.192 8.92c-.09-.06-.134-.392-.134-.951 0-.77.02-.863.202-.863.11 0 1.847.417 3.86.922 2.014.509 3.783.925 3.93.925.148 0 1.911-.416 3.919-.922a102.089 102.089 0 0 1 3.815-.928c.14 0 .161.158.134.949l-.03.949-3.806.951c-2.097.527-3.956.952-4.134.949-.181-.006-1.972-.434-3.976-.952Zm.02-4.586C1.938 4.837.21 4.361.154 4.305c-.06-.06-.09-.515-.074-1.011l.032-.91 3.947-.985L8.004.415l3.4.85c1.867.467 3.652.922 3.967 1.008l.571.158v.919c0 .764-.03.934-.19 1.017-.247.131-7.661 1.978-7.866 1.963a165.42 165.42 0 0 1-3.896-.967Z"/></svg>