<svg width="16" height="16" version="1.1" id="svg7" xmlns="http://www.w3.org/2000/svg"><defs id="defs3"><style id="current-color-scheme" type="text/css">.ColorScheme-Text{color:#555}.ColorScheme-Highlight{color:#5294e2}</style></defs><path d="M5.015 12.572C6.525 11 7.905 9.366 8.08 8.94c.176-.425.87-1.266 1.544-1.867 1.762-1.574 2.789-1.45 3.673.441.226.483.536.877.69.877.351 0 1.973-1.578 1.973-1.921 0-.443-.832-1.207-1.315-1.207-.51 0-.996-.731-.996-1.494 0-.579-1.593-2.19-2.748-2.78-.55-.28-1.5-.42-2.874-.42-2.079 0-2.947.345-1.617.642.4.09 1.152.517 1.672.953 1.337 1.12 1.284 1.96-.243 3.774-.653.776-1.346 1.41-1.542 1.41-.433 0-6.259 5.417-6.259 5.82 0 .303 1.789 2.262 2.066 2.262.09 0 1.4-1.286 2.91-2.858z" color="#000" fill="#919caf" overflow="visible" style="isolation:auto;mix-blend-mode:normal;fill:#545454;fill-opacity:1;stroke-width:.53072" id="path13"/></svg>