<?xml version="1.0" encoding="UTF-8" standalone="no"?>
<svg
   width="16"
   height="16"
   version="1.1"
   id="svg6"
   sodipodi:docname="folder-stack-symbolic.svg"
   inkscape:version="1.1.2 (0a00cf5339, 2022-02-04)"
   xmlns:inkscape="http://www.inkscape.org/namespaces/inkscape"
   xmlns:sodipodi="http://sodipodi.sourceforge.net/DTD/sodipodi-0.dtd"
   xmlns="http://www.w3.org/2000/svg"
   xmlns:svg="http://www.w3.org/2000/svg">
  <defs
     id="defs10" />
  <sodipodi:namedview
     id="namedview8"
     pagecolor="#505050"
     bordercolor="#ffffff"
     borderopacity="1"
     inkscape:pageshadow="0"
     inkscape:pageopacity="0"
     inkscape:pagecheckerboard="1"
     showgrid="false"
     inkscape:zoom="31.643028"
     inkscape:cx="2.3385878"
     inkscape:cy="8.6590953"
     inkscape:window-width="1920"
     inkscape:window-height="1000"
     inkscape:window-x="0"
     inkscape:window-y="44"
     inkscape:window-maximized="1"
     inkscape:current-layer="svg6" />
  <path
     style="fill:#545454;fill-opacity:1;stroke-width:0.1088"
     d="M 4.0995895,14.606624 A 128.69124,128.69124 0 0 1 0.15308214,13.568695 c -0.13085635,-0.0803 -0.12193435,-1.894442 0.0118956,-1.894442 0.0594803,0 1.73682006,0.416361 3.73237926,0.921942 1.9955586,0.511528 3.833495,0.927891 4.083312,0.927891 0.2498163,0 2.09965,-0.416363 4.113052,-0.921942 2.013404,-0.508556 3.70264,-0.898151 3.753197,-0.865437 0.127883,0.0803 0.121934,1.754664 -0.006,1.837936 -0.07435,0.04461 -7.8959893,2.037195 -7.8959893,2.010429 L 4.0995895,14.60365 Z M 3.9717075,9.9493281 C 1.9642524,9.4318507 0.26312034,8.9679063 0.19174419,8.9203219 0.10252423,8.8608436 0.05791387,8.5277525 0.05791387,7.9686394 c 0,-0.7702678 0.02081768,-0.862462 0.2022325,-0.862462 0.11003831,0 1.84685843,0.416361 3.86026123,0.9219422 2.013403,0.5085551 3.7829371,0.9249159 3.928664,0.9249159 0.1487003,0 1.9122866,-0.4163608 3.9197424,-0.9219419 a 102.08876,102.08876 0 0 1 3.815651,-0.9278903 c 0.139778,0 0.160595,0.1576225 0.13383,0.9487084 l -0.02975,0.9487082 -3.806729,0.9516828 C 9.9851477,10.478701 8.1263922,10.903985 7.9479518,10.901011 7.766541,10.895046 5.9761883,10.466806 3.9717075,9.9493281 Z M 3.9925254,5.3634092 C 1.9374865,4.8370097 0.20958828,4.3611686 0.15308214,4.3046626 0.09360195,4.2451824 0.0638619,3.7901593 0.07873193,3.2935001 L 0.11144622,2.3834538 4.057954,1.3990573 8.0044618,0.4146609 11.403753,1.265227 c 1.867675,0.4669191 3.65208,0.9219422 3.967326,1.0081885 l 0.571007,0.1576223 v 0.9189684 c 0,0.7643198 -0.02975,0.9338383 -0.190336,1.0171104 C 15.504908,4.497973 8.0907074,6.3448315 7.8855011,6.3299614 A 165.42023,165.42023 0 0 1 3.9895514,5.3634092 Z"
     id="path21" />
</svg>
