<svg width="16" height="16" xmlns="http://www.w3.org/2000/svg"><path style="fill:currentColor;color:#555" d="M8.006.293a2 2 0 0 0-1.871 1.281L5.01 4.488l-3.115.166A2 2 0 0 0 .738 8.201l2.424 1.975-.8 3.02a2 2 0 0 0 3.02 2.19L8 13.692l2.617 1.696a2 2 0 0 0 1.383.299V14a1 1 0 0 1 .135-.5A1 1 0 0 1 12 13V8.277L10.572 9.44l1.133 4.267L8 11.31l-3.705 2.398L5.428 9.44 2 6.65l4.41-.232L8 2.293l1.59 4.125L14 6.65l-.43.35H15a1 1 0 0 1 .832.443 2 2 0 0 0-1.726-2.789l-3.116-.166-1.125-2.914A2 2 0 0 0 8.006.293z" color="#555" fill="currentColor" opacity=".35"/><path d="M13 8v5h2V8zm0 6v2h2v-2z" fill="currentColor" style="color:#5294e2"/></svg>