<svg width="16" height="16" xmlns="http://www.w3.org/2000/svg"><defs><style id="current-color-scheme" type="text/css">.ColorScheme-Text{color:#555}</style></defs><path style="fill:currentColor" class="ColorScheme-Text" d="M8 1a7 7 0 0 0-7 7 7 7 0 0 0 7 7 7 7 0 0 0 7-7 7 7 0 0 0-7-7zm0 2a5 5 0 0 1 5 5 5 5 0 0 1-5 5 5 5 0 0 1-5-5 5 5 0 0 1 5-5z"/><path style="fill:currentColor" class="ColorScheme-Text" d="M7.623 4.002c.052-.006.119.003.172 0 .006.025-.038.115-.098.246-.383.834-.404 1.812-.05 2.334.065.095.123.185.123.197 0 .012-.069.025-.147.025-.184 0-.358-.112-.713-.394-.158-.125-.363-.23-.442-.245-.125-.025-.158-.014-.32.147-.15.15-.196.231-.196.369 0 .521.619.935 1.77 1.18 1.562.33 1.947.628 1.99 1.45.054 1.03-.495 1.806-1.696 2.408-.143.071-.235.1-.295.123-.027-.003-.047.002-.074 0a.875.875 0 0 1-.024-.246c0-.547-.216-1.11-.54-1.426a4.134 4.134 0 0 0-.541-.393c-.21-.13-.42-.28-.467-.344-.078-.106-.085-.172-.025-.369.11-.359.24-.559.492-.786.132-.119.265-.219.295-.221.029-.003-.17-.062-.467-.123a8.38 8.38 0 0 1-.959-.27c-.412-.15-.968-.462-1.18-.688-.008-.01-.016-.017-.024-.025a3.952 3.952 0 0 1 2.286-2.679c.236-.1.48-.168.737-.22.128-.027.26-.037.393-.05zm3.686 1.843c.093.057.441.812.54 1.18.13.475.12 1.297 0 1.77-.044.179-.103.347-.122.368-.02.02-.09-.1-.172-.246-.083-.146-.346-.457-.565-.688-.633-.667-.732-1.016-.467-1.548.133-.269.715-.88.786-.836z"/></svg>