<svg width="16" height="16" xmlns="http://www.w3.org/2000/svg"><defs><style id="current-color-scheme" type="text/css">.ColorScheme-Highlight{color:#5294e2}</style></defs><path style="fill:currentColor;color:#555" d="M8.006.293a2 2 0 0 0-1.871 1.281L5.01 4.488l-3.115.166A2 2 0 0 0 .738 8.201l2.424 1.975-.8 3.02a2 2 0 0 0 3.02 2.19L8 13.692l2.617 1.696a2 2 0 0 0 3.022-2.192l-.801-3.02 2.424-1.974a2 2 0 0 0-1.156-3.547l-3.116-.166-1.125-2.914A2 2 0 0 0 8.006.293zm-.006 2 1.59 4.125L14 6.65l-3.428 2.79 1.133 4.267L8 11.31l-3.705 2.398L5.428 9.44 2 6.65l4.41-.232L8 2.293z"/></svg>