<?xml version="1.0" encoding="UTF-8" standalone="no"?>
<svg
   width="64"
   height="64"
   version="1.1"
   id="svg8"
   sodipodi:docname="ableton.svg"
   inkscape:version="1.1.2 (0a00cf5339, 2022-02-04)"
   xmlns:inkscape="http://www.inkscape.org/namespaces/inkscape"
   xmlns:sodipodi="http://sodipodi.sourceforge.net/DTD/sodipodi-0.dtd"
   xmlns="http://www.w3.org/2000/svg"
   xmlns:svg="http://www.w3.org/2000/svg">
  <defs
     id="defs12" />
  <sodipodi:namedview
     id="namedview10"
     pagecolor="#505050"
     bordercolor="#ffffff"
     borderopacity="1"
     inkscape:pageshadow="0"
     inkscape:pageopacity="0"
     inkscape:pagecheckerboard="1"
     showgrid="false"
     inkscape:zoom="7.9107571"
     inkscape:cx="52.965853"
     inkscape:cy="25.40844"
     inkscape:window-width="1920"
     inkscape:window-height="1000"
     inkscape:window-x="0"
     inkscape:window-y="44"
     inkscape:window-maximized="1"
     inkscape:current-layer="svg8" />
  <circle
     cx="32"
     cy="32"
     r="27"
     color="#000"
     fill="#ffc831"
     id="circle2" />
  <path
     style="fill:#ffffff;fill-opacity:1;stroke-width:0.0908778"
     d="m 12.390463,41.163994 c -0.150131,-0.03924 -0.159036,-0.552113 -0.159036,-9.158392 0,-8.229524 0.01399,-9.1222 0.143748,-9.171994 0.187005,-0.07176 1.979199,-0.07176 2.166202,0 0.129759,0.0498 0.143749,0.942123 0.143749,9.168059 v 9.112896 l -0.204473,0.0548 c -0.231866,0.06214 -1.847755,0.05799 -2.09019,-0.0054 z m 5.270911,-0.03551 c -0.149766,-0.08723 -0.159036,-0.616358 -0.159036,-9.077584 0,-4.941724 0.02482,-9.04964 0.05516,-9.128703 0.04586,-0.119508 0.230771,-0.143749 1.096509,-0.143749 0.572741,0 1.120446,0.04234 1.217127,0.09408 0.17198,0.09204 0.175781,0.289456 0.175781,9.130021 0,8.840565 -0.0038,9.03798 -0.175781,9.130021 -0.225991,0.120946 -2.000728,0.117667 -2.209761,-0.0041 z m 5.315507,0.0041 -0.205317,-0.0825 0.0025,-9.042679 c 0.0025,-8.815107 0.0069,-9.045022 0.176625,-9.135834 0.185975,-0.09953 1.982943,-0.130241 2.22333,-0.038 0.129755,0.0498 0.143746,0.942124 0.143746,9.168059 v 9.112896 l -0.204474,0.0548 c -0.312797,0.08383 -1.90454,0.05645 -2.136472,-0.03675 z m 5.317194,-0.0041 c -0.149782,-0.08724 -0.159036,-0.620537 -0.159036,-9.165298 v -9.072664 l 0.204475,-0.0548 c 0.385457,-0.103298 2.11614,-0.06314 2.23105,0.05178 0.08335,0.08335 0.109053,2.234884 0.109053,9.130022 0,8.825756 -0.0038,9.023002 -0.175781,9.115042 -0.225991,0.120947 -2.000728,0.117668 -2.209761,-0.0041 z m 5.215212,0.01691 c -0.176746,-0.111979 -0.175176,-2.270904 0.0017,-2.383391 0.06717,-0.04271 4.191178,-0.06795 9.164465,-0.05608 l 9.042341,0.02158 0.02527,1.192862 c 0.0249,1.174355 0.02209,1.193723 -0.181756,1.248329 -0.325411,0.08718 -17.913511,0.06448 -18.052062,-0.0233 z m -0.06378,-5.399423 c -0.02509,-0.06538 -0.03403,-0.607247 -0.01987,-1.204131 l 0.02576,-1.085242 h 9.133217 9.13322 l 0.02536,1.20413 0.02536,1.204131 h -9.138711 c -7.444027,0 -9.147168,-0.02205 -9.18433,-0.118888 z m -0.05707,-6.289213 c -0.01535,-0.625933 -0.01429,-1.17821 0.0024,-1.227285 0.01955,-0.0576 3.282547,-0.08922 9.204014,-0.08922 h 9.173724 l -0.02536,1.204131 -0.02536,1.20413 -9.150739,0.02316 -9.150737,0.02315 z m 0.127577,-4.210823 c -0.140579,-0.08919 -0.184861,-2.247269 -0.04891,-2.383228 0.05211,-0.0521 3.609325,-0.07615 9.167927,-0.06198 l 9.082796,0.02316 0.02527,1.192863 c 0.0249,1.174355 0.02209,1.193723 -0.181756,1.248329 -0.315559,0.08454 -17.911341,0.06587 -18.045344,-0.01915 z"
     id="path1001" />
</svg>
