<svg width="64" height="64" version="1.1" viewBox="0 0 16.933 16.933" xmlns="http://www.w3.org/2000/svg">
 <circle cx="8.4665" cy="8.4665" r="7.1436" fill="#c83737" style="paint-order:stroke fill markers"/>
 <path transform="scale(.26458)" d="m25 5.9336a27 27 0 0 0-8 3.6426v19.42l4.002-4.002 3.998 3.998v-23.059z" fill="#fff" stroke-width="3.7796"/>
 <path transform="scale(.26458)" d="m15 11.041a27 27 0 0 0-10 20.959 27 27 0 0 0 10 20.951v-41.91z" fill-rule="evenodd" opacity=".2" stroke-width="5.9388" style="paint-order:fill markers stroke"/>
 <g fill="#fff" opacity=".5" stroke-width=".099" aria-label="Aa">
  <path d="m9.2635 10.66-0.53195 1.4425h1.0658zm-0.22132-0.38634h0.44458l1.1047 2.8985h-0.4077l-0.26403-0.74356h-1.3066l-0.26403 0.74356h-0.41352z" style=""/>
  <path d="m11.987 12.08q-0.43293 0-0.5999 0.09901-0.16696 0.09901-0.16696 0.3378 0 0.19026 0.12425 0.30286 0.12619 0.11066 0.34169 0.11066 0.29704 0 0.47564-0.20967 0.18055-0.21161 0.18055-0.56107v-0.0796zm0.7125-0.14755v1.2406h-0.35722v-0.33004q-0.12231 0.19802-0.3048 0.29315-0.18249 0.09319-0.44652 0.09319-0.33392 0-0.53194-0.18638-0.19608-0.18832-0.19608-0.50282 0-0.36693 0.24462-0.5533 0.24656-0.18638 0.73385-0.18638h0.50088v-0.03495q0-0.24656-0.16308-0.38052-0.16114-0.1359-0.45429-0.1359-0.18638 0-0.36304 0.04465t-0.33975 0.13396v-0.33004q0.19608-0.07572 0.38052-0.1126 0.18443-0.03883 0.35916-0.03883 0.47176 0 0.70473 0.24462 0.23297 0.24462 0.23297 0.74162z" style=""/>
 </g>
</svg>
