<svg width="64" height="64" version="1.1" viewBox="0 0 16.933 16.933" xmlns="http://www.w3.org/2000/svg">
 <text x="-54.503094" y="-55.561405" fill="#000000" font-family="sans-serif" font-size="10.583px" letter-spacing="0px" stroke-width=".26458" word-spacing="0px" style="line-height:1.25" xml:space="preserve"><tspan x="-54.503094" y="-46.197819" stroke-width=".26458"/></text>
 <circle cx="8.4665" cy="8.4665" r="7.1436" fill="#f0f0f0" style="paint-order:stroke fill markers"/>
 <path d="m11.642 8.4665c0 1.753-1.4216 3.175-3.175 3.175-1.753 0-3.175-1.4218-3.175-3.175 0-1.753 1.4216-3.175 3.175-3.175 1.753 0 3.175 1.4216 3.175 3.175" fill="#4d4d4d" stroke-width="1.3334"/>
 <path d="m11.112 8.4665c0 1.4608-1.185 2.6459-2.6459 2.6459-1.4608 0-2.6459-1.185-2.6459-2.6459 0-1.4608 1.185-2.6459 2.6459-2.6459 1.4608 0 2.6459 1.185 2.6459 2.6459" fill="#666" stroke-width="1.2501"/>
 <path d="m10.054 8.4665c0 0.87669-0.71119 1.5875-1.5875 1.5875-0.87669 0-1.5875-0.71119-1.5875-1.5875 0-0.87669 0.71119-1.5875 1.5875-1.5875 0.87669 0 1.5875 0.71119 1.5875 1.5875" fill="#333" opacity=".75" stroke-width="1.5"/>
 <path d="m8.9957 7.6728c0 0.29252-0.23667 0.52919-0.52919 0.52919s-0.52919-0.23667-0.52919-0.52919 0.23667-0.52919 0.52919-0.52919 0.52919 0.23667 0.52919 0.52919" fill="#fff" opacity=".15" stroke-width="1.5638"/>
 <path d="m5.5561 4.4978c-0.5863 0-1.0583 0.47201-1.0583 1.0583v0.52916h0.26458v-0.52916c0-0.43973 0.35401-0.79373 0.79373-0.79373h0.52916v-0.26458zm5.2916 0v0.26458h0.52916c0.43973 0 0.79374 0.35401 0.79374 0.79373v0.52916h0.26458v-0.52916c0-0.5863-0.47201-1.0583-1.0583-1.0583zm-6.3499 6.3499v0.52916c0 0.5863 0.47201 1.0583 1.0583 1.0583h0.52916v-0.26458h-0.52916c-0.43973 0-0.79373-0.35401-0.79373-0.79374v-0.52916zm7.6728 0v0.52916c0 0.43973-0.35401 0.79374-0.79374 0.79374h-0.52916v0.26458h0.52916c0.5863 0 1.0583-0.47201 1.0583-1.0583v-0.52916z" fill="#000000" opacity=".1" stop-color="#000000" stroke-linecap="round" stroke-linejoin="round" stroke-width=".52916" style="paint-order:stroke fill markers"/>
</svg>
