<svg width="64" height="64" version="1.1" viewBox="0 0 16.933 16.933" xmlns="http://www.w3.org/2000/svg">
 <circle cx="8.4665" cy="8.4665" r="7.1436" fill="#f0f0f0" style="paint-order:stroke fill markers"/>
 <g transform="translate(1.8515 -281.39)" aria-label="У»Г">
  <path d="m4.658 286.66 0.551 0.165-0.193 0.468h1.681v0.524h-0.964q0.22 0.303 0.44 0.661l-0.578 0.331q-0.22-0.524-0.524-0.992h-0.33l-0.304 0.523q-0.165 0.22-0.44 0.524l-0.497-0.386q0.8-0.799 1.158-1.819zm2.866 0 0.524 0.165q-0.083 0.248-0.193 0.468h1.957v0.524h-1.158q0.193 0.275 0.358 0.551l-0.496 0.303q-0.22-0.44-0.496-0.854h-0.413q-0.386 0.661-0.717 0.992l-0.496-0.358q0.772-0.772 1.13-1.792zm-2.48 2.011 0.496 0.248q-0.248 0.496-0.552 0.992v3.142h-0.55v-2.397q-0.331 0.413-0.69 0.744l-0.33-0.496q0.909-0.8 1.626-2.233zm0.634 0.855h2.59v-0.69h0.551v0.69h0.965v0.523h-0.964v2.26q0 0.414-0.165 0.551-0.138 0.166-0.551 0.166-0.496 0-0.937-0.083l-0.11-0.551q0.468 0.11 0.964 0.11 0.248 0 0.248-0.33v-2.123h-2.59zm0.992 0.771q0.496 0.579 0.827 1.268l-0.552 0.33q-0.275-0.66-0.799-1.267z" fill="#ccc" font-size="7.056" font-weight="400" letter-spacing="0" stroke-width=".047" word-spacing="0" aria-label="угд"/>
 </g>
 <circle cx="11.641" cy="11.906" r="4.2333" fill="#498cd8" style="paint-order:stroke fill markers"/>
 <path d="m12.423 12.634q-0.27829 0.51031-0.83416 0.51031-0.41778 0-0.67294-0.27829-0.25516-0.30142-0.25516-0.83416 0-0.60284 0.32455-0.95052 0.34838-0.37152 0.90426-0.37152 0.48718 0 0.90426 0.13949l-0.0701 1.2057v0.20819q0 0.25516 0.0701 0.39465 0.09253 0.11566 0.27829 0.11566 0.20889 0 0.37152-0.27829 0.16122-0.27829 0.16122-0.83416 0-0.7886-0.46264-1.2526-0.44162-0.46335-1.1832-0.46335-0.92669 0-1.4833 0.57971-0.53274 0.57971-0.53274 1.5765 0 0.88113 0.46265 1.3676 0.46405 0.46405 1.2989 0.46405 0.62597 0 1.2519-0.25516v0.39395q-0.53344 0.25516-1.2519 0.25516-1.0206 0-1.5996-0.57971-0.57971-0.57971-0.57971-1.6228 0-1.1356 0.67224-1.8548 0.69537-0.7185 1.7616-0.7185 0.92739 0 1.484 0.57971 0.57971 0.57901 0.57971 1.5527 0 0.67294-0.30142 1.0669-0.27829 0.39395-0.69537 0.39395-0.48718 0-0.60284-0.51031zm-0.11566-1.4833q-0.20889-0.0701-0.41778-0.0701-0.34768 0-0.55588 0.25516-0.20889 0.25516-0.20889 0.7192 0 0.34768 0.11566 0.53274 0.1395 0.18576 0.41778 0.18576 0.55588 0 0.62597-0.90426z" fill="#fff" font-size="8.467" font-weight="400" letter-spacing="0" stroke-width=".18576" word-spacing="0" aria-label="@"/>
</svg>
