<svg width="64" height="64" viewBox="0 0 16.933 16.933" xmlns="http://www.w3.org/2000/svg"><circle cx="8.466" cy="8.466" r="7.144" fill="#f0f0f0" style="paint-order:stroke fill markers"/><path d="M11.642 8.466a3.175 3.175 0 1 1-6.35 0 3.175 3.175 0 0 1 6.35 0" fill="#4d4d4d"/><path d="M11.112 8.466a2.646 2.646 0 1 1-5.293 0 2.646 2.646 0 0 1 5.293 0" fill="#666"/><path d="M10.054 8.466a1.588 1.588 0 1 1-3.176 0 1.588 1.588 0 0 1 3.176 0" fill="#333" opacity=".75"/><path d="M8.996 7.673a.529.529 0 1 1-1.058 0 .529.529 0 0 1 1.058 0" fill="#fff" opacity=".15"/><path d="M5.556 4.498c-.586 0-1.058.472-1.058 1.058v.53h.264v-.53c0-.44.354-.794.794-.794h.53v-.264zm5.292 0v.264h.529c.44 0 .794.354.794.794v.53h.264v-.53c0-.586-.472-1.058-1.058-1.058zm-6.35 6.35v.529c0 .586.472 1.058 1.058 1.058h.53v-.264h-.53a.792.792 0 0 1-.794-.794v-.53zm7.673 0v.529c0 .44-.354.794-.794.794h-.53v.264h.53c.586 0 1.058-.472 1.058-1.058v-.53z" opacity=".1" style="paint-order:stroke fill markers"/></svg>