<svg width="64" height="64" version="1.1" viewBox="0 0 16.933 16.933" xmlns="http://www.w3.org/2000/svg" xmlns:xlink="http://www.w3.org/1999/xlink">
 <path class="shp36" d="m8.4665 15.61c3.9452 0 7.1436-3.1984 7.1436-7.1436 0-3.9452-3.1984-7.1436-7.1436-7.1436-3.9452 0-7.1436 3.1984-7.1436 7.1436 0 3.9452 3.1984 7.1436 7.1436 7.1436z" fill="#e18a50" stroke-width=".53799"/>
 <path class="shp36" d="m8.4665 15.081c3.653 0 6.6145-2.9615 6.6145-6.6145 0-3.653-2.9615-6.6145-6.6145-6.6145-3.653 0-6.6145 2.9615-6.6145 6.6145 0 3.653 2.9615 6.6145 6.6145 6.6145z" opacity=".25" stroke-width=".57477"/>
 <path d="m8.4665 2.3812c-3.3607 0-6.0853 2.7246-6.0853 6.0853 0 3.0106 2.1871 5.509 5.0585 5.9975l7.0243-7.0243c-0.48833-2.8715-2.9868-5.0585-5.9975-5.0585z" fill="#fff" stroke-width=".59776"/>
 <g fill-rule="evenodd">
  <path d="m8.4665 0.79373a1.3229 1.3229 0 0 0-1.296 1.0583h0.54879a0.79373 0.79373 0 0 1 0.74722-0.52916 0.79373 0.79373 0 0 1 0.74775 0.52916h0.54725a1.3229 1.3229 0 0 0-1.295-1.0583z" fill="#0266b3" stroke-width=".26458" style="paint-order:stroke fill markers"/>
  <path d="m6.0853 3.1749s0.33945-1.5875 1.0183-1.5875h2.7257c0.67888 0 1.0183 1.5875 1.0183 1.5875z" fill="#46a9ee" stroke-width=".26458"/>
  <path d="m7.0115 5.2915h1.852m-3.44 1.058h0.794m2.381 0h0.794m-1.852 1.059h0.794m-1.587 1.058h0.793m-1.058 1.058h0.793m-0.793-3.175h0.529m-1.588 1.059h1.852m0.53 1.058h1.852m-3.705 0h0.53m1.058 1.058h1.323m-3.44 0h0.794m-0.794-1.058h0.265m1.587-2.117h0.265m1.852 3.175h0.53m-2.117-3.175h0.264m0.529 1.059h0.265m0.264 0h0.265m0.265-2.117h0.529m-0.529 1.058h0.529m0 1.059h1.323m-1.059 1.058h0.265m0.265 0h0.264m-0.794-2.117h0.265m-3.704 4.234h0.793m-1.057 1.058h0.793m-2.117-1.058h1.324m-0.795 1.058h0.53m-1.059 0h0.265m2.381-1.058h0.265m0.264 0h0.265m-1.058 1.058h0.793m2.117-6.35h0.53" fill-opacity=".961" stroke="#878787" stroke-opacity=".961" stroke-width=".265"/>
 </g>
 <path d="m7.4397 14.464 7.0243-7.0243c-0.334-0.0568-0.6766-0.087848-1.0268-0.087848-3.3607 0-6.0853 2.7246-6.0853 6.0853 0 0.35017 0.031048 0.6928 0.087848 1.0268z" fill="#e6e6e6" stroke-width=".59776"/>
</svg>
