<svg width="64" height="64" version="1.1" viewBox="0 0 16.933 16.933" xmlns="http://www.w3.org/2000/svg">
 <circle cx="8.4665" cy="8.4665" r="7.1436" fill="#aa55b9" style="paint-order:stroke fill markers"/>
 <g fill-rule="evenodd">
  <path transform="scale(.26458)" d="m22.279 8.9961a25 25 0 0 0-2.0996 1h23.674a25 25 0 0 0-2.0684-1h-19.506zm-7.2773 4.7012a25 25 0 0 0-1.2949 1.3086h0.29297v3.9941h-3.3164a25 25 0 0 0-0.61524 1.002h3.9316v3.998h-5.6602a25 25 0 0 0-0.32227 1.002h5.9824v3.998h-6.7988a25 25 0 0 0-0.10156 1.002h6.9004v4h-6.9082a25 25 0 0 0 0.11914 0.99805h6.7891v4.002h-5.9844a25 25 0 0 0 0.33203 0.99805h5.6523v4.002h-3.9004a25 25 0 0 0 0.57227 0.99805h3.3281v4.002h-0.29883a25 25 0 0 0 1.3008 1.2871v-0.28906h34.34a25 25 0 0 0 0.94336-0.99805h-35.283v-4.002h38.314a25 25 0 0 0 0.61328-0.99805h-38.928v-4.002h40.658a25 25 0 0 0 0.32227-0.99805h-40.98v-4.002h41.797a25 25 0 0 0 0.10156-0.99805h-41.898v-4h41.908a25 25 0 0 0-0.12109-1.002h-41.787v-3.998h40.984a25 25 0 0 0-0.33398-1.002h-40.65v-4.002h38.898a25 25 0 0 0-0.57422-1.002h-38.324v-3.998h35.297a25 25 0 0 0-0.99414-1.002h-34.303v-0.29883zm5.1445 40.307a25 25 0 0 0 2.0605 0.99609h19.523a25 25 0 0 0 2.0898-0.99609h-23.674z" fill="#fff" fill-opacity=".3" stroke-width="3.7796"/>
  <path d="M12.17 10.529c0 .388-.08.697-.24.928-.16.231-.407.38-.74.45v-.42a.463.463 0 0 0 .246-.334h-.245v-1.146h.98zm-1.309 0c0 .388-.08.697-.24.928-.161.231-.408.38-.74.45v-.42a.537.537 0 0 0 .177-.137.422.422 0 0 0 .068-.197h-.245v-1.146h.98zm-6.099-5.51V3.97h1.984v2.308H6.25a.933.933 0 0 0 .496.672v.844c-.672-.138-1.171-.44-1.496-.905-.325-.465-.488-1.088-.488-1.868zm2.651 0V3.97h1.984v2.308H8.9a.848.848 0 0 0 .137.396c.068.092.188.184.359.276v.844c-.673-.138-1.172-.44-1.497-.905-.325-.465-.487-1.088-.487-1.868z" fill="#aa55b9" stroke="#aa55b9" stroke-width=".529" paint-order="stroke markers fill"/>
  <path d="M12.17 10.529c0 .388-.08.697-.24.928-.16.231-.407.38-.74.45v-.42a.463.463 0 0 0 .246-.334h-.245v-1.146h.98zm-1.309 0c0 .388-.08.697-.24.928-.161.231-.408.38-.74.45v-.42a.537.537 0 0 0 .177-.137.422.422 0 0 0 .068-.197h-.245v-1.146h.98zm-6.099-5.51V3.97h1.984v2.308H6.25a.933.933 0 0 0 .496.672v.844c-.672-.138-1.171-.44-1.496-.905-.325-.465-.488-1.088-.488-1.868zm2.651 0V3.97h1.984v2.308H8.9a.848.848 0 0 0 .137.396c.068.092.188.184.359.276v.844c-.673-.138-1.172-.44-1.497-.905-.325-.465-.487-1.088-.487-1.868z" fill="#fff" paint-order="stroke markers fill"/>
 </g>
</svg>
