<svg width="64" height="64" version="1.1" viewBox="0 0 16.933 16.933" xmlns="http://www.w3.org/2000/svg">
 <text x="-54.503094" y="-55.561405" fill="#000000" font-family="sans-serif" font-size="10.583px" letter-spacing="0px" stroke-width=".26458" word-spacing="0px" style="line-height:1.25" xml:space="preserve"><tspan x="-54.503094" y="-46.197819" stroke-width=".26458"/></text>
 <circle cx="8.4665" cy="8.4665" r="7.1436" fill="#f2f2f2" style="paint-order:stroke fill markers"/>
 <path d="m11.642 8.4665c0 1.753-1.4216 3.175-3.175 3.175-1.753 0-3.175-1.4218-3.175-3.175 0-1.753 1.4216-3.175 3.175-3.175 1.753 0 3.175 1.4216 3.175 3.175" fill="#4d4d4d" stroke-width="1.3334"/>
 <path d="m11.112 8.4665c0 1.4608-1.185 2.6459-2.6459 2.6459-1.4608 0-2.6459-1.185-2.6459-2.6459 0-1.4608 1.185-2.6459 2.6459-2.6459 1.4608 0 2.6459 1.185 2.6459 2.6459" fill="#666" stroke-width="1.2501"/>
 <path d="m10.054 8.4665c0 0.87669-0.71119 1.5875-1.5875 1.5875-0.87669 0-1.5875-0.71119-1.5875-1.5875 0-0.87669 0.71119-1.5875 1.5875-1.5875 0.87669 0 1.5875 0.71119 1.5875 1.5875" fill="#333" opacity=".75" stroke-width="1.5"/>
 <path d="m8.9957 7.6728c0 0.29252-0.23667 0.52919-0.52919 0.52919s-0.52919-0.23667-0.52919-0.52919 0.23667-0.52919 0.52919-0.52919 0.52919 0.23667 0.52919 0.52919" fill="#fff" opacity=".15" stroke-width="1.5638"/>
 <g fill="#ccc">
  <path d="m10.715 4.7624c-0.07329 0-0.13229 0.059001-0.13229 0.13229 0 0.073288 0.059 0.13229 0.13229 0.13229h1.1906v1.1906c0 0.073288 0.059 0.13229 0.13229 0.13229s0.13229-0.059001 0.13229-0.13229v-1.3229c0-0.073288-0.059-0.13229-0.13229-0.13229z" style="paint-order:stroke fill markers"/>
  <path d="m6.2176 4.7624c0.073288 0 0.13229 0.059001 0.13229 0.13229 0 0.073288-0.059001 0.13229-0.13229 0.13229h-1.1906v1.1906c0 0.073288-0.059001 0.13229-0.13229 0.13229-0.073288 0-0.13229-0.059001-0.13229-0.13229v-1.3229c0-0.073288 0.059001-0.13229 0.13229-0.13229z" style="paint-order:stroke fill markers"/>
  <path d="m10.715 12.171c-0.07329 0-0.13229-0.059-0.13229-0.13229s0.059-0.13229 0.13229-0.13229h1.1906v-1.1906c0-0.07329 0.059-0.13229 0.13229-0.13229s0.13229 0.059 0.13229 0.13229v1.3229c0 0.07329-0.059 0.13229-0.13229 0.13229z" style="paint-order:stroke fill markers"/>
  <path d="m6.2176 12.171c0.073288 0 0.13229-0.059 0.13229-0.13229s-0.059001-0.13229-0.13229-0.13229h-1.1906v-1.1906c0-0.07329-0.059001-0.13229-0.13229-0.13229-0.073288 0-0.13229 0.059-0.13229 0.13229v1.3229c0 0.07329 0.059001 0.13229 0.13229 0.13229z" style="paint-order:stroke fill markers"/>
 </g>
</svg>
