<svg width="64" height="64" version="1.1" xmlns="http://www.w3.org/2000/svg">
 <circle cx="32" cy="32" r="27" fill="#3d4144" stroke-width="3.7796" style="paint-order:stroke fill markers"/>
 <path d="m25 5.9336a27 27 0 0 0-8.0001 3.6426v19.42l4.002-4.002 3.998 3.998v-23.059z" fill="#24a9f7" stroke-width="3.7796"/>
 <path d="m15 11.041a27 27 0 0 0-10 20.959 27 27 0 0 0 10 20.951z" fill-rule="evenodd" opacity=".2" stroke-width="5.9388" style="paint-order:fill markers stroke"/>
 <path d="m48.723 24.006v0.011719c-0.153 0-0.31008-6.56e-4 -0.45508 0.027344-2.6677 0.30573-5.438 5.567-5.6367 10.791-3.5196 2.2296-7.265 4.2934-11.008 5.8926-1.81-0.61383-6.0866-2.1994-8.8652-1.5781-1.7319 0.37706-2.9708 2.3742-2.6953 3.752-0.019231-0.048123-0.052239-0.090659-0.056641-0.14453 0.006361 0.13499 0.053819 0.27877 0.12305 0.42383 0.006609 0.017253 0.006478 0.037723 0.013672 0.054687-0.002903-0.014609-0.003164-0.02658-0.005859-0.041016 0.42844 0.87762 1.822 1.8438 2.1953 1.8438 2.0301 0.38032 6.1986-0.86839 8.752-1.8164 4.3632 1.9656 9.6377 4.5865 13.475 6.7246 0.58447 1.558 1.477 3.1178 2.4844 4.4473a27 27 0 0 0 1.7344-1.2402c-0.10034-0.25952-0.20094-0.51987-0.29883-0.79492l0.052734-0.054687c0.26284 0.15792 0.41569 0.25023 0.7168 0.4375a27 27 0 0 0 2.043-1.8887c-1.0042-1.0282-2.2206-2.0371-3.6445-2.9238 0.044803 0.16745 0.057845 0.34716 0.056641 0.53125-0.83606-3.6197-1.4496-8.232-1.8438-12.115 6.0177-4.3181 9.1319-9.9102 4.3574-11.965-0.541-0.375-1.0351-0.347-1.4941-0.375zm0.32422 0.31445c0.36792 0.019489 0.77164 0.1157 1.2129 0.29883 3.2821 1.3626 0.37929 4.7605-4.6855 8.2871 0.060171-5.0507 0.90719-8.7218 3.4727-8.5859zm-6.1504 13.5c0.46217 3.3691 0.61134 4.6959 1.1797 9.1934-2.849-1.6579-6.1171-3.5498-9.1113-4.9336 2.8879-1.1851 5.3297-2.5869 7.9316-4.2598zm-20.066 3.1289c0.55119 0.017578 1.1293 0.088578 1.6758 0.17383 0.084049 0.007762 0.27196 0.022725 0.36524 0.03125 1.1969 0.16982 2.0219 0.32392 2.5742 0.47266v0.021485c0.34146 0.13863 0.73726 0.31218 1.1074 0.46875-2.0772 1.2687-7.5873 2.0456-8.4355 0.91992-0.24117-1.7411 1.1204-2.1387 2.7129-2.0879z" fill="#d52337" stroke-width="3.7796" style="paint-order:stroke fill markers"/>
</svg>
