<svg xmlns="http://www.w3.org/2000/svg" width="64" height="64" viewBox="0 0 16.933 16.933"><g stroke-width="3.78"><path fill="#5ad85d" d="m51.062 12.941-2.799 2.8c8.982 8.983 8.982 23.546 0 32.528l2.807 2.806a27 27 0 0 0 .86-37.277 27 27 0 0 0-.868-.857m7.828 16.674.018.232zm.104 2.674-.008.267zm-.162 2.674-.034.275zm-.44 2.72-.031.139zm-.705 2.631-.027.084zm-3.582 7.19-.086.12zm-1.627 2.086q-.094.112-.19.222z" style="paint-order:stroke fill markers" transform="scale(.26458)"/><path fill="#ffce3d" d="m51.061 12.943-2.797 2.799c6.456 6.455 8.272 15.795 5.447 23.873.072-.205.147-.407.213-.615l3.813 1.207a27 27 0 0 0 1.074-5.065 27 27 0 0 0 .184-2.822v-.031a27 27 0 0 0-7.934-19.346m2.65 26.672a22.9 22.9 0 0 1-5.447 8.654l.022.022a22.9 22.9 0 0 0 5.425-8.676m5.18-10 .018.232zm-1.203 10.699-.027.084zm-3.582 7.19-.086.12zm-1.627 2.085q-.094.112-.19.223.097-.11.19-.223" style="paint-order:stroke fill markers" transform="scale(.26458)"/><path fill="#ff584c" d="m51.072 12.932-2.809 2.81a22.9 22.9 0 0 1 5.952 10.311l3.863-1.035a27 27 0 0 0-7.006-12.086m3.404 14.209.026.111zm.211 1.107.028.17zm.139.977c.016.137.037.273.05.41q-.023-.205-.05-.41m4.064.39.018.233q-.007-.116-.018-.232zm-3.964.604q.025.3.043.6c-.01-.2-.028-.4-.043-.6m.054.961c.01.264.02.527.02.791 0-.263-.01-.527-.02-.791m4.014 1.109-.008.268zm-4.137 2.245a23 23 0 0 1-.09.742c.036-.246.063-.494.09-.742m3.975.43-.033.275.033-.276zm-4.131.72q-.05.317-.108.633.058-.316.108-.633m3.691 2-.031.139zm-.705 2.631-.027.084zm-1.209 3.068-.101.21zm-1.246 2.368-.14.226zm-5.064.353-.166.213zm-.602.74q-.174.208-.353.412.179-.203.353-.412m4.54.66-.087.122zm-.352.479-.166.223zm-1.276 1.607q-.094.112-.19.223.096-.11.19-.223m-.465.53-.097.105z" style="paint-order:stroke fill markers" transform="scale(.26458)"/></g><path fill="#5294e2" d="M13.518 3.416a7.144 7.144 0 0 0-10.103 0 7.144 7.144 0 0 0 0 10.103 7.144 7.144 0 0 0 10.103 0l-.748-.748a6.085 6.085 0 0 0 0-8.606zm2.063 4.42.005.061zm.028.707-.002.07zm-.043.707-.01.073zm-.117.72-.008.037zm-.186.696-.007.022zm-.948 1.903-.022.031zm-.43.552-.05.058z" style="paint-order:stroke fill markers"/><g fill="#fff"><path d="M9.742 9.67a1.59 1.59 0 0 1-1.276.645 1.59 1.59 0 0 1-1.274-.644 3.704 2.381 0 0 0-2.43 2.232h7.41a3.704 2.381 0 0 0-2.43-2.234z" style="paint-order:stroke markers fill" transform="translate(0 .001)"/><g style="paint-order:stroke markers fill" transform="translate(.264 -278.48)"><circle cx="8.202" cy="284.83" r="1.587"/><path d="M6.615 284.83a1.587 2.646 0 0 0 1.587 2.645 1.587 2.646 0 0 0 1.588-2.646z"/></g></g></svg>