<svg width="64" height="64" version="1.1" viewBox="0 0 16.933 16.933" xmlns="http://www.w3.org/2000/svg">
 <g stroke-width="3.7796">
  <path transform="scale(.26458)" d="m51.062 12.941-2.7988 2.8008c8.9822 8.9818 8.9822 23.545 0 32.527l2.8066 2.8066a27 27 0 0 0 0.85938-37.277 27 27 0 0 0-0.86719-0.85742zm7.8281 16.674c0.006047 0.077316 0.012287 0.15506 0.017578 0.23242-0.006047-0.077304-0.010775-0.15519-0.017578-0.23242zm0.10352 2.6738c-0.002268 0.089324-0.004596 0.17829-0.007813 0.26758 0.00189-0.08932 0.006955-0.17822 0.007813-0.26758zm-0.16211 2.6738c-0.010583 0.092127-0.021486 0.18338-0.033203 0.27539 0.011339-0.09201 0.022998-0.18328 0.033203-0.27539zm-0.43945 2.7207c-0.010583 0.046512-0.020667 0.092217-0.03125 0.13867 0.010205-0.04652 0.021423-0.092074 0.03125-0.13867zm-0.70508 2.6309c-0.008693 0.028083-0.018651 0.056015-0.027344 0.083985 0.009071-0.02797 0.018273-0.056016 0.027344-0.083985zm-3.582 7.1895c-0.027969 0.040102-0.057591 0.081144-0.085938 0.12109 0.028309-0.039913 0.057591-0.081106 0.085938-0.12109zm-1.627 2.0859c-0.063158 0.074004-0.12554 0.14933-0.18945 0.22266 0.064405-0.073211 0.12599-0.14888 0.18945-0.22266z" fill="#5ad85d" style="paint-order:stroke fill markers"/>
  <path transform="scale(.26458)" d="m51.061 12.943-2.7969 2.7988c6.456 6.4557 8.2718 15.795 5.4473 23.873 0.071231-0.20485 0.14698-0.40717 0.21289-0.61523l3.8125 1.207a27 27 0 0 0 1.0742-5.0645 27 27 0 0 0 0.18359-2.8223c2.79e-4 -0.010422-2.65e-4 -0.020826 0-0.03125a27 27 0 0 0-7.9336-19.346zm2.6504 26.672c-1.1052 3.1608-2.921 6.128-5.4473 8.6543l0.021484 0.021485c2.3732-2.3763 4.254-5.3061 5.4258-8.6758zm5.1797-10c0.006047 0.077316 0.012287 0.15506 0.017578 0.23242-0.006047-0.077304-0.010775-0.15519-0.017578-0.23242zm-1.2031 10.699c-0.008693 0.028083-0.018651 0.056015-0.027344 0.083985 0.009071-0.02797 0.018273-0.056016 0.027344-0.083985zm-3.582 7.1895c-0.027969 0.040102-0.057591 0.081144-0.085938 0.12109 0.028309-0.039913 0.057591-0.081106 0.085938-0.12109zm-1.627 2.0859c-0.063158 0.074004-0.12554 0.14933-0.18945 0.22266 0.064405-0.073211 0.12599-0.14888 0.18945-0.22266z" fill="#ffce3d" style="paint-order:stroke fill markers"/>
  <path transform="scale(.26458)" d="m51.072 12.932-2.8086 2.8105c2.9629 2.9628 4.943 6.5338 5.9512 10.311l3.8633-1.0352a27 27 0 0 0-7.0059-12.086zm3.4043 14.209c0.00801 0.037172 0.017567 0.074124 0.025391 0.11133-0.007887-0.037189-0.017313-0.07414-0.025391-0.11133zm0.21094 1.1074c0.009336 0.056668 0.018433 0.1132 0.027344 0.16992-0.009003-0.056563-0.017907-0.11335-0.027344-0.16992zm0.13867 0.97656c0.016558 0.1367 0.036675 0.27323 0.050781 0.41016-0.014334-0.13678-0.033937-0.27324-0.050781-0.41016zm4.0645 0.39062c0.006047 0.077316 0.012287 0.15506 0.017578 0.23242-0.006047-0.077304-0.010775-0.15519-0.017578-0.23242zm-3.9648 0.60352c0.015477 0.19977 0.032691 0.39956 0.042969 0.59961-0.010501-0.19953-0.027172-0.39963-0.042969-0.59961zm0.054688 0.96094c0.009415 0.26358 0.019131 0.5273 0.019531 0.79102-5.67e-4 -0.26281-0.009827-0.52716-0.019531-0.79102zm0.015625 1.0059c-0.00227 0.29234-0.006183 0.58485-0.019532 0.87695 0.01332-0.29131 0.017403-0.58402 0.019532-0.87695zm3.998 0.10352c-0.002268 0.089324-0.004596 0.17829-0.007813 0.26758 0.00189-0.08932 0.006955-0.17822 0.007813-0.26758zm-4.0391 1.1055c-0.015272 0.25403-0.031026 0.50821-0.054687 0.76172 0.023802-0.25308 0.039314-0.50711 0.054687-0.76172zm-0.097656 1.1387c-0.027261 0.24798-0.054534 0.49504-0.089844 0.74219 0.03549-0.24627 0.062349-0.49418 0.089844-0.74219zm3.9746 0.42969c-0.010583 0.092127-0.021486 0.18338-0.033203 0.27539 0.011339-0.09201 0.022998-0.18328 0.033203-0.27539zm-4.1309 0.7207c-0.034023 0.21108-0.067502 0.42257-0.10742 0.63281 0.040175-0.20975 0.073068-0.42158 0.10742-0.63281zm3.6914 2c-0.010583 0.046512-0.020667 0.092217-0.03125 0.13867 0.010205-0.04652 0.021423-0.092074 0.03125-0.13867zm-0.70508 2.6309c-0.008693 0.028083-0.018651 0.056015-0.027344 0.083985 0.009071-0.02797 0.018273-0.056016 0.027344-0.083985zm-1.209 3.0684c-0.032883 0.070301-0.068151 0.13902-0.10156 0.20898a27 27 0 0 0 0.10156-0.20898zm-1.2461 2.3672c-0.045431 0.076953-0.094325 0.15014-0.14062 0.22656a27 27 0 0 0 0.14062-0.22656zm-5.0645 0.35352c-0.055376 0.071181-0.10969 0.14221-0.16602 0.21289 0.055964-0.070518 0.1109-0.14174 0.16602-0.21289zm-0.60156 0.74023c-0.11676 0.13792-0.23299 0.27633-0.35352 0.41211 0.11994-0.13565 0.2369-0.27379 0.35352-0.41211zm4.5391 0.66016c-0.027969 0.040102-0.057591 0.081144-0.085938 0.12109 0.028309-0.039913 0.057591-0.081106 0.085938-0.12109zm-5.25 0.14258c-0.14554 0.15665-0.29264 0.31328-0.44336 0.4668 0.15033-0.15348 0.29758-0.30937 0.44336-0.4668zm4.8984 0.33594c-0.05488 0.074685-0.11019 0.14865-0.16602 0.22266a27 27 0 0 0 0.16602-0.22266zm-1.2754 1.6074c-0.063158 0.074004-0.12554 0.14933-0.18945 0.22266 0.064405-0.073211 0.12599-0.14888 0.18945-0.22266zm-0.46484 0.5293c-0.031749 0.035528-0.065568 0.07028-0.097656 0.10547a27 27 0 0 0 0.097656-0.10547z" fill="#ff584c" style="paint-order:stroke fill markers"/>
 </g>
 <path d="m13.518 3.4163a7.1436 7.1436 0 0 0-10.103 1e-7 7.1436 7.1436 0 0 0-1e-7 10.103 7.1436 7.1436 0 0 0 10.103 0l-0.74834-0.74834c2.3765-2.3765 2.3765-6.2295 0-8.6059zm2.0634 4.4195c0.0018 0.020434 0.0028 0.040934 0.0044 0.061387a7.1436 7.1436 0 0 0-0.0044-0.061387zm0.0274 0.70705c-2.27e-4 0.023641-0.0017 0.047256-0.0022 0.070888a7.1436 7.1436 0 0 0 0.0022-0.070888zm-0.04312 0.70742c-0.0027 0.024371-0.0058 0.048736-0.0088 0.07308a7.1436 7.1436 0 0 0 0.0088-0.07308zm-0.1162 0.71984c-0.0026 0.012329-0.0057 0.024588-0.0084 0.036896a7.1436 7.1436 0 0 0 0.0084-0.036896zm-0.18672 0.69609c-0.0024 0.0074-0.0045 0.01489-0.0069 0.02229a7.1436 7.1436 0 0 0 0.0069-0.02229zm-0.94785 1.9023c-0.0075 0.01058-0.0148 0.02122-0.02229 0.03178a7.1436 7.1436 0 0 0 0.02229-0.03178zm-0.43008 0.55212c-0.01679 0.01952-0.03339 0.03909-0.05043 0.05846a7.1436 7.1436 0 0 0 0.05043-0.05846z" fill="#387fe7" style="paint-order:stroke fill markers"/>
 <g transform="translate(0 .0014197)" fill="#fff">
  <path d="m9.7425 9.67a1.587 1.587 0 0 1-1.276 0.645 1.587 1.587 0 0 1-1.275-0.644 3.704 2.381 0 0 0-2.43 2.232h7.41a3.704 2.381 0 0 0-2.429-2.234z" style="paint-order:stroke markers fill"/>
  <g transform="translate(.264 -278.48)" style="paint-order:stroke markers fill">
   <circle cx="8.202" cy="284.83" r="1.587"/>
   <path d="m6.615 284.83a1.587 2.646 0 0 0 1.587 2.645 1.587 2.646 0 0 0 1.588-2.646z"/>
  </g>
 </g>
</svg>
