<svg width="64" height="64" version="1.1" viewBox="0 0 16.933 16.933" xmlns="http://www.w3.org/2000/svg">
 <g transform="matrix(.23813 0 0 -.23813 .85092 16.081)">
  <path transform="matrix(1.1111 0 0 1.1111 -3.5734 -3.5777)" d="m58.652 36.33c-39.102 18.447-19.551 9.2233 0 0zm0 0-22.322 22.322c11.475-1.8352 20.487-10.848 22.322-22.322z" fill="#b3b3b3" stroke-width=".91038"/>
  <path d="m31.98 1.9785c-16.619 0-29.998 13.379-29.998 29.998s13.379 29.998 29.998 29.998h2e-3c1.6389 0 3.2444-0.13427 4.8105-0.38476l24.801-24.801c0.25053-1.5662 0.38672-3.1735 0.38672-4.8125 0-16.619-13.379-29.998-29.998-29.998h-2e-3z" fill="#f0f0f0"/>
  <path d="m36.793 61.59 24.801-24.801c-12.749 2.0391-22.761 12.052-24.801 24.801z" fill="#ffffff"/>
 </g>
 <g transform="matrix(1.25 0 0 1.25 -2.0654 -5.2133)">
  <path d="m12.151 10.747c-1.0274-1.1091-2.302-1.9198-3.7308-1.9198-1.4287 0-2.7834 0.92878-3.7248 1.9198-0.10752 0.12403-0.10752 0.26966 0 0.39539 1.0198 1.0913 2.272 1.9181 3.7248 1.9181 1.4529 0 2.7969-0.92242 3.7367-1.9181 0.10584-0.12573 0.10584-0.27135 0-0.39539" fill="#e46d6d"/>
  <circle cx="8.4201" cy="10.944" r="1.6933" fill="#50b4ec"/>
  <circle cx="8.4201" cy="10.944" r=".84665" fill="#525252"/>
 </g>
</svg>
