<svg width="64" height="64" viewBox="0 0 16.933 16.933" xmlns="http://www.w3.org/2000/svg"><path d="M15.518 7.32c-10.345-4.88-5.172-2.44 0 0zm0 0L9.612 1.415a7.124 7.124 0 0 1 5.906 5.907z" fill="#b3b3b3"/><path d="M8.466 15.61c-3.957 0-7.143-3.186-7.143-7.144s3.186-7.143 7.143-7.143c.391 0 .773.032 1.146.092l5.906 5.905c.06.373.092.756.092 1.146a7.128 7.128 0 0 1-7.143 7.144z" fill="#f0f0f0"/><path d="m9.612 1.415 5.906 5.905a7.124 7.124 0 0 1-5.906-5.905z" fill="#fff"/><g transform="matrix(1.25 0 0 1.25 -2.065 -5.213)"><path d="M12.151 10.747c-1.027-1.11-2.302-1.92-3.73-1.92-1.43 0-2.784.929-3.726 1.92-.107.124-.107.27 0 .395 1.02 1.092 2.272 1.918 3.725 1.918 1.453 0 2.797-.922 3.737-1.918.106-.125.106-.271 0-.395" fill="#e46d6d"/><circle cx="8.42" cy="10.944" r="1.693" fill="#50b4ec"/><circle cx="8.42" cy="10.944" r=".847" fill="#525252"/></g></svg>