<svg width="64" height="64" version="1.1" viewBox="0 0 16.933 16.933" xmlns="http://www.w3.org/2000/svg" xmlns:xlink="http://www.w3.org/1999/xlink">
 <defs>
  <linearGradient id="a" x1="43" x2="49" y1="44" y2="50" gradientUnits="userSpaceOnUse">
   <stop offset="0"/>
   <stop stop-opacity="0" offset="1"/>
  </linearGradient>
 </defs>
 <circle cx="8.4665" cy="8.4665" r="7.1436" fill="#ececec" style="paint-order:stroke fill markers"/>
 <rect x="5.821" y="9.525" width="4.233" height=".529" ry=".265" fill="#666" style="paint-order:stroke markers fill"/>
 <path d="m4.502 4.725a0.264 0.264 0 0 0-0.262 0.13 0.264 0.264 0 0 0 0.097 0.362l2.842 1.64-2.842 1.641a0.264 0.264 0 0 0-0.097 0.362c0.074 0.127 0.235 0.17 0.362 0.097l3.207-1.852a0.26 0.26 0 0 0 0.127-0.225c2e-3 -8e-3 1e-3 -0.015 2e-3 -0.022 0-8e-3 0-0.015-2e-3 -0.023a0.26 0.26 0 0 0-0.127-0.224l-3.207-1.853a0.266 0.266 0 0 0-0.1-0.033z" fill="#666" style="paint-order:stroke markers fill"/>
 <path transform="scale(.26458)" d="m58.895 34.105-24.805 24.805a27 27 0 0 0 24.805-24.805z" fill="url(#a)" opacity=".15" style="paint-order:stroke fill markers"/>
</svg>
