<svg width="64" height="64" version="1.1" xmlns="http://www.w3.org/2000/svg">
 <circle cx="16" cy="48" r="10" fill="#f2793f" style="paint-order:stroke fill markers"/>
 <circle cx="32" cy="32" r="27" fill="#f2793f" style="paint-order:stroke fill markers"/>
 <path d="m16 18v6c13.256 0 24 10.744 24 24h6c0-16.575-13.431-30-30-30m0 12v6c6.627 0 12 5.373 12 12h6c0-9.9405-8.0595-18-18-18m0 12c-3.3135 0-6 2.6865-6 6s2.6865 6 6 6 6-2.6865 6-6-2.6865-6-6-6" fill="#fff" stroke-linejoin="round" stroke-width="6.6666"/>
</svg>
