<svg width="64" height="64" viewBox="0 0 16.933 16.933" xmlns="http://www.w3.org/2000/svg"><g transform="translate(0 -280.07)"><circle cx="8.467" cy="288.53" r="7.144" fill="#ececec" style="paint-order:stroke fill markers"/><path d="M12.965 292.5a.264.264 0 0 0 .265-.265v-4.497a.264.264 0 0 0-.265-.265h-1.587v3.704a.264.264 0 0 1-.265.265H8.467a.264.264 0 0 1-.264-.265v-3.704H6.615a.264.264 0 0 0-.265.265v4.497c0 .147.118.265.265.265z" fill="#fdc409" style="paint-order:stroke fill markers"/><path transform="translate(0 280.07) scale(.26458)" d="M22 28v9l9-9z" fill="#b61f1d" style="paint-order:stroke fill markers"/><path d="M4.233 284.83a.264.264 0 0 0-.264.265v4.497c0 .147.118.265.264.265h1.588v-3.704c0-.147.118-.265.264-.265h2.646c.147 0 .265.118.265.265v3.704h1.587a.264.264 0 0 0 .265-.265v-4.497a.264.264 0 0 0-.265-.265z" fill="#e5381f" style="paint-order:stroke fill markers"/><path transform="translate(0 280.07) scale(.26458)" d="m43 28-9 9h9z" fill="#e76f08" style="paint-order:stroke fill markers"/><rect x="11.642" y="285.62" width="1.058" height="1.058" ry="0" fill="#e76f08" style="paint-order:stroke fill markers"/><rect transform="rotate(45)" x="208.92" y="201.81" width="1.058" height="1.058" ry="0" fill="#f6aa08" style="paint-order:stroke fill markers"/></g></svg>