<svg width="64" height="64" viewBox="0 0 16.933 16.933" xmlns="http://www.w3.org/2000/svg"><circle cx="8.466" cy="8.466" r="7.144" fill="#ececec" style="paint-order:stroke fill markers"/><circle cx="8.466" cy="8.466" r="6.085" fill="#fff" opacity=".75" style="paint-order:stroke fill markers"/><g transform="matrix(1.25 0 0 1.25 -2.482 -2.232)" stroke-width=".529"><path d="M7.7 5.384a.644.644 0 0 0-.457.186L4.712 8.102a.652.652 0 0 0 0 .914l2.532 2.531a.653.653 0 0 0 .914 0l2.531-2.531a.653.653 0 0 0 0-.914L8.158 5.57a.644.644 0 0 0-.457-.186z" fill="#8e8e8e"/><rect transform="rotate(45)" x="9.952" y="-.94" width="3.092" height="3.092" rx=".168" ry=".168" fill="#fff"/><path d="M9.817 5.384a.644.644 0 0 0-.457.186L6.829 8.102a.652.652 0 0 0 0 .914l2.531 2.531a.653.653 0 0 0 .914 0l2.532-2.531a.653.653 0 0 0 0-.914L10.274 5.57a.644.644 0 0 0-.457-.186z" fill="#e52e38"/></g></svg>