<svg width="64" height="64" version="1.1" viewBox="0 0 16.933 16.933" xmlns="http://www.w3.org/2000/svg">
 <circle cx="8.4665" cy="8.4665" r="7.1436" fill="#ececec" style="paint-order:stroke fill markers"/>
 <circle cx="8.4665" cy="8.4665" r="6.0853" fill="#fff" opacity=".75" stroke-width=".85185" style="paint-order:stroke fill markers"/>
 <g transform="matrix(1.25 0 0 1.25 -2.4821 -2.2323)" stroke-width=".52916">
  <path d="m7.7005 5.3841c-0.16631 0-0.33274 0.06199-0.45706 0.18631l-2.5315 2.5318c-0.24865 0.24864-0.24829 0.66474 3.57e-4 0.91338l2.5315 2.5318c0.24865 0.24864 0.66512 0.24899 0.91377 3.56e-4l2.5315-2.5318c0.24865-0.24864 0.24865-0.6651 0-0.91374l-2.5315-2.5318c-0.12432-0.12432-0.29075-0.18631-0.45706-0.18631z" fill="#8e8e8e"/>
  <rect transform="rotate(45)" x="9.9524" y="-.94038" width="3.0919" height="3.0919" rx=".16827" ry=".16827" fill="#fff"/>
  <path d="m9.8171 5.3841c-0.16631 0-0.33274 0.06199-0.45706 0.18631l-2.5315 2.5318c-0.24865 0.24864-0.24829 0.66474 3.572e-4 0.91338l2.5315 2.5318c0.24865 0.24864 0.66512 0.24899 0.91377 3.56e-4l2.5315-2.5318c0.24865-0.24864 0.24865-0.6651 0-0.91374l-2.5315-2.5318c-0.12432-0.12432-0.29075-0.18631-0.45706-0.18631z" fill="#e52e38"/>
 </g>
</svg>
