<svg xmlns="http://www.w3.org/2000/svg" width="64" height="64" viewBox="0 0 16.933 16.933"><circle cx="8.466" cy="8.466" r="7.144" fill="#ececec" style="paint-order:stroke fill markers"/><circle cx="8.466" cy="8.466" r="6.085" fill="#fff" opacity=".75" style="paint-order:stroke fill markers"/><g stroke-width=".529" transform="translate(-2.482 -2.232)scale(1.25)"><path fill="#8e8e8e" d="M7.7 5.384a.64.64 0 0 0-.457.186L4.712 8.102a.65.65 0 0 0 0 .914l2.532 2.531a.653.653 0 0 0 .914 0l2.531-2.531a.653.653 0 0 0 0-.914L8.158 5.57a.64.64 0 0 0-.457-.186z"/><rect width="3.092" height="3.092" x="9.952" y="-.94" fill="#fff" rx=".168" ry=".168" transform="rotate(45)"/><path fill="#e52e38" d="M9.817 5.384a.64.64 0 0 0-.457.186L6.829 8.102a.65.65 0 0 0 0 .914l2.531 2.531a.653.653 0 0 0 .914 0l2.532-2.531a.653.653 0 0 0 0-.914L10.274 5.57a.64.64 0 0 0-.457-.186"/></g></svg>