<?xml version="1.0" encoding="UTF-8" standalone="no"?>
<svg
   width="64"
   height="64"
   version="1"
   id="svg1"
   sodipodi:docname="directory.svg"
   inkscape:version="1.3.2 (091e20ef0f, 2023-11-25)"
   xmlns:inkscape="http://www.inkscape.org/namespaces/inkscape"
   xmlns:sodipodi="http://sodipodi.sourceforge.net/DTD/sodipodi-0.dtd"
   xmlns="http://www.w3.org/2000/svg"
   xmlns:svg="http://www.w3.org/2000/svg">
  <defs
     id="defs1" />
  <sodipodi:namedview
     id="namedview1"
     pagecolor="#505050"
     bordercolor="#eeeeee"
     borderopacity="1"
     inkscape:showpageshadow="0"
     inkscape:pageopacity="0"
     inkscape:pagecheckerboard="0"
     inkscape:deskcolor="#505050"
     inkscape:zoom="9.6281515"
     inkscape:cx="28.458214"
     inkscape:cy="28.302421"
     inkscape:window-width="1600"
     inkscape:window-height="846"
     inkscape:window-x="0"
     inkscape:window-y="0"
     inkscape:window-maximized="1"
     inkscape:current-layer="svg1" />
  <circle
     cx="32"
     cy="32"
     r="26"
     fill="#324090"
     style="paint-order:markers stroke fill;fill:#3771c8"
     transform="translate(-1.23 -1.23) scale(1.0385)"
     id="circle1" />
  <path
     style="fill:#ececec;fill-opacity:1;fill-rule:nonzero;stroke:#ffffff;stroke-width:1.14301;stroke-linecap:round;stroke-linejoin:round;stroke-miterlimit:4;stroke-dasharray:none;stroke-opacity:1"
     d="M 32.041739,5.5766649 A 26.465093,26.465093 0 0 0 14.625016,12.142479 l 0.435193,0.435205 a 25.883828,25.883828 0 0 1 17.00424,-6.411667 25.883828,25.883828 0 0 1 15.38013,5.102677 l 0.412338,-0.41235 A 26.465093,26.465093 0 0 0 32.041739,5.5766649 Z m 18.60179,7.6555161 -0.411345,0.411343 a 25.883828,25.883828 0 0 1 7.71611,18.406338 25.883828,25.883828 0 0 1 -6.402302,17.013605 l 0.386081,0.386081 A 26.465093,26.465093 0 0 0 58.50684,32.041779 26.465093,26.465093 0 0 0 50.643529,13.232181 Z M 12.059122,14.739034 A 26.465093,26.465093 0 0 0 5.5766249,32.041779 26.465093,26.465093 0 0 0 10.859438,47.853835 l 0.42284,-0.422838 A 25.883828,25.883828 0 0 1 6.180593,32.049862 25.883828,25.883828 0 0 1 12.473734,15.153646 Z m 1.590606,35.486934 -0.410207,0.410221 A 26.465093,26.465093 0 0 0 32.041739,58.50688 26.465093,26.465093 0 0 0 49.356256,52.036155 L 48.948034,51.627932 A 25.883828,25.883828 0 0 1 32.064449,57.933717 25.883828,25.883828 0 0 1 13.649728,50.225968 Z"
     id="path16021"
     inkscape:connector-curvature="0" />
  <path
     style="fill:#ececec;fill-opacity:1;stroke-width:0.199037"
     d="m 31.767677,48.889511 h -2.561641 l 0.400336,-1.04494 0.400336,-1.044939 0.02833,-2.495367 0.02834,-2.495357 -0.352905,-0.539955 -0.352906,-0.539954 h -0.40336 -0.40337 l -0.537473,0.279647 -0.537465,0.279638 -0.476227,0.509804 -0.476228,0.509793 -0.462993,0.753099 -0.462975,0.753089 -0.0067,-0.201981 -0.0067,-0.20199 0.391509,-0.730457 0.391502,-0.730456 -0.441269,-0.06278 -0.441258,-0.06278 1.749462,-0.840526 1.749473,-0.840525 -0.288646,-0.55274 -0.288653,-0.55273 -0.616162,-0.845907 -0.61616,-0.845906 h -0.38153 -0.381549 l -0.640825,0.539218 -0.640826,0.53922 -0.467202,1.00331 -0.46721,1.00332 -0.0086,-0.298557 -0.0086,-0.298549 -0.295429,0.390727 -0.295428,0.390738 -0.336419,1.067266 -0.336427,1.067256 -0.320323,0.171429 -0.320312,0.17143 0.481017,-0.971968 0.481027,-0.971966 -0.07461,-0.223907 -0.07461,-0.223907 -0.582823,0.458452 -0.582823,0.458452 0.151497,-0.245127 0.151497,-0.245136 h -0.124343 -0.124352 l -0.434751,0.231626 -0.434752,0.231617 0.25589,-0.310314 0.255889,-0.310323 0.657704,-0.123388 0.657704,-0.123389 0.40504,-0.44479 0.40503,-0.444778 0.23091,-0.447833 0.230919,-0.447832 h -0.608566 -0.608556 l -0.940977,0.83792 -0.940987,0.837931 0.248801,-0.280621 0.2488,-0.28063 v -0.16434 -0.164339 l -0.561852,0.290542 -0.561852,0.290544 -0.241615,0.291135 -0.241616,0.291126 -0.402997,-0.105384 -0.402998,-0.105385 0.783831,-0.350939 0.78383,-0.350932 0.135831,-0.219755 0.135812,-0.219767 -0.260536,-0.02042 -0.260545,-0.02042 0.597106,-0.170791 0.597117,-0.170799 1.473975,-0.394258 1.473985,-0.394257 0.308825,-0.308826 0.308825,-0.308814 -0.190512,-0.174006 -0.190503,-0.174005 -0.980889,-0.325007 -0.980878,-0.325007 H 22.501417 22.07781 l -1.449932,1.021525 -1.449932,1.021535 0.256215,-0.410259 0.256204,-0.41026 0.48428,-0.220643 0.484281,-0.220653 -0.124524,-0.124534 -0.124525,-0.124514 0.622964,-0.378858 0.622974,-0.378849 -0.175847,-0.166325 -0.175847,-0.166325 -0.952379,-0.318031 -0.95238,-0.318033 h -0.382009 -0.382064 l -0.497601,-0.49759 -0.49759,-0.4976 h 0.07071 0.07071 l 1.06471,0.495653 1.064708,0.495645 0.388705,0.0019 0.388715,0.0019 -0.786779,-0.840201 -0.786789,-0.840211 1.133254,1.039912 1.133244,1.039901 0.459044,0.172679 0.459053,0.17268 1.393256,-0.176544 1.393255,-0.176543 0.474931,-0.106911 0.474987,-0.106945 -0.563187,-0.587822 -0.56318,-0.587843 -1.93485,-0.993864 -1.93486,-0.993865 H 20.12705 19.214363 l 0.04971,-0.22697 0.04981,-0.226979 -1.075681,-0.380499 -1.075691,-0.38049 -1.298797,-0.121289 -1.298797,-0.12128 0.465083,-0.172049 0.465093,-0.172041 0.615655,0.186295 0.615656,0.186295 0.547348,0.121184 0.54735,0.121185 v -0.221088 -0.221111 l -0.447833,-0.594168 -0.447833,-0.594178 -0.491646,-0.532007 -0.491637,-0.53211 -0.04064,-0.266252 -0.04064,-0.266251 -0.344452,-0.380614 -0.344452,-0.380624 h 0.20699 0.206999 l 0.349843,0.547358 0.349843,0.54735 1.114735,1.375098 1.114744,1.375089 0.996507,0.464053 0.996507,0.464053 0.385575,0.0019 0.385576,0.0019 -1.257931,-1.267492 -1.25794,-1.267482 0.02643,-0.125774 0.02643,-0.12586 h 0.09953 0.09952 l -0.0067,0.04971 -0.0067,0.04981 1.449683,1.525747 1.449683,1.525747 0.942104,0.402206 0.942112,0.402206 0.668972,0.510252 0.668973,0.510252 h 0.230013 0.230003 v -0.125792 -0.125785 l -0.41354,-0.669134 -0.413551,-0.669125 -0.332841,-0.194214 -0.332839,-0.194224 0.379163,-0.0057 0.379164,-0.0057 -0.379164,-0.425486 -0.379163,-0.425488 -1.562433,-1.266327 -1.562435,-1.266337 -0.626971,-0.01403 -0.62698,-0.01403 -0.398075,-0.187182 -0.398073,-0.187192 0.696632,0.09837 0.696632,0.09837 0.248142,-0.157336 0.248151,-0.157337 -0.695984,-0.674563 -0.695974,-0.674574 V 26.8566 26.596761 l -0.995168,-0.714896 -0.995192,-0.714971 v -0.09217 -0.09217 l 0.442366,0.309846 0.442365,0.309845 h 0.185589 0.185609 l -0.279648,-0.359355 -0.279647,-0.359356 0.497591,0.5105 0.49759,0.510491 0.665957,0.794288 0.665948,0.794278 -0.126328,-0.49759 -0.126337,-0.497591 0.514326,1.03183 0.514318,1.031839 1.225928,1.13499 1.22592,1.13499 0.07013,-0.210462 0.07013,-0.210463 -0.534238,-1.060702 -0.53424,-1.060692 -0.748461,-0.817188 -0.748471,-0.817186 -0.232646,-0.476552 -0.232647,-0.476553 0.359557,0.440829 0.359546,0.44082 0.328145,0.454845 0.328147,0.454836 0.134361,-0.130783 0.134371,-0.130773 -0.333986,-0.665375 -0.333994,-0.665366 -1.322745,-1.381682 -1.322746,-1.381683 0.328966,0.245528 0.328957,0.245527 0.103944,-0.212314 0.103943,-0.212323 -0.05057,0.251214 -0.05057,0.251214 0.513333,0.538761 0.513325,0.538762 0.252387,0.06088 0.252378,0.06087 2.235576,2.149675 2.235584,2.149675 0.454045,0.315493 0.454043,0.315485 0.08578,-0.08578 0.08578,-0.08578 -0.763527,-1.14976 -0.763527,-1.149762 -0.580352,-0.533016 -0.580362,-0.533019 0.19702,0.149284 0.197018,0.149274 h 0.159227 0.159225 V 26.373968 26.150605 L 23.34431,24.464707 21.702253,22.778799 20.856346,22.280703 20.010439,21.782607 v -0.07433 -0.07433 l 0.348317,0.127977 0.348306,0.127979 -0.945422,-1.021363 -0.945424,-1.021363 v -0.13251 -0.13251 l 1.976252,2.064594 1.97625,2.064594 0.611228,0.359567 0.611228,0.359565 -6.48e-4,-0.359565 -6.49e-4,-0.359567 -0.368697,-0.604592 -0.368697,-0.604597 -1.136107,-1.227141 -1.136106,-1.227131 -0.400307,-0.127054 -0.400299,-0.127052 0.114955,-0.114944 0.114954,-0.114954 -0.34347,-0.414228 -0.343364,-0.414228 0.283321,0.2488 0.28332,0.24879 h 0.168796 0.168797 l -0.622488,-0.945423 -0.622486,-0.945423 0.513763,0.558875 0.513773,0.558874 0.163253,-0.100899 0.163252,-0.1009 0.728778,1.245833 0.728777,1.245823 0.53274,0.485606 0.532732,0.485598 -0.102398,-0.298549 -0.102397,-0.298559 -0.351256,-1.094707 -0.351254,-1.094697 -0.722681,-0.791092 -0.722681,-0.791102 0.490072,0.393027 0.490072,0.393018 0.348851,0.398074 0.348841,0.398075 0.728148,2.189404 0.728157,2.189405 0.622335,1.592298 0.622334,1.592298 0.123083,-0.696633 0.123074,-0.696633 0.02624,0.653268 0.02624,0.653257 0.285439,0.683161 0.285439,0.68315 0.460952,0.09763 0.460952,0.09764 0.945423,0.18388 0.945424,0.183872 v -0.139081 -0.139084 l -0.730695,-0.881735 -0.730696,-0.881725 -0.901257,-0.942771 -0.901256,-0.942761 -0.148674,0.240557 -0.148673,0.240555 -0.0831,-0.292976 -0.0831,-0.292976 -0.232599,-0.972205 -0.2326,-0.972197 0.08702,-0.08702 0.08692,-0.08702 0.129639,0.561584 0.129628,0.561584 1.266795,1.392455 1.266795,1.392445 0.124944,-0.124944 0.124943,-0.124945 -1.936691,-2.852145 -1.936704,-2.852138 -0.666767,-1.580962 -0.666759,-1.580963 0.06669,-0.200034 0.06669,-0.200034 0.362419,0.948981 0.362418,0.948983 0.171296,-0.270345 0.171296,-0.270354 0.0028,0.361178 0.0028,0.361178 0.43476,1.032088 0.434761,1.032078 0.671377,1.066684 0.671377,1.066684 0.11047,-0.11047 0.110469,-0.11047 -0.321734,-0.944221 -0.321724,-0.94423 -0.44705,-0.491914 -0.447041,-0.491923 0.24879,0.143368 0.2488,0.143359 v -0.214737 -0.214738 l -0.487609,-1.200014 -0.487601,-1.200006 0.104859,-0.273264 0.104859,-0.273264 -0.222886,-0.416461 -0.222895,-0.416471 0.244383,0.05258 0.244382,0.05258 0.538695,1.094697 0.538694,1.094707 0.326486,0.398075 0.326486,0.398074 -0.304894,-0.770693 -0.304874,-0.770701 6.49e-4,-0.124973 6.48e-4,-0.124963 0.374221,0.613689 0.374232,0.613691 0.133902,0.609653 0.133903,0.609645 0.417214,0.368954 0.417215,0.368954 0.765722,1.175322 0.76573,1.175322 v -0.198737 -0.198737 l -0.370365,-1.076102 -0.370367,-1.0761 -0.72934,-1.447985 -0.729341,-1.447976 -0.73579,-0.840945 -0.735791,-0.840946 0.504823,0.447833 0.504823,0.447832 h 0.222563 0.222551 l 0.134695,0.42437 0.134685,0.424371 0.174235,-0.275096 0.174225,-0.275086 0.01203,0.49759 0.01203,0.497591 0.273416,0.597107 0.273408,0.597116 0.04045,-0.796149 0.04045,-0.796149 0.162051,1.094707 0.16204,1.094698 0.216131,0.4976 0.216131,0.497591 -0.08501,-1.243906 -0.08501,-1.243904 0.18015,-0.111348 0.180064,-0.111337 v 0.807893 0.807895 h 0.195246 0.195244 l 0.135753,-0.540899 0.135764,-0.540899 -0.430562,-1.200673 -0.430563,-1.200673 0.01403,-0.398075 0.01403,-0.398074 0.171056,0.398074 0.171058,0.398075 0.04495,-0.497591 0.04494,-0.497601 -0.0313,-0.497591 -0.0313,-0.49759 0.289247,0.646875 0.289255,0.646864 h 0.124934 0.124945 l -0.112999,-0.646864 -0.112979,-0.646875 0.107664,0.230519 0.107665,0.230509 0.37237,1.262263 0.372371,1.262263 0.04322,-0.895665 0.04323,-0.895665 0.151325,1.094697 0.151334,1.094707 0.03225,1.492781 0.03235,1.492773 0.201686,-0.497591 0.201675,-0.497591 0.08797,-2.176552 0.08797,-2.176553 0.09578,-0.09579 0.09579,-0.09579 v 0.315141 0.315141 l 0.227579,0.07585 0.22758,0.07585 -0.240078,0.448586 -0.24008,0.448586 0.06221,0.407673 0.06221,0.407684 0.547359,-0.432396 0.547348,-0.432385 0.02805,-1.428577 0.02806,-1.428569 0.136194,1.094707 0.136193,1.094698 -0.154121,0.597117 -0.154122,0.597107 -0.203593,1.691813 -0.203603,1.691814 -0.133913,0.576937 -0.133913,0.576936 0.227896,-0.140849 0.227895,-0.14085 -0.0028,0.06154 -0.0028,0.06154 -0.395507,1.26171 -0.395498,1.261719 0.01612,4.90843 0.01612,4.908431 0.357123,-0.765837 0.357142,-0.765837 0.2378,-1.523084 0.237797,-1.523094 0.433893,-2.189405 0.433903,-2.189404 -0.01508,-5.473516 -0.01508,-5.473526 0.07623,1.094707 0.07623,1.094706 0.165305,0.166755 0.165303,0.166744 -0.105775,2.072418 -0.105803,2.072418 h 0.133034 0.133025 l 0.218116,-0.547358 0.218105,-0.547348 0.269676,-0.895665 0.269678,-0.895666 -0.11588,0.895666 -0.11589,0.895665 -0.403942,0.951481 -0.403952,0.951482 0.11338,0.113371 0.11337,0.11338 0.6008,-1.164379 0.600799,-1.164377 0.0096,0.162326 0.0095,0.162328 -0.696632,1.507761 -0.696624,1.507761 v 0.294895 0.294894 l 0.298549,-0.24778 0.298558,-0.247779 V 22.37987 22.191924 l 0.484367,-0.635033 0.484366,-0.635035 0.508868,-1.093256 0.508879,-1.093267 0.0019,-0.447831 0.0019,-0.447834 h 0.199033 0.199042 v -0.286802 -0.286813 l 0.220358,-0.136194 0.220356,-0.136182 -0.142967,0.472753 -0.142977,0.472755 -1.141174,2.402148 -1.141183,2.402138 -0.113294,1.280038 -0.113293,1.280049 0.599539,-0.696633 0.599531,-0.696623 -0.400193,0.796149 -0.400192,0.796149 -0.69358,0.666043 -0.69357,0.666052 -0.241167,0.861355 -0.241167,0.861354 0.08931,0.263932 0.08931,0.263924 0.43623,-0.796149 0.436231,-0.796149 -0.119267,0.447833 -0.119267,0.447842 h 0.104039 0.104048 l 0.805652,-1.356131 0.805662,-1.356121 0.674706,-1.67919 0.674708,-1.679192 0.362007,-2.189403 0.362008,-2.189415 0.07757,0.377207 0.07757,0.377208 0.175827,-0.277692 0.175839,-0.277681 0.0028,0.355319 0.0028,0.355321 -0.28252,0.440829 -0.282519,0.440829 -0.136145,1.194223 -0.136146,1.194224 0.627602,-0.696634 0.627601,-0.696632 -0.900904,1.277395 -0.900913,1.277405 -0.58913,1.4096 -0.58914,1.4096 -1.001192,1.781379 -1.001183,1.781378 0.08348,0.08348 0.08348,0.08348 0.656244,-0.378 0.656244,-0.377989 0.621266,-1.230528 0.621265,-1.230529 -0.107169,-0.107092 -0.107091,-0.107082 h 0.245623 0.245622 l -0.125965,-0.447833 -0.125974,-0.447833 0.19119,0.276509 0.191199,0.276518 0.311467,-0.575067 0.311468,-0.575076 0.0077,0.153702 0.0077,0.153691 -0.798372,1.587881 -0.798372,1.587879 h 0.304884 0.304874 l 0.642763,-0.924871 0.642772,-0.92486 1.243982,-1.680604 1.24398,-1.680611 0.0067,-0.230806 0.0067,-0.230805 0.492019,-0.358116 0.492009,-0.358115 -0.796893,1.137605 -0.796903,1.137605 0.09341,0.09341 0.09341,0.09341 0.55357,-0.343479 0.553561,-0.343478 0.666758,-0.728425 0.666749,-0.728424 -0.131145,0.2488 -0.131156,0.24879 h 0.17994 0.179931 l 0.360252,-0.398074 0.360253,-0.398074 h 0.196208 0.196217 l -0.934497,0.822578 -0.934499,0.822579 -0.710801,1.416585 -0.710801,1.416593 -0.388782,0.597107 -0.388772,0.597116 0.60516,-0.679973 0.605169,-0.679964 0.894397,-1.539306 0.894396,-1.539304 0.613442,-0.436813 0.613441,-0.436812 -0.111443,-0.351132 -0.111443,-0.351121 0.341256,-0.276898 0.341256,-0.276901 -0.149476,0.248801 -0.149474,0.248791 h 0.244879 0.244869 l 0.407129,-0.348308 0.407129,-0.348315 -1.239239,1.456524 -1.239249,1.456533 -0.271461,0.533839 -0.27146,0.533838 -0.153445,0.496035 -0.153443,0.496026 0.327268,-0.271604 0.327268,-0.271603 v 0.137166 0.137176 l -0.4976,0.652371 -0.497591,0.652379 v 0.153702 0.15371 l 0.442203,-0.11564 0.442212,-0.115642 -0.538771,0.440744 -0.53878,0.440734 -0.311277,1.366902 -0.311286,1.366893 0.11295,0.11295 0.112941,0.112951 0.804173,-0.783221 0.804173,-0.78321 -0.132491,0.348317 -0.132491,0.348305 h 0.220247 0.22033 l 0.789374,-0.789373 0.789375,-0.789376 0.471065,-0.753164 0.471067,-0.753155 0.225947,-0.658258 0.225959,-0.658257 -0.441449,0.124571 -0.44145,0.124572 -1.194223,0.600599 -1.194224,0.60059 0.398075,-0.377513 0.398075,-0.377513 0.995181,-0.420173 0.995191,-0.420171 0.326228,-0.100404 0.326228,-0.100413 0.353545,-0.960146 0.353535,-0.960155 0.174197,-0.197143 0.174196,-0.197143 -0.312212,0.884912 -0.312222,0.884912 0.09332,0.243103 0.09331,0.243114 -0.271281,0.225138 -0.271288,0.225147 -0.204118,0.585552 -0.204108,0.585562 h 0.111881 0.111882 l 0.723673,-0.758137 0.723672,-0.758126 -0.447832,0.520222 -0.447833,0.520224 v 0.183995 0.183985 l -1.637657,1.646217 -1.637666,1.646205 h 0.878451 0.878444 l 0.504393,-0.447831 0.504394,-0.447834 -0.251081,0.328957 -0.25108,0.328968 0.257101,0.0916 0.257111,0.0916 -0.109763,0.120422 -0.109764,0.120421 -1.562128,0.10255 -1.562129,0.102551 -0.869197,0.420772 -0.869206,0.420774 -0.206695,0.386205 -0.206684,0.386205 0.11503,0.362456 0.11504,0.362457 -0.303043,0.25151 -0.303051,0.251501 v 0.369918 0.369908 l 0.447831,0.106128 0.447834,0.106128 0.923792,0.166478 0.923794,0.166487 0.324233,-0.181457 0.324253,-0.181458 -0.05382,0.260956 -0.05382,0.260956 0.532226,0.06154 0.532226,0.06154 0.803343,-0.409839 0.803343,-0.409829 0.157212,0.0077 0.157204,0.0077 -0.575076,0.311467 -0.575066,0.311469 0.276517,0.175112 0.276518,0.175103 0.82461,0.0028 0.824612,0.0028 0.11128,0.290009 0.111291,0.29 -0.502143,-0.190904 -0.502132,-0.190912 -2.225089,-0.19992 -2.225099,-0.19992 -1.150505,-0.272529 -1.150504,-0.27252 -0.874112,1.218181 -0.874101,1.218192 0.04418,0.04418 0.04418,0.04418 1.753203,0.199213 1.753194,0.199215 0.231616,0.192219 0.231626,0.192229 1.382264,0.254697 1.382264,0.254687 -0.49096,0.119687 -0.490969,0.119686 0.597117,0.327584 0.597107,0.327592 -0.157204,0.0077 -0.157213,0.0077 -0.751714,-0.383496 -0.751715,-0.383494 -1.18097,-0.428493 -1.180961,-0.428493 -1.691814,-0.09503 -1.691814,-0.09494 -0.272644,0.187059 -0.272654,0.187067 0.670729,0.930749 0.670718,0.930758 0.431346,0.535537 0.431344,0.535536 1.191457,-0.0436 1.191466,-0.04361 0.211493,0.25483 0.211493,0.25484 -1.187429,-0.08587 -1.187431,-0.08587 v 0.225882 0.225892 l 0.613509,0.373095 0.613508,0.373095 -0.260984,0.08702 -0.260974,0.08702 0.360004,0.549438 0.360004,0.549438 -0.07929,0.07929 -0.07929,0.07928 -1.1691,-1.589359 -1.169101,-1.58935 h -0.160753 -0.160753 l 9.49e-4,0.149275 9.48e-4,0.149283 0.216493,0.779758 0.216494,0.779756 0.504574,0.812541 0.504585,0.812532 -0.586707,-0.550135 -0.586707,-0.550135 -0.167393,0.15206 -0.167384,0.152061 0.143178,-0.248791 0.143176,-0.2488 -0.161019,-0.0019 -0.161029,-0.0019 -0.05095,-1.201923 -0.05104,-1.201913 -0.286966,-0.686816 -0.286975,-0.686823 -0.511674,-0.233133 -0.511683,-0.233134 -0.611552,0.581001 -0.611553,0.581011 -0.41481,0.577346 -0.414801,0.577357 0.519814,0.447117 0.519802,0.447126 -0.09772,0.09772 -0.09773,0.09772 0.956338,0.758699 0.956329,0.758699 0.199043,0.183595 0.199042,0.183595 -0.497601,-0.25442 -0.49759,-0.25443 -0.679325,-0.514946 -0.679315,-0.514937 0.106376,0.496207 0.106367,0.496207 0.136107,0.398075 0.136098,0.398074 -0.727671,-1.465608 -0.72767,-1.465617 -0.297404,0.297404 -0.297404,0.297403 -0.399295,1.168204 -0.399286,1.168214 -0.105489,1.929718 -0.10548,1.929727 0.417443,0.707519 0.417443,0.70752 h -2.561212 z m 1.584914,-7.563405 0.394238,-0.497591 0.121146,-0.450418 0.121156,-0.450418 -0.245632,-0.295972 -0.245632,-0.295973 h -0.27419 -0.274181 l 0.0047,1.243991 0.0047,1.243982 0.394239,-0.497601 z m -3.619023,-2.297575 0.06822,-0.329653 -0.126967,-0.676758 -0.126957,-0.676748 h -0.687609 -0.687607 v 0.111366 0.111376 l 0.746381,0.895035 0.746391,0.895046 z m 4.400315,0.10817 h 0.165714 l 0.130784,-0.521081 0.130782,-0.521072 -0.07728,-0.07728 -0.07728,-0.07729 -0.350015,0.386749 -0.349995,0.386748 0.130764,0.21158 0.130754,0.211579 z m 2.319587,-1.278825 1.173394,-0.978533 0.960384,-0.911456 0.960394,-0.911446 0.195493,-0.35657 0.195493,-0.35656 -1.395117,0.702568 -1.395125,0.702577 -0.685146,0.601562 -0.685154,0.601572 -0.130001,0.545202 -0.130011,0.545202 -0.118999,0.397216 -0.119,0.397206 z m -3.350691,0.283644 h 0.101901 l 0.969563,-0.739406 0.969572,-0.739397 0.195465,-0.703617 0.195473,-0.703618 9.49e-4,-0.673141 9.48e-4,-0.673132 0.408112,-0.660328 0.408103,-0.660337 0.660328,-0.408103 0.660337,-0.408102 h 0.607144 0.607145 l 0.390164,-0.646875 0.390165,-0.646874 0.243018,-0.759721 0.243008,-0.75972 -0.113141,-0.11315 -0.113141,-0.113142 -0.497219,0.32579 -0.497218,0.325789 -2.169263,2.413464 -2.169263,2.413455 -0.621705,1.025809 -0.621704,1.025798 -0.175475,0.939279 -0.175475,0.939279 h 0.101892 z m -7.280599,-1.010486 0.734645,0.01536 0.133721,-0.216379 0.133732,-0.216379 -0.205377,-0.205377 -0.205378,-0.205378 -0.828494,0.01145 -0.828493,0.01145 -0.630646,0.146717 -0.630654,0.146718 0.796149,0.248313 0.796149,0.248313 z m 2.696632,-0.183737 h 0.848015 l -0.0019,-0.2488 -0.0019,-0.24879 -0.658802,-0.828552 -0.658792,-0.828541 -0.583252,-0.485388 -0.583253,-0.485378 -0.434752,-0.228611 -0.434751,-0.22861 H 25.896747 25.78415 v 0.217256 0.217256 l 0.943314,1.574074 0.943305,1.574084 h 0.848026 z m 1.806213,-0.871278 0.06249,-0.746591 -0.608481,-1.300294 -0.60848,-1.300294 -0.626846,-0.791455 -0.626839,-0.791455 -1.104982,-0.8163 -1.104974,-0.81629 -1.557157,-1.487697 -1.557157,-1.487695 -0.09853,0.09852 -0.09852,0.09853 0.827845,1.871792 0.827855,1.871793 0.669411,1.051971 0.669421,1.051962 0.305122,0.117091 0.305123,0.117082 0.114944,-0.114945 0.114945,-0.114944 -0.939364,-1.316391 -0.939355,-1.316391 0.09952,-0.09952 0.09952,-0.09952 0.954611,1.35699 0.954602,1.356989 1.306028,1.393265 1.306039,1.393255 0.595322,0.783565 0.595314,0.783563 z m 5.7593,-0.128169 0.149275,-0.0038 1.381242,-0.894721 1.381243,-0.89473 0.743624,-0.222791 0.743624,-0.222799 0.12399,-0.494003 0.12399,-0.494004 -0.06459,-0.0645 -0.06459,-0.06459 -0.933689,-0.04838 -0.933686,-0.04838 -0.454465,0.378086 -0.454463,0.378095 -0.945432,0.895254 -0.945424,0.895255 v 0.455332 0.455313 z m -2.437337,-1.588033 h 0.06097 l 1.013759,-1.367493 1.013758,-1.367494 0.298826,-0.846938 0.298815,-0.846937 V 29.640698 29.35044 l -0.802141,0.635311 -0.80214,0.635301 -0.268131,0.52588 -0.26813,0.525881 -0.303292,1.343507 -0.30329,1.343497 z m -2.946949,-0.473621 0.03951,-0.03655 -0.201524,-1.486484 -0.201522,-1.486485 -0.33554,-0.683781 -0.335541,-0.68378 -0.504174,-0.367791 -0.504174,-0.36778 -1.022041,-0.269609 -1.02204,-0.269611 1.711298,2.415879 1.711297,2.415887 0.312507,0.42834 0.312508,0.428339 z m 6.582603,-0.68757 0.841813,-0.663591 v -0.08282 -0.08282 h -0.274934 -0.274924 l -0.566889,0.746391 -0.566881,0.746391 z m 3.031227,-0.897868 0.497581,-0.03082 0.418112,-1.30309 0.418101,-1.30308 0.138226,-0.736878 0.138245,-0.736869 -0.507524,0.231244 -0.507523,0.231244 -0.894721,1.681902 -0.89473,1.681909 v 0.0624 0.06249 l 0.348326,0.09522 0.348308,0.09522 z m -3.517207,-1.452813 0.324998,-0.181878 1.373057,-1.229335 1.373066,-1.229335 0.661635,-1.15333 0.661635,-1.153329 0.447918,-0.945423 0.44791,-0.945423 h -0.104259 -0.104258 l -0.891105,0.613098 -0.891113,0.613098 -1.087533,1.634194 -1.087542,1.634204 -0.59493,0.351435 -0.594942,0.351437 v 0.262425 0.262426 l -0.129762,0.648801 -0.129762,0.648812 z m -4.904632,-0.516311 0.09055,-0.345988 -0.08654,-0.450161 -0.08654,-0.450151 -0.0038,0.796148 -0.0038,0.79615 0.09055,-0.345998 z m -1.099325,-1.047258 0.143483,-0.796149 0.01145,-0.628498 0.01145,-0.628498 -1.144465,-2.257539 -1.144455,-2.25754 -1.094708,-0.653534 -1.094697,-0.653544 -0.06403,0.303453 -0.06403,0.303454 0.732317,1.345271 0.732299,1.345272 1.415926,2.686996 1.415936,2.686995 z m -11.875321,0.298549 h 0.09953 v -0.09952 -0.09952 h -0.09953 -0.09952 v 0.09952 0.09952 z M 32.0108,28.158526 32.189356,27.692078 32.059737,26.028879 31.93011,24.365688 31.563474,23.242367 31.196838,22.119035 30.503669,20.566955 29.8105,19.014864 l -0.221837,0.63637 -0.221836,0.636361 v 0.855561 0.855554 l 0.646207,1.751982 0.646206,1.751981 0.107779,-0.895675 0.107779,-0.895665 0.240089,0.79615 0.240089,0.796149 9.48e-4,0.631684 9.48e-4,0.631685 0.237512,1.028987 0.237522,1.028976 0.178567,-0.466438 z m 8.379095,0.230175 h 0.09952 l 0.123007,-0.199032 0.123007,-0.199042 h -0.09952 -0.09952 l -0.123006,0.199042 -0.123018,0.199032 z M 18.718353,25.801222 h 0.09952 v -0.09952 -0.09952 h -0.09952 -0.09952 v 0.09952 0.09952 z m 13.430311,-2.886037 0.146507,-0.398074 0.137891,-1.558723 0.137892,-1.558731 -0.139237,-0.928516 -0.139237,-0.928506 -0.155095,0.39735 -0.155094,0.397348 -0.01403,0.757774 -0.01403,0.757774 -0.214956,0.853655 -0.214957,0.853663 0.238885,0.876535 0.238888,0.876526 0.146497,-0.398075 z m -4.014074,-0.903632 0.06154,0.0077 -0.146403,-0.248791 -0.146402,-0.248799 -0.831375,-1.094708 -0.831376,-1.094698 -0.622477,-0.995191 -0.622497,-0.995181 -0.0038,0.442156 -0.0038,0.442155 0.486647,1.100384 0.486636,1.100375 h 0.10423 0.104221 l -0.114547,-0.298564 -0.114573,-0.298558 h 0.116767 0.116776 l 0.403208,0.790366 0.403217,0.790367 0.546252,0.296365 0.54626,0.296373 0.06154,0.0077 z m -1.852833,-1.186257 h 0.09952 v -0.09952 -0.09952 h -0.09952 -0.09952 v 0.09952 0.09952 z m 4.641102,-1.592297 0.06326,-1.29374 -0.342591,-1.14125 -0.342591,-1.141259 -0.367533,-0.332611 -0.367533,-0.332612 0.0028,0.876755 0.0028,0.876764 0.124418,0.464653 0.124419,0.464664 0.168366,-0.265622 0.168378,-0.265631 0.0028,0.789499 0.0028,0.789489 0.348316,0.902324 0.348307,0.902326 z m 2.070872,-1.069404 0.17223,-0.969877 -0.111548,-0.111558 -0.111548,-0.111548 -0.216445,0.216446 -0.216445,0.216436 0.155773,0.864999 0.155761,0.86499 z m 4.036017,26.546139 h -0.09952 v -0.09952 -0.09952 h 0.09952 0.09953 v 0.09952 0.09952 z M 25.263075,44.311669 h -0.09952 l 0.123017,-0.199042 0.123007,-0.199032 h 0.09952 0.09952 l -0.123006,0.199032 -0.123007,0.199042 z m 11.573136,0 h -0.08148 l -0.131193,-0.212285 -0.131203,-0.212276 0.09484,-0.09484 0.09484,-0.09484 0.117855,0.307135 0.117865,0.307145 z M 21.504873,43.913595 h -0.09952 v -0.09953 -0.09952 h 0.09952 0.09952 v 0.09952 0.09953 z m 0.971691,-0.199042 h -0.09952 l 0.123016,-0.199033 0.123008,-0.199042 h 0.09952 0.09952 l -0.123017,0.199042 -0.123007,0.199033 z m 2.11338,-0.398075 h -0.265383 l 0.132691,-0.132691 0.132692,-0.132692 0.132691,0.132692 0.132692,0.132691 z m 0.68004,-0.214746 -0.381483,-0.01574 0.261233,-0.104535 0.261232,-0.104545 0.12025,0.12025 0.120259,0.12025 -0.381491,-0.01565 z m 17.543584,-0.38236 h -0.08778 l -0.142013,-0.229794 -0.142023,-0.229784 0.229793,0.142013 0.229785,0.142013 v 0.08778 0.08778 z m -0.807885,-0.597116 h -0.09953 v -0.09952 -0.09952 h 0.09953 0.09952 v 0.09952 0.09952 z M 20.907757,41.72418 h -0.09952 v -0.09952 -0.09952 h 0.09952 0.09952 v 0.09952 0.09952 z m -1.990373,-0.796149 h -0.09952 v -0.09952 -0.09952 h 0.09952 0.09953 v 0.09952 0.09952 z m 27.964699,-1.609328 -0.298558,0.01098 -0.298549,-0.192944 -0.298558,-0.192936 0.199032,0.01097 0.199042,0.01098 0.398075,0.171058 0.398074,0.171056 -0.298558,0.01098 z M 44.39412,39.136701 H 44.2946 v -0.09952 -0.09952 h 0.09952 0.09952 v 0.09952 0.09952 z m -0.398074,-0.199032 h -0.09952 v -0.09953 -0.09952 h 0.09952 0.09952 v 0.09952 0.09953 z m 4.776893,-0.199042 h -0.09953 v -0.09952 -0.09952 h 0.09953 0.09952 v 0.09952 0.09952 z M 18.121236,38.539595 h -0.09952 v -0.09952 -0.09953 h 0.09952 0.09953 v 0.09953 0.09952 z m 29.95507,0 h -0.265383 l 0.132692,-0.132692 0.132691,-0.132691 0.132692,0.132691 0.132691,0.132692 z m -29.175504,-0.214757 -0.381491,-0.01574 0.261241,-0.104535 0.261233,-0.104535 0.12025,0.120249 0.120259,0.12025 -0.381492,-0.01574 z m 28.379355,0.01574 h -0.265383 l 0.132692,-0.132692 0.132691,-0.132691 0.132692,0.132691 0.132691,0.132692 z M 19.614018,37.299213 h -0.696634 l 0.348317,-0.09102 0.348317,-0.09102 0.348316,0.09102 0.348316,0.09102 z m 24.481544,-0.199032 h -0.696623 l 0.348316,-0.09103 0.348307,-0.09102 0.348316,0.09102 0.348317,0.09103 z m -27.429085,-1.565964 -0.734646,-0.01985 0.497591,-0.15936 0.49759,-0.159359 0.360072,-0.01985 0.360052,-0.01985 -0.123007,0.199042 -0.123016,0.199032 -0.734636,-0.01985 z M 49.27053,35.155988 h -0.265383 l 0.132691,-0.132691 0.132692,-0.132691 0.132691,0.132691 0.132692,0.132691 z M 15.732799,34.757912 h -0.09952 v -0.09953 -0.09952 h 0.09952 0.09952 v 0.09952 0.09953 z m 1.592298,-0.199043 h -0.09953 v -0.09952 -0.09952 h 0.09953 0.09952 v 0.09952 0.09952 z m -0.398085,-0.199032 h -0.09952 v -0.09952 -0.09953 h 0.09952 0.09953 v 0.09953 0.09952 z m 27.865183,-0.398075 h -0.09952 v -0.09952 -0.09953 h 0.09952 0.09952 v 0.09953 0.09952 z m 3.284111,-0.03138 h -0.49759 l 0.248791,-0.100395 0.248799,-0.100394 0.248791,0.100394 0.2488,0.100395 z m -2.587479,-0.290801 -0.497599,0.119085 0.696632,-0.335149 0.696632,-0.33514 -1.79133,-0.156096 -1.79134,-0.156097 -0.49759,-0.08988 -0.497591,-0.08988 1.625406,0.06565 1.625416,0.06565 0.53983,-0.280077 0.539831,-0.280067 -0.263685,0.317726 -0.263694,0.317727 0.287853,-0.04132 0.287852,-0.04132 0.497591,0.02691 0.4976,0.02691 -0.597116,0.373105 -0.597107,0.373105 z m 3.58266,0.123188 h -0.265383 l 0.132692,-0.132692 0.132691,-0.132691 0.132693,0.132691 0.132691,0.132692 z m -33.04014,-0.597114 h -0.265382 l 0.132691,-0.132692 0.132691,-0.132691 0.132692,0.132691 0.132691,0.132692 z m 1.409849,-0.21303 -0.879083,0.01403 0.08291,-0.07203 0.08292,-0.07203 1.194223,-0.108065 1.194223,-0.108056 -0.398074,0.166105 -0.398074,0.166115 -0.879082,0.01403 z m -1.509365,-0.384086 h -0.09952 v -0.09952 -0.09952 h 0.09952 0.09952 v 0.09952 0.09952 z m -0.796148,-0.237838 -0.597107,-0.0077 0.352104,-0.09179 0.352095,-0.09179 0.245012,0.09914 0.245012,0.09913 -0.597116,-0.0077 z m 8.743822,0.03664 -0.212859,0.0019 -1.05615,-0.787991 -1.05615,-0.788001 -0.124258,-0.13958 -0.124257,-0.139581 0.298559,0.161707 0.298549,0.161697 0.298557,0.254106 0.298559,0.254095 0.104135,-0.03559 0.104123,-0.03558 0.692016,0.545134 0.692013,0.545145 -0.212837,0.0019 z m 23.99776,-0.02919 h -0.497591 l 0.2488,-0.100394 0.248791,-0.100384 0.2488,0.100384 0.2488,0.100394 z m 1.094707,-1.361827 h -0.09952 v -0.09952 -0.09952 h 0.09952 0.09951 v 0.09952 0.09952 z M 14.936651,30.777271 h -0.09953 v -0.09952 -0.09952 h 0.09953 0.09952 v 0.09952 0.09952 z m 6.170148,0 h -0.09952 v -0.09952 -0.09952 h 0.09952 0.09952 v 0.09952 0.09952 z m 26.820233,-0.213029 -0.149284,-0.01403 -0.398074,-0.171057 -0.398074,-0.171057 0.547349,-0.01403 0.547357,-0.01403 v 0.199032 0.199033 l -0.149274,-0.01402 z M 18.718353,30.379197 h -0.09952 v -0.09952 -0.09952 h 0.09952 0.09952 v 0.09952 0.09952 z m -2.189405,-0.199032 h -0.09953 v -0.09953 -0.09952 h 0.09953 0.09952 v 0.09952 0.09953 z m 1.79133,0 h -0.09952 v -0.09953 -0.09952 h 0.09952 0.09952 v 0.09952 0.09953 z m -2.189405,-0.20514 H 15.931831 L 15.633274,29.78209 15.334725,29.589146 h 0.199032 0.199042 l 0.298548,0.192944 0.298559,0.192935 z m 31.348317,-0.287527 -0.49759,0.099 0.298557,-0.129027 0.298559,-0.129038 0.514174,-0.2592 0.514182,-0.25921 v 0.286517 0.286508 l -0.315141,0.0028 -0.315141,0.0028 -0.4976,0.09901 z m 1.492782,-0.303482 h -0.09952 v -0.09952 -0.09953 h 0.09952 0.09951 v 0.09953 0.09952 z M 15.533757,28.587868 h -0.09952 v -0.09952 -0.09953 h 0.09952 0.09952 v 0.09953 0.09952 z m 3.085079,0 h -0.265382 l 0.132691,-0.132692 0.132691,-0.132691 0.132682,0.132691 0.132692,0.132692 z m -3.483153,-0.199043 h -0.09952 v -0.09952 -0.09952 h 0.09952 0.09952 v 0.09952 0.09952 z m 2.985553,0 h -0.09952 v -0.09952 -0.09952 h 0.09952 0.09953 v 0.09952 0.09952 z m -3.383627,-0.199032 h -0.09952 v -0.09952 -0.09952 h 0.09952 0.09952 v 0.09952 0.09952 z m 2.985562,-0.0057 h -0.199042 l -0.298558,-0.192979 -0.298559,-0.192936 h 0.199043 0.199042 l 0.298549,0.192936 0.298557,0.192944 H 17.723171 Z M 16.727981,27.7921 h -0.09952 v -0.09952 -0.09952 h 0.09952 0.09952 v 0.09952 0.09952 z m -0.597108,-0.199033 h -0.09953 v -0.09952 -0.09952 h 0.09953 0.09952 v 0.09952 0.09952 z m 19.107545,-0.19907 h -0.09952 v -0.09952 -0.09952 h 0.09952 0.09952 v 0.09952 0.09952 z m -16.221507,-0.415115 -0.298558,0.01098 -0.298559,-0.192945 -0.298558,-0.192935 0.199042,0.01097 0.199033,0.01098 0.398073,0.171057 0.398076,0.171057 -0.298549,0.01098 z m 28.561805,-0.381033 h -0.09953 v -0.09952 -0.09952 h 0.09953 0.09952 v 0.09952 0.09952 z M 17.723171,26.398825 h -0.09952 v -0.09953 -0.09952 h 0.09952 0.09952 v 0.09952 0.09953 z m 2.388438,0 h -0.09952 v -0.09953 -0.09952 h 0.09952 0.09952 v 0.09952 0.09953 z m 27.865181,0 h -0.09952 v -0.09953 -0.09952 h 0.09952 0.09952 v 0.09952 0.09953 z M 23.924158,26.199783 h -0.0687 l -0.379164,-0.447833 -0.379163,-0.447832 0.447832,0.379164 0.447833,0.379164 v 0.0687 0.0687 z m 24.637994,0 h -0.310304 l 0.12502,-0.202286 0.12502,-0.202276 0.185284,0.114505 0.185283,0.114515 v 0.08778 0.08778 z M 17.126055,26.000751 h -0.09952 v -0.09953 -0.09952 h 0.09952 0.09952 v 0.09952 0.09953 z m 2.829352,-0.07604 -0.09312,0.09312 -0.124114,-0.323413 -0.124105,-0.323423 0.0057,-0.132997 0.0057,-0.132996 0.211226,0.363237 0.211236,0.36324 -0.09322,0.09322 z m 24.438713,0.07604 H 44.2946 v -0.09953 -0.09952 h 0.09952 0.09952 v 0.09952 0.09953 z M 20.72047,25.602676 h -0.08778 l -0.142013,-0.229794 -0.142014,-0.229784 0.229784,0.142014 0.229794,0.142022 v 0.08778 0.08778 z m 23.854564,0 h -0.06889 l 0.114563,-0.298558 0.114563,-0.298558 h 0.202115 0.202114 l -0.247779,0.298558 -0.247779,0.298558 z m -6.715962,-0.265383 -0.132692,0.132692 v -0.265383 -0.265383 l 0.132692,0.132692 0.132691,0.132691 z M 22.101981,25.204602 h -0.09952 v -0.09952 -0.09953 h 0.09952 0.09952 v 0.09953 0.09952 z M 17.126055,25.00556 h -0.09952 v -0.09952 -0.09952 h 0.09952 0.09952 v 0.09952 0.09952 z m 2.388446,0 h -0.09952 v -0.09952 -0.09952 h 0.09952 0.09952 v 0.09952 0.09952 z m 18.543613,-0.265383 -0.132691,0.132691 v -0.265382 -0.265384 l 0.132691,0.132693 0.132691,0.132691 z m 0.563931,0.06631 h -0.09952 v -0.09951 -0.09952 h 0.09952 0.09953 v 0.09952 0.09952 z m 6.44433,0 H 44.891711 V 24.630659 24.45484 l 0.409448,-0.107072 0.409447,-0.107073 -0.234773,0.282891 -0.234786,0.282901 z M 21.317578,24.606998 h -0.08778 l -0.142013,-0.229784 -0.142022,-0.229793 0.229792,0.142023 0.229785,0.142013 v 0.08778 0.08778 z m 0.628201,-0.07604 -0.09322,0.09322 -0.124104,-0.323424 -0.124104,-0.323412 0.0057,-0.133007 0.0057,-0.132997 0.211227,0.363249 0.211236,0.363238 -0.09322,0.09322 z m 16.861302,-0.123026 h -0.09952 l 0.213041,-0.398075 0.213048,-0.398074 h 0.09952 0.09952 l -0.21305,0.398074 -0.213039,0.398075 z M 17.548498,24.208887 h -0.07518 l -0.273159,-0.348307 -0.273178,-0.348317 0.348316,0.273169 0.348316,0.273159 v 0.07518 0.07518 z m 20.675473,-0.199033 h -0.09952 v -0.09952 -0.09953 h 0.09952 0.09953 v 0.09953 0.09952 z m 6.966298,0 h -0.09952 v -0.09952 -0.09953 h 0.09952 0.09952 v 0.09953 0.09952 z M 21.504873,23.611779 h -0.09952 v -0.09952 -0.09953 h 0.09952 0.09952 v 0.09953 0.09952 z m 18.125473,-0.49759 -0.328632,0.398074 0.488526,-1.003692 0.488517,-1.003683 0.336609,-1.15788 0.336599,-1.15788 -0.117015,-0.585086 -0.117015,-0.585084 0.179035,0.110651 0.179042,0.110651 0.110852,-0.25004 0.11086,-0.250031 -0.09026,0.995181 -0.09026,0.995191 0.538866,-1.144466 0.538876,-1.144465 h 0.157538 0.157527 l -0.504289,0.995191 -0.504298,0.995182 h 0.18578 0.185788 l 0.408371,-0.547349 0.408369,-0.547359 0.0067,0.15373 0.0067,0.153721 -0.818476,0.887956 -0.818484,0.887946 -0.553179,1.147728 -0.553179,1.147738 -0.328632,0.398075 z m -20.712962,0.09952 h -0.09952 v -0.09952 -0.09952 h 0.09952 0.09953 v 0.09952 0.09952 z m 0.829326,-0.265383 -0.132692,0.132691 v -0.265382 -0.265383 l 0.132692,0.132692 0.132691,0.132691 z M 41.6076,22.218524 h -0.09952 v -0.09953 -0.09952 h 0.09952 0.09952 v 0.09952 0.09953 z m 1.332724,-0.969916 -0.727126,0.671358 0.355568,-0.426451 0.355567,-0.426441 0.137787,-0.497676 0.137777,-0.497667 0.233772,0.252759 0.233773,0.25277 z m -23.202422,0.372799 h -0.07518 l -0.27316,-0.348316 -0.273168,-0.348307 0.348316,0.273159 0.348307,0.273169 v 0.07518 0.07518 z m 22.068739,0 h -0.09952 v -0.09952 -0.09952 h 0.09952 0.09952 v 0.09952 0.09952 z m 0.232208,-0.464414 -0.132692,0.132691 V 21.0243 20.758917 l 0.132692,0.132692 0.132691,0.132691 z m -2.246071,-0.530767 h -0.09952 l 0.123008,-0.199042 0.123015,-0.199033 h 0.09952 0.09952 l -0.123007,0.199033 -0.123017,0.199042 z m 2.445112,-0.06631 -0.132691,0.132692 v -0.265384 -0.265383 l 0.132691,0.132691 0.132683,0.132692 z m 2.13274,-0.530766 h -0.09952 l 0.123007,-0.199032 0.123017,-0.199041 h 0.09952 0.09952 l -0.123007,0.199041 -0.123016,0.199032 z m -7.937989,-1.194216 h -0.09952 v -0.09953 -0.09952 h 0.09952 0.09952 v 0.09952 0.09953 z m 6.34569,-0.597116 h -0.09952 l 0.123006,-0.199033 0.123018,-0.199042 h 0.09952 0.09952 l -0.123008,0.199042 -0.123007,0.199033 z M 20.509683,18.038785 h -0.09952 v -0.09953 -0.09952 h 0.09952 0.09952 v 0.09952 0.09953 z m 1.824505,-0.06631 -0.132692,0.132691 v -0.265382 -0.265383 l 0.132692,0.132692 0.132691,0.132691 z m 17.084007,0.06631 h -0.09952 v -0.09953 -0.09952 h 0.09952 0.09953 v 0.09952 0.09953 z m -0.377342,-0.25295 -0.120248,0.120258 0.01574,-0.381491 0.01574,-0.381492 0.104535,0.261242 0.104545,0.261233 -0.12025,0.12025 z M 20.111609,17.441668 h -0.09952 v -0.09951 -0.09952 h 0.09952 0.09952 v 0.09952 0.09951 z m 3.58267,0 h -0.09953 v -0.09951 -0.09952 h 0.09953 0.09952 v 0.09952 0.09951 z m 12.314784,-0.0166 -0.07404,0.08291 v -1.02836 -1.028357 h 0.211235 0.211227 l -0.137214,0.945423 -0.137215,0.945424 z m 1.441974,0.0166 h -0.07633 l -0.09602,-0.502341 -0.09603,-0.502343 0.172346,-0.10651 0.172345,-0.10652 v 0.608863 0.608851 z m 3.95753,-0.199031 h -0.09952 v -0.09953 -0.09952 h 0.09952 0.09952 v 0.09952 0.09953 z m 1.393255,0 h -0.09952 v -0.09953 -0.09952 h 0.09952 0.09952 v 0.09952 0.09953 z m -20.339781,-0.202087 -0.161028,-0.0028 -0.298549,-0.192935 -0.298558,-0.192945 0.336571,-0.0028 0.336562,-0.0028 0.123016,0.199042 0.123008,0.199032 -0.161022,-0.0028 z m 3.255775,-0.06326 -0.132691,0.132691 v -0.265384 -0.265383 l 0.132691,0.132692 0.132692,0.132691 z m 2.377865,0.06631 h -0.0769 l -0.09897,-0.646865 -0.09896,-0.646874 0.169846,-0.298559 0.169845,-0.298549 0.0057,0.945424 0.0057,0.945423 z m -4.600445,-0.199032 h -0.09952 v -0.09952 -0.09952 h 0.09952 0.09952 v 0.09952 0.09952 z m 0.796149,0 h -0.09952 v -0.09952 -0.09952 h 0.09952 0.09952 v 0.09952 0.09952 z m 14.927777,0 h -0.09952 v -0.09952 -0.09952 h 0.09952 0.09952 v 0.09952 0.09952 z m 0.597108,0 h -0.09952 v -0.09952 -0.09952 h 0.09952 0.09952 v 0.09952 0.09952 z M 22.699087,16.446497 h -0.09952 v -0.09952 -0.09952 h 0.09952 0.09953 v 0.09952 0.09952 z m 1.393255,0 h -0.09952 v -0.09952 -0.09952 h 0.09952 0.09953 v 0.09952 0.09952 z m 1.436098,-0.07604 -0.09322,0.09312 -0.124104,-0.323413 -0.124113,-0.323423 0.0057,-0.132997 0.0057,-0.132997 0.211226,0.363239 0.211226,0.363249 -0.09312,0.09312 z m -2.232237,-0.123033 h -0.09952 v -0.09952 -0.09952 h 0.09952 0.09952 v 0.09952 0.09952 z m 0.597108,-0.199033 h -0.09952 v -0.09952 -0.09952 h 0.09952 0.09952 v 0.09952 0.09952 z m 2.78652,0 h -0.09952 v -0.09952 -0.09952 h 0.09952 0.09952 v 0.09952 0.09952 z m 0.630282,-0.06631 -0.132691,0.132692 v -0.265384 -0.265383 l 0.132691,0.132692 0.132692,0.132691 z m 7.766951,-0.18245 -0.09102,0.348317 v -0.696639 -0.696624 l 0.09102,0.348317 0.09102,0.348307 z m -10.984722,-0.14928 h -0.09952 v -0.09952 -0.09953 h 0.09952 0.09953 v 0.09953 0.09952 z m 2.449531,-0.09427 -0.111423,0.111413 -0.135897,-0.356894 -0.135898,-0.356903 0.247321,0.24548 0.247322,0.24548 z m -1.454339,-0.104793 h -0.09952 v -0.09952 -0.09952 h 0.09952 0.09952 v 0.09952 0.09952 z m 2.587479,0 h -0.09952 v -0.09952 -0.09952 h 0.09952 0.09952 v 0.09952 0.09952 z m 5.009101,-0.265383 -0.132691,0.132691 V 15.053213 14.78783 l 0.132691,0.132692 0.132691,0.132691 z m -5.29767,-0.238381 -0.189052,0.116843 -0.1997,-0.373162 -0.19971,-0.373152 0.170399,-0.179768 0.170409,-0.179769 0.108418,-0.398074 0.108427,-0.398075 -0.100861,0.895665 -0.100852,0.895665 0.207734,-0.298548 0.207744,-0.298559 0.0028,0.237046 0.0028,0.237055 -0.189052,0.116833 z m 0.487611,0.105689 h -0.09953 v -0.09952 -0.09952 h 0.09953 0.09952 v 0.09952 0.09952 z m 0.995182,0 h -0.09952 v -0.27418 -0.274181 l -0.298556,-0.247779 -0.298547,-0.247779 v -0.205129 -0.205121 l 0.398064,0.458987 0.398074,0.458986 v 0.268102 0.268093 z m 2.052133,-0.365404 -0.06994,0.46493 -0.13731,-0.488899 -0.1373,-0.488908 0.0916,-0.0916 0.0916,-0.0916 0.115594,0.115593 0.115612,0.115603 z m -4.639613,0.166372 h -0.09952 v -0.09952 -0.09952 h 0.09952 0.09952 v 0.09952 0.09952 z m 10.150884,0 h -0.09952 v -0.09952 -0.09952 h 0.09952 0.09953 v 0.09952 0.09952 z m -10.748,-0.199032 h -0.09952 v -0.09953 -0.09952 h 0.09952 0.09952 v 0.09952 0.09953 z m 5.99185,-0.05391 -0.12025,0.12025 0.01574,-0.381492 0.01574,-0.381481 0.104544,0.261231 0.104535,0.261243 -0.120249,0.120249 z m -4.963484,-0.808588 -0.132692,0.132692 V 13.65996 13.394576 l 0.132692,0.132692 0.132691,0.132691 z m 3.748527,0.06631 h -0.09952 v -0.09953 -0.09952 h 0.09952 0.09952 v 0.09952 0.09953 z m -1.194223,-0.199042 h -0.09952 v -0.09952 -0.09952 h 0.09952 0.09952 v 0.09952 0.09952 z m 0.630291,-0.06631 -0.1327,0.132692 v -0.265383 -0.265383 l 0.1327,0.132691 0.132683,0.132692 z m -1.824515,-0.132691 h -0.09952 v -0.09953 -0.09952 h 0.09952 0.09953 v 0.09952 0.09953 z m 2.189405,-0.199042 h -0.09952 v -0.09952 -0.09952 h 0.09952 0.09953 v 0.09952 0.09952 z m -1.194213,-0.199033 h -0.09953 v -0.09953 -0.09952 h 0.09953 0.09952 v 0.09952 0.09953 z"
     id="path16017"
     inkscape:connector-curvature="0" />
</svg>
