<svg xmlns="http://www.w3.org/2000/svg" width="64" height="64"><circle cx="32" cy="32" r="27" fill="#ed6e6e"/><path fill="#fff" d="M38.579 16.342a9.86 9.86 0 0 1 2.018 4.88q.013.094.023.188v.014q.01.096.018.194v.033l.012.192.01.194q-.001.069.004.136v.256a9.86 9.86 0 0 1-1.795 5.682 8.9 8.9 0 0 1 .107 3.088 9 9 0 0 0 1.648-.564 9 9 0 0 0 1.135-.62q.113.384.187.782c.106.55.159 1.11.158 1.671q0 .67-.1 1.332a8.9 8.9 0 0 0 3.406-1.073 9 9 0 0 1 .14 1.572 8.8 8.8 0 0 1-.189 1.825 8.9 8.9 0 0 0 2.7-.535c.621-1.651.939-3.4.937-5.164q.01-.58-.034-1.146a14.6 14.6 0 0 0-.646-3.312 6 6 0 0 1-.516 1.045 13.2 13.2 0 0 0-1.824-4.954 13.3 13.3 0 0 0-3.628-3.855 13.3 13.3 0 0 0-3.771-1.86zm-13.43.017a17.3 17.3 0 0 0-3.803 2.35 17.15 17.15 0 0 0-5.882 9.327c-.31 1.3-.466 2.63-.465 3.966a17 17 0 0 0 2.111 8.229c.095-.83.307-1.641.631-2.41 1.047 2.512 2.708 4.726 4.83 6.443s4.642 2.883 7.331 3.394a8.8 8.8 0 0 1-1.137-1.945c1.431.46 2.921.713 4.426.75.133 0 .268.005.402.005 2.39.003 4.75-.54 6.896-1.589a9 9 0 0 1-1.026-.671 14.9 14.9 0 0 0 6.12-4.353 14.7 14.7 0 0 0 1.92-2.943 9 9 0 0 1-2.516.516 8 8 0 0 1-.553.017h-.183a8.7 8.7 0 0 0 .28-2.205q0-.498-.056-.99a8.9 8.9 0 0 1-3.565.904 8.6 8.6 0 0 0 .173-1.744q0-.947-.201-1.873a8.9 8.9 0 0 1-3.004 1.092l-.007-.01a8.6 8.6 0 0 0 .171-1.723q0-.8-.143-1.587a10 10 0 0 1-3.306 2.277c-1.247.529-2.59.8-3.945.798-1.6.003-3.178-.376-4.599-1.106a9 9 0 0 0 1.833-.964 8.9 8.9 0 0 1-3.69-3.27 8.82 8.82 0 0 1-.112-9.255q.46-.768 1.07-1.43z"/></svg>