<svg width="64" height="64" version="1.1" viewBox="0 0 16.933 16.933" xmlns="http://www.w3.org/2000/svg">
 <circle cx="8.4665" cy="8.4665" r="7.1436" fill="#d2f490" stroke-linecap="round" stroke-linejoin="round" stroke-opacity=".86" stroke-width=".53914"/>
 <path transform="scale(.26458)" d="m32.09 12c-0.86505-0.003828-1.7315 0.18278-2.3926 0.56055l-6.6387 3.793-6.6367 3.793c-0.45931 0.26249-0.88606 0.66185-1.252 1.1289l0.2832 0.16602 12.549 7.3164c1.6983 0.9908 3.1093 2.6744 3.998 4.5684 0.88858-1.8937 2.2997-3.5776 3.998-4.5684l12.549-7.3164 0.26367-0.1543c-0.33655-0.40913-0.71625-0.76235-1.127-1.002l-13.207-7.7031c-0.6577-0.38373-1.5217-0.5782-2.3867-0.58203zm17.701 11.029-0.24024 0.14062-12.541 7.3145c-2.0854 1.2166-4.0076 4.5659-4.0137 6.9883 8e-6 0.013591 0.003967 0.027436 0.003906 0.041016l-0.001953 0.67383 0.0625 13.686c0.45109-0.091052 0.8804-0.22691 1.2422-0.43359l6.6387-3.793 6.6367-3.793c1.3222-0.75553 2.4014-2.6062 2.4082-4.1289l0.035156-7.6445 0.033204-7.6445c0.00202-0.45179-0.098797-0.93245-0.26367-1.4062zm-35.564 0.011719c-0.13316 0.4168-0.21114 0.83686-0.21289 1.2344l-0.035156 7.6445-0.033204 7.6445c-0.006813 1.5229 1.0557 3.3832 2.3711 4.1504l13.207 7.7031c0.40774 0.2378 0.89855 0.39434 1.416 0.48633l0.0625-13.717-0.001953-0.67383c-6.1e-5 -0.01356 0.003898-0.027446 0.003906-0.041016-0.006074-2.4224-1.9283-5.7717-4.0137-6.9883l-12.541-7.3145-0.22266-0.12891z" fill="#96d123" stroke-width="1.3333" style="isolation:isolate"/>
</svg>
