<svg width="64" height="64" version="1.0" xmlns="http://www.w3.org/2000/svg">
 <rect x="5" y="5" width="54" height="54" rx="27" ry="27" fill="#0055d4" fill-opacity=".9098" stroke-width="1.0385"/>
 <path d="m7.7949 20c-1.7866 3.6117-2.7949 7.6832-2.7949 12s1.0084 8.3883 2.7949 12h48.41c1.7866-3.6117 2.7949-7.6832 2.7949-12s-1.0084-8.3883-2.7949-12z" fill="#000000" opacity=".25"/>
 <path d="m44.516 31.686q0 8.112-4.3323 12.235-4.2886 4.0784-11.991 4.0784h-8.7084v-32h9.6274q4.7262 0 8.1833 1.7927t5.3388 5.2885q1.8817 3.451 1.8817 8.605zm-4.1573 0.13445q0-6.409-3.107-9.3669-3.0633-3.0028-8.7084-3.0028h-5.12v25.098h4.2448q12.691 0 12.691-12.728z" fill="#ffffff" stroke-width=".14163" aria-label="D"/>
</svg>
