<svg width="64" height="64" version="1.1" xmlns="http://www.w3.org/2000/svg">
 <circle cx="32" cy="32" r="28" fill="#5294e2" stroke-linecap="round" stroke-linejoin="round"/>
 <rect x="16" y="16" width="14" height="14" rx="2" ry="2" fill="#ffffff" stroke-linecap="round" stroke-linejoin="round" stroke-width="2.8"/>
 <path d="m36 16c-1.108 0-2 0.892-2 2v10c0 1.108 0.892 2 2 2h10c1.108 0 2-0.892 2-2v-10c0-1.108-0.892-2-2-2zm0 2h10v10h-10zm0 16c-1.108 0-2 0.892-2 2v10c0 1.108 0.892 2 2 2h10c1.108 0 2-0.892 2-2v-10c0-1.108-0.892-2-2-2zm0 2h10v10h-10zm-18-2c-1.108 0-2 0.892-2 2v10c0 1.108 0.892 2 2 2h10c1.108 0 2-0.892 2-2v-10c0-1.108-0.892-2-2-2zm0 2h10v10h-10z" fill="#ffffff" stroke-linecap="round" stroke-linejoin="round" stroke-width="2.8"/>
</svg>
