<svg width="64" height="64" version="1.0" xmlns="http://www.w3.org/2000/svg">
 <rect x="5" y="5" width="54" height="54" rx="27" ry="27" fill="#d45500" fill-opacity=".9098" stroke-width="1.0385"/>
 <path d="m7.7949 20c-1.7866 3.6117-2.7949 7.6832-2.7949 12s1.0084 8.3883 2.7949 12h48.41c1.7866-3.6117 2.7949-7.6832 2.7949-12s-1.0084-8.3883-2.7949-12h-48.41z" fill="#a22200" opacity=".5"/>
 <path d="m41.849 48-3.7477-9.8633h-12.333l-3.7041 9.8633h-3.9656l12.158-32h3.5298l12.115 32zm-8.4105-23.074q-0.13073-0.35704-0.43578-1.2943-0.30505-0.93724-0.61009-1.9191-0.26147-1.0265-0.43578-1.5621-0.30505 1.3835-0.69725 2.7225-0.3922 1.2943-0.65367 2.053l-3.5298 9.6402h9.8486z" fill="#ffffff" stroke-width=".14104" aria-label="A"/>
</svg>
