<svg xmlns="http://www.w3.org/2000/svg" width="64" height="64" version="1.0"><rect width="54" height="54" x="5" y="5" fill="#d45500" fill-opacity=".91" rx="27" ry="27"/><path fill="#a22200" d="M7.795 20C6.008 23.612 5 27.683 5 32s1.008 8.388 2.795 12h48.41C57.99 40.388 59 36.317 59 32s-1.009-8.388-2.795-12z" opacity=".5"/><path fill="#fff" d="m41.849 48-3.748-9.863H25.768L22.064 48H18.1l12.158-32h3.53L45.9 48zm-8.41-23.074q-.131-.357-.436-1.294t-.61-1.92q-.262-1.026-.436-1.562-.305 1.384-.697 2.723-.393 1.294-.654 2.053l-3.53 9.64h9.849z" aria-label="A"/></svg>