<svg xmlns="http://www.w3.org/2000/svg" width="64" height="64" version="1.0"><rect width="54" height="54" x="5" y="5" fill="#0055d4" fill-opacity=".91" rx="27" ry="27"/><path d="M7.795 20C6.008 23.612 5 27.683 5 32s1.008 8.388 2.795 12h48.41C57.99 40.388 59 36.317 59 32s-1.009-8.388-2.795-12z" opacity=".25"/><path fill="#fff" d="M44.516 31.686q0 8.112-4.332 12.235-4.289 4.078-11.991 4.078h-8.709V16h9.628q4.726 0 8.183 1.793t5.339 5.289q1.882 3.45 1.882 8.605zm-4.157.134q0-6.409-3.107-9.366-3.064-3.003-8.709-3.003h-5.12v25.098h4.245q12.691 0 12.691-12.728z" aria-label="D"/></svg>