<svg width="64" height="64" xmlns="http://www.w3.org/2000/svg"><path d="M32 5A27 27 0 0 0 8.338 19h47.293A27 27 0 0 0 32 5z" fill="#7bd57d" style="paint-order:stroke fill markers"/><circle cx="32" cy="32" r="23" fill="#ffd351" style="paint-order:stroke fill markers"/><circle cx="32" cy="32" r="19" fill="#707ed0" style="paint-order:stroke fill markers"/><path d="M8.338 19A27 27 0 0 0 5 32a27 27 0 0 0 27 27 27 27 0 0 0 27-27 27 27 0 0 0-3.37-13H8.339z" fill="#c49a6c" style="paint-order:stroke fill markers"/><path d="M32 33a2 2 0 0 0-2 2v6a2 2 0 0 0 2 2 2 2 0 0 0 2-2v-6a2 2 0 0 0-2-2zm0 7a1 1 0 0 1 1 1 1 1 0 0 1-1 1 1 1 0 0 1-1-1 1 1 0 0 1 1-1z" fill="#fff"/><path d="M32 21h2v2h-2z" fill="#f0f0f0"/><path d="M30 23h2v2h-2z" fill="#e0e0e0"/><path d="M32 25h2v2h-2z" fill="#f0f0f0"/><path d="M30 27h2v2h-2z" fill="#e0e0e0"/><path d="M32 29h2v2h-2z" fill="#f0f0f0"/><path d="M30 31h2v2h-2z" fill="#e0e0e0"/><path d="M42 40c-.554 0-1 .446-1 1v4c0 .554.446 1 1 1h11c.554 0 1-.446 1-1v-4c0-.554-.446-1-1-1zm0 .998h2v4h-2zM45 41h1v4h-1zm2 0h1v4h-1zm2 0h2v4h-2zm3 0h1v4h-1zm-37-4-2 3h1v4h2v-4h1zm2 3h1v4h2v-4h1l-2-3zm-5 5v1h10v-1z" fill="#a97b50"/></svg>