<svg width="64" height="64" version="1.1" viewBox="0 0 64 64" xmlns="http://www.w3.org/2000/svg">
 <g transform="matrix(.26458 0 0 .26458 64.934 107.95)">
  <circle cx="-124.47" cy="-287.04" r="102.05" fill="#f2f2f2" fill-rule="evenodd" stop-color="#000000" stroke-linecap="round" stroke-linejoin="round" stroke-width="7.817" style="paint-order:stroke fill markers"/>
  <path d="m-48.884-355.54c-17.426 5.6019-34.925 13-52.227 22.389-44.887 24.359-82.873 58.698-111.29 97.852 3.8481 6.3367 8.2077 12.427 13.334 17.783 26.22-37.325 62.372-70.607 105.72-94.132 19.502-10.583 39.155-18.454 58.538-23.851-3.8728-7.2203-8.599-13.949-14.077-20.042z" color="#000000" fill="#fe6230" stroke-width="4.0746"/>
  <path d="m-41.186-345.76c-18.703 5.4815-37.543 13.234-56.135 23.324-44.113 23.939-81.205 58.114-108.44 96.972 4.3591 5.8297 9.3594 11.077 14.853 15.853 24.864-36.305 59.409-68.536 101.36-91.302 19.96-10.832 40.08-18.663 59.861-23.746-2.9902-7.4606-6.8485-14.543-11.495-21.102-0.0023 6.7e-4 -0.0051-6.8e-4 -0.0074 0z" color="#000000" fill="#fef600" stroke-width="4.0788"/>
  <path d="m-34.69-335.3c-19.521 5.2104-39.238 12.973-58.673 23.519-43.092 23.385-78.908 56.998-104.8 95.325 5.0328 5.036 10.451 9.6024 16.418 13.486 23.366-34.725 56.139-65.61 96.141-87.318 19.898-10.798 39.97-18.423 59.634-23.135-2.0542-7.604-4.9803-14.945-8.72-21.878z" color="#000000" fill="#00bb00" stroke-width="4.073"/>
  <path d="m-29.583-324.46c-19.923 4.8629-40.117 12.614-59.984 23.395-41.402 22.468-75.798 55.057-100.27 92.101a102.35 102.35 26.366 0 0 17.421 12.127c21.882-32.892 52.792-62.181 90.628-82.713 19.433-10.545 39.027-17.842 58.185-22.189a102.35 102.35 26.366 0 0-5.9747-22.722z" color="#000000" fill="#009bfe" stroke-width="4.0771"/>
  <path d="m-156.8-350.38-33.355 29.234 1.1242 26.795 78.517 70.644 50.596-46.843 1.1215-29.234-98.002-50.596z" color="#000000" fill="#484848" fill-rule="evenodd" stroke="#4d4d4d" stroke-linecap="round" stroke-linejoin="round" stroke-miterlimit="10" stroke-width="8.728"/>
  <path d="m-190.53-320.53 1.0766 25.839 78.595 69.927 4.5e-4 -27.937-79.673-67.83z" color="#000000" fill="#a6a6a6" fill-rule="evenodd" stroke-width="4.0884"/>
  <path d="m-110.86-252.7v27.937l50.605-46.24 0.69853-28.162z" color="#000000" fill="#7f7f7f" fill-rule="evenodd" stroke-width="4.0884"/>
  <path d="m-190.53-320.48 79.672 67.782 51.303-46.465-97.595-51.511-33.378 30.194z" color="#000000" fill="#f2f2f2" fill-rule="evenodd" stroke-width="4.0884"/>
  <path d="m-185.45-325.07 12.685 8.8527s2.9606 1.0779 4.3064 0c1.3441-1.0779 1.0779-4.3072 1.0779-4.3072l-12.013-10.054z" color="#000000" fill="#ffc11a" fill-rule="evenodd" stroke-width="4.0884"/>
  <path d="m-175.98-333.64 12.901 8.81s2.9588 1.0779 4.3029 0c1.3485-1.0736 1.0779-4.3073 1.0779-4.3073l-12.439-9.7883z" color="#000000" fill="#ffc11a" fill-rule="evenodd" stroke-width="4.0884"/>
  <path d="m-166.59-342.13 12.668 9.226s2.9588 1.0779 4.3073 0c1.3441-1.0766 1.0735-4.3068 1.0735-4.3068l-12.444-9.9896z" color="#000000" fill="#ffc11a" fill-rule="evenodd" stroke-width="4.0884"/>
  <path d="m-76.499-263.45a10.91 10.91 0 0 0-8.5556 6.7692 10.91 10.91 0 0 0 6.1122 14.166s19.044 8.2057 30.701 22.323a102.05 102.05 0 0 0 13.125-18.189c-15.868-17-35.773-24.419-35.773-24.419a10.91 10.91 0 0 0-5.6102-0.64961z" color="#000000" fill="#4d4d4d" stroke-linecap="round" stroke-linejoin="bevel" stroke-miterlimit="10"/>
  <path d="m-143.16-306.53 65.674 49.527c7.5366 4.844 14.807-0.80734 19.38-6.4587 4.5778-5.6514 3.7705-12.381-1.0779-16.151l-69.981-37.683z" color="#000000" fill="#a0a0a1" fill-rule="evenodd" stroke-width="4.0884"/>
  <path d="m-145.85-306.53 67.293 40.917c3.7661 2.6882 11.839-0.54114 15.073-4.3073 3.2294-3.7705 0.5368-9.1513-2.1558-10.766l-64.059-38.224z" color="#000000" fill="#f2f2f2" fill-rule="evenodd" stroke-width="4.0884"/>
 </g>
</svg>
