<svg width="64" height="64" version="1.1" xmlns="http://www.w3.org/2000/svg">
 <circle cx="32" cy="32" r="27" fill="#cacbcf" style="paint-order:stroke fill markers"/>
 <g transform="translate(-2,2)">
  <path d="m53 13a2 2 0 1 1-4 0 2 2 0 0 1 4 0z" fill="#85858a"/>
  <path d="m52 13a1 1 0 1 0-2 0 1 1 0 0 0 2 0z" fill="#fff"/>
 </g>
 <g transform="translate(0,4)">
  <path d="m17 11a2 2 0 1 1-4 0 2 2 0 0 1 4 0z" fill="#85858a"/>
  <path d="m16 11a1 1 0 1 0-2 0 1 1 0 0 0 2 0z" fill="#fff"/>
 </g>
 <path d="M48 27.122C48 35.837 40.837 43 32 43s-16-7.163-16-15.878C16 18.164 23.163 11 32 11s16 7.164 16 16.122" fill="#49494c" fill-rule="evenodd"/>
 <path d="M32 10c-9.388 0-17 7.61-17 17 0 9.388 7.612 17 17 17s17-7.612 17-17c0-9.39-7.612-17-17-17zm10.417 27.418a14.714 14.714 0 0 1-4.683 3.159A14.646 14.646 0 0 1 32 41.732c-1.99 0-3.92-.388-5.734-1.155a14.714 14.714 0 0 1-4.683-3.16A14.67 14.67 0 0 1 17.266 27a14.676 14.676 0 0 1 4.316-10.417 14.658 14.658 0 0 1 4.684-3.16A14.632 14.632 0 0 1 32 12.268c1.99 0 3.92.39 5.734 1.157a14.655 14.655 0 0 1 4.683 3.158A14.676 14.676 0 0 1 46.734 27a14.673 14.673 0 0 1-4.316 10.418z" fill="gray"/>
 <g transform="matrix(-1,0,0,1,44,46)" fill="#949496" fill-rule="evenodd">
  <rect width="1" height="7" rx=".5"/>
  <rect x="2" width="1" height="7" rx=".5"/>
  <rect x="4" width="1" height="7" rx=".5"/>
  <rect x="6" width="1" height="7" rx=".5"/>
  <rect x="8" width="1" height="7" rx=".5"/>
 </g>
 <g transform="translate(-3,-2)">
  <path d="m53 51a2 2 0 1 1-4 0 2 2 0 0 1 4 0z" fill="#85858a"/>
  <path d="m52 51a1 1 0 1 0-2 0 1 1 0 0 0 2 0z" fill="#fff"/>
 </g>
 <circle cx="32" cy="27" r="12" fill="#ff964a" paint-order="markers stroke fill"/>
 <path d="m23.515 18.515a12 12 0 0 0 0 16.97 12 12 0 0 0 16.97 0z" fill="#6fbb55" paint-order="markers stroke fill"/>
 <path d="m32 15a12 12 0 0 0-12 12 12 12 0 0 0 12 12z" fill="#4babbe" paint-order="markers stroke fill"/>
 <circle cx="32" cy="27" r="2" fill="#fff" paint-order="markers stroke fill"/>
 <path d="m11 34c-2.216 0-4 1.784-4 4v4.0391c2.744 6.8146 8.1463 12.217 14.961 14.961h4.0391c2.216 0 4-1.784 4-4v-7.1055c-7.1464-0.74767-13.109-5.4589-15.662-11.895z" fill="#000000" opacity=".15" stop-color="#000000" stroke-linecap="round" stroke-linejoin="round" stroke-width="2" style="paint-order:stroke fill markers"/>
 <g transform="translate(0,-4)">
  <path d="m17 53a2 2 0 1 1-4 0 2 2 0 0 1 4 0z" fill="#6a6a6a"/>
  <path d="m16 53a1 1 0 1 0-2 0 1 1 0 0 0 2 0z" fill="#fff"/>
 </g>
</svg>
