<svg width="64" height="64" xmlns="http://www.w3.org/2000/svg"><circle cx="32" cy="32" r="27" fill="#cacbcf" style="paint-order:stroke fill markers"/><path d="M51 15a2 2 0 1 1-4 0 2 2 0 0 1 4 0z" fill="#85858a"/><path d="M50 15a1 1 0 1 0-2 0 1 1 0 0 0 2 0z" fill="#fff"/><path d="M17 15a2 2 0 1 1-4 0 2 2 0 0 1 4 0z" fill="#85858a"/><path d="M16 15a1 1 0 1 0-2 0 1 1 0 0 0 2 0z" fill="#fff"/><path d="M48 27.122C48 35.837 40.837 43 32 43s-16-7.163-16-15.878C16 18.164 23.163 11 32 11s16 7.164 16 16.122" fill="#49494c" fill-rule="evenodd"/><path d="M32 10c-9.388 0-17 7.61-17 17 0 9.388 7.612 17 17 17s17-7.612 17-17c0-9.39-7.612-17-17-17zm10.417 27.418a14.714 14.714 0 0 1-4.683 3.159A14.646 14.646 0 0 1 32 41.732c-1.99 0-3.92-.388-5.734-1.155a14.714 14.714 0 0 1-4.683-3.16A14.67 14.67 0 0 1 17.266 27a14.676 14.676 0 0 1 4.316-10.417 14.658 14.658 0 0 1 4.684-3.16A14.632 14.632 0 0 1 32 12.268c1.99 0 3.92.39 5.734 1.157a14.655 14.655 0 0 1 4.683 3.158A14.676 14.676 0 0 1 46.734 27a14.673 14.673 0 0 1-4.316 10.418z" fill="gray"/><g transform="matrix(-1 0 0 1 44 46)" fill="#949496" fill-rule="evenodd"><rect width="1" height="7" rx=".5"/><rect x="2" width="1" height="7" rx=".5"/><rect x="4" width="1" height="7" rx=".5"/><rect x="6" width="1" height="7" rx=".5"/><rect x="8" width="1" height="7" rx=".5"/></g><path d="M50 49a2 2 0 1 1-4 0 2 2 0 0 1 4 0z" fill="#85858a"/><path d="M49 49a1 1 0 1 0-2 0 1 1 0 0 0 2 0z" fill="#fff"/><circle cx="32" cy="27" r="12" fill="#ff964a" paint-order="markers stroke fill"/><path d="M23.515 18.515a12 12 0 0 0 0 16.97 12 12 0 0 0 16.97 0z" fill="#6fbb55" paint-order="markers stroke fill"/><path d="M32 15a12 12 0 0 0-12 12 12 12 0 0 0 12 12z" fill="#4babbe" paint-order="markers stroke fill"/><circle cx="32" cy="27" r="2" fill="#fff" paint-order="markers stroke fill"/><path d="M11 34c-2.216 0-4 1.784-4 4v4.04A27 27 0 0 0 21.961 57h4.04c2.215 0 4-1.784 4-4v-7.105c-7.147-.748-13.11-5.46-15.663-11.895z" opacity=".15" style="paint-order:stroke fill markers"/><path d="M17 49a2 2 0 1 1-4 0 2 2 0 0 1 4 0z" fill="#6a6a6a"/><path d="M16 49a1 1 0 1 0-2 0 1 1 0 0 0 2 0z" fill="#fff"/></svg>