<svg width="64" height="64" xmlns="http://www.w3.org/2000/svg"><defs><filter id="a" x="-.098" y="-.121" width="1.195" height="1.242" color-interpolation-filters="sRGB"><feGaussianBlur stdDeviation=".416"/></filter></defs><rect x="5" y="5" width="54" height="54" rx="27" ry="27" fill="#f0f0f0"/><path d="M26.178 26.136c-.401 7.191-6.89 11.752-10.852 11.752a3.111 3.111 0 1 0 0 6.222c8.081 0 16.691-7.266 17.075-17.934a6.222 6.222 0 0 1-3.075.824 6.222 6.222 0 0 1-3.147-.863z" fill="#97c33d"/><path d="M23.744 32.827c-1.338 1.826-3.06 3.21-4.767 4.065 1.532 1.772 3.353 3.216 5.414 4.199a18.64 18.64 0 0 0 4.819-4.943c-2.03-.423-3.927-1.593-5.466-3.321z" filter="url(#a)" opacity=".1"/><path d="M18.539 22.601a4.667 4.667 0 0 1-3.214 1.288 4.667 4.667 0 0 1-2.984-1.078C13.17 32.68 19.991 41 29.325 41a3.111 3.111 0 1 0 0-6.223c-5.258 0-10.064-5.145-10.786-12.177z" fill="#3f96b9"/><path d="M15.325 16.111a3.111 3.111 0 0 0-3.111 3.111 3.111 3.111 0 0 0 3.111 3.111 3.111 3.111 0 0 0 3.111-3.11 3.111 3.111 0 0 0-3.111-3.112zm0 1.556a1.556 1.556 0 0 1 1.556 1.555 1.556 1.556 0 0 1-1.556 1.556 1.556 1.556 0 0 1-1.556-1.556 1.556 1.556 0 0 1 1.556-1.555z" fill="#196260" style="paint-order:normal"/><path d="M29.325 16.111a4.667 4.667 0 0 0-4.667 4.667 4.667 4.667 0 0 0 4.667 4.666 4.667 4.667 0 0 0 4.667-4.666 4.667 4.667 0 0 0-4.667-4.667zm0 1.556a3.111 3.111 0 0 1 3.111 3.11 3.111 3.111 0 0 1-3.111 3.112 3.111 3.111 0 0 1-3.111-3.111 3.111 3.111 0 0 1 3.111-3.111zm0 1.555a1.556 1.556 0 0 0-1.556 1.556 1.556 1.556 0 0 0 1.556 1.555 1.556 1.556 0 0 0 1.556-1.555 1.556 1.556 0 0 0-1.556-1.556z" fill="#3f96b9" style="paint-order:normal"/><path d="M34.734 17.666c.531.933.812 2.037.814 3.111a6.222 6.222 0 0 1-.878 3.172c4.962.673 10.211 6.161 10.211 9.273a3.111 3.111 0 1 0 6.222 0c0-7.778-9.333-15.556-16.369-15.556z" fill="#5d7dbd"/><path d="M49.547 22.333c-7.428 0-14.35 7.778-15.313 14.55a7.778 7.778 0 0 1 2.868-.55 7.78 7.78 0 0 1 3.433.808c.297-3.919 5.9-8.586 9.011-8.586a3.111 3.111 0 1 0 0-6.222z" fill="#196260"/><path d="M37.103 37.888a6.222 6.222 0 0 0-6.222 6.222 6.222 6.222 0 0 0 6.222 6.222 6.222 6.222 0 0 0 6.222-6.222 6.222 6.222 0 0 0-6.222-6.222zm0 1.556a4.667 4.667 0 0 1 4.667 4.666 4.667 4.667 0 0 1-4.667 4.667 4.667 4.667 0 0 1-4.667-4.667 4.667 4.667 0 0 1 4.667-4.666zm0 1.555a3.111 3.111 0 0 0-3.111 3.111 3.111 3.111 0 0 0 3.111 3.111 3.111 3.111 0 0 0 3.111-3.11 3.111 3.111 0 0 0-3.111-3.112zm0 1.556a1.556 1.556 0 0 1 1.556 1.555 1.556 1.556 0 0 1-1.556 1.556 1.556 1.556 0 0 1-1.556-1.556 1.556 1.556 0 0 1 1.556-1.555z" fill="#5d7dbd"/></svg>