<svg xmlns="http://www.w3.org/2000/svg" width="64" height="64"><title>bisq_logo_green</title><circle cx="32" cy="32" r="27" fill="#f9f9f9"/><path fill="#25b135" d="M46.124 20.921c1.424 3.097 1.727 3.736 2.819 6.885.627 1.979-.63 4.909-5.807 2.418-3.688-1.758-6.356-3.003-4.158-5.933a28 28 0 0 1 3.62-3.955c1.424-1.244 2.306-2.027 3.526.585m-1.228 19.834c2.712-2.667 6.48.317 3.848 3.897-5.303 7.249-14.56 10.14-22.856 7.227C17.593 48.966 11.998 41.002 12 31.89c-.02-5.459 1.79-10.013 5.25-14.116 3.33-3.726 8.287-6.712 13.176-6.776 6.873 0 9.944 6.012 7.523 9.365-2.705 3.728-5.85 3.425-8.189 1.826 0 0-3.218-2.283-4.168-3.044-1.463-1.14-3.072-1.14-3.657.686-1.022 3.271-1.534 5.326-2.338 8.597a23.5 23.5 0 0 0-.585 5.022c.017 3.113 1.388 6.051 3.73 7.99a39 39 0 0 0 5.19 4.108 9.14 9.14 0 0 0 4.973 1.599h.146a9.14 9.14 0 0 0 4.973-1.599 62.5 62.5 0 0 0 6.873-4.794zm-19.335-3.77c-.975-.357-3.183-2.284-2.534-3.713.26-.786 2.145-1 2.728-1 3.446-.07 3.575 6.071-.194 4.713m6.06 6.543c-.44-.394-1.247-1.183-1.981-1.841a.66.66 0 0 1-.1-.784c.143-.256.44-.413.759-.4a38 38 0 0 1 3.887 0c.3.022.56.196.67.448a.65.65 0 0 1-.156.736 36 36 0 0 0-1.907 1.841.9.9 0 0 1-.586.198.9.9 0 0 1-.586-.198zm7.727-6.543c-3.768 1.358-3.64-4.783-.194-4.712.584 0 2.404.213 2.729.999.649 1.429-1.56 3.356-2.535 3.713"/></svg>