<svg width="64" height="64" xmlns="http://www.w3.org/2000/svg"><circle cx="32" cy="32" r="27" fill="#3f3f3f"/><path d="M32 5a27 27 0 0 0-12 2.867v48.266A27 27 0 0 0 32 59a27 27 0 0 0 27-27A27 27 0 0 0 32 5z" fill="#fff" opacity=".1"/><path d="M22.551 16.572A1.516 1.523 0 0 0 21 18.094v27.813a1.516 1.523 0 0 0 2.272 1.319l11.984-6.952 11.986-6.954a1.516 1.523 0 0 0 0-2.639L35.256 23.73l-11.984-6.953a1.516 1.523 0 0 0-.721-.204z" fill="#ffa119"/><rect x="24.286" y="11.75" width="5.786" height="5.786" rx="1.446" ry="1.446" fill="#313131"/><rect x="24.286" y="29.107" width="5.786" height="5.786" rx="1.446" ry="1.446" fill="#313131"/><rect x="24.286" y="37.786" width="5.786" height="5.786" rx="1.446" ry="1.446" fill="#313131"/><rect x="24.286" y="46.464" width="5.786" height="5.786" rx="1.446" ry="1.446" fill="#313131"/><rect x="24.286" y="20.429" width="5.786" height="5.786" rx="1.446" ry="1.446" fill="#313131"/></svg>