<svg width="64" height="64" version="1.1" viewBox="0 0 16.933 16.933" xmlns="http://www.w3.org/2000/svg" xmlns:xlink="http://www.w3.org/1999/xlink">
 <circle cx="8.4665" cy="8.4665" r="7.1436" fill="#ececec" style="paint-order:stroke fill markers"/>
 <g transform="matrix(.73182 0 0 .73182 2.27 2.0069)" stroke-width=".92327">
  <path d="m7.9019 1.597a0.94543 0.94543 0 0 0-0.67122 0.2779 0.94635 0.94635 0 0 0 0 1.3415l2.635 2.635h-6.8691a0.94635 0.94635 0 0 0-0.9482 0.9482 0.94635 0.94635 0 0 0 0.9482 0.9482c0.9879-0.00277 2.3885-0.00277 3.73-0.00277l-4.8601 4.8592a0.94635 0.94635 0 0 0 0 1.3406 0.94635 0.94635 0 0 0 1.3406 0c0.71369-0.71646 1.7357-1.7385 2.7052-2.708a4.7419 4.7419 0 0 0 4.6921 4.0975c2.6184 0 4.7419-2.1235 4.7419-4.7419a4.7419 4.7419 0 0 0-1.625-3.5694 2368.1 2368.1 0 0 1-5.1491-5.1482 0.94543 0.94543 0 0 0-0.67029-0.27883zm2.7578 7.8672a1.107 1.107 0 1 1 0 2.214 1.107 1.107 0 0 1 0-2.214z" fill="#ff892c"/>
  <path d="m10.656 6.9317a3.6432 3.6432 0 0 0-3.6432 3.6432 3.6432 3.6432 0 0 0 3.6432 3.6432 3.6432 3.6432 0 0 0 3.6423-3.6432 3.6432 3.6432 0 0 0-3.6423-3.6432zm0 2.2186a1.4246 1.4246 0 0 1 1.4246 1.4246 1.4246 1.4246 0 0 1-1.4246 1.4246 1.4246 1.4246 0 0 1-1.4255-1.4246 1.4246 1.4246 0 0 1 1.4255-1.4246z" fill="#fff" fill-opacity=".099"/>
  <path d="m10.656 7.7266a2.8455 2.8455 0 0 0-2.8455 2.8446 2.8455 2.8455 0 0 0 2.8455 2.8455 2.8455 2.8455 0 0 0 2.8446-2.8455 2.8455 2.8455 0 0 0-2.8446-2.8446zm0 1.7321a1.1125 1.1125 0 0 1 1.1125 1.1125 1.1125 1.1125 0 0 1-1.1125 1.1125 1.1125 1.1125 0 0 1-1.1135-1.1125 1.1125 1.1125 0 0 1 1.1135-1.1125z" fill="#fff"/>
  <circle cx="10.656" cy="10.575" r="1.456" color="#000000" display="block" fill="#2e57b1" overflow="visible" style="isolation:auto;mix-blend-mode:normal;paint-order:fill markers stroke"/>
 </g>
</svg>
