<?xml version="1.0" encoding="UTF-8" standalone="no"?>
<svg
   width="64"
   height="64"
   version="1.1"
   id="svg6"
   sodipodi:docname="blockbench.svg"
   inkscape:version="1.1.1 (3bf5ae0d25, 2021-09-20)"
   xmlns:inkscape="http://www.inkscape.org/namespaces/inkscape"
   xmlns:sodipodi="http://sodipodi.sourceforge.net/DTD/sodipodi-0.dtd"
   xmlns="http://www.w3.org/2000/svg"
   xmlns:svg="http://www.w3.org/2000/svg">
  <defs
     id="defs10" />
  <sodipodi:namedview
     id="namedview8"
     pagecolor="#ffffff"
     bordercolor="#666666"
     borderopacity="1.0"
     inkscape:pageshadow="2"
     inkscape:pageopacity="0.0"
     inkscape:pagecheckerboard="0"
     showgrid="false"
     inkscape:zoom="6.34375"
     inkscape:cx="12.216749"
     inkscape:cy="44.926108"
     inkscape:window-width="1920"
     inkscape:window-height="1000"
     inkscape:window-x="0"
     inkscape:window-y="44"
     inkscape:window-maximized="1"
     inkscape:current-layer="svg6" />
  <circle
     cx="32"
     cy="32"
     r="27"
     fill="#4db6ac"
     style="paint-order:stroke fill markers;fill:#212e3c;fill-opacity:1"
     id="circle2" />
  <path
     style="fill:#ffffff;fill-opacity:1;stroke-width:0.0979156"
     d="m 32.879655,45.953717 c -0.200712,-0.162526 -0.207781,-0.206026 -0.09944,-0.611971 0.123491,-0.462718 1.373228,-4.028247 1.438805,-4.104938 0.0212,-0.02479 0.334033,0.03066 0.695195,0.123216 0.361163,0.09256 0.76139,0.167913 0.889394,0.167461 0.252653,-8.82e-4 1.080112,-0.431772 2.878405,-1.498861 0.634058,-0.376246 1.181999,-0.654913 1.217648,-0.619264 0.03565,0.03565 -0.10453,0.837118 -0.311508,1.781044 -0.287033,1.309007 -0.426613,1.76463 -0.58826,1.920209 -0.506504,0.487495 -5.313904,3.012276 -5.74366,3.016492 -0.08828,8.82e-4 -0.257736,-0.07716 -0.376576,-0.173388 z M 17.275886,40.662194 c -0.08912,-0.09849 -0.161754,-0.241686 -0.161393,-0.318225 6.07e-4,-0.129492 1.38622,-3.162614 1.624101,-3.555183 0.100882,-0.166481 0.219692,-0.147035 2.056221,0.336546 1.072035,0.282281 1.984149,0.544019 2.026921,0.581642 0.117999,0.103791 -0.310139,1.159066 -0.602932,1.486109 -0.216654,0.241995 -0.60449,0.39727 -2.412296,0.965776 -1.184774,0.372582 -2.202385,0.67854 -2.261354,0.679909 -0.05898,0.0013 -0.180141,-0.07809 -0.269268,-0.176574 z m 17.658536,-0.366199 c -0.559308,-0.178345 -7.490278,-2.174187 -15.792664,-4.547656 -3.542963,-1.012855 -6.550187,-1.912604 -6.68272,-1.999442 -0.308251,-0.201975 -0.318493,-0.588662 -0.02065,-0.779876 0.318236,-0.204311 8.455335,-1.358288 9.22131,-1.307737 0.682808,0.04506 23.459007,3.392083 23.576351,3.464605 0.121526,0.07512 0.09049,0.491059 -0.04499,0.603027 -0.333414,0.275541 -9.354379,4.719806 -9.568735,4.714128 -0.136002,-0.0035 -0.445552,-0.06977 -0.687894,-0.147049 z m 4.210358,-7.340657 c -3.796666,-0.503672 -8.775658,-1.160207 -11.064429,-1.458968 -5.6443,-0.736768 -5.581171,-0.723488 -5.581171,-1.174095 0,-0.117644 0.216312,-1.158719 0.480694,-2.3135 0.264382,-1.154781 0.688336,-3.068964 0.942122,-4.253738 0.472857,-2.207492 0.606959,-2.619656 0.903685,-2.77745 0.279428,-0.148597 23.80219,-1.734921 23.988025,-1.6177 0.08716,0.05498 0.201587,0.168311 0.254278,0.251846 0.09645,0.152904 0.06727,0.3139 -1.85918,10.258403 -0.401161,2.070824 -0.776815,3.822284 -0.834784,3.892133 -0.05798,0.06985 -0.155083,0.122913 -0.215805,0.117918 -0.06072,-0.005 -3.216769,-0.421177 -7.013435,-0.924849 z"
     id="path1009" />
</svg>
