<svg width="64" height="64" version="1.1" xmlns="http://www.w3.org/2000/svg">
 <circle cx="32" cy="32" r="27" fill="#dd5563" style="paint-order:stroke fill markers"/>
 <text x="451.004" y="-477.09299" font-family="'Droid Sans'" font-size="16.466px"/>
 <path d="m32.001 15.997a16 16 0 0 0-2.6667 0.22655v22.441c0 0.73867-0.59467 1.3333-1.3333 1.3333h-1.3333c-0.73867 0-1.3333-0.59466-1.3333-1.3333v-21.191a16 16 0 0 0-9.3334 14.524 16 16 0 0 0 16 16 16 16 0 0 0 16-16 16 16 0 0 0-16-16m-0.66145 7.9999a0.66673 0.72734 0 0 1 0.31771 0.09126l12 7.2734a0.66673 0.72734 0 0 1 0 1.2708l-12 7.2734a0.66673 0.72734 0 0 1-0.98959-0.6354v-14.547a0.66673 0.72734 0 0 1 0.67188-0.72656" fill="#fff" stroke-linejoin="round" stroke-width="4"/>
</svg>
