<?xml version="1.0" encoding="UTF-8" standalone="no"?>
<svg
   width="64"
   height="64"
   version="1.1"
   id="svg2"
   sodipodi:docname="qemu-launcher.svg"
   inkscape:version="1.3.2 (091e20ef0f, 2023-11-25)"
   xmlns:inkscape="http://www.inkscape.org/namespaces/inkscape"
   xmlns:sodipodi="http://sodipodi.sourceforge.net/DTD/sodipodi-0.dtd"
   xmlns="http://www.w3.org/2000/svg"
   xmlns:svg="http://www.w3.org/2000/svg">
  <defs
     id="defs2" />
  <sodipodi:namedview
     id="namedview2"
     pagecolor="#505050"
     bordercolor="#eeeeee"
     borderopacity="1"
     inkscape:showpageshadow="0"
     inkscape:pageopacity="0"
     inkscape:pagecheckerboard="0"
     inkscape:deskcolor="#505050"
     inkscape:zoom="9.0302665"
     inkscape:cx="27.518568"
     inkscape:cy="30.397774"
     inkscape:window-width="1536"
     inkscape:window-height="807"
     inkscape:window-x="0"
     inkscape:window-y="0"
     inkscape:window-maximized="1"
     inkscape:current-layer="svg2" />
  <path
     fill="#383838"
     d="M32 5c14.912 0 27 12.088 27 27S46.911 59 32 59 5 46.911 5 32 17.088 5 32 5"
     id="path1"
     style="fill:#f5ab42;fill-opacity:1" />
  <path
     style="fill:#eb5a46;fill-opacity:1;stroke:none;stroke-width:1.155"
     d="m 27.866443,43.091716 4.114013,-1.860401 3.885644,2.262619 0.0085,4.552095 -1.733189,2.692016 -3.242996,0.140077 -2.649397,-2.035537 z"
     id="path2" />
  <path
     style="fill:#24120d;stroke:none;stroke-width:0.104635"
     d="m 19.130209,42.066417 h 0.209271 c 0.672564,1.748481 2.680245,3.576729 4.290036,4.466606 0.484398,0.267763 2.658946,1.301192 2.355497,-0.175041 -0.14395,-0.700254 -1.29975,-0.964333 -1.832325,-1.302767 -1.186965,-0.75429 -2.191293,-1.861235 -3.018185,-2.988798 -0.333032,-0.454135 -1.005601,-1.184117 -0.99298,-1.778796 0.01645,-0.776522 0.543861,-1.343318 0.422168,-2.197339 -0.3943,-2.767244 -1.095626,-5.321249 -0.900938,-8.161523 0.07902,-1.152928 0.712922,-2.242912 0.781933,-3.34832 0.02347,-0.376345 -0.210157,-0.71722 -0.583562,-0.802205 -1.19612,-0.272216 -1.447571,2.117185 -1.576388,2.894903 -0.3483,2.102764 -0.258027,4.281513 0.07018,6.382734 0.16632,1.064888 0.825518,2.612236 0.628376,3.662224 -0.185657,0.988805 -0.917628,2.422767 -1.495726,3.241669 -0.25585,0.36242 -0.65209,0.627132 -1.073726,0.356938 -1.199571,-0.768725 -2.122552,-2.640921 -2.89902,-3.807877 -1.265079,-1.90129 -2.486883,-4.352981 -2.439863,-6.696637 0.02934,-1.462314 0.874631,-2.994415 1.486201,-4.290034 1.598181,-3.385762 3.500583,-6.769774 6.569077,-9.053188 1.284379,-0.955767 2.559826,-1.080434 3.976133,-1.619015 2.407535,-0.915522 4.348899,-2.135083 7.010539,-2.389407 4.189618,-0.400322 7.365686,1.155794 10.986671,2.942539 0.978397,0.482779 2.204223,0.284458 3.243684,0.818021 3.198406,1.641763 5.043484,4.916463 6.510384,8.045432 0.714921,1.524961 1.646952,3.424893 1.74602,5.127111 0.149219,2.564213 -1.450051,5.243993 -2.755148,7.324448 -0.598169,0.953533 -1.626241,2.939237 -2.680229,3.40984 -0.429334,0.191693 -0.777287,-0.134727 -0.986843,-0.481997 -0.531866,-0.881416 -1.301687,-2.223259 -1.475307,-3.241744 -0.174765,-1.025216 0.488393,-2.514784 0.642747,-3.557592 0.311919,-2.107351 0.383634,-4.26518 0.1316,-6.382736 -0.08896,-0.747456 -0.49058,-3.14335 -1.550148,-2.987021 -0.505141,0.07458 -0.70873,0.539253 -0.61546,0.998957 0.410064,2.021167 0.998251,3.742751 0.748353,5.859561 -0.22945,1.943546 -0.787657,3.923762 -0.937516,5.859559 -0.05759,0.743569 0.488998,1.293722 0.530514,1.988067 0.03929,0.657487 -0.704722,1.47341 -1.053284,1.98806 -0.859378,1.26887 -1.928682,2.495861 -3.278158,3.256681 -0.540635,0.304802 -1.530482,0.503272 -1.313267,1.342655 0.267939,1.035437 1.730849,0.216017 2.254979,-0.106814 1.955644,-1.20455 2.95351,-3.010913 4.394667,-4.701791 0.457062,1.55326 2.166683,2.280463 3.556056,1.363482 1.474707,-0.973279 2.612714,-3.218842 3.49599,-4.711796 1.187244,-2.006748 2.437001,-4.614497 2.360586,-7.010545 -0.07202,-2.257273 -1.145149,-4.587116 -2.115233,-6.592004 -1.554242,-3.212196 -3.574684,-6.512721 -6.878857,-8.164599 -1.079979,-0.539915 -2.30796,-0.408771 -3.348322,-0.857505 -1.04287,-0.449821 -1.991008,-1.147674 -3.034411,-1.618047 -2.059613,-0.928483 -4.344407,-1.39496 -6.592007,-1.493389 -3.431777,-0.150288 -6.385288,1.025941 -9.417144,2.451814 -1.27355,0.598944 -2.62952,0.690189 -3.871495,1.48863 -3.56238,2.290174 -5.83787,6.103431 -7.572881,9.867259 -0.611221,1.325934 -1.3304415,2.736397 -1.5864755,4.185398 -0.694718,3.931669 2.1173385,8.161476 4.3906285,11.091302 0.472988,0.609594 0.95205,1.356836 1.629675,1.754981 1.499787,0.881208 2.953536,-0.209802 3.452956,-1.650342 m 6.382734,-16.583758 c -1.662176,0.240799 -1.776974,3.088093 0,2.922756 0.459849,-0.04276 1.187059,-0.261318 1.41911,-0.69627 0.513222,-0.961969 -0.301805,-2.388343 -1.41911,-2.226486 m 13.811823,0.0062 c -1.878078,0.349344 -1.234613,3.326184 0.73244,2.905559 1.774891,-0.379535 0.991993,-3.226323 -0.73244,-2.905559 m -9.731057,6.790776 c -1.222799,0.237062 -1.519085,1.555979 -1.888354,2.566868 -0.18022,0.493359 -0.435671,1.084428 0.03412,1.501624 1.073534,0.953309 2.383697,0.760056 3.632997,0.822231 0.910829,0.04531 2.036756,0.310086 2.929782,0.115764 0.677334,-0.147381 2.062955,-0.738843 2.369137,-1.397795 0.363322,-0.781911 -0.770871,-2.943877 -1.429038,-3.371172 -0.507925,-0.329752 -1.198768,-0.286498 -1.777182,-0.286536 -1.240013,-7.7e-5 -2.652709,-0.18727 -3.871495,0.04903 m 7.219818,11.356201 c 1.774642,-0.764703 3.405879,-2.183073 3.971686,-4.080758 0.195591,-0.656034 0.600238,-2.990416 -0.726391,-2.768394 -0.918809,0.153782 -0.586303,1.795534 -0.813669,2.454485 -0.411632,1.193011 -1.618066,2.268056 -2.745537,2.782274 -1.158349,0.528299 -3.316386,-0.595814 -3.62896,-1.840559 -0.167045,-0.665221 0.357286,-2.279196 -0.765708,-2.279196 -1.122993,0 -0.598662,1.613975 -0.765707,2.279196 -0.207711,0.827168 -1.848835,1.987719 -2.687244,2.051119 -1.575044,0.119108 -3.437769,-1.915835 -3.777356,-3.306737 -0.141302,-0.578769 0.122887,-2.501319 -1.033838,-2.115061 -1.166757,0.389601 -0.52261,2.612961 -0.178586,3.370679 0.397815,0.876189 0.992039,1.648597 1.746088,2.248116 0.403905,0.321127 1.199666,0.616672 1.401755,1.111181 0.197453,0.483163 0.03203,1.149635 0.0809,1.66318 0.186846,1.963442 0.388954,4.806641 2.388838,5.830899 1.57558,0.806946 4.40373,1.080412 5.849797,-0.131355 1.616923,-1.354951 2.259125,-5.323104 1.68393,-7.269067 m -8.370802,0.20927 c 0.926994,-0.119692 1.659222,-0.396214 2.406601,-0.966416 0.348322,-0.265748 0.873026,-0.89244 1.360256,-0.798168 0.783863,0.151661 1.435697,1.127455 2.197337,1.440834 0.281016,0.115627 0.733006,0.153973 0.878574,0.460117 0.169948,0.357388 0.06315,0.941706 0.06315,1.328526 -8.6e-5,1.291321 -0.183558,3.566326 -1.266602,4.454333 -0.942671,0.772918 -3.582225,0.480476 -4.439395,-0.32464 -0.589491,-0.553694 -0.806589,-1.478548 -0.946236,-2.246265 -0.202849,-1.115103 -0.253675,-2.217931 -0.253675,-3.348321 z"
     id="path1-3" />
</svg>
