<svg width="64" height="64" viewBox="0 0 16.933 16.933" xmlns="http://www.w3.org/2000/svg"><rect x="1.323" y="1.323" width="14.287" height="14.287" ry="7.144" fill="#78e689" style="paint-order:stroke markers fill"/><path d="M8.467 1.323c-1.383 0-2.67.388-3.755 1.058h7.51a7.123 7.123 0 0 0-3.756-1.058z" opacity=".35" style="paint-order:stroke markers fill"/><rect x="7.12" y="1.588" width="2.646" height=".529" ry=".265" opacity=".35" style="paint-order:stroke markers fill"/><path d="M4.057 11.377h8.996c.293 0 .529.118.529.264v.794c0 .147-.236.265-.53.265H4.058c-.293 0-.53-.118-.53-.265v-.794c0-.146.237-.264.53-.264z" fill="#fff" opacity=".35" style="paint-order:stroke markers fill"/><g fill="#dbffd4"><rect x="4.586" y="10.583" width="1.323" height="1.323" ry=".132" style="paint-order:stroke markers fill"/><rect x="6.791" y="10.583" width="1.323" height="1.323" ry=".132" style="paint-order:stroke markers fill"/><rect x="8.996" y="10.583" width="1.323" height="1.323" ry=".132" style="paint-order:stroke markers fill"/><rect x="11.201" y="10.583" width="1.323" height="1.323" ry=".132" style="paint-order:stroke markers fill"/></g></svg>