<svg width="64" height="64" xmlns="http://www.w3.org/2000/svg"><g transform="translate(0 -1058.5)"><circle transform="rotate(-15)" cx="-251.33" cy="1061.6" fill="#e0e0e0" r="27"/><circle cx="32" cy="1090.5" r="10" fill="#bdbdbd"/><circle cx="32" cy="1090.5" r="5" fill="#424242"/><rect x="44" y="1089.5" width="9" height="10" ry="1" fill="#4a606a"/><path d="M43 1097.5c-.554 0-1 .446-1 1v16c0 1.662 1.338 3 3 3h7c1.662 0 3-1.338 3-3v-16c0-.554-.446-1-1-1H43z" fill="#f6744a"/><g fill="#fff"><rect x="45" y="1100.5" width="7" height="1" ry=".5"/><rect x="46" y="1102.5" width="5" height="1" ry=".453"/><rect x="47" y="1104.5" width="3" height="1" ry=".453"/></g><path d="M46 1091.5h1v5h-1zm4 0h1v5h-1zm-2 2h1v3h-1z" fill="#ffd54f"/></g></svg>