<svg width="64" height="64" viewBox="0 0 16.933 16.933" xmlns="http://www.w3.org/2000/svg"><circle cx="8.466" cy="8.466" r="7.144" fill="#f0f0f0" style="paint-order:stroke fill markers"/><path transform="scale(.26458)" d="M21 17v4h-4v1h4v4h1v-4h4v-1h-4v-4h-1z" fill="#999" style="paint-order:stroke markers fill"/><circle cx="10.848" cy="10.848" r="3.175" fill="#ea7078" style="paint-order:stroke fill markers"/><rect x="9.525" y="10.319" width="2.646" height=".265" ry="0" fill="#fff" style="paint-order:stroke markers fill"/><rect x="9.525" y="11.112" width="2.646" height=".265" ry="0" fill="#fff" style="paint-order:stroke markers fill"/><rect x="4.498" y="10.583" width="2.381" height=".265" ry="0" fill="#999" style="paint-order:stroke markers fill"/><path d="m11.861 4.744-.748.748-.749-.748-.187.187.749.748-.749.748.187.187.749-.748.748.748.187-.187-.748-.748.748-.748z" fill="#999" style="paint-order:stroke markers fill"/></svg>