<svg width="64" height="64" image-rendering="optimizeSpeed" xmlns="http://www.w3.org/2000/svg"><circle cx="32" cy="32" r="27" fill="#ff4b68" style="paint-order:stroke markers fill"/><rect x="16" y="16" width="32" height="32" rx="2.667" fill="#3d3d3d" style="paint-order:normal"/><circle transform="rotate(-90)" cx="-42" cy="32" r="3" fill="gray" style="paint-order:normal"/><path d="M35 42a3 3 0 0 0-.407-1.5H32a1.5 1.5 0 0 0-1.5 1.5 1.5 1.5 0 0 0 1.5 1.5h2.596A3 3 0 0 0 35 42z" fill="#fff" opacity=".25" style="paint-order:normal"/><circle transform="rotate(-90)" cx="-42" cy="22.407" r="3" fill="gray" style="paint-order:normal"/><path d="M22.407 39a3 3 0 0 0-1.5.407V42a1.5 1.5 0 0 0 1.5 1.5 1.5 1.5 0 0 0 1.5-1.5v-2.596a3 3 0 0 0-1.5-.404z" fill="#fff" opacity=".25" style="paint-order:normal"/><circle transform="rotate(-90)" cx="-42" cy="41" r="3" fill="gray" style="paint-order:normal"/><path d="M41 45a3 3 0 0 0 1.5-.407V42a1.5 1.5 0 0 0-1.5-1.5 1.5 1.5 0 0 0-1.5 1.5v2.596A3 3 0 0 0 41 45z" fill="#fff" opacity=".25" style="paint-order:normal"/><rect x="19" y="19" width="26" height="18" ry="1" fill="#202020" style="paint-order:normal"/><circle cx="22.667" cy="42.667" fill="#b0b0b0" style="paint-order:normal" r="0"/><path fill="#3af684" style="paint-order:normal" d="M21 20h5v16h-5zM29 30h6v6h-6z"/><path fill="#0eabe7" style="paint-order:normal" d="M38 26h5v10h-5z"/></svg>