<svg xmlns="http://www.w3.org/2000/svg" width="64" height="64"><rect width="54" height="54" x="5" y="5" fill="#c281de" rx="27" ry="27" style="fill:#f8f1ff;fill-opacity:1;stroke-width:1.03846"/><g style="display:inline"><path d="M16.72 51.21c-4.45 0-8.64-1.78-11.81-5.01A17.1 17.1 0 0 1 0 34.16c0-4.53 1.74-8.81 4.91-12.04s7.36-5.01 11.81-5.01 8.71 1.82 11.82 4.99c2.32 2.36 2.32 6.2 0 8.56a5.87 5.87 0 0 1-8.4 0 4.83 4.83 0 0 0-3.43-1.45c-2.63 0-4.85 2.26-4.85 4.94s2.22 4.94 4.85 4.94c1.28 0 2.52-.53 3.43-1.45a5.87 5.87 0 0 1 8.4 0c2.32 2.36 2.32 6.2 0 8.56-3.11 3.17-7.42 4.99-11.82 4.99z" class="cls-1" style="fill:#ea5e5d" transform="translate(11.078 10.167)scale(.65746)"/><path d="M32.05 66.73c-4.45 0-8.64-1.78-11.81-5.01a17.1 17.1 0 0 1-4.91-12.04 17.3 17.3 0 0 1 4.9-12.06 5.87 5.87 0 0 1 8.4 0c2.32 2.36 2.32 6.2 0 8.56-.9.92-1.42 2.19-1.42 3.49 0 2.68 2.22 4.94 4.85 4.94s4.85-2.26 4.85-4.94c0-.95-.23-2.31-1.32-3.43-3.13-3.19-4.92-7.6-4.92-12.09s1.74-8.81 4.91-12.04 7.36-5.01 11.81-5.01 8.64 1.78 11.81 5.01 4.91 7.51 4.91 12.04a17.3 17.3 0 0 1-4.9 12.06 5.87 5.87 0 0 1-8.4 0c-2.32-2.36-2.32-6.2 0-8.56.9-.92 1.42-2.19 1.42-3.49 0-2.68-2.22-4.94-4.85-4.94s-4.85 2.26-4.85 4.94c0 1.31.53 2.6 1.45 3.53 3.1 3.16 4.8 7.42 4.8 11.99s-1.74 8.81-4.91 12.04-7.36 5.01-11.81 5.01z" class="cls-1" style="fill:#ea5e5d" transform="translate(11.078 10.167)scale(.65746)"/><path d="m32.05 19.09-9.72-9.12a3.714 3.714 0 0 1-.17-5.25 3.723 3.723 0 0 1 5.25-.17L31.3 8.2l5.53-6.83a3.715 3.715 0 0 1 5.22-.55 3.715 3.715 0 0 1 .55 5.22L32.04 19.09Z" class="cls-2" style="fill:#23af69" transform="translate(11.078 10.167)scale(.65746)"/></g></svg>