<svg width="64" height="64" version="1.1" xmlns="http://www.w3.org/2000/svg">
 <g transform="matrix(3.375,0,0,3.375,5,5)">
  <circle cx="8" cy="8" r="8" fill="#ff1e52"/>
  <path d="m8 3a5 5 0 0 0-5 5 5 5 0 0 0 5 5 5 5 0 0 0 5-5 5 5 0 0 0-5-5zm-0.060547 1a4 4 0 0 1 0.052734 0 4 4 0 0 1 0.0078125 0 4 4 0 0 1 4 4 4 4 0 0 1-4 4 4 4 0 0 1-4-4 4 4 0 0 1 3.9395-4zm-0.70703 2.2344a0.26759 0.26759 0 0 0-0.23242 0.26562v3a0.26759 0.26759 0 0 0 0.41602 0.22266l2.168-1.4453a0.33333 0.33333 0 0 0 0-0.55469l-2.168-1.4453a0.26759 0.26759 0 0 0-0.18359-0.042969z" fill="#1e1e1e"/>
 </g>
</svg>
