<svg width="64" height="64" viewBox="0 0 16.933 16.933" xmlns="http://www.w3.org/2000/svg"><g transform="translate(0 -280.07)"><rect x="1.323" y="281.39" width="14.287" height="14.287" ry="7.144" fill="#8aacff" style="paint-order:stroke markers fill"/><rect x="3.44" y="291.18" width="10.054" height="1.323" ry=".265" fill="#fff" opacity=".35" style="paint-order:markers stroke fill"/><g fill="#ccdfff"><rect x="4.498" y="290.38" width="1.323" height="1.323" ry=".132" style="paint-order:stroke markers fill"/><rect x="6.703" y="290.38" width="1.323" height="1.323" ry=".132" style="paint-order:stroke markers fill"/><rect x="8.908" y="290.38" width="1.323" height="1.323" ry=".132" style="paint-order:stroke markers fill"/><rect x="11.113" y="290.38" width="1.323" height="1.323" ry=".132" style="paint-order:stroke markers fill"/></g><path transform="translate(0 280.07) scale(.26458)" d="M32 5a26.942 26.942 0 0 0-14.18 4h28.359a26.94 26.94 0 0 0-14.18-4z" opacity=".35" style="paint-order:stroke markers fill"/><rect x="7.144" y="281.65" width="2.646" height=".529" ry=".265" opacity=".35" style="paint-order:stroke markers fill"/></g><g stroke-width="2"><path d="M9.393 10.05s1.176 1.044 1.19 2.647a.53.53 0 1 1-1.058 0c.199-1.858-.397-1.852-.397-1.852z" color="#000" fill="#525292" overflow="visible"/><path d="M7.54 10.05s-1.176 1.044-1.19 2.647a.53.53 0 1 0 1.058 0c-.198-1.858.397-1.852.397-1.852z" color="#000" fill="#6969a6" overflow="visible"/><path d="M8.467 4.76s-.573.787-.897 2.116h.367v.794h1.059v-.794h.368c-.325-1.329-.897-2.117-.897-2.117zm.897 2.116c.025.103.051.21.074.318-.022-.111-.049-.214-.074-.318zm-.368.794v.793h.583a7.681 7.681 0 0 0-.058-.793zm.563 1.587h-.563v.794H7.937v-.794h-.562c.02.257.05.521.1.794l.33 1.852h1.323l.33-1.852a7.96 7.96 0 0 0 .1-.794zm-2.204-.794h.582V7.67h-.525a7.68 7.68 0 0 0-.057.793zm.582 0v.794h1.059v-.794zM7.57 6.876c-.026.104-.053.207-.075.318.023-.108.05-.215.075-.318z" fill="#6969a6"/><path d="M7.57 6.88c-.061.248-.12.509-.158.794h.525V6.88zm.367.794v.793h1.059v-.793zm1.059 0h.525a7.35 7.35 0 0 0-.157-.794h-.368zm0 .793v.794h.562c.021-.275.028-.539.02-.794zm0 .794H7.937v.794h1.059zm-1.059 0v-.794h-.582c-.007.255 0 .519.02.794z" color="#000" fill="#fff" opacity=".5" overflow="visible"/></g></svg>