<svg width="64" height="64" version="1.1" viewBox="0 0 16.933 16.933" xmlns="http://www.w3.org/2000/svg">
 <circle cx="8.466" cy="8.466" r="7.144" fill="#03a9f4"/>
 <path d="m8.9342 3.8627c-2.5382 0-4.596 2.0612-4.596 4.6038 0 2.5425 2.0578 4.6038 4.596 4.6038 0.57573 0 1.1266-0.10605 1.6345-0.29972 0.36682-0.13989 0.42687-0.60719 0.14934-0.8852-0.17986-0.18014-0.45215-0.22247-0.69348-0.14211-0.34206 0.1139-0.70753 0.1757-1.0878 0.1757-1.9037 0-3.4468-1.5456-3.4468-3.4524 0-1.9069 1.5431-3.453 3.4468-3.453 0.38298 0 0.75135 0.06279 1.0955 0.17828 0.24153 0.081041 0.51442 0.038824 0.69452-0.14159 0.27705-0.27749 0.21705-0.74373-0.14883-0.88417-0.51049-0.19597-1.0645-0.30333-1.6438-0.30333zm3.1253 1.111c-0.13665 0-0.27351 0.051941-0.37775 0.15554l-1.7363 1.726c-0.20851 0.2072-0.20851 0.54312 0 0.75033 0.20851 0.20716 0.54646 0.20716 0.75498 0l1.7368-1.726c0.20847-0.2072 0.20847-0.54316 0-0.75033-0.10426-0.1036-0.2411-0.15554-0.37775-0.15554zm-3.0127 2.9636c-0.3215 0-0.58187 0.2604-0.58187 0.58187 0 0.32146 0.26036 0.58238 0.58187 0.58238 0.32146 0 0.58238-0.26092 0.58238-0.58238 0-0.32146-0.26092-0.58187-0.58238-0.58187zm1.2759 1.2345c-0.13664 0-0.27297 0.051961-0.37723 0.15554-0.20851 0.2072-0.20851 0.54312 0 0.75033l1.7363 1.7254c0.20847 0.20716 0.54698 0.20716 0.7555 0 0.20847-0.2072 0.20847-0.54261 0-0.74981l-1.7368-1.726c-0.10426-0.10358-0.24111-0.15554-0.37775-0.15554z" fill="#fff"/>
</svg>
