<svg xmlns="http://www.w3.org/2000/svg" width="64" height="64"><circle cx="32" cy="32" r="27" fill="#ececec" style="paint-order:stroke fill markers"/><g stroke-opacity=".25" stroke-width="0"><path fill="#465051" d="M32 13c-2.458 0-6.074.648-9.41 2.215-.202.096-.407.182-.607.284-.849.433-1.672.93-2.446 1.494l-.066.05q-.18.131-.354.267c-.064.05-.126.106-.19.158q-.199.161-.392.328l-.172.143-.053.047c-.067.06-.13.127-.196.189a14 14 0 0 0-1.09 1.143c-.054.065-.114.125-.168.19l-.143.185-.064.089a11 11 0 0 0-.254.345c-.057.078-.118.153-.172.234q-.15.219-.29.447v.002h-.001a11 11 0 0 0-.9 1.803l-.06.148q-.1.26-.187.53-.059.188-.113.382-.026.08-.05.163c-.24.888-.39 1.838-.426 2.859-.037 1.056.062 2.15.269 3.264 1.049 5.636 4.946 11.755 8.886 15.845 1.596 1.658 4.462 4.268 7.242 4.995.292.077.58.136.87.167q.27.031.538.033c3.173 0 6.783-3.254 8.651-5.195 3.79-3.936 7.542-9.752 8.755-15.207q.21-.947.315-1.874c.075-.688.107-1.365.084-2.028C49.446 16.348 37.655 13 32 13m.916 23.639.018.178zm-.475 7.214"/><path fill="#e45e3e" d="M33.68 20.347a18 18 0 0 0-3.453.302h-.003c-1.941.36-3.932 1.035-6.02 2.029q.428.71.884 1.35c.303.427.614.83.928 1.22 2.194 2.732 4.557 4.696 5.921 7.76v.001c.682 1.531 1.114 3.337 1.15 5.65v.003c.037 2.314-.322 5.135-1.224 8.698a74 74 0 0 1-1.365 4.693c.311.081.62.145.927.178.193.02.385.035.575.035 3.385 0 7.235-3.471 9.228-5.541 4.044-4.199 8.045-10.402 9.338-16.221-2.143-2.793-3.827-4.976-6.435-6.905-3.44-2.546-7.003-3.212-10.451-3.252"/><path fill="#519c26" d="M13.464 23.29a13.3 13.3 0 0 0-.456 3.05c-.04 1.127.065 2.295.286 3.482 3.114-2.468 5.96-4.452 8.627-5.956a22 22 0 0 1-1.683-3.24s-5.651-1.24-6.775 2.665z"/><path fill="#2194cd" d="M50.991 26.341C50.607 15.304 38.031 11.733 32 11.733c-2.782 0-6.957.763-10.685 2.666-.906.462-1.783.992-2.61 1.594-2.418 1.763-4.385 4.15-5.241 7.298 2.408-1.074 4.662-1.966 6.775-2.666q1.31-.434 2.551-.772c8.986-2.452 15.421-1.171 21.34 3.745 2.181 1.81 4.293 4.112 6.437 6.905q.225-1.01.334-1.998c.081-.733.116-1.457.09-2.164"/><path fill="#65c32f" d="M21.92 23.866c-2.667 1.504-5.512 3.488-8.626 5.956 1.12 6.012 5.276 12.54 9.479 16.902 1.702 1.768 4.76 4.553 7.725 5.329a74 74 0 0 0 1.366-4.692v-.001a68 68 0 0 0 .117-3.043q.009-.71-.002-1.369a37 37 0 0 0-.115-2.457 29 29 0 0 0-.11-1.099 23 23 0 0 0-.318-1.963c-.57-2.726-1.544-4.514-2.728-5.984a16 16 0 0 0-.403-.48 21 21 0 0 0-.844-.907c-.58-.59-1.188-1.159-1.809-1.76a43 43 0 0 1-.937-.932 28 28 0 0 1-.471-.497 22 22 0 0 1-1.407-1.679q-.465-.614-.916-1.324z"/><path fill="#465051" d="M18.706 15.993a16 16 0 0 0-1.252 1.008l-.057.05c-.557.5-1.078 1.041-1.552 1.625q-.078.097-.152.195a13 13 0 0 0-.833 1.191v.001a12 12 0 0 0-.96 1.924l-.065.158v.001q-.105.277-.198.563-.064.202-.122.408l-.051.174c2.408-1.073 4.661-1.965 6.775-2.666-.558-1.317-1.076-2.841-1.533-4.632"/><path d="M21.963 14.096c-.216.102-.435.194-.649.303-.905.462-1.783.991-2.61 1.593l-.07.056.07-.054c.459 1.79.976 3.315 1.534 4.632a49 49 0 0 1 2.55-.772c.056-.016.11-.027.165-.042-.615-1.817-.937-3.723-.99-5.716" opacity=".2"/><path fill="#fff" d="M30.529 18.644c-2.372.04-4.932.443-7.74 1.21a48 48 0 0 0-2.551.771 22 22 0 0 0 1.683 3.24c.3.475.605.913.914 1.324a22 22 0 0 0 1.407 1.679h.002a39 39 0 0 0 1.408 1.43c.62.601 1.229 1.168 1.808 1.758q.434.441.844.908.205.235.402.48c1.185 1.47 2.159 3.258 2.729 5.984q.19.907.318 1.964.064.528.111 1.098.094 1.138.114 2.456v.002a48 48 0 0 1-.037 2.836v.002a69 69 0 0 1-.078 1.574c.243-.962.44-1.861.607-2.72.051-.261.083-.497.127-.75.103-.587.2-1.165.268-1.706.033-.265.052-.513.078-.768.047-.478.087-.946.107-1.389.022-.466.044-.933.037-1.364v-.004a18 18 0 0 0-.092-1.516q-.008-.097-.02-.194a15 15 0 0 0-.187-1.189c-.07-.354-.154-.688-.246-1.015-.039-.14-.07-.29-.113-.426a12 12 0 0 0-.465-1.237l-.027-.073v-.002c-.184-.412-.389-.8-.606-1.178-.081-.142-.172-.275-.257-.413a16 16 0 0 0-.444-.683q-.146-.206-.297-.408a22 22 0 0 0-.502-.659q-.116-.143-.236-.287a56 56 0 0 0-1.5-1.72c-.167-.186-.325-.373-.494-.562a46 46 0 0 1-1.586-1.846v-.002a26 26 0 0 1-.928-1.222 22 22 0 0 1-.884-1.35c.483-.23.96-.437 1.433-.633l.367-.146a26 26 0 0 1 1.49-.54c.323-.106.644-.2.963-.29.145-.04.29-.083.434-.12q.644-.166 1.28-.287l.054-.012h.002a18 18 0 0 1 1.95-.245 17 17 0 0 1 1.503-.058c3.448.04 7.011.707 10.45 3.252-4.069-3.38-8.382-5.042-13.6-4.954"/></g></svg>