<?xml version="1.0" encoding="UTF-8"?>
<svg width="64" height="64" version="1.1" xmlns="http://www.w3.org/2000/svg">
 <circle cx="32" cy="32" r="27" fill="#ececec" stroke-width="3.7796" style="paint-order:stroke fill markers"/>
 <g transform="matrix(.7 0 0 .7 15.2 4)" fill-rule="evenodd" stroke-width=".53846">
  <path transform="matrix(1.4286 0 0 1.4286 -21.714 -5.7143)" d="m32 32v14h9c2.77 0 5-2.23 5-5v-9h-14z" fill="#4783b0"/>
  <path transform="matrix(1.4286 0 0 1.4286 -21.714 -5.7143)" d="m18 32v9c0 2.77 2.23 5 5 5h9v-14h-14z" fill="#da4339"/>
  <path transform="matrix(1.4286 0 0 1.4286 -21.714 -5.7143)" d="m32 18v14h14v-9c0-2.77-2.23-5-5-5h-9z" fill="#4ab871"/>
  <path transform="matrix(1.4286 0 0 1.4286 -21.714 -5.7143)" d="m23 18c-2.77 0-5 2.23-5 5v9h14v-14h-9z" fill="#ffb750"/>
 </g>
</svg>
