<svg width="64" height="64" version="1.1" xmlns="http://www.w3.org/2000/svg">
 <circle cx="32" cy="32" r="27" fill="#5ed698" stroke-width=".96429"/>
 <path d="m33.085 43.951c6.5979-0.59485 11.463-6.408 10.866-12.984l-8e-3 -0.08712c-0.59681-6.576-6.4292-11.425-13.027-10.83-6.5979 0.59485-11.463 6.408-10.866 12.984l8e-3 0.08714c0.59681 6.576 6.4292 11.425 13.027 10.83z" fill="#48ad79"/>
 <path d="m32.361 28.016c2.1993 0.1983 3.8209 2.136 3.622 4.3281l-0.0026 0.029c-0.1989 2.192-2.1431 3.8083-4.3424 3.61-2.1993-0.1983-3.8209-2.136-3.6219-4.3281l0.0026-0.029c0.1989-2.192 2.1431-3.8083 4.3424-3.61z" fill="#ffffff"/>
 <path d="m34 9.0918v1.0039a22 22 0 0 1 19.904 19.904h1.0039a23 23 0 0 0-20.908-20.908zm0 5.0195v1.0078a17 17 0 0 1 14.881 14.881h1.0078a18 18 0 0 0-15.889-15.889zm-24.857 19.889a23 23 0 0 0 20.857 20.857v-1a22 22 0 0 1-19.857-19.857h-1zm5.0137 0a18 18 0 0 0 15.844 15.844v-1.0176a17 17 0 0 1-14.826-14.826h-1.0176z" fill="#48ad79" fill-rule="evenodd" stop-color="#000000" stroke-linecap="round" stroke-linejoin="round" stroke-opacity=".2" stroke-width=".48936" style="paint-order:stroke fill markers"/>
</svg>
