<svg width="64" height="64" xmlns="http://www.w3.org/2000/svg" xmlns:xlink="http://www.w3.org/1999/xlink"><linearGradient id="f" x1="49" x2="79" y1="68" y2="68" gradientUnits="userSpaceOnUse"><stop stop-color="#deddda" offset="0"/><stop stop-color="#f6f5f4" offset=".25"/><stop stop-color="#fff" offset=".75"/><stop stop-color="#deddda" stop-opacity=".855" offset="1"/></linearGradient><linearGradient id="g" x1="49" x2="79" y1="31.453" y2="31.453" gradientTransform="matrix(1.0029 0 0 1 -.141 0)" gradientUnits="userSpaceOnUse"><stop stop-color="#c0bfbc" offset="0"/><stop stop-color="#deddda" offset=".25"/><stop stop-color="#f6f5f4" offset=".75"/><stop stop-color="#c0bfbc" offset="1"/></linearGradient><linearGradient id="h" x1="12" x2="49" y1="42.917" y2="42.917" gradientUnits="userSpaceOnUse"><stop stop-color="#c0bfbc" offset="0"/><stop stop-color="#deddda" offset=".25"/><stop stop-color="#deddda" offset=".75"/><stop stop-color="#c0bfbc" offset="1"/></linearGradient><linearGradient id="a" gradientUnits="userSpaceOnUse"><stop stop-color="#1a5fb4" offset="0"/><stop stop-color="#1c71d8" offset=".25"/><stop stop-color="#3584e4" offset=".75"/><stop stop-color="#1a5fb4" offset="1"/></linearGradient><linearGradient id="i" x1="49" x2="79" y1="21.471" y2="21.471" xlink:href="#a"/><linearGradient id="j" x1="49" x2="79" y1="68" y2="68" xlink:href="#a"/><linearGradient id="k" x1="12" x2="49" y1="74.97" y2="74.97" gradientUnits="userSpaceOnUse"><stop stop-color="#ffa348" offset="0"/><stop stop-color="#ffbe6f" offset=".25"/><stop stop-color="#ffbe6f" offset=".75"/><stop stop-color="#ffa348" offset="1"/></linearGradient><linearGradient id="l" x1="79" x2="116" y1="75.564" y2="75.564" gradientUnits="userSpaceOnUse"><stop stop-color="#e01b24" offset="0"/><stop stop-color="#ed333b" offset=".25"/><stop stop-color="#f66151" offset=".75"/><stop stop-color="#e01b24" offset="1"/></linearGradient><linearGradient id="m" x1="24" x2="37" y1="14" y2="14" gradientUnits="userSpaceOnUse"><stop stop-color="#33d17a" offset="0"/><stop stop-color="#57e389" offset=".388"/><stop stop-color="#57e389" offset=".75"/><stop stop-color="#2ec27e" stop-opacity=".855" offset="1"/></linearGradient><linearGradient id="n" x1="79" x2="116" y1="35.962" y2="35.962" gradientUnits="userSpaceOnUse"><stop stop-color="#3d3846" offset="0"/><stop stop-color="#5e5c64" offset=".25"/><stop stop-color="#77767b" offset=".75"/><stop stop-color="#77767b" offset="1"/></linearGradient><linearGradient id="b" gradientUnits="userSpaceOnUse"><stop stop-color="#9a9996" offset="0"/><stop stop-color="#c0bfbc" offset=".25"/><stop stop-color="#deddda" offset=".75"/><stop stop-color="#9a9996" offset="1"/></linearGradient><linearGradient id="o" x1="79" x2="116" y1="31.472" y2="31.472" xlink:href="#b"/><linearGradient id="p" x1="78.999" x2="116" y1="273.23" y2="273.23" gradientTransform="matrix(.99996 0 0 .81447 .004 -120.79)" xlink:href="#b"/><clipPath id="e"><path d="M0 0h128v128H0z"/></clipPath><clipPath id="c"><path d="M0 0h128v128H0z"/></clipPath><filter id="d" x="0" y="0" width="1" height="1"><feColorMatrix in="SourceGraphic" values="0 0 0 0 1 0 0 0 0 1 0 0 0 0 1 0 0 0 1 0"/></filter><circle cx="32" cy="32" r="27" fill="#e5e5e5"/><path d="M29.091 19.693s-1.706 4.187-1.706 4.466v23.84h9.23V24.159l-1.538-4.466z" fill="#fdfdfd"/><path d="M28.923 19.693s-1.538 4.187-1.538 4.465h9.23c0-.15-1.538-4.465-1.538-4.465z" fill="#f0f0eb"/><path d="M16 27.045c.153.004 11.385 0 11.385 0 0-3.944-3.644-7.352-3.692-9.814h-4c0 2.462-3.694 5.87-3.693 9.814z" fill="#deddda"/><path d="M28.923 18.136v1.557h6.154v-1.557z" fill="#297bde"/><path d="M32 29.55c-2.308 0-2.308 2.91-2.308 2.91h-2.307v4.451h9.23V32.46h-2.307s0-2.91-2.308-2.91zm0 .615s1.678 2.047 1.064 3.059c-.614 1.012-1.515 1.012-2.129 0S32 30.165 32 30.165z" fill="#1f74da"/><path d="m18.894 19.693-.003.003c-1.087 2.094-2.892 4.59-2.89 7.347v18.495a2.91 2.91 0 0 0 .045.498 2.355 2.355 0 0 0 .133.462 2.51 2.51 0 0 0 .488.783 2.5 2.5 0 0 0 .527.423c.065.038.132.072.2.104.069.03.139.057.21.081l.109.034a1.872 1.872 0 0 0 .338.064 1.91 1.91 0 0 0 .234.013h9.1V27.043c0-2.758-1.782-5.253-2.87-7.347l-.003-.003z" fill="#ffbe6f"/><path d="M39.077 23.676c-1.309.64-2.461 2.065-2.461 3.547V48h8.862C46.876 47.994 48 46.842 48 45.412v-18.19c0-1.485-1.148-2.908-2.462-3.546z" fill="#ee393e"/><path d="M19.693 16h4v1.231h-4z" fill="#57e389"/><path d="M39.077 23.06h6.462v.626h-6.462z" fill="#67656c"/><path d="M39.077 20.923h6.462v2.137h-6.462z" fill="#cecdca"/><path d="M44.308 42.92H48v1.388h-3.692z" fill="#cac9c6"/><path d="M21.693 28.923a3.077 3.077 0 1 0 0 6.154 3.077 3.077 0 0 0 0-6.154z" fill="#33d17a" fill-opacity=".855"/><path d="M16 37.12v8.418a2.906 2.906 0 0 0 .046.498 2.357 2.357 0 0 0 .133.462 2.514 2.514 0 0 0 .488.783 2.497 2.497 0 0 0 .526.423c.065.037.133.072.201.104a2.458 2.458 0 0 0 .43.141 1.872 1.872 0 0 0 .226.038 1.88 1.88 0 0 0 .234.013h27.194c1.398-.006 2.521-1.159 2.521-2.589V37.12H16z" fill="#f8e04c"/><path d="M16.403 37.12 27.282 48h6.527L22.93 37.12h-6.526zm13.053 0L40.337 48h5.142c.401-.002.779-.1 1.115-.27l-10.61-10.61h-6.527zm13.055 0 5.49 5.49v-5.49zm-26.51 6.125v2.293a2.907 2.907 0 0 0 .046.498 2.357 2.357 0 0 0 .133.462 2.514 2.514 0 0 0 .488.783 2.497 2.497 0 0 0 .526.423 2.455 2.455 0 0 0 .411.185l.109.034a1.872 1.872 0 0 0 .338.064c.04.004.078.008.116.01l.118.003h2.47L16 43.245z"/></svg>