<svg xmlns="http://www.w3.org/2000/svg" xml:space="preserve" width="64" height="64" viewBox="0 0 16.933 16.933"><circle cx="8.466" cy="8.466" r="7.144" fill="#72787e" style="display:inline;fill:#333;fill-opacity:1;paint-order:stroke fill markers"/><path d="M44.633 60c-2.249 0-4.455-.656-6.316-1.867A11.63 11.63 0 0 1 32.002 60c-2.244 0-4.454-.656-6.315-1.867A11.46 11.46 0 0 1 19.447 60h-.067a11.38 11.38 0 0 1-8.083-3.335C9.17 54.548 8 51.762 8 48.82V27.385C8.004 14.49 18.77 4 32.002 4 45.235 4 56 14.49 56 27.385v21.444c0 5.936-4.715 10.835-10.736 11.155q-.316.017-.631.016Z" style="fill:#fff;fill-opacity:1;stroke:#7575ff;stroke-width:6.38434;stroke-dasharray:none;stroke-opacity:1" transform="matrix(.16125 0 0 .16116 3.307 3.31)"/><g style="stroke:#3b3b3b;stroke-opacity:1"><path d="m20 24 7 4-7 4M34 28h9.8" style="fill:none;stroke:#3b3b3b;stroke-width:4;stroke-linecap:round;stroke-linejoin:round;stroke-opacity:1" transform="matrix(.16125 0 0 .16116 3.307 3.31)"/></g></svg>