<svg width="64" height="64" version="1.1" xmlns="http://www.w3.org/2000/svg">
 <circle cx="31.998" cy="31.998" r="27.001" fill="#e6e6e6" stroke-width="3.7796" style="paint-order:stroke fill markers"/>
 <g transform="matrix(.62068 0 0 .62068 12.138 12.138)">
  <path d="m30.926 19h26.286c2.1 0 3.789 1.665 3.789 3.735v28.53c-1e-3 2.07-1.689 3.735-3.789 3.735h-20.915c-1.074 0-1.777-0.317-2.417-1.06z" fill="#ffffff"/>
  <path d="m42.615 30.354-1.748-0.098c0.02 0.527-0.018 0.994-0.098 1.62-0.04 0.33-0.118 1.36-0.195 1.866h-0.336c-1.196 0-2.69-0.138-3.73-0.313l0.021 1.522c1.14 0.098 2.375 0.196 3.73 0.196h0.019c-0.491 2.203-1.276 5.009-2.276 6.958l1.451 0.527c0.198-0.35 0.374-0.623 0.609-0.917 1.315-1.54 3.476-3.03 5.81-3.03 2.298 0 3.496 1.821 3.496 3.263 0 3.22-4.397 3.98-8.952 3.356l0.411 1.56c5.969 0.624 10.151-0.877 10.151-4.953 0-2.264-1.827-4.552-4.948-4.552-2.042 0-3.808 1.177-5.516 2.367 0.411-1.113 0.862-2.98 1.217-4.619 2.492-0.098 5.496-0.41 7.793-0.819l-0.018-1.482c-2.415 0.525-5.184 0.798-7.481 0.896 0.098-0.429 0.157-1.418 0.216-1.71 0.117-0.527 0.216-1.132 0.373-1.638zm7.361-0.684-1.04 0.449c0.53 0.723 1.198 1.91 1.59 2.711l1.061-0.467c-0.392-0.8-1.12-1.99-1.61-2.693zm2.18-0.779-1.04 0.448c0.549 0.721 1.197 1.834 1.63 2.69l1.059-0.485c-0.374-0.723-1.14-1.932-1.65-2.653z" fill="#6b6a6e"/>
  <path d="m41.267 45.93c0.376 0.932 0.284 1.93-1.074 2.668l-4.434 3.201c-0.795 0.39-2.148 2.134 0 3.174-1.827-0.237-2.215-1.532-2.685-2.64l-8.594-22.943 13.564 8.536z" fill="#7d45a8"/>
  <path d="m6.788 9.048 20.35-0.048c2.1-5e-3 3.03 1.854 3.788 3.784 1.252 3.586 10.602 33.802 10.602 33.802-0.432-0.91-1.473-1.586-2.547-1.586h-32.193c-2.1 0-3.788-1.668-3.788-3.739v-28.477a3.794 3.794 0 0 1 3.788-3.784z" fill="#cd50dc"/>
  <path d="m12 34h6.077c4.435 0 7.923-3.079 7.923-6.957 0-3.94-3.488-7.043-7.923-7.043h-6.077zm5.994-11c2.355 0 4.006 1.802 4.006 4.043 0 2.194-1.662 3.722-4.006 3.957h-1.994v-8z" fill="#ffffff" opacity=".75"/>
 </g>
</svg>
