<svg width="64" height="64" enable-background="new" version="1.0" viewBox="0 0 64 64" xmlns="http://www.w3.org/2000/svg">
 <title>Adwaita Icon Template</title>
 <circle cx="32" cy="32" r="27" fill="#454050" stroke-width="3.7796" style="paint-order:stroke fill markers"/>
 <text x="43.500004" y="13.000002" fill="#000000" font-family="sans-serif" font-size="20px" letter-spacing="0px" word-spacing="0px" style="line-height:1.25" xml:space="preserve"><tspan x="43.500004" y="30.695314"/></text>
 <circle cx="32" cy="32" r="24" fill="#ffffff" opacity=".15" stroke-width="3.3596" style="paint-order:stroke fill markers"/>
 <path d="m9.4043 24a24 24 0 0 0-1.4043 8 24 24 0 0 0 24 24 24 24 0 0 0 24-24 24 24 0 0 0-1.4004-8h-45.195z" fill="#ec8e12" stroke-width="3.3596" style="paint-order:stroke fill markers"/>
 <circle cx="43" cy="15" r="2" enable-background="new" fill="#ed333b" stroke-width=".66667"/>
 <rect x="27" y="14" width="10" height="2" fill="#deddda"/>
 <path d="m22 27c-2.216 0-4 1.784-4 4v2h2v-2c0-1.108 0.892-2 2-2h2v-2h-2zm18 0v2h2c1.108 0 2 0.892 2 2v2h2v-2c0-2.216-1.784-4-4-4h-2zm-22 14v2c0 2.216 1.784 4 4 4h2v-2h-2c-1.108 0-2-0.892-2-2v-2h-2zm26 0v2c0 1.108-0.892 2-2 2h-2v2h2c2.216 0 4-1.784 4-4v-2h-2z" fill="#ffffff" stop-color="#000000" stroke-linecap="round" stroke-linejoin="round" stroke-width="2" style="paint-order:stroke fill markers"/>
</svg>
