<?xml version="1.0" encoding="utf-8"?>
<svg xmlns="http://www.w3.org/2000/svg" width="64" height="64">
  <path d="M 32 5 C 46.912 5 59 17.088 59 32 C 59 46.912 46.911 59 32 59 C 17.089 59 5 46.911 5 32 C 5 17.089 17.088 5 32 5" style="fill: rgb(43, 174, 57);"/>
  <path style="opacity: 0.2; stroke-width: 0.554;" d="M 32 17.33 C 23.44 17.33 16.5 24.015 16.5 32.262 C 16.502 34.808 17.181 37.313 18.471 39.535 L 17.28 44.09 L 17.124 44.705 C 16.814 45.921 17.927 47.459 19.189 47.193 L 25.094 45.622 C 27.239 46.654 29.603 47.191 32 47.193 C 40.561 47.193 47.5 40.508 47.5 32.262 C 47.5 24.015 40.56 17.33 32 17.33 Z"/>
  <path style="fill: rgb(228, 228, 228); stroke-width: 0.554;" d="M 32 16.777 C 23.44 16.777 16.5 23.462 16.5 31.708 C 16.502 34.255 17.181 36.759 18.471 38.982 L 17.28 43.536 L 17.124 44.151 C 16.814 45.368 17.927 46.906 19.189 46.639 L 25.094 45.069 C 27.239 46.1 29.603 46.638 32 46.639 C 40.561 46.639 47.5 39.954 47.5 31.708 C 47.5 23.462 40.56 16.777 32 16.777 Z"/>
  <path style="opacity: 0.1; stroke-width: 0.554;" d="M 32.001 19.545 C 27.79 19.546 23.828 21.461 21.324 24.706 L 32.619 25.248 L 18.747 31.438 C 18.726 31.717 18.715 31.997 18.714 32.277 C 18.714 39.309 24.662 45.009 32.001 45.009 C 36.781 45.008 41.193 42.546 43.552 38.562 L 32.278 38.021 L 45.286 32.217 C 45.252 25.209 39.313 19.545 32.001 19.545 Z"/>
  <path style="fill: rgb(43, 174, 57); stroke-width: 0.554;" d="M 32.001 18.991 C 27.79 18.993 23.828 20.908 21.324 24.153 L 32.619 24.695 L 18.747 30.885 C 18.726 31.164 18.715 31.443 18.714 31.723 C 18.714 38.755 24.662 44.455 32.001 44.455 C 36.781 44.455 41.193 41.993 43.552 38.009 L 32.278 37.467 L 45.286 31.663 C 45.252 24.655 39.313 18.992 32.001 18.991 Z"/>
  <path style="fill: rgb(255, 255, 255); opacity: 0.2; stroke-width: 0.554;" d="M 32 16.777 C 23.44 16.777 16.5 23.462 16.5 31.708 C 16.5 31.79 16.507 31.871 16.509 31.951 C 16.681 23.849 23.548 17.33 32 17.33 C 40.464 17.33 47.339 23.867 47.492 31.985 C 47.494 31.893 47.5 31.801 47.5 31.708 C 47.5 23.462 40.56 16.777 32 16.777 Z M 18.374 39.354 L 17.281 43.536 L 17.124 44.152 C 17.065 44.384 17.058 44.628 17.093 44.868 C 17.102 44.814 17.11 44.759 17.124 44.705 L 17.281 44.09 L 18.471 39.535 C 18.436 39.475 18.407 39.414 18.374 39.354 Z"/>
</svg>