<?xml version="1.0" encoding="UTF-8" standalone="no"?>
<svg
   width="64"
   height="64"
   viewBox="0 0 16.933 16.933"
   version="1.1"
   id="svg3"
   sodipodi:docname="com.mitchellh.ghostty.svg"
   xml:space="preserve"
   inkscape:version="1.4.1 (93de688d07, 2025-03-30)"
   xmlns:inkscape="http://www.inkscape.org/namespaces/inkscape"
   xmlns:sodipodi="http://sodipodi.sourceforge.net/DTD/sodipodi-0.dtd"
   xmlns="http://www.w3.org/2000/svg"
   xmlns:svg="http://www.w3.org/2000/svg"><sodipodi:namedview
     id="namedview3"
     pagecolor="#505050"
     bordercolor="#ffffff"
     borderopacity="1"
     inkscape:showpageshadow="0"
     inkscape:pageopacity="0"
     inkscape:pagecheckerboard="1"
     inkscape:deskcolor="#505050"
     inkscape:zoom="3.2070313"
     inkscape:cx="11.848964"
     inkscape:cy="-11.069427"
     inkscape:window-width="1920"
     inkscape:window-height="1012"
     inkscape:window-x="0"
     inkscape:window-y="0"
     inkscape:window-maximized="1"
     inkscape:current-layer="svg3" /><defs
     id="defs2"><linearGradient
       id="a"
       x1="43"
       x2="49"
       y1="44"
       y2="50"
       gradientTransform="scale(.26458)"
       gradientUnits="userSpaceOnUse"><stop
         offset="0"
         id="stop1" /><stop
         offset="1"
         stop-opacity="0"
         id="stop2" /></linearGradient></defs><circle
     cx="8.4659996"
     cy="8.4659996"
     r="7.1440001"
     fill="#72787e"
     style="display:inline;fill:#333333;fill-opacity:1;paint-order:stroke fill markers"
     id="circle2"
     inkscape:label="circle1" /><g
     id="g3"
     transform="matrix(0.16124685,0,0,0.16116174,3.3066639,3.3093243)"><path
       style="fill:#ffffff;fill-opacity:1;stroke:#7575ff;stroke-width:6.38434;stroke-dasharray:none;stroke-opacity:1"
       d="m 44.632533,60 c -2.24828,0 -4.454356,-0.656425 -6.31526,-1.866725 C 36.456367,59.343575 34.246161,60 32.002013,60 29.758044,60 27.547658,59.343575 25.686861,58.133275 23.838599,59.343575 21.699833,59.98355 19.447406,60 h -0.06737 C 16.323466,60 13.456359,58.814375 11.296545,56.664675 9.1704224,54.5477 8,51.76205 8,48.820475 V 27.38455 C 8.0042102,14.490253 18.769562,4 32.002013,4 45.234516,4 56,14.490253 56,27.38455 V 48.8287 C 56,54.76505 51.284522,59.66365 45.264148,59.98355 45.05349,59.995975 44.843011,60 44.632533,60 Z"
       id="path2-3" /><g
       id="g4"
       style="stroke:#3b3b3b;stroke-opacity:1"><path
         style="fill:none;stroke:#3b3b3b;stroke-width:4;stroke-linecap:round;stroke-linejoin:round;stroke-opacity:1"
         d="m 20,24 7,4 -7,4"
         id="path6" /><path
         style="fill:none;stroke:#3b3b3b;stroke-width:4;stroke-linecap:round;stroke-linejoin:round;stroke-opacity:1"
         d="m 34,28 h 9.8"
         id="path8" /></g></g></svg>
