<svg xmlns="http://www.w3.org/2000/svg" width="64" height="64" viewBox="0 0 16.933 16.933"><defs><clipPath id="e" clipPathUnits="userSpaceOnUse"><circle cx="56.064" cy="55.88" r="55.434" fill="#f0f0f0" style="fill:#f3ffe0;fill-opacity:1;stroke-width:7.75948;paint-order:stroke fill markers"/></clipPath><clipPath id="d" clipPathUnits="userSpaceOnUse"><circle cx="67.282" cy="55.88" r="55.434" fill="#f0f0f0" style="fill:#f3ffe0;fill-opacity:1;stroke-width:7.75948;paint-order:stroke fill markers"/></clipPath></defs><circle cx="8.466" cy="8.466" r="7.144" fill="#f0f0f0" style="fill:#f3ffe0;fill-opacity:1;paint-order:stroke fill markers"/><path fill="#00dab8" d="M4.498 12.152h.567v.567h-.567zm0 0"/><path fill="#ade9b5" d="M4.498 5.915v2.268h2.835v-.567h5.102v-1.7Zm0 2.835v1.134h3.968v-.567h3.97V8.75zm1.134 2.268v.567H9.6v-.567zm0 1.134v.567H7.9v-.567zm0 0"/><path fill="#00dab8" d="M4.498 11.018h.567v.567h-.567zm0 0"/><path fill="#307d66" d="M4.498 4.214H7.9v.567H4.498zm0 0"/><g clip-path="url(#d)" transform="translate(-.205 1.264)scale(.12887)"><path fill="#51dcab" d="M115.286 43.884h-12v16h12zm0 0"/><path fill="#8aefbc" d="M111.286 11.884a4.086 4.086 0 0 1 4 4v10h-12v-14zm0 0"/><path fill="#02ab90" d="M115.286 75.884h-12v16h12zm0 0"/><path fill="#8aefbc" d="M115.286 41.884h-12v2h12zm0 0"/><path fill="#31c6a1" d="M115.286 59.884h-12v16h12zm0 0"/><path fill="#068677" d="M115.286 91.884v12c0 2.215-1.785 4-4 4h-8v-16Zm0 0"/></g><g clip-path="url(#e)" transform="translate(1.24 1.264)scale(.12887)"><path fill="#51dcab" d="M115.286 43.884h-12v16h12zm0 0"/><path fill="#8aefbc" d="M111.286 11.884a4.086 4.086 0 0 1 4 4v10h-12v-14zm0 0"/><path fill="#02ab90" d="M115.286 75.884h-12v16h12zm0 0"/><path fill="#8aefbc" d="M115.286 41.884h-12v2h12zm0 0"/><path fill="#31c6a1" d="M115.286 59.884h-12v16h12zm0 0"/><path fill="#068677" d="M115.286 91.884v12c0 2.215-1.785 4-4 4h-8v-16Zm0 0"/></g></svg>