<?xml version="1.0" encoding="UTF-8"?>
<svg id="svg1" width="64" height="64" image-rendering="optimizeSpeed" version="1.1" xmlns="http://www.w3.org/2000/svg"><circle id="circle1" cx="32" cy="32" r="27" fill="#f2f2f2" fill-rule="evenodd" style="paint-order:fill markers stroke"/><path id="path19" d="m36.536 25.074c0 5.5635-4.6684 10.074-10.427 10.074-5.7601 0-10.428-4.5103-10.428-10.074 0-5.5635 4.6684-10.074 10.428-10.074 5.7588 0 10.427 4.5103 10.427 10.074z" fill="#3e87dc" stroke-width=".34"/><path id="path20" d="m21.115 27.917c0 2.627-2.1303 4.7573-4.7573 4.7573-2.627 0-4.7573-2.1303-4.7573-4.7573 0-2.627 2.1303-4.7573 4.7573-4.7573 2.627 0 4.7573 2.1303 4.7573 4.7573z" fill="#3e87dc" stroke-width=".34"/><path id="path22" d="m25.714 34.978c0 3.5209-2.8555 6.3763-6.3763 6.3763-3.5222 0-6.3777-2.8555-6.3777-6.3763 0-3.5222 2.8555-6.3777 6.3777-6.3777 3.5209 0 6.3763 2.8555 6.3763 6.3777z" fill="#62a0ea" stroke-width=".34"/><path id="path23" d="m40.598 29.548c0 6.1572-5.1212 11.148-11.439 11.148-6.3179 0-11.439-4.9911-11.439-11.148 0-6.1572 5.1212-11.148 11.439-11.148 6.3179 0 11.439 4.9911 11.439 11.148z" fill="#62a0ea" stroke-width=".34"/><path id="path28" d="m23.16 42.2h17.68v6.8h-17.68z" fill="#8ebaef" stroke-width=".34"/><path id="path29" d="m41.515 27.24c-5.772 0.014609-10.535 4.7812-10.875 10.88 0.34 6.0988 5.1027 10.865 10.875 10.88 5.8371-0.01328 10.633-4.8862 10.885-11.061-0.425-6.0323-5.1717-10.698-10.885-10.699z" fill="#8ebaef" stroke-width=".34"/><path id="path30" d="m31.32 40.84c0 4.5063-3.6537 8.16-8.16 8.16s-8.16-3.6537-8.16-8.16c0-4.5063 3.6537-8.16 8.16-8.16s8.16 3.6537 8.16 8.16z" fill="#8ebaef" stroke-width=".34"/><path id="path32" d="m43.56 33.353c0 6.3816-5.1757 11.555-11.56 11.555s-11.56-5.173-11.56-11.555c0-6.3803 5.1757-11.553 11.56-11.553s11.56 5.173 11.56 11.553z" fill="#fff" stroke-width=".34"/><path id="path33" d="m31.32 24.848v1.3587l1.02 1.0213h-2.3441c-2.6483 0-4.7959 2.1476-4.7959 4.7959v2.3162c0 0.76633 0.62023 1.3879 1.3866 1.3879 0.74375-8e-3 1.3414-0.61625 1.3334-1.3613v-2.38c0-1.1262 0.91375-2.0387 2.04-2.0387h2.38l-1.02 1.02v1.36h1.02c0.43562 0 0.85266-0.17398 1.1608-0.48078l2.3973-2.3986c0.47547-0.47547 0.47547-1.2458 0-1.7212l-2.3973-2.3986c-0.30812-0.30812-0.72516-0.48078-1.1608-0.48078zm6.0934 5.78c-0.74375 0.0066-1.3414 0.61492-1.3334 1.3587v2.7107c0 1.1276-0.91242 2.0413-2.04 2.044l-2.3787 0.0053 1.0187-1.0187v-1.3613h-1.02c-0.43562 0.0013-0.85266 0.17398-1.1608 0.48211l-2.3986 2.3986c-0.47414 0.47547-0.47414 1.2458 0 1.7212l2.3986 2.3986c0.30812 0.3068 0.72516 0.48078 1.1608 0.48078h1.02v-1.36l-1.02-1.02h2.3441c2.6483-0.001328 4.7959-2.1476 4.7959-4.7959v-2.6576c0-0.76633-0.62023-1.3866-1.3866-1.3866z" fill="#3584e4" stroke-width=".34"/></svg>
