<svg width="64" height="64" xmlns="http://www.w3.org/2000/svg"><circle cx="32" cy="32" r="27" fill="#e5e5e5"/><path d="M29.091 19.693s-1.706 4.187-1.706 4.466v23.84h9.23V24.159l-1.538-4.466z" fill="#fdfdfd"/><path d="M28.923 19.693s-1.538 4.187-1.538 4.465h9.23c0-.15-1.538-4.465-1.538-4.465z" fill="#f0f0eb"/><path d="M16 27.045c.153.004 11.385 0 11.385 0 0-3.944-3.644-7.352-3.692-9.814h-4c0 2.462-3.694 5.87-3.693 9.814z" fill="#deddda"/><path d="M28.923 18.136v1.557h6.154v-1.557z" fill="#297bde"/><path d="M32 29.55c-2.308 0-2.308 2.91-2.308 2.91h-2.307v4.451h9.23V32.46h-2.307s0-2.91-2.308-2.91zm0 .615s1.678 2.047 1.064 3.059c-.614 1.012-1.515 1.012-2.129 0S32 30.165 32 30.165z" fill="#1f74da"/><path d="m18.894 19.693-.003.003c-1.087 2.094-2.892 4.59-2.89 7.347v18.495a2.91 2.91 0 0 0 .045.498 2.355 2.355 0 0 0 .133.462 2.51 2.51 0 0 0 .488.783 2.5 2.5 0 0 0 .527.423c.065.038.132.072.2.104.069.03.139.057.21.081l.109.034a1.872 1.872 0 0 0 .338.064 1.91 1.91 0 0 0 .234.013h9.1V27.043c0-2.758-1.782-5.253-2.87-7.347l-.003-.003z" fill="#ffbe6f"/><path d="M39.077 23.676c-1.309.64-2.461 2.065-2.461 3.547V48h8.862C46.876 47.994 48 46.842 48 45.412v-18.19c0-1.485-1.148-2.908-2.462-3.546z" fill="#ee393e"/><path d="M19.693 16h4v1.231h-4z" fill="#57e389"/><path d="M39.077 23.06h6.462v.626h-6.462z" fill="#67656c"/><path d="M39.077 20.923h6.462v2.137h-6.462z" fill="#cecdca"/><path d="M44.308 42.92H48v1.388h-3.692z" fill="#cac9c6"/><path d="M21.693 28.923a3.077 3.077 0 1 0 0 6.154 3.077 3.077 0 0 0 0-6.154z" fill="#33d17a" fill-opacity=".855"/></svg>