<?xml version="1.0" encoding="UTF-8"?>
<svg id="svg1" width="64" height="64" image-rendering="optimizeSpeed" version="1.1" xmlns="http://www.w3.org/2000/svg"><circle id="circle1" cx="32" cy="32" r="27" fill="#3d3846" fill-rule="evenodd" style="paint-order:fill markers stroke"/><g id="g1" transform="matrix(1.3333 0 0 1.3333 -17.333 -17.333)"><rect id="rect5" x="25" y="25" width="24" height="24" ry="2" fill="#b1b7b9"/><path id="path6" d="m27 27h20v7l-10 2-10-2z" fill="#3b83d8"/><path id="path7" d="m27 37 10-2 10 2v6l-10 4h-1l-9-7z" fill="#443f50"/><path id="path8" d="m39 36h6v7l-3 1-3-1z" fill="#986a44"/><path id="path9" d="m27 40v7h9v-7zm10 3v4h10v-4z" fill="#b5835a"/><path id="path10" d="m27 34h20v3h-20z" fill="#ced3d4"/><path id="path11" d="m27 28v1h20v-1zm0 2v1h20v-1zm0 2v1h20v-1z" fill="#fff" opacity=".1"/><rect id="rect11" x="41" y="43" width="2" height="4" fill="#fff" opacity=".2"/><rect id="rect12" x="33" y="35" width="8" height="1" ry=".5" opacity=".3"/></g></svg>
