<?xml version="1.0" encoding="UTF-8" standalone="no"?>
<svg
   width="64"
   height="64"
   viewBox="0 0 16.933 16.933"
   version="1.1"
   id="svg3"
   sodipodi:docname="terminal.svg"
   xml:space="preserve"
   inkscape:version="1.4.1 (93de688d07, 2025-03-30)"
   xmlns:inkscape="http://www.inkscape.org/namespaces/inkscape"
   xmlns:sodipodi="http://sodipodi.sourceforge.net/DTD/sodipodi-0.dtd"
   xmlns="http://www.w3.org/2000/svg"
   xmlns:svg="http://www.w3.org/2000/svg"><sodipodi:namedview
     id="namedview3"
     pagecolor="#505050"
     bordercolor="#ffffff"
     borderopacity="1"
     inkscape:showpageshadow="0"
     inkscape:pageopacity="0"
     inkscape:pagecheckerboard="1"
     inkscape:deskcolor="#505050"
     inkscape:zoom="12.828125"
     inkscape:cx="11.926918"
     inkscape:cy="40.419001"
     inkscape:window-width="1920"
     inkscape:window-height="1012"
     inkscape:window-x="0"
     inkscape:window-y="0"
     inkscape:window-maximized="1"
     inkscape:current-layer="svg3" /><defs
     id="defs2"><linearGradient
       id="a"
       x1="43"
       x2="49"
       y1="44"
       y2="50"
       gradientTransform="scale(.26458)"
       gradientUnits="userSpaceOnUse"><stop
         offset="0"
         id="stop1" /><stop
         offset="1"
         stop-opacity="0"
         id="stop2" /></linearGradient></defs><circle
     cx="8.466"
     cy="8.466"
     r="7.144"
     fill="#72787e"
     style="paint-order:stroke fill markers;fill:#a6bdff;fill-opacity:1"
     id="circle2" /><g
     id="g3"
     transform="matrix(0.17638542,0,0,0.17638542,2.8221667,2.8001185)"><path
       style="fill:#5d98ff;fill-opacity:1"
       d="m 44.632533,60 c -2.24828,0 -4.454356,-0.656425 -6.31526,-1.866725 C 36.456367,59.343575 34.246161,60 32.002013,60 29.758044,60 27.547658,59.343575 25.686861,58.133275 23.838599,59.343575 21.699833,59.98355 19.447406,60 h -0.06737 C 16.323466,60 13.456359,58.814375 11.296545,56.664675 9.1704224,54.5477 8,51.76205 8,48.820475 V 27.38455 C 8.0042102,14.490253 18.769562,4 32.002013,4 45.234516,4 56,14.490253 56,27.38455 V 48.8287 C 56,54.76505 51.284522,59.66365 45.264148,59.98355 45.05349,59.995975 44.843011,60 44.632533,60 Z"
       id="path2-3" /><path
       fill="#ffffff"
       d="m 50,27.599595 v 20.442916 c 0,3.128715 -2.46809,5.77646 -5.664064,5.948628 -1.552007,0.08208 -2.98389,-0.410733 -4.091928,-1.282916 -1.327975,-1.044184 -3.195976,-0.997305 -4.536063,0.0352 -1.019997,0.7861 -2.307873,1.255557 -3.711946,1.255557 -1.404072,0 -2.688026,-0.469457 -3.708021,-1.255557 -1.355955,-1.044183 -3.223993,-1.044183 -4.579982,0 -1.012011,0.778427 -2.284002,1.247716 -3.66801,1.255557 C 16.71599,54.022341 14,51.28467 14,48.03467 V 27.599595 C 14,17.880694 22.059996,9.9999997 31.999923,9.9999997 41.940021,9.9999997 50,17.880694 50,27.599595 Z"
       id="path4"
       style="fill:#91bbff;fill-opacity:1" /><g
       id="g4"
       style="stroke:#4a4a4a;stroke-opacity:1"><path
         style="fill:none;stroke:#4a4a4a;stroke-width:4;stroke-linecap:round;stroke-linejoin:round;stroke-opacity:1"
         d="m 20,24 7,4 -7,4"
         id="path6" /><path
         style="fill:none;stroke:#4a4a4a;stroke-width:4;stroke-linecap:round;stroke-linejoin:round;stroke-opacity:1"
         d="m 34,28 h 9.8"
         id="path8" /></g></g></svg>
