<svg width="64" height="64" version="1.1" viewBox="0 0 16.933 16.933" xmlns="http://www.w3.org/2000/svg">
 <rect x="1.323" y="1.323" width="14.287" height="14.287" rx="7.144" ry="7.144" fill="#f0f0f0"/>
 <g transform="translate(0 .265)" opacity=".25" stroke-linecap="round" stroke-linejoin="round" stroke-opacity=".35" stroke-width=".075">
  <rect x="3.219" y="3.969" width="10.496" height=".132" rx="0" ry=".066" opacity=".75"/>
  <rect x="2.381" y="6.085" width="12.171" height=".132" rx="0" ry=".066" opacity=".75"/>
  <rect x="2.381" y="8.202" width="12.171" height=".132" rx="0" ry=".066" opacity=".75"/>
  <rect x="2.381" y="10.054" width="12.171" height=".132" rx="0" ry=".066" opacity=".75"/>
  <rect x="3.446" y="12.183" width="10.041" height=".109" rx="0" ry=".055" opacity=".75"/>
 </g>
 <rect x="4.762" y="2.616" width=".132" height="11.7" rx=".066" ry=".066" fill="#da4d45" opacity=".15"/>
 <path d="m4 4.736-.73.869-.395-.332-.265.316.711.597L4.315 5z" fill="#fff" opacity=".2"/>
 <path d="m4 4.598-.73.87-.395-.332-.265.316.711.597.994-1.185z" fill="#64baff" opacity=".35"/>
 <path d="m4 8.768-.73.869-.395-.331-.265.315.711.597.994-1.185z" fill="#fff" opacity=".2"/>
 <path d="m4 8.63-.73.87-.395-.332-.265.316.711.597.994-1.185z" fill="#64baff" opacity=".35"/>
 <path d="m4 10.822-.73.869-.395-.331-.265.315.711.597.994-1.185z" fill="#fff" opacity=".2"/>
 <path d="m4 10.685-.73.869-.395-.331-.265.315.711.597.994-1.185z" fill="#64baff" opacity=".35"/>
 <rect x="5.5561" y="5.027" width="7.4082" height=".52916" rx=".26458" ry=".26458" fill="#000000" opacity=".05" stop-color="#000000" stroke-linecap="round" stroke-linejoin="round" stroke-width=".47469"/>
 <rect x="5.5561" y="7.1436" width="7.4082" height=".52916" rx=".26458" ry=".26458" fill="#000000" opacity=".05" stop-color="#000000" stroke-linecap="round" stroke-linejoin="round" stroke-width=".47469"/>
 <rect x="5.5561" y="9.2602" width="7.4082" height=".52916" rx=".26458" ry=".26458" fill="#000000" opacity=".05" stop-color="#000000" stroke-linecap="round" stroke-linejoin="round" stroke-width=".47469"/>
 <rect x="5.5561" y="11.377" width="7.4082" height=".52916" rx=".26458" ry=".26458" fill="#000000" opacity=".05" stop-color="#000000" stroke-linecap="round" stroke-linejoin="round" stroke-width=".47469"/>
 <path d="M11.583 5.131a.52.52 0 0 0-.736.065l-3.356 4-1.6-1.343a.521.521 0 0 0-.735.064l-.671.8a.52.52 0 0 0 .064.736l2.8 2.349a.52.52 0 0 0 .736-.065l4.362-5.199a.52.52 0 0 0-.064-.735z" fill="#1f9bff"/>
</svg>
