<svg width="64" height="64" xmlns="http://www.w3.org/2000/svg"><style>.st0{fill:#f08705}.st1{fill:#df6c0c}.st2{fill:#fff}.st3{fill:#333}</style><circle cx="32" cy="32" r="27" fill="#f08705" style="paint-order:stroke fill markers"/><circle cx="32" cy="32" r="23" fill="#fff" opacity=".1" stroke-width=".852" style="paint-order:stroke fill markers"/><path d="m27 25-6.506 11h3.375l5.826-9.951h4.644L40.2 36h3.361L37 25z" fill="#fff" opacity=".5" stroke-width=".334"/><path d="M28 16c-1.108 0-2 .892-2 2v6c0 1.108.892 2 2 2h8c1.108 0 2-.892 2-2v-6c0-1.108-.892-2-2-2h-8zm0 2h8v6h-8v-6z" fill="#fff" style="paint-order:stroke fill markers"/><rect x="28" y="18" width="8" height="6" rx="0" ry="0" fill="#fff" opacity=".5" stroke-width=".632" style="paint-order:stroke fill markers"/><path d="M17 36c-1.108 0-2 .892-2 2v6c0 1.108.892 2 2 2h8c1.108 0 2-.892 2-2v-6c0-1.108-.892-2-2-2zm0 2h8v6h-8z" fill="#fff" style="paint-order:stroke fill markers"/><rect x="17" y="38" width="8" height="6" rx="0" ry="0" fill="#fff" opacity=".5" stroke-width=".632" style="paint-order:stroke fill markers"/><path d="M39 36c-1.108 0-2 .892-2 2v6c0 1.108.892 2 2 2h8c1.108 0 2-.892 2-2v-6c0-1.108-.892-2-2-2zm0 2h8v6h-8z" fill="#fff" style="paint-order:stroke fill markers"/><rect x="39" y="38" width="8" height="6" rx="0" ry="0" fill="#fff" opacity=".5" stroke-width=".632" style="paint-order:stroke fill markers"/></svg>