<svg xmlns="http://www.w3.org/2000/svg" xmlns:xlink="http://www.w3.org/1999/xlink" width="64" height="64"><defs><linearGradient xlink:href="#a" id="c" x1="-444.82" x2="-96.628" y1="-126.47" y2="-126.47" gradientTransform="matrix(.10498 0 0 .10477 50.7 51.197)"/><linearGradient id="a" gradientUnits="userSpaceOnUse"><stop offset="0" stop-color="#c0bfbc"/><stop offset=".895" stop-color="#c0bfbc"/><stop offset=".942" stop-color="#deddda"/><stop offset="1" stop-color="#9a9996"/></linearGradient><linearGradient xlink:href="#a" id="d" x1="-444.82" x2="-96.628" y1="-126.47" y2="-126.47" gradientTransform="matrix(.10498 0 0 -.10477 50.7 51.197)"/><linearGradient id="b" gradientUnits="userSpaceOnUse"><stop offset="0"/><stop offset="1" stop-opacity="0"/></linearGradient><linearGradient xlink:href="#b" id="e" x1="-444.82" x2="-96.628" y1="-126.47" y2="-126.47" gradientTransform="matrix(.10498 0 0 .10477 50.7 51.197)"/><linearGradient xlink:href="#b" id="g" x1="-444.82" x2="-96.628" y1="-126.47" y2="-126.47" gradientTransform="matrix(.10498 0 0 -.10477 50.7 51.197)"/></defs><rect width="54" height="54" x="5" y="5" fill="#525252" rx="27" ry="27"/><g stroke-width=".571"><path fill="#f6f5f4" d="M28.729 32.767h3.1v12.402h-3.1z"/><path fill="url(#c)" d="M29.52 42.113h5.88v1.678h-5.88zm0-4.19h5.88v1.675h-5.88zm0-4.19h5.88v1.675h-5.88zm0-4.193h5.88v1.678h-5.88zm0-4.19h5.88v1.676h-5.88zm-19.317-4.19H35.4v1.676H10.203zm0-4.192H26.16v1.678H10.203zm0-4.19H26.16v1.675H10.203z" transform="translate(11.286 9.132)scale(.67857)"/><path fill="url(#d)" d="M10.203 46.305H27.84V25.337H10.203z" transform="translate(11.286 9.132)scale(.67857)"/><path fill="url(#d)" d="M10.203 46.305H27.84V25.337H10.203z" transform="translate(11.286 9.132)scale(.67857)"/><path fill="url(#e)" d="M29.52 42.113h5.88v1.678h-5.88zm0-4.19h5.88v1.675h-5.88zm0-4.19h5.88v1.675h-5.88zm0-4.193h5.88v1.678h-5.88zm0-4.19h5.88v1.676h-5.88zm-19.317-4.19H35.4v1.676H10.203zm0-4.192H26.16v1.678H10.203zm0-4.19H26.16v1.675H10.203z" transform="translate(11.286 9.132)scale(.67857)"/><path fill="url(#g)" d="M10.203 46.305H27.84V25.337H10.203z" transform="translate(11.286 9.132)scale(.67857)"/><path fill="url(#g)" d="M10.203 46.305H27.84V25.337H10.203z" transform="translate(11.286 9.132)scale(.67857)"/><path fill="#deddda" d="M30.496 16.841V23.1c0 1.26 1.026 2.252 2.286 2.252l6.257-.001z"/><path fill="#deddda" d="M16.276 16.841h14.22l8.31 8.562v20.93c0 1.26-.795 2.36-2.055 2.36H16.276A2.27 2.27 0 0 1 14 46.417v-27.3a2.27 2.27 0 0 1 2.276-2.275z"/><path fill="#c0bfbc" d="M17.876 42.844h8.527v1.55h-8.527zm0-3.101H36.48v1.55H17.876zm0-3.1H36.48v1.55H17.876z"/><path fill="#9a9996" d="M27.178 28.116h6.201v1.55h-6.2z"/><path fill="#c0bfbc" d="M17.876 20.364h8.527v1.55h-8.527zm0 3.101h9.302v1.55h-9.302z"/><path fill="#9a9996" d="M27.178 31.217h8.527v1.55h-8.527z"/><path fill="#f6f5f4" d="M29.237 13c-1.26 0-2.06 1.066-2.06 2.326V45.17h2.326V32.767h2.326v9.302h2.325v-9.302h2.326v4.65h2.325v-4.65h1.938V45.17h2.326V32.767h1.938v14.728h2.325V32.767h2.326V45.17h2.325V32.767L52 21.507 43.457 13z"/><path fill="#deddda" d="M43.457 13v6.256c0 1.261 1.026 2.254 2.288 2.254H52z"/><path fill="#f6f5f4" d="M45.007 32.767h2.325v12.402h-2.325z"/><path fill="#6155be" d="M17.876 26.565h7.752v5.426h-7.752z"/><path fill="#c0bfbc" d="M30.278 15.713h8.527v1.55h-8.527zm0 3.101h10.078v1.55H30.278zm9.303 6.976h9.302v1.55H39.58zm0-3.1h6.201v1.55h-6.201zM17.876 33.542h9.302v1.55h-9.302zm12.402-4.652h18.605v1.55H30.278z"/><path fill="#8770d6" d="M30.278 21.914h7.752v5.426h-7.752z"/></g></svg>