<svg width="64" height="64" enable-background="new" version="1.0" viewBox="0 0 64 64" xmlns="http://www.w3.org/2000/svg">
 <title>Adwaita Icon Template</title>
 <circle cx="32" cy="32" r="27" fill="#241f31" stroke-width="3.7796" style="paint-order:stroke fill markers"/>
 <text x="43.500004" y="13.000002" fill="#000000" font-family="sans-serif" font-size="20px" letter-spacing="0px" word-spacing="0px" style="line-height:1.25" xml:space="preserve"><tspan x="43.500004" y="30.695314"/></text>
 <circle cx="32" cy="32" r="24" fill="#454050" stroke-width="3.3596" style="paint-order:stroke fill markers"/>
 <path d="m9.4043 24a24 24 0 0 0-1.4043 8 24 24 0 0 0 24 24 24 24 0 0 0 24-24 24 24 0 0 0-1.4004-8h-45.195z" fill="#ec8e12" stroke-width="3.3596" style="paint-order:stroke fill markers"/>
 <g transform="translate(0 -.9999)" fill="none" stroke="#fff" stroke-linecap="round" stroke-width="2">
  <path d="m17 34v-5h6" enable-background="new"/>
  <path d="m47 34v-5h-6" enable-background="new"/>
  <path d="m47 42v5h-6" enable-background="new"/>
  <path d="m17 42v5h6" enable-background="new"/>
 </g>
 <circle cx="43" cy="15" r="2" enable-background="new" fill="#ed333b" stroke-width=".66667"/>
 <rect x="27" y="14" width="10" height="2" fill="#deddda"/>
</svg>
