<svg width="64" height="64" version="1.1" viewBox="0 0 64 64" xmlns="http://www.w3.org/2000/svg">
 <style type="text/css">.st0{fill:#F08705;}
	.st1{fill:#DF6C0C;}
	.st2{fill:#FFFFFF;}
	.st3{fill:#333333;}</style>
 <circle cx="32" cy="32" r="27" fill="#f08705" style="paint-order:stroke fill markers"/>
 <circle cx="32" cy="32" r="23" fill="#fff" opacity=".1" stroke-width=".85185" style="paint-order:stroke fill markers"/>
 <path d="m27 25-6.5063 11h3.375l5.8262-9.9512h4.6445l5.8594 9.9512h3.3613l-6.5601-11z" fill="#fff" opacity=".5" stroke-width=".33418"/>
 <path d="m28 16c-1.108 0-2 0.892-2 2v6c0 1.108 0.892 2 2 2h8c1.108 0 2-0.892 2-2v-6c0-1.108-0.892-2-2-2h-8zm0 2h8v6h-8v-6z" fill="#fff" style="paint-order:stroke fill markers"/>
 <rect x="28" y="18" width="8" height="6" rx="0" ry="0" fill="#fff" opacity=".5" stroke-width=".63246" style="paint-order:stroke fill markers"/>
 <path d="m17 36c-1.108 0-2 0.892-2 2v6c0 1.108 0.892 2 2 2h8c1.108 0 2-0.892 2-2v-6c0-1.108-0.892-2-2-2zm0 2h8v6h-8z" fill="#fff" style="paint-order:stroke fill markers"/>
 <rect x="17" y="38" width="8" height="6" rx="0" ry="0" fill="#fff" opacity=".5" stroke-width=".63246" style="paint-order:stroke fill markers"/>
 <path d="m39 36c-1.108 0-2 0.892-2 2v6c0 1.108 0.892 2 2 2h8c1.108 0 2-0.892 2-2v-6c0-1.108-0.892-2-2-2zm0 2h8v6h-8z" fill="#fff" style="paint-order:stroke fill markers"/>
 <rect x="39" y="38" width="8" height="6" rx="0" ry="0" fill="#fff" opacity=".5" stroke-width=".63246" style="paint-order:stroke fill markers"/>
</svg>
