<svg width="64" height="64" version="1.1" xmlns="http://www.w3.org/2000/svg">
 <circle cx="32" cy="32" r="27" fill="#99979b" stroke-width="0" style="paint-order:stroke fill markers"/>
 <g transform="matrix(.64 0 0 .64 11.52 10.6)">
  <rect x="7" y="22" width="50" height="38" rx="4.4" ry="4.4" fill="#5e5c64"/>
  <path d="m11 32h42v24h-42z" fill="#e5e5e5"/>
  <path d="m15.578 33.762 25.096-20.299c1.1579-0.9383 2.8337-0.77504 3.7532 0.36406l10.408 12.864-1.6082 14.052-19.344 15.647c-1.1597 0.9383-2.8337 0.77503-3.7551-0.36218l-14.979-18.518c-0.91953-1.1391-0.73-2.8093 0.42974-3.7476z" fill="#ffffff"/>
  <path d="m17.256 35.836 14.964 18.499 19.344-15.647-2.8824-3.5655c-0.92141-1.1391-0.72999-2.8111 0.42786-3.7476l3.6594-2.9594-10.417-12.881z" fill="#e7822b"/>
  <rect x="7" y="10" width="50" height="38" rx="4.4" ry="4.4" fill="#cbcccd"/>
  <circle cx="32" cy="30" r="9" fill="#a0a0a0"/>
  <path d="m17.256 36.139 14.964 18.499 19.344-15.647-2.8824-3.5655c-0.92141-1.1391-0.72999-2.8111 0.42786-3.7476l3.6594-2.9594-10.417-12.881z" fill-opacity="0"/>
  <circle cx="32" cy="27" r="9" fill="#fafafa"/>
  <path d="m29.499 18.498-0.49931 1.0003 0.49931 1.0003-0.49931 1.0003 0.49931 1.0003-0.49931 1.0003 0.49931 1.0003-0.49931 1.0003 0.49931 1.0003-0.49931 1.0003v0.49932c0 1.0725 0.57158 2.063 1.4996 2.5984 0.92801 0.53545 2.0728 0.53545 3.0008 0s1.4996-1.5259 1.4996-2.5984v-1.4996l-0.49931-1.0003 0.49931-1.0003-0.49931-1.0003 0.49931-1.0003-0.49931-1.0003 0.49931-1.0003-0.49931-1.0003 0.49931-1.0003-0.49931-1.0003z" fill="#a0a0a0"/>
  <path d="m34.502 21.498s-0.67729 1.8305-2.4561 2.0111c-1.7805 0.17903-2.5466-1.0106-2.5466-1.0106l-0.49776 1.0005s1.0455 1.3912 3.0444 1.2746c1.9973-0.11497 2.8931-2.2554 2.9539-2.2751zm0 2.0011s-0.67729 1.828-2.4561 2.0086c-1.7805 0.17903-2.5466-1.0081-2.5466-1.0081l-0.49776 1.0005s1.0455 1.3912 3.0444 1.2746c1.9973-0.11662 2.8931-2.2554 2.9539-2.2751zm0 2.0011s-0.72254 1.828-2.5014 2.0086c-1.7805 0.17903-2.5014-1.0081-2.5014-1.0081l-0.49776 1.0005s1.0002 1.3912 2.9991 1.2746c1.9973-0.11662 2.9383-2.257 2.9991-2.2751z" fill="#ffffff" fill-opacity=".38189"/>
  <path d="M 32.257774,16.415912 49,4" fill="#ffffff" stroke="#eaeaea" stroke-linecap="round" stroke-width="4"/>
  <path d="M 32.625058,17.106823 15,4" fill="#ffffff" stroke="#eaeaea" stroke-linecap="round" stroke-width="4"/>
  <circle cx="32" cy="18" r="7" fill="#a0a0a0"/>
  <circle cx="32" cy="15.906" r="7" opacity=".2"/>
  <path d="m15 30 10-8" fill="#ffffff" stroke="#eaeaea" stroke-linecap="round" stroke-width="4"/>
  <path d="m49 30-10-8" fill="#ffffff" stroke="#eaeaea" stroke-linecap="round" stroke-width="4"/>
  <circle cx="32" cy="14.906" r="7" fill="#ffffff"/>
 </g>
</svg>
