<svg width="64pt" height="64pt" style="isolation:isolate" version="1.1" viewBox="0 0 64 64" xmlns="http://www.w3.org/2000/svg">
 <rect x="5" y="5" width="54" height="54" rx="27" ry="27" fill="#d2d2d1" stroke-width="1.0286"/>
 <rect width="512" height="512" fill="#404040" fill-opacity="0"/>
 <rect x="8" y="8" width="48" height="48" rx="24" ry="24" fill="#ffffff" opacity=".15" stroke-width=".91429"/>
 <path transform="scale(.75)" d="m59.117 39.896c-2.3626 3.4265-3.4056 5.7734-6.6816 6.2031-3.2707 0.42956-4.8825-1.5648-8.0508-4.2617l-6.7129 3.875c0.75204 4.0837 1.673 6.4869-0.33203 9.1035-2.0264 2.6372-4.6328 2.3582-8.7109 2.6836l-2.0078 7.4863c3.4151 2.3523 5.7715 3.4056 6.2012 6.6816l0.001953 0.001953c0.27399 2.0807-0.46203 3.5176-1.7227 5.1016 3.628 1.2227 7.5138 1.8945 11.564 1.8945 3.1284 0 6.1607-0.39553 9.0508-1.1387-1.8722-0.78142-3.5168-2.1506-4.6094-4.043-2.648-4.5863-1.0746-10.452 3.5117-13.1 1.4333-0.82745 2.9913-1.2431 4.5371-1.2832 3.4008-0.088226 6.7401 1.6399 8.5605 4.793 1.3273 2.299 1.5942 4.9195 0.95312 7.2949 6.3944-4.9322 11.066-11.971 13.002-20.098-3.6304 0.7111-5.9373 1.399-8.3848-0.47656v-0.001953c-2.6199-2.0059-2.3527-4.543-2.6855-8.7109l-7.4844-2.0059z" fill="#bab9b6"/>
 <path transform="scale(.75)" d="m42.666 6.666c-3.1177 0-6.1402 0.39456-9.0215 1.1328 1.1014 0.46695 2.1351 1.143 3.0332 2.041 3.7448 3.7448 3.7448 9.8192 0 13.564-3.7448 3.7448-9.8154 3.7448-13.561 0-2.5033-2.5033-3.324-6.0449-2.4805-9.2383-6.5566 5.0674-11.301 12.35-13.131 20.75l4.7891 4.7891c3.7599-1.7869 5.8317-3.2904 8.8984-2.0273l0.001953 0.001954c3.0277 1.2509 3.4204 3.7664 4.8242 7.7129l7.75-0.003906c1.3883-3.9108 1.7943-6.454 4.8457-7.7188 3.048-1.2613 5.1335 0.25169 8.8867 2.0352l5.4785-5.4785c-1.8038-3.794-3.291-5.8429-2.0332-8.8809v-0.001953c1.2614-3.0482 3.7878-3.4475 7.7207-4.8477v-7.7461c-3.9043-1.3883-6.4561-1.7948-7.7207-4.8496-0.041807-0.101-0.069954-0.19799-0.10547-0.29688-2.6262-0.6057-5.3604-0.9375-8.1758-0.9375z" fill="#969592"/>
</svg>
