<svg width="64" height="64" version="1.1" viewBox="0 0 64 64" xmlns="http://www.w3.org/2000/svg">
 <rect x="5" y="5" width="54" height="54" rx="27" ry="27" fill="#f43d53" stroke-width="3.6445"/>
 <path d="m26.039 24c-0.04576 0.03106-0.05483 15.936-0.0098 15.986 0.017 0.0184 0.06562 0.0177 0.10742 0 0.04182-0.0178 2.7848-1.5733 6.0957-3.457v2e-3c7.9372-4.5159 7.7676-4.4172 7.7676-4.5078 0-0.08484-13.893-8.0694-13.961-8.0234z" fill="#ffffff" stroke-width="1.5811"/>
 <path d="m12 13.826c-0.90205 0.99267-1.7275 2.0537-2.4746 3.1738h2.4746v-3.1738zm40 0v3.1738h2.4746c-0.74713-1.1201-1.5726-2.1812-2.4746-3.1738zm-43 5.1738v5h3v-5h-3zm43 0v5h3v-5h-3zm-43 7v5h3v-5h-3zm43 0v5h3v-5h-3zm-43 7v5h3v-5h-3zm43 0v5h3v-5h-3zm-43 7v5h3v-5h-3zm43 0v5h3v-5h-3zm-42.475 7c0.74713 1.1201 1.5726 2.1812 2.4746 3.1738v-3.1738h-2.4746zm42.475 0v3.1738c0.90205-0.99267 1.7275-2.0537 2.4746-3.1738h-2.4746z" fill="#ffffff"/>
</svg>
