<?xml version="1.0" encoding="UTF-8"?>
<svg width="64" height="64" version="1.1" viewBox="0 0 64 64" xmlns="http://www.w3.org/2000/svg">
 <defs>
  <style id="current-color-scheme" type="text/css">.ColorScheme-Text {
        color:#4d4d4d;
      }</style>
 </defs>
 <g transform="matrix(3.7796 0 0 3.7796 -7.1515e-8 -1.0965e-6)" stroke-width="3.78">
  <path transform="scale(.26458)" d="m51.062 12.941-2.799 2.8c8.982 8.983 8.982 23.546 0 32.528l2.807 2.806a27 27 0 0 0 0.86-37.277 27 27 0 0 0-0.868-0.857zm7.828 16.674 0.018 0.232c-6e-3 -0.077-0.011-0.155-0.018-0.232zm0.104 2.674-8e-3 0.267c2e-3 -0.089 7e-3 -0.178 8e-3 -0.267zm-0.162 2.674a22.5 22.5 0 0 1-0.034 0.275zm-0.44 2.72-0.031 0.139zm-0.705 2.631-0.027 0.084zm-3.582 7.19-0.086 0.12zm-1.627 2.086c-0.063 0.074-0.126 0.149-0.19 0.222 0.065-0.073 0.127-0.149 0.19-0.222z" fill="#5ad85d" style="paint-order:stroke fill markers"/>
  <path transform="scale(.26458)" d="m51.061 12.943-2.797 2.799c6.456 6.455 8.272 15.795 5.447 23.873 0.072-0.205 0.147-0.407 0.213-0.615l3.813 1.207a27 27 0 0 0 1.074-5.065 27 27 0 0 0 0.184-2.822v-0.031a27 27 0 0 0-7.934-19.346zm2.65 26.672a22.907 22.907 0 0 1-5.447 8.654l0.022 0.022a22.87 22.87 0 0 0 5.425-8.676zm5.18-10 0.018 0.232c-6e-3 -0.077-0.011-0.155-0.018-0.232zm-1.203 10.699-0.027 0.084zm-3.582 7.19-0.086 0.12zm-1.627 2.085c-0.063 0.074-0.126 0.15-0.19 0.223 0.065-0.073 0.127-0.149 0.19-0.223z" fill="#ffce3d" style="paint-order:stroke fill markers"/>
  <path transform="scale(.26458)" d="m51.072 12.932-2.809 2.81a22.884 22.884 0 0 1 5.952 10.311l3.863-1.035a27 27 0 0 0-7.006-12.086zm3.404 14.209 0.026 0.111zm0.211 1.107 0.028 0.17zm0.139 0.977c0.016 0.137 0.037 0.273 0.05 0.41-0.014-0.137-0.033-0.273-0.05-0.41zm4.064 0.39 0.018 0.233c-6e-3 -0.077-0.01-0.155-0.018-0.232zm-3.964 0.604c0.015 0.2 0.032 0.4 0.043 0.6-0.01-0.2-0.028-0.4-0.043-0.6zm0.054 0.961c0.01 0.264 0.02 0.527 0.02 0.791 0-0.263-0.01-0.527-0.02-0.791zm0.016 1.006m3.998 0.103-8e-3 0.268c2e-3 -0.09 7e-3 -0.178 8e-3 -0.268zm-4.04 1.106m-0.097 1.139a23.03 23.03 0 0 1-0.09 0.742c0.036-0.246 0.063-0.494 0.09-0.742zm3.975 0.43a22.5 22.5 0 0 1-0.033 0.275l0.033-0.276zm-4.131 0.72c-0.034 0.211-0.068 0.423-0.108 0.633 0.04-0.21 0.074-0.422 0.108-0.633zm3.691 2-0.031 0.139zm-0.705 2.631-0.027 0.084zm-1.209 3.068-0.101 0.21a27 27 0 0 0 0.101-0.21zm-1.246 2.368c-0.045 0.077-0.094 0.15-0.14 0.226a27 27 0 0 0 0.14-0.226zm-5.064 0.353-0.166 0.213c0.056-0.07 0.11-0.142 0.166-0.213zm-0.602 0.74c-0.117 0.138-0.233 0.277-0.353 0.412 0.12-0.135 0.236-0.273 0.353-0.412zm4.54 0.66-0.087 0.122 0.086-0.122zm-5.25 0.143m4.898 0.336-0.166 0.223a27 27 0 0 0 0.166-0.223zm-1.276 1.607c-0.063 0.074-0.125 0.15-0.19 0.223 0.065-0.073 0.127-0.149 0.19-0.223zm-0.465 0.53-0.097 0.105a27 27 0 0 0 0.097-0.105z" fill="#ff584c" style="paint-order:stroke fill markers"/>
 </g>
 <path d="m51.093 12.911a27.001 27.001 0 0 0-38.185 0 27.001 27.001 0 0 0 0 38.185 27.001 27.001 0 0 0 38.185 0l-2.8271-2.8271a22.999 22.999 0 0 0 0-32.527zm7.7973 16.706 0.0189 0.23056a27.001 27.001 0 0 0-0.0189-0.23056zm0.10583 2.6722-0.0076 0.26457a27.001 27.001 0 0 0 0.0076-0.26457zm-0.16252 2.6722-0.0378 0.27591a27.001 27.001 0 0 0 0.0378-0.27591zm-0.44221 2.7213-0.03024 0.13984a27.001 27.001 0 0 0 0.03024-0.13984zm-0.70301 2.6306-0.02646 0.08315a27.001 27.001 0 0 0 0.02646-0.08315zm-3.5831 7.1926-0.08315 0.11717a27.001 27.001 0 0 0 0.08315-0.11717zm-1.6252 2.0863-0.18898 0.21922a27.001 27.001 0 0 0 0.18898-0.21922z" fill="#387fe7" stroke-width="3.7796" style="paint-order:stroke fill markers"/>
 <circle cx="32" cy="32" r="16" fill="#fff" opacity=".2" stop-color="#000000" stroke-linecap="round" stroke-linejoin="round" stroke-width="1.9105"/>
 <path d="m32 22.016c-2.7614 0-5 2.2386-5 5s2.2386 5 5 5 5-2.2386 5-5-2.2386-5-5-5zm0 2c1.6569 0 3 1.3431 3 3s-1.3431 3-3 3-3-1.3431-3-3 1.3431-3 3-3zm-5.1816 10c-1.561 0-2.8184 1.2573-2.8184 2.8184v5.1816h2v-6h12v6h2v-5.1816c0-1.5611-1.2573-2.8183-2.8184-2.8184z" fill="#fff"/>
</svg>
