<svg xmlns="http://www.w3.org/2000/svg" width="64" height="64" viewBox="0 0 16.933 16.933"><defs><linearGradient id="a" x1="14.679" x2="2.293" y1="293.79" y2="282.98" gradientTransform="matrix(.96424 0 0 1.17387 .302 -330.239)" gradientUnits="userSpaceOnUse"><stop offset="0" stop-color="#66bcff"/><stop offset="1" stop-color="#b29aff"/></linearGradient></defs><rect width="14.287" height="14.287" x="1.323" y="1.323" fill="url(#a)" rx="7.144" ry="7.144" style="fill:url(#a);stroke-width:1.02785"/><rect width="7.408" height="1.058" x="4.762" y="2.646" opacity=".35" rx=".529" ry=".529" style="stroke-width:.720088"/><rect width="2.646" height=".529" x="7.144" y="2.911" opacity=".35" ry=".265" style="paint-order:stroke markers fill"/><path d="M1.5 10.053a7.126 7.126 0 0 0 6.967 5.557 7.126 7.126 0 0 0 6.965-5.557z" style="stroke-width:1.33011;paint-order:stroke fill markers;fill:#fff;opacity:.35"/><rect width="2.381" height="2.381" x="2.646" y="8.466" fill="#ebf2ff" rx=".529" ry=".529" style="paint-order:stroke markers fill"/><rect width="2.381" height="2.381" x="5.821" y="9.26" fill="#ccdfff" rx=".529" ry=".529" style="paint-order:stroke markers fill"/><rect width="2.381" height="2.381" x="8.996" y="9.26" fill="#ccdfff" rx=".529" ry=".529" style="paint-order:stroke markers fill"/><rect width="2.381" height="2.381" x="12.171" y="9.26" fill="#ccdfff" rx=".529" ry=".529" style="paint-order:stroke markers fill"/><circle cx="3.836" cy="11.508" r=".397" fill="#fff" fill-rule="evenodd" style="paint-order:stroke fill markers"/><path fill="#fff" d="m3.836 7.672-.529.53h1.059z"/></svg>