<svg xmlns="http://www.w3.org/2000/svg" width="64" height="64" viewBox="0 0 16.933 16.933"><defs><linearGradient id="a" x1="14.679" x2="2.293" y1="293.79" y2="282.98" gradientTransform="matrix(.96424 0 0 1.17387 .302 -330.239)" gradientUnits="userSpaceOnUse"><stop offset="0" stop-color="#66bcff"/><stop offset="1" stop-color="#b29aff"/></linearGradient></defs><rect width="14.287" height="14.287" x="1.323" y="1.323" fill="url(#a)" rx="7.144" ry="7.144" style="fill:url(#a);stroke-width:1.02785"/><path d="M1.713 6.822q-.1.003-.201.008a7.2 7.2 0 0 0-.19 1.636 7.13 7.13 0 0 0 7.145 7.144 7.12 7.12 0 0 0 4.105-1.292A11.64 11.64 0 0 0 1.714 6.822z" style="paint-order:stroke markers fill;fill:#fff;opacity:.25"/><rect width="12.171" height="12.171" x="2.381" y="2.381" fill="url(#a)" rx="6.085" ry="6.085" style="opacity:.1;fill:#fff;stroke-width:.875576"/><path d="M15.602 8.792a11.64 11.64 0 0 0-8.64 6.659c.484.103.988.16 1.505.16a7.127 7.127 0 0 0 7.135-6.82" style="paint-order:stroke markers fill;fill:#fff;opacity:.25"/><circle cx="10.98" cy="5.424" r="1.455" fill="#ffdb8a" style="paint-order:stroke markers fill"/></svg>