<svg xmlns="http://www.w3.org/2000/svg" width="64" height="64"><rect width="54" height="54" x="5" y="5" fill="#ba9478" rx="27" ry="27" style="stroke-width:1.03846"/><rect width="46" height="46" x="9" y="9" fill="#fff4ab" rx="23" ry="23"/><path d="M15.457 16q-.919.95-1.725 2h36.536a23 23 0 0 0-1.725-2zm-4.19 6q-.469.975-.847 2h43.16a23 23 0 0 0-.848-2zM9.35 28q-.172.986-.258 2h45.816a23 23 0 0 0-.258-2zm-.258 6q.086 1.014.258 2h45.3q.172-.986.258-2zm1.328 6q.378 1.025.848 2h41.464q.47-.975.848-2zm3.312 6q.806 1.05 1.725 2h33.086q.919-.95 1.725-2z" style="paint-order:stroke fill markers;fill:#e4d66a;fill-opacity:1"/><path d="M22 11.268q-1.03.496-2 1.09v39.285q.97.592 2 1.09z" style="fill:#e6b2a9;fill-opacity:1"/></svg>