<?xml version="1.0" encoding="UTF-8" standalone="no"?>
<svg
   width="64"
   height="64"
   version="1.0"
   id="svg11"
   sodipodi:docname="cs-input-method.svg"
   inkscape:version="1.4 (e7c3feb100, 2024-10-09)"
   xmlns:inkscape="http://www.inkscape.org/namespaces/inkscape"
   xmlns:sodipodi="http://sodipodi.sourceforge.net/DTD/sodipodi-0.dtd"
   xmlns="http://www.w3.org/2000/svg"
   xmlns:svg="http://www.w3.org/2000/svg">
  <defs
     id="defs11" />
  <sodipodi:namedview
     id="namedview11"
     pagecolor="#ffffff"
     bordercolor="#000000"
     borderopacity="0.25"
     inkscape:showpageshadow="2"
     inkscape:pageopacity="0.0"
     inkscape:pagecheckerboard="0"
     inkscape:deskcolor="#d1d1d1"
     showgrid="true"
     inkscape:zoom="5.5"
     inkscape:cx="49.181818"
     inkscape:cy="32"
     inkscape:window-width="1920"
     inkscape:window-height="1012"
     inkscape:window-x="0"
     inkscape:window-y="0"
     inkscape:window-maximized="1"
     inkscape:current-layer="svg11">
    <inkscape:grid
       id="grid11"
       units="px"
       originx="0"
       originy="0"
       spacingx="1"
       spacingy="1"
       empcolor="#0099e5"
       empopacity="0.30196078"
       color="#0099e5"
       opacity="0.14901961"
       empspacing="5"
       enabled="true"
       visible="true" />
  </sodipodi:namedview>
  <rect
     width="54"
     height="54"
     x="5"
     y="5"
     fill="#dadada"
     rx="27"
     ry="27"
     id="rect1"
     style="stroke-width:1.03846" />
  <g
     id="g11"
     transform="matrix(0.90271985,0,0,0.90271985,3.671297,5.7667274)">
    <path
       d="m 12.81,10.619 a 1.853,1.853 0 0 0 -1.857,1.857 v 9.905 c 0,1.029 0.828,1.857 1.857,1.857 h 1.857 v 11.143 h -0.619 a 1.853,1.853 0 0 0 -1.857,1.857 v 9.905 c 0,1.029 0.828,1.857 1.857,1.857 h 34.667 a 1.853,1.853 0 0 0 1.857,-1.857 V 36.618 h 0.62 a 1.853,1.853 0 0 0 1.856,-1.856 V 24.857 A 1.853,1.853 0 0 0 51.191,23 H 49.334 V 12.476 a 1.853,1.853 0 0 0 -1.857,-1.857 z"
       color="#000000"
       opacity="0.25"
       id="path1" />
    <rect
       width="8.6669998"
       height="8.6669998"
       x="13.095"
       y="-22.094999"
       fill="#e7e7e7"
       rx="0.78799999"
       ry="0.78799999"
       transform="rotate(90)"
       id="rect2" />
    <rect
       width="8.6669998"
       height="8.6669998"
       x="13.095"
       y="-34.476002"
       fill="#e7e7e7"
       rx="0.78799999"
       ry="0.78799999"
       transform="rotate(90)"
       id="rect3" />
    <rect
       width="8.6669998"
       height="8.6669998"
       x="13.095"
       y="-46.856998"
       fill="#e7e7e7"
       rx="0.78799999"
       ry="0.78799999"
       transform="rotate(90)"
       id="rect4" />
    <rect
       width="8.6669998"
       height="8.6669998"
       x="25.476"
       y="-25.809999"
       fill="#e7e7e7"
       rx="0.78799999"
       ry="0.78799999"
       transform="rotate(90)"
       id="rect5" />
    <rect
       width="8.6669998"
       height="8.6669998"
       x="25.476"
       y="-38.189999"
       fill="#e7e7e7"
       rx="0.78799999"
       ry="0.78799999"
       transform="rotate(90)"
       id="rect6" />
    <rect
       width="8.6669998"
       height="8.6669998"
       x="25.476"
       y="-50.570999"
       fill="#e7e7e7"
       rx="0.78799999"
       ry="0.78799999"
       transform="rotate(90)"
       id="rect7" />
    <rect
       width="8.6669998"
       height="8.6669998"
       x="37.856998"
       y="-48.095001"
       fill="#e7e7e7"
       rx="0.78799999"
       ry="0.78799999"
       transform="rotate(90)"
       id="rect8" />
    <path
       fill="#e7e7e7"
       d="m 35.714,38.645 v 7.09 a 0.786,0.786 0 0 1 -0.788,0.789 H 15.454 a 0.786,0.786 0 0 1 -0.788,-0.788 v -7.091 c 0,-0.436 0.352,-0.788 0.788,-0.788 h 19.472 c 0.437,0 0.788,0.352 0.788,0.788"
       id="path8" />
    <path
       fill="#666666"
       d="m 19.225,19.558 -0.487,-1.245 h -1.94 l -0.49,1.245 H 15.71 l 1.738,-4.259 h 0.656 l 1.71,4.259 z m -1.205,-3.101 -0.094,-0.245 -0.157,-0.478 -0.027,0.085 -0.058,0.172 a 6,6 0 0 1 -0.078,0.227 l -0.088,0.245 -0.544,1.4 h 1.593 z m 1.083,24.095 q -0.363,0 -0.644,0.12 -0.277,0.122 -0.468,0.346 -0.188,0.223 -0.284,0.538 -0.097,0.315 -0.097,0.698 0,0.383 0.103,0.704 0.105,0.318 0.299,0.547 0.196,0.23 0.477,0.357 0.284,0.127 0.638,0.127 0.248,0 0.45,-0.064 0.206,-0.066 0.37,-0.184 0.165,-0.118 0.296,-0.278 0.13,-0.163 0.23,-0.36 l 0.47,0.236 a 2.2,2.2 0 0 1 -0.283,0.444 1.8,1.8 0 0 1 -0.4,0.357 q -0.226,0.15 -0.516,0.239 A 2.3,2.3 0 0 1 19.1,44.463 q -0.517,0 -0.907,-0.163 a 1.8,1.8 0 0 1 -0.65,-0.46 2,2 0 0 1 -0.39,-0.7 2.9,2.9 0 0 1 -0.13,-0.886 2.8,2.8 0 0 1 0.136,-0.901 q 0.14,-0.402 0.402,-0.683 0.267,-0.285 0.653,-0.435 a 2.4,2.4 0 0 1 0.883,-0.155 q 0.68,0.001 1.136,0.266 0.457,0.266 0.671,0.79 l -0.547,0.18 q -0.06,-0.15 -0.163,-0.286 a 1,1 0 0 0 -0.257,-0.245 1.3,1.3 0 0 0 -0.363,-0.17 1.6,1.6 0 0 0 -0.471,-0.063 m 3.755,3.827 a 2,2 0 0 1 -0.55,0.073 q -0.653,0 -0.653,-0.741 v -2.182 h -0.378 v -0.396 h 0.4 l 0.16,-0.732 h 0.362 v 0.732 h 0.605 v 0.396 h -0.605 v 2.064 q 0,0.236 0.076,0.333 0.078,0.093 0.269,0.093 a 1,1 0 0 0 0.15,-0.012 q 0.077,-0.012 0.164,-0.03 z m 0.471,0.024 v -2.509 l -0.003,-0.208 a 7,7 0 0 0 -0.01,-0.396 l -0.005,-0.158 h 0.514 l 0.006,0.16 q 0.006,0.09 0.009,0.182 0.006,0.094 0.006,0.181 l 0.003,0.145 h 0.012 q 0.058,-0.186 0.121,-0.323 a 0.8,0.8 0 0 1 0.154,-0.227 0.5,0.5 0 0 1 0.209,-0.133 0.84,0.84 0 0 1 0.42,-0.033 q 0.06,0.009 0.094,0.018 v 0.499 a 1.3,1.3 0 0 0 -0.29,-0.03 0.6,0.6 0 0 0 -0.321,0.084 0.66,0.66 0 0 0 -0.215,0.236 1.2,1.2 0 0 0 -0.12,0.357 q -0.04,0.206 -0.04,0.45 v 1.705 z m 2.056,0 v -4.486 h 0.544 v 4.486 z m 6.457,-24.845 h -3.391 v -0.432 l 2.593,-3.355 H 28.671 V 15.299 H 31.7 v 0.42 l -2.594,3.367 h 2.736 z m 9.125,0 v -4.259 h 3.231 v 0.472 h -2.654 v 1.366 h 2.473 v 0.465 h -2.473 v 1.484 h 2.778 v 0.472 z M 23.592,29.79 q 0,0.45 -0.118,0.825 a 2,2 0 0 1 -0.335,0.653 q -0.218,0.281 -0.538,0.46 a 2,2 0 0 1 -0.723,0.23 q 0.064,0.192 0.142,0.329 0.082,0.136 0.185,0.22 0.102,0.088 0.226,0.127 a 0.9,0.9 0 0 0 0.281,0.043 q 0.085,0 0.182,-0.012 0.097,-0.012 0.166,-0.028 v 0.405 a 2.5,2.5 0 0 1 -0.538,0.067 1.2,1.2 0 0 1 -0.453,-0.079 1,1 0 0 1 -0.342,-0.22 1.3,1.3 0 0 1 -0.25,-0.351 3,3 0 0 1 -0.188,-0.472 2.2,2.2 0 0 1 -0.84,-0.196 1.8,1.8 0 0 1 -0.602,-0.465 2,2 0 0 1 -0.36,-0.684 2.9,2.9 0 0 1 -0.12,-0.852 q 0,-0.499 0.138,-0.9 0.14,-0.403 0.408,-0.684 0.27,-0.284 0.662,-0.435 0.396,-0.154 0.907,-0.154 0.509,0 0.9,0.154 0.398,0.154 0.663,0.438 0.27,0.285 0.408,0.686 0.14,0.402 0.139,0.895 m -0.59,0 q 0,-0.384 -0.1,-0.698 a 1.5,1.5 0 0 0 -0.29,-0.538 1.26,1.26 0 0 0 -0.474,-0.345 q -0.285,-0.12 -0.656,-0.12 -0.38,0 -0.668,0.12 -0.287,0.12 -0.48,0.345 -0.19,0.223 -0.288,0.538 -0.093,0.314 -0.093,0.698 0,0.384 0.096,0.704 0.1,0.318 0.29,0.55 0.195,0.23 0.478,0.36 0.287,0.127 0.66,0.127 0.398,0 0.685,-0.13 0.29,-0.13 0.475,-0.36 0.187,-0.233 0.275,-0.553 0.09,-0.32 0.09,-0.698 m 12.636,0.973 q 0,0.27 -0.106,0.496 a 1,1 0 0 1 -0.32,0.393 1.7,1.7 0 0 1 -0.55,0.257 q -0.33,0.09 -0.783,0.09 -0.795,0 -1.24,-0.278 a 1.24,1.24 0 0 1 -0.565,-0.804 l 0.56,-0.112 q 0.042,0.166 0.13,0.303 a 0.8,0.8 0 0 0 0.235,0.235 q 0.15,0.097 0.372,0.151 0.22,0.055 0.529,0.055 0.257,0 0.471,-0.042 0.215,-0.046 0.37,-0.136 a 0.66,0.66 0 0 0 0.238,-0.233 0.65,0.65 0 0 0 0.088,-0.345 0.55,0.55 0 0 0 -0.097,-0.338 0.7,0.7 0 0 0 -0.266,-0.215 2,2 0 0 0 -0.411,-0.142 l -0.53,-0.124 A 13,13 0 0 1 33.404,29.889 4,4 0 0 1 33.06,29.778 2,2 0 0 1 32.751,29.623 0.95,0.95 0 0 1 32.273,28.755 q 0,-0.3 0.122,-0.516 0.123,-0.217 0.341,-0.357 0.218,-0.138 0.514,-0.202 0.296,-0.064 0.64,-0.064 0.397,0 0.678,0.064 0.281,0.06 0.475,0.184 a 1,1 0 0 1 0.308,0.309 q 0.117,0.18 0.187,0.423 l -0.568,0.1 A 1,1 0 0 0 34.846,28.42 0.7,0.7 0 0 0 34.637,28.218 1,1 0 0 0 34.32,28.094 2,2 0 0 0 33.885,28.052 q -0.297,0 -0.499,0.054 a 1,1 0 0 0 -0.323,0.142 0.54,0.54 0 0 0 -0.176,0.215 0.7,0.7 0 0 0 -0.051,0.263 q 0,0.19 0.094,0.314 0.096,0.12 0.26,0.203 0.162,0.082 0.377,0.136 0.215,0.054 0.457,0.108 l 0.39,0.094 q 0.196,0.045 0.375,0.112 0.178,0.063 0.332,0.151 0.158,0.088 0.272,0.215 a 0.9,0.9 0 0 1 0.178,0.299 q 0.067,0.172 0.067,0.405 m 12.541,-0.997 q 0,0.532 -0.16,0.94 -0.16,0.405 -0.438,0.68 -0.279,0.273 -0.66,0.414 a 2.4,2.4 0 0 1 -0.816,0.14 h -1.593 v -4.26 h 1.409 q 0.492,0 0.907,0.124 0.417,0.12 0.716,0.378 0.3,0.255 0.466,0.647 0.17,0.393 0.169,0.937 m -0.58,0 q 0,-0.432 -0.124,-0.738 a 1.3,1.3 0 0 0 -0.348,-0.504 1.4,1.4 0 0 0 -0.535,-0.288 2.4,2.4 0 0 0 -0.683,-0.093 h -0.82 v 3.334 h 0.95 q 0.335,0 0.62,-0.109 0.286,-0.109 0.495,-0.323 0.21,-0.216 0.327,-0.535 0.117,-0.321 0.118,-0.744"
       id="path9" />
    <path
       fill="#666666"
       d="m 43.762,39.095 -2.476,2.476 h 1.238 v 3.096 H 45 V 41.57 h 1.238 z m 0,0.619 1.238,1.238 h -0.619 v 3.095 h -1.238 v -3.095 h -0.62 z"
       color="#000000"
       id="path10" />
    <path
       fill="#77d213"
       d="m 30.75,7.714 c -0.6,0 -1.083,0.552 -1.083,1.238 V 21.333 H 25.952 L 34,30 42.048,21.333 H 38.333 V 8.953 c 0,-0.687 -0.483,-1.239 -1.083,-1.239 z"
       color="#000000"
       id="path11" />
  </g>
</svg>
