<svg xmlns="http://www.w3.org/2000/svg" width="64" height="64"><rect width="54" height="54" x="5" y="5" fill="#3b3b3b" rx="27" ry="27"/><path fill="#fff" d="M31.464 16a.533.533 0 0 0-.531.535v3.2c0 .296.237.53.531.53h1.07a.533.533 0 0 0 .532-.53v-3.2a.533.533 0 0 0-.532-.535zm-10.023 4.152a.53.53 0 0 0-.379.157l-.754.754a.533.533 0 0 0 0 .753l2.262 2.262a.533.533 0 0 0 .754 0l.754-.754a.533.533 0 0 0 0-.754l-2.262-2.261a.53.53 0 0 0-.375-.157m21.118 0a.53.53 0 0 0-.375.157l-2.262 2.261a.533.533 0 0 0 0 .754l.754.754a.533.533 0 0 0 .754 0l2.262-2.262a.533.533 0 0 0 0-.753l-.754-.754a.53.53 0 0 0-.379-.157m-10.566 4.375a7.5 7.5 0 0 0-1.395.149l-.105.02a7.5 7.5 0 0 0-2.578 1.066l-.117.078a7.5 7.5 0 0 0-1.957 1.957l-.078.117a7.5 7.5 0 0 0-1.067 2.578l-.02.106a7.5 7.5 0 0 0-.148 1.394 7.5 7.5 0 0 0 .145 1.387l.03.152a7.5 7.5 0 0 0 1.028 2.496 8 8 0 0 0 .149.227 7.5 7.5 0 0 0 .843 1.023 7.5 7.5 0 0 0 1 .825 8 8 0 0 0 .278.183 7.5 7.5 0 0 0 1.136.606l.04.015a7.5 7.5 0 0 0 1.19.36 8 8 0 0 0 .376.074 7.5 7.5 0 0 0 1.148.113l.11.012.078-.008a7.5 7.5 0 0 0 .98-.082v-.016A7.47 7.47 0 0 0 39.465 32a7.47 7.47 0 0 0-6.406-7.36v-.027a7.5 7.5 0 0 0-1.066-.086zm1.066 2.258A5.33 5.33 0 0 1 37.333 32a5.33 5.33 0 0 1-4.274 5.215zm-16.523 4.149a.533.533 0 0 0-.535.53v1.071c0 .297.241.531.535.531h3.2a.533.533 0 0 0 .53-.53v-1.071a.533.533 0 0 0-.53-.531zm27.73 0a.533.533 0 0 0-.53.53v1.071c0 .297.236.531.53.531h3.2a.533.533 0 0 0 .535-.53v-1.071a.533.533 0 0 0-.535-.531zM22.95 39.762a.53.53 0 0 0-.379.16l-2.261 2.262a.533.533 0 0 0 0 .754l.754.754a.533.533 0 0 0 .753 0l2.262-2.262a.533.533 0 0 0 0-.754l-.754-.754a.53.53 0 0 0-.375-.16m18.102 0a.53.53 0 0 0-.375.16l-.754.754a.533.533 0 0 0 0 .754l2.262 2.262a.533.533 0 0 0 .754 0l.754-.754a.533.533 0 0 0 0-.754l-2.262-2.262a.53.53 0 0 0-.379-.16m-9.586 3.972a.533.533 0 0 0-.53.532v3.199c0 .296.236.535.53.535h1.07a.533.533 0 0 0 .532-.535v-3.2a.533.533 0 0 0-.531-.53z"/></svg>