<?xml version="1.0" encoding="UTF-8" standalone="no"?>
<svg
   width="64"
   height="64"
   version="1.1"
   id="svg16"
   sodipodi:docname="cs-tiling.svg"
   inkscape:version="1.4 (e7c3feb100, 2024-10-09)"
   xmlns:inkscape="http://www.inkscape.org/namespaces/inkscape"
   xmlns:sodipodi="http://sodipodi.sourceforge.net/DTD/sodipodi-0.dtd"
   xmlns="http://www.w3.org/2000/svg"
   xmlns:svg="http://www.w3.org/2000/svg">
  <defs
     id="defs16" />
  <sodipodi:namedview
     id="namedview16"
     pagecolor="#ffffff"
     bordercolor="#000000"
     borderopacity="0.25"
     inkscape:showpageshadow="2"
     inkscape:pageopacity="0.0"
     inkscape:pagecheckerboard="0"
     inkscape:deskcolor="#d1d1d1"
     showgrid="true"
     inkscape:zoom="3.8890873"
     inkscape:cx="-9.6423652"
     inkscape:cy="25.712974"
     inkscape:window-width="1920"
     inkscape:window-height="1012"
     inkscape:window-x="0"
     inkscape:window-y="0"
     inkscape:window-maximized="1"
     inkscape:current-layer="svg16">
    <inkscape:grid
       id="grid16"
       units="px"
       originx="0"
       originy="0"
       spacingx="1"
       spacingy="1"
       empcolor="#0099e5"
       empopacity="0.30196078"
       color="#0099e5"
       opacity="0.14901961"
       empspacing="5"
       enabled="true"
       visible="true" />
  </sodipodi:namedview>
  <rect
     width="54"
     height="54"
     x="5"
     y="5"
     fill="#cccccc"
     fill-rule="evenodd"
     rx="27"
     ry="27"
     style="stroke-width:1.03846;paint-order:stroke fill markers"
     id="rect1" />
  <rect
     width="46"
     height="46"
     x="9"
     y="9"
     fill="#ffffff"
     fill-rule="evenodd"
     opacity="0.35"
     rx="23"
     ry="23"
     style="paint-order:stroke fill markers"
     id="rect2" />
  <rect
     width="24"
     height="20"
     x="15"
     y="11"
     fill="#ffffff"
     rx="3"
     ry="3"
     id="rect6" />
  <path
     d="m 17.999999,11 c -1.662,0 -3,1.338 -3,3 v 4 H 39 v -4 c 0,-1.662 -1.338,-3 -3,-3 z"
     opacity="0.5"
     style="paint-order:stroke markers fill"
     id="path6"
     sodipodi:nodetypes="ssccsss" />
  <rect
     width="3.0009999"
     height="3.0009999"
     x="33.999001"
     y="13"
     opacity="0.35"
     ry="1.5"
     style="paint-order:stroke markers fill"
     id="rect7" />
  <rect
     width="3.0009999"
     height="3.0009999"
     x="28.998001"
     y="13"
     opacity="0.35"
     ry="1.5"
     style="paint-order:stroke markers fill"
     id="rect8" />
  <rect
     width="3.0009999"
     height="3.0009999"
     x="23.997997"
     y="13"
     opacity="0.35"
     ry="1.5"
     style="paint-order:stroke markers fill"
     id="rect9" />
  <rect
     width="34"
     height="20"
     x="15"
     y="33"
     fill="#ffffff"
     rx="3"
     ry="3"
     id="rect13" />
  <path
     d="m 17.999999,33 c -1.662,0 -3,1.338 -3,3 v 4 H 49 v -4 c 0,-1.662 -1.338,-3 -3,-3 z"
     opacity="0.5"
     style="paint-order:stroke markers fill"
     id="path13"
     sodipodi:nodetypes="ssccsss" />
  <rect
     width="3.0009999"
     height="3.0009999"
     x="44"
     y="35"
     opacity="0.35"
     ry="1.5"
     style="paint-order:stroke markers fill"
     id="rect14" />
  <rect
     width="3.0009999"
     height="3.0009999"
     x="38.999001"
     y="35"
     opacity="0.35"
     ry="1.5"
     style="paint-order:stroke markers fill"
     id="rect15" />
  <rect
     width="3.0009999"
     height="3.0009999"
     x="33.999001"
     y="35"
     opacity="0.35"
     ry="1.5"
     style="paint-order:stroke markers fill"
     id="rect16" />
</svg>
