<svg xmlns="http://www.w3.org/2000/svg" width="64" height="64"><rect width="54" height="54" x="5" y="5" fill="#ccc" fill-rule="evenodd" rx="27" ry="27" style="stroke-width:1.03846;paint-order:stroke fill markers"/><rect width="46" height="46" x="9" y="9" fill="#fff" fill-rule="evenodd" opacity=".35" rx="23" ry="23" style="paint-order:stroke fill markers"/><rect width="24" height="20" x="15" y="11" fill="#fff" rx="3" ry="3"/><path d="M18 11c-1.662 0-3 1.338-3 3v4h24v-4c0-1.662-1.338-3-3-3z" opacity=".5" style="paint-order:stroke markers fill"/><rect width="3.001" height="3.001" x="33.999" y="13" opacity=".35" ry="1.5" style="paint-order:stroke markers fill"/><rect width="3.001" height="3.001" x="28.998" y="13" opacity=".35" ry="1.5" style="paint-order:stroke markers fill"/><rect width="3.001" height="3.001" x="23.998" y="13" opacity=".35" ry="1.5" style="paint-order:stroke markers fill"/><rect width="34" height="20" x="15" y="33" fill="#fff" rx="3" ry="3"/><path d="M18 33c-1.662 0-3 1.338-3 3v4h34v-4c0-1.662-1.338-3-3-3z" opacity=".5" style="paint-order:stroke markers fill"/><rect width="3.001" height="3.001" x="44" y="35" opacity=".35" ry="1.5" style="paint-order:stroke markers fill"/><rect width="3.001" height="3.001" x="38.999" y="35" opacity=".35" ry="1.5" style="paint-order:stroke markers fill"/><rect width="3.001" height="3.001" x="33.999" y="35" opacity=".35" ry="1.5" style="paint-order:stroke markers fill"/></svg>