<svg width="64" height="64" version="1.1" viewBox="0 0 16.933 16.933" xmlns="http://www.w3.org/2000/svg">
 <circle cx="8.466" cy="8.46" r="7.144" fill="#5294e2" style="paint-order:stroke markers fill"/>
 <path d="m8.467 4.8931a1.587 1.587 0 0 0-1.587 1.587 1.587 2.646 0 0 0 1.587 2.6447 1.587 2.646 0 0 0 1.588-2.6458h-0.001033a1.587 1.587 0 0 0-1.587-1.5859zm1.2759 4.9086a1.587 1.587 0 0 1-1.2759 0.64646 1.587 1.587 0 0 1-1.2759-0.64543 3.704 2.381 0 0 0-2.4293 2.2324h7.4092a3.704 2.381 0 0 0-2.4282-2.2334z" fill="#ffffff" style="paint-order:stroke markers fill"/>
</svg>
