<svg width="64" height="64" version="1.1" viewBox="0 0 16.933 16.933" xmlns="http://www.w3.org/2000/svg">
 <circle cx="8.466" cy="8.46" r="7.144" fill="#5294e2" style="paint-order:stroke markers fill"/>
 <path d="m8.467 2.643a5.82 5.82 0 0 0-5.821 5.82 5.82 5.82 0 0 0 2.131 4.498h0.915a5.292 5.292 0 0 0 2.775 0.794 5.292 5.292 0 0 0 2.78-0.794h0.908a5.82 5.82 0 0 0 2.132-4.498 5.82 5.82 0 0 0-5.82-5.82z" fill="#ffffff" opacity=".15" style="paint-order:stroke markers fill"/>
 <path d="m9.743 9.405a1.587 1.587 0 0 1-1.276 0.646 1.587 1.587 0 0 1-1.276-0.645 3.704 2.381 0 0 0-2.429 2.232h7.409a3.704 2.381 0 0 0-2.428-2.233z" fill="#ffffff" style="paint-order:stroke markers fill"/>
 <path d="m8.467 4.4958a1.587 1.587 0 0 0-1.587 1.5875 1.587 2.646 0 0 0 1.587 2.6447 1.587 2.646 0 0 0 1.588-2.6458h-0.001033a1.587 1.587 0 0 0-1.587-1.5864z" fill="#ffffff" style="paint-order:stroke markers fill"/>
</svg>
