<svg width="64" height="64" version="1.0" xmlns="http://www.w3.org/2000/svg"><circle cx="32" cy="32" r="27" fill="#ececec" style="paint-order:stroke fill markers"/><g stroke-width=".395"><path d="M32 11.768v.002c-.708 0-1.415.27-1.957.812L11.97 30.064a2.752 2.752 0 0 0-.81 1.956h-.002c-.001.735.29 1.44.812 1.959l18.074 18.21a2.762 2.762 0 0 0 3.914 0l18.231-18.231a2.75 2.75 0 0 0 .81-1.959H53a2.75 2.75 0 0 0-.812-1.956L33.957 12.582A2.758 2.758 0 0 0 32 11.768z" fill="#1c71d8"/><path d="m26.463 26.463 5.536-5.536V32l-5.536 5.536z" fill="#26a269"/><path d="m20.935 31.99-5.544 5.546 5.537 5.537 5.535-5.537z" fill="#813d9c"/><path d="M37.536 37.536 26.463 48.61V37.536L37.499 26.38z" fill="#98c1f1"/><path d="M37.536 15.391 32 20.927V32l11.074-11.073z" fill="#2ec27e"/><path d="m20.94 20.917-4.215 4.212-5.031 5.044A2.752 2.752 0 0 0 11 31.999a2.752 2.752 0 0 0 .811 1.959l3.579 3.579 11.072-11.073zm-9.927 12.05a2.752 2.752 0 0 0 .108.538 2.752 2.752 0 0 1-.108-.539z" fill="#613583"/><path d="M32 10.998c-.708 0-1.416.27-1.957.813l-9.116 9.116 5.536 5.537L37.53 15.386l-3.574-3.574A2.759 2.759 0 0 0 32 10.999z" fill="#f5c211"/><path d="m43.072 20.926-.022 11.73 5.22 5.22 3.918-3.919a2.752 2.752 0 0 0 .81-1.958 2.75 2.75 0 0 0-.81-1.957z" fill="#e01b24"/><path d="m32 32 11.073-11.074V32l-5.536 5.537z" fill="#ff7800"/><path d="m32 20.927 5.536 5.537 5.537-5.537-5.537-5.536z" fill="#fff" opacity=".2"/><path d="m20.927 20.927-9.117 9.116a2.752 2.752 0 0 0-.184.204l9.302-9.32z" fill="#dc8add"/><path d="m20.927 20.927 5.536 5.537L32 20.927z" fill="#e5a50a"/><path d="m37.536 37.536 5.54 5.533L43.074 32z" fill="#ffa348"/><path d="M26.463 37.536 31.999 32l-5.53-5.496z" fill="#3584e4"/><path d="m43.072 32 .005 11.068 5.529-5.528z" fill="#f66151"/><path d="m26.463 37.536-5.535 5.536v.002l5.535 5.535z" fill="#c061cb"/><path d="m32 32-5.536-5.537-5.537 5.536z" fill="#1a5fb4"/><path d="m32 32-5.536 5.536-5.529-5.545z" fill="#3584e4"/></g></svg>