<svg xmlns="http://www.w3.org/2000/svg" xml:space="preserve" width="64" height="64" viewBox="0 0 16.933 16.933"><defs><clipPath id="a"><circle cx="8.467" cy="288.53" r="6.879" fill="#d86eb0" stroke-opacity=".039" stroke-width=".491" style="paint-order:stroke markers fill"/></clipPath></defs><circle cx="8.466" cy="8.466" r="7.144" fill="#f0f0f0" style="paint-order:stroke fill markers;fill:#333;fill-opacity:1"/><g fill="none" stroke="#fff" stroke-opacity=".937" stroke-width=".127" clip-path="url(#a)" transform="translate(-.326 -291.273)scale(1.03844)"><path d="M1.485 287.74c.72.155 1.391.625 1.983 1.98.674 1.545 1.623 2.23 2.772 2.284 1.48.07 2.673-1.226 3.459-2.385 1.602-2.362 4.519-2.136 5.816-1.251" opacity=".35"/><path d="M1.493 288.13c.894-.35 2.083-.424 2.872.827.722 1.143 1.576 2.867 4.049 2.709 1.478-.095 2.956-.71 3.718-2.15.53-.933 1.26-1.872 2.293-2.104.382-.081.655-.07.976.057" opacity=".35"/><path d="M1.775 290.25c.947-.444 2.745-.953 4.197-.53 1.297.38 2.937 1.847 6.056 1.504.824-.09 1.522-.563 2.183-1.464.478-.652.75-1.02 1.306-1.167" opacity=".35"/></g><g fill="none" stroke="#5e5c64" stroke-linejoin="bevel" stroke-width="10"><path d="M27.41 53.574c0-20.207 16.383-36.59 36.59-36.59 20.21 0 36.59 16.383 36.59 36.59M100.602 53.398v18.649M27.398 53.398v18.649" transform="matrix(.07622 0 0 .07621 3.646 3.705)"/></g><path fill="url(#a)" d="M64.055 12.516c-14.18 0-27.543 5.05-35.836 15.988-1.77 2.336-2.739 8.035.879 10.121l2.972 1.648a2.21 2.21 0 0 0 3.016-.808c5.98-10.356 16.691-17.836 28.969-17.836 12.277 0 22.992 7.48 28.972 17.836a2.205 2.205 0 0 0 3.012.808l2.805-1.43c4.254-2.452 2.285-8.179 1.18-10.093-8.274-11.094-21.692-16.234-35.97-16.234m0 0" style="fill:#f04142;fill-opacity:1" transform="matrix(.07622 0 0 .07621 3.646 3.705)"/><path fill="url(#b)" d="M64.055 10a44.24 44.24 0 0 0-35.371 17.684s-3.97 6.43.964 9.277l1.575.91a2.266 2.266 0 0 0 3.093-.828 34.32 34.32 0 0 1 29.739-17.172 34.32 34.32 0 0 1 29.738 17.172 2.27 2.27 0 0 0 3.098.828l1.62-.934c4.716-2.554.907-9.265.907-9.265A44.24 44.24 0 0 0 64.055 10m0 0" style="fill:#f04142;fill-opacity:1" transform="matrix(.07622 0 0 .07621 3.646 3.705)"/><path fill="url(#c)" d="M64.055 15.918c-16.676 0-27.133 8.598-34.18 20.805a1.7 1.7 0 0 0-.137.293l1.485.855a2.266 2.266 0 0 0 3.093-.828 34.32 34.32 0 0 1 29.739-17.172 34.32 34.32 0 0 1 29.738 17.172 2.27 2.27 0 0 0 3.098.828l1.484-.86a2 2 0 0 0-.137-.288C91.191 24.516 80.73 15.918 64.055 15.918m0 0" style="fill:#f04142;fill-opacity:1" transform="matrix(.07622 0 0 .07621 3.646 3.705)"/><path fill="url(#e)" d="M6 12h4v48H6Zm0 0" style="fill:#a2a1a1;fill-opacity:1" transform="matrix(.07622 0 0 .07621 3.646 3.705)"/><path fill="url(#f)" d="M5 58h6v22H5Zm0 0" style="fill:#a2a1a1;fill-opacity:1" transform="matrix(.07622 0 0 .07621 3.646 3.705)"/><path fill="url(#g)" d="M5 10h6v6H5Zm0 0" style="fill:#a51d2d;fill-opacity:1" transform="matrix(.07622 0 0 .07621 3.646 3.705)"/><path fill="url(#h)" d="M13.5 7.5c0 3.04-2.46 5.5-5.5 5.5s-5.5-2.46-5.5-5.5S4.96 2 8 2s5.5 2.46 5.5 5.5m0 0" style="fill:#f04142;fill-opacity:1" transform="matrix(.07622 0 0 .07621 3.646 3.705)"/><path fill="url(#j)" d="M4 83v10c0 1.922.762 3.762 2.121 5.121L17.88 109.88c.355.355.89.46 1.355.27.461-.192.766-.645.766-1.149V67c0-.504-.305-.957-.766-1.148-.464-.192-1-.086-1.355.27L6.12 77.878A7.24 7.24 0 0 0 4 83m0 0" style="fill:#5e5c64;fill-opacity:1" transform="matrix(.07622 0 0 .07621 3.646 3.705)"/><path fill="url(#r)" d="M124 83v10a7.24 7.24 0 0 1-2.121 5.121L110.12 109.88c-.355.355-.89.46-1.355.27A1.245 1.245 0 0 1 108 109V67c0-.504.305-.957.766-1.148.464-.192 1-.086 1.355.27l11.758 11.757A7.24 7.24 0 0 1 124 83m0 0" style="fill:#5e5c64;fill-opacity:1" transform="matrix(.07622 0 0 .07621 3.646 3.705)"/><path fill="url(#l)" d="M22 60h12c5.523 0 10 4.477 10 10v36c0 5.523-4.477 10-10 10H22c-5.523 0-10-4.477-10-10V70c0-5.523 4.477-10 10-10m0 0" style="fill:#f04142;fill-opacity:1" transform="matrix(.07622 0 0 .07621 3.646 3.705)"/><path fill="#5e5c64" d="M5.78 8.278h.152v4.268H5.78zm0 0"/><path fill="url(#s)" d="M106 60H94c-5.523 0-10 4.477-10 10v36c0 5.523 4.477 10 10 10h12c5.523 0 10-4.477 10-10V70c0-5.523-4.477-10-10-10m0 0" style="fill:#f04142;fill-opacity:1" transform="matrix(.07622 0 0 .07621 3.646 3.705)"/><path fill="#5e5c64" d="M11.115 8.278h.152v4.268h-.152zm0 0"/><path d="M6 56h4v2H6ZM6 52h4v2H6ZM6 48h4v2H6ZM6 44h4v2H6ZM6 40h4v2H6ZM6 36h4v2H6Zm0 0" style="fill:#77767b" transform="matrix(.07622 0 0 .07621 3.646 3.705)"/><path fill="#77767b" d="M4.027 8.736h.457v.152h-.457Zm0 0"/><path fill="url(#w)" d="M5 18h6v2H5Zm0 0" style="fill:#77767b;fill-opacity:1" transform="matrix(.07622 0 0 .07621 3.646 3.705)"/></svg>