<?xml version="1.0" encoding="UTF-8" standalone="no"?>
<svg
   width="64"
   height="64"
   viewBox="0 0 16.933 16.933"
   version="1.1"
   id="svg2"
   sodipodi:docname="de.haeckerfelix.AudioSharing.svg"
   inkscape:version="1.4.1 (93de688d07, 2025-03-30)"
   xml:space="preserve"
   xmlns:inkscape="http://www.inkscape.org/namespaces/inkscape"
   xmlns:sodipodi="http://sodipodi.sourceforge.net/DTD/sodipodi-0.dtd"
   xmlns="http://www.w3.org/2000/svg"
   xmlns:svg="http://www.w3.org/2000/svg"><defs
     id="defs2"><clipPath
       id="a"><circle
         cx="8.467"
         cy="288.53"
         r="6.879"
         fill="#d86eb0"
         stroke-opacity=".039"
         stroke-width=".491"
         style="paint-order:stroke markers fill"
         id="circle1-3" /></clipPath></defs><sodipodi:namedview
     id="namedview2"
     pagecolor="#505050"
     bordercolor="#ffffff"
     borderopacity="1"
     inkscape:showpageshadow="0"
     inkscape:pageopacity="0"
     inkscape:pagecheckerboard="1"
     inkscape:deskcolor="#505050"
     inkscape:zoom="4.5354271"
     inkscape:cx="-39.467066"
     inkscape:cy="53.688439"
     inkscape:window-width="1920"
     inkscape:window-height="1012"
     inkscape:window-x="0"
     inkscape:window-y="0"
     inkscape:window-maximized="1"
     inkscape:current-layer="svg2" /><circle
     cx="8.466"
     cy="8.466"
     r="7.144"
     fill="#f0f0f0"
     style="paint-order:stroke fill markers;fill:#333333;fill-opacity:1"
     id="circle1" /><g
     transform="matrix(1.0384412,0,0,1.0384412,-0.32580936,-291.27334)"
     clip-path="url(#a)"
     fill="none"
     stroke="#ffffff"
     stroke-opacity="0.937"
     stroke-width="0.127"
     id="g6"
     inkscape:label="g1"><path
       d="m 1.485,287.74 c 0.72,0.155 1.391,0.625 1.983,1.98 0.674,1.545 1.623,2.23 2.772,2.284 1.48,0.07 2.673,-1.226 3.459,-2.385 1.602,-2.362 4.519,-2.136 5.816,-1.251"
       opacity="0.35"
       id="path4" /><path
       d="m 1.493,288.13 c 0.894,-0.35 2.083,-0.424 2.872,0.827 0.722,1.143 1.576,2.867 4.049,2.709 1.478,-0.095 2.956,-0.71 3.718,-2.15 0.53,-0.933 1.26,-1.872 2.293,-2.104 0.382,-0.081 0.655,-0.07 0.976,0.057"
       opacity="0.35"
       id="path5" /><path
       d="m 1.775,290.25 c 0.947,-0.444 2.745,-0.953 4.197,-0.53 1.297,0.38 2.937,1.847 6.056,1.504 0.824,-0.09 1.522,-0.563 2.183,-1.464 0.478,-0.652 0.75,-1.02 1.306,-1.167"
       opacity="0.35"
       id="path6" /></g><g
     id="g1"
     transform="matrix(0.08274871,0,0,0.08274797,3.2326438,3.5843698)"
     inkscape:label="g2"><g
       id="g63"><path
         d="m 27.410157,53.574218 c 0,-20.207031 16.382812,-36.589843 36.589843,-36.589843 20.210938,0 36.58984,16.382812 36.58984,36.589843"
         fill="none"
         stroke="#5e5c64"
         stroke-linejoin="bevel"
         stroke-width="9.99996"
         id="path30" /><path
         d="M 100.60156,53.398437 V 72.046875 M 27.398438,53.398437 v 18.648438"
         fill="none"
         stroke="#5e5c64"
         stroke-linejoin="bevel"
         stroke-width="9.99996"
         id="path32" /></g><g
       id="g62"><path
         d="m 64.054688,12.515625 c -14.179688,0 -27.542969,5.050781 -35.835938,15.988281 -1.769531,2.335938 -2.738281,8.035156 0.878906,10.121094 l 2.972656,1.648438 c 1.058594,0.609374 2.40625,0.246093 3.015626,-0.808594 5.980468,-10.355469 16.691406,-17.835938 28.96875,-17.835938 12.277343,0 22.992187,7.480469 28.972656,17.835938 0.609375,1.054687 1.957031,1.417968 3.011718,0.808594 L 98.84375,38.84375 C 103.09766,36.390625 101.12891,30.664062 100.02344,28.75 91.75,17.65625 78.332031,12.515625 64.054688,12.515625 Z m 0,0"
         fill="url(#a)"
         id="path31"
         style="fill:#f04142;fill-opacity:1" /><path
         d="m 64.054688,10 c -14.007813,0 -27.085938,6.636719 -35.371094,17.683594 0,0 -3.96875,6.429687 0.964844,9.277344 l 1.574218,0.910156 c 1.082032,0.625 2.46875,0.253906 3.09375,-0.828125 6.132813,-10.628907 17.46875,-17.175781 29.738282,-17.171875 12.277343,0 23.601562,6.539062 29.738281,17.171875 0.628906,1.082031 2.011719,1.453125 3.097656,0.828125 L 98.511719,36.9375 c 4.714841,-2.554688 0.90625,-9.265625 0.90625,-9.265625 C 91.132812,16.632812 78.058594,10 64.054688,10 Z m 0,0"
         fill="url(#b)"
         id="path33"
         style="fill:#f04142;fill-opacity:1" /><path
         d="m 64.054688,15.917969 c -16.675782,0 -27.132813,8.597656 -34.179688,20.804687 -0.05469,0.09375 -0.101562,0.191406 -0.136719,0.292969 l 1.484375,0.855469 c 1.082032,0.625 2.46875,0.253906 3.09375,-0.828125 6.132813,-10.628907 17.46875,-17.175781 29.738282,-17.171875 12.277343,0 23.601562,6.539062 29.738281,17.171875 0.628906,1.082031 2.011719,1.453125 3.097656,0.828125 L 98.375,37.011719 C 98.33984,36.914059 98.29297,36.816406 98.238281,36.722656 91.191406,24.515625 80.730469,15.917969 64.054688,15.917969 Z m 0,0"
         fill="url(#c)"
         id="path34"
         style="fill:#f04142;fill-opacity:1" /></g><g
       id="g61"><path
         d="m 6,12 h 4 V 60 H 6 Z m 0,0"
         fill="url(#e)"
         id="path35"
         style="fill:#a2a1a1;fill-opacity:1" /><path
         d="m 5,58 h 6 V 80 H 5 Z m 0,0"
         fill="url(#f)"
         id="path36"
         style="fill:#a2a1a1;fill-opacity:1" /></g><g
       id="g64"><path
         d="m 5,10 h 6 v 6 H 5 Z m 0,0"
         fill="url(#g)"
         id="path43"
         style="fill:#a51d2d;fill-opacity:1" /><path
         d="M 13.5,7.5 C 13.5,10.539062 11.039062,13 8,13 4.960938,13 2.5,10.539062 2.5,7.5 2.5,4.460938 4.960938,2 8,2 c 3.039062,0 5.5,2.460938 5.5,5.5 z m 0,0"
         fill="url(#h)"
         id="path44"
         style="fill:#f04142;fill-opacity:1" /></g><g
       id="g60"><path
         d="m 4,83 v 10 c 0,1.921875 0.761719,3.761719 2.121094,5.121094 l 11.757812,11.757816 c 0.355469,0.35547 0.890625,0.46093 1.355469,0.26953 C 19.695312,109.95703 20,109.50391 20,109 V 67 c 0,-0.503906 -0.304688,-0.957031 -0.765625,-1.148438 -0.464844,-0.191406 -1,-0.08594 -1.355469,0.269532 L 6.121094,77.878906 C 4.761719,79.238281 4,81.078125 4,83 Z m 0,0"
         fill="url(#j)"
         id="path45"
         style="fill:#5e5c64;fill-opacity:1" /><path
         d="m 124,83 v 10 c 0,1.921875 -0.76172,3.761719 -2.12109,5.121094 l -11.75782,11.757816 c -0.35546,0.35547 -0.89062,0.46093 -1.35546,0.26953 C 108.30469,109.95703 108,109.50391 108,109 V 67 c 0,-0.503906 0.30469,-0.957031 0.76563,-1.148438 0.46484,-0.191406 1,-0.08594 1.35546,0.269532 l 11.75782,11.757812 C 123.23828,79.238281 124,81.078125 124,83 Z m 0,0"
         fill="url(#r)"
         id="path50"
         style="fill:#5e5c64;fill-opacity:1" /></g><g
       id="g58"><path
         d="m 22,60 h 12 c 5.523438,0 10,4.476562 10,10 v 36 c 0,5.52344 -4.476562,10 -10,10 H 22 c -5.523438,0 -10,-4.47656 -10,-10 V 70 c 0,-5.523438 4.476562,-10 10,-10 z m 0,0"
         fill="url(#l)"
         id="path46"
         style="fill:#f04142;fill-opacity:1" /><path
         d="m 28,60 h 2 v 56 h -2 z m 0,0"
         fill="#5e5c64"
         id="path47" /><path
         d="M 106,60 H 94 c -5.523438,0 -10,4.476562 -10,10 v 36 c 0,5.52344 4.476562,10 10,10 h 12 c 5.52344,0 10,-4.47656 10,-10 V 70 c 0,-5.523438 -4.47656,-10 -10,-10 z m 0,0"
         fill="url(#s)"
         id="path51"
         style="fill:#f04142;fill-opacity:1" /><path
         d="m 98,60 h 2 v 56 h -2 z m 0,0"
         fill="#5e5c64"
         id="path53" /></g><g
       id="g59"><path
         d="m 6,56 h 4 v 2 H 6 Z m 0,0"
         id="path37"
         style="fill:#77767b" /><path
         d="m 6,52 h 4 v 2 H 6 Z m 0,0"
         id="path38"
         style="fill:#77767b" /><path
         d="m 6,48 h 4 v 2 H 6 Z m 0,0"
         id="path39"
         style="fill:#77767b" /><path
         d="m 6,44 h 4 v 2 H 6 Z m 0,0"
         id="path40"
         style="fill:#77767b" /><path
         d="m 6,40 h 4 v 2 H 6 Z m 0,0"
         id="path41"
         style="fill:#77767b" /><path
         d="m 6,36 h 4 v 2 H 6 Z m 0,0"
         id="path42"
         style="fill:#77767b" /><path
         d="m 5,66 h 6 v 2 H 5 Z m 0,0"
         fill="#77767b"
         id="path49" /><path
         d="m 5,18 h 6 v 2 H 5 Z m 0,0"
         fill="url(#w)"
         id="path56"
         style="fill:#77767b;fill-opacity:1" /></g></g></svg>
