<svg xmlns="http://www.w3.org/2000/svg" width="64" height="64" viewBox="0 0 16.933 16.933"><path fill="#f0f0f0" d="M2.369 4.762a7.14 7.14 0 0 0-1.046 3.705 7.144 7.144 0 0 0 7.144 7.143 7.144 7.144 0 0 0 7.143-7.143 7.14 7.14 0 0 0-1.043-3.705z" style="paint-order:stroke fill markers"/><path fill="#666" d="M8.467 1.323a7.14 7.14 0 0 0-6.098 3.439h12.198a7.14 7.14 0 0 0-6.1-3.44z" style="paint-order:stroke markers fill"/><rect width=".794" height=".794" x="11.642" y="3.175" opacity=".35" ry=".397" style="paint-order:stroke markers fill"/><rect width=".794" height=".794" x="10.054" y="3.175" opacity=".35" ry=".397" style="paint-order:stroke markers fill"/><rect width=".794" height=".794" x="8.466" y="3.175" opacity=".35" ry=".397" style="paint-order:stroke markers fill"/><g stroke-linecap="square"><circle cx="12.171" cy="12.171" r="4.233" fill="#666"/><path fill="#fff" d="m12.197 9.551-.374.375 1.98 1.98H9.526v.53h4.279l-1.981 1.98.374.374 2.62-2.62-.375-.373z"/></g></svg>