<svg xmlns="http://www.w3.org/2000/svg" width="64" height="64" version="1"><circle cx="32" cy="32" r="27" fill="#ececec" style="paint-order:stroke fill markers"/><path fill="#b3b3b3" d="M24 10c-2.216 0-4 1.784-4 4v12h24V14c0-2.216-1.784-4-4-4z"/><path fill="#4d4d4d" d="M18 26c-2.77 0-5 2.23-5 5v6c0 10.526 8.474 19 19 19s19-8.474 19-19v-6c0-2.77-2.23-5-5-5z"/><rect width="22" height="2" x="21" y="42" opacity=".4" rx="1" ry="1"/><rect width="18" height="2" x="23" y="46" opacity=".4" rx="1" ry="1"/><rect width="14" height="2" x="25" y="50" opacity=".4" rx="1" ry="1"/><path d="M23 14h7v3h-7zm11 0h7v3h-7z" opacity=".35"/></svg>