<?xml version="1.0" encoding="UTF-8" standalone="no"?>
<svg
   width="64"
   height="64"
   viewBox="0 0 16.933 16.933"
   version="1.1"
   id="svg1"
   sodipodi:docname="discord-development.svg"
   inkscape:version="1.4 (e7c3feb100, 2024-10-09)"
   xmlns:inkscape="http://www.inkscape.org/namespaces/inkscape"
   xmlns:sodipodi="http://sodipodi.sourceforge.net/DTD/sodipodi-0.dtd"
   xmlns="http://www.w3.org/2000/svg"
   xmlns:svg="http://www.w3.org/2000/svg">
  <defs
     id="defs1" />
  <sodipodi:namedview
     id="namedview1"
     pagecolor="#ffffff"
     bordercolor="#000000"
     borderopacity="0.25"
     inkscape:showpageshadow="2"
     inkscape:pageopacity="0.0"
     inkscape:pagecheckerboard="0"
     inkscape:deskcolor="#d1d1d1"
     inkscape:zoom="5.5"
     inkscape:cx="57"
     inkscape:cy="31.272727"
     inkscape:window-width="1920"
     inkscape:window-height="1012"
     inkscape:window-x="0"
     inkscape:window-y="0"
     inkscape:window-maximized="1"
     inkscape:current-layer="svg1" />
  <rect
     width="14.287219"
     height="14.287219"
     x="1.3228905"
     y="1.3228905"
     fill="#4d4d4d"
     paint-order="markers stroke fill"
     rx="7.1436095"
     ry="7.1436095"
     id="rect1"
     style="stroke-width:1.07999" />
  <path
     fill="#fff"
     d="M11.956 5.227a8.2 8.2 0 0 0-2.074-.652c-.09.162-.194.379-.266.552a7.6 7.6 0 0 0-2.299 0 6 6 0 0 0-.269-.552 8.2 8.2 0 0 0-2.075.654C3.66 7.212 3.304 9.147 3.482 11.053a8.3 8.3 0 0 0 2.544 1.304q.308-.424.545-.897a5.4 5.4 0 0 1-.858-.418q.108-.08.21-.166c1.654.773 3.452.773 5.086 0q.105.086.21.166-.409.247-.859.418.237.474.545.898a8.3 8.3 0 0 0 2.546-1.305c.208-2.21-.357-4.127-1.495-5.826M6.796 9.88c-.496 0-.904-.464-.904-1.028s.399-1.03.904-1.03c.506 0 .913.464.904 1.03 0 .564-.398 1.028-.904 1.028m3.34 0c-.496 0-.903-.464-.903-1.028s.398-1.03.903-1.03c.506 0 .913.464.904 1.03 0 .564-.398 1.028-.904 1.028"
     id="path1" />
</svg>
