<?xml version="1.0" encoding="UTF-8" standalone="no"?>
<svg
   width="64"
   height="64"
   version="1.1"
   viewBox="0 0 16.933 16.933"
   id="svg18"
   sodipodi:docname="discord.svg"
   inkscape:version="1.1.1 (3bf5ae0d25, 2021-09-20)"
   xmlns:inkscape="http://www.inkscape.org/namespaces/inkscape"
   xmlns:sodipodi="http://sodipodi.sourceforge.net/DTD/sodipodi-0.dtd"
   xmlns="http://www.w3.org/2000/svg"
   xmlns:svg="http://www.w3.org/2000/svg">
  <defs
     id="defs22" />
  <sodipodi:namedview
     id="namedview20"
     pagecolor="#505050"
     bordercolor="#ffffff"
     borderopacity="1"
     inkscape:pageshadow="0"
     inkscape:pageopacity="0"
     inkscape:pagecheckerboard="1"
     showgrid="false"
     inkscape:zoom="11.1875"
     inkscape:cx="34.368715"
     inkscape:cy="32"
     inkscape:window-width="1920"
     inkscape:window-height="1000"
     inkscape:window-x="0"
     inkscape:window-y="44"
     inkscape:window-maximized="1"
     inkscape:current-layer="svg18" />
  <text
     x="-54.503094"
     y="-55.561405"
     fill="#000000"
     font-family="sans-serif"
     font-size="10.583px"
     letter-spacing="0px"
     stroke-width=".26458"
     word-spacing="0px"
     style="line-height:1.25"
     xml:space="preserve"
     id="text4"><tspan
       x="-54.503094"
       y="-46.197819"
       stroke-width=".26458"
       id="tspan2" /></text>
  <circle
     cx="8.4665"
     cy="8.4665"
     r="7.1436"
     fill="#f2f2f2"
     style="paint-order:stroke fill markers;fill:#5865f2;fill-opacity:1"
     id="circle6" />
  <path
     d="m 11.956183,5.2269397 c -0.65081,-0.3045 -1.3467,-0.5258 -2.0741999,-0.6518 -0.08935,0.16154 -0.19373,0.37881 -0.2657,0.55165 -0.77337,-0.11631 -1.5396,-0.11631 -2.2988,0 -0.07196,-0.17284 -0.17871,-0.39011 -0.26886,-0.55165 -0.72831,0.12601 -1.425,0.34812 -2.0758,0.65342 -1.3127,1.9837 -1.6685,3.918 -1.4906,5.8249003 0.87065,0.65018 1.7144,1.0451 2.5439,1.3036 0.20481,-0.28188 0.38748,-0.58153 0.54484,-0.89733 -0.2997,-0.11388 -0.58675,-0.25442 -0.85798,-0.41757 0.07196,-0.05331 0.14234,-0.10904 0.21034,-0.16639 1.6543,0.77376 3.4517,0.77376 5.0862999,0 0.0688,0.05735 0.13917,0.11308 0.21034,0.16639 -0.27203,0.16395 -0.55986,0.30448 -0.85957,0.41838 0.15736,0.31499 0.33924,0.61545 0.54484,0.89732 0.83032,-0.25845 1.6749,-0.6534 2.5455,-1.3044 0.20877,-2.2106003 -0.35664,-4.1272003 -1.4946,-5.8266003 z m -5.1597999,4.6538 c -0.4966,0 -0.90386,-0.46361 -0.90386,-1.0282 0,-0.56456 0.39856,-1.029 0.90386,-1.029 0.50532,0 0.91256,0.4636 0.90386,1.029 7.94e-4,0.56456 -0.39855,1.0282 -0.90386,1.0282 z m 3.3401999,0 c -0.4966099,0 -0.9038599,-0.46361 -0.9038599,-1.0282 0,-0.56456 0.39855,-1.029 0.9038599,-1.029 0.5053,0 0.91256,0.4636 0.90386,1.029 0,0.56456 -0.39856,1.0282 -0.90386,1.0282 z"
     fill="#ffffff"
     stroke-width="0.13782"
     id="path4" />
</svg>
