<svg width="64" height="64" version="1.1" xmlns="http://www.w3.org/2000/svg">
 <circle cx="32" cy="32" r="27" fill="#ffb030" stroke-width="3.7796"/>
 <path d="m45.189 19.756c-2.4598-1.1509-5.09-1.9873-7.8397-2.4635-0.3377 0.61056-0.73222 1.4318-1.0042 2.085-2.923-0.43961-5.8191-0.43961-8.6885 0-0.27196-0.65327-0.67545-1.4745-1.0162-2.085-2.7527 0.47627-5.3859 1.3158-7.8457 2.4697-4.9615 7.4976-6.3063 14.808-5.6339 22.016 3.2907 2.4574 6.4798 3.9501 9.6149 4.9271 0.7741-1.0654 1.4645-2.198 2.0593-3.3916-1.1327-0.43042-2.2177-0.96161-3.2428-1.5782 0.27196-0.20149 0.53799-0.41213 0.795-0.62889 6.2526 2.9245 13.046 2.9245 19.224 0 0.26004 0.21676 0.52601 0.4274 0.795 0.62889-1.0282 0.61967-2.116 1.1508-3.2488 1.5813 0.59476 1.1905 1.2822 2.3262 2.0593 3.3915 3.1383-0.97684 6.3305-2.4696 9.621-4.9301 0.78907-8.3552-1.348-15.599-5.649-22.022zm-19.502 17.59c-1.877 0-3.4162-1.7523-3.4162-3.8862 0-2.1338 1.5064-3.8892 3.4162-3.8892 1.9099 0 3.4491 1.7522 3.4162 3.8892 3e-3 2.1338-1.5064 3.8862-3.4162 3.8862zm12.625 0c-1.877 0-3.4162-1.7523-3.4162-3.8862 0-2.1338 1.5064-3.8892 3.4162-3.8892 1.9098 0 3.4491 1.7522 3.4162 3.8892 0 2.1338-1.5064 3.8862-3.4162 3.8862z" fill="#ffffff" stroke-width="3.7796"/>
</svg>
