<svg width="64" height="64" version="1.1" viewBox="0 0 16.933 16.933" xmlns="http://www.w3.org/2000/svg">
 <defs>
  <linearGradient id="b" x1="45" x2="45" y1="58" y2="14" gradientUnits="userSpaceOnUse">
   <stop offset="0"/>
   <stop stop-opacity="0" offset="1"/>
  </linearGradient>
 </defs>
 <g transform="matrix(1.2272 0 0 1.2266 20.757 -346.41)" stroke-width=".88136">
  <circle cx="-10.015" cy="289.32" r="5.821" fill="#4c5263"/>
  <path d="m-4.331 290.52c-0.85 1.145-2.418 1.757-4.286 2.029-1.95 0.283-4.21 0.199-6.226 0.027 0.096 0.144 0.202 0.284 0.311 0.419 1.942 0.154 3.964 0.755 5.854 0.48 1.577-0.23 3.119-1.232 4.096-2.096a5.61 5.61 0 0 0 0.25-0.86z" color="#000000" fill="#fff" fill-rule="evenodd" font-weight="400" overflow="visible" solid-color="#000000" style="isolation:auto;mix-blend-mode:normal;text-decoration-color:#000000;text-decoration-line:none;text-decoration-style:solid;text-indent:0;text-transform:none;white-space:normal"/>
  <path d="m-8.561 292.94c-1.976 0.279-3.988 0.21-5.97 0.058 1.275 1.627 3.493 2.447 5.54 2.052 1.978-0.34 3.71-1.788 4.408-3.666-1.174 0.833-2.56 1.338-3.978 1.556z" fill="#5294e2"/>
  <path transform="matrix(.23405 0 0 .23405 -17.49 281.64)" d="M 46.154,12.432 A 35.5,35.5 0 0 1 50,28.5 35.5,35.5 0 0 1 34.932,57.479 24.87,24.87 0 0 0 56.8,32.822 24.87,24.87 0 0 0 46.153,12.432 Z" fill="url(#b)" opacity=".15"/>
 </g>
 <path d="m5.7773 1.6782c-0.75404 3.0784-2.9251 6.8636-4.2913 9.2791 2.382 0.57302 5.0258 0.7402 7.0746 0.92702-0.035742-0.46464-0.38048-5.5204-0.46465-6.4946-0.84282-1.5277-1.5277-2.3174-2.3186-3.7114zm2.8985 3.9431c1.1183 2.3025 1.1183 4.5807 0.46465 6.2629 0.92241 0.0058 2.427 0.10838 4.0584-0.69639-1.3409-3.0623-4.523-5.5665-4.523-5.5665zm2.2045 1.3928c0.69293 0.46465 1.3547 0.8878 1.8551 1.3905 0.67794 0.68025 1.025 1.5992 0.92817 2.5527 0.90856-0.45772 1.5104-1.2187 1.8563-1.8563-0.6053-0.55688-1.6545-1.1069-2.7844-1.5069-0.6226-0.22137-1.2797-0.42198-1.8563-0.57994z" fill="#fff" fill-rule="evenodd" stroke-width=".96606"/>
</svg>
