<svg width="64" height="64" version="1.1" viewBox="0 0 16.933 16.933" xmlns="http://www.w3.org/2000/svg">
 <path d="m8.38 1.323a7.144 7.144 0 1 1 0 14.287 7.144 7.144 0 0 1 0-14.287" fill="#49bf3d"/>
 <path d="m8.4676 2.9104a5.5561 5.5561 0 1 0 0 11.112 5.5561 5.5561 0 0 0 0-11.112m0 1.235a4.3218 4.3218 0 1 1 0 8.6423 4.2916 4.2916 0 0 1-2.9333-1.1576c0.24936-0.03413 0.64309-0.03938 1.1576 0.01969 0.75202 0.0853 1.1641 0.11418 1.6589 0.07743 1.1287-0.0853 1.8741-0.27167 2.701-0.6759 0.4331-0.20999 0.52497-0.3058 0.61684-0.55909 0.09056-0.24017 0.12337-0.46328 0.07875-0.46328-0.01706 0-0.1588 0.05513-0.32811 0.13518-0.63652 0.30185-1.1943 0.45016-1.6799 0.42522-0.50266-0.02625-1.315-0.32023-2.2941-0.79139l-0.46329-0.21261-0.34779-0.86751 0.32811 0.2113a9.7119 9.7119 0 0 0 2.0264 0.98432c0.84258 0.26642 1.5001 0.22967 2.1786-0.11549 0.24017-0.12206 0.69558-0.41998 0.69558-0.46329 0-0.078741-0.23361-0.86095-0.36748-1.2153-0.33336-0.88457-0.56828-1.1838-1.1182-1.4463-0.61159-0.29136-1.2888-0.48953-2.5277-0.7717-0.59059-0.12599-1.1733-0.2533-1.7744-0.32811l-0.019686 0.73233a19.686 19.686 0 0 0-1.1379-0.30842 4.331 4.331 0 0 1 3.5501-1.8505zm1.0224 3.1249a0.9187 0.9187 0 0 1 0.90557 0.71396c0.05906 0.22967 0.04069 0.39373-0.07612 0.63652a0.8872 0.8872 0 0 1-0.96463 0.48297 0.90557 0.90557 0 0 1-0.6759-0.52103c-0.16012-0.34779-0.085312-0.80976 0.19293-1.0617a0.95807 0.95807 0 0 1 0.61684-0.24936zm0.2113 0.48297c-0.32286 0-0.52497 0.23624-0.34648 0.40423 0.14437 0.13649 0.38585 0.15749 0.57747 0.059063q0.18636-0.09712 0.13649-0.28873c-0.023625-0.095807-0.20999-0.17455-0.36748-0.17455" fill="#ffffff"/>
</svg>
