<svg xmlns="http://www.w3.org/2000/svg" width="64" height="64"><circle cx="32" cy="32" r="27" fill="#ececec" fill-opacity=".992" style="paint-order:stroke fill markers"/><path fill="#7f7fff" d="M35.594 11.04c-.044-.015-19.109 29.86-19.109 29.86-1.664 2.745-2.994 4.95-2.994 4.95s17.885.81 31.792-1.062c19.79-2.662-4.068-28.034-9.69-33.75z"/><path fill="#ff7f7f" d="M35.55 11.026C34.279 11.201 11 39.87 11 39.87s1.673.477 5.485 1.031c1.238-.966 18.582-30.324 19.109-29.862q-.014-.017-.044-.013"/><path fill="#7f3fbf" d="M35.573 11.029c-.8-.13-19.088 29.872-19.088 29.872s17.283 1.04 24.09.924c19.275-.326-.534-24.884-4.981-30.786a.04.04 0 0 0-.021-.01"/></svg>