<svg xmlns="http://www.w3.org/2000/svg" width="64" height="64" viewBox="0 0 16.933 16.933"><path fill="#49bf3d" d="M8.38 1.323a7.144 7.144 0 1 1 0 14.287 7.144 7.144 0 0 1 0-14.287"/><path fill="#fff" d="M8.468 2.91a5.556 5.556 0 1 0 0 11.112 5.556 5.556 0 0 0 0-11.112m0 1.235a4.322 4.322 0 1 1 0 8.643 4.3 4.3 0 0 1-2.934-1.158c.25-.034.643-.04 1.158.02.752.085 1.164.114 1.659.077 1.128-.085 1.874-.271 2.7-.676.434-.21.526-.305.618-.559.09-.24.123-.463.078-.463-.017 0-.158.055-.328.135-.636.302-1.194.45-1.68.425-.502-.026-1.315-.32-2.294-.791l-.463-.213-.348-.867.328.211a9.7 9.7 0 0 0 2.027.984c.842.267 1.5.23 2.178-.115.24-.122.696-.42.696-.463 0-.08-.234-.861-.368-1.216-.333-.884-.568-1.183-1.118-1.446-.611-.291-1.289-.49-2.527-.772-.591-.126-1.174-.253-1.775-.328l-.02.733a20 20 0 0 0-1.137-.309 4.33 4.33 0 0 1 3.55-1.85zM9.49 7.27a.92.92 0 0 1 .906.714c.059.23.04.394-.077.637a.89.89 0 0 1-.964.483.9.9 0 0 1-.676-.521c-.16-.348-.085-.81.193-1.062a.96.96 0 0 1 .617-.25zm.211.483c-.323 0-.525.237-.346.405.144.136.386.157.577.059q.187-.098.137-.29c-.024-.095-.21-.174-.368-.174"/></svg>