<?xml version="1.0" encoding="UTF-8" standalone="no"?>
<svg
   width="64"
   height="64"
   viewBox="0 0 16.934 16.934"
   version="1.1"
   id="svg6"
   sodipodi:docname="doom.svg"
   inkscape:version="1.1.2 (0a00cf5339, 2022-02-04)"
   xmlns:inkscape="http://www.inkscape.org/namespaces/inkscape"
   xmlns:sodipodi="http://sodipodi.sourceforge.net/DTD/sodipodi-0.dtd"
   xmlns="http://www.w3.org/2000/svg"
   xmlns:svg="http://www.w3.org/2000/svg">
  <defs
     id="defs10" />
  <sodipodi:namedview
     id="namedview8"
     pagecolor="#505050"
     bordercolor="#ffffff"
     borderopacity="1"
     inkscape:pageshadow="0"
     inkscape:pageopacity="0"
     inkscape:pagecheckerboard="1"
     showgrid="false"
     inkscape:zoom="5.59375"
     inkscape:cx="41.117318"
     inkscape:cy="59.888268"
     inkscape:window-width="1920"
     inkscape:window-height="1000"
     inkscape:window-x="0"
     inkscape:window-y="44"
     inkscape:window-maximized="1"
     inkscape:current-layer="svg6" />
  <circle
     cx="8.467"
     cy="8.467"
     r="7.1440001"
     fill="#333333"
     style="fill:#333333;fill-opacity:1;paint-order:markers stroke fill"
     id="circle2" />
  <path
     style="fill:#ffffff;fill-opacity:1;stroke-width:0.00182564"
     d="m 3.4558247,10.902148 c 0,-0.482427 -5.478e-4,-1.6793914 -0.00121,-2.6599225 L 3.4534026,6.4594426 3.2225488,6.2865794 C 3.0955792,6.1915048 2.9919969,6.1135344 2.9923658,6.1133109 c 3.698e-4,-2.236e-4 0.3699521,1.351e-4 0.8212945,7.974e-4 0.4513422,6.624e-4 1.0392417,0.0013 1.3064444,0.0014 l 0.4858225,2.039e-4 0.1499547,0.1145309 0.1499536,0.1145316 v 1.7391865 1.7391876 l 0.03838,0.02784 c 0.021109,0.01531 0.038789,0.02851 0.039302,0.02933 0.00102,0.0017 -0.1144888,0.08856 -1.5135392,1.1380812 -0.5552665,0.416542 -1.0106023,0.758143 -1.011857,0.759115 -0.00187,0.0014 -0.00224,-0.173935 -0.00224,-0.875369 z M 4.6840193,9.4040037 4.9893566,9.175026 4.9892709,8.1706995 4.9891852,7.1663721 4.9541312,7.1378761 4.9190771,7.1093802 4.6525339,7.1108706 c -0.1465983,8.021e-4 -0.2692121,0.00149 -0.2724752,0.00159 l -0.00596,1.08e-4 V 8.374189 c 0,1.0088192 4.575e-4,1.2613432 0.00224,1.2602337 0.00121,-7.629e-4 0.1396835,-0.1044272 0.3076188,-0.2303661 z m 8.3417747,2.0217463 -0.455495,-0.343649 -0.0013,-0.768465 c -7.27e-4,-0.4226552 -0.0016,-0.8512496 -0.0018,-0.9524322 l -5.04e-4,-0.1839691 -0.151486,0.5294706 c -0.08332,0.2912075 -0.151933,0.5294687 -0.152479,0.5294687 -5.44e-4,0 -0.06916,-0.2374392 -0.152482,-0.5276429 l -0.1515,-0.5276448 -0.0011,0.5198859 c -6.05e-4,0.2859356 -0.0012,0.6113038 -0.0014,0.7230388 l -2e-4,0.203156 -0.496855,-0.372707 C 11.186,10.049274 10.963159,9.8809438 10.963991,9.8801958 c 8.3e-4,-7.49e-4 0.01782,-0.01355 0.03776,-0.02844 l 0.03625,-0.02708 -0.0011,-0.7668539 c -6.06e-4,-0.4217694 -0.0016,-1.2566943 -0.0022,-1.8553876 l -0.0011,-1.0885335 h 0.278298 c 0.153064,0 0.365793,5.449e-4 0.47273,0.00121 l 0.194431,0.00121 0.141257,0.49443 c 0.07769,0.2719368 0.141818,0.4938217 0.142504,0.4930773 6.86e-4,-7.433e-4 0.06473,-0.2239063 0.142314,-0.4959167 l 0.141065,-0.4945641 0.182724,0.00121 c 0.100499,6.512e-4 0.39509,0.00167 0.65465,0.00232 0.259559,6.372e-4 0.491306,0.00167 0.514991,0.00232 l 0.04307,0.00112 -0.227453,0.1699252 -0.227455,0.1699251 -0.0011,1.3909914 c -6.03e-4,0.765045 -0.0012,1.9596989 -0.0014,2.654788 -1.48e-4,0.695086 -8.86e-4,1.263725 -0.0017,1.263639 -7.52e-4,-8.5e-5 -0.206342,-0.154797 -0.456865,-0.343803 z M 6.7767814,10.307353 C 6.3435848,9.9831128 5.9880994,9.7167697 5.9868129,9.7154785 c -0.00187,-0.00187 -0.00242,-0.3203227 -0.0027,-1.686494 L 5.9837715,6.3448373 6.1377858,6.2293657 6.291801,6.113895 H 7.2088361 8.125872 l 0.1531294,0.1154707 0.1531303,0.1154716 7.862e-4,0.3779057 c 4.322e-4,0.2078484 9.176e-4,1.0852481 0.00112,1.9497765 l 2.908e-4,1.5718715 -0.4328511,0.325549 c -0.2380705,0.179051 -0.4337967,0.325861 -0.4349489,0.326245 -0.00112,3.84e-4 -0.3565306,-0.26459 -0.7897273,-0.588832 z m 0.736209,-1.4470973 c 6.689e-4,-0.423394 0.00121,-0.9775119 0.00121,-1.2313721 V 7.1673185 l -0.036064,-0.02857 c -0.019833,-0.015715 -0.036927,-0.02925 -0.037988,-0.03008 -0.00102,-8.272e-4 -0.1061115,-6.829e-4 -0.2334371,3.232e-4 l -0.2314992,0.00187 -0.036284,0.027778 -0.036284,0.027778 -1.86e-5,0.2939268 c -1.86e-5,0.1616604 5.3e-4,0.6138104 0.00121,1.0047783 l 0.00121,0.7108513 0.302295,0.2269358 c 0.1662623,0.1248154 0.3027738,0.2269958 0.3033598,0.2270685 5.869e-4,7.26e-5 0.00159,-0.3462822 0.00224,-0.7696771 z M 8.950821,10.57244 8.513423,10.248093 8.512123,8.2965979 C 8.510913,6.420898 8.511003,6.3449835 8.514073,6.3420343 c 0.00177,-0.00167 0.07076,-0.053741 0.1532458,-0.1156738 l 0.1499686,-0.1126061 0.9195465,0.0013 0.9195461,0.0013 0.153263,0.1144869 0.153263,0.114487 -4.2e-5,1.4155508 c -2.4e-5,0.7785533 -5.95e-4,1.5352079 -0.0013,1.6814568 l -0.0012,0.2659055 -0.353403,0.2671794 C 10.412578,10.122378 10.061299,10.387938 9.8263306,10.565562 9.5913621,10.743186 9.3966504,10.890385 9.3936378,10.892671 l -0.0055,0.0042 -0.437398,-0.324345 z m 0.7884855,-1.1733185 0.3033275,-0.2245529 -6.8e-5,-1.0050111 -6.7e-5,-1.0050112 -0.03778,-0.02871 -0.037777,-0.02871 -0.231506,-4.29e-5 -0.2315059,-4.19e-5 -0.03755,0.028757 -0.037542,0.028757 0.00112,0.7056077 c 0.00187,1.171212 0.00344,1.7545716 0.00475,1.7540322 6.735e-4,-2.813e-4 0.1377215,-0.1015599 0.3045521,-0.2250647 z"
     id="path3706" />
</svg>
