<svg width="64" height="64" version="1.1" viewBox="0 0 64 64" xmlns="http://www.w3.org/2000/svg">
 <g transform="matrix(1.1739 0 0 1.1739 3.8261 3.8261)">
  <g fill="#696859">
   <path d="m24 1c12.703 0 23 10.297 23 23s-10.297 23-23 23-23-10.297-23-23 10.297-23 23-23z" fill="#696859"/>
  </g>
  <path d="m15.09 12c0.766 0.035 1.531 0.387 2.063 0.938l6.844 6.844 6.938-6.844c0.801-0.691 1.34-0.906 2.063-0.938m-21 3v18c0-0.797 0.277-1.594 0.852-2.156l6.844-6.75-6.844-6.844c-0.629-0.57-0.91-1.41-0.852-2.25m24 0c0 0.859-0.102 1.652-0.75 2.25l-6.844 6.844 6.75 6.75c0.566 0.57 0.844 1.348 0.844 2.156m-12-4.688-6.844 6.844c-0.563 0.57-1.363 0.844-2.156 0.844h18c-0.797 0-1.594-0.277-2.148-0.844" fill="#dcb200"/>
 </g>
</svg>
