<?xml version="1.0" encoding="UTF-8" standalone="no"?>
<svg
   width="64"
   height="64"
   version="1.1"
   id="svg10"
   sodipodi:docname="dota2.svg"
   inkscape:version="1.2.2 (b0a8486541, 2022-12-01)"
   xml:space="preserve"
   xmlns:inkscape="http://www.inkscape.org/namespaces/inkscape"
   xmlns:sodipodi="http://sodipodi.sourceforge.net/DTD/sodipodi-0.dtd"
   xmlns="http://www.w3.org/2000/svg"
   xmlns:svg="http://www.w3.org/2000/svg"><defs
     id="defs14" /><sodipodi:namedview
     id="namedview12"
     pagecolor="#ffffff"
     bordercolor="#111111"
     borderopacity="1"
     inkscape:showpageshadow="0"
     inkscape:pageopacity="0"
     inkscape:pagecheckerboard="1"
     inkscape:deskcolor="#d1d1d1"
     showgrid="false"
     inkscape:zoom="11.313708"
     inkscape:cx="36.062446"
     inkscape:cy="29.168155"
     inkscape:window-width="1920"
     inkscape:window-height="1011"
     inkscape:window-x="0"
     inkscape:window-y="0"
     inkscape:window-maximized="1"
     inkscape:current-layer="svg10"><inkscape:grid
       type="xygrid"
       id="grid870" /></sodipodi:namedview><rect
     width="54"
     height="54"
     x="5"
     y="5"
     fill="#f0f0f0"
     ry="27"
     id="rect2"
     style="fill:#b12224;fill-opacity:1;stroke:none" /><g
     stroke-width=".75"
     id="g8" /><path
     id="path8904"
     style="fill:#ebe7e8;fill-opacity:1;stroke:none;stroke-width:0.639176;stroke-linecap:butt;stroke-linejoin:miter;stroke-dasharray:none;stroke-opacity:1"
     d="m 35.78896,17.934959 c -1.469191,0.06328 -0.994343,-1.674903 -8.296166,-0.170097 -1.508235,0.310827 -3.218736,-0.366739 -10.669576,-0.280888 -0.08994,10.234007 1.079124,8.903197 0.688696,13.902909 -0.113601,1.45472 -0.297994,11.152428 -0.362033,14.780942 5.742767,0.157927 11.417681,0.193546 12.964534,1.188051 0.620439,0.398896 3.33086,-0.705292 17.040528,-0.865551 -0.03218,-5.612096 0.283432,-13.921403 -1.002874,-17.658482 -0.2033,-0.590642 0.831634,-1.299082 0.584663,-11.046173 -8.738925,-1.121549 -9.64462,0.09316 -10.947772,0.149289 z M 22.865427,22.562842 43.314063,36.382525 41.589203,41.448909 38.052098,41.29078 21.121842,23.293151 Z m 17.532289,0.639421 c 0.5313,0.408806 -0.06314,4.408239 -0.06314,4.408239 l -4.698115,-3.790946 c 0,0 4.148984,-1.088401 4.761255,-0.617293 z m -17.377795,12.585205 5.090827,4.770923 c 0,0 -2.108499,0.617481 -4.123849,1.344099 -0.624809,-1.293816 -2.887944,-1.991181 -2.887944,-1.991181 z"
     sodipodi:nodetypes="sscscscscsccccccsccsccccc" /></svg>
