<svg xmlns="http://www.w3.org/2000/svg" xml:space="preserve" width="64" height="64"><rect width="54" height="54" x="5" y="5" fill="#f0f0f0" ry="27" style="fill:#b12224;fill-opacity:1;stroke:none"/><path d="M35.789 17.935c-1.47.063-.994-1.675-8.296-.17-1.508.31-3.219-.367-10.67-.281-.09 10.234 1.08 8.903.689 13.903-.114 1.455-.298 11.152-.362 14.78 5.743.159 11.418.194 12.964 1.189.62.399 3.331-.705 17.04-.866-.031-5.612.284-13.921-1.002-17.658-.203-.59.832-1.3.585-11.046-8.74-1.122-9.645.093-10.948.149zm-12.924 4.628 20.45 13.82-1.726 5.066-3.537-.158-16.93-17.998Zm17.533.64c.531.408-.063 4.408-.063 4.408l-4.699-3.791s4.15-1.089 4.762-.618zM23.02 35.786l5.09 4.771s-2.108.618-4.123 1.344c-.625-1.293-2.888-1.99-2.888-1.99z" style="fill:#ebe7e8;fill-opacity:1;stroke:none;stroke-width:.639176;stroke-linecap:butt;stroke-linejoin:miter;stroke-dasharray:none;stroke-opacity:1"/></svg>