<svg width="64" height="64" version="1.1" xmlns="http://www.w3.org/2000/svg">
 <rect x="5" y="5" width="54" height="54" rx="27" ry="27" fill="#ff7008" stroke-width="3.6445"/>
 <path d="m28 25.59-10 17.32 2.5977 1.5 10-17.32-2.5977-1.5zm8 0-2.5977 1.5 10 17.32 2.5977-1.5-10-17.32z" fill="#fff" opacity=".5"/>
 <path d="m28 16c-1.662 0-3 1.338-3 3v6c0 1.662 1.338 3 3 3h8c1.662 0 3-1.338 3-3v-6c0-1.662-1.338-3-3-3h-8zm-11 20c-1.662 0-3 1.338-3 3v6c0 1.662 1.338 3 3 3h8c1.662 0 3-1.338 3-3v-6c0-1.662-1.338-3-3-3h-8zm22 0c-1.662 0-3 1.338-3 3v6c0 1.662 1.338 3 3 3h8c1.662 0 3-1.338 3-3v-6c0-1.662-1.338-3-3-3h-8z" fill="#ffd1ba"/>
</svg>
