<svg width="64" height="64" version="1.1" xmlns="http://www.w3.org/2000/svg">
 <circle cx="32" cy="32" r="27" fill="#f9f9f9" stroke-width="3.7796" style="paint-order:stroke fill markers"/>
 <g transform="matrix(.80769 0 0 .80769 6.1538 6.1538)">
  <g fill="#7ed6fb">
   <path d="m31.895 17.43 15.437 9.555-15.332 9.619-15.513-9.619z"/>
   <path d="m6 18.33 15.437-9.555 10.484 8.631-15.433 9.58z"/>
   <path d="m31.898 17.424 15.47 9.574 10.563-8.592-15.514-9.619z"/>
  </g>
  <path d="m31.895 17.43v16.398l-15.332 9.618-0.075-16.46z" fill="#62c8f7"/>
  <path d="m31.895 17.43v16.398l15.331 9.618 0.076-16.46z" fill="#1f97cf"/>
  <path d="m47.302 26.985v18.608l-15.332 9.62-0.076-18.672z" fill="#62c8f7"/>
  <path d="m32 36.553 15.437-9.555 10.563 8.592-15.513 9.619z" fill="#7ed6fb"/>
  <path d="m16.488 26.985v18.608l15.476 9.632-0.07-18.685z" fill="#1581ce"/>
  <path d="m6 35.64 15.437 9.556 10.563-8.592-15.513-9.619z" fill="#7ed6fb"/>
 </g>
</svg>
