<svg width="64" height="64" xmlns="http://www.w3.org/2000/svg"><circle cx="32" cy="32" r="27" fill="#ececec" style="paint-order:stroke fill markers"/><g fill="#7ed6fb"><path d="m31.915 20.232 12.468 7.717L32 35.72l-12.53-7.77z"/><path d="m11 20.959 12.468-7.718 8.468 6.971-12.465 7.738z"/><path d="m31.917 20.227 12.495 7.733 8.532-6.94-12.53-7.769z"/></g><path d="M31.915 20.232v13.244l-12.383 7.769-.061-13.295z" fill="#62c8f7"/><path d="M31.915 20.232v13.244l12.383 7.769.061-13.295z" fill="#1f97cf"/><path d="M44.36 27.95v15.029l-12.384 7.77-.062-15.081z" fill="#62c8f7"/><path d="m32 35.677 12.468-7.717L53 34.9l-12.53 7.769z" fill="#7ed6fb"/><path d="M19.471 27.95v15.029l12.5 7.78-.057-15.092z" fill="#1581ce"/><path d="m11 34.94 12.468 7.718L32 35.718 19.47 27.95z" fill="#7ed6fb"/></svg>