<?xml version="1.0" encoding="UTF-8" standalone="no"?>
<svg
   width="64"
   height="64"
   version="1.1"
   viewBox="0 0 16.933 16.933"
   id="svg8"
   sodipodi:docname="duolingo.svg"
   inkscape:version="1.1.1 (3bf5ae0d25, 2021-09-20)"
   xmlns:inkscape="http://www.inkscape.org/namespaces/inkscape"
   xmlns:sodipodi="http://sodipodi.sourceforge.net/DTD/sodipodi-0.dtd"
   xmlns="http://www.w3.org/2000/svg"
   xmlns:svg="http://www.w3.org/2000/svg">
  <defs
     id="defs12" />
  <sodipodi:namedview
     id="namedview10"
     pagecolor="#ffffff"
     bordercolor="#666666"
     borderopacity="1.0"
     inkscape:pageshadow="2"
     inkscape:pageopacity="0.0"
     inkscape:pagecheckerboard="0"
     showgrid="false"
     inkscape:zoom="6.7426468"
     inkscape:cx="21.134134"
     inkscape:cy="25.80589"
     inkscape:window-width="1366"
     inkscape:window-height="688"
     inkscape:window-x="0"
     inkscape:window-y="0"
     inkscape:window-maximized="1"
     inkscape:current-layer="g6" />
  <g
     transform="translate(0 -280.07)"
     id="g6">
    <ellipse
       cx="8.4665003"
       cy="288.53"
       fill="#6fd16f"
       style="fill:#98e357;fill-opacity:1;paint-order:stroke markers fill"
       id="circle2"
       rx="7.1436095"
       ry="7.1436" />
    <path
       style="fill:#ffffff;stroke:none;stroke-width:0.0139117;fill-opacity:1;stroke-opacity:1"
       d="m 5.0928942,288.89627 c -0.3193427,0.0472 -0.6557058,0.216 -0.9599052,0.32426 -0.2010661,0.0715 -0.4411978,0.11598 -0.6260252,0.22335 -0.1445744,0.084 -0.2137095,0.2668 -0.1638706,0.42622 0.06485,0.20743 0.2829876,0.39349 0.4421033,0.53045 0.509236,0.43829 1.1764688,0.69336 1.850253,0.69336 0.1892681,0 0.3848246,-0.0263 0.5703783,-0.0636 0.079951,-0.0161 0.1978797,-0.0726 0.2782336,-0.0596 0.1045324,0.017 0.2253272,0.17947 0.3060565,0.24513 0.1934283,0.15733 0.4034109,0.27919 0.6260257,0.38971 0.849071,0.42154 1.9364489,0.39352 2.7684224,-0.0565 1.119208,-0.60537 1.685803,-1.7269 1.655281,-2.9728 -0.0051,-0.20875 -0.05014,-0.42576 -0.10705,-0.62602 -0.02539,-0.0893 -0.105604,-0.22881 -0.09641,-0.31997 0.01264,-0.12517 0.213628,-0.30587 0.280877,-0.41736 0.164074,-0.27198 0.274226,-0.56754 0.344996,-0.87643 0.123369,-0.53851 0.06744,-1.13165 -0.144139,-1.64158 -0.08732,-0.21046 -0.185693,-0.46839 -0.445007,-0.49136 -0.224882,-0.0199 -0.369091,0.19013 -0.503186,0.33833 -0.157688,0.17428 -0.324489,0.34045 -0.482178,0.51473 -0.12679,0.14012 -0.250632,0.30805 -0.405804,0.41735 -0.07883,-0.24734 -0.3052622,-0.4902 -0.4444349,-0.70949 -0.120322,-0.18961 -0.2330907,-0.40636 -0.3942293,-0.56446 -0.3884835,-0.38116 -1.0376995,-0.39353 -1.4428492,-0.0313 -0.1501069,0.1342 -0.2531784,0.31984 -0.3664473,0.48451 -0.2582979,0.37548 -0.5605429,0.84247 -0.9690735,1.06685 -0.3784252,0.20785 -0.8467754,0.28774 -1.265962,0.3716 -0.4835,0.0967 -0.9192609,0.21048 -1.1205886,0.71785 -0.3186255,0.80299 0.5075427,1.43 0.814532,2.08674 m 7.3175398,0.79948 c -0.335787,0.0633 -0.362024,0.46092 -0.429496,0.73081 -0.03061,0.12238 -0.07498,0.24804 -0.0509,0.37562 0.03924,0.20803 0.2407,0.36147 0.452575,0.32776 0.352466,-0.0561 0.379539,-0.43399 0.450363,-0.71729 0.02982,-0.11929 0.08024,-0.25145 0.0579,-0.37562 -0.04104,-0.22813 -0.248295,-0.38508 -0.48044,-0.34128 m -4.0900314,2.65713 c -0.3213321,0.0606 -0.4306222,0.47269 -0.204488,0.6988 0.1630034,0.16298 0.490317,0.15333 0.7053083,0.19355 0.1008178,0.0189 0.2035695,0.0458 0.3060569,0.0239 0.3072809,-0.0656 0.4429059,-0.47299 0.2073811,-0.69761 -0.1655211,-0.15786 -0.4667643,-0.15198 -0.6803783,-0.19193 -0.1091092,-0.0204 -0.2226006,-0.0477 -0.33388,-0.0267 z"
       id="path827" />
  </g>
</svg>
