<svg xmlns="http://www.w3.org/2000/svg" width="64" height="64"><circle cx="32" cy="32" r="27" fill="#0056c0"/><rect width="58" height="30" x="3" y="17" fill="#0056c0" rx="4.143" ry="4.091"/><circle cx="32" cy="32" r="23" fill="#0086f4"/><path fill="#fff" d="M39.959 22.352c-1.354-3.44-4.748-3.75-8.7-2.983l-1.408-4.907-2.987.857 1.37 4.778c-.785.225-1.583.47-2.376.715l-1.379-4.81-2.985.857 1.406 4.906c-.643.198-1.275.392-1.894.57l-.004-.015-4.12 1.18.915 3.19s2.194-.674 2.169-.623c1.21-.347 1.805.243 2.093.816l1.603 5.59c.75 2.612 1.501 5.236 2.251 7.853.056.396.007 1.067-.838 1.31.048.024-2.172.623-2.172.623l.43 3.737 3.887-1.115c.723-.206 1.439-.398 2.139-.594l1.424 4.963 2.984-.855-1.408-4.91c.824-.219 1.618-.44 2.392-.662l1.4 4.888 2.987-.857-1.42-4.954c4.94-1.728 8.092-4.001 7.176-8.842-.737-3.898-3.009-5.08-6.055-4.947 1.478-1.379 2.116-3.243 1.12-5.759zm-1.136 11.81c1.065 3.708-5.406 5.108-7.43 5.69l-1.885-6.576c2.025-.58 8.206-2.982 9.315.886m-4.05-8.879c.967 3.375-4.442 4.5-6.128 4.983l-1.71-5.964c1.686-.483 6.83-2.538 7.839.98z"/></svg>