<?xml version="1.0" encoding="UTF-8" standalone="no"?>
<svg
   width="64"
   height="64"
   viewBox="0 0 16.933 16.933"
   version="1.1"
   id="svg6"
   sodipodi:docname="elementary-perf.svg"
   inkscape:version="1.1.2 (0a00cf5339, 2022-02-04)"
   xmlns:inkscape="http://www.inkscape.org/namespaces/inkscape"
   xmlns:sodipodi="http://sodipodi.sourceforge.net/DTD/sodipodi-0.dtd"
   xmlns="http://www.w3.org/2000/svg"
   xmlns:svg="http://www.w3.org/2000/svg">
  <defs
     id="defs10" />
  <sodipodi:namedview
     id="namedview8"
     pagecolor="#505050"
     bordercolor="#ffffff"
     borderopacity="1"
     inkscape:pageshadow="0"
     inkscape:pageopacity="0"
     inkscape:pagecheckerboard="1"
     showgrid="false"
     inkscape:zoom="11.1875"
     inkscape:cx="13.497207"
     inkscape:cy="40.938547"
     inkscape:window-width="1920"
     inkscape:window-height="1000"
     inkscape:window-x="0"
     inkscape:window-y="44"
     inkscape:window-maximized="1"
     inkscape:current-layer="svg6" />
  <circle
     cx="8.467"
     cy="288.53"
     r="6.879"
     fill="#666"
     style="paint-order:stroke markers fill"
     transform="translate(-.326 -291.168) scale(1.0385)"
     stroke-width=".927"
     id="circle2" />
  <path
     d="M8.467 4.23a4.234 4.234 0 1 0 0 8.467 4.234 4.234 0 0 0 0-8.467zm0 .353a3.882 3.882 0 0 1 3.735 2.826 6.733 6.733 0 0 1-1.645 2.145c-.33.285-.689.54-1.086.719-.398.179-.835.28-1.27.255a2.197 2.197 0 0 1-.936-.268 7.061 7.061 0 0 0 2.004-1.616c.368-.43.69-.92.813-1.473a2 2 0 0 0 .015-.843 1.558 1.558 0 0 0-.38-.748 1.526 1.526 0 0 0-.705-.418 1.854 1.854 0 0 0-.823-.03c-.545.1-1.03.416-1.42.809-.688.692-1.113 1.67-1.035 2.642.04.486.202.964.482 1.364.062.089.13.174.204.255a6.348 6.348 0 0 1-1.255.3 3.88 3.88 0 0 1 3.302-5.92zm.024.784c.273 0 .548.083.765.247.197.148.342.36.424.59.083.232.104.484.076.728-.057.488-.303.936-.6 1.327a5.723 5.723 0 0 1-2.25 1.75 2.004 2.004 0 0 1-.425-.521c-.231-.41-.307-.897-.262-1.365.044-.468.205-.92.421-1.338.25-.485.592-.944 1.07-1.207.238-.132.509-.212.781-.211zm3.821 2.577a3.88 3.88 0 0 1-6.837 2.992c.44-.1.87-.243 1.281-.426.18.138.38.25.59.331.61.234 1.3.2 1.917-.014.616-.213 1.163-.596 1.64-1.041a7.056 7.056 0 0 0 1.41-1.842z"
     fill="#fff"
     id="path4" />
  <g
     transform="translate(0.98207662,-279.16992)"
     paint-order="stroke markers fill"
     id="g16">
    <circle
       cx="11.718"
       cy="291.87"
       r="3.175"
       fill="#ff5555"
       id="circle6" />
  </g>
  <g
     style="fill:#000000"
     id="g1653"
     transform="matrix(0.22878379,0,0,0.22878379,9.9546716,9.9546696)">
    <path
       d="M 0,0 H 24 V 24 H 0 Z"
       fill="none"
       id="path1641" />
    <path
       d="m 20.38,8.1791514 -1.23,1.8499996 a 8,8 0 0 1 -0.22,7.58 H 5.07 A 8,8 0 0 1 15.58,6.4591514 l 1.85,-1.23 A 10,10 0 0 0 3.35,18.609151 a 2,2 0 0 0 1.72,1 h 13.85 a 2,2 0 0 0 1.74,-1 10,10 0 0 0 -0.27,-10.4399996 z m -9.79,6.8399996 a 2,2 0 0 0 2.83,0 l 5.66,-8.4899996 -8.49,5.6599996 a 2,2 0 0 0 0,2.83 z"
       id="path1643"
       style="fill:#ffffff" />
  </g>
</svg>
