<svg width="64" height="64" version="1.0" xmlns="http://www.w3.org/2000/svg"><circle cx="32" cy="32" r="27" fill="#333" style="paint-order:stroke fill markers"/><circle cx="32" cy="32" r="25" fill="#fff" opacity=".1" style="paint-order:stroke fill markers"/><path d="m19.143 46-.89 6.857A25 25 0 0 0 32 57a25 25 0 0 0 13.746-4.14L44.858 46H19.143z" fill="#fff" opacity=".15"/><path d="M17.041 12a25 25 0 0 0-7.475 9h44.865a25 25 0 0 0-7.482-9H17.041zm-9.03 27a25 25 0 0 0 3.303 7h41.39a25 25 0 0 0 3.29-7H8.012z" fill="#82dbab"/><path d="M9.584 21A25 25 0 0 0 7 32a25 25 0 0 0 1.014 7h47.969A25 25 0 0 0 57 32a25 25 0 0 0-2.568-11H9.584z" fill="#4d4d4d"/><circle cx="19" cy="30" r="4" fill="#f6f5f4"/><circle cx="45.818" cy="30" r="4" fill="#f6f5f4"/><path fill="#949390" d="M25 26h14v8H25z"/><path d="M25 26v8h8.222c.282-1.29.442-2.626.442-4s-.16-2.71-.442-4z" fill="#424048" opacity=".5"/></svg>