<svg width="64" height="64" viewBox="0 0 16.933 16.933" xmlns="http://www.w3.org/2000/svg"><circle cx="8.466" cy="8.466" r="7.144" fill="#e5faff" style="paint-order:stroke fill markers"/><g transform="translate(3.257 -168.98) scale(.61534)"><rect x="1.587" y="285.89" width="11.642" height="7.408" ry=".265" fill="#5ca4ed" style="paint-order:stroke markers fill"/><path d="M6.085 281.92a.264.264 0 0 0-.264.264v5.292c0 .147.118.265.264.265h4.077l1.48 1.315c.19.04.264-.07.264-.265v-1.05h3.175a.264.264 0 0 0 .265-.265v-5.292a.264.264 0 0 0-.265-.264z" fill="#a0ecff" style="paint-order:markers stroke fill"/><path d="M4.233 290.64h2.91c.147 0 .304.123.265.265l-.508 1.847c-.04.141-.176.172-.285.27l-2.382 2.116c-.19.04-.264-.07-.264-.265v-3.968c0-.147.118-.265.264-.265z" fill="#5ca4ed" style="paint-order:markers stroke fill"/><g fill="#fff"><circle cx="4.763" cy="289.59" r=".661" opacity=".35" style="paint-order:markers stroke fill"/><circle cx="7.408" cy="289.59" r=".661" opacity=".35" style="paint-order:markers stroke fill"/><circle cx="10.054" cy="289.59" r=".661" opacity=".35" style="paint-order:markers stroke fill"/></g></g></svg>