<svg xmlns="http://www.w3.org/2000/svg" width="64" height="64"><rect width="54" height="54" x="5" y="5" fill="#af47e5" rx="27" ry="27"/><g fill-rule="evenodd"><path fill="#fff" d="M32 13.2c-.092 0-3.673 1.553-8.047 3.452L16 20.105v12.353C16 44.026 29.024 50.8 32 50.8s16-6.775 16-18.342V20.105l-7.953-3.453c-4.374-1.9-7.955-3.452-8.048-3.452z"/><path fill="#af47e5" d="M32 22c-2.748 0-4.842 1.138-4.8 2.666.023.837 0 3.006 0 3.006 0 .714.035 1.528-.845 1.528-.733 0-1.555.833-1.555 1.83v8.352c0 .561.703 1.798 1.981 1.818h10.31c1.217.021 2.11-.906 2.11-1.818V31.03c0-1.003-.799-1.83-1.677-1.83-.726 0-.724-.824-.724-1.528v-3.006C36.8 22.999 34.75 22 32 22zm0 2.4c1.543.016 2.4.555 2.4 1.333V29.2h-4.8v-3.467c0-.69.857-1.349 2.4-1.333"/></g></svg>