<?xml version="1.0" encoding="UTF-8"?>
<svg width="64" height="64" version="1.1" xmlns="http://www.w3.org/2000/svg">
 <circle cx="32" cy="32" r="27" fill="#c8f178" stroke-linecap="round" stroke-linejoin="round" stroke-width="1.8551"/>
 <path d="M31.561 9a2.573 2.573 0 0 0-1.369.355l-16.898 9.933c-.754.443-1.295 1.403-1.295 2.28v19.873c0 .877.55 1.84 1.295 2.278l16.9 9.935a2.633 2.633 0 0 0 2.61 0l16.9-9.935c.745-.438 1.295-1.4 1.295-2.278V21.567c0-.878-.55-1.84-1.295-2.278L32.806 9.355a1.887 1.93 0 0 0-.003 0 2.555 2.555 0 0 0-1.24-.354 1.887 1.93 0 0 0-.003 0z" fill="#86bd1f"/>
 <path d="m54.193 16.637-22.693 13.215-21.959-12.787a27 27 0 0 0-1.418 2.4688l21.961 12.789v26.541a27 27 0 0 0 1.916 0.13672 27 27 0 0 0 0.91797-0.066406v-26.609l22.773-13.266a27 27 0 0 0-1.498-2.4219z" fill="#c8f178"/>
 <rect x="30" y="30" width="32" height="32" rx="16" ry="16" fill="#f9f9f9"/>
 <path d="m57.2 46a11.2 11.2 0 0 1-22.4 0 11.2 11.2 0 1 1 22.4 0" fill="#4d4d4d"/>
 <path d="M46.112 42.267a3.732 3.732 0 0 0-3.842 3.732c0 4.978 7.466 4.978 7.466 0a3.733 3.733 0 0 0-3.624-3.732zm-.109 2.985a.747.747 0 1 1 0 1.494.747.747 0 0 1 0-1.494z" fill="#fff"/>
</svg>
