<svg width="64" height="64" version="1.1" viewBox="0 0 64 64" xmlns="http://www.w3.org/2000/svg">
 <g transform="matrix(1.1739,0,0,1.1739,3.8261,3.8254)">
  <path d="m24 1c12.703 0 23 10.297 23 23s-10.297 23-23 23-23-10.297-23-23 10.297-23 23-23z" fill="#1b3341"/>
  <path d="m24 4.408c10.821 0 19.592 8.7712 19.592 19.592s-8.7712 19.592-19.592 19.592-19.592-8.7712-19.592-19.592 8.7712-19.592 19.592-19.592z" fill="#fff" opacity=".1" stroke-width=".85182"/>
  <g transform="translate(1,1)"></g>
 </g>
 <path d="m17.017 17.001c3.6818 3.8756 2.0826 6.3598 4.0879 10.93 1.8749 4.246 5.9582 1.0684 8.7574 4.0648-2.7991 3.0022-6.8963-0.18922-8.7712 4.0522-2.0192 4.5702-0.4096 7.067-4.0879 10.947 3.8802-3.6818 6.3771-2.0734 10.947-4.0879 4.246-1.8795 1.0684-5.9629 4.0648-8.7574 2.9745 2.7945-0.18461 6.8963 4.0522 8.7712 4.5702 2.0238 7.0486 0.39229 10.93 4.0787-3.6818-3.8802-2.0549-6.3644-4.0787-10.935-1.8749-4.2321-5.9628-1.0857-8.7574-4.0614 2.7945-2.9791 6.8824 0.17076 8.7574-4.0648 2.0238-4.5702 0.39229-7.0532 4.0787-10.935-3.8802 3.6864-6.3598 2.0595-10.93 4.0833-4.2368 1.8703-1.0777 5.9721-4.0522 8.7666-3.0022-2.7945 0.17538-6.8778-4.0648-8.7574-4.5702-2.0192-7.067-0.40614-10.947-4.0879" fill="#f9f9f9" fill-rule="evenodd"/>
</svg>
