<svg width="64" height="64" xmlns="http://www.w3.org/2000/svg"><circle cx="32" cy="32" r="27" fill="#711246"/><rect x="30.826" y="15.565" width="2.348" height="27" ry="1.174" fill="#f0f0f0" style="paint-order:normal"/><path d="M32 29.652a8.194 8.194 0 0 0-7.873 5.87l.83 1.174-1.174 1.173v8.218h16.435v-8.218l-1.174-1.173.83-1.174A8.194 8.194 0 0 0 32 29.652z" fill="#f0d069" style="paint-order:normal"/><path d="M24.127 35.522a8.257 8.257 0 0 0-.344 2.348h16.435c0-.817-.124-1.604-.344-2.348z" fill="#f77d58" style="paint-order:normal"/><path d="M20.848 19.674a3.522 3.522 0 0 1-3.522 3.522 3.522 3.522 0 0 1 3.522 3.521 3.522 3.522 0 0 1 3.522-3.521 3.522 3.522 0 0 1-3.522-3.522zm23.478 5.87a3.522 3.522 0 0 1-3.522 3.521 3.522 3.522 0 0 1 3.522 3.522 3.522 3.522 0 0 1 3.522-3.522 3.522 3.522 0 0 1-3.522-3.521z" fill="#f0f0f0" style="paint-order:normal"/></svg>