<svg width="64" height="64" version="1" xmlns="http://www.w3.org/2000/svg"><rect x="5" y="5" width="54" height="54" rx="27" ry="27" fill="#3c4553"/><path d="M35.088 13.002v.002l-.373.004v16.215c.503-.485 3.535-3.5 7.814-7.78 2.759-2.758 3.486-3.5 5.014-5.039a21.995 21.995 0 0 0-2.498-2.14c-.626.601-1.897 1.854-3.615 3.574-2.177 2.18-3.987 3.963-4.022 3.963-.05 0-.064-.712-.064-3.549 0-2.245-.018-3.67-.05-3.873-.074-.45-.271-.862-.513-1.068-.324-.278-.564-.324-1.693-.309zm-6.176.002c-1.129-.015-1.369.029-1.693.307-.241.206-.439.617-.512 1.068-.033.203-.05 1.628-.05 3.873-.001 2.836-.015 3.549-.065 3.549-.035 0-1.843-1.783-4.02-3.963a287.05 287.05 0 0 0-3.617-3.574 21.994 21.994 0 0 0-2.498 2.14c1.529 1.539 2.256 2.281 5.014 5.04 4.279 4.278 7.311 7.294 7.814 7.779V13.008l-.373-.004zm-15.525 7.242c-.13.207-.257.416-.38.627 0 .233-.003.365.001.742.02 1.637.023 1.712.147 2.166.156.573.364 1.041.668 1.506.169.259 1.063 1.186 3.4 3.53l3.17 3.181-3.17 3.178c-2.337 2.344-3.231 3.272-3.4 3.531a5.09 5.09 0 0 0-.668 1.506c-.124.454-.128.527-.147 2.164-.004.38-.001.516-.002.75.123.21.25.417.38.623 1.024-.945 11.737-11.664 11.737-11.752 0-.088-10.706-10.802-11.736-11.752zm37.227.002c-1.033.954-11.734 11.663-11.734 11.75 0 .088 10.715 10.807 11.738 11.75.13-.205.256-.413.38-.623-.001-.234.002-.368-.003-.748-.019-1.637-.023-1.712-.146-2.166a5.08 5.08 0 0 0-.668-1.504c-.17-.258-1.063-1.187-3.4-3.531l-3.173-3.178 3.172-3.181c2.337-2.344 3.232-3.273 3.4-3.532a5.09 5.09 0 0 0 .669-1.505c.123-.455.127-.527.146-2.165.005-.375.002-.507.002-.74-.124-.212-.252-.42-.383-.627zM29.288 34.773c-.903.868-8.773 8.739-12.834 12.82.777.775 1.613 1.49 2.498 2.14.624-.6 1.9-1.856 3.621-3.58 2.177-2.18 3.985-3.96 4.02-3.96.05 0 .064.712.064 3.549 0 2.245.018 3.67.051 3.873.113.697.453 1.16.957 1.31.18.054.505.074 1.219.074.214 0 .237-.008.402-.011l.002-16.215zm5.428 0v16.213c.165.004.188.014.402.014.714 0 1.04-.02 1.22-.074.505-.15.845-.616.958-1.313.033-.203.049-1.626.049-3.871 0-2.836.014-3.55.064-3.55.035 0 1.845 1.782 4.022 3.962 1.72 1.723 2.994 2.98 3.619 3.58a21.995 21.995 0 0 0 2.498-2.142c-4.062-4.083-11.93-11.951-12.832-12.818z" fill="#12a1ff"/></svg>