<svg width="64" height="64" version="1" xmlns="http://www.w3.org/2000/svg">
 <rect x="5" y="5" width="54" height="54" rx="27" ry="27" fill="#3c4553" stroke-width=".93103"/>
 <path d="m35.088 13.002v0.001953l-0.37305 0.003906v16.215c0.50318-0.48475 3.5355-3.5006 7.8145-7.7793 2.7583-2.7581 3.4851-3.5007 5.0137-5.0391-0.77696-0.77433-1.6122-1.4893-2.498-2.1406-0.62636 0.60164-1.8975 1.8542-3.6152 3.5742-2.1771 2.1799-3.987 3.9629-4.0215 3.9629-0.05018 0-0.064193-0.71243-0.064453-3.5488-2.47e-4 -2.245-0.017791-3.6696-0.050781-3.873-0.073-0.451-0.27055-0.86196-0.51172-1.0684-0.32454-0.27778-0.56415-0.32399-1.6934-0.30859zm-6.1758 0.001953c-1.1292-0.0154-1.3689 0.028851-1.6934 0.30664-0.24117 0.20642-0.43873 0.61738-0.51172 1.0684-0.03292 0.20338-0.050541 1.628-0.050781 3.873-2.85e-4 2.8364-0.014243 3.5488-0.064453 3.5488-0.03456 0-1.8424-1.7831-4.0195-3.9629-1.7178-1.72-2.9908-2.9726-3.6172-3.5742-0.88583 0.65134-1.7211 1.3663-2.498 2.1406 1.5285 1.5383 2.2554 2.281 5.0137 5.0391 4.279 4.2787 7.3113 7.2946 7.8145 7.7793v-16.215l-0.37305-0.003906zm-15.525 7.2422c-0.13049 0.20677-0.25716 0.41556-0.38086 0.62695 4.72e-4 0.23282-0.002411 0.36538 0.001953 0.74219 0.01897 1.6372 0.022855 1.7119 0.14648 2.166 0.15583 0.57246 0.36419 1.0409 0.66797 1.5059 0.16893 0.25858 1.0632 1.1855 3.4004 3.5293l3.1699 3.1816-3.1699 3.1777c-2.3371 2.3438-3.2314 3.2726-3.4004 3.5312-0.30378 0.46498-0.51214 0.93338-0.66797 1.5059-0.12362 0.45412-0.1275 0.52681-0.14648 2.1641-0.004406 0.38022-0.001521 0.51624-0.001953 0.75 0.12297 0.21014 0.24923 0.41747 0.37891 0.62305 1.0243-0.94466 11.738-11.664 11.738-11.752 0-0.088015-10.706-10.802-11.736-11.752zm37.227 0.001953c-1.0328 0.95344-11.734 11.663-11.734 11.75 0 0.087608 10.715 10.807 11.738 11.75 0.12964-0.20558 0.25596-0.4129 0.37891-0.62305-4.36e-4 -0.23364 0.002446-0.36826-0.001953-0.74805-0.01896-1.6372-0.022865-1.7119-0.14648-2.166-0.15584-0.57246-0.36419-1.0389-0.66797-1.5039-0.16892-0.25858-1.0632-1.1874-3.4004-3.5312l-3.1719-3.1777 3.1719-3.1816c2.3371-2.3438 3.2314-3.2726 3.4004-3.5312 0.30378-0.46498 0.51214-0.93338 0.66797-1.5059 0.12363-0.45412 0.1275-0.52681 0.14648-2.1641 0.004361-0.37581 0.001466-0.50769 0.001953-0.74023-0.12385-0.2117-0.25216-0.41988-0.38281-0.62695zm-21.326 14.525c-0.90306 0.86753-8.7734 8.7385-12.834 12.82 0.77678 0.77444 1.6124 1.4891 2.498 2.1406 0.62408-0.59999 1.9-1.8568 3.6211-3.5801 2.1771-2.1799 3.985-3.9609 4.0195-3.9609 0.05018 0 0.064183 0.71243 0.064453 3.5488 2.45e-4 2.245 0.017771 3.6696 0.050781 3.873 0.11284 0.6973 0.4528 1.1607 0.95703 1.3105 0.18072 0.05367 0.50494 0.074219 1.2188 0.074219 0.21454 0 0.2372-0.008109 0.40234-0.011719l0.001953-16.215zm5.4277 0v16.213c0.16514 0.0038 0.18779 0.013672 0.40234 0.013672 0.71385 0 1.04-0.020549 1.2207-0.074219 0.50424-0.14973 0.84419-0.61518 0.95703-1.3125 0.03292-0.20338 0.048588-1.6261 0.048828-3.8711 2.99e-4 -2.8364 0.014233-3.5508 0.064453-3.5508 0.03456 0 1.8444 1.783 4.0215 3.9629 1.7206 1.7228 2.9947 2.9797 3.6191 3.5801 0.88602-0.65176 1.721-1.3678 2.498-2.1426-4.0615-4.0829-11.929-11.951-12.832-12.818z" fill="#12a1ff"/>
</svg>
