<?xml version="1.0" encoding="UTF-8" standalone="no"?>
<svg
   width="64"
   height="64"
   version="1.1"
   id="svg1"
   sodipodi:docname="ferdium.svg"
   inkscape:version="1.4 (e7c3feb100, 2024-10-09)"
   xmlns:inkscape="http://www.inkscape.org/namespaces/inkscape"
   xmlns:sodipodi="http://sodipodi.sourceforge.net/DTD/sodipodi-0.dtd"
   xmlns="http://www.w3.org/2000/svg"
   xmlns:svg="http://www.w3.org/2000/svg">
  <defs
     id="defs1" />
  <sodipodi:namedview
     id="namedview1"
     pagecolor="#ffffff"
     bordercolor="#000000"
     borderopacity="0.25"
     inkscape:showpageshadow="2"
     inkscape:pageopacity="0.0"
     inkscape:pagecheckerboard="0"
     inkscape:deskcolor="#d1d1d1"
     inkscape:zoom="5.5"
     inkscape:cx="33"
     inkscape:cy="25.636364"
     inkscape:window-width="1920"
     inkscape:window-height="1012"
     inkscape:window-x="0"
     inkscape:window-y="0"
     inkscape:window-maximized="1"
     inkscape:current-layer="svg1" />
  <rect
     width="54"
     height="54"
     x="5"
     y="5"
     fill="#7158e0"
     rx="27"
     ry="27"
     style="stroke-width:1.03846;paint-order:stroke fill markers"
     id="rect1" />
  <path
     fill="#fff"
     d="M22.579 38.883c1.092-.313 3.584-1.588 5.71-2.922 1.78-1.116 3.485-2.066 3.709-2.066s1.265.58 3.77 2.1c2.692 1.636 4.706 2.656 5.767 2.92.613.153 1.04.105 1.608-.182 1.107-.558 2.636-1.786 4.55-3.657 2.586-2.526 4.967-5.49 5.27-6.559.103-.363.013-.436-.54-.423-.885.02-2.016.327-6.648 1.8-1.933.614-3.306.994-3.597.994-.456 0-2.059-.925-4.332-2.5-1.1-.763-3.356-2.233-4.053-2.643-.985-.58-1.497-.778-1.903-.74-.689.064-1.922.798-6.267 3.728-2.076 1.4-3.204 2.059-3.66 2.135-.38.064-.905-.083-5.99-1.68-1.632-.512-2.881-.86-3.587-.997-.502-.098-1.2-.132-1.308-.062-.385.245.682 1.974 2.506 4.063 3.014 3.45 6.223 6.253 7.735 6.753.258.086.846.057 1.26-.062"
     id="path1" />
</svg>
