<svg width="64" height="64" viewBox="0 0 16.933 16.933" xmlns="http://www.w3.org/2000/svg"><g transform="matrix(.9 0 0 .9 .847 .847)"><circle cx="8.466" cy="8.466" r="7.937" fill="#313642" style="paint-order:stroke markers fill"/><g transform="translate(16.159 -1.574)" stroke-width=".294"><path d="M-9.677 12.025a1.984 1.984 0 0 0-1.984 1.984 1.984 1.984 0 0 0 1.984 1.985 1.984 1.984 0 0 0 1.985-1.985v-1.984z" fill="#09c37b"/><path d="M-9.677 8.056h1.985v3.969h-1.985a1.98 1.98 0 0 1-1.984-1.984c0-1.1.885-1.985 1.984-1.985z" fill="#9154dd"/><circle cx="-5.708" cy="10.04" r="1.984" fill="#01b1f8"/><path d="M-9.677 4.087a1.98 1.98 0 0 0-1.984 1.985 1.98 1.98 0 0 0 1.984 1.984h1.985V4.087z" fill="#f24e1e"/><path d="M-7.692 4.087h1.984c1.1 0 1.984.885 1.984 1.985a1.98 1.98 0 0 1-1.984 1.984h-1.984z" fill="#ff7262"/></g></g></svg>