<svg xmlns="http://www.w3.org/2000/svg" width="64" height="64"><defs><linearGradient id="a" x1="42" x2="44" y1="51" y2="55" gradientTransform="translate(1.144 1.14)scale(.96432)" gradientUnits="userSpaceOnUse"><stop offset="0"/><stop offset="1" stop-opacity="0"/></linearGradient></defs><circle cx="32" cy="32" r="27" fill="currentColor" style="color:#5294e2"/><path fill="url(#a)" d="M56.412 43.466 29.707 58.883a27 27 0 0 0 2.296.117 27 27 0 0 0 24.41-15.534z" opacity=".1" style="paint-order:stroke fill markers"/><path d="M32 4.998A27 27 0 0 0 7.61 20.43h18.413l1.159-1.932c.547-.914 1.615-1.928 2.89-1.928h24.084A27 27 0 0 0 32 5z" opacity=".2"/><path fill="#fff" d="M16.736 14.642a23.1 23.1 0 0 0-4.702 5.788h13.988l1.16-1.932c.546-.915 1.614-1.928 2.89-1.928h19.113a23 23 0 0 0-1.907-1.928z" style="paint-order:stroke fill markers"/><path d="M32.004 5a27 27 0 0 0-17.812 6.75h35.631A27 27 0 0 0 32 5z" opacity=".15" style="paint-order:stroke fill markers"/><rect width="14.466" height="1.928" x="34.894" y="18.498" opacity=".25" ry=".966" style="paint-order:stroke markers fill"/><path fill="#fff" d="M31.01 29.06v2.338a5.5 5.5 0 0 0-2.108.871l-1.649-1.648-1.408 1.408 1.651 1.65a5.5 5.5 0 0 0-.875 2.103h-2.333v1.993h2.333a5.5 5.5 0 0 0 .873 2.108l-1.649 1.646 1.408 1.41 1.649-1.65a5.5 5.5 0 0 0 2.108.874v2.33h1.988v-2.33a5.5 5.5 0 0 0 2.108-.873l1.646 1.65 1.411-1.411-1.65-1.647a5.5 5.5 0 0 0 .874-2.108h2.33v-1.992h-2.332a5.5 5.5 0 0 0-.872-2.106l1.65-1.648-1.41-1.407-1.647 1.65a5.5 5.5 0 0 0-2.108-.874V29.06zm.994 4.73a2.99 2.99 0 0 1 2.986 2.99A2.99 2.99 0 0 1 32 39.766a2.99 2.99 0 0 1-2.984-2.99 2.99 2.99 0 0 1 2.99-2.985z" style="paint-order:stroke markers fill"/></svg>