<svg width="64" height="64" viewBox="0 0 16.933 16.933" xmlns="http://www.w3.org/2000/svg" xmlns:xlink="http://www.w3.org/1999/xlink"><defs><linearGradient id="c" x1="30" x2="57" y1="44" y2="44" gradientTransform="scale(.26458)" gradientUnits="userSpaceOnUse" xlink:href="#a"/><linearGradient id="a"><stop offset="0"/><stop stop-opacity="0" offset="1"/></linearGradient><linearGradient id="b" x1="32" x2="32" y1="13" y2="9" gradientTransform="scale(.26458)" gradientUnits="userSpaceOnUse" xlink:href="#a"/></defs><circle cx="8.466" cy="8.466" r="6.614" fill="#3578c7" style="paint-order:stroke markers fill"/><path d="M5.132 3.704a5.82 5.82 0 0 0-2.486 4.763 5.82 5.82 0 0 0 5.82 5.82 5.82 5.82 0 0 0 5.821-5.82 5.82 5.82 0 0 0-2.48-4.763z" fill="#fff" style="paint-order:stroke markers fill"/><path d="M8.466 1.852a6.614 6.614 0 0 0-3.944 1.323h7.898a6.614 6.614 0 0 0-3.954-1.323z" fill="url(#b)" opacity=".15" style="paint-order:stroke markers fill"/><path d="M8.466 4.233c-.292 0-.381.276-.53.53l-.307.528H2.076a7.144 7.144 0 0 0-.753 3.175 7.144 7.144 0 0 0 7.144 7.144 7.144 7.144 0 0 0 7.143-7.144 7.144 7.144 0 0 0-1.4-4.233H8.467z" fill="#5294e2" style="paint-order:stroke markers fill"/><rect x="9.26" y="4.762" width="3.969" height=".529" ry=".265" opacity=".25" style="paint-order:stroke markers fill"/><path d="M15.61 8.467 8.466 15.61a7.144 7.144 0 0 0 7.144-7.143z" fill="url(#c)" opacity=".15" style="paint-order:stroke markers fill"/><path transform="scale(.26458)" d="M30.971 28.951v2.424a5.677 5.677 0 0 0-2.186.904l-1.71-1.709-1.46 1.46 1.712 1.71a5.677 5.677 0 0 0-.907 2.182H24v2.066h2.42a5.677 5.677 0 0 0 .905 2.186l-1.71 1.707 1.46 1.462 1.71-1.71a5.677 5.677 0 0 0 2.186.906v2.416h2.062v-2.416a5.677 5.677 0 0 0 2.186-.905l1.707 1.71 1.463-1.463-1.711-1.707a5.677 5.677 0 0 0 .906-2.186H40v-2.066h-2.418a5.677 5.677 0 0 0-.904-2.184l1.71-1.709-1.462-1.459-1.707 1.711a5.677 5.677 0 0 0-2.186-.906V28.95h-2.062zm1.031 4.906a3.1 3.1 0 0 1 3.096 3.1 3.1 3.1 0 0 1-3.1 3.096 3.1 3.1 0 0 1-3.095-3.1 3.1 3.1 0 0 1 3.1-3.096z" fill="#fff" style="paint-order:stroke markers fill"/></svg>