<svg width="64" height="64" version="1.1" viewBox="0 0 16.933 16.933" xmlns="http://www.w3.org/2000/svg" xmlns:xlink="http://www.w3.org/1999/xlink">
 <defs>
  <linearGradient id="a-3" x1="30" x2="57" y1="44" y2="44" gradientTransform="scale(.26458)" gradientUnits="userSpaceOnUse" xlink:href="#b"/>
  <linearGradient id="b">
   <stop offset="0"/>
   <stop stop-opacity="0" offset="1"/>
  </linearGradient>
  <linearGradient id="c" x1="32" x2="32" y1="13" y2="9" gradientTransform="scale(.26458)" gradientUnits="userSpaceOnUse" xlink:href="#b"/>
 </defs>
 <circle cx="8.4665" cy="8.4665" r="6.6145" fill="#3578c7" style="paint-order:stroke markers fill"/>
 <path d="m5.1323 3.7041a5.8208 5.8208 0 0 0-2.4866 4.7624 5.8208 5.8208 0 0 0 5.8208 5.8208 5.8208 5.8208 0 0 0 5.8208-5.8208 5.8208 5.8208 0 0 0-2.4794-4.7624z" fill="#fff" style="paint-order:stroke markers fill"/>
 <g>
  <path d="m8.4665 1.852a6.6145 6.6145 0 0 0-3.9444 1.3229h7.8976a6.6145 6.6145 0 0 0-3.9532-1.3229z" fill="url(#c)" opacity=".15" style="paint-order:stroke markers fill"/>
  <path d="m8.466 4.2332c-0.29211 6.879e-4 -0.38134 0.27599-0.52916 0.52967l-0.30799 0.52812-5.5525 5.292e-4a7.1436 7.1436 0 0 0-0.75343 3.1749 7.1436 7.1436 0 0 0 7.1436 7.1436 7.1436 7.1436 0 0 0 7.1436-7.1436 7.1436 7.1436 0 0 0-1.3999-4.2332h-5.7432z" fill="#5294e2" style="paint-order:stroke markers fill"/>
  <rect x="9.2599" y="4.762" width="3.969" height=".529" ry=".265" opacity=".25" style="paint-order:stroke markers fill"/>
 </g>
 <path d="m15.61 8.4666-7.1437 7.1437a7.1437 7.1437 0 0 0 7.1437-7.1437z" fill="url(#a-3)" opacity=".15" style="paint-order:stroke markers fill"/>
 <path transform="scale(.26458)" d="m30.971 28.951v2.4238a5.677 5.677 0 0 0-2.1855 0.9043l-1.7109-1.709-1.459 1.459 1.7109 1.7109a5.677 5.677 0 0 0-0.90625 2.1816h-2.4199v2.0664h2.4199a5.677 5.677 0 0 0 0.9043 2.1855l-1.709 1.707 1.459 1.4629 1.7109-1.7109a5.677 5.677 0 0 0 2.1855 0.90625v2.416h2.0625v-2.416a5.677 5.677 0 0 0 2.1855-0.9043l1.707 1.709 1.4629-1.4629-1.7109-1.707a5.677 5.677 0 0 0 0.90625-2.1855h2.416v-2.0664h-2.418a5.677 5.677 0 0 0-0.9043-2.1836l1.7109-1.709-1.4629-1.459-1.707 1.7109a5.677 5.677 0 0 0-2.1855-0.90625v-2.4238h-2.0625zm1.0312 4.9062a3.0993 3.0993 0 0 1 3.0957 3.0996 3.0993 3.0993 0 0 1-3.0996 3.0957 3.0993 3.0993 0 0 1-3.0957-3.0996 3.0993 3.0993 0 0 1 3.0996-3.0957z" fill="#fff" stroke-width="3.7796" style="paint-order:stroke markers fill"/>
</svg>
