<svg width="64" height="64" version="1.1" viewBox="0 0 16.933 16.933" xmlns="http://www.w3.org/2000/svg" xmlns:xlink="http://www.w3.org/1999/xlink">
 <circle cx="8.4665" cy="8.4665" r="7.1436" fill="#8bc34a" style="paint-order:stroke fill markers"/>
 <path d="m8.4666 1.3229a7.1437 7.1437 0 0 0-0.26458 0.0093016v5.4141h0.52916v-5.4099a7.1437 7.1437 0 0 0-0.26458-0.013436z" opacity=".35" stroke-width="1.0624" style="paint-order:markers stroke fill"/>
 <path d="m8.467 6.35a1.06 1.06 0 0 0-1.059 1.058v2.117a1.06 1.06 0 0 0 1.059 1.058 1.06 1.06 0 0 0 1.058-1.058v-2.117a1.06 1.06 0 0 0-1.058-1.058zm0 0.529c0.292 0 0.529 0.211 0.529 0.529 0 0.265-0.237 0.53-0.53 0.53a0.548 0.548 0 0 1-0.529-0.53c0-0.318 0.238-0.53 0.53-0.53zm0 1.587a0.53 0.53 0 0 1 0.529 0.53v0.529a0.53 0.53 0 0 1-1.059 0v-0.53a0.53 0.53 0 0 1 0.53-0.529z" fill="#fff"/>
</svg>
