<svg width="64" height="64" version="1.1" xmlns="http://www.w3.org/2000/svg">
 <defs>
  <style id="current-color-scheme" type="text/css">.ColorScheme-Text {
        color:#333333;
      }
      .ColorScheme-Highlight {
        color:#5294e2;
      }</style>
 </defs>
 <defs>
  <linearGradient id="a" x1="42" x2="44" y1="51" y2="55" gradientTransform="matrix(.96432 0 0 .96432 1.1439 1.1403)" gradientUnits="userSpaceOnUse">
   <stop offset="0"/>
   <stop stop-opacity="0" offset="1"/>
  </linearGradient>
 </defs>
 <circle class="ColorScheme-Highlight" cx="32" cy="32" r="27" fill="currentColor" stroke-width="3.6447"/>
 <path d="m56.412 43.466-26.705 15.417a27 27 0 0 0 2.2962 0.11663 27 27 0 0 0 24.409-15.534z" fill="url(#a)" opacity=".1" stroke-width="3.6447" style="paint-order:stroke fill markers"/>
 <path d="m32 4.9982a27 27 0 0 0-24.39 15.432h18.413l1.159-1.9317c0.54671-0.91482 1.6146-1.928 2.8903-1.928h24.084a27 27 0 0 0-22.156-11.572z" opacity=".2" stroke-width="3.6447"/>
 <path d="m16.736 14.642a23.144 23.144 0 0 0-4.7017 5.7878h13.988l1.159-1.9317c0.54671-0.91482 1.6146-1.928 2.8903-1.928h19.113a23.144 23.144 0 0 0-1.9062-1.9281z" fill="#ffffff" stroke-width="3.6447" style="paint-order:stroke fill markers"/>
 <path d="m32.004 5a27 27 0 0 0-17.812 6.75h35.631a27 27 0 0 0-17.823-6.75z" opacity=".15" stroke-width="3.6447" style="paint-order:stroke fill markers"/>
 <rect x="34.894" y="18.498" width="14.466" height="1.9281" ry=".96585" opacity=".25" stroke-width="3.6447" style="paint-order:stroke markers fill"/>
 <path d="m31.01 29.06v2.3375a5.4744 5.4744 0 0 0-2.108 0.87174l-1.649-1.648-1.4079 1.4079 1.6509 1.649a5.4744 5.4744 0 0 0-0.87464 2.1041h-2.3336v1.9923h2.3336a5.4744 5.4744 0 0 0 0.87271 2.108l-1.649 1.6461 1.4079 1.4098 1.649-1.649a5.4744 5.4744 0 0 0 2.108 0.87367v2.3298h1.9884v-2.3298a5.4744 5.4744 0 0 0 2.108-0.87271l1.6461 1.649 1.4108-1.4108-1.6499-1.6461a5.4744 5.4744 0 0 0 0.87367-2.108h2.3298v-1.9923h-2.3317a5.4744 5.4744 0 0 0-0.87174-2.1061l1.649-1.648-1.4098-1.4069-1.6461 1.6499a5.4744 5.4744 0 0 0-2.108-0.87367v-2.3385h-1.9884zm0.99421 4.7309a2.9894 2.9894 0 0 1 2.9855 2.9894 2.9894 2.9894 0 0 1-2.9894 2.9855 2.9894 2.9894 0 0 1-2.9846-2.9894 2.9894 2.9894 0 0 1 2.9894-2.9855z" fill="#ffffff" stroke-width=".96432" style="paint-order:stroke markers fill"/>
</svg>
