<svg width="64" height="64" version="1.1" viewBox="0 0 16.933 16.933" xmlns="http://www.w3.org/2000/svg">
 <circle cx="8.466" cy="8.466" r="7.144" fill="#cdedff" style="paint-order:stroke fill markers"/>
 <g transform="matrix(1.1053 0 0 1.1053 -.89204 -1.2504)" stroke-width=".185">
  <path d="m13.13 6.926c-0.218-0.526-0.662-1.094-1.01-1.274a5.2 5.2 0 0 1 0.51 1.527l1e-3 0.01c-0.57-1.42-1.534-1.992-2.322-3.238a6 6 0 0 1-0.119-0.192 1 1 0 0 1-0.056-0.104 1 1 0 0 1-0.074-0.2 0.014 0.014 0 0 0-0.012-0.013h-0.01l-2e-3 2e-3 -4e-3 2e-3 2e-3 -4e-3c-1.264 0.74-1.693 2.11-1.732 2.796a2.53 2.53 0 0 0-1.386 0.534 1 1 0 0 0-0.13-0.099 2.3 2.3 0 0 1-0.013-1.23 3.7 3.7 0 0 0-1.212 0.936h-2e-3c-0.2-0.252-0.186-1.086-0.175-1.26a1 1 0 0 0-0.167 0.09 3.5 3.5 0 0 0-0.493 0.421 4 4 0 0 0-0.47 0.565 4.2 4.2 0 0 0-0.676 1.525l-7e-3 0.033a10 10 0 0 0-0.05 0.314v0.012a5 5 0 0 0-0.081 0.694v0.025a5.034 5.034 0 0 0 9.993 0.851q0.013-0.097 0.023-0.194a5.2 5.2 0 0 0-0.326-2.53zm-5.802 3.94 0.074 0.037zm5.303-3.676v-6e-3l2e-3 6e-3z" fill="#209af9"/>
  <path d="m10.685 7.515 0.03 0.022a2.8 2.8 0 0 0-0.467-0.609c-1.564-1.564-0.41-3.393-0.215-3.486l2e-3 -2e-3c-1.265 0.74-1.693 2.11-1.733 2.796q0.088-9e-3 0.177-0.01a2.54 2.54 0 0 1 2.206 1.288z" fill="#3bbfff"/>
  <path d="m8.482 7.827c-9e-3 0.126-0.45 0.558-0.605 0.558-1.432 0-1.664 0.865-1.664 0.865 0.063 0.73 0.571 1.33 1.186 1.647q0.042 0.022 0.084 0.041 0.074 0.033 0.148 0.06a2.3 2.3 0 0 0 0.655 0.127c2.51 0.118 2.995-3 1.185-3.905a1.74 1.74 0 0 1 1.213 0.296 2.54 2.54 0 0 0-2.206-1.289q-0.088 2e-3 -0.176 0.01a2.53 2.53 0 0 0-1.386 0.533c0.077 0.065 0.164 0.152 0.346 0.332 0.342 0.336 1.218 0.685 1.22 0.725" fill="#2a55c4"/>
  <path d="m6.682 6.6 0.104 0.07a2.3 2.3 0 0 1-0.014-1.23 3.7 3.7 0 0 0-1.212 0.936c0.025 0 0.755-0.014 1.122 0.225" fill="#1d97f8"/>
  <path d="m3.485 8.913c0.389 2.295 2.469 4.048 4.83 4.115 2.187 0.062 3.583-1.207 4.16-2.445a4.56 4.56 0 0 0 0.157-3.397v-0.01 8e-3c0.18 1.166-0.414 2.296-1.34 3.06l-3e-3 6e-3c-1.807 1.471-3.535 0.887-3.885 0.65l-0.073-0.037c-1.054-0.503-1.489-1.463-1.396-2.286a1.3 1.3 0 0 1-1.192-0.75 1.9 1.9 0 0 1 1.85-0.074 2.5 2.5 0 0 0 1.89 0.074c-2e-3 -0.041-0.877-0.39-1.22-0.726-0.182-0.18-0.268-0.267-0.345-0.331a1 1 0 0 0-0.13-0.099l-0.103-0.069c-0.368-0.24-1.098-0.225-1.122-0.225h-3e-3c-0.2-0.253-0.186-1.087-0.175-1.26a1 1 0 0 0-0.167 0.089 3.5 3.5 0 0 0-0.493 0.421 4 4 0 0 0-0.472 0.564 4.2 4.2 0 0 0-0.675 1.525c-3e-3 0.01-0.182 0.792-0.094 1.197" fill="#3bbfff"/>
  <path d="m10.248 6.932a2.8 2.8 0 0 1 0.468 0.61l0.076 0.062c1.14 1.052 0.543 2.54 0.498 2.645 0.927-0.764 1.52-1.893 1.341-3.06-0.57-1.419-1.534-1.99-2.322-3.236a6 6 0 0 1-0.119-0.193 1 1 0 0 1-0.055-0.104 1 1 0 0 1-0.075-0.199 0.014 0.014 0 0 0-0.012-0.013h-0.01l-1e-3 1e-3 -4e-3 2e-3c-0.195 0.092-1.35 1.92 0.215 3.485" fill="#097cf4"/>
  <path d="m10.79 7.6-0.075-0.061-0.032-0.023a1.74 1.74 0 0 0-1.213-0.296c1.81 0.906 1.324 4.022-1.184 3.905a2.3 2.3 0 0 1-0.655-0.127q-0.075-0.027-0.148-0.06l-0.086-0.04 4e-3 2e-3c0.35 0.239 2.078 0.822 3.885-0.65l3e-3 -6e-3c0.045-0.106 0.643-1.593-0.499-2.644" fill="#1d97f8"/>
  <path d="m6.213 9.25s0.232-0.865 1.664-0.865c0.155 0 0.597-0.432 0.605-0.558a2.5 2.5 0 0 1-1.89-0.073 1.9 1.9 0 0 0-1.85 0.073 1.3 1.3 0 0 0 1.192 0.75c-0.093 0.824 0.342 1.783 1.395 2.286l0.07 0.035c-0.615-0.317-1.123-0.918-1.186-1.647z" fill="#1d97f8"/>
 </g>
</svg>
