<svg xmlns="http://www.w3.org/2000/svg" xml:space="preserve" width="64" height="64" viewBox="0 0 16.933 16.933"><circle cx="8.466" cy="8.466" r="7.144" fill="#f0f0f0" style="paint-order:stroke fill markers;fill:#ffd5c7;fill-opacity:1"/><g stroke-width=".185"><path fill="#ff3944" d="M13.13 6.926c-.218-.526-.662-1.094-1.01-1.274a5.2 5.2 0 0 1 .51 1.527l.001.01c-.57-1.42-1.534-1.992-2.322-3.238a6 6 0 0 1-.119-.192 1 1 0 0 1-.056-.104 1 1 0 0 1-.074-.2.014.014 0 0 0-.012-.013h-.01l-.002.002-.004.002.002-.004c-1.264.74-1.693 2.11-1.732 2.796a2.53 2.53 0 0 0-1.386.534 1 1 0 0 0-.13-.099 2.3 2.3 0 0 1-.013-1.23 3.7 3.7 0 0 0-1.212.936h-.002c-.2-.252-.186-1.086-.175-1.26a1 1 0 0 0-.167.09 3.5 3.5 0 0 0-.493.421 4 4 0 0 0-.47.565 4.2 4.2 0 0 0-.676 1.525l-.007.033a10 10 0 0 0-.05.314v.012a5 5 0 0 0-.081.694v.025a5.034 5.034 0 0 0 9.993.851q.013-.097.023-.194a5.2 5.2 0 0 0-.326-2.53Zm-5.802 3.94.07.035.004.002zm5.303-3.676v-.006l.002.006z"/><path fill="#ffcd34" d="m10.685 7.515.03.022a2.8 2.8 0 0 0-.467-.609c-1.564-1.564-.41-3.393-.215-3.486l.002-.002c-1.265.74-1.693 2.11-1.733 2.796q.088-.009.177-.01a2.54 2.54 0 0 1 2.206 1.288z"/><path fill="#9a46eb" d="M8.482 7.827c-.009.126-.45.558-.605.558-1.432 0-1.664.865-1.664.865.063.73.571 1.33 1.186 1.647q.042.022.084.041.074.033.148.06a2.3 2.3 0 0 0 .655.127c2.51.118 2.995-3 1.185-3.905a1.74 1.74 0 0 1 1.213.296 2.54 2.54 0 0 0-2.206-1.289q-.088.002-.176.01a2.53 2.53 0 0 0-1.386.533c.077.065.164.152.346.332.342.336 1.218.685 1.22.725"/><path fill="#ff9633" d="m6.682 6.6.104.07a2.3 2.3 0 0 1-.014-1.23 3.7 3.7 0 0 0-1.212.936c.025 0 .755-.014 1.122.225"/><path fill="#ff6333" d="M3.485 8.913c.389 2.295 2.469 4.048 4.83 4.115 2.187.062 3.583-1.207 4.16-2.445a4.56 4.56 0 0 0 .157-3.397v-.01.008c.18 1.166-.414 2.296-1.34 3.06l-.003.006c-1.807 1.471-3.535.887-3.885.65l-.073-.037C6.277 10.36 5.842 9.4 5.935 8.577a1.3 1.3 0 0 1-1.192-.75 1.9 1.9 0 0 1 1.85-.074 2.5 2.5 0 0 0 1.89.074c-.002-.041-.877-.39-1.22-.726-.182-.18-.268-.267-.345-.331a1 1 0 0 0-.13-.099l-.103-.069c-.368-.24-1.098-.225-1.122-.225H5.56c-.2-.253-.186-1.087-.175-1.26a1 1 0 0 0-.167.089 3.5 3.5 0 0 0-.493.421 4 4 0 0 0-.472.564 4.2 4.2 0 0 0-.675 1.525c-.003.01-.182.792-.094 1.197"/><path fill="#ff8619" d="M10.248 6.932a2.8 2.8 0 0 1 .468.61l.076.062c1.14 1.052.543 2.54.498 2.645.927-.764 1.52-1.893 1.341-3.06-.57-1.419-1.534-1.99-2.322-3.236a6 6 0 0 1-.119-.193 1 1 0 0 1-.055-.104 1 1 0 0 1-.075-.199.014.014 0 0 0-.012-.013h-.01l-.001.001-.004.002c-.195.092-1.35 1.92.215 3.485"/><path fill="#ffa316" d="m10.79 7.6-.075-.061-.032-.023A1.74 1.74 0 0 0 9.47 7.22c1.81.906 1.324 4.022-1.184 3.905a2.3 2.3 0 0 1-.655-.127q-.075-.027-.148-.06l-.086-.04.004.002c.35.239 2.078.822 3.885-.65l.003-.006c.045-.106.643-1.593-.499-2.644"/><path fill="#ffbb27" d="M6.213 9.25s.232-.865 1.664-.865c.155 0 .597-.432.605-.558a2.5 2.5 0 0 1-1.89-.073 1.9 1.9 0 0 0-1.85.073 1.3 1.3 0 0 0 1.192.75c-.093.824.342 1.783 1.395 2.286l.07.035c-.615-.317-1.123-.918-1.186-1.647Z"/></g></svg>