<?xml version="1.0" encoding="UTF-8" standalone="no"?>
<svg
   width="64"
   height="64"
   viewBox="0 0 16.933 16.933"
   version="1.1"
   id="svg2"
   sodipodi:docname="firefox.svg"
   xml:space="preserve"
   inkscape:version="1.4.1 (93de688d07, 2025-03-30)"
   xmlns:inkscape="http://www.inkscape.org/namespaces/inkscape"
   xmlns:sodipodi="http://sodipodi.sourceforge.net/DTD/sodipodi-0.dtd"
   xmlns="http://www.w3.org/2000/svg"
   xmlns:svg="http://www.w3.org/2000/svg"><defs
     id="defs2" /><sodipodi:namedview
     id="namedview2"
     pagecolor="#505050"
     bordercolor="#ffffff"
     borderopacity="1"
     inkscape:showpageshadow="0"
     inkscape:pageopacity="0"
     inkscape:pagecheckerboard="1"
     inkscape:deskcolor="#505050"
     inkscape:zoom="4.0003929"
     inkscape:cx="21.497888"
     inkscape:cy="14.498576"
     inkscape:window-width="1366"
     inkscape:window-height="844"
     inkscape:window-x="0"
     inkscape:window-y="0"
     inkscape:window-maximized="1"
     inkscape:current-layer="svg2" /><circle
     cx="8.466"
     cy="8.466"
     r="7.144"
     fill="#f0f0f0"
     style="paint-order:stroke fill markers;fill:#ffd5c7;fill-opacity:1"
     id="circle1" /><g
     stroke-width="0.185"
     id="g8"
     transform="matrix(0.70375673,0,0,0.70375673,2.5084455,2.8378036)"
     inkscape:label="g2"><path
       fill="#ff3944"
       d="M 15.093,5.809 C 14.783,5.061 14.152,4.254 13.658,3.999 a 7.4,7.4 0 0 1 0.724,2.17 l 0.002,0.013 c -0.809,-2.016 -2.18,-2.83 -3.3,-4.6 A 9,9 0 0 1 10.915,1.309 2,2 0 0 1 10.836,1.161 1.3,1.3 0 0 1 10.73,0.878 0.02,0.02 0 0 0 10.713,0.859 H 10.7 L 10.696,0.861 10.691,0.864 10.694,0.858 C 8.898,1.91 8.288,3.858 8.232,4.832 A 3.6,3.6 0 0 0 6.263,5.59 2,2 0 0 0 6.079,5.45 3.3,3.3 0 0 1 6.059,3.702 5.3,5.3 0 0 0 4.337,5.032 H 4.334 C 4.05,4.674 4.07,3.489 4.086,3.242 A 1.3,1.3 0 0 0 3.848,3.369 5,5 0 0 0 3.148,3.968 6,6 0 0 0 2.48,4.77 6,6 0 0 0 1.52,6.937 L 1.51,6.984 C 1.497,7.047 1.449,7.362 1.44,7.431 L 1.439,7.447 A 7,7 0 0 0 1.323,8.433 v 0.036 a 7.153,7.153 0 0 0 14.2,1.21 Q 15.541,9.541 15.556,9.402 A 7.36,7.36 0 0 0 15.092,5.809 Z m -8.244,5.599 0.1,0.049 0.004,0.003 z M 14.384,6.184 V 6.176 l 0.002,0.008 z"
       id="path1-3" /><path
       fill="#ffcd34"
       d="m 11.618,6.646 0.044,0.032 A 4,4 0 0 0 10.998,5.812 C 8.775,3.589 10.415,0.99 10.692,0.859 L 10.695,0.855 C 8.898,1.906 8.289,3.854 8.233,4.828 8.316,4.822 8.399,4.815 8.484,4.815 a 3.61,3.61 0 0 1 3.134,1.83 z"
       id="path2-6" /><path
       fill="#9a46eb"
       d="m 8.488,7.09 c -0.012,0.178 -0.64,0.792 -0.86,0.792 -2.034,0 -2.364,1.23 -2.364,1.23 0.09,1.036 0.812,1.89 1.685,2.34 q 0.06,0.031 0.12,0.058 0.105,0.047 0.21,0.086 a 3.2,3.2 0 0 0 0.93,0.18 c 3.566,0.167 4.256,-4.263 1.684,-5.549 A 2.47,2.47 0 0 1 11.617,6.647 3.61,3.61 0 0 0 8.483,4.816 Q 8.357,4.818 8.233,4.829 A 3.6,3.6 0 0 0 6.263,5.587 C 6.373,5.68 6.496,5.803 6.755,6.059 7.24,6.537 8.485,7.032 8.488,7.09"
       id="path3" /><path
       fill="#ff9633"
       d="M 5.93,5.347 6.078,5.445 A 3.3,3.3 0 0 1 6.058,3.697 5.3,5.3 0 0 0 4.336,5.027 c 0.035,0 1.073,-0.02 1.594,0.32"
       id="path4" /><path
       fill="#ff6333"
       d="m 1.388,8.633 c 0.552,3.261 3.508,5.752 6.864,5.847 3.106,0.088 5.09,-1.715 5.91,-3.474 A 6.48,6.48 0 0 0 14.385,6.178 V 6.164 l 10e-4,0.012 c 0.254,1.657 -0.589,3.262 -1.906,4.347 l -0.004,0.01 c -2.567,2.09 -5.023,1.26 -5.52,0.922 L 6.852,11.403 C 5.355,10.688 4.737,9.325 4.869,8.155 A 1.84,1.84 0 0 1 3.175,7.09 2.7,2.7 0 0 1 5.805,6.984 3.56,3.56 0 0 0 8.49,7.09 C 8.487,7.031 7.243,6.536 6.757,6.058 6.498,5.802 6.375,5.679 6.266,5.587 A 2,2 0 0 0 6.081,5.447 L 5.934,5.349 C 5.412,5.009 4.374,5.029 4.34,5.029 H 4.337 C 4.053,4.67 4.073,3.485 4.089,3.238 a 1.3,1.3 0 0 0 -0.238,0.127 5,5 0 0 0 -0.7,0.599 6,6 0 0 0 -0.67,0.8 6,6 0 0 0 -0.96,2.167 C 1.517,6.946 1.263,8.057 1.388,8.633"
       id="path5" /><path
       fill="#ff8619"
       d="m 10.998,5.818 a 4,4 0 0 1 0.664,0.867 q 0.06,0.046 0.108,0.088 c 1.621,1.495 0.772,3.608 0.708,3.758 1.318,-1.085 2.16,-2.69 1.906,-4.347 -0.809,-2.017 -2.18,-2.83 -3.3,-4.6 A 9,9 0 0 1 10.915,1.31 2,2 0 0 1 10.837,1.162 1.3,1.3 0 0 1 10.73,0.88 0.02,0.02 0 0 0 10.714,0.862 H 10.7 l -0.003,0.001 -0.005,0.003 c -0.277,0.131 -1.917,2.729 0.306,4.952"
       id="path6" /><path
       fill="#ffa316"
       d="M 11.768,6.768 A 2,2 0 0 0 11.661,6.68 L 11.616,6.647 A 2.47,2.47 0 0 0 9.892,6.228 c 2.572,1.287 1.882,5.716 -1.683,5.549 a 3.2,3.2 0 0 1 -0.93,-0.18 Q 7.173,11.558 7.069,11.511 7.007,11.485 6.947,11.454 l 0.005,0.003 c 0.498,0.34 2.953,1.169 5.52,-0.922 l 0.005,-0.01 c 0.064,-0.15 0.913,-2.263 -0.709,-3.757"
       id="path7" /><path
       fill="#ffbb27"
       d="m 5.264,9.112 c 0,0 0.33,-1.23 2.364,-1.23 0.22,0 0.849,-0.614 0.86,-0.792 A 3.56,3.56 0 0 1 5.803,6.985 2.7,2.7 0 0 0 3.173,7.09 1.84,1.84 0 0 0 4.867,8.156 c -0.132,1.17 0.486,2.533 1.983,3.248 l 0.099,0.049 C 6.075,11.002 5.354,10.148 5.264,9.113 Z"
       id="path8" /></g></svg>
