<svg xmlns="http://www.w3.org/2000/svg" width="64" height="64" image-rendering="optimizeSpeed"><circle cx="-11.713" cy="43.713" r="27" fill="#6f52e0" transform="rotate(-60)"/><path fill="#bb10ce" d="M8.617 18.5a27 27 0 0 0-.284 26.493L31.419 5.007A27 27 0 0 0 8.618 18.5z"/><path fill="#2790f1" d="M55.383 45.5a27 27 0 0 1-22.801 13.493l23.086-39.986a27 27 0 0 1-.285 26.493z"/><path fill="#100b33" d="M20.056 50.555c-.669-.715-2.061-2.808-3.095-4.652s-3.106-5.41-4.607-7.924C9.99 34.015 9.66 33.172 9.875 31.64c.137-.972 1.671-4.202 3.41-7.178 1.738-2.975 3.652-6.38 4.253-7.567.601-1.186 1.676-2.74 2.39-3.453l1.296-1.297h21.44l1.215 1.3c.668.715 2.172 3.002 3.341 5.082s3.216 5.59 4.546 7.8c1.484 2.465 2.418 4.566 2.416 5.437 0 .78-.284 1.95-.629 2.6s-1.962 3.521-3.595 6.381a824 824 0 0 1-4.408 7.64c-.792 1.342-1.949 2.672-2.57 2.955-.704.32-5.007.515-11.419.515H21.272zm17.111-1.17c.91-.272 2.4-.869 3.31-1.327s2.25-1.388 2.98-2.066 1.196-1.444 1.036-1.703-.612-.47-1.003-.47c-.392 0-1.434.55-2.315 1.221-.88.672-2.602 1.523-3.825 1.891s-3.601.67-5.285.67-3.9-.252-4.925-.56c-1.155-.345-2.479-1.276-3.482-2.448-.89-1.04-1.618-2.077-1.618-2.306s.208-.286.463-.129.914.045 1.465-.25c.943-.505.983-.45.681.924-.203.927-.134 1.46.19 1.46.28 0 .537-.213.57-.473s.085-.716.117-1.012c.033-.297.426-.771.874-1.053.586-.37.958-.37 1.329 0 .283.284.555 1.268.604 2.188s.248 1.575.443 1.455.365-.895.376-1.725l.022-1.508L30.472 45l.039-1.718c.03-1.368-.222-1.889-1.238-2.554-.702-.46-1.818-.825-2.482-.81-.663.013-1.757.17-2.431.35-1.07.282-1.31.123-1.883-1.254l-.657-1.577-.613 2.836-.056-1.315c-.031-.724.254-2.058.633-2.965.38-.908 1.335-2.018 2.124-2.467s1.437-.984 1.438-1.188c.002-.204-.394-.158-.88.102s-1 .355-1.143.212-.507.2-.808.763c-.328.613-.826.915-1.245.755-.392-.15-.57-.063-.408.2.159.256.05.467-.24.467s-.397.212-.236.472c.16.26.053.473-.24.473s-.943-.22-1.446-.49c-.503-.268-.914-.382-.914-.25s.585.554 1.3.942 1.021.714.68.725c-.34.01-.487.231-.326.491s-.093.488-.563.506c-.763.03-.754.077.09.44.827.355.776.41-.405.44-.987.023-1.28-.15-1.09-.646.143-.373.018-.76-.28-.859-.393-.13-.37-.586.085-1.685.343-.828.768-1.505.944-1.505s.624.266.994.591.273.112-.215-.473-.685-1.063-.437-1.063.736.266 1.082.59c.52.488.545.429.14-.334-.38-.713-.316-1.055.275-1.487.612-.448.884-.404 1.35.217.504.671.544.622.296-.36-.2-.794-.122-1.036.26-.8.3.186.547.113.547-.162s.213-.5.473-.5.497.372.527.827c.045.675.1.653.3-.119l.246-.945.375.945c.357.897.378.89.41-.118.018-.585.245-1.063.505-1.063s.49.266.51.59c.03.473.085.473.276 0 .131-.324.397-.59.591-.59s.336.478.315 1.063c-.03.842.259 1.097 1.381 1.224.78.088 1.696.39 2.035.67s.83.953 1.09 1.495c.438.908.403.902-.456-.08-.511-.585-1.26-1.063-1.664-1.063s-.955.411-1.224.914-.49 1.248-.49 1.655c0 .499.44.74 1.348.74.742 0 2.072.487 2.955 1.081.883.595 1.905 1.712 2.27 2.482.366.77.845 1.472 1.064 1.558s.4.46.4.827c0 .369.142.67.317.67.174 0 .706-.352 1.182-.782.475-.43.864-1.081.864-1.446s-.213-.533-.473-.372-.472-.054-.472-.477c0-.536-.268-.683-.886-.487-.674.214-1.069-.105-1.654-1.34-.423-.891-.77-2.173-.77-2.85s.2-1.228.445-1.228.577.213.737.473.992.473 1.846.473c.934 0 1.882.363 2.378.911.565.625.719 1.258.488 2.01l-.338 1.097 1.153-1.064c.634-.585 1.417-1.063 1.74-1.063.34 0 .443.25.244.59-.19.326.09.21.622-.256s.967-1.353.967-1.972c0-.827-.33-1.203-1.24-1.415a22 22 0 0 1-2.541-.803c-.755-.298-1.3-.875-1.3-1.375 0-.474-.627-1.232-1.393-1.684s-1.297-.977-1.18-1.166-.48-.926-1.326-1.64-2.282-1.607-3.192-1.987-2.27-1.13-3.024-1.664c-1.078-.766-1.276-.807-.93-.19.24.432 1.43 1.413 2.643 2.182 1.212.77 2.54 2.049 2.951 2.843.423.817.537 1.445.263 1.445-.267 0-.485-.282-.485-.626s-.479-1.076-1.064-1.625c-.63-.592-3.182-1.574-6.263-2.41-4.45-1.209-5.388-1.636-6.5-2.967-.715-.855-1.3-1.271-1.3-.925s.797 1.422 1.772 2.391c1.208 1.201 2.796 2.102 4.982 2.826 2.1.695 3.467 1.455 3.954 2.198.701 1.07.68 1.19-.373 2.047-.683.557-1.188.71-1.3.397-.101-.283.16-.766.58-1.073.69-.504.658-.66-.32-1.578-.596-.56-1.408-1.018-1.805-1.018s-2.022.65-3.611 1.444c-1.886.942-3.39 2.124-4.33 3.402-.792 1.077-1.44 1.752-1.44 1.5s.641-1.236 1.425-2.187c.783-.95 2.723-2.378 4.31-3.17 2.68-1.34 2.806-1.473 1.766-1.862a51 51 0 0 0-2.242-.77c-.712-.221-1.016-.176-.83.124.16.26-.043.603-.453.76s-1.206.3-1.77.32c-.992.031-.994.045-.08.439.869.373.85.41-.235.446-.942.033-1.038.134-.473.499.601.389.579.46-.146.466-.47.003-.724.22-.563.48.16.26.091.472-.154.472s-.561-.444-.703-.986c-.167-.639-.562-.93-1.119-.823-.634.12-.923.721-1.097 2.286-.13 1.168-.091 3.27.087 4.673s.975 3.874 1.772 5.494c.81 1.645 2.404 3.825 3.613 4.939 1.19 1.096 3.34 2.532 4.778 3.19 1.438.66 3.709 1.344 5.046 1.523s3.282.24 4.322.137 2.636-.411 3.546-.684zm-18.42-8.844c-.27-.503-.49-1.035-.49-1.182s.277-.267.615-.267c.34 0 .615.527.615 1.181 0 .65-.057 1.182-.125 1.182s-.346-.411-.615-.914m2.82.441c0-.346.142-.488.315-.315a.447.447 0 0 1 0 .63c-.173.174-.315.032-.315-.315m18.909-6.854c0-.13.106-.237.236-.237s.236.107.236.237-.106.236-.236.236-.236-.106-.236-.236m-5.26-2.01c-.6-.765-.579-.775.296-.133.52.381 1.034.754 1.142.827.109.074-.025.134-.296.134-.272 0-.786-.372-1.143-.827m-3.783-3.308c-.588-.75-.57-.767.179-.179.455.357.827.73.827.827 0 .099-.08.179-.178.179s-.47-.372-.828-.827m3.106-.813c-.505-.381-.678-.7-.385-.709.293-.008.798.304 1.122.694s.496.71.384.71-.617-.313-1.121-.695m-6.827 15.286c0-.455-.19-.945-.423-1.088s-.506.601-.607 1.656c-.157 1.653-.099 1.803.424 1.089.333-.456.606-1.202.606-1.657m15.673-3.246c.78-.78 1.774-1.443 2.209-1.473.654-.046.64-.094-.083-.28-.532-.137-1.398.277-2.215 1.059-1.025.982-1.624 1.213-2.547.982-.78-.196-1.555-.985-2.191-2.232-.542-1.061-1.11-1.804-1.263-1.652s-.612.014-1.02-.308c-.408-.323.012.477.934 1.777.92 1.3 2.193 2.626 2.825 2.947s1.327.587 1.542.591 1.029-.631 1.809-1.411zm3.709-1.182c0-.13-.106-.236-.236-.236s-.237.106-.237.236.107.236.237.236.236-.106.236-.236M18.73 36.542c0-.102-.33-.313-.734-.468-.42-.16-.61-.082-.444.186.158.257.489.468.733.468s.445-.084.445-.186m30.943-5.025c-.018-3.915-.188-4.826-1.345-7.22-.728-1.508-2.357-3.775-3.62-5.038s-3.53-2.883-5.037-3.6c-2.006-.956-3.711-1.364-6.359-1.522-2.035-.122-4.672.036-6.027.361-1.324.318-3.685 1.403-5.245 2.412s-2.837 2.058-2.837 2.331.348.632.773.795 1.117.052 1.536-.247 1.827-1.114 3.127-1.81c1.837-.985 3.206-1.312 6.146-1.469 3.108-.165 4.286-.011 6.614.867 2.02.761 3.593 1.828 5.478 3.713 1.86 1.86 2.948 3.456 3.667 5.377.68 1.817 1.022 3.81 1.022 5.945 0 1.767.15 3.362.332 3.544.182.183.66.267 1.064.187.6-.12.728-.947.71-4.626zm-28.579 1.22c0-.114-.246-.36-.546-.545-.338-.21-.417-.13-.208.208.185.3.43.546.546.546s.208-.094.208-.209m5.673-.472c0-.115-.213-.34-.473-.5s-.473-.068-.473.208c0 .275.213.5.473.5s.473-.094.473-.208m-3.782-.5c0-.13-.106-.237-.236-.237s-.237.106-.237.236.107.236.237.236.236-.106.236-.236m-3.31-5.674c0-.13-.105-.236-.235-.236s-.237.106-.237.236.107.237.237.237.236-.107.236-.237"/></svg>