<svg width="64" height="64" xmlns="http://www.w3.org/2000/svg"><circle cx="32" cy="32" r="27" fill="#f0f0f0"/><g stroke-linecap="round" stroke-linejoin="round"><path d="m16 40 8-3.556 8-6.222V11.556L16 24z" fill="#b8a98b"/><path d="m16 24 16 12.444v16L16 40z" fill="#dfcca8"/><path d="m48 40-8-3.556-8-6.222V11.556L48 24z" fill="#ddc79b"/><path d="M48 24 32 36.444v16L48 40z" fill="#bbac8e"/><path d="M32 11.556 16 24l16 12.444L48 24zm0 2.666L45.333 24 32 33.778 18.667 24z" fill="#ece1cd"/><path d="M16 38.856V40l16 12.445V51.3zm32 0L32 51.3v1.145L48 40z" opacity=".1"/></g></svg>