<svg xmlns="http://www.w3.org/2000/svg" width="64" height="64"><rect width="54" height="54" x="5" y="5" fill="#c7bad6" rx="27" ry="27"/><path fill="#8f4ddb" d="M23.963 13a2.92 2.92 0 0 0-2.514 1.435l-9.498 16.074a2.94 2.94 0 0 0 0 2.981l9.498 16.075A2.93 2.93 0 0 0 23.963 51h16.074a2.92 2.92 0 0 0 2.513-1.435l9.5-16.075a2.94 2.94 0 0 0 0-2.98l-9.5-16.076A2.93 2.93 0 0 0 40.037 13z"/><path fill="#300eaa" d="M24.693 18.845V45.15h13.883a1.46 1.46 0 0 0 1.272-.746l6.576-11.69a1.46 1.46 0 0 0 0-1.432l-6.576-11.69z"/><path fill="#fff" d="M24.693 17.384c-.532 0-1.021.288-1.278.754L16.108 31.29a1.46 1.46 0 0 0 0 1.418l7.307 13.152c.732 1.321 2.747.8 2.747-.71v-7.307a1.46 1.46 0 0 1 1.461-1.46H45.16c.554 0 1.06-.314 1.308-.809l1.46-2.923a1.465 1.465 0 0 0-1.307-2.118H27.623a1.46 1.46 0 0 1-1.461-1.462v-4.384a1.46 1.46 0 0 1 1.461-1.46h13.152c1.147-.002 1.841-1.263 1.239-2.237l-1.827-2.922a1.46 1.46 0 0 0-1.239-.689z"/></svg>