<svg width="64" height="64" version="1.1" viewBox="0 0 16.933 16.933" xmlns="http://www.w3.org/2000/svg" xmlns:xlink="http://www.w3.org/1999/xlink">
 <circle cx="8.4665" cy="8.4665" r="7.1436" fill="#35383b" style="paint-order:stroke fill markers"/>
 <path d="m5.6362 8.9723 1.0199-2.8855 0.92038 2.8855zm2.8441 2.4709h0.72967l-2.131-6.0529h-0.86234l-2.2553 6.0529h0.72967l0.72138-1.9154h2.4046z" fill="#e6e7e8" stroke-width=".51026"/>
 <path d="m10.998 11.012c-0.42288 0-0.73796-0.20729-0.73796-0.7048 0-0.62188 0.37313-0.82088 1.6335-0.98671 0.0083 0 0.40629-0.05805 0.40629-0.05805v1.0945c-0.29021 0.398-0.87892 0.65504-1.3018 0.65504zm1.3184-0.05805 0.09949 0.48921h0.55554v-3.2669c0-0.995-0.68821-1.2852-1.5671-1.2852-0.63017 0-1.2189 0.15754-1.5588 0.33996l0.19072 0.53067c0.36483-0.17413 0.8955-0.2985 1.3847-0.2985 0.61358 0 0.87892 0.28192 0.87892 0.82088v0.50579l-0.44775 0.049757c-1.1443 0.16584-2.2719 0.32338-2.2719 1.4925 0 0.82917 0.62188 1.2106 1.3515 1.2106 0.46434 0 0.995-0.14925 1.3847-0.58871z" fill="#e6e7e8" stroke-width=".51026"/>
</svg>
