<svg width="64" height="64" version="1.1" viewBox="0 0 16.933 16.933" xmlns="http://www.w3.org/2000/svg" xmlns:xlink="http://www.w3.org/1999/xlink">
 <circle cx="8.4665" cy="8.4665" r="7.1436" fill="#f9f9f9" style="paint-order:stroke fill markers"/>
 <g transform="matrix(.61534 0 0 .61534 3.2567 3.5963)">
  <path d="m14.581 2.325c0.424 0 0.765 0.436 0.765 0.86v8.598c0 0.424-0.341 0.844-0.765 0.86h-4.37l-1.72-0.893-1.692 0.37-1.666-0.424-1.888 0.19c-0.421 0.042-0.555-0.328-0.548-0.752l0.108-6.38c7e-3 -0.424 0.733-0.681 1.116-0.86l3.367-1.57z" fill="#3c6eac"/>
  <path d="m2.352 2.325c-0.423 0-0.765 0.436-0.765 0.86v8.598c0 0.424 0.342 0.86 0.765 0.86h2.43l1.72 1.966 1.72-1.966h2.157a15.4 15.4 0 0 0 1.263-0.943c1.896-1.649 2.473-4.692 0.715-6.659-1.203-1.344-3.353-1.748-4.754-0.461-0.932 0.856-1.208 2.407-0.285 3.377 0.596 0.626 1.614 0.808 2.268 0.162 0.406-0.401 0.522-1.21 0.082-1.635-0.261-0.253-0.72-0.323-0.984-0.035-0.15 0.164-0.19 0.545-8e-3 0.702 0.097 0.083 0.263 0.104 0.35-6e-3 0.042-0.054 0.054-0.145-0.01-0.19-0.028-0.02-0.074-0.024-0.094 9e-3 -6e-3 0.012-7e-3 0.034 8e-3 0.042 6e-3 3e-3 0.018 4e-3 0.018-3e-3v-5e-3c-9e-3 -3e-3 0-5e-3 0-5e-3 5e-3 -3e-3 0.013 3e-3 0.013 8e-3 3e-3 0.017-0.012 0.032-0.027 0.035-0.038 8e-3 -0.065-0.028-0.074-0.062-0.012-0.075 0.06-0.131 0.128-0.14 0.14-0.016 0.242 0.116 0.251 0.243 0.019 0.24-0.21 0.412-0.43 0.421-0.392 0.018-0.665-0.356-0.673-0.72-0.01-0.61 0.575-1.031 1.147-1.028 0.919 5e-3 1.545 0.888 1.523 1.751-0.034 1.339-1.326 2.247-2.592 2.194-1.9-0.08-3.289-1.925-3.187-3.725 0.093-1.647 1.175-2.945 2.587-3.645z" fill="#6ae5e8"/>
 </g>
</svg>
