<svg width="64" height="64" version="1" xmlns="http://www.w3.org/2000/svg">
 <circle cx="32" cy="32" r="27" fill="#f0f0f0" style="paint-order:stroke markers fill"/>
 <g transform="matrix(1.026 0 0 1.026 -.84637 -.83334)" stroke-width=".77969">
  <path d="m18.661 16.406c-1.1879 0-2.1441 0.99356-2.1441 2.2277v23.391c0 3.3415 4.2883 5.5693 6.4324 5.5693h2.1442v-28.96c0-1.2342-0.95629-2.2277-2.1442-2.2277z" fill="#f04242"/>
  <path d="m27.432 22.839c0 1.1879 0.98834 2.1441 2.216 2.1441h13.296c3.324 0 5.5399-4.2883 5.5399-6.4324v-2.1442h-18.836c-1.2276 0-2.216 0.95629-2.216 2.1442z" fill="#f04242"/>
  <path d="m28.462 27.322a1.0068 0.89002 0 0 0-1.0302 0.89087v11.475a1.0068 0.89002 0 0 0 1.5096 0.76949l11.242-5.7376a1.0068 0.89002 0 0 0 0-1.5408l-11.242-5.7376a1.0068 0.89002 0 0 0-0.47941-0.11954z" fill="#14a4df"/>
 </g>
</svg>
