<svg xmlns="http://www.w3.org/2000/svg" width="64" height="64"><circle cx="32" cy="32" r="27" fill="#445575"/><path fill="#fff" d="M32 5q-1.137 0-2.25.092v8.162a3.938 3.938 0 0 0 0 7.117v8.816l6.188 6.188h1.687V36.5h9v-1.125h12.166A27 27 0 0 0 59 32H46.625v-1.125h-9V32h-.563l-3.937-3.938v-7.69a3.938 3.938 0 0 0 0-7.118v-8.23A28 28 0 0 0 32 5M21.312 7.197a27 27 0 0 0-6.188 3.725V14h9V8.375h-2.812zm16.312 1.178V14h9v-1.125h4.434a27 27 0 0 0-5.977-4.5zm-22.5 11.25v1.125H7.446a27 27 0 0 0-1.28 3.375h8.958v1.125h9v-5.625zm22.5 0v5.625h9v-1.125h11.209a27 27 0 0 0-1.281-3.375h-9.928v-1.125zM8.936 30.313a3.375 3.375 0 1 0 2.924 5.063h3.263V36.5h9v-1.125h1.688l3.937 3.937v19.596a27 27 0 0 0 3.375.068V38.188l-6.187-6.187h-2.813v-1.125h-9V32H11.86a3.37 3.37 0 0 0-2.924-1.688zm39.938 8.438-1.125 1.125h-8.438l-1.687 1.687v16.852c10.019-2.123 17.986-9.804 20.523-19.664zM11.186 41l-1.125 1.125h-3.1c3.182 7.86 9.956 13.879 18.287 16.023V43.811l-1.687-1.687h-7.875L14.56 41z" opacity=".5"/></svg>