<svg xmlns="http://www.w3.org/2000/svg" width="64" height="64" fill="none"><circle cx="32" cy="32" r="27" fill="#545454"/><path fill="#B9B9B9" d="M5.563 33.688a3.375 3.375 0 0 0 6.298 1.687h3.264V36.5h9v-1.125h1.688l3.937 3.938v19.595a27 27 0 0 0 3.375.069v-20.79L26.937 32h-2.812v-1.125h-9V32h-3.264a3.375 3.375 0 0 0-6.299 1.688Zm9.562-14.063v1.125H7.448a27 27 0 0 0-1.282 3.375h8.959v1.125h9v-5.625zm9-5.625h-9v-3.078a27 27 0 0 1 6.188-3.724v1.177h2.812z"/><path fill="#B9B9B9" d="m11.188 41-1.126 1.125h-3.1c3.182 7.86 9.957 13.88 18.288 16.024V43.812l-1.688-1.687h-7.875L14.563 41zm24.75-5.625-6.188-6.188v-8.816a3.938 3.938 0 0 1 0-7.117V5.092a27 27 0 0 1 3.375-.069v8.23a3.938 3.938 0 0 1 0 7.118v7.692L37.063 32h.562v-1.125h9V32H59q-.001 1.716-.209 3.375H46.625V36.5h-9v-1.125h-1.688Z"/><path fill="#B9B9B9" d="M37.625 14V8.375h7.456a27 27 0 0 1 1.85 1.125 27 27 0 0 1 4.128 3.375h-4.434V14zm9 5.625v1.125h9.927a27 27 0 0 1 1.282 3.375h-11.21v1.125h-9v-5.625zm-7.312 20.25-1.688 1.688v16.85c10.02-2.123 17.987-9.803 20.524-19.663h-9.274l-1.125 1.125h-8.438Z"/></svg>