<svg xmlns="http://www.w3.org/2000/svg" width="64" height="64" fill="none"><circle cx="32" cy="32" r="27" fill="#545454"/><path fill="#B9B9B9" d="M5.563 33.688a3.375 3.375 0 0 0 6.298 1.687h3.264V36.5h9v-1.125h1.688l3.937 3.938v19.595a27.364 27.364 0 0 0 3.375.069v-20.79L26.937 32h-2.812v-1.125h-9V32h-3.264a3.375 3.375 0 0 0-6.299 1.688ZM15.125 19.625v1.125H7.448a26.812 26.812 0 0 0-1.282 3.375h8.959v1.125h9v-5.625h-9ZM24.125 14h-9v-3.078a26.99 26.99 0 0 1 6.188-3.724v1.177h2.812V14Z"/><path fill="#B9B9B9" d="m11.188 41-1.126 1.125h-3.1c3.182 7.86 9.957 13.88 18.288 16.024V43.812l-1.688-1.687h-7.875L14.563 41h-3.376ZM35.938 35.375l-6.188-6.188v-8.816a3.938 3.938 0 0 1 0-7.117V5.092a27.36 27.36 0 0 1 3.375-.069v8.23a3.938 3.938 0 0 1 0 7.118v7.692L37.063 32h.562v-1.125h9V32H59c0 1.143-.071 2.27-.209 3.375H46.625V36.5h-9v-1.125h-1.688Z"/><path fill="#B9B9B9" d="M37.625 14V8.375h7.456a26.969 26.969 0 0 1 1.85 1.125c1.485.988 2.868 2.12 4.128 3.375h-4.434V14h-9ZM46.625 19.625v1.125h9.927c.5 1.088.928 2.215 1.282 3.375H46.624v1.125h-9v-5.625h9ZM39.313 39.875l-1.688 1.688v16.85c10.02-2.123 17.987-9.803 20.524-19.663h-9.274l-1.125 1.125h-8.438Z"/></svg>