<?xml version="1.0" encoding="UTF-8"?>
<svg width="64" height="64" version="1.1" viewBox="0 0 16.933 16.933" xmlns="http://www.w3.org/2000/svg">
 <circle cx="8.466" cy="8.466" r="7.144" fill="#ececec" style="paint-order:stroke fill markers"/>
 <path d="m12.437 4.4952c-0.08334-0.0127-0.15795 0.032543-0.20293 0.084136-0.04498 0.051593-0.0762 0.11562-0.10319 0.19658-0.0471 0.13943-0.2196 0.65774-0.84162 1.1697-0.62202 0.51222-1.6946 1.1448-3.5538 1.1911-1.4128 0.016139-2.2775-0.89269-2.6373-2.1211v0.72653l-0.00582 2.0399 0.011641 0.026987s0.10107 0.21722-0.00582 0.51011c-0.10716 0.29262-0.52916 0.67362-1.4721 0.94719l-0.11536 0.033072 0.02196 0.11721c0.052122 0.28416 0.26087 0.57519 0.56858 0.87337 0.3077 0.29818 0.71992 0.59953 1.1999 0.87231 0.95989 0.54503 2.1894 0.97629 3.384 0.99614 1.1943 0.02037 2.3629-0.38311 3.1363-1.5004 0.77336-1.1176 1.1504-3.0561 0.84136-5.8334l-2.64e-4 -0.00106v-0.00106c-0.0098-0.076198-0.02725-0.14155-0.05821-0.19843-0.03096-0.056884-0.08387-0.11589-0.16721-0.12885z" color="#000000" fill="#7e6651" fill-rule="evenodd" image-rendering="auto" stroke-width=".26458" style="isolation:auto;mix-blend-mode:normal;text-decoration-color:#000000;text-decoration-line:none;text-decoration-style:solid;text-indent:0;text-transform:none;white-space:normal"/>
 <path d="m6.6859 10.308c1.7364 0.37041 2.6206 0.026987 3.1379-0.39951-0.13652-0.18812-0.22754-0.39475-0.22754-0.39475s0.46381 0.17991 0.67732 0.47359c0.21299 0.29368 0.07911 0.47412 0.02328 0.8493-0.12409-0.3294-0.35559-0.45296-0.38681-0.58392-0.46566 0.68632-1.625 0.65774-3.2241 0.0553z" fill="#333"/>
 <g stroke-width=".26458">
  <path d="m12.234 12 0.245-0.48815c-0.91174-0.667-2.614-1.3441-2.614-1.3441l-0.26828 0.14764s1.5457 1.3705 2.6373 1.6846z" color="#000000" fill="#eb9329"/>
  <path d="m12.242 11.101-0.12779 0.08414c-0.11827 0.06482-0.21431 0.17462-0.29236 0.30215-0.08916 0.20955-0.12435 0.34051-0.10901 0.54503l0.1852-0.03175s0.96703 0.27754 1.4248 0.42332l0.05344-0.10319 0.18864-0.36485-1.3229-0.67758z" color="#000000" fill="#8e9c9c" image-rendering="auto" style="isolation:auto;mix-blend-mode:normal;text-decoration-color:#000000;text-decoration-line:none;text-decoration-style:solid;text-indent:0;text-transform:none;white-space:normal"/>
  <path d="m14.888 13.747c-0.32993-1.0721-0.44714-1.9232-1.3091-1.8473-0.69478 0.06085-0.74346 1.0139-0.0254 1.2769a15.443 15.443 0 0 1 1.3345 0.57043z" color="#000000" fill="#233333"/>
  <path d="m6.0244 6.8677c-0.29395 0-0.58974 0.097365-0.81543 0.29791-0.22569 0.20055-0.37517 0.50667-0.37517 0.89269s0.14975 0.69214 0.37517 0.89269c0.22569 0.20055 0.52122 0.29791 0.81543 0.29791s0.59001-0.097365 0.81569-0.29791c0.22569-0.20055 0.37491-0.50667 0.37491-0.89269s-0.14922-0.69214-0.37491-0.89269c-0.22542-0.20055-0.52175-0.29791-0.81569-0.29791z" color="#000000" fill="#fff" fill-rule="evenodd" image-rendering="auto" style="isolation:auto;mix-blend-mode:normal;text-decoration-color:#000000;text-decoration-line:none;text-decoration-style:solid;text-indent:0;text-transform:none;white-space:normal"/>
  <path d="m3.8023 7.6614a1.144 1.144 0 0 0-0.18944 0.013758 1.0411 1.0411 0 0 0-0.44714 0.18229c-0.52386 0.37702-0.66197 1.2313-0.014816 2.1261 0.64742 0.89454 1.5039 1.0334 2.028 0.65642 0.52413-0.37702 0.6625-1.2313 0.015081-2.1261-0.42465-0.5871-0.93978-0.8485-1.3917-0.85247z" color="#000000" fill="#1b2a2a" fill-rule="evenodd"/>
 </g>
 <g transform="scale(.26458)" color="#000000" fill-rule="evenodd" image-rendering="auto">
  <path d="m31.269 25.957c-1.237 0-2.48 0.409-3.427 1.25-0.946 0.841-1.572 2.124-1.572 3.75s0.626 2.909 1.572 3.75c0.947 0.841 2.19 1.25 3.427 1.25s2.48-0.409 3.427-1.25c0.946-0.842 1.574-2.122 1.574-3.75s-0.628-2.908-1.574-3.75c-0.947-0.841-2.19-1.25-3.427-1.25z" fill="#fff" style="isolation:auto;mix-blend-mode:normal;text-decoration-color:#000000;text-decoration-line:none;text-decoration-style:solid;text-indent:0;text-transform:none;white-space:normal"/>
  <path d="m32.77 28.957c-0.613 0-1.232 0.203-1.709 0.627s-0.791 1.077-0.791 1.873 0.314 1.45 0.791 1.873 1.096 0.627 1.709 0.627 1.232-0.202 1.709-0.627c0.477-0.424 0.791-1.077 0.791-1.873s-0.314-1.45-0.791-1.873a2.566 2.566 0 0 0-1.709-0.627z" fill="#1e2d2d" style="isolation:auto;mix-blend-mode:normal;text-decoration-color:#000000;text-decoration-line:none;text-decoration-style:solid;text-indent:0;text-transform:none;white-space:normal"/>
  <path d="m24.27 28.957c-0.49 0-0.986 0.162-1.367 0.501s-0.633 0.862-0.633 1.499 0.251 1.16 0.633 1.499 0.877 0.501 1.367 0.501 0.986-0.162 1.367-0.501 0.633-0.862 0.633-1.499-0.251-1.16-0.633-1.499-0.877-0.501-1.367-0.501z" fill="#1e2d2d" style="isolation:auto;mix-blend-mode:normal;text-decoration-color:#000000;text-decoration-line:none;text-decoration-style:solid;text-indent:0;text-transform:none;white-space:normal"/>
  <path d="m25.27 28.957c-0.245 0-0.493 0.081-0.6835 0.2505s-0.3165 0.431-0.3165 0.7495 0.1255 0.58 0.3165 0.7495 0.4385 0.2505 0.6835 0.2505 0.493-0.081 0.6835-0.2505 0.3165-0.431 0.3165-0.7495-0.1255-0.58-0.3165-0.7495-0.4385-0.2505-0.6835-0.2505z" fill="#fff" stroke-width=".5" style="isolation:auto;mix-blend-mode:normal;text-decoration-color:#000000;text-decoration-line:none;text-decoration-style:solid;text-indent:0;text-transform:none;white-space:normal"/>
  <path d="m34.02 28.957c-0.3065 0-0.616 0.1015-0.8545 0.3135s-0.3955 0.5385-0.3955 0.9365 0.157 0.725 0.3955 0.9365 0.548 0.3135 0.8545 0.3135 0.616-0.101 0.8545-0.3135c0.2385-0.212 0.3955-0.5385 0.3955-0.9365s-0.157-0.725-0.3955-0.9365a1.283 1.283 0 0 0-0.8545-0.3135z" fill="#fff" stroke-width=".5" style="isolation:auto;mix-blend-mode:normal;text-decoration-color:#000000;text-decoration-line:none;text-decoration-style:solid;text-indent:0;text-transform:none;white-space:normal"/>
 </g>
</svg>
