<svg width="64" height="64" viewBox="0 0 16.933 16.933" xmlns="http://www.w3.org/2000/svg"><defs><linearGradient id="a" x1="34.601" x2="34.601" y1="50.4" y2="45.086" gradientUnits="userSpaceOnUse"><stop offset="0"/><stop stop-opacity="0" offset="1"/></linearGradient></defs><circle cx="8.466" cy="8.466" r="7.144" fill="#f0f0f0" style="paint-order:stroke fill markers"/><path d="M4.375 4.442s-.68 0-.68.677c0 0-.037 3.308.68 4.733.429.856 2.718 2.706 2.718 2.706h2.72s2.288-1.85 2.718-2.706c.717-1.426.68-4.733.68-4.733.096-.67-.68-.677-.68-.677 0 1.353-1.36 1.353-1.36 1.353H5.735s-1.36 0-1.36-1.353z" fill="#5c4e3c"/><g transform="matrix(.23811 0 0 .23692 -27.47 -52.566)"><circle cx="159.87" cy="259.33" r="4" fill="#fff"/><path d="M159.74 257.33a3 3 0 0 0-2.874 2.995 3 3 0 0 0 3 3 3 3 0 0 0 3-3 3 3 0 0 0-2.85-2.992 1.5 1.5 0 0 1 1.35 1.492 1.5 1.5 0 0 1-1.5 1.5 1.5 1.5 0 0 1-1.5-1.5 1.5 1.5 0 0 1 1.374-1.495z" opacity=".8"/></g><g transform="matrix(.23811 0 0 .23692 -31.757 -52.566)"><circle cx="159.87" cy="259.33" r="4" fill="#fff"/><path d="M159.74 257.33a3 3 0 0 0-2.874 2.995 3 3 0 0 0 3 3 3 3 0 0 0 3-3 3 3 0 0 0-2.85-2.992 1.5 1.5 0 0 1 1.35 1.492 1.5 1.5 0 0 1-1.5 1.5 1.5 1.5 0 0 1-1.5-1.5 1.5 1.5 0 0 1 1.374-1.495z" opacity=".8"/></g><path d="M7.093 12.558s.398.676 1.36.676c.96 0 1.36-.676 1.36-.676s-.34-.676-1.36-.676-1.36.676-1.36.676z" fill="#252525" fill-rule="evenodd"/><path transform="matrix(.23811 0 0 .23692 .833 1.293)" d="M34.537 45.086a5.5 5 0 0 1 .072.791 5.5 5 0 0 1-3.117 4.502c.167.01.332.021.508.021 4.037 0 5.709-2.855 5.709-2.855s-.846-1.677-3.172-2.46z" fill="url(#a)" fill-rule="evenodd" opacity=".25"/></svg>