<svg width="64" height="64" version="1.1" viewBox="0 0 64 64" xmlns="http://www.w3.org/2000/svg">
 <circle cx="32" cy="32" r="27" fill="#eeeeee"/>
 <path d="m31.995 14.921c-9.7246 0-17.609 7.8839-17.609 17.609 0.0035 7.4708 4.7309 14.122 11.786 16.599 0.62923-0.02495 1.1305-0.52945 1.1305-1.1645v-2.518h-1.1739c-1.7374 0-3.8083-0.46134-4.4505-2.3478-0.85578-2.5157-3.2987-3.1308-2.5932-3.5218 0.14793-0.08217 0.30052-0.13266 0.45665-0.15614 0.13618-0.02117 0.27587-0.02003 0.41557-0.0023 0.97669 0.12212 2.0039 1.1035 2.6507 1.9194 1.1551 1.458 1.7961 1.7609 3.0452 1.7609 1.1857 0 1.6505-0.29352 1.6505-0.29352 0-1.1211 0.51184-1.9816 1.3042-2.5357-4.4996-0.70433-7.7607-2.9935-7.7607-7.7361 0-2.2739 0.62923-4.1039 1.701-5.5303-0.4813-1.6552-0.42846-3.3351 0.05987-5.0348 1.647 0 3.4947 0.89569 4.6708 1.8571 1.4357-0.45431 3.0311-0.6832 4.7192-0.6832 1.6846 0 3.2834 0.22774 4.7309 0.67852 1.1739-0.95908 3.0193-1.8524 4.664-1.8524 0.48012 1.6705 0.53296 3.3222 0.07748 4.9505 1.1305 1.438 1.7996 3.2952 1.7996 5.615 0 4.7427-3.3409 7.0354-7.8759 7.7384 0.79122 0.55409 1.3019 1.4134 1.3019 2.5333v5.1595c0 0.63509 0.50125 1.1399 1.1305 1.1645 7.0554-2.4723 11.774-9.1236 11.786-16.599 0.0049-9.7246-7.8839-17.609-17.609-17.609z" fill="#333333"/>
</svg>
