<svg width="64" height="64" version="1.1" viewBox="0 0 16.933 16.933" xmlns="http://www.w3.org/2000/svg">
 <circle cx="8.4665" cy="8.4665" r="7.1436" fill="#e35c58" style="paint-order:stroke fill markers"/>
 <rect x="5.821" y="9.7895" width="4.233" height=".529" ry=".265" fill="#fff" style="paint-order:stroke markers fill"/>
 <path d="m4.502 4.9915a0.264 0.264 0 0 0-0.262 0.13 0.264 0.264 0 0 0 0.097 0.362l2.842 1.64-2.842 1.641a0.264 0.264 0 0 0-0.097 0.361c0.074 0.127 0.235 0.17 0.362 0.097l3.208-1.852a0.26 0.26 0 0 0 0.127-0.224c2e-3 -8e-3 1e-3 -0.015 2e-3 -0.023 0-8e-3 0-0.014-2e-3 -0.022a0.26 0.26 0 0 0-0.127-0.225l-3.208-1.852a0.266 0.266 0 0 0-0.1-0.033z" fill="#fff" style="paint-order:stroke markers fill"/>
</svg>
