<svg width="64" height="64" viewBox="0 0 16.933 16.933" xmlns="http://www.w3.org/2000/svg"><path d="M8.466 1.323A7.144 7.144 0 0 0 1.644 6.35h13.638a7.144 7.144 0 0 0-6.815-5.027z" fill="#4d4d4d" style="paint-order:stroke fill markers"/><circle cx="8.466" cy="8.466" r="6.35" fill="#fff" style="paint-order:stroke fill markers"/><path d="M14.866 5.3 3.402 13.5a7.144 7.144 0 0 0 5.064 2.11 7.144 7.144 0 0 0 7.143-7.144 7.144 7.144 0 0 0-.743-3.165z" fill="#6a6b6b" style="paint-order:markers stroke fill"/><path d="M2.07 5.304a7.144 7.144 0 0 0-.747 3.163 7.144 7.144 0 0 0 7.143 7.143 7.144 7.144 0 0 0 5.063-2.11z" fill="gray" style="paint-order:markers stroke fill"/></svg>