<svg width="64" height="64" viewBox="0 0 16.933 16.933" xmlns="http://www.w3.org/2000/svg"><path transform="scale(.26458)" d="M32 5A27 27 0 0 0 6.213 24h51.545A27 27 0 0 0 32 5z" fill="#cc4d44" style="paint-order:stroke fill markers"/><circle cx="8.466" cy="8.466" r="6.35" fill="#fff" style="paint-order:stroke fill markers"/><path d="M14.866 5.3 3.402 13.5a7.144 7.144 0 0 0 5.064 2.11 7.144 7.144 0 0 0 7.143-7.144 7.144 7.144 0 0 0-.743-3.165z" fill="#f4685c" style="paint-order:markers stroke fill"/><path d="M2.07 5.304a7.144 7.144 0 0 0-.747 3.163 7.144 7.144 0 0 0 7.143 7.143 7.144 7.144 0 0 0 5.063-2.11z" fill="#ff7a6e" style="paint-order:markers stroke fill"/></svg>