<?xml version="1.0" encoding="UTF-8" standalone="no"?>
<svg
   width="64"
   height="64"
   viewBox="0 0 16.934 16.934"
   version="1.1"
   id="svg6"
   sodipodi:docname="gmod.svg"
   inkscape:version="1.1.2 (0a00cf5339, 2022-02-04)"
   xmlns:inkscape="http://www.inkscape.org/namespaces/inkscape"
   xmlns:sodipodi="http://sodipodi.sourceforge.net/DTD/sodipodi-0.dtd"
   xmlns="http://www.w3.org/2000/svg"
   xmlns:svg="http://www.w3.org/2000/svg">
  <defs
     id="defs10" />
  <sodipodi:namedview
     id="namedview8"
     pagecolor="#505050"
     bordercolor="#ffffff"
     borderopacity="1"
     inkscape:pageshadow="0"
     inkscape:pageopacity="0"
     inkscape:pagecheckerboard="1"
     showgrid="false"
     inkscape:zoom="5.59375"
     inkscape:cx="-4.1117319"
     inkscape:cy="2.8603352"
     inkscape:window-width="1920"
     inkscape:window-height="1000"
     inkscape:window-x="0"
     inkscape:window-y="44"
     inkscape:window-maximized="1"
     inkscape:current-layer="svg6" />
  <circle
     cx="8.467"
     cy="8.467"
     r="7.1440001"
     fill="#333333"
     style="paint-order:markers stroke fill;fill:#3893d4;fill-opacity:1"
     id="circle2" />
  <path
     style="fill:#ffffff;stroke-width:0.00295223;fill-opacity:1"
     d="M 8.2762797,13.419352 C 7.8821013,13.401152 7.536864,13.341762 7.1854314,13.231693 7.0079783,13.176113 6.8878676,13.128658 6.7411211,13.056137 6.4092359,12.892119 6.1191546,12.665645 5.8714445,12.377156 5.4501251,11.886478 5.2228982,11.277092 5.2350386,10.670419 c 9.949e-4,-0.04972 0.00264,-0.09256 0.00366,-0.09521 0.0017,-0.0044 0.065391,-0.0048 0.8104433,-0.0048 0.4447271,0 0.8085947,7.37e-4 0.8085947,0.0016 0,0.0062 0.034826,0.174558 0.047307,0.228664 0.064156,0.278138 0.1404357,0.457047 0.2580233,0.605176 0.1230964,0.15507 0.3543676,0.302525 0.6010039,0.383193 0.1537064,0.05027 0.3084754,0.07718 0.477195,0.08295 0.2275574,0.0078 0.4355006,-0.02129 0.6490801,-0.09078 0.3215159,-0.104601 0.6007448,-0.296783 0.7902022,-0.543864 0.033253,-0.04337 0.08092,-0.113986 0.1034691,-0.15329 0.040085,-0.06987 0.080279,-0.205697 0.099612,-0.336619 0.024767,-0.167719 0.026189,-0.324786 0.00612,-0.675995 -0.0032,-0.05602 -0.00726,-0.1310797 -0.00903,-0.1668017 -0.00359,-0.07267 -0.00442,-0.235011 -0.00157,-0.3070316 l 0.00187,-0.04724 -0.023207,0.04724 c -0.08073,0.1643196 -0.1882462,0.2949766 -0.3415914,0.4151133 -0.1022404,0.0801 -0.2409571,0.156878 -0.3941225,0.218145 -0.23099,0.0924 -0.5134456,0.155019 -0.866479,0.192101 -0.045766,0.0048 -0.068671,0.0058 -0.1018518,0.0044 C 7.461965,10.39754 6.8293461,10.1836 6.367349,9.8232273 6.27686,9.7526473 6.2199003,9.7009013 6.0810311,9.5631387 5.9337537,9.4170183 5.868246,9.339884 5.7812003,9.2100787 5.5211122,8.8222264 5.377613,8.3366675 5.3020103,7.5886414 5.2430443,7.0052268 5.2482523,6.5145366 5.3181913,6.0638155 5.3643883,5.7660988 5.4471595,5.477522 5.5544403,5.2401438 5.6621702,5.0017718 5.7144447,4.9036631 5.8118343,4.757067 5.9704182,4.5183579 6.1780902,4.2957284 6.4119475,4.1137309 6.7760317,3.8303854 7.2072705,3.6362659 7.6518704,3.5555873 c 0.1796354,-0.032597 0.3007631,-0.042262 0.531414,-0.042399 0.1765645,-1.054e-4 0.2054553,0.00152 0.3188407,0.017916 0.5082137,0.073499 0.9763497,0.3460017 1.2713877,0.740077 0.056036,0.074846 0.101032,0.1469205 0.1450754,0.2323817 0.030514,0.059209 0.029638,0.057641 0.031199,0.055846 5.887e-4,-6.765e-4 -7.162e-4,-0.051713 -0.0029,-0.1134148 -0.00218,-0.061701 -0.00487,-0.2498662 -0.00596,-0.4181436 l -0.00199,-0.305959 0.048436,-0.00208 c 0.068456,-0.00294 1.6809688,-0.00353 1.6980108,-6.189e-4 l 0.01404,0.0024 -8.76e-4,3.5432284 c -8.21e-4,3.3164389 -0.0012,3.5464389 -0.0059,3.5933939 -0.0162,0.161145 -0.03943,0.294713 -0.07471,0.429572 -0.140771,0.538122 -0.449389,1.019848 -0.872094,1.361266 -0.26512,0.214137 -0.588864,0.397532 -0.9255231,0.524293 -0.3726743,0.140321 -0.7525118,0.218596 -1.1794152,0.243048 -0.071281,0.0041 -0.3000686,0.0059 -0.3646002,0.003 z M 8.7572635,8.9750169 C 8.9189149,8.9517059 9.062544,8.8960359 9.2089105,8.7999616 9.4348811,8.6516355 9.6408282,8.4104549 9.781883,8.128965 9.822392,8.048126 9.8820504,7.8487941 9.9160925,7.6805437 9.9576015,7.4753886 9.9759955,7.2872027 9.9761495,7.066097 9.9763443,6.7854744 9.9446535,6.5265135 9.8762165,6.249501 9.8394716,6.1007696 9.7750613,5.9010255 9.7311369,5.7995911 9.6166607,5.535232 9.3947048,5.3143102 9.1122622,5.1836005 8.8139091,5.0455274 8.4885594,5.0196483 8.1522861,5.1072417 8.0521095,5.1333357 7.9682469,5.1650077 7.8747767,5.2120464 7.6775323,5.3113094 7.5255369,5.4446052 7.4084744,5.6209813 c -0.04971,0.074897 -0.0791,0.1304907 -0.1232975,0.233226 -0.2098183,0.4877162 -0.2642594,1.0826299 -0.1602055,1.7506714 0.05157,0.3310841 0.1990841,0.6558032 0.415756,0.9151907 0.039149,0.046867 0.1416517,0.1490751 0.1881898,0.1876489 0.1701294,0.1410141 0.3630464,0.2316682 0.5562192,0.2613741 0.067757,0.01042 0.1069135,0.012073 0.2730811,0.011533 0.1372783,-4.464e-4 0.1695565,-0.00136 0.199046,-0.00561 z"
     id="path1006" />
</svg>
