<svg width="64" height="64" version="1.1" viewBox="0 0 16.933 16.933" xmlns="http://www.w3.org/2000/svg">
 <circle cx="8.4665" cy="8.4665" r="7.1436" fill="#f0f0f0" style="paint-order:stroke fill markers"/>
 <g transform="matrix(1.0012 0 0 .99475 .78861 -.7241)" fill-rule="evenodd">
  <path d="m4.7918 3.9196c-0.30944 8e-7 -0.55855 0.24911-0.55855 0.55855v8.192c0 0.30944 0.24911 0.55855 0.55855 0.55855h7.0749c0.30944 0 0.55855-0.24911 0.55855-0.55855l5.7e-5 -6.3568-2.3783-2.3938z" fill="#f7d83f" stroke-width=".18618" style="paint-order:fill markers stroke"/>
  <path d="m12.425 6.3134-2.3783-2.3938v1.7953c0 0.33154 0.26519 0.59844 0.5946 0.59844z" fill="#ffec8c" stroke-width=".75153" style="paint-order:fill markers stroke"/>
 </g>
 <g transform="matrix(1.0012 0 0 .99475 -.0051257 .069633)" fill-rule="evenodd">
  <path d="m4.7918 3.9196c-0.30944 8e-7 -0.55855 0.24911-0.55855 0.55855v8.192c0 0.30944 0.24911 0.55855 0.55855 0.55855h7.0749c0.30944 0 0.55855-0.24911 0.55855-0.55855l5.7e-5 -6.3568-2.3783-2.3938z" fill="#638df5" stroke-width=".18618" style="paint-order:fill markers stroke"/>
  <path d="m12.425 6.3134-2.3783-2.3938v1.7953c0 0.33154 0.26519 0.59844 0.5946 0.59844z" fill="#88aaf8" stroke-width=".75153" style="paint-order:fill markers stroke"/>
 </g>
 <rect x="8.4665" y="9.2602" width=".52916" height="1.0583" enable-background="new" fill="#fff" opacity=".5" stroke-width=".17639"/>
 <path d="m5.2916 6.0853v-0.26458h3.7041v0.26458z" color="#000000" enable-background="new" fill="#fff" opacity=".35" stroke-width=".22913" style="paint-order:normal"/>
 <path d="m5.2916 5.5561v-0.26458h3.7041v0.26458z" color="#000000" enable-background="new" fill="#fff" opacity=".35" stroke-width=".22913" style="paint-order:normal"/>
 <path d="m5.2916 6.879v-0.26458h6.0853v0.26458z" color="#000000" enable-background="new" fill="#fff" opacity=".35" stroke-width=".28983" style="paint-order:normal"/>
 <path d="m5.2916 7.4082v-0.26458h6.0853v0.26458z" color="#000000" enable-background="new" fill="#fff" opacity=".35" stroke-width=".28983" style="paint-order:normal"/>
 <path d="m5.2916 8.2019v-0.26458h1.852v0.26458z" color="#000000" enable-background="new" fill="#fff" opacity=".35" stroke-width=".16733" style="paint-order:normal"/>
 <path d="m5.2916 8.7311v-0.26458h1.852v0.26458z" color="#000000" enable-background="new" fill="#fff" opacity=".35" stroke-width=".16733" style="paint-order:normal"/>
 <path d="m5.2916 9.2602v-0.26458h1.852v0.26458z" color="#000000" enable-background="new" fill="#fff" opacity=".35" stroke-width=".16733" style="paint-order:normal"/>
 <path d="m5.2916 9.7894v-0.26458h1.852v0.26458z" color="#000000" enable-background="new" fill="#fff" opacity=".35" stroke-width=".16733" style="paint-order:normal"/>
 <path d="m5.2916 10.319v-0.26458h1.852v0.26458z" color="#000000" enable-background="new" fill="#fff" opacity=".35" stroke-width=".16733" style="paint-order:normal"/>
 <path d="m5.2916 10.848v-0.26458h1.0583v0.26458z" color="#000000" enable-background="new" fill="#fff" opacity=".35" stroke-width=".13229" style="paint-order:normal"/>
 <path d="m5.2916 11.641v-0.26458h6.0853v0.26458z" color="#000000" enable-background="new" fill="#fff" opacity=".35" stroke-width=".28983" style="paint-order:normal"/>
 <path d="m5.2916 12.171v-0.26458h4.4978v0.26458z" color="#000000" enable-background="new" fill="#fff" opacity=".35" stroke-width=".251" style="paint-order:normal"/>
 <path d="m7.6728 7.9373h0.26458v2.9104h-0.26458z" color="#000000" enable-background="new" fill="#fff" opacity=".35" stroke-width=".19622" style="paint-order:normal"/>
 <path d="m7.9373 10.848v-0.26458h3.4395v0.26458z" color="#000000" enable-background="new" fill="#fff" opacity=".35" stroke-width=".21331" style="paint-order:normal"/>
 <rect x="9.5248" y="7.9373" width=".52916" height="2.3812" enable-background="new" fill="#fff" opacity=".5" stroke-width=".26458"/>
 <rect x="10.583" y="8.7311" width=".52916" height="1.5875" enable-background="new" fill="#fff" opacity=".5" stroke-width=".21603"/>
</svg>
