<svg width="64" height="64" version="1.1" viewBox="0 0 16.933 16.933" xmlns="http://www.w3.org/2000/svg" xmlns:xlink="http://www.w3.org/1999/xlink">
 <circle cx="8.4665" cy="8.4665" r="7.1436" fill="#4d4d4d" style="paint-order:stroke fill markers"/>
 <g transform="matrix(.84202 0 0 .84202 1.3375 1.338)" stroke-width="1.158">
  <path d="m4.354 4.354v8.226h8.226v-8.226zm1.237 0.914h5.752l-1.371 1.37h-3.01l-1.372-1.369zm-0.323 0.324 1.37 1.371v3.01l-1.37 1.37v-5.75zm6.398 0v5.752l-1.371-1.371v-3.01l1.37-1.37zm-4.57 1.504h2.742v2.742h-2.742zm-0.134 3.199h3.01l1.37 1.37h-5.75z" fill="#c4c4c4"/>
  <path d="m4.81 3.44a1.371 1.371 0 0 0-1.37 1.37 1.371 1.371 0 0 0 1.37 1.372 1.371 1.371 0 0 0 1.373-1.372 1.371 1.371 0 0 0-1.373-1.37zm7.313 0a1.371 1.371 0 0 0-1.371 1.37 1.371 1.371 0 0 0 1.37 1.372 1.371 1.371 0 0 0 1.372-1.371 1.371 1.371 0 0 0-1.371-1.371zm-5.256 2.742a0.686 0.686 0 0 0-0.685 0.685 0.686 0.686 0 0 0 0.685 0.686 0.686 0.686 0 0 0 0.686-0.686 0.686 0.686 0 0 0-0.686-0.685zm3.2 0a0.686 0.686 0 0 0-0.686 0.685 0.686 0.686 0 0 0 0.685 0.686 0.686 0.686 0 0 0 0.686-0.686 0.686 0.686 0 0 0-0.686-0.685zm-3.2 3.199a0.686 0.686 0 0 0-0.685 0.685 0.686 0.686 0 0 0 0.685 0.686 0.686 0.686 0 0 0 0.686-0.686 0.686 0.686 0 0 0-0.686-0.685zm3.2 0a0.686 0.686 0 0 0-0.686 0.685 0.686 0.686 0 0 0 0.685 0.686 0.686 0.686 0 0 0 0.686-0.686 0.686 0.686 0 0 0-0.686-0.685zm-5.257 1.369a1.371 1.371 0 0 0-1.371 1.372 1.371 1.371 0 0 0 1.37 1.37 1.371 1.371 0 0 0 1.372-1.37 1.371 1.371 0 0 0-1.371-1.371zm7.312 0a1.371 1.371 0 0 0-1.371 1.372 1.371 1.371 0 0 0 1.37 1.37 1.371 1.371 0 0 0 1.372-1.37 1.371 1.371 0 0 0-1.371-1.371z" fill="#fff"/>
 </g>
</svg>
