<svg xmlns="http://www.w3.org/2000/svg" width="64" height="64"><path fill="#f0354c" d="M32 5c14.912 0 27 12.088 27 27S46.912 59 32 59 5 46.912 5 32 17.088 5 32 5"/><g stroke-width="1.5" transform="translate(-3.26 -3.391)"><path fill="#acacac" d="M35.261 14.391a7.5 7.5 0 0 0-7.5 7.5v12h3v-12a4.5 4.5 0 0 1 4.5-4.5 4.5 4.5 0 0 1 4.5 4.5v12h3v-12a7.5 7.5 0 0 0-7.5-7.5"/><circle cx="35.261" cy="41.391" r="15" fill="#c8c8c8"/><circle cx="35.261" cy="41.391" r="13.5" fill="#b4b4b4"/><circle cx="35.26" cy="41.391" r="11.9" fill="#b4b4b4" style="fill:#3d3d3d;fill-opacity:1;stroke-width:1.32222"/></g><g transform="translate(8.493 10.406)scale(.66667)"><path fill="#f93d47" d="m35.261 32.541 2.25 4.95h-4.5z" style="stroke-width:.6"/><circle cx="35.261" cy="41.391" r="4.5" fill="#b4b4b4"/></g><g style="display:inline;stroke:#f6f5f4"><path d="M64 216v6M64 278v6M98 250h-6M36 250h-6M39.958 225.958l4.243 4.243M83.799 269.799l4.243 4.243M88.042 225.958l-4.243 4.243M44.201 269.799l-4.243 4.243" style="fill:none;stroke:#f6f5f4;stroke-width:2;stroke-linecap:butt;stroke-linejoin:miter;stroke-miterlimit:4;stroke-dasharray:none;stroke-opacity:1" transform="matrix(.30588 0 0 -.30588 12.424 114.47)"/></g><g style="display:inline;opacity:.2;stroke:#fff"><path d="m57.367 283.347.78-3.923M69.853 220.576l.78-3.923M97.347 256.633l-3.923-.78M34.576 244.147l-3.923-.78M35.73 268.89l3.326-2.223M88.944 233.333l3.326-2.222M82.89 278.27l-2.223-3.326M47.333 225.056l-2.222-3.326M50.989 281.412l1.53-3.696M75.48 222.284l1.531-3.696M95.412 263.011l-3.696-1.53M36.284 238.52l-3.696-1.531M32.588 263.011l3.696-1.53M91.716 238.52l3.696-1.531M77.011 281.412l-1.53-3.696M52.52 222.284l-1.531-3.696M45.11 278.27l2.223-3.326M80.667 225.056l2.222-3.326M92.27 268.89l-3.326-2.223M39.056 233.333l-3.326-2.222M30.653 256.633l3.923-.78M93.424 244.147l3.923-.78M70.633 283.347l-.78-3.923M58.147 220.576l-.78-3.923" style="fill:none;stroke:#fff;stroke-width:1;stroke-linecap:butt;stroke-linejoin:miter;stroke-miterlimit:4;stroke-dasharray:none;stroke-opacity:1" transform="translate(12.424 -38.47)scale(.30588)"/></g></svg>