<?xml version="1.0" encoding="UTF-8"?>
<svg width="64" height="64" version="1.1" viewBox="0 0 16.933 16.933" xmlns="http://www.w3.org/2000/svg" xmlns:cc="http://creativecommons.org/ns#" xmlns:dc="http://purl.org/dc/elements/1.1/" xmlns:rdf="http://www.w3.org/1999/02/22-rdf-syntax-ns#">
 <metadata>
  <rdf:RDF>
   <cc:Work rdf:about="">
    <dc:format>image/svg+xml</dc:format>
    <dc:type rdf:resource="http://purl.org/dc/dcmitype/StillImage"/>
    <dc:title/>
   </cc:Work>
  </rdf:RDF>
 </metadata>
 <path d="m15.393 6.648-13.832 3.7062c0.31104 1.1823 0.92787 2.2373 1.8546 3.1641 1.2948 1.294 2.8377 1.9884 4.6291 2.0815h0.0062c0.12865 0.0068 0.25095 0.01033 0.37051 0.01033h0.12816c0.1294-0.0015 0.2543-0.0058 0.3731-0.01188 0.037836-0.0022 0.071606-0.0049 0.1049-0.0072 0.30572-0.02194 0.60377-0.06103 0.8883-0.11627 0.12032-0.02346 0.23946-0.05003 0.35449-0.07803 1.2229-0.30725 2.3024-0.93249 3.2483-1.8784 0.73555-0.73555 1.2778-1.5509 1.6252-2.4484 0.25124-0.64928 0.40166-1.3419 0.45009-2.0805 0.0053-0.078701 0.0089-0.1604 0.01189-0.24287 0.0031-0.091568 0.0047-0.18548 0.0047-0.28008v-0.045474c-3e-3 -0.61523-0.07501-1.2034-0.21652-1.7709-1.66e-4 -6.614e-4 -3.44e-4 -0.0014-5.29e-4 -0.00206z" fill="#3aa2f4" stroke-width=".26458"/>
 <path d="m8.4667 1.3228c-0.14151 0-0.28153 0.00359-0.42228 0.011162-1.7912 0.092321-3.3342 0.78644-4.6288 2.0812-1.3949 1.3949-2.0924 3.0787-2.0924 5.0512 0 0.6069 0.066557 1.1862 0.19859 1.7385l13.831-3.7061c-5e-3 -0.018378-0.0092-0.036044-0.01442-0.054415-0.037835-0.13243-0.080978-0.26615-0.1279-0.39857-0.097619-0.27622-0.21399-0.54565-0.3502-0.81204-0.057512-0.112-0.12066-0.22629-0.1865-0.33904-0.30725-0.52215-0.69288-1.017-1.1553-1.4794-1.0988-1.0988-2.3787-1.7654-3.8392-1.9984-0.24593-0.03935-0.49607-0.066545-0.75715-0.080922-0.14681-0.008325-0.30065-0.013022-0.45579-0.013022z" fill="#5db860" stroke-width=".23719"/>
 <path d="m5.4687 1.9595c-0.57882 0.26903-1.1223 0.62366-1.6306 1.0636l4.78 4.78-7.1915 1.9263c0.10698 0.64119 0.29717 1.2479 0.57251 1.8194l8.1742-2.1905 0.10185-0.027441 5.3144-1.4241c-0.03011-0.43093-0.09423-0.84928-0.1958-1.2566-0.01665-0.065836-0.03567-0.13641-0.05534-0.20603-0.03784-0.13243-0.08098-0.26615-0.1279-0.39857-9.9e-4 -0.00268-0.0023-0.00522-0.0032-0.0079l-4.4643 1.1962-5.2744-5.2744z" fill="#feea3a" fill-rule="evenodd" stroke-width=".23812" style="paint-order:fill markers stroke"/>
 <g transform="matrix(1.2222 0 0 1.2222 -1.8815 -1.9682)">
  <circle cx="8.4665" cy="7.5896" r="1.7395" fill="#fff" stroke-linecap="round" stroke-linejoin="bevel" stroke-width=".52916" style="paint-order:stroke fill markers"/>
  <path d="m8.4666 5.0739c-1.3151 0-2.3812 1.0661-2.3812 2.3812 0 0.10067 0.0081 0.19878 0.020385 0.29604 0.20347 1.86 2.2062 4.0038 2.2062 4.0038 0.035685 0.03993 0.070083 0.06457 0.10321 0.0824l0.00171 8.57e-4 0.06669 0.02124 0.06669-0.02124 0.00171-8.57e-4c0.033129-0.01785 0.067545-0.04375 0.10321-0.0824 0 0 1.9739-2.1475 2.1727-4.0079 0.01189-0.095991 0.01997-0.19327 0.01997-0.29224-4.31e-4 -1.3146-1.0661-2.3807-2.3812-2.3807zm0 3.9129c-0.84442 0-1.5317-0.68725-1.5317-1.5317s0.68725-1.5317 1.5317-1.5317c0.84443 0 1.5312 0.68725 1.5312 1.5317s-0.68683 1.5317-1.5312 1.5317z" fill="#f54c3f" stroke-width=".010661"/>
 </g>
</svg>
