<svg width="64" height="64" version="1.1" viewBox="0 0 16.933 16.933" xmlns="http://www.w3.org/2000/svg">
 <circle cx="8.4665" cy="8.4665" r="7.1436" fill="#333" style="paint-order:stroke fill markers"/>
 <g transform="matrix(.61539 0 0 .61539 3.256 3.256)">
  <path d="m14.658 2.138v9.906a0.55 0.55 0 0 1-0.55 0.55h-7.843a0.55 0.55 0 0 1-0.55-0.55v-9.906a0.55 0.55 0 0 1 0.55-0.55h7.843a0.55 0.55 0 0 1 0.55 0.55z" fill="#ebebeb"/>
  <g fill="#3f3f3f" stroke-width=".769">
   <path d="m10.186 4.349a1.338 1.338 0 0 0-1.336 1.337 1.338 1.338 0 0 0 0.183 0.672 1.338 1.338 0 0 0-1.253 1.335 1.338 1.338 0 0 0 1.336 1.337 1.338 1.338 0 0 0 1.07-0.537 1.338 1.338 0 0 0 1.07 0.537 1.338 1.338 0 0 0 1.338-1.337 1.338 1.338 0 0 0-1.253-1.334 1.338 1.338 0 0 0 0.183-0.673 1.338 1.338 0 0 0-1.338-1.337z"/>
   <path d="m10.53 8.467h-0.688s0 1.032-1.031 1.032v0.344h2.751v-0.344c-1.032 0-1.032-1.032-1.032-1.032z" fill-rule="evenodd"/>
  </g>
  <path d="m11.218 4.89v9.906a0.55 0.55 0 0 1-0.55 0.55h-7.842a0.55 0.55 0 0 1-0.55-0.55v-9.906a0.55 0.55 0 0 1 0.55-0.55h7.842a0.55 0.55 0 0 1 0.55 0.55z" fill="#fff" style="paint-order:stroke fill markers"/>
  <path d="m7.8 7.779c-0.428 0-0.805 0.202-1.053 0.512a1.346 1.346 0 0 0-1.053-0.512c-0.749 0-1.355 0.606-1.355 1.354 0 0.015 4e-3 0.03 5e-3 0.044h-5e-3c0 1.389 2.408 3.417 2.408 3.417s2.408-2.028 2.408-3.417h-5e-3c0-0.015 5e-3 -0.029 5e-3 -0.044 0-0.748-0.607-1.354-1.355-1.354z" fill="#f34235"/>
 </g>
</svg>
