<svg width="64" height="64" version="1.1" viewBox="0 0 16.933 16.933" xmlns="http://www.w3.org/2000/svg" xmlns:xlink="http://www.w3.org/1999/xlink">
 <g stroke-width="3.636">
  <path transform="scale(.26458)" d="m12.92 12.92a27 27 0 0 0-7.9199 19.08 27 27 0 0 0 7.9219 19.082l19.08-19.08-19.082-19.082z" fill="#e41c1c" style="paint-order:markers stroke fill"/>
  <path transform="scale(.26458)" d="m51.082 12.922-19.08 19.08 19.078 19.078a27 27 0 0 0 7.9199-19.08 27 27 0 0 0-7.918-19.078z" fill="#84de2c" style="paint-order:markers stroke fill"/>
  <path transform="scale(.26458)" d="m32.002 32.002-19.08 19.08a27 27 0 0 0 19.078 7.918 27 27 0 0 0 19.08-7.9199l-19.078-19.078z" fill="#8c638e" style="paint-order:markers stroke fill"/>
  <path transform="scale(.26458)" d="m32 5a27 27 0 0 0-19.08 7.9199l19.082 19.082 19.08-19.08a27 27 0 0 0-19.082-7.9219z" fill="#6f9ccd" style="paint-order:markers stroke fill"/>
 </g>
 <g fill="#fff" font-size="3.528" font-weight="400" letter-spacing="0" stroke-width=".254" word-spacing="0">
  <path d="m8.539 6.032c-0.338 0-0.54-0.304-0.58-0.862 0.176-0.25 0.382-0.345 0.55-0.345 0.327 0 0.485 0.231 0.485 0.594 0 0.367-0.198 0.613-0.455 0.613zm0.721-2.252a0.826 0.826 0 0 0-0.627-0.275c-0.52 0-0.994 0.404-0.994 1.457 0 0.888 0.381 1.332 0.899 1.332 0.418 0 0.77-0.353 0.77-0.874 0-0.561-0.29-0.843-0.745-0.843-0.212 0-0.447 0.124-0.612 0.326 0.014-0.836 0.326-1.119 0.693-1.119 0.165 0 0.327 0.077 0.433 0.205z" aria-label="6"/>
  <path d="m3.473 9.813h1.692v-0.29h-0.745c-0.136 0-0.301 0.015-0.44 0.026 0.63-0.598 1.053-1.145 1.053-1.68 0-0.481-0.301-0.797-0.782-0.797-0.341 0-0.572 0.158-0.792 0.397l0.194 0.19c0.147-0.176 0.338-0.311 0.558-0.311 0.334 0 0.495 0.223 0.495 0.532 0 0.462-0.389 0.998-1.233 1.735z" aria-label="2"/>
  <path d="m12.552 9.86c0.455 0 0.88-0.333 0.88-0.924 0-0.59-0.363-0.855-0.81-0.855a0.772 0.772 0 0 0-0.4 0.107l0.066-0.778h1.016v-0.286h-1.31l-0.084 1.258 0.18 0.11c0.154-0.102 0.268-0.157 0.447-0.157 0.338 0 0.558 0.227 0.558 0.612 0 0.393-0.257 0.635-0.572 0.635-0.312 0-0.507-0.143-0.66-0.297l-0.166 0.22c0.18 0.18 0.437 0.356 0.855 0.356z" aria-label="5"/>
  <path d="m8.16 13.357h0.35c0.04-1.053 0.157-1.676 0.788-2.487v-0.202h-1.684v0.286h1.303c-0.525 0.734-0.712 1.383-0.756 2.403z" aria-label="7"/>
 </g>
</svg>
