<svg width="64" height="64" version="1.1" viewBox="0 0 16.933 16.933" xmlns="http://www.w3.org/2000/svg">
 <circle cx="8.4665" cy="8.4665" r="7.1436" fill="#f9f9f9" style="paint-order:stroke fill markers"/>
 <g transform="matrix(.61534 0 0 .61534 3.2567 -169.08)">
  <path d="m6.085 281.92a0.264 0.264 0 0 0-0.264 0.264v5.292c0 0.147 0.118 0.265 0.264 0.265h4.077l1.48 1.315c0.19 0.04 0.264-0.07 0.264-0.265v-1.05h3.175a0.264 0.264 0 0 0 0.265-0.265v-5.292a0.264 0.264 0 0 0-0.265-0.264z" fill="#4d4d4d" style="paint-order:markers stroke fill"/>
  <path d="m10.296 282.82c-0.244 0-0.52 0.066-0.814 0.207-0.824 0.396-0.845 1.215-0.725 2.968 0.028 0.372-0.18 0.649-0.488 1.058l0.224 0.265 0.246-0.265c0.035-0.068 0.074-0.135 0.119-0.198 0.175-0.247 0.177-0.26 0.177-0.425 6e-3 -0.305 0.015-0.435 0.12-0.547-0.055-0.066-0.119-0.138-0.121-0.218-6e-3 -0.14 0.087-0.212 0.21-0.306-0.1-0.113-0.222-0.242-0.222-0.502 0-0.328 0.159-0.595 0.36-0.595s0.455 0.223 0.455 0.55a0.7 0.7 0 0 1-0.037 0.205c0.136-0.028 0.288-0.044 0.441-0.016a0.709 0.709 0 0 1-0.021-0.175c0-0.358 0.259-0.684 0.579-0.683 0.32 0 0.578 0.326 0.578 0.683a0.677 0.677 0 0 1-0.222 0.509c0.108 0.049 0.186 0.113 0.178 0.22a0.838 0.838 0 0 1-0.109 0.334c0.082 0.1 0.117 0.247 0.289 0.5 0.155 0.225 0.203 0.41 0.295 0.664l0.548 0.133 0.36-0.651a2.62 2.62 0 0 1-0.49-1.081c-0.195-0.992 0.105-1.262-0.534-2.099-0.338-0.442-0.97-0.536-1.396-0.535m0.483 1.752c-0.166 0-0.3 0.154-0.3 0.344 0 0.074 0.021 0.147 0.06 0.206a0.686 0.686 0 0 0 0.161 0.072c0.055 0.017 0.111 0.034 0.17 0.05 0.126-0.046 0.21-0.179 0.211-0.328 0-0.19-0.135-0.344-0.302-0.344zm-1.385 0.017h-0.023c-0.124 0.014-0.207 0.177-0.187 0.366 0.016 0.143 0.088 0.265 0.18 0.305 0.073-0.061 0.167-0.141 0.26-0.19a0.49 0.49 0 0 0 8e-3 -0.162c-0.019-0.176-0.121-0.314-0.237-0.32z" fill="#fff"/>
  <rect x="1.587" y="285.89" width="11.642" height="7.408" ry=".265" fill="#7a59b5" style="paint-order:stroke markers fill"/>
  <path d="m4.233 290.64h2.91c0.147 0 0.304 0.123 0.265 0.265l-0.508 1.847c-0.04 0.141-0.176 0.172-0.285 0.27l-2.382 2.116c-0.19 0.04-0.264-0.07-0.264-0.265v-3.968c0-0.147 0.118-0.265 0.264-0.265z" fill="#7a59b5" style="paint-order:markers stroke fill"/>
  <g transform="translate(-.265 -.265)" fill="#fff" style="paint-order:stroke fill markers">
   <rect x="5.821" y="288.27" width="1.058" height="3.175" rx="0" ry="0"/>
   <rect x="8.467" y="288.27" width="1.058" height="3.175" rx="0" ry="0"/>
  </g>
 </g>
</svg>
