<svg width="64" height="64" version="1.1" xmlns="http://www.w3.org/2000/svg">
 <circle cx="32" cy="32" r="27" fill="#f4d7d7" style="paint-order:stroke fill markers"/>
 <g transform="matrix(1.0666 0 0 1.0666 -2.132 .29669)">
  <path d="m24.785 17.535c-5.3496 0.04858-9.6607 4.4127-9.6607 9.7788 0 2.3284 0.61946 4.5957 2.1657 6.1457l14.71 13.005 14.433-12.677c1.5903-1.5952 2.4428-3.9913 2.4428-6.4742 0-5.4012-4.3642-9.7788-9.7487-9.7788-2.7018 0-5.2832 1.1252-7.1269 3.1067-1.8437-1.9815-4.425-3.1067-7.1269-3.1067h-0.08785z" fill="#d35f5f" stroke-width=".6027"/>
  <path d="m22.056 31.699h6.7732l2.8832-6.1946 1.7299 11.245 2.3065-5.0506h1.9775" fill="none" stroke="#fef7f7" stroke-linecap="round" stroke-width=".93754"/>
 </g>
</svg>
