<svg width="64" height="64" version="1.1" viewBox="0 0 16.933 16.933" xmlns="http://www.w3.org/2000/svg">
 <circle cx="8.466" cy="8.466" r="7.144" fill="#4c8cff" style="paint-order:stroke fill markers"/>
 <path transform="scale(.26458)" d="M32 5A27 27 0 0 0 5 32a27 27 0 0 0 18.699 25.678 38.32 38.32 0 0 0 35.086-28.803A27 27 0 0 0 32 5" fill="#457eff" style="paint-order:stroke fill markers"/>
 <path d="M8.467 1.323A7.14 7.14 0 0 0 1.97 5.512a8.767 8.767 0 0 0 8.694 7.725 8.8 8.8 0 0 0 3.776-.864 7.14 7.14 0 0 0 1.17-3.907 7.144 7.144 0 0 0-7.144-7.143z" fill="#00f" opacity=".1" style="paint-order:stroke fill markers"/>
 <path d="m5.292 5.2915a3.175 3.175 0 0 0 3.175 3.175 3.175 3.175 0 0 0 3.175-3.175h-0.794a2.38 2.38 0 0 1-2.381 2.381 2.38 2.38 0 0 1-2.382-2.381z" fill="#ffffff" style="paint-order:stroke markers fill"/>
</svg>
