<svg width="64" height="64" version="1.1" viewBox="0 0 16.933 16.933" xmlns="http://www.w3.org/2000/svg" xmlns:xlink="http://www.w3.org/1999/xlink">
 <circle cx="8.4665" cy="8.4665" r="7.1436" fill="#f0f0f0" style="paint-order:stroke fill markers"/>
 <path transform="scale(.26458)" d="m32 5a27 27 0 0 0-27 27 27 27 0 0 0 0 0.001953h27.002v-27.002a27 27 0 0 0-0.001953 0z" fill="#808080" stroke-width="4.7551" style="paint-order:markers stroke fill"/>
 <path transform="scale(.26458)" d="m31.998 32.002v26.998a27 27 0 0 0 0.001953 0 27 27 0 0 0 27-26.998h-27.002z" fill="#808080" stroke-width="5.2011" style="paint-order:markers stroke fill"/>
 <path d="M11.307 12.239h-.03v-.11a.257.257 0 0 0-.257-.258h-.12a1.41 1.41 0 0 1 .01-.442c.138-.625.308-1.245.502-1.854.32-1.003.512-2.005.194-3.046-.354-1.163-1.057-1.988-2.252-2.346a.43.43 0 0 1-.215-.178 2.562 2.562 0 0 0-.665-.752c-.015.135-.03.222-.031.308-.001.129.004.258.015.385.016.178-.039.285-.236.301-.11.008-.218.05-.32.075 0 .4 0 .4-.363.547-.119.048-.245.084-.355.148a.983.983 0 0 0-.234.208c-.158.182-.29.39-.466.553-.35.325-.717.634-1.088.936-.16.13-.282.248-.202.477.023.066-.009.154-.023.23-.045.237.158.643.376.749.516.25.922.181 1.33-.233.194-.195.405-.272.678-.178.375.13.758.226 1.206.121-.088.093-.14.15-.194.204-.512.52-1.007 1.056-1.382 1.688-.298.502-.541 1.03-.531 1.628.003.156.02.312.042.47h-.052a.257.257 0 0 0-.257.258v.11h-.03c-.16 0-.291.13-.291.292v1.15h5.533v-1.15a.29.29 0 0 0-.292-.291z" fill="#4d4d4d"/>
</svg>
