<svg width="64" height="64" version="1.1" viewBox="0 0 16.933 16.933" xmlns="http://www.w3.org/2000/svg" xmlns:xlink="http://www.w3.org/1999/xlink">
 <circle cx="8.4665" cy="8.4665" r="7.1436" fill="#4d4d4d" style="paint-order:stroke fill markers"/>
 <path transform="scale(.26458)" d="m20.439 10.998a24 24 0 0 0-9.4414 9.3965v0.60547c0 1.1077 0.89233 1.998 2 1.998h8.002c1.1077 0 1.998-0.89037 1.998-1.998v-8.002c0-1.1077-0.89037-2-1.998-2h-0.56055z" fill="#fff" stroke-width="3.7796"/>
 <rect x="6.879" y="2.91" width="3.175" height="3.175" rx=".529" ry=".529" fill="#999"/>
 <path transform="scale(.26458)" d="m43 10.998c-1.1077 0-1.998 0.89233-1.998 2v8.002c0 1.1077 0.89037 1.998 1.998 1.998h8.002c1.1077 0 2-0.89037 2-1.998v-0.56055a24 24 0 0 0-9.3965-9.4414h-0.60547z" fill="#fff" stroke-width="3.7796"/>
 <rect x="2.91" y="6.879" width="3.175" height="3.175" rx=".529" ry=".529" fill="#999"/>
 <rect x="6.879" y="6.879" width="3.175" height="3.175" rx=".529" ry=".529" fill="#fff"/>
 <rect x="10.848" y="6.879" width="3.175" height="3.175" rx=".529" ry=".529" fill="#999"/>
 <path transform="scale(.26458)" d="m12.998 41.002c-1.1077 0-2 0.89037-2 1.998v0.56055a24 24 0 0 0 9.3965 9.4414h0.60547c1.1077 0 1.998-0.89233 1.998-2v-8.002c0-1.1077-0.89037-1.998-1.998-1.998h-8.002z" fill="#fff" stroke-width="3.7796"/>
 <rect x="6.879" y="10.848" width="3.175" height="3.175" rx=".529" ry=".529" fill="#999"/>
 <path transform="scale(.26458)" d="m43 41.002c-1.1077 0-1.998 0.89037-1.998 1.998v8.002c0 1.1077 0.89037 2 1.998 2h0.56055a24 24 0 0 0 9.4414-9.3965v-0.60547c0-1.1077-0.89233-1.998-2-1.998h-8.002z" fill="#fff" stroke-width="3.7796"/>
</svg>
