<svg width="64" height="64" version="1.1" viewBox="0 0 16.933 16.933" xmlns="http://www.w3.org/2000/svg" xmlns:xlink="http://www.w3.org/1999/xlink">
 <circle cx="8.4665" cy="8.4665" r="7.1436" fill="#cb7148" style="paint-order:stroke fill markers"/>
 <circle cx="8.4665" cy="8.4665" r="6.3499" fill="#f0f0f0" stroke-width=".88889" style="paint-order:stroke fill markers"/>
 <g transform="translate(.26458)">
  <path d="m4.3086 3.9687a0.60367 0.60379 0 0 0-0.60451 0.60463v3.0231c0 0.336 0.26942 0.60547 0.60451 0.60547h3.0225c0.33593 0 0.60619-0.26947 0.60619-0.60463v-3.024a0.60367 0.60379 0 0 0-0.60619-0.60463zm1.4161 0.70568c0.69375 0 1.0145 0.3621 1.0145 0.83115 0 0.5701-0.55736 1.0863-1.1021 1.6421h1.161v0.44968h-1.9844v-0.32c0.15407-0.14568 0.3292-0.29558 0.54557-0.52042 0.41592-0.43621 0.86803-0.85221 0.86803-1.2177 0-0.23326-0.13724-0.37895-0.50264-0.37895-0.29131 0-0.52368 0.11705-0.76448 0.22063l-0.14986-0.44547c0.19954-0.10358 0.52368-0.26105 0.91434-0.26105z" color="#000000" fill="#dee642" overflow="visible" solid-color="#000000" stroke-width=".84202" style="isolation:auto;mix-blend-mode:normal"/>
  <path d="m4.3086 8.7311a0.60367 0.60379 0 0 0-0.60451 0.60463v3.0231c0 0.336 0.26942 0.60547 0.60451 0.60547h3.0225c0.33593 0 0.60619-0.26947 0.60619-0.60463v-3.024a0.60367 0.60379 0 0 0-0.60619-0.60463zm1.5323 0.74273h0.69039v1.813h0.50264v0.45726h-0.50264v0.61473h-0.51105v-0.61473h-1.3841v-0.3621zm0.17933 0.55747-0.058935 0.12463-0.71396 1.1309h0.7729v-1.1309z" color="#000000" fill="#56c55c" overflow="visible" solid-color="#000000" stroke-width=".84202" style="isolation:auto;mix-blend-mode:normal"/>
  <path d="m9.072 8.7311a0.60379 0.60379 0 0 0-0.60547 0.60463v3.0231c0 0.336 0.26947 0.60547 0.60463 0.60547h3.024c0.33516 0 0.60463-0.26947 0.60463-0.60463v-3.024a0.60379 0.60379 0 0 0-0.60463-0.60463zm1.4737 0.70484c0.70989 0 1.0349 0.29137 1.0349 0.74442 0 0.22821-0.12463 0.39916-0.33684 0.56589 0.34526 0.18695 0.49852 0.45726 0.49852 0.74779 0 0.44968-0.3941 0.90694-1.1722 0.90694-0.68547 0-1.1933-0.35368-1.1933-0.86905 0-0.30316 0.19958-0.59452 0.49516-0.77305a0.71242 0.71242 0 0 1-0.33263-0.58695c0-0.40337 0.36126-0.736 1.0055-0.736zm0 0.4581c-0.28379 0-0.4741 0.16168-0.4741 0.32 0 0.23663 0.34526 0.34105 0.58526 0.40758 0.27453-0.1541 0.4-0.2501 0.4-0.38737 0-0.22821-0.24168-0.34021-0.512-0.34021zm-0.05474 0.99368c-0.37389 0.10358-0.58947 0.34105-0.58947 0.56505 0 0.24168 0.25263 0.4741 0.68968 0.4741 0.39495 0 0.62316-0.21221 0.62316-0.45726 0-0.33263-0.33179-0.48252-0.72337-0.58274z" color="#000000" fill="#f19d1e" overflow="visible" solid-color="#000000" stroke-width=".8421" style="isolation:auto;mix-blend-mode:normal"/>
 </g>
</svg>
