<svg xmlns="http://www.w3.org/2000/svg" width="64" height="64" viewBox="0 0 16.933 16.933"><path fill="#3aa2f4" d="M15.393 6.648 1.561 10.354q.466 1.773 1.855 3.164Q5.357 15.46 8.045 15.6h.006q.192.01.37.01h.129q.194-.002.373-.012l.105-.007a7.5 7.5 0 0 0 1.242-.194c1.223-.308 2.303-.933 3.249-1.879q1.103-1.102 1.625-2.448a7 7 0 0 0 .462-2.323q.005-.139.005-.28V8.42a7.4 7.4 0 0 0-.217-1.77z"/><path fill="#5db860" d="M8.467 1.323a7 7 0 0 0-.423.011q-2.686.138-4.628 2.081-2.093 2.093-2.093 5.051 0 .91.199 1.739l13.83-3.706a6.8 6.8 0 0 0-.679-1.604 7.4 7.4 0 0 0-1.155-1.48Q11.87 1.767 9.68 1.417a7.3 7.3 0 0 0-1.213-.094"/><path fill="#feea3a" fill-rule="evenodd" d="M5.469 1.96a7 7 0 0 0-1.63 1.063l4.78 4.78L1.426 9.73q.16.962.572 1.82l8.174-2.19.102-.028 5.315-1.424a7.3 7.3 0 0 0-.252-1.463 7 7 0 0 0-.127-.398l-.004-.008-4.464 1.196L5.468 1.96z" style="paint-order:fill markers stroke"/><g transform="translate(-1.881 -1.968)scale(1.2222)"><circle cx="8.466" cy="7.59" r="1.74" fill="#fff" style="paint-order:stroke fill markers"/><path fill="#f54c3f" d="M8.467 5.074A2.38 2.38 0 0 0 6.106 7.75c.203 1.86 2.206 4.004 2.206 4.004a.4.4 0 0 0 .103.082l.002.001.067.021.066-.02.002-.002a.4.4 0 0 0 .103-.082s1.974-2.148 2.173-4.008a2.38 2.38 0 0 0-2.361-2.673zm0 3.913c-.845 0-1.532-.687-1.532-1.532s.687-1.532 1.532-1.532a1.533 1.533 0 0 1 0 3.064"/></g></svg>