<svg width="64" height="64" viewBox="0 0 16.933 16.933" xmlns="http://www.w3.org/2000/svg"><path d="M15.61 8.466a7.144 7.144 0 0 1-7.144 7.144 7.144 7.144 0 0 1-7.143-7.144 7.144 7.144 0 0 1 7.143-7.143 7.144 7.144 0 0 1 7.144 7.143z" fill="#8b7ef1"/><rect x="4.498" y="4.498" width="7.937" height="7.937" rx="1.323" ry="1.323" fill="#303030" style="paint-order:markers stroke fill"/><path d="M5.05 10.952h3.106v.621H5.05z" fill="#f0f0f0"/><path d="M6.902 8.59c.47 0 .877-.14 1.212-.415V6.782H6.775v.497h.773v.67a1.246 1.246 0 0 1-.57.13c-.655 0-1.076-.438-1.076-1.139 0-.678.394-1.063 1.09-1.063.276 0 .597.059.841.145l.163-.457a2.27 2.27 0 0 0-.968-.203c-1.053 0-1.736.66-1.736 1.646 0 .95.642 1.583 1.61 1.583zm3.166-.004c.945 0 1.574-.655 1.574-1.637 0-.95-.61-1.587-1.524-1.587-.937 0-1.556.655-1.556 1.637 0 .954.601 1.587 1.506 1.587zm.05-.51c-.57 0-.946-.448-.946-1.127 0-.647.358-1.072.896-1.072.583 0 .963.443.963 1.122 0 .647-.362 1.076-.913 1.076z" fill="#fff" aria-label="GO"/></svg>