<svg width="64" height="64" viewBox="0 0 16.933 16.933" xmlns="http://www.w3.org/2000/svg"><g fill-rule="evenodd" stroke-width=".29"><path d="M8.465 1.323a7.117 7.117 0 0 0-5.714 2.859l3.57 5.356 4.645.929-2.144-5.215h6.022a7.122 7.122 0 0 0-6.379-3.93z" fill="#db4437"/><path d="M2.753 4.18a7.184 7.183 0 0 0-1.43 4.309 7.11 7.11 0 0 0 7.144 7.12l2.5-5.12-4.643-.951z" fill="#0f9d58"/><path d="m8.823 5.25 2.143 5.216-2.5 5.143a7.129 7.128 0 0 0 7.144-7.144c0-1.16-.28-2.248-.765-3.215z" fill="#ffcd40"/></g><path d="M8.469 5.025a3.432 3.432 0 0 1 3.44 3.44 3.432 3.432 0 0 1-3.44 3.44 3.432 3.432 0 0 1-3.44-3.44 3.432 3.432 0 0 1 3.44-3.44z" fill="#fff"/><path d="M8.469 5.819a2.64 2.64 0 0 1 2.646 2.646 2.64 2.64 0 0 1-2.646 2.645 2.64 2.64 0 0 1-2.646-2.645 2.64 2.64 0 0 1 2.646-2.646z" fill="#2566d3"/></svg>