<?xml version="1.0" encoding="UTF-8" standalone="no"?>
<svg
   width="64"
   height="64"
   version="1.1"
   id="svg8"
   sodipodi:docname="goverlay.svg"
   inkscape:version="1.1.2 (0a00cf5339, 2022-02-04)"
   xmlns:inkscape="http://www.inkscape.org/namespaces/inkscape"
   xmlns:sodipodi="http://sodipodi.sourceforge.net/DTD/sodipodi-0.dtd"
   xmlns="http://www.w3.org/2000/svg"
   xmlns:svg="http://www.w3.org/2000/svg">
  <defs
     id="defs12" />
  <sodipodi:namedview
     id="namedview10"
     pagecolor="#ffffff"
     bordercolor="#666666"
     borderopacity="1.0"
     inkscape:pageshadow="2"
     inkscape:pageopacity="0.0"
     inkscape:pagecheckerboard="0"
     showgrid="false"
     inkscape:zoom="6.5"
     inkscape:cx="32"
     inkscape:cy="32"
     inkscape:window-width="1358"
     inkscape:window-height="690"
     inkscape:window-x="56"
     inkscape:window-y="50"
     inkscape:window-maximized="0"
     inkscape:current-layer="svg8" />
  <circle
     cx="32"
     cy="32"
     r="27"
     fill="#c9e11c"
     id="circle2"
     style="fill:#4b4b4b;fill-opacity:1" />
  <path
     d="M20.261 19.087a2.343 2.343 0 0 0-2.348 2.348v14.087c0 1.3 1.047 2.348 2.348 2.348h16.435c1.3 0 2.348-1.047 2.348-2.348V21.435c0-1.3-1.047-2.348-2.348-2.348zm19.957 3.522v14.087c0 1.3-1.047 2.348-2.348 2.348H21.435c0 1.3 1.047 2.347 2.348 2.347h16.435c1.3 0 2.348-1.047 2.348-2.347V24.957c0-1.301-1.047-2.348-2.348-2.348zm3.522 3.521v14.087c0 1.301-1.047 2.348-2.348 2.348H24.957c0 1.3 1.047 2.348 2.348 2.348H43.74c1.3 0 2.348-1.047 2.348-2.348V28.478c0-1.3-1.048-2.348-2.348-2.348z"
     fill="#fff"
     style="paint-order:normal"
     id="path4" />
  <path
     fill="#4b4b4b"
     style="paint-order:normal"
     d="M20.261 21.435h16.435v14.087H20.261z"
     id="path6" />
</svg>
