<?xml version="1.0" encoding="UTF-8" standalone="no"?>
<svg
   width="64"
   height="64"
   version="1.1"
   id="svg15"
   sodipodi:docname="grapesjs.svg"
   inkscape:version="1.1.2 (0a00cf5339, 2022-02-04)"
   xmlns:inkscape="http://www.inkscape.org/namespaces/inkscape"
   xmlns:sodipodi="http://sodipodi.sourceforge.net/DTD/sodipodi-0.dtd"
   xmlns="http://www.w3.org/2000/svg"
   xmlns:svg="http://www.w3.org/2000/svg">
  <sodipodi:namedview
     id="namedview17"
     pagecolor="#505050"
     bordercolor="#ffffff"
     borderopacity="1"
     inkscape:pageshadow="0"
     inkscape:pageopacity="0"
     inkscape:pagecheckerboard="1"
     showgrid="false"
     inkscape:zoom="5.59375"
     inkscape:cx="11.26257"
     inkscape:cy="28.960894"
     inkscape:window-width="1920"
     inkscape:window-height="1000"
     inkscape:window-x="0"
     inkscape:window-y="44"
     inkscape:window-maximized="1"
     inkscape:current-layer="svg15" />
  <defs
     id="defs7">
    <linearGradient
       id="a"
       x1="24"
       x2="24"
       y1="1048.4"
       y2="1008.4"
       gradientUnits="userSpaceOnUse">
      <stop
         stop-color="#6e3a84"
         offset="0"
         id="stop2" />
      <stop
         stop-color="#a75ec4"
         offset="1"
         id="stop4" />
    </linearGradient>
  </defs>
  <g
     transform="translate(0,-988.36)"
     id="g13">
    <circle
       cx="32"
       cy="1020.4"
       r="27"
       fill="#884ba1"
       id="circle9" />
  </g>
  <path
     style="fill:#ffffff;stroke-width:0.437776;fill-opacity:1"
     d="M 29.154447,50.397366 C 24.707333,47.995957 17.614616,43.77192 16.730813,42.998526 14.787685,41.298142 14.488902,39.805615 14.488902,31.799435 c 0,-8.002799 0.29612,-9.483906 2.241911,-11.213447 1.477955,-1.313696 12.442198,-7.610982 13.251529,-7.610982 0.845462,0 1.661977,1.465561 1.317154,2.364155 -0.142772,0.372059 -2.752314,2.108434 -5.798981,3.85861 -8.080551,4.641921 -7.509393,3.688653 -7.509393,12.533267 0,6.434798 0.10115,7.529351 0.76611,8.2902 1.081399,1.237336 12.164454,7.538184 13.259504,7.538184 1.217123,0 13.025329,-6.891479 13.578159,-7.924456 0.251418,-0.469777 0.385552,-3.583608 0.315981,-7.335306 l -0.120885,-6.519014 -6.288211,3.666061 c -3.458515,2.016333 -6.652831,3.66606 -7.09848,3.66606 -1.300054,0 -1.849904,-1.496801 -0.944168,-2.570207 1.00146,-1.18685 12.569667,-7.912545 14.154915,-8.229595 0.980061,-0.196012 1.5103,0.02793 2.566179,1.08381 l 1.330871,1.330871 v 7.271064 c 0,7.663625 -0.316549,9.308458 -2.096465,10.893494 -0.497185,0.442751 -3.627122,2.389891 -6.955415,4.32698 -6.65984,3.876072 -8.864535,4.495892 -11.30477,3.178182 z"
     id="path1129" />
</svg>
