<svg width="64" height="64" version="1.1" viewBox="0 0 16.933 16.933" xmlns="http://www.w3.org/2000/svg">
 <circle cx="8.4665" cy="8.4665" r="7.1436" fill="#6cce86" style="paint-order:stroke fill markers"/>
 <g stroke-width="3.7796" style="paint-order:stroke markers fill">
  <path transform="scale(.26458)" d="m32 5a27 27 0 0 0-20.527 9.4727l45.111 28.631a27 27 0 0 0 2.416-11.104 27 27 0 0 0-27-27z" opacity=".08"/>
  <path transform="scale(.26458)" d="m56.578 20.904-45.086 28.609a27 27 0 0 0 20.508 9.4863 27 27 0 0 0 27-27 27 27 0 0 0-2.4219-11.096z" fill="#fff" opacity=".15"/>
 </g>
 <path d="M12.17 6.88l-1.587 1.058c-.05.342-.118.681 0 1.058l1.588 1.058z" fill="#fff"/>
 <path d="M5.556 6.35a.264.264 0 0 0-.264.265v3.704c0 .146.118.264.264.264h4.763a.264.264 0 0 0 .264-.264V6.615a.264.264 0 0 0-.264-.265zm2.381.794A1.323 1.323 0 0 1 9.26 8.467 1.323 1.323 0 0 1 7.937 9.79a1.323 1.323 0 0 1-1.322-1.323 1.323 1.323 0 0 1 1.322-1.323z" fill="#fff"/>
</svg>
