<?xml version="1.0" encoding="UTF-8"?>
<svg width="64" height="64" version="1.1" xmlns="http://www.w3.org/2000/svg">
 <circle cx="32" cy="32" r="27" fill="#ccc" stroke-linecap="round" stroke-linejoin="round" stroke-width="1.8051"/>
 <g transform="matrix(.59259 0 0 .59259 13.037 13.037)">
  <rect x="5" y="23" width="36" height="36" rx="5" ry="5" fill="#fff" style="paint-order:stroke fill markers"/>
  <path d="m21.681 40.717a93.578 93.578 0 0 0 1.213-4.426h0.096c0.404 1.463 0.789 3.017 1.231 4.426l0.424 1.481h-3.387zm-4.926 7.059h2.886l1-3.475h4.62l1 3.475h2.983l-4.58-13.551h-3.349z" fill="#5e5c64" stroke-width=".518" aria-label="A"/>
  <rect x="23" y="5" width="36" height="36" rx="5" ry="5" fill="#5aa9f6" style="paint-order:stroke fill markers"/>
  <path d="m44.005 28.429h2.974v-1.179h1.22v2.912h-6.527v-1.82q1.39-0.3 2.102-1.733t0.712-3.94q0-2.78-0.89-4.23-0.89-1.462-2.6-1.462t-2.6 1.461q-0.882 1.451-0.882 4.25 0 2.46 0.722 3.911 0.72 1.442 2.092 1.744v1.819h-6.536v-2.912h1.211v1.178h2.983q-2.11-0.867-3.196-2.375-1.087-1.517-1.087-3.59 0-2.979 1.995-4.798 2.003-1.828 5.298-1.828 3.294 0 5.297 1.828 2.004 1.82 2.004 4.797 0 2.074-1.086 3.59-1.087 1.509-3.206 2.376z" fill="#fff" stroke-width=".518" aria-label="ð›€"/>
  <path d="m27.48 21.814 0.742 2.267 5.17-5.696-7.515-2.385 0.438 2.097c-7.413 3.735-8.186 7.005-9.207 10.293l4.003 0.708c0.945-3.993 3.438-6.032 6.368-7.285zm8.992 18.877-0.742-2.267-5.17 5.696 7.514 2.385-0.438-2.097c7.413-3.735 8.186-7.005 9.207-10.293l-4.003-0.708c-0.945 3.993-3.438 6.032-6.368 7.285z" fill="#33d17a"/>
 </g>
</svg>
