<svg width="64" height="64" version="1" xmlns="http://www.w3.org/2000/svg"><circle cx="32" cy="32" r="27" fill="#f0f0f0"/><g transform="translate(9.846 9.846) scale(.69231)"><g transform="translate(2)" fill="#4f4f4f"><rect x="4" y="24.778" width="52" height="31.778" rx="4" ry="3.972"/><rect x="4" y="7.444" width="52" height="17.333" rx="4" ry="3.852"/></g><path d="M20.444 29.111A11.556 11.556 0 0 0 8.888 40.667a11.556 11.556 0 0 0 11.556 11.556A11.556 11.556 0 0 0 32 40.667a11.556 11.556 0 0 0-11.556-11.556zm0 6.74a4.815 4.815 0 0 1 4.815 4.816 4.815 4.815 0 0 1-4.815 4.814 4.815 4.815 0 0 1-4.815-4.815 4.815 4.815 0 0 1 4.815-4.814z" fill="#e4e4e4"/><rect x="8" y="9" width="48" height="14" rx="2" ry="2" fill="#63a535"/><circle cx="14.667" cy="16.111" r="2.889" fill="#4f4f4f"/><rect x="45" y="13.222" width="5.778" height="5.778" rx="2.889" ry="2.889" fill="#983a0e"/><rect x="46.444" y="14.667" width="2.889" height="2.889" rx="1.444" ry="1.444" fill="#f7bf32"/><circle cx="21.889" cy="16.111" r="2.889" fill="#4f4f4f"/><circle cx="29.111" cy="16.111" r="2.889" fill="#4f4f4f"/><path d="M43.556 29.111A11.556 11.556 0 0 0 32 40.667a11.556 11.556 0 0 0 11.556 11.556 11.556 11.556 0 0 0 11.556-11.556 11.556 11.556 0 0 0-11.556-11.556zm0 6.74a4.815 4.815 0 0 1 4.815 4.816 4.815 4.815 0 0 1-4.815 4.814 4.815 4.815 0 0 1-4.815-4.815 4.815 4.815 0 0 1 4.815-4.814z" fill="#e4e4e4"/></g></svg>