<svg width="64" height="64" version="1" xmlns="http://www.w3.org/2000/svg">
 <circle cx="32" cy="32" r="27" fill="#f0f0f0" stroke-linecap="square" stroke-width=".92733"/>
 <g transform="matrix(.69231 0 0 .69231 9.8462 9.8462)">
  <g transform="translate(2)" fill="#4f4f4f">
   <rect x="4" y="24.778" width="52" height="31.778" rx="4" ry="3.9722" stroke-width=".90535"/>
   <rect x="4" y="7.4444" width="52" height="17.333" rx="4" ry="3.8519" stroke-width=".85534"/>
  </g>
  <path d="m20.444 29.111a11.556 11.556 0 0 0-11.556 11.556 11.556 11.556 0 0 0 11.556 11.556 11.556 11.556 0 0 0 11.556-11.556 11.556 11.556 0 0 0-11.556-11.556zm0 6.7407a4.8148 4.8148 0 0 1 4.8148 4.8148 4.8148 4.8148 0 0 1-4.8148 4.8148 4.8148 4.8148 0 0 1-4.8148-4.8148 4.8148 4.8148 0 0 1 4.8148-4.8148z" fill="#e4e4e4" stroke-width=".96296"/>
  <rect x="8" y="9" width="48" height="14" rx="2" ry="2" fill="#63a535"/>
  <circle cx="14.667" cy="16.111" r="2.8889" fill="#4f4f4f" stroke-width=".96296"/>
  <rect x="45" y="13.222" width="5.7778" height="5.7778" rx="2.8889" ry="2.8889" fill="#983a0e" stroke-width=".96296"/>
  <rect x="46.444" y="14.667" width="2.8889" height="2.8889" rx="1.4444" ry="1.4444" fill="#f7bf32" stroke-width="1.4444"/>
  <circle cx="21.889" cy="16.111" r="2.8889" fill="#4f4f4f" stroke-width=".96296"/>
  <circle cx="29.111" cy="16.111" r="2.8889" fill="#4f4f4f" stroke-width=".96296"/>
  <path d="m43.556 29.111a11.556 11.556 0 0 0-11.556 11.556 11.556 11.556 0 0 0 11.556 11.556 11.556 11.556 0 0 0 11.556-11.556 11.556 11.556 0 0 0-11.556-11.556zm0 6.7407a4.8148 4.8148 0 0 1 4.8148 4.8148 4.8148 4.8148 0 0 1-4.8148 4.8148 4.8148 4.8148 0 0 1-4.8148-4.8148 4.8148 4.8148 0 0 1 4.8148-4.8148z" fill="#e4e4e4" stroke-width=".96296"/>
 </g>
</svg>
