<svg width="64" height="64" version="1.1" viewBox="0 0 64 64" xmlns="http://www.w3.org/2000/svg">
 <circle cx="32" cy="32" r="27" fill="#37474f" stroke-width="3.7796" style="paint-order:stroke fill markers"/>
 <path d="m32 8a24 24 0 0 0-24 24 24 24 0 0 0 9.3477 18.971h29.332a24 24 0 0 0 9.3203-18.971 24 24 0 0 0-24-24z" fill="#a341b4"/>
 <g transform="matrix(1.0417 0 0 1.027 -1.3333 -1088)" fill-rule="evenodd">
  <path transform="matrix(.95997 0 0 .97371 1.2799 1059.4)" d="m32 8a24 24 0 0 0-24 24 24 24 0 0 0 3.2793 12.051l22.246-35.975a24 24 0 0 0-1.5254-0.076172z" fill="#f4416b"/>
  <path transform="matrix(.95997 0 0 .97371 1.2799 1059.4)" d="m53.166 20.725-39.961 26.201a24 24 0 0 0 7.5332 6.2539l15.416 2.4551a24 24 0 0 0 19.846-23.635 24 24 0 0 0-2.834-11.275z" fill="#8a5cd8"/>
  <path transform="matrix(.95997 0 0 .97371 1.2799 1059.4)" d="m53.977 41.613-38.553 7.7051a24 24 0 0 0 16.576 6.6816 24 24 0 0 0 21.977-14.387z" fill="#46a9d6"/>
 </g>
</svg>
