<?xml version="1.0" encoding="UTF-8" standalone="no"?>
<svg
   width="64"
   height="64"
   viewBox="0 0 16.933 16.933"
   version="1.1"
   id="svg3"
   sodipodi:docname="hassio.svg"
   xml:space="preserve"
   inkscape:version="1.4.2 (ebf0e940d0, 2025-05-08)"
   xmlns:inkscape="http://www.inkscape.org/namespaces/inkscape"
   xmlns:sodipodi="http://sodipodi.sourceforge.net/DTD/sodipodi-0.dtd"
   xmlns="http://www.w3.org/2000/svg"
   xmlns:svg="http://www.w3.org/2000/svg"><defs
     id="defs3" /><sodipodi:namedview
     id="namedview3"
     pagecolor="#ffffff"
     bordercolor="#000000"
     borderopacity="0.25"
     inkscape:showpageshadow="2"
     inkscape:pageopacity="0.0"
     inkscape:pagecheckerboard="0"
     inkscape:deskcolor="#d1d1d1"
     inkscape:zoom="10.054175"
     inkscape:cx="21.881457"
     inkscape:cy="29.689159"
     inkscape:window-width="2752"
     inkscape:window-height="1083"
     inkscape:window-x="0"
     inkscape:window-y="0"
     inkscape:window-maximized="1"
     inkscape:current-layer="svg3" /><circle
     cx="8.466"
     cy="8.466"
     r="7.144"
     fill="#5294e2"
     id="circle1"
     style="fill:#f4f8fa;fill-opacity:1" /><g
     style="fill:none"
     id="g4"
     transform="matrix(0.0327348,0,0,0.0327348,4.538324,3.7304886)"><path
       d="M 229.39,109.153 130.61,10.3725 c -5.83,-5.83 -15.38,-5.83 -21.21,0 L 10.61,109.153 C 4.78,114.983 0,126.512 0,134.762 v 90 c 0,8.25 6.75,15 15,15 h 92.27 l -40.63,-40.63 c -2.09,0.72 -4.32,1.13 -6.64,1.13 -11.3,0 -20.5,-9.2 -20.5,-20.5 0,-11.3 9.2,-20.5 20.5,-20.5 11.3,0 20.5,9.2 20.5,20.5 0,2.33 -0.41,4.56 -1.13,6.65 L 111,218.042 V 102.162 C 104.2,98.8225 99.5,91.8425 99.5,83.7725 c 0,-11.3 9.2,-20.5 20.5,-20.5 11.3,0 20.5,9.2 20.5,20.5 0,8.07 -4.7,15.05 -11.5,18.3895 v 81.27 l 31.46,-31.46 c -0.62,-1.96 -0.96,-4.04 -0.96,-6.2 0,-11.3 9.2,-20.5 20.5,-20.5 11.3,0 20.5,9.2 20.5,20.5 0,11.3 -9.2,20.5 -20.5,20.5 -2.5,0 -4.88,-0.47 -7.09,-1.29 L 129,208.892 v 30.88 h 96 c 8.25,0 15,-6.75 15,-15 v -90 c 0,-8.25 -4.77,-19.77 -10.61,-25.61 z"
       fill="#18bcf2"
       id="path2" /></g></svg>
