<?xml version="1.0" encoding="UTF-8"?>
<svg id="svg3" width="64" height="64" version="1.1" xml:space="preserve" xmlns="http://www.w3.org/2000/svg"><path id="c" d="M32 5c14.912 0 27 12.088 27 27S46.911 59 32 59 5 46.911 5 32 17.088 5 32 5z" fill="#4d4d4d"/><path id="l" d="m27.074 14v3.9771l-7.1763 2.5774v4.9175l-2.239 2.9202v8.4551l2.239 3.0168-2.239 6.9565 14.353 3.1794 14.331-3.1794-2.239-6.9565 2.239-3.0168v-8.4551l-2.239-2.9202v-4.9175l-7.1763-2.5774v-3.9771zm4.957 11.514c3.9579 0 7.1763 3.2162 7.1763 7.1741 0 3.9577-3.2184 7.1763-7.1763 7.1763-3.9777 0-7.1763-3.1986-7.1763-7.1763-2e-6 -3.9779 3.2185-7.1741 7.1763-7.1741z" fill="#fff766" stroke-width="1.125"/></svg>
