<svg xmlns="http://www.w3.org/2000/svg" xml:space="preserve" width="64" height="64"><path fill="#4d4d4d" d="M32 5c14.912 0 27 12.088 27 27S46.911 59 32 59 5 46.911 5 32 17.088 5 32 5"/><path fill="#fff766" d="M27.074 14v3.977l-7.176 2.577v4.918l-2.24 2.92v8.455l2.24 3.017-2.24 6.957L32.013 50l14.33-3.18-2.238-6.956 2.239-3.017v-8.455l-2.24-2.92v-4.917l-7.176-2.578V14zm4.957 11.514c3.958 0 7.176 3.216 7.176 7.174a7.183 7.183 0 0 1-7.176 7.176 7.16 7.16 0 0 1-7.176-7.176 7.17 7.17 0 0 1 7.176-7.174"/></svg>