<svg xmlns="http://www.w3.org/2000/svg" xml:space="preserve" width="64" height="64"><defs><linearGradient id="a" gradientUnits="userSpaceOnUse"><stop offset="0" stop-color="#c0bfbc"/><stop offset=".351" stop-color="#fff"/><stop offset=".602" stop-color="#9a9996"/><stop offset="1" stop-color="#77767b"/></linearGradient><linearGradient id="c"><stop offset="0" stop-color="#589632"/><stop offset="1" stop-color="#93b023"/></linearGradient><filter id="b" width="1" height="1" x="0" y="0"><feColorMatrix in="SourceGraphic" values="0 0 0 0 1 0 0 0 0 1 0 0 0 0 1 0 0 0 1 0"/></filter></defs><path d="M32 5A26.94 26.94 0 0 0 5 32a26.94 26.94 0 0 0 27 27 26.94 26.94 0 0 0 27-27A26.94 26.94 0 0 0 32 5Z" style="fill:#5183ff;fill-opacity:1;stroke:none;stroke-opacity:1"/><g style="opacity:1;fill:#eceffc;fill-opacity:1" transform="matrix(.19243 0 0 .20508 60.378 49.629)"><ellipse cx="-146.711" cy="-84.658" rx="78.795" ry="73.932" style="opacity:1;fill:#eceffc;fill-opacity:1;stroke-width:13.0783;stroke-linecap:round"/><path d="M78.555 130.585 53.982 86.792l-42.52-23.3L55.257 38.92l23.3-42.52 24.573 43.794 42.519 23.3-43.793 24.573Z" style="opacity:1;fill:#eceffc;fill-opacity:1;stroke-width:1.43404;stroke-linecap:round" transform="matrix(1.81287 0 0 1.70098 -289.887 -193.957)"/><path d="m80.783 57.872-16.026 45.14 16.026 44.911-45.14-16.025-44.911 16.025 16.025-45.139-16.025-44.912L35.87 73.898Z" style="opacity:1;fill:#eceffc;fill-opacity:1;stroke-width:1.43404;stroke-linecap:round" transform="matrix(1.67871 0 0 1.5751 -207.622 -248.05)"/></g><path d="m111.155-70.747 5.395-2.192 3.434-.392s1.293-1.713 2.17-2.338c6.223-.595 11.31-3.345 15.593-6.95 3.337-4.442 2.152-8.567 1.425-14.069 0 0-2.577-2.788-4.102-4.652-4.683-.42-10.724-.767-14.438 3.158-.851 2.647-.887 5.84-.887 5.84l1.186 3.295 3.814-.545-1.55-3.577 8.012-.47 2.472 9.105-5.825 4.67s-2.254.889-6.857 1.462c-6.572-1.278-12.007-11.375-12.007-11.375l-.233-7.514-1.516-1.252.501-2.074 3.94-1.498 3.633-4.438 8.863-5.414 3.55 1.285s1.6-.916 2.614-1.243c3.905.827 7.308 2.557 9.81 4.02.518.013 1.456-.513 1.456-.513l7.265 8.666 2.256 11.013c-3.62 3.546-1.605 11.76-8.578 15.809-5.676 5.248-10.912 5.813-10.912 5.813l-8.105 1.53-10.089-2.456z" style="fill:#5183ff;fill-opacity:1;stroke:none;stroke-width:1.13271px;stroke-linecap:butt;stroke-linejoin:miter;stroke-opacity:1" transform="matrix(.40565 0 0 .43234 -19.555 70.51)"/></svg>