<?xml version="1.0" encoding="UTF-8" standalone="no"?>
<svg
   width="64"
   height="64"
   viewBox="0 0 64 64"
   version="1.1"
   id="svg8"
   sodipodi:docname="hermes-webui.svg"
   xml:space="preserve"
   inkscape:version="1.4.3 (0d15f75042, 2025-12-25)"
   xmlns:inkscape="http://www.inkscape.org/namespaces/inkscape"
   xmlns:sodipodi="http://sodipodi.sourceforge.net/DTD/sodipodi-0.dtd"
   xmlns="http://www.w3.org/2000/svg"
   xmlns:svg="http://www.w3.org/2000/svg"><sodipodi:namedview
     id="namedview8"
     pagecolor="#ffffff"
     bordercolor="#000000"
     borderopacity="0.25"
     inkscape:showpageshadow="2"
     inkscape:pageopacity="0.0"
     inkscape:pagecheckerboard="0"
     inkscape:deskcolor="#d1d1d1"
     inkscape:current-layer="svg8" /><defs
     id="defs6"><linearGradient
       id="g"
       x1="0%"
       y1="0%"
       x2="0%"
       y2="100%"><stop
         offset="0%"
         style="stop-color:#F5C542;stop-opacity:1" /><stop
         offset="100%"
         style="stop-color:#D4961C;stop-opacity:1" /></linearGradient></defs><circle
     cx="32"
     cy="32"
     r="27"
     id="circle7"
     style="display:inline;fill:#262532;fill-opacity:1" /><g
     id="emblem"
     transform="translate(6.4,6.4) scale(0.8)"><rect
       x="30"
       y="10"
       width="4"
       height="46"
       rx="2"
       fill="url(#g)" /><path
       d="M30 18 C24 14, 14 14, 10 18 C14 16, 22 16, 28 20"
       fill="#F5C542"
       opacity="0.9" /><path
       d="M30 22 C26 19, 18 19, 14 22 C18 20, 24 20, 28 24"
       fill="#D4961C"
       opacity="0.8" /><path
       d="M34 18 C40 14, 50 14, 54 18 C50 16, 42 16, 36 20"
       fill="#F5C542"
       opacity="0.9" /><path
       d="M34 22 C38 19, 46 19, 50 22 C46 20, 40 20, 36 24"
       fill="#D4961C"
       opacity="0.8" /><path
       d="M32 48 C22 44, 20 38, 26 34 C20 36, 18 42, 24 46 C18 40, 22 30, 30 28 C24 32, 22 38, 28 42"
       fill="none"
       stroke="#F5C542"
       stroke-width="2.5"
       stroke-linecap="round" /><path
       d="M32 48 C42 44, 44 38, 38 34 C44 36, 46 42, 40 46 C46 40, 42 30, 34 28 C40 32, 42 38, 36 42"
       fill="none"
       stroke="#D4961C"
       stroke-width="2.5"
       stroke-linecap="round" /><circle
       cx="32"
       cy="10"
       r="4"
       fill="#F5C542" /><circle
       cx="32"
       cy="10"
       r="2"
       fill="#FFF8E1"
       opacity="0.7" /></g></svg>
