<svg width="64" height="64" viewBox="0 0 16.933 16.933" xmlns="http://www.w3.org/2000/svg"><circle cx="8.466" cy="8.466" r="7.144" fill="#4d4d4d" style="paint-order:stroke fill markers"/><g stroke-width="3.78"><path d="M5.027 3.13a6.35 6.35 0 0 0-1.89 1.897h1.625a.265.265 0 0 0 .265-.265V3.129z" fill="#999"/><path d="M6.668 2.381a6.35 6.35 0 0 0-1.112.444v1.937c0 .147.118.265.265.265h2.116a.265.265 0 0 0 .265-.265V2.646a.264.264 0 0 0-.265-.265H6.668z" fill="#fff"/><path d="M8.996 2.381a.264.264 0 0 0-.265.265v2.116c0 .147.118.265.265.265h2.116a.265.265 0 0 0 .265-.265V2.829a6.35 6.35 0 0 0-1.109-.448H8.996z" fill="#ff5757"/></g><g fill="#fff"><path d="M11.906 3.136v1.626c0 .147.118.265.265.265h1.633a6.35 6.35 0 0 0-1.898-1.89zM2.83 5.556a6.35 6.35 0 0 0-.449 1.11v1.27c0 .148.118.266.265.266h2.116a.265.265 0 0 0 .265-.265V5.82a.265.265 0 0 0-.265-.265H2.829z"/><rect x="5.556" y="5.556" width="2.646" height="2.646" rx=".265" ry=".265"/></g><rect x="8.731" y="5.556" width="2.646" height="2.646" rx=".265" ry=".265" fill="#ff5757"/><path d="M12.171 5.556a.265.265 0 0 0-.265.265v2.116c0 .147.118.265.265.265h2.116a.264.264 0 0 0 .265-.265V6.668a6.35 6.35 0 0 0-.443-1.112H12.17zM2.646 8.731a.264.264 0 0 0-.265.265v1.269a6.35 6.35 0 0 0 .444 1.112h1.937a.265.265 0 0 0 .265-.265V8.996a.265.265 0 0 0-.265-.265H2.646z" fill="#fff"/><rect x="5.556" y="8.731" width="2.646" height="2.646" rx=".265" ry=".265" fill="#999"/><rect x="8.731" y="8.731" width="2.646" height="2.646" rx=".265" ry=".265" fill="#fff"/><path d="M12.171 8.731a.265.265 0 0 0-.265.265v2.116c0 .147.118.265.265.265h1.933a6.35 6.35 0 0 0 .448-1.109V8.996a.264.264 0 0 0-.265-.265h-2.116z" fill="#4ac73e"/><path d="M3.13 11.906a6.35 6.35 0 0 0 1.897 1.89v-1.625a.265.265 0 0 0-.265-.265H3.129zm2.691 0a.265.265 0 0 0-.265.265v1.933a6.35 6.35 0 0 0 1.11.448h1.27a.264.264 0 0 0 .266-.265v-2.116a.265.265 0 0 0-.265-.265H5.82zm3.175 0a.265.265 0 0 0-.265.265v2.116c0 .147.118.265.265.265h1.269a6.35 6.35 0 0 0 1.112-.443V12.17a.265.265 0 0 0-.265-.265H8.996zm3.175 0a.265.265 0 0 0-.265.265v1.633a6.35 6.35 0 0 0 1.89-1.898h-1.625z" fill="#fff" stroke-width="3.78"/></svg>