<svg width="64" height="64" version="1.1" viewBox="0 0 16.933 16.933" xmlns="http://www.w3.org/2000/svg" xmlns:xlink="http://www.w3.org/1999/xlink">
 <circle cx="8.4665" cy="8.4665" r="7.1436" fill="#4d4d4d" style="paint-order:stroke fill markers"/>
 <g stroke-width="3.7796">
  <path transform="scale(.26458)" d="m19 11.828a24 24 0 0 0-7.1465 7.1719h6.1445c0.55488 0 1.002-0.44707 1.002-1.002v-6.1699z" fill="#999"/>
  <path transform="scale(.26458)" d="m25.203 9a24 24 0 0 0-4.2031 1.6758v7.3223c0 0.55488 0.44707 1.002 1.002 1.002h7.9961c0.55488 0 1.002-0.44707 1.002-1.002v-7.998c0-0.55488-0.44707-1-1.002-1h-4.7949z" fill="#fff"/>
  <path transform="scale(.26458)" d="m34.002 9c-0.55488 0-1.002 0.44512-1.002 1v7.998c0 0.55488 0.44707 1.002 1.002 1.002h7.9961c0.55488 0 1.002-0.44707 1.002-1.002v-7.3047a24 24 0 0 0-4.1914-1.6934h-4.8066z" fill="#ff5757"/>
 </g>
 <g fill="#fff">
  <path transform="scale(.26458)" d="m45 11.854v6.1445c0 0.55488 0.44707 1.002 1.002 1.002h6.1699a24 24 0 0 0-7.1719-7.1465z" stroke-width="3.7796"/>
  <path transform="scale(.26458)" d="m10.693 21a24 24 0 0 0-1.6934 4.1914v4.8066c0 0.55488 0.44512 1.002 1 1.002h7.998c0.55488 0 1.002-0.44707 1.002-1.002v-7.9961c0-0.55488-0.44707-1.002-1.002-1.002h-7.3047z" stroke-width="3.7796"/>
  <rect x="5.556" y="5.556" width="2.646" height="2.646" rx=".265" ry=".265"/>
 </g>
 <rect x="8.731" y="5.556" width="2.646" height="2.646" rx=".265" ry=".265" fill="#ff5757"/>
 <path transform="scale(.26458)" d="m46.002 21c-0.55488 0-1.002 0.44707-1.002 1.002v7.9961c0 0.55488 0.44707 1.002 1.002 1.002h7.998c0.55488 0 1-0.44707 1-1.002v-4.7949a24 24 0 0 0-1.6758-4.2031h-7.3223z" fill="#fff" stroke-width="3.7796"/>
 <path transform="scale(.26458)" d="m10 33c-0.55488 0-1 0.44707-1 1.002v4.7949a24 24 0 0 0 1.6758 4.2031h7.3223c0.55488 0 1.002-0.44707 1.002-1.002v-7.9961c0-0.55488-0.44707-1.002-1.002-1.002h-7.998z" fill="#fff" stroke-width="3.7796"/>
 <rect x="5.556" y="8.731" width="2.646" height="2.646" rx=".265" ry=".265" fill="#999"/>
 <rect x="8.731" y="8.731" width="2.646" height="2.646" rx=".265" ry=".265" fill="#fff"/>
 <path transform="scale(.26458)" d="m46.002 33c-0.55488 0-1.002 0.44707-1.002 1.002v7.9961c0 0.55488 0.44707 1.002 1.002 1.002h7.3047a24 24 0 0 0 1.6934-4.1914v-4.8066c0-0.55488-0.44512-1.002-1-1.002h-7.998z" fill="#4ac73e" stroke-width="3.7796"/>
 <g fill="#fff" stroke-width="3.7796">
  <path transform="scale(.26458)" d="m11.828 45a24 24 0 0 0 7.1719 7.1465v-6.1445c0-0.55488-0.44707-1.002-1.002-1.002h-6.1699z"/>
  <path transform="scale(.26458)" d="m22.002 45c-0.55488 0-1.002 0.44707-1.002 1.002v7.3047a24 24 0 0 0 4.1914 1.6934h4.8066c0.55488 0 1.002-0.44512 1.002-1v-7.998c0-0.55488-0.44707-1.002-1.002-1.002h-7.9961z"/>
  <path transform="scale(.26458)" d="m34.002 45c-0.55488 0-1.002 0.44707-1.002 1.002v7.998c0 0.55488 0.44707 1 1.002 1h4.7949a24 24 0 0 0 4.2031-1.6758v-7.3223c0-0.55488-0.44707-1.002-1.002-1.002h-7.9961z"/>
  <path transform="scale(.26458)" d="m46.002 45c-0.55488 0-1.002 0.44707-1.002 1.002v6.1699a24 24 0 0 0 7.1465-7.1719h-6.1445z"/>
 </g>
</svg>
