<svg xmlns="http://www.w3.org/2000/svg" width="64" height="64" fill="none"><rect width="54" height="54" x="5" y="5" fill="#853ea2" rx="27" ry="27"/><rect width="48" height="48" x="8" y="8" fill="#c061cb" rx="24" ry="24"/><path fill="#000" d="M35.5 52a1 1 0 1 1 2 0 1 1 0 0 1-2 0M33 51h-5a1 1 0 1 0 0 2h5a1 1 0 1 0 0-2"/><g stroke-width=".5"><path fill="#000" d="M40.125 22H23.458a1.667 1.667 0 0 0-1.666 1.667v16.666A1.667 1.667 0 0 0 23.458 42h16.667a1.667 1.667 0 0 0 1.667-1.667V23.667A1.667 1.667 0 0 0 40.125 22"/><path fill="#86a19e" d="M38.875 25.333H24.708a.833.833 0 0 0-.833.834v11.666a.833.833 0 0 0 .833.834h14.167a.833.833 0 0 0 .833-.834V26.167a.833.833 0 0 0-.833-.834"/><path fill="#3d3846" d="M45.542 31.167c1.15 0 2.083-.84 2.083-1.875s-.933-1.875-2.083-1.875-2.084.84-2.084 1.875.933 1.875 2.084 1.875m5-2.5c1.15 0 2.083-.84 2.083-1.875s-.933-1.875-2.084-1.875-2.083.84-2.083 1.875.933 1.875 2.083 1.875m-33.333-1.459a1.458 1.458 0 1 0-2.916 0v5.417a1.458 1.458 0 1 0 2.916 0z"/><path fill="#3d3846" d="M18.875 28.667h-6.25a1.25 1.25 0 1 0 0 2.5h6.25a1.25 1.25 0 1 0 0-2.5"/><path fill="#613583" d="M50.958 35.333h-5.833a.417.417 0 1 0 0 .834h5.833a.417.417 0 0 0 0-.834m0 2.084h-5.833a.417.417 0 1 0 0 .833h5.833a.417.417 0 0 0 0-.833m0 2.083h-5.833a.417.417 0 1 0 0 .833h5.833a.417.417 0 0 0 0-.833"/><path fill="#3d3846" d="M14.292 37.417h-1.667a.833.833 0 1 0 0 1.666h1.667a.833.833 0 1 0 0-1.666m4.583 0h-1.667a.833.833 0 1 0 0 1.666h1.667a.833.833 0 1 0 0-1.666"/></g></svg>