<svg width="64" height="64" xmlns="http://www.w3.org/2000/svg"><circle cx="32" cy="32" r="27" fill="#388e3c" style="paint-order:stroke fill markers"/><path d="M32 5A27 27 0 0 0 6.691 22.691L9 25h38l7-8h.423a27 27 0 0 0-2.273-2.92L46 21h-3l7.59-8.537A27 27 0 0 0 32 5zM16 37l-8.326 6.66a27 27 0 0 0 1.285 2.367L12 44v2l-2.127 1.418A27 27 0 0 0 16 53.711v-6.71l6-5h3l-6 5v8.661A27 27 0 0 0 32 59a27 27 0 0 0 23.686-14.037L51 39h-2l-2-2H16z" fill="#43a047" fill-rule="evenodd"/><path d="M21 22h2v20h-2zm4 0h2v20h-2zm4 0h2v20h-2zm4 0h2v20h-2zm4 0h2v20h-2zm4 0h2v20h-2z" fill="#fbc02d" fill-rule="evenodd" style="paint-order:fill markers stroke"/><rect x="18" y="24" width="28" height="16" ry="1" fill="#263238"/><rect x="15" y="13" width="17" height="6" ry="1" fill="#263238"/><rect x="33" y="44" width="17" height="6" ry="1" fill="#eceff1"/><g fill="#37474f"><rect x="34" y="45" width="9" height="1" ry="0"/><path d="M34 47h5v1h-5z"/><path d="m45 49 2-3 2 3z" fill-rule="evenodd"/></g><g fill="#fff"><path opacity=".5" style="paint-order:stroke fill markers" d="M16 14h4v1h-4zm0 2h8v1h-8zm11 0h3v2h-3z"/><rect x="31" y="30" width="3" height="8" rx="1.5" ry="1.5" opacity=".75" style="paint-order:stroke fill markers"/><rect x="31" y="26" width="3" height="3" rx="1.5" ry="1.5" opacity=".75" style="paint-order:stroke fill markers"/></g></svg>