<svg width="64" height="64" xmlns="http://www.w3.org/2000/svg"><defs><clipPath id="a"><rect x="1.587" y="1.587" width="13.758" height="13.758" ry=".794" fill="#71c947"/></clipPath></defs><circle cx="32" cy="32" r="27" fill="#f0f0f0"/><path d="M32 12 15 22v20l17 10 17-10V22z" fill="#6f4b22"/><path d="M32 12 15 22v13l17 10 17-10V22z" fill="#31904c"/><path transform="scale(3.7796)" d="M1.587 1.587h13.758v13.758H1.587z" clip-path="url(#a)" fill="none"/><path d="M6 6h52v52H6z" fill="none"/><g stroke-width=".046"><path d="M25.176 35.311a.754.754 0 0 1-.162-.103 1.92 1.92 0 0 0-.223-.167 1.845 1.845 0 0 1-.311-.268c-.062-.073-.113-.12-.113-.104s-.093-.047-.207-.14c-.115-.093-.208-.208-.208-.254 0-.046-.021-.097-.047-.113-.026-.015-.036-.045-.023-.066.012-.02-.013-.066-.057-.1-.073-.057-.075-.056-.017.017.048.061.05.08.006.08-.044 0-.042.02.006.081.056.073.055.075-.014.021-.042-.033-.219-.081-.392-.108-.519-.078-1.333-.552-1.666-.97l-.151-.19.002-.672c.002-.66-.013-.848-.09-1.142-.041-.154.014-.915.095-1.326.06-.306.218-.603.352-.664.18-.082.442-.057.692.068.261.13.826.693.865.86.012.058.064.345.114.64.106.625.23.998.43 1.296.048.07.078.153.068.184-.01.031.03.094.089.14.059.047.107.115.107.15 0 .036.068.094.15.128.083.035.18.1.217.144.037.044.116.099.175.121.058.023.12.077.136.122.041.11.242.296.29.267.02-.013.114.061.207.165.145.159.165.207.133.31-.02.067-.038.231-.038.364-.001.244-.04.317-.083.154-.02-.075-.052-.085-.215-.063-.17.023-.196.014-.219-.072-.02-.077-.05-.092-.135-.07-.067.016-.11.006-.11-.024 0-.028-.021-.051-.046-.051-.084 0-.049.182.046.24.05.032.092.09.092.13 0 .128.093.183.202.12a.541.541 0 0 1 .236-.055c.14.002.142.007.081.221-.015.053.003.08.052.08.094 0 .097.109.006.185-.038.031-.07.092-.07.135s-.027.115-.06.161c-.053.072-.079.076-.174.028-.093-.046-.088-.036.027.062.16.136.148.149-.045.048zm.1-.433c.094-.117.067-.146-.06-.063-.073.048-.13.06-.15.032a.28.28 0 0 0-.115-.078c-.048-.017-.075-.06-.062-.094.025-.063-.047-.167-.115-.167-.02 0-.023.06-.009.133.016.078.005.146-.026.165-.104.064.035.14.259.141.145 0 .242-.023.279-.069zm-.632-.065c0-.01-.036-.045-.08-.08-.074-.057-.075-.056-.018.017.06.077.098.101.098.063zm-.11-.417c-.02-.08-.006-.126.05-.157.121-.068-.007-.191-.2-.191-.135 0-.155.015-.155.115 0 .086.024.115.097.115.072 0 .09.02.068.077-.017.042-.003.094.03.114.103.066.139.043.11-.073zm-.292-.636c-.046-.086-.105-.02-.105.115v.15l.062-.115c.034-.064.053-.131.043-.15zm.863-.176c0-.146-.002-.149-.111-.107-.086.033-.096.16-.02.237.078.078.131.025.131-.13zm.337.065c.076-.041.073-.05-.036-.1-.098-.044-.124-.041-.146.015-.034.09.024.245.067.18a.383.383 0 0 1 .115-.095zm-.842-.125c-.051-.135-.188-.161-.279-.052-.058.07-.024.091.12.074.03-.003.079.026.111.065.082.098.104.058.048-.087zm-.51.063a.046.046 0 0 0-.092 0 .046.046 0 0 0 .092 0zm-.321-.161c.005-.05.004-.134-.002-.184-.008-.068-.02-.056-.046.046-.019.076-.037.178-.04.228-.008.118.075.034.088-.09zm1.034.028c.014-.023-.009-.054-.05-.07-.09-.035-.13-.006-.088.062.037.06.103.064.138.008zm-.415-.265c.04-.157-.006-.19-.205-.152-.09.017-.135.034-.103.037.032.004.079.058.103.122.057.15.166.147.205-.007zm.302-.016c0-.096-.111-.127-.161-.046-.039.062.013.138.095.138.036 0 .066-.042.066-.092zm.216-.03c-.014-.015-.05-.01-.08.008-.04.024-.037.043.01.072.06.038.12-.03.07-.08zm-1.22-.324-.047-.176-.005.228c-.004.168.009.214.047.176.036-.036.038-.102.004-.228zm.488-.018c-.01-.028-.036-.05-.06-.05-.025 0-.052.022-.06.05-.01.027.017.05.06.05s.069-.023.06-.05zm7.436 1.343c-.498-.306-1.247-.741-1.275-.741-.072 0-.345-.246-.408-.367-.056-.109-.06-.199-.018-.533.027-.222.037-.478.022-.569-.038-.227-.037-.21-.009-.65l.026-.391-.249-.15c-.136-.082-.274-.15-.307-.15a.26.26 0 0 1-.131-.061 5.703 5.703 0 0 0-.39-.258c-.286-.177-.329-.19-.427-.138-.06.032-.11.075-.11.096s-.03.039-.069.039-.069-.034-.069-.074c0-.045.026-.064.066-.05.036.015.088 0 .114-.032.073-.088-.17-.294-.71-.605-.254-.146-.628-.363-.83-.482-.204-.12-.9-.523-1.546-.898l-2.034-1.179c-.472-.274-1.043-.6-1.27-.723-.582-.32-2.021-1.14-2.647-1.51-.292-.172-.738-.43-.992-.574a18.872 18.872 0 0 1-.715-.423c-.14-.09-.7-.41-1.246-.713a46.197 46.197 0 0 1-1.119-.633l-.126-.083-.01 1.122c-.006.846-.015 1.003-.037.639-.016-.286-.031.22-.037 1.234-.008 1.58-.002 1.724.072 1.802.044.047.268.195.496.328s.471.286.54.34c.068.052.288.22.49.372.2.152.386.309.412.348.048.073-.003 1.805-.058 1.977-.031.1-.094.096-.258-.013a5.688 5.688 0 0 0-.355-.205c-.13-.07-.439-.25-.687-.4-.695-.422-.633-.515-.662 1.007-.013.711-.024-.944-.023-3.678l.001-4.97 3.068-1.769a17633.834 17633.834 0 0 1 5.236-3.017 24051.175 24051.175 0 0 1 8.512-4.908l.161-.094 2.491 1.437c4.974 2.87 8.645 4.986 9.48 5.465a711.435 711.435 0 0 1 4.91 2.838c.088.06.088.06 0 .087-.142.043-.201.076-2.787 1.564l-3.23 1.857c-2.711 1.558-4.297 2.478-4.498 2.608a66.894 66.894 0 0 1-2.27 1.307c-.106.054-1.08.61-2.164 1.235-1.083.625-2.006 1.146-2.05 1.157-.07.019-.072.034-.014.15.05.102.062.345.052 1.132-.007.62-.03 1.008-.058 1.015-.026.007-.14-.045-.254-.115zM15.08 23.327c-.011-.045-.021-.008-.021.08 0 .09.01.125.021.081a.378.378 0 0 0 0-.161zm0-.415c-.011-.044-.021-.008-.021.08 0 .09.01.126.021.081a.378.378 0 0 0 0-.16zm.002-.53c-.01-.082-.019-.014-.019.15 0 .165.009.232.019.15.01-.082.01-.217 0-.3zm12.63 11.436c-.016-.026-.007-.047.02-.047s.049.021.049.047-.01.046-.02.046c-.012 0-.034-.021-.05-.046zm-1.673-.841c.011-.032.047-.058.081-.058s.07.026.08.058c.012.034-.02.057-.08.057s-.092-.023-.08-.057zm3.08-.567c0-.04.02-.059.047-.043s.035.048.02.072c-.04.064-.067.052-.067-.03zm-1.461-.21c.016-.06.03-.15.03-.2 0-.064.015-.075.05-.04.068.068.036.302-.045.329-.048.015-.057-.007-.035-.089zm-.633-.199c.033-.085.173-.1.145-.014-.01.031-.054.064-.096.072-.054.01-.069-.007-.05-.058zm-.51-.205c-.03-.049.103-.169.143-.129.038.039-.018.17-.072.17a.093.093 0 0 1-.07-.04zm1.866-.79c0-.028.02-.037.046-.021s.046.037.046.049-.02.02-.046.02-.046-.022-.046-.049zm.415-.229a.046.046 0 0 1 .092 0 .046.046 0 0 1-.092 0zm-10.162-1.715c-.12-.083-.217-.16-.217-.173 0-.013.054-.026.122-.03.073-.004.1.007.065.028-.04.024-.004.079.119.18.227.187.186.185-.089-.005zm-.344-.217c-.048-.076-.046-.087.012-.065.037.015.068.056.068.09 0 .086-.013.082-.08-.025zm-.542-.279c.024-.039-.106-.069-.22-.051-.019.003-.03-.01-.023-.03.006-.018-.039-.084-.1-.145-.107-.107-.108-.114-.023-.144.062-.022.098-.006.12.052.018.046.095.115.17.155.173.089.21.146.119.181-.041.016-.06.008-.043-.018zm.354-.97a.144.144 0 0 1 .08-.08c.035-.012.053.006.041.04a.144.144 0 0 1-.08.08c-.035.012-.053-.005-.041-.04zm-.08-.531c.011-.079-.003-.167-.032-.195-.029-.029-.037-.067-.02-.084s.055-.01.083.018c.037.037.037.099 0 .227-.04.143-.047.15-.03.034z" fill="#31904c"/><path d="M27.527 39.212a4.046 4.046 0 0 1-.618-.39 6.33 6.33 0 0 0-.633-.426c-.369-.206-.466-.33-.497-.63l-.075-.71c-.05-.478-.208-1.135-.326-1.358-.036-.069-.304-.31-.595-.535s-.66-.526-.816-.667c-.173-.155-.345-.267-.438-.285-.468-.09-.623-.146-.993-.357-.44-.252-.64-.41-.877-.692l-.152-.182v-.675c-.002-.79-.11-1.405-.268-1.525a8.96 8.96 0 0 0-.608-.348 33.535 33.535 0 0 1-.88-.49 4.461 4.461 0 0 0-.498-.26c-.072-.026-.382-.222-.688-.436-.521-.366-1.051-.633-1.254-.633-.112 0-.127.116-.163 1.226-.025.778-.02.851.071 1.082.091.23.096.299.065.973-.02.463-.054.753-.091.804-.056.076-.08.076-.482-.001a3.807 3.807 0 0 1-.686-.2 11.717 11.717 0 0 0-.607-.246l-.346-.128-.013-1.29-.012-1.29.109.011c.06.006.31.134.556.284s.554.329.684.398c.13.07.29.162.356.206.163.108.226.111.258.012.054-.172.105-1.904.057-1.977-.025-.04-.211-.196-.412-.348l-.49-.372c-.069-.053-.311-.206-.54-.34s-.451-.28-.496-.327c-.074-.079-.08-.223-.071-1.803.005-1.013.02-1.52.037-1.234.02.364.03.207.037-.639l.009-1.122.127.083c.07.046.573.33 1.118.633a38.38 38.38 0 0 1 1.246.713c.14.09.461.28.715.424.254.143.7.401.992.573.626.37 2.066 1.19 2.648 1.51.226.124.797.45 1.269.723l2.034 1.18c.647.374 1.343.778 1.546.897.203.12.576.337.83.482.54.311.783.518.71.605-.026.032-.077.047-.114.033-.04-.015-.065.004-.065.049 0 .04.03.074.069.074s.069-.017.069-.038c0-.021.05-.065.11-.097.097-.052.14-.039.426.138.175.108.35.225.39.258.04.034.1.061.132.061s.17.068.307.15l.248.15-.026.391c-.028.44-.028.423.009.65.015.092.005.348-.022.569-.041.335-.038.425.019.534.061.12.335.366.405.366.016 0 .19.096.388.214.842.5 1.133.659 1.172.635.022-.014.04-.475.04-1.024 0-.763-.015-1.029-.064-1.122-.057-.11-.056-.125.016-.143.044-.012.966-.533 2.05-1.158a154.37 154.37 0 0 1 2.164-1.235c.284-.144 2-1.132 2.27-1.307.127-.082 1.02-.604 1.984-1.16 1.91-1.1 2.172-1.251 5.582-3.21 1.268-.729 2.42-1.392 2.56-1.475a1.9 1.9 0 0 1 .392-.182c.163-.037-.061.103-1.291.804a2332.48 2332.48 0 0 0-7.635 4.39c-1.683.973-2.877 1.662-4.914 2.832-2.265 1.3-2.905 1.675-2.96 1.729-.042.04-.062.967-.081 3.665-.014 1.986-.034 3.62-.045 3.631-.027.027-1.41-.71-1.52-.81a1.151 1.151 0 0 1-.182-.26c-.084-.162-.1-.305-.131-1.17-.045-1.22-.072-1.297-.57-1.594a4.365 4.365 0 0 0-.577-.288c-.301-.111-.824-.173-.922-.108-.115.077-.085 1.13.046 1.593.153.54.158.66.046 1.018-.057.183-.12.562-.147.894-.046.564-.093.785-.164.781a2.66 2.66 0 0 1-.313-.13zm-2.306-3.949c-.115-.098-.12-.108-.027-.062.095.048.121.044.173-.027a.332.332 0 0 0 .062-.162c0-.042.03-.103.069-.135.091-.076.088-.184-.006-.184-.049 0-.066-.028-.051-.08.06-.215.058-.22-.082-.221a.542.542 0 0 0-.236.054c-.109.063-.202.008-.202-.12 0-.04-.041-.097-.092-.129-.095-.059-.13-.241-.046-.241.025 0 .046.023.046.051 0 .03.043.04.11.023.086-.021.116-.006.136.071.022.086.049.095.218.072.163-.022.196-.012.215.063.043.163.082.09.083-.153 0-.133.017-.297.038-.364.032-.104.012-.152-.132-.31-.094-.105-.188-.179-.209-.166-.047.03-.248-.157-.288-.267-.017-.044-.079-.1-.137-.121a.495.495 0 0 1-.175-.122.675.675 0 0 0-.217-.144c-.082-.034-.15-.091-.15-.127 0-.036-.048-.103-.107-.15-.06-.046-.1-.11-.089-.14s-.02-.114-.067-.184c-.201-.298-.325-.672-.431-1.297a23.88 23.88 0 0 0-.114-.639c-.038-.168-.604-.731-.865-.86-.25-.125-.511-.151-.692-.069-.134.061-.291.358-.352.664-.081.412-.136 1.172-.096 1.326.078.294.093.482.091 1.142l-.002.672.151.19c.334.418 1.147.893 1.666.97.173.027.35.075.392.108.069.054.07.052.014-.02-.048-.061-.05-.08-.006-.08.043 0 .042-.02-.006-.081-.057-.073-.056-.075.017-.018.044.034.07.08.057.1-.013.02-.002.05.023.067.026.016.047.066.047.113 0 .046.094.16.208.253.114.094.207.157.207.14 0-.016.051.03.113.104.062.074.202.194.311.269.11.074.21.149.223.166.027.036.287.176.322.174.013 0-.039-.054-.115-.119zm-.49-.37c-.03-.035-.027-.065.008-.086.031-.02.042-.088.026-.166-.014-.073-.01-.132.01-.132.067 0 .139.103.115.166-.014.035.013.077.06.095a.28.28 0 0 1 .117.077c.02.029.076.016.15-.032.126-.083.154-.054.06.063-.067.085-.48.096-.547.015zm-.185-.142c-.057-.074-.056-.075.018-.018.044.035.08.071.08.08 0 .039-.038.014-.098-.062zm-.122-.281c-.033-.02-.046-.072-.03-.115.022-.057.004-.077-.068-.077-.073 0-.097-.028-.097-.115 0-.1.02-.115.156-.115.192 0 .32.123.2.191-.056.031-.071.078-.051.157.029.116-.007.14-.11.074zm-.287-.595c0-.082.02-.15.043-.15.076 0 .082.066.02.185l-.062.115v-.15zm.838-.16c-.077-.077-.066-.205.019-.238.109-.041.112-.039.112.108 0 .155-.054.207-.131.13zm.29-.002a.24.24 0 0 1-.004-.148c.021-.057.047-.06.145-.015.109.05.112.058.036.1a.383.383 0 0 0-.115.093c-.02.03-.043.02-.062-.03zm-.713-.102c-.032-.039-.082-.068-.11-.065-.145.017-.179-.004-.12-.074.09-.109.227-.083.279.053.055.145.033.184-.049.086zm-.554-.024a.046.046 0 0 1 .093 0 .046.046 0 0 1-.093 0zm-.317-.071c.003-.05.021-.152.04-.228.027-.102.039-.114.047-.046.016.142-.004.272-.05.32-.026.027-.04.01-.037-.046zm.984-.07c-.042-.068-.002-.097.088-.062.041.016.064.047.05.07-.035.056-.1.052-.138-.008zm-.482-.25c-.024-.063-.07-.118-.103-.121-.032-.004.014-.02.103-.037.2-.039.244-.005.205.151-.039.154-.148.158-.205.007zm.346.023c-.039-.062.013-.138.095-.138.036 0 .066.041.066.092 0 .095-.11.127-.161.046zm.306.004c-.046-.029-.048-.047-.008-.072.063-.039.11-.004.087.064-.01.027-.042.031-.079.008zm-1.2-.352.004-.228.047.177c.033.125.032.191-.005.228-.038.038-.05-.009-.047-.177zm.418-.07c.01-.027.037-.05.06-.05.025 0 .052.023.061.05.01.027-.018.05-.06.05s-.07-.023-.06-.05zm3.728 1.017c0-.026-.022-.046-.049-.046-.026 0-.036.02-.02.046.016.025.038.046.049.046.011 0 .02-.02.02-.046zm-1.58-.84c-.01-.033-.047-.058-.08-.058s-.07.025-.081.057c-.012.034.021.058.08.058s.093-.024.081-.058zm2.985-.539c.015-.023.006-.056-.02-.072-.026-.016-.047.004-.047.043 0 .081.028.093.067.03zm-1.413-.3c.009-.07-.007-.151-.034-.179-.036-.035-.05-.024-.05.04a.97.97 0 0 1-.03.2c-.023.082-.014.105.034.089.036-.012.072-.08.08-.15zm-.603-.152c.028-.085-.112-.07-.145.015-.02.05-.005.068.049.057.042-.008.085-.04.096-.072zm-.512-.221c.015-.039.015-.083 0-.099-.04-.04-.172.08-.142.13.04.063.112.047.142-.031zm1.815-.732c0-.011-.02-.033-.046-.049s-.046-.007-.046.02.02.05.046.05.046-.01.046-.021zm.415-.256a.046.046 0 0 0-.092 0 .046.046 0 0 0 .092 0zm-10.166-1.711c-.122-.1-.158-.155-.118-.18.034-.02.007-.032-.066-.028-.067.004-.122.018-.122.03 0 .026.422.323.458.323.013 0-.055-.065-.152-.145zm-.352-.196c0-.035-.031-.076-.069-.09-.057-.022-.06-.012-.012.064.067.107.08.112.08.026zm-.534-.355a.583.583 0 0 0-.164-.113c-.075-.04-.152-.109-.17-.155-.022-.058-.058-.074-.12-.051-.085.03-.084.036.022.143.062.061.107.127.1.146-.006.02.005.032.024.03.113-.019.243.012.22.05-.017.026.002.034.042.018.04-.015.06-.046.046-.068zm.387-.96c.011-.034-.006-.051-.04-.04a.144.144 0 0 0-.081.08c-.012.035.005.052.04.041a.144.144 0 0 0 .08-.08zm-.17-.752c-.028-.028-.065-.036-.083-.018-.018.018-.01.055.02.084.028.029.043.116.032.195-.016.116-.01.11.031-.033.037-.129.037-.19 0-.228zm30.91 2.684c0-.063.01-.09.023-.058a.177.177 0 0 1 0 .116c-.013.031-.023.005-.023-.058zm0-1.658c0-.064.01-.09.023-.058a.177.177 0 0 1 0 .115c-.013.032-.023.006-.023-.057zm0-.783c0-.064.01-.09.023-.058a.177.177 0 0 1 0 .115c-.013.032-.023.006-.023-.057zm.006-.392c0-.126.01-.173.02-.103.01.07.01.174 0 .23-.012.057-.02 0-.02-.127zm-.01-.326c.002-.054.013-.065.028-.028.013.033.012.073-.003.088-.016.016-.027-.011-.025-.06zm.004-.434c0-.063.01-.089.023-.057a.177.177 0 0 1 0 .115c-.013.031-.023.006-.023-.058zm-.004-.533c.002-.054.013-.065.028-.028.013.033.012.073-.003.088-.016.015-.027-.012-.025-.06zm0-.323c.002-.053.013-.064.028-.028.013.034.012.073-.003.089-.016.015-.027-.012-.025-.06zm.006-.226c0-.076.01-.102.023-.057a.263.263 0 0 1-.002.138c-.013.031-.022-.005-.021-.081zm.01-1.29c0-.633.007-.899.015-.59.008.309.008.827 0 1.152-.008.324-.014.071-.014-.562zm-33.916-.115c0-.089.01-.125.02-.08a.378.378 0 0 1 0 .16c-.01.045-.02.009-.02-.08zm0-.415c0-.088.01-.125.02-.08a.378.378 0 0 1 0 .161c-.01.044-.02.008-.02-.08zm.004-.46c0-.165.008-.232.018-.15.01.082.01.217 0 .3-.01.082-.018.014-.018-.15z" fill="#2d8a47"/><path d="M31.84 51.49c-.088-.06-.658-.395-1.267-.744a18513.999 18513.999 0 0 0-13.69-7.89l-1.88-1.083v-4.83c0-2.656.007-4.83.015-4.83.053 0 .58.2.898.34.206.09.563.2.792.244.368.07.426.072.486.012.048-.048.082-.262.116-.742.047-.667.047-.677-.07-.987-.116-.306-.118-.333-.092-1.145.036-1.106.051-1.222.164-1.222.195 0 .722.261 1.188.59.271.19.628.423.793.516l.623.354c.177.102.557.316.844.475.287.16.538.323.56.364.049.093.158.74.13.768-.012.012-.048-.138-.08-.334a4.43 4.43 0 0 0-.08-.415c-.012-.033-.16-.135-.33-.227-.168-.093-.524-.287-.79-.431a26.42 26.42 0 0 1-.656-.367c-.094-.056-.219-.096-.277-.087-.105.015-.106.021-.118.79-.014.848-.024.879-.31.99-.118.045-.186.035-.462-.065a6.666 6.666 0 0 0-.462-.154 1.257 1.257 0 0 1-.233-.085c-.052-.028-.12-.034-.153-.014-.071.044-.135.525-.147 1.102-.009.413-.004.431.124.566.073.076.31.265.525.42.343.245.42.281.61.284.174.003.242-.02.333-.111.135-.136.257-.563.257-.901 0-.179.022-.257.093-.32.055-.051.082-.117.067-.166-.027-.083.14-.219.17-.14.014.034 1.04.637 1.513.889.134.071.357.115.377.073.003-.006.02-.29.038-.633l.033-.622.007.63.008.628.153.182c.236.282.436.44.876.692.37.211.525.267.993.358.093.018.265.13.438.284.157.14.514.431.793.646.279.215.534.425.567.466.073.093.27.726.33 1.067.025.139.067.5.092.804.038.447.066.578.148.69l.1.14-.1-.088a1.65 1.65 0 0 1-.227-.288c-.07-.11-.142-.2-.16-.2-.02 0-.035-.05-.035-.11 0-.089-.02-.106-.093-.087-.055.014-.092.001-.092-.033 0-.03-.03-.044-.067-.03s-.08.006-.095-.018a.101.101 0 0 0-.077-.044c-.03 0-.027.026.01.07.034.042-.07.012-.26-.074-.627-.283-.987-.217-1.2.22-.1.204-.117.285-.093.465.032.234.136.59.24.823.037.08.066.158.066.174 0 .016.063.193.14.392l.14.364.449.147c.554.182 1.009.407 1.37.677.325.243.705.442.99.519.274.073.703-.014.89-.18.173-.157.213-.359.17-.86-.02-.226-.038-.457-.04-.513a.339.339 0 0 0-.104-.196c-.086-.08-.09-.094-.022-.094.116 0 .155-.144.207-.783.028-.333.09-.71.148-.896.113-.36.106-.497-.05-1.038-.127-.44-.156-1.495-.043-1.57.098-.065.62-.004.919.107.301.113.769.38.91.522.159.159.204.42.24 1.418.03.807.048.952.131 1.112.134.257.183.293.936.693.368.195.696.376.728.402.048.038.055 1.217.037 6.077-.018 5.03-.011 6.033.04 6.053.035.013.942-.483 2.016-1.103a398.18 398.18 0 0 1 2.185-1.254c.127-.07.677-.387 1.222-.703 2-1.162 7.577-4.376 8.004-4.614.153-.085.989-.568 1.859-1.074.87-.506 1.592-.91 1.605-.896.024.024-.336.234-4.548 2.661a21314.173 21314.173 0 0 0-8.327 4.799 688.522 688.522 0 0 0-3.76 2.172c-.088.053-.189.091-.223.083-.035-.007-.049.008-.032.035.044.071.02.062-.16-.059zm-1.496-1.084c-.015-.048-.03-.535-.033-1.083l-.005-.996-.183-.31a3.01 3.01 0 0 1-.22-.432c-.051-.174.036-1.235.141-1.717.08-.368.085-.479.042-1.083-.054-.768-.165-1.233-.391-1.642-.347-.626-1.04-1.046-1.403-.851-.147.078-.372.82-.372 1.225 0 .332-.223.401-.933.29-.634-.1-.676-.118-1.008-.452a3.14 3.14 0 0 0-.673-.51 5.99 5.99 0 0 1-.724-.49c-.199-.16-.389-.292-.422-.292-.125 0-.544.747-.732 1.306-.168.503-.18.564-.134.76.235 1.01.251 1.12.271 1.778l.021.688.98.566c.538.31 1.001.566 1.03.566.064.002.095-.197.136-.85.033-.537.121-.833.334-1.118.168-.224.276-.198.689.166.434.382 1.042 1.022 1.206 1.27.118.177.12.2.137 1.093.01.61.034.925.07.954.121.098 2.137 1.25 2.188 1.25.009 0 .003-.039-.012-.086zm-8.764-6.893c.104-.407.1-.443-.072-.781-.12-.238-.148-.36-.185-.811a7.696 7.696 0 0 0-.122-.874c-.109-.473-.1-.584.073-.857.125-.198.155-.3.183-.622.039-.44-.018-.785-.206-1.254-.112-.28-.323-.535-.442-.535-.025 0-.153-.05-.284-.113-.405-.19-.727-.254-1.052-.209-.337.048-.408.106-.458.375-.054.29.011.55.28 1.119.217.458.236.523.206.714a5.69 5.69 0 0 0-.03.664c0 .25-.03.727-.069 1.06-.064.544-.085.625-.215.81-.16.228-.164.273-.114 1.284l.026.522.409.24c.433.256 1.437.845 1.746 1.025l.184.108.03-.772c.02-.496.06-.887.112-1.093zm-2.356-2.371c.016-.026-.002-.046-.04-.046-.039 0-.083.02-.098.046s.002.046.04.046.082-.021.098-.046zm.07-.415c0-.025-.023-.046-.05-.046s-.036.02-.02.046c.016.025.038.046.049.046.011 0 .02-.02.02-.046zm-.5-.563c-.033-.033-.054-.035-.054-.006 0 .061.054.115.085.085.013-.013 0-.049-.03-.079zm.55-.234c-.037-.036-.05-.025-.05.043 0 .122.064.187.084.085a.158.158 0 0 0-.034-.128zm29.617 1.185c.002-.054.013-.065.028-.028.013.033.011.073-.004.088-.015.016-.026-.012-.024-.06zm0-.415c.002-.053.013-.064.028-.028.013.034.011.073-.004.089-.015.015-.026-.012-.024-.06zm.003-1.124c0-.064.01-.09.024-.058a.177.177 0 0 1 0 .115c-.013.032-.024.006-.024-.057zm-.003-.396c.002-.053.013-.064.028-.028.013.034.011.073-.004.089-.015.015-.026-.012-.024-.06zm.016-1.194c0-.608.007-.85.015-.538.008.312.008.809 0 1.105-.008.297-.015.041-.015-.567zm-.016-2.49c.002-.054.013-.065.028-.029.013.034.011.073-.004.089-.015.015-.026-.012-.024-.06zm0-.415c.002-.054.013-.065.028-.028.013.033.011.073-.004.088s-.026-.012-.024-.06zm.005-.365c.001-.076.011-.101.023-.057a.263.263 0 0 1-.002.139c-.012.03-.022-.006-.02-.082zm-.005-.234c.002-.054.013-.065.028-.028.013.033.011.073-.004.088-.015.016-.026-.012-.024-.06zm.016-1.401c0-.595.007-.839.015-.541.008.297.008.784 0 1.082s-.015.054-.015-.541zm-.01-1.635c0-.076.01-.102.022-.057a.263.263 0 0 1-.002.138c-.012.031-.022-.005-.02-.081zm.002-.369c0-.101.01-.137.02-.08.012.057.011.14 0 .184-.012.044-.02-.002-.02-.104zm-.008-.602c.002-.054.013-.065.028-.028.013.033.011.073-.004.088s-.026-.012-.024-.06zm0-.323c.002-.053.013-.064.028-.028.013.034.011.073-.004.089-.015.015-.026-.012-.024-.06zm0-.506c.002-.054.013-.065.028-.028.013.033.011.073-.004.088s-.026-.012-.024-.06z" fill="#6f4b22"/><path d="M31.966 51.424c-.018-.03-.016-3.513.006-9.657.004-1.24.018-2.242.031-2.23.014.014.026 2.686.029 5.939.003 4.359.018 5.923.057 5.948.033.021.024.034-.026.034-.043 0-.087-.015-.097-.034zM30.11 50.37a62.684 62.684 0 0 1-1.944-1.129c-.036-.028-.058-.342-.07-.954-.015-.892-.018-.915-.136-1.093-.165-.248-.772-.887-1.206-1.27-.413-.363-.522-.39-.69-.165-.212.284-.3.58-.334 1.117-.04.654-.071.852-.135.85-.029 0-.493-.255-1.031-.566l-.98-.565-.02-.689c-.02-.658-.037-.768-.271-1.777-.046-.196-.035-.258.134-.76.188-.56.606-1.306.732-1.306.033 0 .223.131.422.292.2.16.525.38.724.49.226.124.478.315.672.51.332.333.375.352 1.009.451.71.112.933.042.933-.29 0-.405.225-1.146.371-1.224.364-.195 1.057.225 1.403.85.227.41.338.875.392 1.643.042.604.038.714-.042 1.082-.105.483-.192 1.544-.14 1.717.019.067.118.261.219.432l.183.311.005.996c.003.548.018 1.035.033 1.082.034.11.041.11-.233-.035zm8.53-2.727c.013-.021.29-.19.614-.375.69-.394.698-.398.636-.337-.068.068-1.277.757-1.25.712zm1.32-.765c0-.012.062-.055.138-.094.076-.04.138-.061.138-.049 0 .013-.062.056-.138.095-.076.04-.138.06-.138.048zM21.254 45.27c-.309-.18-1.313-.77-1.747-1.025l-.408-.24-.026-.522c-.05-1.012-.046-1.056.114-1.284.13-.185.151-.267.215-.81.039-.333.07-.81.068-1.06 0-.25.013-.549.031-.665.03-.19.011-.256-.206-.714-.269-.568-.334-.828-.28-1.118.05-.27.12-.327.458-.375.324-.046.647.018 1.051.209.132.062.26.113.285.113.119 0 .33.255.441.534.189.47.245.814.207 1.255-.028.32-.058.424-.183.622-.172.273-.182.384-.073.856.043.189.098.582.122.874.036.452.064.574.185.812.172.338.175.374.072.78-.053.206-.093.598-.112 1.093l-.03.772zm5.582-4.101a3.332 3.332 0 0 1-.924-.501c-.36-.27-.815-.494-1.37-.676l-.447-.148-.14-.363c-.078-.2-.141-.377-.141-.393a.944.944 0 0 0-.065-.174 3.504 3.504 0 0 1-.24-.823c-.025-.18-.009-.26.091-.465.214-.437.574-.503 1.2-.22.19.086.295.116.26.074-.036-.043-.04-.07-.009-.07.027 0 .062.02.077.044s.057.033.095.018.067 0 .067.03c0 .034.037.047.093.033.068-.018.092-.001.092.063 0 .048.03.124.067.169.038.044.13.167.206.273.087.121.25.255.444.364.169.094.485.303.702.465.217.162.527.357.687.433.333.159.326.144.38.798.062.734-.037.941-.505 1.066-.3.08-.378.08-.62.003zm.693-.233c.267-.11.319-.282.26-.854a4.952 4.952 0 0 0-.077-.561c-.016-.04-.12-.109-.231-.151-.111-.042-.396-.221-.632-.397-.41-.306-.803-.536-.845-.494-.054.053-.112.73-.113 1.308-.001.737-.032.672.454.962.507.302.798.348 1.184.187zm-8.444.205c.016-.025.06-.046.098-.046s.056.02.04.046-.059.046-.097.046-.056-.02-.04-.046zm21.986-.393a1.66 1.66 0 0 1-.095-.48c0-.239.105-.753.192-.945.087-.191 1.344-1.176 1.501-1.176.138 0 .1 2.074-.04 2.244-.08.095-.7.422-.988.521-.418.144-.459.132-.57-.164zm-21.847-.021c-.015-.026-.006-.046.02-.046.028 0 .05.02.05.046s-.01.046-.02.046c-.012 0-.034-.021-.05-.046zm29.744-.254c0-.101.01-.137.021-.08.011.058.011.14 0 .184-.012.045-.021-.002-.02-.104zm-30.198-.238a.127.127 0 0 1-.03-.078c0-.029.021-.026.054.007.03.03.044.065.031.078-.013.013-.038.01-.055-.007zm30.2-.176c0-.127.01-.173.02-.103.01.07.01.173 0 .23-.011.057-.02 0-.02-.127zm-29.642.042c-.019-.019-.034-.077-.034-.128 0-.068.014-.08.05-.044a.158.158 0 0 1 .035.129c-.009.043-.032.062-.05.043zm29.633-.69c.003-.055.014-.066.028-.029.014.033.012.073-.003.089-.016.015-.027-.012-.025-.06zm-.038-.327c-.043-.018-.058-.26-.058-.994 0-.534.013-.959.03-.943.015.016.031.44.035.94.005.502.024.939.044.97.038.062.037.062-.05.027zm.038-2.484c.003-.053.014-.064.028-.028.014.034.012.073-.003.089-.016.015-.027-.012-.025-.06zm0-.184c.003-.054.014-.065.028-.028.014.033.012.073-.003.089-.016.015-.027-.012-.025-.06zm.004-.203c0-.064.01-.09.023-.058a.177.177 0 0 1 0 .115c-.013.032-.023.006-.023-.057zm-.004-.258c.003-.053.014-.064.028-.027.014.033.012.073-.003.088-.016.015-.027-.012-.025-.06zm0-.184c.003-.053.014-.064.028-.028.014.034.012.073-.003.089-.016.015-.027-.012-.025-.06zm0-.414c.003-.054.014-.065.028-.028.014.033.012.073-.003.088-.016.015-.027-.012-.025-.06zm0-1.152c.003-.054.014-.064.028-.028.014.034.012.073-.003.089-.016.015-.027-.012-.025-.06zm-.09-1.006c-.003-.555.008-.996.024-.98.04.04.05 1.74.01 1.879-.016.06-.032-.343-.035-.899zm-3.88.605a8.04 8.04 0 0 1 .188-1.558c.075-.32.115-.411.189-.435.09-.029.737-.477 1.277-.884a2.77 2.77 0 0 1 .387-.252c.07-.03.127-.067.127-.08.002-.076.086-.14.152-.114.054.02.065.052.037.105-.065.128-.132.558-.281 1.813-.023.195-.08.428-.126.518-.121.235-.565.547-1.097.77-.254.107-.481.21-.505.231a.229.229 0 0 1-.127.038c-.046 0-.083.018-.083.04s-.032.054-.07.068c-.057.022-.069-.024-.068-.26zm-26.552-.162c-.136-.046-.805-.529-.962-.693-.128-.135-.132-.154-.124-.567.012-.576.076-1.057.148-1.101.032-.02.1-.014.152.013.051.028.156.066.233.086.077.02.285.088.462.153.276.1.344.11.462.065.287-.11.296-.142.31-.99.013-.768.014-.775.118-.79.059-.008.183.031.277.088.094.056.39.221.656.366l.795.433c.203.111.32.206.335.271.148.635.209 1.488.133 1.868-.035.172-.145.189-.389.06-.472-.253-1.5-.856-1.512-.89-.031-.078-.197.058-.171.14.015.05-.011.115-.067.166-.07.063-.093.142-.093.32 0 .327-.121.765-.247.891-.11.111-.359.165-.516.111zm30.53-1.851c0-.089.009-.125.02-.08a.378.378 0 0 1 0 .16c-.011.045-.02.008-.02-.08zm-.008-.948c.002-.054.013-.065.028-.028.013.033.012.073-.004.088-.015.015-.026-.012-.024-.06zm.004-.526c0-.064.01-.09.023-.058a.177.177 0 0 1 0 .115c-.013.032-.023.006-.023-.057zm.005-.415c0-.114.009-.16.02-.103.01.057.01.15 0 .207s-.02.01-.02-.104z" fill="#68451d"/><path d="M32.05 41.78c-.012-.034-.03-.59-.042-1.237a55.354 55.354 0 0 0-.028-1.22c-.004-.026.006-1.674.022-3.662.022-2.697.043-3.63.084-3.67.056-.054.696-.428 2.961-1.729 2.037-1.17 3.231-1.858 4.914-2.832 1.74-1.007 6.287-3.621 7.68-4.415.483-.275.97-.558 1.082-.629.113-.071.217-.13.231-.13.047 0 .013 4.716-.036 4.86-.039.117-.046.122-.05.035-.005-.126-.039-.128-.188-.012a.465.465 0 0 1-.162.092c-.084.003-.62.364-.98.662-.356.294-.358.296-.343.496.009.11.025.502.036.87.025.82.042.932.159 1.037.089.08.096.08.219-.01a.99.99 0 0 1 .23-.126c.056-.018.103-.052.103-.076s.025-.043.057-.043.118-.052.192-.115c.074-.063.16-.115.19-.115.031 0 .083-.032.115-.07a.774.774 0 0 1 .213-.144c.102-.048.156-.107.158-.171.004-.096.005-.096.043-.007.022.05.041.107.043.124.005.045-1.473.959-1.55.959-.033 0-.1-.038-.146-.085-.074-.073-.089-.195-.115-.91-.037-.988-.064-1.141-.207-1.162-.255-.037-1.101.56-1.601 1.13-.264.3-.295.358-.325.595-.054.431.006.989.144 1.331.134.334.134.335-.018 1.081-.054.266-.117.759-.14 1.094-.038.565-.095.785-.19.726-.019-.011-.026-.068-.016-.126.01-.057.047-.426.082-.818.07-.767.099-.972.163-1.152.093-.258.099-.408.023-.555-.152-.293-.202-.606-.192-1.204l.009-.585-.208.023c-.114.012-.27.032-.346.044-.22.035-1.05.47-1.26.663l-.193.176-.008.454c-.015.882-.095 1.367-.321 1.937-.053.133-.046.169.069.38.07.128.113.233.096.233-.018 0-.01.026.015.058.054.066.148.61.182 1.048.013.164.046.327.073.361.04.05.028.059-.062.046-.109-.015-.116-.037-.173-.56-.06-.55-.177-.956-.327-1.142l-.082-.1-.48.187a8.425 8.425 0 0 1-.801.268c-.291.073-.355.112-.698.43-.576.532-1.325.947-1.654.915l-.143-.014-.002-.645c-.003-.804-.11-1.312-.276-1.312-.051 0-.045-.023.025-.092.05-.051.093-.119.094-.15.014-.403.061-.908.11-1.186.065-.361.068-.495.012-.586-.019-.03-.004-.07.033-.09.056-.033.397-.618.397-.684 0-.012-.021-.022-.047-.022s-.046.043-.046.095c0 .076-.024.092-.123.08-.203-.023-.173-.115.072-.228.164-.075.24-.14.26-.222.027-.107.034-.11.089-.036.08.109.12.103.336-.054.272-.197.595-.316.93-.342.307-.023.308-.024.67-.387.082-.082.163-.15.18-.15.018 0 .133-.103.258-.23.124-.127.259-.23.3-.23.04 0 .073-.024.073-.054s.066-.112.146-.184c.297-.264.596-.745.683-1.098.022-.089.073-.282.113-.428.04-.147.073-.313.074-.369.001-.15.214-.725.321-.87a.615.615 0 0 0 .093-.154c0-.05-.422.188-3.252 1.834-.635.368-1.148.695-1.14.725.007.03-.007.079-.032.108-.074.09-.025.379.083.495.072.077.084.114.041.127a.778.778 0 0 0-.169.104c-.093.072-.098.089-.034.113.127.05.091.163-.04.13-.084-.02-.116-.01-.116.037 0 .098.198.267.314.267.112 0 .139.128.047.22-.041.04-.041.082-.001.17.04.088.04.116-.001.116-.03 0-.113.056-.184.124-.1.096-.142.112-.185.07-.077-.078-.267-.07-.267.01 0 .037.021.08.047.096.077.048-.002.12-.097.09-.05-.015-.088-.006-.088.022 0 .027.026.05.057.052.032.002-.011.029-.095.06l-.153.055.19.106c.2.113.222.204.055.228-.071.01-.101-.01-.104-.069-.003-.08-.004-.08-.036 0-.018.046-.053.078-.078.07-.024-.009-.05.031-.059.088s-.043.104-.077.104c-.075 0-.129.142-.09.24.014.04.07.09.125.115l.099.044-.1.026c-.07.018-.108.002-.126-.054-.014-.044-.076-.107-.138-.14-.09-.049-.103-.077-.067-.146.026-.047.074-.085.109-.085.08 0 .135-.14.078-.197-.027-.027-.12.027-.247.144-.202.186-.204.19-.173.424.016.13.06.254.095.277.048.03.03.041-.065.042-.093 0-.139-.026-.156-.092-.013-.05-.053-.092-.09-.092-.05 0-.054.02-.017.09.063.117.012.142-.246.123-.118-.009-.214.002-.214.024s.024.035.052.028c.029-.006.062.015.073.046.033.09-.1.068-.235-.039-.154-.12-.278-.084-.248.071.012.062.004.14-.017.173-.03.045-.039.04-.04-.02 0-.055-.036-.081-.113-.081-.105 0-.11.01-.065.138.03.084.08.138.131.138.106 0 .152.116.073.182-.045.037-.05.1-.02.245.021.107.055.496.074.863l.035.668-.138.155c-.09.1-.364.265-.784.47-.672.329-1.194.699-1.271.9-.024.064-.045.379-.047.7-.001.322-.02.75-.043.953-.038.338-.033.386.064.578a.808.808 0 0 1 .095.368c-.007.088-.026.419-.044.735-.046.838-.048.843-.542 1.32-.235.226-.53.481-.657.566-.127.086-.376.27-.554.41l-.38.297c-.038.029-.064.022-.08-.02zm2.216-10.886c.05-.037.069-.067.043-.067s-.086.03-.135.067c-.05.038-.07.068-.044.068s.087-.03.136-.068zm4.31-.952c0-.022-.041-.04-.092-.04-.069 0-.092.031-.092.123 0 .12.002.12.092.039.051-.046.093-.101.093-.122zm.277.099c0-.097-.072-.118-.179-.05-.082.052-.025.142.09.142.059 0 .09-.032.09-.092zm-.082-.37c.085-.002.07-.02-.076-.093a1.98 1.98 0 0 0-.196-.09c-.034 0-.011.128.043.242.053.112.06.115.09.032a.152.152 0 0 1 .14-.091zm-.15-.622c-.031-.038-.067-.06-.079-.049-.032.032.033.12.089.12.03 0 .027-.027-.01-.07zm-.143-.364c-.085-.08-.181-.138-.213-.127-.07.023-.077.101-.01.101.027 0 .104.05.17.113.067.062.142.1.166.086.024-.015-.027-.093-.113-.173zm.352.112c-.015-.025-.048-.046-.072-.046-.024 0-.043.02-.043.046s.032.046.072.046.059-.02.043-.046zm-.05-.245c-.016-.043-.058-.077-.093-.077-.035 0-.064-.02-.064-.046 0-.056-.048-.058-.129-.007-.086.054-.025.167.119.221.144.054.21.019.168-.091zM27.459 39.24c-.115-.057-.377-.229-.582-.383s-.486-.346-.625-.425a1.635 1.635 0 0 1-.34-.249l-.09-.105.116.097c.063.053.233.163.378.244.145.081.415.264.6.406s.46.316.612.387c.153.07.246.129.208.13-.038 0-.163-.046-.277-.102zm8.996-6.805c0-.025.032-.046.07-.046s.069.021.069.046-.031.047-.07.047-.069-.021-.069-.047zm-19.177-.345c0-.152.01-.209.02-.126.01.083.01.207 0 .277-.011.069-.02.001-.02-.151zm4.192-.438c0-.063.01-.089.023-.057a.177.177 0 0 1 0 .115c-.013.032-.023.006-.023-.058zm-4.147-.23c0-.114.009-.16.02-.103a.655.655 0 0 1 0 .207c-.011.057-.02.01-.02-.104zm20.766-.025c-.04-.155-.011-.174.142-.094.07.036.162.055.203.042.041-.013.023.019-.04.072-.158.13-.27.123-.305-.02zm-16.67-.002c.003-.053.014-.064.029-.028.013.034.011.073-.004.089-.015.015-.026-.012-.024-.06zm-.335-.659c-.305-.173-.337-.224-.052-.08.132.066.252.14.268.166.037.06.044.062-.216-.086zm-.432-.26c-.086-.07-.085-.07.015-.022.057.028.103.06.103.072 0 .035-.024.025-.118-.05zm-.4-.208c-.147-.076-.266-.147-.266-.16 0-.013.125.04.277.117.152.076.277.15.277.161 0 .031.008.035-.289-.118zm-.522-.3c-.086-.068-.086-.069.014-.02.057.027.104.06.104.07 0 .036-.024.026-.118-.05zm-.344-.204c-.041-.027-.047-.045-.014-.045.03 0 .068.02.084.045.035.057.019.057-.07 0zm29.575-.441c.003-.054.014-.065.028-.028.014.033.012.073-.003.088-.016.015-.027-.012-.025-.06zm-9.922-.13c0-.088.021-.173.046-.19.028-.016.046.038.046.134 0 .088-.02.174-.046.19-.027.016-.046-.038-.046-.133zm9.834.018c0-.063.01-.089.023-.057a.177.177 0 0 1 0 .115c-.013.031-.023.006-.023-.058zm.094-.161c0-.076.011-.102.023-.057a.263.263 0 0 1-.002.138c-.013.032-.022-.005-.021-.081zm-.092-.138c0-.076.01-.102.022-.057a.263.263 0 0 1-.001.138c-.013.031-.022-.005-.021-.081zm0-.415c0-.076.01-.101.022-.056a.263.263 0 0 1-.001.138c-.013.03-.022-.006-.021-.082zm.092-.184c0-.076.011-.101.023-.057a.263.263 0 0 1-.002.139c-.013.03-.022-.006-.021-.082zm-.086-.368c0-.178.008-.245.018-.15.01.096.01.242 0 .323-.01.082-.019.004-.018-.173zm.08-.557c.003-.054.014-.065.028-.028.014.033.012.073-.003.088-.016.016-.027-.011-.025-.06zm0-.184c.003-.054.014-.065.028-.028.014.033.012.073-.003.088-.016.015-.027-.012-.025-.06z" fill="#216e33"/><path d="M34.228 39.595c.024-.56.047-.633.05-.158.001.215-.014.432-.033.48-.02.05-.027-.095-.017-.322zm.047-.607a.726.726 0 0 1 .014-.219l.03-.184.007.219c.006.203-.011.267-.05.184zm8.532-3.666c-.017-.046.009-.056.099-.04.101.02.113.013.07-.04-.03-.037-.063-.2-.076-.365-.033-.438-.128-.982-.182-1.048-.026-.032-.032-.058-.015-.058s-.026-.105-.096-.233c-.115-.211-.121-.247-.069-.38.226-.57.307-1.055.321-1.937l.008-.454.192-.176c.21-.192 1.04-.628 1.261-.663.076-.012.232-.032.346-.044l.208-.023-.01.585c-.009.598.042.911.193 1.204.076.147.07.297-.022.555-.072.202-.13.676-.239 1.958-.008.1.007.134.055.123.047-.01.04.015-.024.085-.178.197-.516.41-.877.552-.202.08-.496.216-.652.303-.302.167-.452.197-.49.095zm-4.322-.38c0-.125.021-.258.047-.296.03-.047.036.019.016.208-.038.346-.064.383-.063.088zm-2.215-.417a1.28 1.28 0 0 1 .139-.143c.033-.017-.04-1.333-.088-1.566-.03-.144-.024-.208.021-.245.08-.066.033-.181-.072-.181-.05 0-.102-.054-.131-.139-.045-.129-.041-.138.064-.138.077 0 .113.026.114.08 0 .062.01.067.04.02.02-.032.028-.11.016-.171-.03-.156.095-.192.248-.071.136.106.268.128.235.039-.011-.032-.044-.053-.073-.047-.028.007-.052-.006-.052-.028s.096-.033.214-.024c.258.02.31-.006.246-.123-.037-.069-.033-.09.018-.09.036 0 .076.042.09.093.016.065.062.092.155.091.095 0 .113-.012.065-.042-.036-.023-.079-.147-.095-.277-.03-.234-.029-.237.173-.424.127-.117.22-.17.247-.144.058.057.002.197-.078.197-.034 0-.083.038-.108.085-.037.07-.024.097.066.146.062.033.124.096.138.14.018.056.056.072.126.054l.1-.026-.1-.045c-.164-.073-.189-.354-.032-.354.033 0 .067-.047.075-.104.009-.057.035-.097.06-.088.024.008.059-.023.077-.07.032-.08.033-.08.036 0 .003.06.033.08.104.07.167-.025.145-.116-.055-.228l-.19-.107.153-.056c.084-.03.127-.056.095-.058-.031-.002-.057-.026-.057-.053 0-.028.039-.037.088-.021.096.03.174-.043.097-.09-.026-.017-.047-.06-.047-.096 0-.08.19-.089.267-.011.043.042.085.027.185-.07.072-.068.154-.123.184-.123.041 0 .041-.028.001-.117-.04-.088-.04-.13.001-.17.095-.095.065-.22-.053-.22-.114 0-.308-.172-.308-.273 0-.04.037-.05.115-.03.132.032.168-.082.041-.13-.064-.025-.058-.042.035-.114a.778.778 0 0 1 .168-.103c.043-.014.031-.05-.041-.128-.108-.116-.157-.405-.083-.494.025-.03.039-.079.032-.109-.007-.03.506-.356 1.14-.725 2.83-1.645 3.252-1.883 3.252-1.834a.615.615 0 0 1-.093.154c-.107.145-.32.72-.32.87-.001.056-.035.222-.075.369s-.091.34-.113.429c-.087.352-.386.833-.682 1.097-.08.072-.147.155-.147.184 0 .03-.033.054-.073.054-.041 0-.176.103-.3.23s-.24.23-.258.23c-.017 0-.098.068-.18.15-.362.363-.363.364-.67.388a1.833 1.833 0 0 0-.93.341c-.216.157-.256.163-.336.054-.055-.074-.062-.071-.089.036-.02.083-.096.147-.26.222-.245.113-.274.205-.072.229.099.012.124-.005.124-.08 0-.053.02-.096.046-.096s.046.01.046.022c0 .066-.34.652-.397.683-.037.02-.051.062-.033.092.056.09.053.224-.01.585-.035.19-.073.538-.087.773-.025.431-.076.606-.178.612-.031.001-.01.021.045.043.114.046.186.26.248.737.052.393.053.501.003.423-.02-.033-.042-.167-.046-.3-.005-.13-.017-.27-.028-.307s-.042-.158-.07-.265c-.028-.108-.07-.196-.095-.196-.038 0-.55.299-1.913 1.115l-.23.138.115-.131zm.323-2.09c0-.025-.031-.046-.07-.046s-.068.021-.068.047.03.046.069.046.069-.021.069-.046zm1.8-1.018c.063-.053.081-.085.04-.072-.042.013-.133-.006-.203-.042-.154-.08-.181-.061-.142.094.036.143.147.15.304.02zm.737-2.28c0-.096-.018-.15-.046-.133-.025.016-.046.101-.046.19 0 .095.019.15.046.132.026-.015.046-.1.046-.19zm-4.956 1.757a.331.331 0 0 1 .135-.068c.026 0 .006.03-.043.068a.331.331 0 0 1-.136.068c-.025 0-.005-.03.044-.068zm13.192-.623c-.09-.1-.105-.22-.136-1.106a31.516 31.516 0 0 0-.035-.777c-.014-.2-.012-.202.342-.496.362-.298.897-.66.982-.662a.465.465 0 0 0 .161-.091c.15-.117.184-.115.19.011.004.1.005.099.04-.011.021-.064.038.438.039 1.128 0 .733-.015 1.206-.038 1.152-.039-.09-.04-.09-.043.006-.002.065-.056.123-.158.172a.774.774 0 0 0-.214.143c-.032.039-.083.07-.114.07s-.117.052-.19.115c-.074.063-.16.115-.192.115s-.058.02-.058.043c0 .024-.047.058-.104.076s-.153.07-.214.118c-.137.107-.156.107-.258-.006zm1.53-1.117c-.014-.032-.024-.006-.024.057 0 .064.01.09.023.058a.177.177 0 0 0 0-.115zm0-.299c-.011-.045-.021-.02-.022.057-.001.076.008.113.02.081a.263.263 0 0 0 .003-.138zm0-.414c-.011-.045-.021-.02-.022.056-.001.076.008.113.02.082a.263.263 0 0 0 .003-.138zm.002-.645c-.01-.096-.018-.029-.018.149 0 .177.008.255.018.173.01-.081.01-.227 0-.322zm-10.506 2.229c0-.092.023-.123.093-.123.05 0 .092.018.092.04 0 .02-.042.076-.092.121-.09.082-.093.08-.093-.038zm.25.056c-.033-.054.057-.13.154-.132.032 0 .058.04.058.091 0 .101-.155.131-.211.041zm8.482-.27c0-.115.01-.162.02-.105a.655.655 0 0 1 0 .208c-.01.057-.02.01-.02-.104zm-8.582-.082c-.054-.114-.076-.241-.043-.241.009 0 .097.04.196.09.147.073.162.09.076.092a.152.152 0 0 0-.138.092c-.03.082-.038.08-.09-.033zm8.573-.545c.002-.053.013-.064.028-.027.013.033.012.073-.004.088-.015.015-.026-.012-.024-.06zm-8.563-.114c-.05-.08.007-.097.07-.021.036.044.04.07.01.07-.028 0-.063-.022-.08-.049zm-.126-.299c-.067-.062-.144-.112-.17-.112-.068 0-.06-.079.01-.102.072-.024.384.264.325.3-.024.015-.098-.024-.165-.086zm.29.026c0-.026.019-.046.043-.046.024 0 .056.02.072.046s-.004.046-.044.046c-.04 0-.072-.02-.072-.046zm-.103-.154c-.144-.054-.205-.167-.118-.222.08-.05.128-.048.128.007 0 .026.029.046.064.046.075 0 .14.14.087.185-.02.017-.092.01-.16-.016z" fill="#1e6b32"/><path d="M32.033 46.726c-.003-2.577.007-4.731.021-4.786.026-.097.544-.532 1.01-.846.322-.218 1.063-.942 1.144-1.119.041-.09.08-.392.101-.791.044-.828.047-.788-.087-1.059-.107-.215-.112-.256-.074-.6.023-.202.042-.63.043-.952.002-.321.023-.636.047-.7.076-.2.598-.571 1.248-.887.342-.167.737-.371.876-.455l1.073-.64c.45-.27.838-.488.863-.488.112 0 .227.756.201 1.326-.02.457.023.564.23.56.353-.004 1.07-.412 1.621-.922.343-.317.407-.357.698-.43.176-.043.536-.164.8-.267l.481-.188.082.1c.148.184.265.587.318 1.094.07.681.077.708.187.708.052 0 .243-.08.426-.179.183-.098.483-.236.666-.306.39-.15.845-.494.913-.691.026-.075.078-.143.115-.152.038-.008.075-.034.084-.057.008-.024.05-.043.094-.043a.22.22 0 0 0 .123-.037 5.25 5.25 0 0 1 .505-.231c.533-.223.976-.535 1.097-.77.047-.09.103-.324.127-.519.17-1.44.236-1.808.33-1.864a435.67 435.67 0 0 0 1.526-.939c.019-.011.033.607.031 1.375-.002.822-.02 1.358-.043 1.304-.023-.055-.039.316-.038.921 0 .575.017.964.038.898.02-.063.038.631.039 1.543 0 .964-.016 1.62-.039 1.566-.024-.055-.04.297-.043.887-.002.624.014.979.043.979.03 0 .046.495.046 1.393 0 .766.064 1.57.044 1.538L32 52c-.02 0 .035-2.696.033-5.274zm9.608-5.814c.288-.098.909-.426.987-.52.141-.17.179-2.244.041-2.244-.157 0-1.414.984-1.501 1.176-.088.191-.192.706-.192.943 0 .125.043.34.095.481.11.296.152.308.57.164zm-14.812.074a4.113 4.113 0 0 1-.859-.48c-.07-.06-.08-.157-.08-.719.001-.578.06-1.254.114-1.308.041-.042.435.188.845.494.236.176.52.355.632.397.11.043.215.11.23.151.016.04.051.293.078.562.044.43.041.505-.028.638-.13.251-.58.379-.932.265zm22.089-2.47c0-.063.01-.09.023-.058a.177.177 0 0 1 0 .116c-.013.031-.023.005-.023-.058zm0-.368c0-.064.01-.09.023-.058a.177.177 0 0 1 0 .115c-.013.032-.023.006-.023-.057zm.002-.254c0-.076.01-.101.023-.056a.263.263 0 0 1-.002.138c-.013.03-.022-.006-.021-.082zm-.006-.28c.002-.054.013-.065.028-.028.013.033.012.073-.004.088-.015.016-.026-.011-.024-.06zm0-.23c.002-.054.013-.065.028-.028.013.033.012.073-.004.088-.015.015-.026-.012-.024-.06zm.007-3.889c0-.088.01-.125.021-.08a.378.378 0 0 1 0 .161c-.011.044-.02.008-.02-.08zm-.003-.46c0-.064.01-.09.023-.058a.177.177 0 0 1 0 .115c-.013.032-.023.006-.023-.057zm0-.415c0-.063.01-.089.023-.057a.177.177 0 0 1 0 .115c-.013.032-.023.006-.023-.058zm-3.652-.857c0-.044-.052-.21-.116-.368-.133-.334-.188-.832-.14-1.28.032-.295.046-.322.325-.64.5-.57 1.345-1.167 1.601-1.13.136.019.169.223.194 1.196.01.397.039.758.064.803.063.113-.013.265-.167.332-.068.03-.24.143-.383.25-.547.414-1.187.857-1.28.886-.074.024-.098.012-.098-.049z" fill="#523315"/></g></svg>