<svg width="64" height="64" version="1.1" viewBox="0 0 16.933 16.933" xmlns="http://www.w3.org/2000/svg">
 <circle cx="8.4665" cy="8.4665" r="7.1436" fill="#498cd8" style="paint-order:stroke fill markers"/>
 <path d="m4.5402 12.393-0.74776 0.74776a6.6145 6.6145 0 0 0 4.6741 1.9404 6.6145 6.6145 0 0 0 4.6741-1.9404l-0.74776-0.74776a5.5562 5.5562 0 0 1-3.9264 1.6299 5.5562 5.5562 0 0 1-3.9264-1.6299z" opacity=".15" stroke-width=".92592" style="paint-order:stroke fill markers"/>
 <g transform="translate(0 -280.07)">
  <path d="m7.053 284.3-1.415 1.91 0.4 0.793h4.24c-0.04 1.017-0.047 1.263-0.264 1.789-0.128 0.31-0.29 0.504-0.614 0.656-0.325 0.152-0.845 0.244-1.635 0.193l-0.064 0.992c0.89 0.058 1.576-0.03 2.12-0.283a2.216 2.216 0 0 0 1.113-1.179c0.402-0.974 0.294-1.46 0.361-2.637l-0.021-0.526h-4.249l0.827-1.115z" fill="#fff" fill-rule="evenodd"/>
 </g>
</svg>
