<svg width="64" height="64" version="1.1" viewBox="0 0 16.933 16.933" xmlns="http://www.w3.org/2000/svg">
 <circle cx="8.4665" cy="8.4665" r="7.1436" fill="#498cd8" style="paint-order:stroke fill markers"/>
 <path d="m4.5402 12.393-0.74776 0.74776a6.6145 6.6145 0 0 0 4.6741 1.9404 6.6145 6.6145 0 0 0 4.6741-1.9404l-0.74776-0.74776a5.5562 5.5562 0 0 1-3.9264 1.6299 5.5562 5.5562 0 0 1-3.9264-1.6299z" opacity=".15" stroke-width=".92592" style="paint-order:stroke fill markers"/>
 <path d="m10.44 4.4808c-0.165 0.44-0.358 0.907-0.577 1.292h-2.03v0.534h0.738v0.95c0 0.165-0.01 0.357-0.028 0.504h-0.89v0.537h0.835c-0.11 0.971-0.485 1.644-1.127 2.12l0.385 0.413c0.752-0.55 1.191-1.36 1.32-2.533h1.118v2.533h0.55v-2.533h1.08v-0.537h-1.08v-1.454h0.9v-0.534h-1.194c0.202-0.312 0.403-0.723 0.605-1.127zm-4.23 0.017v1.086h-0.91v0.543h0.91v1.433c-0.348 0.147-0.688 0.293-1.09 0.44l0.192 0.577c0.33-0.128 0.605-0.256 0.898-0.385v1.732c0 0.22-0.046 0.33-0.138 0.33-0.256 0-0.467-0.037-0.705-0.11l0.11 0.577c0.22 0.055 0.422 0.083 0.678 0.083 0.22 0 0.376-0.055 0.467-0.165 0.092-0.11 0.126-0.303 0.126-0.577v-2.144l0.845-0.44-0.083-0.495c-0.238 0.11-0.524 0.229-0.762 0.357v-1.214h0.905v-0.542h-0.905v-1.086zm2.58 0.066-0.549 0.165c0.202 0.256 0.357 0.55 0.467 0.88l0.577-0.193a2.66 2.66 0 0 0-0.494-0.852zm0.33 1.743h1.064v1.454h-1.09c0.017-0.128 0.027-0.293 0.027-0.42z" fill="#f0f0f0"/>
</svg>
