<svg width="64" height="64" version="1.1" xmlns="http://www.w3.org/2000/svg">
 <circle cx="32.001" cy="32" r="27" fill="#e6e6e6" style="paint-order:normal"/>
 <path d="m32 48.625a12.25 3.6461 0 0 0-12.25 3.6461 12.25 3.6461 0 0 0 0.26162 0.72888h23.991a12.25 3.6461 0 0 0 0.24762-0.72888 12.25 3.6461 0 0 0-12.25-3.6461z" fill="#2b2e3b" stroke-width=".875"/>
 <path d="m45.516 29.313s3.9392 3.5849 4.4362 12.378c0 0 0.64488 8.5505-2.9059 0.03325l-2.6346-7.0989zm-27.032 0s-3.9392 3.5849-4.4362 12.378c0 0-0.64488 8.5505 2.9059 0.03325l2.6346-7.0989z" fill="#2b2e3b" stroke-width=".875"/>
 <rect x="18" y="11" width="28" height="42" ry="14" fill="#2b2e3b" stroke-width=".875"/>
 <path d="m32.001 21a1.5707 1.5707 0 0 0-1.5732 1.5732 1.5707 1.5707 0 0 0 1.5732 1.5683 1.5707 1.5707 0 0 0 1.4356-0.93858c1.8868 1.3463 2.8278 3.9642 3.1367 6.7438 0.33779 2.9919-0.06273 6.1382-0.62492 7.8223a0.39409 0.39409 0 0 0 0.74797 0.24852c0.61527-1.8506 1.0086-5.0404 0.6587-8.1601-0.34021-3.0401-1.3994-6.0465-3.8026-7.5135a1.5707 1.5707 0 0 0-1.5514-1.3415zm0 0.78658a0.78658 0.78658 0 0 1 0.78416 0.73108 0.39329 0.39329 0 0 0-0.0024 0.09651 0.78658 0.78658 0 0 1-0.78175 0.74314 0.78658 0.78658 0 0 1-0.78658-0.78658 0.78658 0.78658 0 0 1 0.78658-0.78416zm5.7666 3.5106a5.646 5.646 0 0 0-0.69971 0.02413 0.3941 0.3941 0 1 0 0.07962 0.78416c1.6407-0.1689 2.9123 0.4705 3.3779 1.6166 0.46326 1.1437 0.15683 2.946-1.7541 5.2044a0.39329 0.39329 0 1 0 0.60079 0.50669c2.0171-2.3839 2.4948-4.4927 1.882-6.0079-0.54047-1.327-1.8916-2.0895-3.4889-2.1305zm-10.966 0.02413c-1.9134 0.03378-3.2211 0.62733-3.9377 1.5973-0.95306 1.2933-0.72867 3.1125 0.3209 4.746a0.39329 0.39329 0 0 0 0.66111-0.42466c-0.93617-1.4549-1.0568-2.8954-0.34986-3.8557 0.70937-0.9603 2.3621-1.5828 5.3009-1.1244a0.39329 0.39329 0 1 0 0.12064-0.77692 12.368 12.368 0 0 0-2.116-0.15924zm7.8947 0.23404a0.39329 0.39329 0 0 0-0.04825 0 0.39329 0.39329 0 0 0-0.06514 0.01448 20.9 20.9 0 0 0-8.3918 4.1766c-2.3163 1.9302-3.957 4.2876-4.0053 6.71a1.5707 1.5707 0 0 0-0.40053 1.0447 1.5707 1.5707 0 0 0 1.5732 1.5707 1.5707 1.5707 0 0 0 1.5683-1.5707 1.5707 1.5707 0 0 0-1.5683-1.5732 1.5707 1.5707 0 0 0-0.34262 0.0386c0.24369-1.9206 1.6407-3.9208 3.6771-5.6194a20.217 20.217 0 0 1 8.0684-4.0149 0.39329 0.39329 0 0 0-0.06514-0.77692zm-2.6951 4.8739a1.5707 1.5707 0 0 0-1.5732 1.5732 1.5707 1.5707 0 0 0 1.5732 1.5683 1.5707 1.5707 0 0 0 1.5683-1.5683 1.5707 1.5707 0 0 0-1.5683-1.5732zm-7.0695 2.5889a0.39329 0.39329 0 0 0-0.28471 0.67076c2.4032 2.4852 5.395 4.3189 8.2084 5.2744 2.7554 0.93617 5.3613 1.0472 7.1009-0.04825a1.5707 1.5707 0 0 0 0.68765 0.15924 1.5707 1.5707 0 0 0 1.5707-1.5732 1.5707 1.5707 0 0 0-1.5707-1.5707 1.5707 1.5707 0 0 0-1.5732 1.5707 1.5707 1.5707 0 0 0 0.26058 0.86137c-1.4356 0.76245-3.7181 0.70695-6.225-0.14477-2.683-0.90963-5.5832-2.6879-7.8947-5.0741a0.39329 0.39329 0 0 0-0.27988-0.12547zm-1.5756 3.6988a0.78658 0.78658 0 0 1 0.78658 0.78416 0.78658 0.78658 0 0 1-0.78658 0.78658 0.78658 0.78658 0 0 1-0.78416-0.78658 0.78658 0.78658 0 0 1 0.78416-0.78416zm17.288 0a0.78658 0.78658 0 0 1 0.78416 0.78416 0.78658 0.78658 0 0 1-0.78416 0.78658 0.78658 0.78658 0 0 1-0.78658-0.78658 0.78658 0.78658 0 0 1 0.78658-0.78416zm-13 1.1702a0.39329 0.39329 0 0 0-0.34503 0.50187s0.30643 1.1292 1.0303 2.268c0.72384 1.1364 1.9206 2.3428 3.6723 2.3428 2.3066 0 3.6433-2.5576 3.6433-2.5576a0.39329 0.39329 0 1 0-0.68765-0.38123s-1.2667 2.1546-2.9581 2.1546c-1.3898 0-2.3549-0.95547-3.0064-1.9785-0.65146-1.023-0.93617-2.0533-0.93617-2.0533a0.39329 0.39329 0 0 0-0.37157-0.29678 0.39329 0.39329 0 0 0-0.04102 0z" fill="#9feaf9" stroke-width="2.4128"/>
</svg>
