<?xml version="1.0" encoding="UTF-8"?>
<svg width="64" height="64" version="1.1" viewBox="0 0 16.933 16.933" xmlns="http://www.w3.org/2000/svg" xmlns:cc="http://creativecommons.org/ns#" xmlns:dc="http://purl.org/dc/elements/1.1/" xmlns:rdf="http://www.w3.org/1999/02/22-rdf-syntax-ns#">
 <metadata>
  <rdf:RDF>
   <cc:Work rdf:about="">
    <dc:format>image/svg+xml</dc:format>
    <dc:type rdf:resource="http://purl.org/dc/dcmitype/StillImage"/>
    <dc:title/>
   </cc:Work>
  </rdf:RDF>
 </metadata>
 <circle cx="8.4665" cy="8.4665" r="7.1436" fill="#865e3c" stroke-width=".50462"/>
 <g transform="matrix(.91479 0 0 .91479 .36065 1.2036)" fill="#f6f5f4" stroke-width=".13229">
  <path d="m12.171 8.7302v0.39171c0.33469 0.40203 0.52916 0.85181 0.52916 1.4603 0 0.60853-0.20637 1.0583-0.52916 1.4602v0.39184h0.36551c0.38774-0.43404 0.6928-1.1075 0.6928-1.852 0-0.74465-0.26458-1.3684-0.68394-1.852zm-1.4676 0.26458-0.7854 0.7936h-0.65735v1.5873h0.65735l0.80432 0.79387 0.12581-2.64e-4v-3.1747zm0.93846 0.26458v0.52916c0.16047 0.20862 0.26458 0.46539 0.26458 0.79373s-0.10411 0.58723-0.26458 0.79374v0.52916h0.26458c0.32358-0.26326 0.52916-0.76026 0.52916-1.3229 0-0.57334-0.19552-1.0636-0.52916-1.3229zm-0.52916 0.52916v1.5875h0.26458c0.1778-0.22145 0.26458-0.46116 0.26458-0.79374 0-0.33271-0.08242-0.5863-0.26458-0.79373z" color="#bebebe" overflow="visible"/>
  <path d="m7.4166 8.731a0.25532 0.25532 0 0 1 0.25624 0.25624v0.016538c-0.0045 1.7497-1.4242 3.1667-3.1749 3.1667h-0.0082c-0.1442 0-0.25638-0.118-0.25638-0.26458v-0.79373c0-0.14658 0.118-0.26458 0.26458-0.26458h0.52916c0.14658 0 0.26458 0.118 0.26458 0.26458v0.12395a2.3726 2.3726 0 0 0 1.447-1.4468h-0.12409c-0.14658 0-0.26458-0.118-0.26458-0.26458v-0.52916c0-0.14658 0.118-0.26458 0.26458-0.26458h0.80194z"/>
  <path d="m5.1593 3.7052a0.66145 0.66145 0 0 0 0 1.3229c0.118 0 0.22648-0.036777 0.32252-0.091015l0.52082 0.48788-0.52095 0.48775c-0.09591-0.054239-0.20439-0.090883-0.32239-0.090883a0.66145 0.66145 0 1 0 0.66145 0.66145c0-0.06072-0.00953-0.11787-0.024738-0.1737l0.56223-0.54569 1.1823 1.1163h0.39687v-0.26458l-2.1415-2.0754a0.65086 0.65086 0 0 0 0.02487-0.17356 0.66145 0.66145 0 0 0-0.66145-0.66145zm0 0.39687a0.26458 0.26458 0 1 1 0 0.52916 0.26458 0.26458 0 0 1 0-0.52916zm2.3812-0.13229-1.0418 0.98383 0.34726 0.33906 1.0914-1.0583v-0.26458zm-2.3812 2.2489a0.26458 0.26458 0 1 1 0 0.52916 0.26458 0.26458 0 0 1 0-0.52916z" color="#000000" overflow="visible" solid-color="#000000" style="isolation:auto;mix-blend-mode:normal"/>
  <path d="m11.38 3.4446a0.26418 0.26418 0 0 0-0.15822 0.048947l-1.8494 1.321a0.26432 0.26432 0 0 0-0.11046 0.2151h-2.646e-4v0.26418h0.25757a0.26432 0.26432 0 0 0 0.00331 0h0.00331a0.26432 0.26432 0 0 0 0.15372-0.048947l0.11033-0.078977v1.449a0.26418 0.26418 0 0 0 0.26432 0.26418h2.642a0.26418 0.26418 0 0 0 0.26418-0.26418v-1.4492l0.11086 0.079242a0.26432 0.26432 0 0 0 0.15346 0.048947h0.26418v-0.26061a0.26432 0.26432 0 0 0-0.1106-0.21868l-1.8494-1.321a0.26418 0.26418 0 0 0-0.14856-0.048947zm-5e-3 0.58869 1.0569 0.75498v1.5623h-0.79255v-1.0567h-0.79271v1.0569h-0.52837v-1.5623z" color="#000000" font-family="sans-serif" font-weight="400" overflow="visible" solid-color="#000000" style="font-feature-settings:normal;font-variant-alternates:normal;font-variant-caps:normal;font-variant-ligatures:normal;font-variant-numeric:normal;font-variant-position:normal;isolation:auto;mix-blend-mode:normal;shape-padding:0;text-decoration-color:#000000;text-decoration-line:none;text-decoration-style:solid;text-indent:0;text-orientation:mixed;text-transform:none;white-space:normal"/>
 </g>
 <path transform="scale(.26458)" d="m10 16.35a27 27 0 0 0-5 15.65 27 27 0 0 0 5 15.65v-31.301z" fill="#3d3f47" stroke-width="1.9073"/>
</svg>
