<svg width="64" height="64" viewBox="0 0 16.933 16.933" xmlns="http://www.w3.org/2000/svg"><circle cx="8.466" cy="8.466" r="7.144" fill="#949dac" style="paint-order:stroke fill markers"/><path d="M0 0h16.933v16.933H0z" fill="none"/><circle cx="12.171" cy="6.08" r="1.323" fill="#fff" opacity=".5" style="paint-order:stroke markers fill"/><path transform="scale(.26458)" d="M8.121 19.438A27 27 0 0 0 5 32a27 27 0 0 0 27 27 27 27 0 0 0 13.084-3.418A50 50 0 0 0 8.121 19.437z" opacity=".15" style="paint-order:stroke fill markers"/><path transform="scale(.26458)" d="M58.9 33.996a40 40 0 0 0-30.713 24.699 27 27 0 0 0 3.812.305 27 27 0 0 0 26.9-25.004z" opacity=".05" style="paint-order:stroke fill markers"/></svg>