<svg xmlns="http://www.w3.org/2000/svg" width="64" height="64"><circle cx="32" cy="32" r="27" fill="#e0e0e0"/><g transform="translate(9.89 9.546)scale(.69091)"><rect width="42" height="51" x="15" y="9" fill="#c2352a" rx="5" ry="5" style="paint-order:stroke fill markers"/><path fill="#f5f5f5" d="M12 5c-2.77 0-5 2.23-5 5v41c0 2.77 2.23 5 5 5h37V10.002A4.99 4.99 0 0 0 44 5z" style="paint-order:stroke fill markers"/><path fill="#90caf9" d="m45 20-9 1v9h9z"/><path fill="#bdbdbd" d="M30 9v11l15-3v-7c0-.554-.446-1-1-1z"/><path fill="#ffcc80" d="M27 9H11v14l16-3z"/><path fill="#ff8a80" d="M11 39v12c0 .554.446 1 1 1h32c.554 0 1-.446 1-1v-6z"/><path fill="#bdbdbd" d="m34 21-23 4v12l23 4zm11 11h-9v9l9 2z"/><path fill="#fff" d="m15 5-8 8h2.273c2.382-.287 4.85-.399 5.727-3.715z"/><path fill="#df574d" d="M53 5c-2.216 0-4 1.784-4 4v47a4 4 0 0 1 8 0V9c0-2.216-1.784-4-4-4" style="paint-order:stroke fill markers"/></g></svg>