<svg width="64" height="64" version="1.1" viewBox="0 0 16.933 16.933" xmlns="http://www.w3.org/2000/svg">
 <circle cx="8.4665" cy="8.4665" r="7.1436" fill="#f9f9f9" style="paint-order:stroke fill markers"/>
 <g transform="matrix(.72838 0 0 .72838 2.2996 2.2998)" fill-rule="evenodd">
  <path d="m8.466 1.588c-0.393 0-0.776 0.147-1.078 0.458l-5.365 5.53a1.632 1.632 0 0 0-0.458 1.107v0.027c0 1.185 3.165 0.034 3.45 1.483 0.155 0.785-1.725 0.425-1.725 1.214 0 0.926 2.662 0.29 3.424 1.052 0.313 0.764-1.019 0.64-0.782 1.35 0.447 0.46 1.452 0.2 1.645 0.944 0.22 0.85 1.664 0.703 2.507 0.08 0.447-0.46-0.69-0.671-0.242-1.133 0.446-0.46 2.653-0.368 2.669-1.375-0.211-0.634-1.04-0.736-1.052-1.484-0.044-0.634 0.678-0.449 2.966-1.08 0.915-0.428 0.947-0.656 0.943-1.051v-0.027c-5e-3 -0.399-0.19-0.801-0.485-1.106l-5.338-5.53a1.479 1.479 0 0 0-1.078-0.46zm6.255 9.469a1.066 1.066 0 0 0-0.297 0.027c-0.146 0.042-0.839 0.066-0.782 0.593 0.628 0.263 1.585 0.473 1.699-0.054 0.086-0.395-0.293-0.554-0.62-0.566zm-10.703 1.753c-0.061 7e-3 -0.102 0.032-0.162 0.054-0.476 0.181-0.795 0.562-0.35 0.729 0.444 0.166 0.742-0.01 1.132-0.216 0.39-0.207 0.379-0.244 0.35-0.324-0.054 0.01-0.408-0.21-0.781-0.243a0.986 0.986 0 0 0-0.19 0z" fill="#4d4d4d"/>
  <path d="m8.573 3.062c0.404 3e-3 1.51 1.371 2.496 2.396 0.277 0.372-0.146 0.798-0.146 0.798l-1.965-1.229-0.983 1.229-0.737-0.983-0.491 1.72-1.474-0.862 2.602-2.773c0.171-0.174 0.302-0.3 0.698-0.296z" fill="#fff"/>
 </g>
</svg>
