<?xml version="1.0" encoding="UTF-8" standalone="no"?>
<svg
   width="64"
   height="64"
   version="1.1"
   viewBox="0 0 16.933 16.933"
   id="svg18"
   sodipodi:docname="instantmeshes.svg"
   inkscape:version="1.1.1 (3bf5ae0d25, 2021-09-20)"
   xmlns:inkscape="http://www.inkscape.org/namespaces/inkscape"
   xmlns:sodipodi="http://sodipodi.sourceforge.net/DTD/sodipodi-0.dtd"
   xmlns="http://www.w3.org/2000/svg"
   xmlns:svg="http://www.w3.org/2000/svg">
  <defs
     id="defs22" />
  <sodipodi:namedview
     id="namedview20"
     pagecolor="#ffffff"
     bordercolor="#666666"
     borderopacity="1.0"
     inkscape:pageshadow="2"
     inkscape:pageopacity="0.0"
     inkscape:pagecheckerboard="0"
     showgrid="false"
     inkscape:zoom="12.984375"
     inkscape:cx="-2.1949458"
     inkscape:cy="30.806258"
     inkscape:window-width="2560"
     inkscape:window-height="1360"
     inkscape:window-x="0"
     inkscape:window-y="44"
     inkscape:window-maximized="1"
     inkscape:current-layer="g16" />
  <g
     transform="translate(0 -280.07)"
     id="g16">
    <rect
       transform="matrix(0,-1,-1,0,0,0)"
       x="-295.68"
       y="-15.61"
       width="14.287"
       height="14.287"
       rx="7.1436"
       ry="7.1436"
       fill="#268bcf"
       id="rect2" />
    <rect
       transform="matrix(0 -1 -1 0 0 0)"
       x="-294.35"
       y="-14.288"
       width="11.642"
       height="11.642"
       rx="5.821"
       ry="5.821"
       opacity=".15"
       id="rect4" />
    <path
       style="fill:#ffffff;stroke:none;stroke-width:0.01481637;fill-opacity:1;stroke-miterlimit:4;stroke-dasharray:none"
       d="m 16.168794,283.52642 v 0.0444 h 0.01478 l 0.01478,-0.0444 h -0.02958 m 0.192251,0.20705 v 0.0148 h 0.04437 l -0.04437,-0.0148 m -3.386566,5.51611 c -0.0055,-0.66383 -0.319993,-1.28162 -0.631379,-1.84856 -0.179741,-0.32725 -0.35732,-0.66014 -0.556418,-0.97605 -0.07585,-0.1204 -0.139914,-0.26214 -0.236719,-0.36719 -0.794823,-0.86267 -2.1322358,-1.08601 -3.2486491,-1.03713 -0.3839975,0.0169 -0.844201,0.11734 -1.1978687,0.26355 -0.1828603,0.0757 -0.3628204,0.15836 -0.5471737,0.2302 -0.054603,0.0212 -0.118664,0.0754 -0.1774624,0.0772 -0.136379,0.005 -0.3694023,-0.18786 -0.4880209,-0.25474 -0.2549092,-0.14368 -0.5211607,-0.26413 -0.7985786,-0.35627 -0.098025,-0.0326 -0.2215471,-0.0909 -0.3253467,-0.0909 -0.094768,-2e-5 -0.2049683,0.0452 -0.2957704,0.0713 -0.1502508,0.0431 -0.2914356,0.0723 -0.3876209,0.20703 -0.1450897,0.20328 -0.1396627,0.4758 -0.1066729,0.70985 0.063978,0.45396 0.2390562,0.91024 0.4804634,1.30139 0.1011477,0.1639 0.3357289,0.38715 0.3700081,0.57675 0.012197,0.0675 -0.052268,0.16192 -0.07976,0.22183 -0.075859,0.16524 -0.1419399,0.32928 -0.1973832,0.50281 -0.1150771,0.36021 -0.1381835,0.71902 -0.1381835,1.09435 0,0.15547 -0.017355,0.32143 0.020331,0.47322 0.2409482,0.97003 0.9486226,1.60547 1.7838623,2.09054 0.3355959,0.1949 0.6836565,0.40587 1.0647726,0.51538 0.4778147,0.13731 0.9856973,0.17433 1.4788485,0.17433 0.4692094,0 1.0248429,-0.0412 1.4640621,-0.222 0.237341,-0.0976 0.501967,-0.18155 0.724636,-0.3086 0.219106,-0.125 0.420347,-0.30422 0.650693,-0.41117 0.170024,-0.0789 0.409228,-0.0534 0.59154,-0.1301 0.121677,-0.0512 0.232756,-0.18175 0.325348,-0.27391 0.139056,-0.13838 0.298978,-0.26238 0.424,-0.41405 0.213945,-0.25958 0.111576,-0.69315 0.298313,-0.97539 0.08718,-0.13175 0.347354,-0.15808 0.490343,-0.18382 0.06777,-0.0122 0.146998,-0.0109 0.192325,-0.0716 0.103233,-0.13821 -0.01861,-0.27618 -0.133393,-0.3553 -0.228896,-0.15781 -0.535743,-0.26797 -0.813145,-0.23292 m -7.9118352,-4.19996 v 0.0148 c -0.099878,0.0419 -0.3198159,0.006 -0.3845003,-0.0887 0.1368072,-0.0109 0.2579106,0.0179 0.3845003,0.0739 m -0.1774624,0.0887 c -0.095828,0.20492 -0.2962723,0.0671 -0.4584437,0.0296 0.095878,-0.20486 0.2988756,-0.0665 0.4584437,-0.0296 m -0.5175973,-0.0591 -0.1330961,0.0739 0.1330961,-0.0739 m 1.3605421,0.28099 v 0.0148 c -0.1856102,0.0816 -0.4730542,-0.12678 -0.6359052,-0.22183 0.150147,-0.12291 0.495829,0.12528 0.6359052,0.20705 m -0.2070387,0.0887 c -0.1196883,0.25117 -0.4952078,-0.0622 -0.6654833,-0.1331 0.1714587,-0.2432 0.4573205,0.0464 0.6654833,0.1331 M 4.293636,285.227 v 0.10356 l -0.1774624,0.0297 c 0.00365,-0.11027 0.078933,-0.12506 0.1774624,-0.13311 m 0.4436547,0.11832 c -0.040208,0.18217 -0.3916735,0.0437 -0.354924,-0.11832 l 0.354924,0.11832 m 3.7858552,-0.0444 v 0.0148 l -0.2957696,0.0148 v -0.0296 h 0.2957696 m 0.6359052,0 v 0.0296 l -0.2957703,-0.0148 0.2957703,-0.0148 m -1.0204064,0.0148 v 0.0444 l -0.9316748,0.22184 c 0.036056,-0.10296 0.1390699,-0.1223 0.2366152,-0.14197 0.227344,-0.0459 0.4638424,-0.10589 0.6950596,-0.12423 m 2.0408133,0.2662 -0.9316753,-0.22184 v -0.0444 c 0.2312173,0.0183 0.4677151,0.0784 0.6950585,0.12422 0.097549,0.0196 0.2005618,0.039 0.2366168,0.14197 m -4.8358393,0.0592 -0.044369,0.10356 c -0.1401351,-0.0511 -0.5521121,-0.19321 -0.4880197,-0.3698 l 0.5323863,0.2662 m 3.4013541,-0.2662 -0.044361,0.13311 h -0.014784 l -0.044369,-0.13311 h 0.1035262 m -0.1478859,0.11832 -0.1035133,-0.10356 c 0.071407,0.006 0.092401,0.0344 0.1035133,0.10356 m 0.2957703,-0.10356 -0.1035141,0.10356 c 0.011102,-0.0692 0.032107,-0.0979 0.1035141,-0.10356 m -4.5400676,0.10356 c -0.078689,-10e-6 -0.1387617,0.005 -0.1922506,-0.0591 0.08079,-0.0193 0.1593459,-0.0304 0.1922506,0.0591 m 1.937293,0.17746 v 0.0296 c -0.1328748,0.0796 -0.5000145,-0.12594 -0.5767525,-0.2514 0.20911,-0.0477 0.3957997,0.12662 0.5767525,0.22182 m 2.1886971,-0.14788 -0.133097,-0.0591 v -0.0297 c 0.065162,0.002 0.096159,0.0371 0.133097,0.0887 m 0.5619627,-0.0887 v 0.0297 l -0.1183096,0.0444 0.1183096,-0.0739 m -0.872522,0 c -0.1234975,0.15329 -0.3675379,0.28302 -0.5175965,0.0887 l 0.5175965,-0.0887 m 1.5675819,0.0887 c -0.1500597,0.19429 -0.3940993,0.0646 -0.5175976,-0.0887 l 0.5175976,0.0887 m -5.0133006,0.0591 c -0.096255,-0.0228 -0.2173609,-0.0547 -0.2809813,-0.1331 0.095536,0.0141 0.2335991,0.0426 0.2809813,0.1331 m -0.6211179,-0.0888 c 0.048975,0.0683 0.039203,0.11515 0.014784,0.19225 -0.1020982,-0.0223 -0.06659,-0.12926 -0.014784,-0.19225 m 4.2147225,0.0592 -0.1035262,-0.0297 c 0.044547,-0.0273 0.075324,-0.0128 0.1035262,0.0297 m 0.8577331,-0.0444 v 0.0148 l -0.1035263,0.0297 0.1035263,-0.0444 m -3.0464302,0.28098 c -0.1212867,0.25469 -0.4940254,-0.0593 -0.6506951,-0.16267 0.1724781,-0.22535 0.4607218,0.0626 0.6506951,0.16267 m 1.5527911,-0.14787 v 0.0296 c -0.2360832,0.0969 -0.4266039,0.22748 -0.6802707,0.11832 0.084985,-0.0825 0.4120079,-0.239 0.5323863,-0.22727 0.054084,0.006 0.1032084,0.0518 0.1478844,0.0794 m 2.7062959,0.1331 v 0.0148 c -0.253667,0.10918 -0.4441869,-0.0215 -0.6802719,-0.11832 v -0.0297 c 0.22239,-0.13708 0.4586669,0.0282 0.6802719,0.1331 m -3.2534696,-0.20705 c -0.07182,0.13438 -0.3270766,0.22053 -0.4732327,0.22184 0.037402,-0.10759 0.364255,-0.21068 0.4732327,-0.22184 m 3.8597976,0.38451 c -0.161742,-0.0384 -0.292117,-0.1385 -0.443655,-0.20045 -0.108137,-0.0441 -0.237932,-0.0753 -0.295769,-0.18406 0.233213,0.0239 0.592648,0.20306 0.739424,0.38451 m -6.6400468,-0.34011 c -0.011346,0.10003 -0.074359,0.10332 -0.1626733,0.10357 0.011346,-0.10954 0.063305,-0.12186 0.1626733,-0.10357 m 3.8302198,-0.0147 v 0.0147 H 8.123854 l 0.059153,-0.0147 m 1.07956,0 v 0.0147 H 9.203423 l 0.059145,-0.0147 m -4.3921833,0.0147 0.4140791,0.23662 -0.3253467,-0.15398 -0.08873,-0.0826 m -0.3105577,0.0148 v 0.0148 l -0.1330962,0.0296 0.1330962,-0.0444 m 0.1183104,0.25141 -0.014784,-0.22184 c 0.1489346,0.0169 0.1263083,0.16329 0.014784,0.22184 m 3.2682579,-0.19225 -0.029584,0.0591 h -0.014784 l -0.029576,-0.0591 h 0.073945 m 1.5675809,0 -0.029576,0.0591 h -0.014784 l -0.029576,-0.0591 h 0.073945 m -3.5936054,0.28097 c -0.082362,0.16008 -0.2948086,-0.0286 -0.3992894,-0.0887 -0.040963,-0.0235 -0.1093199,-0.0483 -0.1310695,-0.0935 -0.066581,-0.13818 0.1754641,-0.0227 0.2050121,-0.006 l 0.1330962,0.076 c 0.064538,0.037 0.1301401,0.0711 0.1922506,0.1121 m 2.2478523,-0.26619 v 0.0148 l -0.08873,0.0148 0.08873,-0.0296 m 1.1387135,0.0296 -0.088729,-0.0148 0.088729,0.0148 m -4.732319,-0.0148 c 0.038303,0.16085 0.016195,0.24885 -0.1478843,0.29576 -0.053427,-0.16894 -0.029836,-0.25365 0.1478843,-0.29576 m 0.3105594,0.0148 0.8429432,0.45843 -0.2620369,0.47323 -0.1372524,0.17748 c -0.1547315,-0.25282 -0.2879606,-0.53221 -0.3796199,-0.81338 -0.027638,-0.0848 -0.098098,-0.20831 -0.064043,-0.29576 m 3.0168529,0.20703 c -0.2006944,0.11674 -0.3491854,0.0759 -0.5471737,-0.0296 v -0.0297 c 0.2060624,-0.0697 0.4812177,-0.2749 0.5471737,0.0591 m 2.1295437,-0.0591 v 0.0297 c -0.1979879,0.10539 -0.3464799,0.14627 -0.5471738,0.0296 0.065957,-0.33406 0.341111,-0.12887 0.5471738,-0.0591 m -5.9745525,-0.1182 h 0.014784 l 0.044369,0.31056 c -0.067246,-0.0435 -0.087327,-0.23837 -0.059153,-0.31056 m 4.1703555,0.0148 c -0.030712,0.0448 -0.065868,0.0521 -0.1183095,0.0444 l 0.1183095,-0.0444 m 0.9464638,0 0.1035263,0.0444 c -0.034767,0.009 -0.1227602,0.007 -0.1035263,-0.0444 m -4.9689349,0.29578 -0.029576,-0.2662 c 0.1873255,1.5e-4 0.2304647,0.25685 0.029576,0.2662 m 2.9281238,-0.16267 c -0.17761,0.24128 -0.3666377,0.24817 -0.6359061,0.23661 0.073556,-0.0909 0.2787179,-0.29343 0.3992885,-0.30371 0.074934,-0.006 0.1662685,0.0441 0.2366176,0.0671 m 1.2274443,-0.0739 -0.1626733,0.0887 c 0.018774,-0.0643 0.1017202,-0.0795 0.1626733,-0.0887 m 0.8281559,0.0887 -0.1626734,-0.0887 c 0.060953,0.01 0.1439065,0.0245 0.1626734,0.0887 m 1.7006771,0.22182 c -0.269269,0.0109 -0.458296,0.005 -0.635906,-0.2366 0.07034,-0.023 0.161683,-0.0735 0.236617,-0.0671 0.120567,0.01 0.325731,0.21278 0.399289,0.30371 m -2.3957389,-0.29676 c -0.034426,0.0819 -0.080619,0.1588 -0.1774624,0.1331 l 0.1774624,-0.1331 m 0.4140775,0 0.1626734,0.1331 c -0.082252,0.0218 -0.1671987,-0.045 -0.1626734,-0.1331 m -0.857733,0.0148 -0.059153,0.10356 0.059153,-0.10356 m 0.5619635,0 -0.044369,0.17746 h -0.08873 l 0.1035262,-0.17746 h 0.029576 m 0.088729,0 0.044369,0.19226 H 8.6414676 l 0.059153,-0.19226 m 0.088729,0 0.1183105,0.17746 h -0.088729 l -0.029584,-0.17746 m 0.5619635,0 0.04436,0.10356 -0.04436,-0.10356 m -3.5788165,0.26619 -0.3992893,-0.22182 c 0.093914,-0.022 0.3502357,0.14163 0.3992893,0.22182 m -0.9612528,-0.22182 c 0.015684,0.0491 0.029657,0.0986 0.044734,0.14789 0.0089,0.0293 0.019837,0.0583 0.024321,0.0887 0.00633,0.0429 -0.021126,0.16696 -0.090328,0.12076 -0.1105761,-0.0738 -0.1138574,-0.32195 0.021264,-0.3574 m 2.7802387,0.17746 c -0.176842,0.21861 -0.4064625,0.14902 -0.6506935,0.10356 0.058974,-0.0771 0.2073777,-0.22673 0.3105577,-0.23015 0.1027323,-0.004 0.2482105,0.0837 0.3401358,0.12662 m 0.5471736,0.0148 c -0.1683818,-0.0851 0.094938,-0.19861 0,0 m 1.1091372,0 c -0.094938,-0.19861 0.1683818,-0.0851 0,0 m 1.1978692,0.0887 c -0.244233,0.0455 -0.4738531,0.11515 -0.6506934,-0.10356 0.091925,-0.0429 0.2373994,-0.13004 0.3401344,-0.12662 0.103184,0.004 0.251582,0.15308 0.310559,0.23013 m -5.82667,-0.17741 c 0.023908,0.0476 0.038303,0.0966 0.052924,0.14789 0.019593,0.0687 0.03042,0.34589 -0.1333346,0.24943 -0.05007,-0.0295 -0.1156017,-0.26464 -0.081642,-0.31304 0.029876,-0.0426 0.1155409,-0.0649 0.162053,-0.0843 m 3.4457194,0.16268 -0.2661931,-0.0887 c 0.1126619,-0.11284 0.194218,-0.0147 0.2661931,0.0887 m 1.5232155,-0.10357 v 0.0148 l -0.2661931,0.0887 c 0.078462,-0.11271 0.1354326,-0.17774 0.2661931,-0.10356 m -1.2718113,0.13309 c -0.2322675,-0.0933 0.098597,-0.23391 0,0 m 0.754214,0 c -0.098597,-0.23391 0.2322675,-0.0933 0,0 m -2.7062952,-0.14787 c -0.033656,0.0581 -0.079719,0.0951 -0.1478852,0.0887 l 0.1478852,-0.0887 m 4.6731662,0 c 0.08429,0.0328 0.131691,0.06 0.162673,0.14787 -0.05416,-0.0242 -0.164375,-0.0822 -0.162673,-0.14787 m -2.4844691,0.074 -0.014784,0.11832 -0.1330962,-0.0148 0.014784,-0.11832 0.1330961,0.0148 m 0.4140783,-0.0148 0.014784,0.11832 -0.133097,0.0148 -0.014784,-0.11832 0.1330961,-0.0148 m -4.732319,0.0297 c 0.035683,-0.005 0.090401,-0.0229 0.1223305,5.6e-4 0.048497,0.0358 0.1131744,0.2631 0.089974,0.31889 -0.049656,0.11943 -0.134946,-0.0139 -0.1531509,-0.068 l -0.03445,-0.10356 c -0.015976,-0.0498 -0.023599,-0.0958 -0.024711,-0.14787 m 3.771067,0.0887 c -0.074156,0.14702 -0.3543327,0.0448 -0.4880209,0.0444 0.1127723,-0.22207 0.3132648,-0.10137 0.4880209,-0.0444 m 0.7542133,0.0296 h -0.133097 c 5.515e-4,-0.16208 0.1325196,-0.16208 0.133097,0 m 1.1091376,0.0148 c -0.133703,3.7e-4 -0.4138712,0.10271 -0.4880214,-0.0444 0.1747562,-0.0569 0.3752441,-0.17772 0.4880214,0.0444 m -5.7527291,-0.11832 c 0.080595,0.0742 0.1490676,0.29128 0.133097,0.39927 h -0.014784 c -0.044109,-0.0995 -0.1408021,-0.29214 -0.1183105,-0.39927 m 2.0408128,0.0297 0.014784,0.0148 v 0.0297 l -0.1035133,0.0296 0.088729,-0.0739 m 0.6063281,0.0591 c -0.1020373,0.2803 -0.2712204,0.31038 -0.5471737,0.31055 0.030558,-0.0839 0.1127471,-0.29319 0.1978552,-0.33116 0.086607,-0.0387 0.2550714,0.0166 0.3493185,0.0206 m 4.4069733,0.31057 c -0.275953,-1.8e-4 -0.445134,-0.0302 -0.547174,-0.31057 0.09424,-0.004 0.262717,-0.0593 0.349319,-0.0206 0.08511,0.038 0.167302,0.24724 0.197855,0.33116 m 0.147886,-0.32535 c 0.09958,0.0777 0.159049,0.19536 0.207038,0.31056 -0.107454,-0.0417 -0.208311,-0.19311 -0.207038,-0.31056 m -5.0428786,0.0296 c -0.028474,0.12445 -0.1182853,0.28023 -0.2218286,0.35493 0.026511,-0.11576 0.1158215,-0.29693 0.2218286,-0.35493 m 1.049982,0.0592 c -0.047742,0.26464 -0.3995991,0.19226 -0.6063273,0.19226 0.021345,-0.074 0.065795,-0.19546 0.1362022,-0.23618 0.1066729,-0.0617 0.3511967,0.0346 0.4701251,0.0439 m 3.3422016,0.19225 c -0.206729,0 -0.558577,0.0723 -0.606329,-0.19225 0.118933,-0.01 0.363458,-0.10563 0.470127,-0.0439 0.07039,0.0407 0.114858,0.16209 0.136202,0.23618 m 0.458444,-0.2514 c 0.09319,0.0792 0.179768,0.23574 0.20704,0.35492 -0.08062,-0.0581 -0.231708,-0.2495 -0.20704,-0.35492 m -2.9133354,0.0297 v 0.0148 H 8.0794814 l 0.1330954,-0.0148 m 1.094349,0 v 0.0148 H 9.1738296 l 0.1330962,-0.0148 m -4.3626061,0.0148 0.1626733,0.41408 -0.1330969,0.0444 c -0.038692,-0.13531 -0.2529272,-0.40517 -0.029576,-0.45845 m 1.0647726,0.0296 0.014784,0.0148 c -0.026381,0.0914 -0.072372,0.15717 -0.1626725,0.19226 0.033226,-0.0798 0.068203,-0.1663 0.1478843,-0.20704 m 1.8633504,0.0591 c -0.06869,0.1309 -0.3979577,0.0865 -0.5323863,0.10356 0.067052,-0.22786 0.3470266,-0.14777 0.5323863,-0.10356 m 0.872522,-0.0591 v 0.0148 H 8.6414352 l 0.1035254,-0.0148 m 1.3013884,0.16267 c -0.1344279,-0.017 -0.46368,0.0275 -0.5323869,-0.10356 0.1840583,-0.0439 0.4657641,-0.1229 0.5323869,0.10356 m -1.9372944,-0.10356 v 0.0148 l -0.1626734,0.0296 0.1626734,-0.0444 m 1.3309649,0.0444 -0.1626742,-0.0296 c 0.060134,-0.0252 0.117261,-0.0169 0.1626742,0.0296 m -4.7027418,0.47325 c -0.026843,-0.0646 -0.056266,-0.12856 -0.085313,-0.19226 -0.023583,-0.0517 -0.076175,-0.13086 -0.069509,-0.18951 0.00633,-0.0554 0.1134672,-0.11564 0.1637828,-0.0895 0.04805,0.0249 0.068576,0.11441 0.088327,0.1607 0.065211,0.15285 0.1055018,0.26294 -0.097293,0.31057 m 3.9633176,-0.48803 -0.014784,0.0148 0.014784,-0.0148 m -0.5619635,0.0591 v 0.0148 l -0.236616,0.0887 c 0.028944,-0.0917 0.1517884,-0.0998 0.236616,-0.10356 m 0.3401357,0 -0.029576,0.11832 v -0.11832 h 0.029576 m 0.4584437,0 v 0.11832 L 8.90763,286.4839 h 0.029576 m 0.5471737,0.0444 v 0.0592 l -0.2366151,-0.0887 0.2366151,0.0296 m -0.8873094,-0.0148 -0.044369,0.11833 v -0.11833 h 0.044369 m 0.2366159,0 v 0.11833 l -0.044361,-0.11833 h 0.044361 m -0.1183096,0.0148 v 0.11833 h -0.044369 v -0.11833 h 0.044369 m -4.1407783,0.50282 c -0.033445,-0.0573 -0.062397,-0.1165 -0.088729,-0.17746 -0.017331,-0.04 -0.036178,-0.0792 -0.055487,-0.11832 -0.022432,-0.0455 -0.058658,-0.24535 0.062908,-0.1654 0.1115152,0.0733 0.2315295,0.40224 0.081313,0.46116 m 3.2534697,-0.48801 c -0.011346,0.14168 -0.3955637,0.18228 -0.5175989,0.19225 l 0.015198,-0.13896 0.1326818,-0.0262 0.3697121,-0.0271 m 0.3992901,0 -0.2514041,0.19226 c -0.1032084,-0.10441 0.1752873,-0.17143 0.2514041,-0.19226 m 0.9464638,0 c 0.085862,0.0333 0.3072165,0.0734 0.2514034,0.19226 h -0.014784 l -0.2366159,-0.19226 m 0.9020996,0.19226 c -0.1220206,-0.01 -0.5063,-0.0505 -0.5175993,-0.19226 l 0.3697134,0.0271 0.1326829,0.0262 0.0152,0.13896 m -2.8541796,-0.14788 v 0.17745 l -0.5471736,0.11833 v -0.28098 l 0.5471736,-0.0148 m 3.4900866,0.0148 v 0.28098 l -0.547174,-0.11833 v -0.17745 l 0.547174,0.0148 m -2.3809494,0.0148 c -0.067579,0.0959 -0.1856541,0.26408 -0.3105577,0.19224 v -0.0296 c 0.087631,-0.0581 0.2033707,-0.16282 0.3105577,-0.16268 m 1.0351954,0.16268 v 0.0296 c -0.1249045,0.0718 -0.2429757,-0.0964 -0.3105594,-0.19224 0.1071854,-1.7e-4 0.2229226,0.10465 0.3105594,0.16267 m -2.7802386,-0.16267 c 0,0.0711 0.027297,0.21348 -0.015198,0.27339 -0.056014,0.0789 -0.2930049,0.10003 -0.3840875,0.12589 l -0.014784,-0.35492 0.4140791,-0.0444 m 4.6288,0.0444 -0.01478,0.35492 c -0.09108,-0.0259 -0.328068,-0.047 -0.384086,-0.12589 -0.04249,-0.0599 -0.0152,-0.20226 -0.0152,-0.27339 l 0.414079,0.0444 m -6.9210183,-0.0296 0.1774624,0.35492 c -0.070198,-0.046 -0.1992607,-0.27286 -0.1774624,-0.35492 m 1.5971573,0.0148 -0.073945,0.22183 c -0.035424,-0.0844 -0.00854,-0.18061 0.073945,-0.22183 m 5.619631,0 c 0.07403,0.0602 0.07388,0.13202 0.07395,0.22183 h -0.01478 l -0.05915,-0.22183 m -5.4125914,0.0297 c 0,0.14952 0.05157,0.3771 -0.1183104,0.44366 0,-0.16512 -0.053987,-0.36282 0.1183104,-0.44366 m 2.3365823,0 c -0.02527,0.1418 -0.094828,0.29904 -0.2514041,0.23662 0.04402,-0.0944 0.1494974,-0.20802 0.2514041,-0.23662 m 0.7690023,0.23662 c -0.1565805,0.0624 -0.2261308,-0.0948 -0.2514042,-0.23662 0.1019035,0.0286 0.2073786,0.14219 0.2514042,0.23662 m 2.0999668,-0.23662 c 0.150444,0.10087 0.103526,0.27789 0.103526,0.44366 -0.144395,-0.0566 -0.158163,-0.31344 -0.103526,-0.44366 m -3.4161427,0.0739 v 0.0148 l -0.3401358,0.16649 -0.1273293,0.0348 -0.094499,-0.14208 c 0.1266634,-0.0545 0.4498213,-0.17298 0.5619626,-0.074 m 2.1739102,0.074 -0.094499,0.14208 -0.1273293,-0.0348 -0.3401354,-0.16649 c 0.08551,-0.1251 0.442502,0.007 0.5619636,0.0591 m -1.478851,-0.10357 -0.044369,0.28099 -0.147886,-0.0148 c 0.017566,-0.0973 0.083277,-0.25753 0.1922505,-0.2662 m 0.4140775,0.2662 -0.1478843,0.0148 -0.044369,-0.28099 c 0.1089785,0.009 0.1746816,0.16887 0.1922506,0.26619 m -0.2218269,0.0296 h -0.162692 c 0.00576,-0.0455 0.017574,-0.27965 0.086583,-0.26735 0.064221,0.0109 0.069493,0.2154 0.076094,0.26735 m -3.5640283,0.10357 h -0.029584 l -0.1478844,-0.28098 c 0.1932262,-0.10808 0.2622737,0.1421 0.1774616,0.28098 m 2.809815,-0.17746 c -0.1739419,0.10868 -0.3807593,0.38799 -0.5323863,0.0887 0.1259238,-0.0428 0.4707032,-0.29823 0.5323863,-0.0887 m 1.8781399,0.0887 c -0.1516273,0.29926 -0.3584303,0.02 -0.5323868,-0.0887 0.061683,-0.2095 0.406461,0.0459 0.5323868,0.0887 m -4.4217618,-0.17746 -0.024216,0.41408 -0.1976193,0.3845 h -0.014784 l 0.010372,-0.45845 0.1967029,-0.34013 H 5.47674 m 1.8633504,0.17746 -0.5028082,0.19226 -0.1330962,-0.26621 c 0.2011081,-0.0682 0.5705834,-0.2115 0.6359044,0.0739 m 3.3422006,-0.0739 -0.133097,0.26621 -0.502808,-0.19226 c 0.06532,-0.28545 0.434796,-0.14216 0.635905,-0.074 m 1.242235,-0.10357 c 0.22857,0.23887 0.221827,0.49139 0.221827,0.79858 h -0.01478 c -0.116077,-0.22062 -0.31736,-0.53568 -0.207038,-0.79858 M 5.0478834,287.4009 H 5.018302 c -0.049291,-0.1054 -0.2205561,-0.27952 -0.2130595,-0.39655 0.00357,-0.0555 0.111748,-0.11735 0.1608706,-0.0903 0.1870149,0.10307 0.1716355,0.33995 0.081764,0.48679 m 0.8429456,-0.44366 0.014784,0.28099 c -0.1030259,-0.0661 -0.1006717,-0.2017 -0.014784,-0.28099 m 5.6196293,0 c 0.05859,0.0953 0.07718,0.21245 -0.02958,0.28099 l 0.02958,-0.28099 m -3.2534698,0.0591 c -0.025716,0.0806 -0.1445131,0.32217 -0.2379914,0.33229 -0.072639,0.007 -0.1872087,-0.0622 -0.2500295,-0.0956 v -0.0297 c 0.163679,-0.12138 0.2756873,-0.28881 0.4880209,-0.20704 m 1.3605405,0.20704 v 0.0297 c -0.062818,0.0334 -0.1773877,0.10356 -0.2500279,0.0956 -0.093474,-0.01 -0.212289,-0.25161 -0.2379922,-0.33229 0.2123191,-0.0817 0.3243419,0.0858 0.4880201,0.20705 m -3.2238909,0.22181 -0.1922514,-0.35491 c 0.089046,-0.0383 0.3153052,-0.13355 0.4092125,-0.0944 0.042901,0.0179 0.062543,0.0714 0.083338,0.10918 0.021629,0.0392 0.06942,0.0966 0.057328,0.14473 -0.021288,0.0848 -0.2800487,0.17306 -0.3576293,0.1954 m 4.7914744,-0.35492 -0.192252,0.35492 c -0.07758,-0.0223 -0.33635,-0.11063 -0.357629,-0.1954 -0.01207,-0.0482 0.03572,-0.10539 0.05733,-0.14473 0.02079,-0.0378 0.04043,-0.0913 0.08334,-0.10918 0.09391,-0.0392 0.320171,0.0561 0.409212,0.0944 m -6.447783,-0.0444 c 0.031255,0.0668 0.071472,0.12898 0.1094294,0.19224 l 0.070985,0.11832 c 0.017209,0.0288 0.1107472,0.26948 -0.013162,0.19592 -0.089157,-0.053 -0.1577053,-0.22769 -0.2124074,-0.31422 -0.020534,-0.0324 -0.060321,-0.0757 -0.056696,-0.11699 0.00438,-0.05 0.062235,-0.0659 0.1018549,-0.0753 m 3.7710662,0.0297 c -6.626e-4,0.0779 -0.00779,0.30803 -0.081545,0.3532 -0.060896,0.0373 -0.2362162,-0.0262 -0.3029572,-0.0426 0.074699,-0.19707 0.1751251,-0.32708 0.3845019,-0.31057 m 0.7542124,0.31057 c -0.066735,0.0165 -0.2420584,0.08 -0.3029572,0.0426 -0.073685,-0.0452 -0.080887,-0.27525 -0.081545,-0.3532 0.209376,-0.0166 0.3098051,0.11344 0.3845003,0.31057 m -2.3365815,-0.074 v -0.0296 c 0.1419099,-0.0757 0.5675519,-0.32655 0.645577,-0.0433 0.01776,0.0644 -0.1018427,0.12488 -0.1427687,0.15641 -0.052365,0.0404 -0.1229079,0.12039 -0.1922506,0.12654 -0.097439,0.009 -0.2362015,-0.155 -0.3105577,-0.21012 m 1.937293,0.1331 H 8.5231361 c 0.011346,-0.0847 0.021394,-0.26505 0.07637,-0.33122 0.031498,-0.0379 0.1559017,-0.0379 0.1874009,0 0.054976,0.0661 0.064984,0.24661 0.07637,0.33122 m 1.597158,-0.16267 v 0.0297 c -0.07436,0.0551 -0.213118,0.21879 -0.310559,0.21011 -0.06935,-0.006 -0.139884,-0.0862 -0.1922495,-0.12655 -0.040922,-0.0315 -0.16053,-0.092 -0.1427679,-0.15639 0.078016,-0.28329 0.5036654,-0.0324 0.6455764,0.0433 m -4.7914733,-0.14787 0.2514041,0.44364 c -0.092048,-0.0505 -0.2690769,-0.33751 -0.2514041,-0.44364 m 0.4732319,0 c 0.073969,0.17166 0.2627019,0.32934 0.059153,0.47322 -0.089815,-0.13615 -0.3214289,-0.4116 -0.059153,-0.47322 m 5.0428774,0.47322 c -0.203549,-0.14388 -0.01482,-0.30156 0.05915,-0.47322 0.262275,0.0616 0.03066,0.33707 -0.05915,0.47322 m 0.532386,-0.47322 c 8.92e-4,0.11844 -0.14722,0.38649 -0.251404,0.44364 l 0.251404,-0.44364 m -7.1428451,0.0444 0.059153,0.10356 -0.059153,-0.10356 m 1.0351962,0.0444 c 0.065178,0.12386 0.2450883,0.33202 0.221827,0.47322 h -0.029576 c -0.08135,-0.13795 -0.2200088,-0.31204 -0.2366168,-0.47322 h 0.044369 m 6.2111697,0 c -0.0166,0.16118 -0.155264,0.33528 -0.236616,0.47322 h -0.02958 c -0.02326,-0.1412 0.156656,-0.34936 0.221829,-0.47322 h 0.04437 m -1.745042,0.3697 c -0.1063557,0.0412 -0.3157644,0.1829 -0.4282755,0.16294 -0.095975,-0.0171 -0.220305,-0.25297 -0.2372074,-0.3404 0.083862,-0.0285 0.1918946,-0.10697 0.2809808,-0.10417 0.1118204,0.004 0.3192391,0.19651 0.3845021,0.28158 m -2.0999684,-0.17721 c -0.016909,0.0874 -0.1412157,0.32337 -0.2372079,0.3404 -0.112516,0.02 -0.3219155,-0.12174 -0.4282745,-0.16294 0.068017,-0.0887 0.2679375,-0.27196 0.3845003,-0.27729 0.091376,-0.005 0.1956964,0.0707 0.2809821,0.0998 m -2.0112356,-0.0887 0.029576,0.0739 -0.029576,-0.0739 m 0.5028075,0.17746 c 0.083862,-0.0489 0.2561224,-0.17405 0.3549256,-0.16336 0.065016,0.007 0.1286455,0.0803 0.1774623,0.11893 0.037962,0.0301 0.1300348,0.0776 0.1300348,0.13352 0,0.0533 -0.079468,0.0993 -0.1152482,0.12907 -0.039219,0.0327 -0.092267,0.0947 -0.147886,0.0932 -0.1099662,-0.002 -0.3366299,-0.22627 -0.3992893,-0.31134 m 4.4513393,0 c -0.06266,0.085 -0.289323,0.30841 -0.399291,0.31134 -0.05563,0.002 -0.10866,-0.0605 -0.147884,-0.0932 -0.03578,-0.0298 -0.115248,-0.0757 -0.115248,-0.12907 0,-0.056 0.09207,-0.10344 0.130035,-0.13352 0.04882,-0.0387 0.112443,-0.11186 0.177462,-0.11893 0.09881,-0.011 0.271058,0.11442 0.354924,0.16336 m 0.517597,-0.17746 -0.04436,0.0739 0.04436,-0.0739 m -5.9153989,0.0148 c 0.072566,0.12304 0.2194613,0.30145 0.2388202,0.44365 0.018831,0.13838 -0.1550583,0.41378 -0.2240312,0.53239 h -0.029576 c -0.066516,-0.15437 -0.2165045,-0.30756 -0.2487587,-0.47323 -0.022667,-0.11649 0.1795328,-0.42518 0.2635461,-0.50281 m 6.3590545,0 c 0.07192,0.10905 0.259746,0.35601 0.25099,0.48802 -0.01074,0.16212 -0.187267,0.34015 -0.25099,0.48802 h -0.02957 c -0.07332,-0.1261 -0.225791,-0.37032 -0.225082,-0.5176 5.52e-4,-0.12076 0.170512,-0.37544 0.254659,-0.45844 m -6.7287667,0.0444 -0.00939,0.45843 -0.1828303,0.38451 H 4.944371 c 0,-0.30244 -0.029163,-0.60995 0.2070396,-0.84294 m 7.0984794,0 0.182816,0.34013 0.0094,0.50281 h -0.01478 c -0.105368,-0.25307 -0.298608,-0.55422 -0.177461,-0.84294 m -6.2407473,0.0444 0.059153,0.10356 -0.059153,-0.10356 m 5.3830143,0 -0.07395,0.10356 0.04437,-0.10356 h 0.02958 m -2.9724886,0.0887 c -0.00316,0.0733 -0.017574,0.31053 -0.082655,0.3532 -0.035594,0.0233 -0.1011833,-0.002 -0.1391736,-0.01 -0.1183096,-0.0206 -0.2357588,-0.0477 -0.3549231,-0.0629 0.029747,-0.0898 0.1419837,-0.29699 0.2379467,-0.32666 0.09334,-0.0288 0.2448085,0.0279 0.3388041,0.0457 m 1.1239254,0.28098 c -0.1191636,0.0151 -0.236616,0.0422 -0.3549231,0.0629 -0.037994,0.006 -0.1035749,0.0327 -0.1391753,0.01 -0.065065,-0.0427 -0.079508,-0.27987 -0.082655,-0.35319 0.093987,-0.0177 0.2454751,-0.0745 0.3388057,-0.0456 0.095962,0.0296 0.208192,0.23691 0.2379468,0.32665 m -0.5915399,0.0887 H 8.4344175 c 0.00333,-0.0765 0.017258,-0.29159 0.082288,-0.33972 0.045755,-0.0339 0.1447799,-0.0152 0.1986986,-0.0152 0.046672,0 0.1285417,-0.0151 0.1635906,0.0237 0.05676,0.0628 0.069436,0.24888 0.073029,0.33121 m -2.55841,-0.30808 c 0.087388,-0.004 0.3443649,0.22272 0.3895583,0.29582 0.029641,0.0479 -0.0089,0.13188 -0.06693,0.13849 -0.043728,0.005 -0.084033,-0.0337 -0.1155896,-0.0583 -0.084619,-0.0661 -0.2489339,-0.15239 -0.2994368,-0.24795 -0.027662,-0.0523 0.039543,-0.12575 0.092401,-0.1281 m 4.5992224,0 c 0.05285,0.002 0.120067,0.0757 0.0924,0.1281 -0.0505,0.0955 -0.214817,0.18184 -0.299437,0.24795 -0.03155,0.0246 -0.07184,0.0632 -0.115589,0.0583 -0.05807,-0.006 -0.09657,-0.0905 -0.06693,-0.13849 0.0452,-0.0731 0.302172,-0.29968 0.389558,-0.29582 m -5.0133016,0.0714 c 0.148847,0.076 0.4269591,0.26438 0.5028091,0.41408 L 6.112638,287.79085 5.979541,287.65184 m 1.7302543,0.19225 v 0.0148 l -0.1822821,0.24185 -0.1726419,-0.0453 -0.3992885,-0.16682 c 0.055722,-0.0784 0.180922,-0.2149 0.2809814,-0.23061 0.1242962,-0.0195 0.3702441,0.12101 0.4732311,0.18623 m 2.7210847,0.0444 -0.399289,0.16683 -0.1726414,0.0454 -0.1822831,-0.24184 c 0.072834,-0.0796 0.3783345,-0.23012 0.4880205,-0.19774 0.09655,0.0285 0.20967,0.14777 0.266193,0.22731 m 0.990828,-0.23662 c -0.108966,0.14804 -0.349613,0.33921 -0.517597,0.41409 0.07133,-0.14081 0.368457,-0.36378 0.517597,-0.41409 m -5.5013206,0.074 c 0.1235737,0.10759 0.2565361,0.2052 0.3845004,0.30762 0.05955,0.0477 0.125378,0.0829 0.1183104,0.16562 -0.1561815,-0.0406 -0.3023961,-0.2112 -0.4288666,-0.30881 -0.059007,-0.0455 -0.1431823,-0.0943 -0.073945,-0.16443 m 5.5752634,0 c 0.01388,0.0837 -0.04168,0.11674 -0.103526,0.16443 -0.126471,0.0976 -0.272685,0.2682 -0.428867,0.30881 -0.0071,-0.0827 0.05875,-0.11795 0.118311,-0.16562 0.127772,-0.10223 0.262791,-0.24358 0.414077,-0.30762 m -5.3090709,1.15351 c -0.162821,-0.0689 -0.3047463,-0.22541 -0.4436555,-0.33387 -0.048351,-0.0378 -0.1379758,-0.0859 -0.1443647,-0.15417 -0.013454,-0.14354 0.1629839,-0.38455 0.2183081,-0.51758 0.1559593,0.0371 0.3037106,0.20835 0.4288665,0.30539 0.045423,0.0353 0.1137722,0.0753 0.1198099,0.13849 0.014727,0.1535 -0.1169317,0.42179 -0.17897,0.56174 m 2.1443326,-0.90211 -0.070069,0.26572 -0.1813372,-0.009 -0.4584429,-0.0796 c 0.070044,-0.36214 0.4468646,-0.28916 0.7098487,-0.17746 m 1.4344841,0.17746 -0.4584439,0.0796 -0.1813365,0.009 -0.070069,-0.26572 c 0.2629833,-0.11173 0.6398242,-0.18468 0.7098473,0.17747 m 1.8041974,-0.28098 c 0.05532,0.13303 0.231764,0.37404 0.218308,0.51758 -0.0063,0.0682 -0.09601,0.11637 -0.144366,0.15417 -0.138908,0.10845 -0.280833,0.26493 -0.443655,0.33387 -0.06204,-0.13995 -0.193699,-0.40824 -0.17897,-0.56174 0.0061,-0.0631 0.07438,-0.10332 0.11981,-0.13849 0.125155,-0.097 0.272907,-0.26833 0.428866,-0.30539 m -6.6991895,0.0444 -0.0077,0.47324 -0.1402239,0.35492 h -0.014784 c 0,-0.28842 -0.03531,-0.5892 0.1626734,-0.82816 m 7.660443,0 0.142117,0.32535 0.0058,0.50281 h -0.01478 c -0.09305,-0.23984 -0.243434,-0.56522 -0.133097,-0.82816 m -7.2463636,1.02041 c -0.1177362,-0.0663 -0.1918807,-0.2826 -0.2559294,-0.39929 -0.027216,-0.0496 -0.069079,-0.10283 -0.062105,-0.16268 0.017679,-0.15135 0.1563437,-0.30393 0.214507,-0.44364 l 0.1524097,0.20704 0.1395604,0.28098 -0.1884503,0.51759 m 6.9210172,-1.00561 c 0.05816,0.13971 0.196835,0.29229 0.214506,0.44364 0.007,0.0598 -0.03489,0.11308 -0.0621,0.16268 -0.06405,0.11674 -0.1382,0.33296 -0.255931,0.39929 l -0.18845,-0.51759 0.13956,-0.28098 0.15241,-0.20704 m -4.7175309,0.2514 -0.062478,0.12149 -0.174135,-0.0498 -0.4436539,-0.19003 c 0.090474,-0.23271 0.5162065,0.0547 0.6802707,0.11832 m 3.0907961,-0.11832 -0.443656,0.19003 -0.1741329,0.0498 -0.062478,-0.12149 c 0.1640629,-0.0637 0.5897949,-0.35101 0.6802709,-0.11832 m -1.5380036,0.20704 h -0.695123 c 0.013868,-0.0716 0.017979,-0.21921 0.070125,-0.27206 0.030177,-0.0307 0.083106,-0.0237 0.1221229,-0.0237 0.094024,-2e-4 0.3640044,-0.0459 0.4326821,0.0237 0.052146,0.0528 0.056258,0.20052 0.070125,0.27206 m -1.7598314,0.13309 c -0.1699203,0.004 -0.3902688,-0.14244 -0.5471745,-0.20719 -0.06247,-0.0257 -0.1392791,-0.0455 -0.1774615,-0.10332 0.1980904,0.0353 0.5753308,0.17575 0.724636,0.31055 m 3.549239,-0.31055 c -0.03818,0.0578 -0.114992,0.0776 -0.177461,0.10332 -0.156906,0.0648 -0.377255,0.21095 -0.547175,0.20719 0.149305,-0.1348 0.526544,-0.27536 0.724636,-0.31055 m -4.3478176,0.16268 0.029584,-0.0739 c 0.195844,0.0666 0.3864085,0.15775 0.5767508,0.23882 0.038984,0.0166 0.1722705,0.0478 0.1515533,0.11186 -0.01991,0.0615 -0.1478852,-0.0151 -0.1811305,-0.0294 -0.1908013,-0.0822 -0.393404,-0.14951 -0.5767508,-0.24726 m 4.3921838,-0.074 0.02958,0.074 c -0.183348,0.0977 -0.38595,0.16501 -0.576751,0.24726 -0.03324,0.0144 -0.161225,0.091 -0.18113,0.0294 -0.02071,-0.0641 0.112576,-0.0953 0.151552,-0.11186 0.190344,-0.0811 0.380908,-0.17216 0.576752,-0.23882 m -2.6323526,0.28098 -0.7098479,-0.13311 0.061123,-0.10307 0.4860543,0.082 0.1535344,0.0383 0.00915,0.11588 m 1.6119452,-0.13309 -0.7098476,0.13309 0.00915,-0.11588 0.1535344,-0.0383 0.4860532,-0.082 0.061123,0.10307 m -2.7506603,0.94647 c -0.2083111,-0.0213 -0.4436109,-0.16665 -0.635906,-0.24918 -0.05466,-0.0234 -0.1740312,-0.0481 -0.1975155,-0.10905 -0.020064,-0.0521 0.018515,-0.12516 0.03484,-0.17414 0.045626,-0.13691 0.08053,-0.28629 0.1478843,-0.41408 l 0.5619635,0.2304 0.183273,0.10075 -0.017639,0.18642 -0.076897,0.42886 m 3.8302206,-0.94646 c 0.06734,0.1278 0.102257,0.27718 0.147886,0.41408 0.01633,0.0491 0.05492,0.12205 0.03484,0.17414 -0.02348,0.061 -0.142857,0.0856 -0.197516,0.10906 -0.192294,0.0826 -0.427594,0.22786 -0.635906,0.24918 l -0.0769,-0.42887 -0.01764,-0.18642 0.183274,-0.10076 0.561963,-0.2304 m -1.8781396,0.0297 v 0.10357 H 8.3308637 v -0.10357 h 0.7246368 m -0.872522,0.23662 -0.5767509,-0.10465 -0.2366167,-0.0727 0.5915398,0.1093 0.2218278,0.0682 m 1.8337735,-0.17747 -0.2366149,0.0727 -0.5767522,0.10466 0.2218269,-0.0682 0.5915402,-0.1093 m -5.3830127,0.0739 c 0,0.24471 0.00243,0.4602 -0.073945,0.69506 h -0.014784 c 0,-0.21207 -0.046729,-0.51398 0.08873,-0.69506 m 0.2957695,0 c 0.073604,0.15765 0.2879476,0.38722 0.2895144,0.56196 0.00138,0.15366 -0.1209931,0.32374 -0.1564174,0.47324 -0.120067,-0.0784 -0.1954896,-0.3051 -0.2661778,-0.42888 -0.030193,-0.0528 -0.072445,-0.11381 -0.067538,-0.17745 0.010859,-0.14017 0.1203225,-0.29813 0.1710435,-0.42887 h 0.029576 m 1.0499844,1.04999 c -0.1753473,-0.0895 -0.3342205,-0.24963 -0.4880209,-0.37267 -0.048878,-0.039 -0.1472056,-0.0916 -0.1548645,-0.1603 -0.016544,-0.14847 0.1512556,-0.37608 0.1992299,-0.51702 0.1659716,0.0642 0.3193138,0.22985 0.4584437,0.34018 0.048699,0.0385 0.1285563,0.0831 0.1426049,0.14842 0.031523,0.14674 -0.1046235,0.4236 -0.1573931,0.56139 m 5.8710341,-1.04999 c 0.04798,0.14093 0.215777,0.36858 0.199229,0.51702 -0.0077,0.0687 -0.10599,0.12125 -0.154865,0.1603 -0.1538,0.12304 -0.312673,0.28315 -0.48802,0.37267 -0.05277,-0.13779 -0.188908,-0.41465 -0.157394,-0.56139 0.01405,-0.0654 0.09391,-0.10979 0.142605,-0.14842 0.139131,-0.11026 0.292473,-0.276 0.458445,-0.34018 m 0.635904,0 c 0.05073,0.13074 0.160249,0.2887 0.171044,0.42887 0.0049,0.0637 -0.03735,0.12463 -0.06754,0.17745 -0.07069,0.12378 -0.14611,0.35047 -0.266178,0.42888 -0.03542,-0.1495 -0.157808,-0.31958 -0.156419,-0.47324 0.0016,-0.17475 0.215913,-0.40429 0.289515,-0.56196 h 0.02958 m 0.280982,0 c 0.07513,0.23495 0.07395,0.45072 0.07395,0.69506 h -0.01478 c -0.06172,-0.18976 -0.140564,-0.50105 -0.05915,-0.69506 m -4.5992229,0.17746 v 0.0887 l -0.857733,-0.16267 0.014784,-0.074 0.8429448,0.14787 m 1.8929281,-0.14787 0.01478,0.074 -0.8577335,0.16267 v -0.0887 l 0.8429445,-0.14788 m -0.9464643,0.0591 v 0.0148 H 8.2717231 l 0.2661939,-0.0148 h 0.5767509 m -0.9612528,0.2514 -0.029576,0.65071 -0.7098487,-0.1272 -0.2274762,-0.0697 0.017477,-0.17282 0.091694,-0.44366 0.857733,0.16267 m 1.9372938,-0.16267 0.09169,0.44366 0.01748,0.17282 -0.2274774,0.0697 -0.7098475,0.1272 -0.029576,-0.65071 0.8577339,-0.16267 m -0.9612537,0.0148 v 0.0739 H 8.2569414 v -0.0739 h 0.8725212 m 0.014784,0.16267 0.044369,0.63591 h -0.99083 l 0.044361,-0.63591 H 9.144245 m -2.1886972,1.12393 -0.6654816,-0.27205 -0.2270934,-0.11832 0.028571,-0.15685 0.1393667,-0.41408 0.6063289,0.24725 0.2208367,0.11356 -0.010121,0.15686 -0.092426,0.44365 m 4.1999339,-0.96126 0.139368,0.41408 0.02857,0.15684 -0.227093,0.11833 -0.665483,0.27206 -0.09243,-0.44365 -0.01013,-0.15686 0.220837,-0.11356 0.606329,-0.24725 m -6.4625747,0.0444 c 0.095146,0.16135 0.280597,0.39075 0.3073349,0.57676 0.017696,0.12307 -0.05183,0.31622 -0.1002929,0.42887 h -0.014784 c -0.1865575,-0.28291 -0.4737201,-0.68635 -0.1922506,-1.00572 m 8.0153669,0 c 0.02654,0.06 0.07216,0.15475 0.04965,0.22127 -0.03627,0.10709 -0.280997,0.28924 -0.374993,0.35549 0.05096,-0.17324 0.196805,-0.44997 0.325347,-0.57676 m -6.8914403,1.10914 c -0.1894843,-0.0639 -0.3764992,-0.27161 -0.5323855,-0.39632 -0.052649,-0.0421 -0.1493644,-0.095 -0.1654388,-0.16569 -0.027022,-0.11881 0.1164557,-0.37798 0.1654388,-0.48797 l 0.4880201,0.36967 0.1658086,0.16279 -0.1214456,0.51752 m 6.2851117,-1.04998 c 0.04898,0.11003 0.192457,0.36921 0.165438,0.48797 -0.01607,0.0706 -0.112796,0.12355 -0.165438,0.16569 -0.155886,0.12471 -0.3429,0.33242 -0.532385,0.39632 l -0.121445,-0.51752 0.165808,-0.16279 0.488021,-0.36967 m -4.0224718,1.07957 -0.7837896,-0.14198 -0.2418963,-0.0715 0.018872,-0.17105 0.075145,-0.41408 0.724636,0.12406 0.2276985,0.0727 -0.00341,0.20255 -0.017298,0.39929 m 2.1591202,-0.79857 0.07514,0.41408 0.01887,0.17105 -0.241894,0.0714 -0.7837921,0.14198 -0.017298,-0.39929 -0.00341,-0.20255 0.2276984,-0.0727 0.7246367,-0.12405 m 2.898545,0.0296 c -0.03455,0.0564 -0.106123,0.0953 -0.133096,0.0148 l 0.133096,-0.0148 m 0.280982,0.11832 v 0.0296 c -0.130642,0.0445 -0.184117,0.0932 -0.295771,-0.0148 0.0964,-0.1132 0.181042,-0.0751 0.295771,-0.0148 m -0.724637,0 c 0.101306,0.15653 -0.122759,0.26812 -0.266193,0.29577 -0.01496,-0.14631 0.139426,-0.24702 0.266193,-0.29577 m 0.11831,0.0148 0.04436,0.0591 -0.04436,-0.0591 m -3.623181,0.0148 0.044369,0.62112 H 8.1532959 l 0.04436,-0.62112 h 0.99083 m 4.4513381,0.0296 v 0.0148 l -0.05915,-0.0148 h 0.05915 m -9.0949271,0 c 0.098171,0.16804 0.2843096,0.39993 0.318944,0.59155 0.019074,0.10552 -0.023105,0.23193 -0.023178,0.34012 -0.080936,-0.0458 -0.1177128,-0.15792 -0.162688,-0.23661 -0.1258355,-0.22018 -0.2486825,-0.43754 -0.1330824,-0.69506 m 8.7843685,0.11832 c 0.107454,-0.18934 0.264003,0.0199 0.08879,0.01 -0.02959,-0.002 -0.05918,-0.007 -0.08879,-0.01 m -7.3203066,-0.0444 c 0.2292515,0.0234 0.4830066,0.18573 0.6950597,0.2747 0.059737,0.0251 0.1979436,0.053 0.2276384,0.116 0.030923,0.0655 -0.015238,0.19157 -0.02673,0.26002 -0.00976,0.0583 -0.00976,0.2458 -0.061951,0.27903 -0.051732,0.0329 -0.1788662,-0.0488 -0.2276984,-0.0697 -0.1816617,-0.0779 -0.3641075,-0.15534 -0.5471753,-0.22993 -0.049583,-0.0203 -0.1621398,-0.0443 -0.180759,-0.10173 -0.043217,-0.13323 0.1027939,-0.38871 0.1216029,-0.52831 m 5.3682253,0 c 0.01881,0.1396 0.164818,0.39508 0.121603,0.52831 -0.01861,0.0574 -0.131174,0.0815 -0.18076,0.10173 -0.183067,0.0745 -0.365513,0.15198 -0.547175,0.22993 -0.0491,0.0211 -0.175659,0.10258 -0.227744,0.0697 -0.05464,-0.0344 -0.05189,-0.21925 -0.0619,-0.27903 -0.01147,-0.0684 -0.05764,-0.19448 -0.02673,-0.26002 0.02969,-0.0629 0.167908,-0.0909 0.227639,-0.116 0.212053,-0.0889 0.465808,-0.25126 0.695059,-0.2747 m -6.2851118,0.0296 c 0.1577345,0.12521 0.3158534,0.24993 0.4732327,0.37563 0.06393,0.051 0.1689431,0.10576 0.1980629,0.18639 0.040963,0.11344 -0.041976,0.3616 -0.079752,0.47318 -0.1805246,-0.10381 -0.3401365,-0.25782 -0.5028099,-0.38744 -0.062445,-0.0498 -0.1692098,-0.10417 -0.2060485,-0.17705 -0.043947,-0.087 0.058869,-0.3994 0.1173218,-0.47071 m 7.2167878,0 c -0.01548,0.15116 -0.139559,0.43815 -0.310559,0.3845 l -0.01478,0.0739 0.07395,0.0148 c -0.04824,0.23892 -0.279977,0.12431 -0.428866,0.0739 0.147485,-0.20023 0.463988,-0.42395 0.68027,-0.54717 m 1.390118,0 v 0.0297 h -0.08873 v -0.0297 h 0.08873 m -0.709847,0.0887 v 0.0297 c -0.150267,0.0877 -0.355648,0.2422 -0.502808,0.10356 0.143595,-0.16877 0.312316,-0.22201 0.502808,-0.13309 m 0.842944,-0.074 -0.04437,0.0444 0.04437,-0.0444 m -1.478849,0.13309 c -0.0033,0.13898 -0.09984,0.25042 -0.162675,0.36972 h -0.01478 c 0.0062,-0.1193 0.09297,-0.28611 0.177463,-0.36972 m 0.902097,0.074 c -0.179132,0.0491 -0.340491,0.17878 -0.532386,0.1331 v -0.0296 c 0.126279,-0.0525 0.419712,-0.26498 0.532386,-0.10356 m -0.990829,0.62111 h -0.02958 c -0.120031,-0.21674 0.07548,-0.35962 0.162673,-0.56195 0.250621,0.0704 -0.05583,0.43092 -0.133097,0.56195 m -4.1999329,-0.28098 -0.029576,0.59153 -1.0943497,-0.19224 0.073945,-0.57675 1.0499828,0.17746 m 2.3070068,-0.17746 0.07395,0.57675 -1.0943483,0.19224 -0.029576,-0.59153 1.0499833,-0.17746 m 2.395737,0.0591 c -0.01471,0.0826 -0.06176,0.14832 -0.09971,0.22182 -0.028,0.0542 -0.05403,0.10942 -0.08403,0.16267 -0.03419,0.0607 -0.203313,0.24692 -0.247678,0.0697 -0.01405,-0.0561 0.05873,-0.14225 0.08505,-0.18813 0.09582,-0.16715 0.130405,-0.32689 0.346361,-0.26621 m 0.266193,-0.0297 c -0.04372,0.24523 -0.170466,0.51235 -0.428866,0.54718 0.06057,-0.21027 0.196643,-0.51589 0.428866,-0.54718 m 0.103527,0 c -0.01671,0.11308 -0.05372,0.24044 -0.147886,0.31056 l 0.147886,-0.31056 m -8.1780401,0.14789 0.5028083,0.39929 0.1958448,0.19226 -0.018385,0.38449 c -0.124992,-0.0557 -0.2336729,-0.16624 -0.3401357,-0.25141 -0.1141996,-0.0914 -0.2956065,-0.18783 -0.3755244,-0.31114 -0.050613,-0.0781 -0.010859,-0.33641 0.035391,-0.41349 m 4.2738761,0.0148 0.029576,0.59153 H 8.1237073 l 0.029585,-0.59153 h 1.0795608 m -4.6435882,0.0148 c 0.1044767,0.12028 0.2000578,0.30789 0.2514041,0.45843 -0.095866,-0.0544 -0.2606176,-0.3466 -0.2514041,-0.45843 m 2.1886971,0.93168 c -0.2388486,-0.0927 -0.4730089,-0.1982 -0.7098478,-0.29595 -0.075413,-0.0311 -0.2350192,-0.0678 -0.280567,-0.13875 -0.061772,-0.0961 0.035878,-0.39664 0.073531,-0.49698 0.2437736,0.0945 0.4841606,0.19938 0.724636,0.30199 0.066006,0.0281 0.2121714,0.0586 0.2424274,0.13003 0.049972,0.1182 -0.034166,0.37302 -0.050175,0.49966 m 5.0133024,-0.84296 c -0.04702,0.10088 -0.23709,0.32693 -0.354926,0.33662 -0.127949,0.011 -0.255825,-0.0793 -0.3845,-0.0853 0.04252,0.13506 0.241304,0.0817 0.331203,0.16398 0.07202,0.066 -0.0575,0.32761 -0.09459,0.39798 l -0.414078,-0.0812 -0.266193,0.11087 c -0.01462,-0.11563 -0.107856,-0.4117 -0.04394,-0.51177 0.04875,-0.0764 0.229075,-0.11466 0.31013,-0.14956 0.185463,-0.0798 0.463147,-0.26054 0.665483,-0.2645 0.08187,-0.002 0.176144,0.0539 0.251405,0.0828 m 0.280981,-0.0296 c -0.01062,0.10393 -0.08473,0.25831 -0.177463,0.31055 0.03212,-0.11076 0.08847,-0.23484 0.177463,-0.31055 m -0.147886,0.0591 c -0.0359,0.11247 -0.117273,0.1635 -0.221827,0.20704 l 0.221827,-0.20704 m 0.20704,0.0887 c 0.02221,0.0401 0.06115,0.0858 0.06367,0.13311 0.0024,0.0466 -0.03233,0.0933 -0.0525,0.13309 -0.05566,0.10979 -0.121445,0.31175 -0.233009,0.36972 -0.01666,-0.061 -0.05905,-0.12794 -0.05428,-0.19226 0.01037,-0.13986 0.17403,-0.32521 0.246539,-0.44366 h 0.02958 m 0.887311,0.0444 c -0.04327,0.22315 -0.05587,0.45998 -0.280982,0.57676 0.02986,-0.20216 0.108905,-0.45901 0.280982,-0.57676 m -1.197869,0.10357 c -0.03446,0.26684 -0.17548,0.37649 -0.414079,0.48802 0.01195,-0.2623 0.168264,-0.41722 0.414079,-0.48802 m 0.635906,0.0887 c -0.03036,0.20252 -0.163931,0.4217 -0.251405,0.60632 l -0.221827,-0.10357 0.207038,-0.41407 0.09188,-0.12784 0.174313,0.039 m 0.325347,-0.0444 0.01478,0.0148 c -0.04597,0.14128 -0.09091,0.4587 -0.210365,0.5512 -0.06979,0.054 -0.193775,0.0611 -0.277654,0.0848 l -0.01478,-0.0148 c 0.05194,-0.15256 0.136483,-0.44587 0.257172,-0.55439 0.05616,-0.0505 0.159791,-0.0614 0.230848,-0.0815 m -4.776685,0.76902 -1.1387143,-0.20704 0.032034,-0.36972 0.036032,-0.13247 0.2424866,0.0232 0.6211171,0.11784 0.2214133,0.0594 0.00292,0.15397 -0.017298,0.35491 m 2.5140453,-0.20703 -1.1387158,0.20703 -0.017298,-0.35491 0.00292,-0.15397 0.2214134,-0.0594 0.6211174,-0.11784 0.242487,-0.0232 0.03603,0.13247 0.03203,0.36972 m -5.5752702,-0.45858 c 0.2778307,0.22396 0.6906812,0.42113 0.7394242,0.79858 -0.1304045,-0.0582 -0.24333,-0.17765 -0.3549239,-0.26615 -0.1044654,-0.0828 -0.237208,-0.16007 -0.3191517,-0.26646 -0.047515,-0.0617 -0.09223,-0.19083 -0.065349,-0.26597 m 1.8041968,0.93167 c -0.253164,-0.0435 -0.5181739,-0.20127 -0.7542132,-0.30198 -0.073702,-0.0315 -0.2210298,-0.062 -0.2657642,-0.13265 -0.055041,-0.087 0.014079,-0.30603 0.014354,-0.40831 0.2438183,0.025 0.5124071,0.20099 0.7394243,0.29281 0.07208,0.0292 0.2203485,0.0624 0.2657795,0.12864 0.064611,0.0942 4.882e-4,0.31292 4.136e-4,0.42149 m 2.5288329,-0.78379 0.014784,0.51761 H 8.0941042 l 0.014784,-0.51761 H 9.277179 m 2.15912,0.60633 c -0.07043,-0.25008 -0.06155,-0.30754 0.162675,-0.44648 0.04178,-0.0259 0.120226,-0.0978 0.173395,-0.0796 0.05828,0.0199 0.105526,0.17465 0.07737,0.22595 -0.05894,0.10734 -0.299289,0.26234 -0.413442,0.30021 m -0.07395,0.0296 c -0.124579,-0.006 -0.246288,-0.0373 -0.369699,-0.0528 -0.08747,-0.0109 -0.112405,0.0264 -0.04438,0.0823 l -0.310558,0.11832 c -7.4e-5,-0.10856 -0.0642,-0.32728 4.14e-4,-0.42149 0.102025,-0.14877 0.51989,-0.13983 0.641939,-0.026 0.05877,0.0547 0.07187,0.22237 0.08229,0.29965 m 0.769002,-0.17746 v 0.0296 l -0.414078,0.35492 H 11.7025 l -0.20704,-0.17746 c 0.115249,-0.0717 0.3063,-0.29897 0.443655,-0.30029 0.06599,-5.5e-4 0.139722,0.0586 0.19225,0.0933 m -4.125991,0.13311 v 0.44365 l -1.1682908,-0.20704 0.014784,-0.44364 1.1535033,0.20703 m 2.5288335,-0.20703 0.01478,0.44364 -1.1682929,0.20704 v -0.44365 l 1.1535039,-0.20703 m 1.952081,0.0444 c -0.140935,0.20004 -0.345296,0.34959 -0.591539,0.36971 0.149481,-0.19547 0.354924,-0.32088 0.591539,-0.36971 m -5.7083596,0.72462 -0.6950588,-0.2872 -0.2870597,-0.13423 -0.067871,-0.27362 0.7394242,0.29593 0.2682928,0.13627 0.042268,0.26285 m 2.5140438,-0.54716 0.014784,0.44365 H 8.0793046 l 0.014784,-0.44365 h 1.1978671 m 2.2478523,0.22181 c -0.110333,-0.0139 -0.228674,-0.0438 -0.339898,-0.0422 -0.137519,0.002 0.0036,0.0757 0.05892,0.0865 v 0.0148 l -0.650693,0.2662 c 2.22e-4,-0.0789 -0.0075,-0.21421 0.05078,-0.2748 0.09796,-0.10198 0.293966,-0.0799 0.363294,-0.21322 0.168574,0.0215 0.401686,0.0228 0.517598,0.16267 m -5.6196299,0.0444 c 0.2287487,0.0888 0.4548649,0.18816 0.6802707,0.28514 0.097695,0.0421 0.2092422,0.0671 0.2514057,0.17332 -0.2469543,-0.0587 -0.4899737,-0.19878 -0.7246368,-0.29561 -0.072907,-0.0302 -0.2090654,-0.0671 -0.2070396,-0.16285 m 2.0999672,0.53239 -0.8281566,-0.15639 -0.3107354,-0.0764 -0.04419,-0.27006 0.857733,0.15692 0.2953552,0.0736 0.029998,0.27226 m 2.5288335,-0.50281 -0.04456,0.27008 -0.310366,0.0764 -0.8281567,0.15639 0.029998,-0.27226 0.295357,-0.0736 0.8577327,-0.15693 m 0.916887,0 -0.280982,0.1649 -0.650694,0.26398 c 0.03906,-0.0984 0.130834,-0.12137 0.221827,-0.16045 0.208858,-0.0897 0.481471,-0.26306 0.709849,-0.26843 m -2.1591219,0.22184 -0.014784,0.28097 h -1.197868 l -0.014784,-0.28097 h 1.2274451 m -2.3661587,0.14788 c 0.2638997,0.0834 0.5565056,0.10576 0.828155,0.15971 0.1120035,0.0223 0.2615195,0.009 0.2661932,0.15085 -0.2876508,-0.0372 -0.5719742,-0.10929 -0.857733,-0.15897 -0.083338,-0.0145 -0.2653636,-0.0267 -0.2366152,-0.15159 m 3.5196615,0 c -0.0328,0.13751 -0.163205,0.13486 -0.28098,0.15691 -0.2748741,0.0515 -0.5508287,0.11784 -0.8281574,0.15365 0.00462,-0.14259 0.1541703,-0.12858 0.2661931,-0.15085 0.2797849,-0.0556 0.5659723,-0.0915 0.8429443,-0.15971 m -1.18308,0.22183 c -0.02154,0.13405 -0.1425611,0.10356 -0.2514041,0.10356 H 8.3455083 c -0.1066242,0 -0.2157486,0.0262 -0.2366159,-0.10356 z"
       id="path539" />
  </g>
</svg>
