<svg width="64" height="64" version="1.1" viewBox="0 0 16.933 16.933" xmlns="http://www.w3.org/2000/svg">
 <rect transform="matrix(0,-1,-1,0,0,0)" x="-15.61" y="-15.61" width="14.287" height="14.287" rx="7.144" ry="7.144" fill="#268bcf"/>
 <rect transform="matrix(0,-1,-1,0,0,0)" x="-14.28" y="-14.288" width="11.642" height="11.642" rx="5.821" ry="5.821" opacity=".15"/>
 <path d="m12.974 9.18c-5e-3 -0.664-0.32-1.282-0.63-1.849-0.18-0.327-0.358-0.66-0.557-0.976-0.076-0.12-0.14-0.262-0.237-0.367-0.795-0.863-2.132-1.086-3.249-1.037-0.41094 0.022216-0.81554 0.11104-1.198 0.263-0.182 0.076-0.362 0.159-0.547 0.23-0.054 0.022-0.118 0.076-0.177 0.078-0.137 5e-3 -0.37-0.188-0.488-0.255-0.25426-0.14409-0.52184-0.26331-0.799-0.356-0.098-0.033-0.221-0.091-0.325-0.091-0.095 0-0.205 0.045-0.296 0.071-0.15 0.043-0.291 0.072-0.388 0.207-0.145 0.203-0.14 0.476-0.106 0.71 0.064 0.454 0.239 0.91 0.48 1.301 0.101 0.164 0.336 0.387 0.37 0.577 0.012 0.068-0.052 0.162-0.08 0.222-0.075 0.165-0.141 0.33-0.197 0.503-0.115 0.36-0.138 0.719-0.138 1.094 0 0.155-0.017 0.321 0.02 0.473 0.241 0.97 0.949 1.606 1.784 2.09 0.336 0.196 0.684 0.407 1.065 0.516 0.478 0.137 0.986 0.174 1.479 0.174 0.469 0 1.025-0.04 1.464-0.222 0.237-0.097 0.502-0.181 0.724-0.308 0.22-0.125 0.42-0.304 0.651-0.411 0.17-0.08 0.41-0.054 0.592-0.13 0.121-0.052 0.232-0.182 0.325-0.274 0.14-0.139 0.299-0.263 0.424-0.414 0.214-0.26 0.112-0.694 0.298-0.976 0.088-0.131 0.348-0.158 0.49-0.184 0.068-0.012 0.148-0.01 0.193-0.071 0.103-0.138-0.019-0.276-0.133-0.355-0.23-0.158-0.536-0.268-0.814-0.233m-7.911-4.2v0.014c-0.1 0.042-0.32 6e-3 -0.385-0.088 0.13257-0.009056 0.26523 0.016441 0.385 0.074m-0.178 0.088c-0.096 0.205-0.296 0.067-0.458 0.03 0.096-0.205 0.299-0.067 0.458-0.03m-0.517-0.059-0.134 0.074 0.134-0.074m1.36 0.281v0.015c-0.186 0.082-0.473-0.127-0.636-0.222 0.15-0.123 0.496 0.125 0.636 0.207m-0.207 0.089c-0.12 0.251-0.495-0.062-0.665-0.133 0.171-0.243 0.457 0.046 0.665 0.133m-1.227-0.222v0.104l-0.178 0.03c4e-3 -0.111 0.08-0.126 0.178-0.134m0.443 0.118c-0.04 0.183-0.391 0.044-0.355-0.118l0.355 0.118m3.786-0.044v0.015l-0.296 0.015v-0.03h0.296m0.636 0v0.03l-0.296-0.015 0.296-0.015m-1.02 0.015v0.044l-0.932 0.222c0.036-0.103 0.139-0.122 0.237-0.142 0.227-0.046 0.463-0.106 0.695-0.124m2.04 0.266-0.931-0.222v-0.044c0.231 0.018 0.467 0.078 0.695 0.124 0.097 0.02 0.2 0.04 0.236 0.142m-4.835 0.06-0.045 0.103c-0.14-0.051-0.552-0.193-0.488-0.37l0.533 0.266m3.401-0.266-0.044 0.133h-0.015l-0.045-0.133h0.104m-0.148 0.118-0.103-0.103c0.071 6e-3 0.092 0.034 0.103 0.103m0.296-0.103-0.104 0.103c0.011-0.069 0.032-0.098 0.104-0.103m-4.54 0.103c-0.079 0-0.139 5e-3 -0.192-0.059 0.08-0.02 0.159-0.03 0.192 0.06m1.937 0.177v0.03c-0.133 0.079-0.5-0.127-0.577-0.252 0.21-0.048 0.396 0.127 0.577 0.222m2.189-0.148-0.133-0.06v-0.029c0.065 2e-3 0.096 0.037 0.133 0.089m0.562-0.089v0.03l-0.119 0.044 0.119-0.074m-0.873 0c-0.123 0.154-0.367 0.283-0.517 0.089l0.517-0.089m1.568 0.089c-0.15 0.194-0.394 0.065-0.518-0.089l0.518 0.089m-5.013 0.06c-0.097-0.024-0.218-0.056-0.281-0.134 0.095 0.014 0.233 0.043 0.28 0.133m-0.62-0.089c0.048 0.069 0.039 0.115 0.014 0.193-0.102-0.023-0.066-0.13-0.015-0.193m4.215 0.06-0.103-0.03c0.044-0.027 0.075-0.013 0.103 0.03m0.858-0.045v0.015l-0.104 0.03 0.104-0.045m-3.047 0.281c-0.12 0.255-0.494-0.06-0.65-0.162 0.172-0.226 0.46 0.062 0.65 0.162m1.553-0.148v0.03c-0.236 0.097-0.426 0.227-0.68 0.118 0.085-0.082 0.412-0.239 0.532-0.227 0.054 6e-3 0.104 0.052 0.148 0.08m2.707 0.132v0.015c-0.254 0.11-0.445-0.021-0.68-0.118v-0.03c0.222-0.137 0.458 0.028 0.68 0.133m-3.254-0.207c-0.072 0.135-0.327 0.22-0.473 0.222 0.037-0.107 0.364-0.21 0.473-0.222m3.86 0.385c-0.162-0.039-0.292-0.139-0.444-0.2-0.108-0.045-0.238-0.076-0.296-0.185 0.234 0.024 0.593 0.203 0.74 0.385m-6.64-0.34c-0.012 0.1-0.075 0.103-0.163 0.103 0.011-0.11 0.063-0.122 0.163-0.103m3.83-0.015v0.015h-0.06l0.06-0.015m1.08 0v0.015h-0.06l0.06-0.015m-4.393 0.015 0.414 0.236-0.325-0.154-0.089-0.082m-0.31 0.015v0.014l-0.133 0.03 0.133-0.044m0.118 0.251-0.015-0.222c0.15 0.017 0.127 0.163 0.015 0.222m3.268-0.192-0.03 0.059h-0.014l-0.03-0.06h0.074m1.568 0-0.03 0.06h-0.014l-0.03-0.06h0.074m-3.594 0.282c-0.082 0.16-0.294-0.029-0.399-0.089-0.04-0.023-0.11-0.048-0.131-0.093-0.067-0.139 0.175-0.023 0.205-6e-3l0.133 0.076c0.065 0.037 0.13 0.07 0.192 0.112m2.248-0.267v0.015l-0.088 0.015 0.088-0.03m1.139 0.03-0.089-0.015 0.089 0.015m-4.732-0.015c0.038 0.161 0.016 0.25-0.148 0.296-0.054-0.169-0.03-0.254 0.148-0.296m0.31 0.015 0.843 0.458-0.262 0.474-0.137 0.177c-0.15755-0.25546-0.28506-0.52827-0.38-0.813-0.027-0.085-0.098-0.209-0.064-0.296m3.017 0.207c-0.2 0.117-0.35 0.076-0.547-0.03v-0.03c0.206-0.069 0.481-0.274 0.547 0.06m2.13-0.06v0.03c-0.198 0.106-0.347 0.147-0.548 0.03 0.066-0.334 0.342-0.129 0.548-0.06m-5.975-0.117h0.015l0.044 0.31c-0.067-0.043-0.087-0.238-0.059-0.31m4.17 0.015c-0.03 0.044-0.065 0.052-0.118 0.044l0.118-0.044m0.947 0 0.103 0.044c-0.034 9e-3 -0.122 7e-3 -0.103-0.044m-4.97 0.295-0.029-0.266c0.188 0 0.23 0.257 0.03 0.266m2.928-0.162c-0.178 0.24-0.367 0.248-0.636 0.236 0.074-0.09 0.279-0.293 0.4-0.303 0.074-6e-3 0.166 0.044 0.236 0.067m1.227-0.074-0.162 0.088c0.019-0.064 0.102-0.079 0.162-0.088m0.829 0.088-0.163-0.088c0.06 0.01 0.144 0.024 0.163 0.088m1.7 0.222c-0.269 0.011-0.458 5e-3 -0.636-0.236 0.07-0.023 0.162-0.074 0.237-0.067 0.12 0.01 0.326 0.212 0.4 0.303m-2.396-0.296c-0.035 0.081-0.081 0.158-0.178 0.133l0.178-0.133m0.414 0 0.162 0.133c-0.084834 0.020751-0.16583-0.04575-0.162-0.133m-0.858 0.014-0.06 0.104 0.06-0.104m0.562 0-0.044 0.178h-0.09l0.104-0.178h0.03m0.089 0 0.044 0.193h-0.104l0.06-0.193m0.088 0 0.119 0.178h-0.09l-0.029-0.178m0.562 0 0.045 0.104-0.045-0.104m-3.579 0.267-0.399-0.222c0.094-0.022 0.35 0.141 0.4 0.222m-0.962-0.222c0.016 0.049 0.03 0.098 0.045 0.148 9e-3 0.029 0.02 0.058 0.024 0.088 7e-3 0.043-0.02 0.167-0.09 0.121-0.11-0.074-0.114-0.322 0.021-0.357m2.78 0.177c-0.176 0.219-0.406 0.15-0.65 0.104 0.059-0.077 0.207-0.227 0.31-0.23 0.103-4e-3 0.249 0.083 0.34 0.126m0.548 0.015c-0.169-0.085 0.095-0.199 0 0m1.109 0c-0.095-0.199 0.168-0.085 0 0m1.198 0.089c-0.245 0.045-0.474 0.115-0.651-0.104 0.092-0.043 0.237-0.13 0.34-0.127 0.103 4e-3 0.252 0.154 0.31 0.23m-5.826-0.177c0.022337 0.047534 0.040085 0.097092 0.053 0.148 0.02 0.069 0.03 0.346-0.133 0.25-0.05-0.03-0.116-0.265-0.082-0.314 0.03-0.042 0.115-0.064 0.162-0.084m3.446 0.163-0.266-0.089c0.112-0.113 0.194-0.015 0.266 0.089m1.523-0.104v0.015l-0.266 0.089c0.078-0.113 0.135-0.178 0.266-0.104m-1.272 0.133c-0.232-0.093 0.099-0.234 0 0m0.754 0c-0.098-0.234 0.233-0.093 0 0m-2.706-0.148c-0.034 0.059-0.08 0.096-0.148 0.09l0.148-0.09m4.673 0c0.084 0.033 0.132 0.06 0.163 0.148-0.054-0.024-0.165-0.082-0.163-0.148m-2.484 0.074-0.015 0.119-0.133-0.015 0.015-0.118 0.133 0.014m0.414-0.014 0.015 0.118-0.134 0.015-0.014-0.119 0.133-0.014m-4.733 0.03c0.036-6e-3 0.09-0.024 0.123 0 0.048 0.036 0.113 0.263 0.09 0.319-0.05 0.12-0.135-0.014-0.153-0.068l-0.035-0.104c-0.015718-0.047798-0.024146-0.097691-0.025-0.148m3.772 0.089c-0.075 0.147-0.355 0.045-0.488 0.044 0.112-0.222 0.313-0.1 0.488-0.044m0.754 0.03h-0.133c0-0.162 0.132-0.162 0.133 0m1.109 0.014c-0.134 0-0.414 0.103-0.488-0.044 0.175-0.057 0.375-0.178 0.488 0.044m-5.753-0.118c0.08 0.074 0.15 0.291 0.133 0.4h-0.015c-0.044-0.1-0.14-0.293-0.118-0.4m2.041 0.03 0.015 0.015v0.03l-0.104 0.029 0.089-0.074m0.606 0.06c-0.102 0.28-0.27 0.31-0.547 0.31 0.03-0.084 0.113-0.294 0.198-0.331 0.087-0.04 0.255 0.016 0.35 0.02m4.406 0.31c-0.276 0-0.445-0.03-0.547-0.31 0.094-4e-3 0.263-0.06 0.35-0.02 0.085 0.038 0.167 0.247 0.197 0.33m0.148-0.325c0.09432 0.083977 0.16558 0.1907 0.207 0.31-0.11911-0.059294-0.19788-0.17726-0.207-0.31m-5.043 0.03c-0.033912 0.13912-0.11176 0.26361-0.222 0.355 0.027-0.116 0.116-0.297 0.222-0.355m1.05 0.06c-0.047 0.264-0.4 0.191-0.606 0.191 0.021-0.074 0.066-0.195 0.136-0.236 0.107-0.061 0.351 0.035 0.47 0.044m3.342 0.192c-0.206 0-0.558 0.073-0.606-0.192 0.12-0.01 0.364-0.106 0.47-0.044 0.07 0.04 0.115 0.162 0.136 0.236m0.459-0.251c0.093 0.08 0.18 0.236 0.207 0.355-0.08-0.058-0.232-0.25-0.207-0.355m-2.913 0.03v0.014h-0.134l0.134-0.014m1.094 0v0.014h-0.133l0.133-0.014m-4.363 0.014 0.163 0.415-0.133 0.044c-0.039-0.135-0.253-0.405-0.03-0.458m1.065 0.03 0.015 0.014c-0.027 0.091-0.072 0.157-0.163 0.192 0.033-0.08 0.068-0.166 0.148-0.207m1.863 0.06c-0.068 0.13-0.398 0.086-0.532 0.103 0.067-0.228 0.347-0.148 0.532-0.104m0.873-0.059v0.015h-0.104l0.104-0.015m1.301 0.163c-0.134-0.017-0.463 0.027-0.532-0.104 0.184-0.044 0.466-0.123 0.532 0.104m-1.937-0.104v0.015l-0.163 0.03 0.163-0.045m1.331 0.045-0.163-0.03c0.06-0.025 0.118-0.017 0.163 0.03m-4.703 0.473c-0.027124-0.064528-0.055463-0.12854-0.085-0.192-0.024-0.052-0.076-0.131-0.07-0.19 7e-3 -0.055 0.114-0.116 0.164-0.09 0.048 0.026 0.069 0.115 0.089 0.161 0.065 0.153 0.105 0.263-0.098 0.31m3.964-0.487-0.015 0.015 0.015-0.015m-0.562 0.059v0.015l-0.237 0.088c0.029-0.091 0.152-0.1 0.237-0.103m0.34 0-0.03 0.118v-0.118h0.03m0.458 0v0.118l-0.03-0.118h0.03m0.547 0.044v0.06l-0.236-0.09 0.236 0.03m-0.887-0.014-0.044 0.118v-0.118h0.044m0.237 0v0.118l-0.045-0.118h0.045m-0.119 0.014v0.119h-0.044v-0.119h0.044m-4.14 0.503c-0.033543-0.05713-0.063598-0.11624-0.09-0.177-0.017342-0.040118-0.035681-0.079796-0.055-0.119-0.022-0.045-0.058-0.245 0.063-0.165 0.112 0.073 0.232 0.402 0.082 0.461m3.253-0.488c-0.011 0.142-0.395 0.182-0.518 0.192l0.016-0.139 0.132-0.026 0.37-0.027m0.4 0-0.252 0.192c-0.103-0.104 0.175-0.171 0.251-0.192m0.947 0c0.086 0.033 0.307 0.074 0.251 0.192h-0.015l-0.236-0.192m0.902 0.192c-0.122-0.01-0.506-0.05-0.518-0.192l0.37 0.027 0.133 0.026 0.015 0.14m-2.854-0.148v0.177l-0.547 0.118v-0.28l0.547-0.015m3.49 0.014v0.281l-0.547-0.118v-0.177l0.547 0.014m-2.381 0.015c-0.068 0.096-0.186 0.264-0.31 0.192v-0.03c0.087-0.057 0.203-0.162 0.31-0.162m1.035 0.163v0.03c-0.125 0.071-0.243-0.097-0.31-0.193 0.107 0 0.222 0.105 0.31 0.163m-2.78-0.163c0 0.071 0.027 0.214-0.015 0.274-0.056 0.078-0.293 0.1-0.384 0.125l-0.015-0.354 0.414-0.045m4.629 0.045-0.015 0.354c-0.091-0.025-0.328-0.047-0.384-0.125-0.043-0.06-0.015-0.203-0.015-0.274l0.414 0.045m-6.921-0.03 0.177 0.355c-0.07-0.046-0.2-0.273-0.177-0.355m1.597 0.015-0.074 0.222c-0.036-0.085-9e-3 -0.181 0.074-0.222m5.62 0c0.073 0.06 0.073 0.132 0.073 0.222h-0.014l-0.06-0.222m-5.412 0.03c0 0.149 0.051 0.377-0.118 0.443 0-0.165-0.054-0.363 0.118-0.444m2.336 0c-0.025 0.142-0.094 0.3-0.251 0.237 0.044-0.094 0.15-0.208 0.251-0.237m0.77 0.237c-0.157 0.062-0.227-0.095-0.252-0.237 0.102 0.03 0.207 0.143 0.251 0.237m2.1-0.237c0.15 0.101 0.104 0.278 0.104 0.444-0.144-0.056-0.158-0.313-0.104-0.444m-3.416 0.074v0.015l-0.34 0.167-0.127 0.034-0.095-0.142c0.127-0.054 0.45-0.173 0.562-0.074m2.174 0.074-0.094 0.142-0.128-0.034-0.34-0.167c0.086-0.125 0.443 7e-3 0.562 0.06m-1.479-0.104-0.044 0.28-0.148-0.014c0.018-0.097 0.083-0.258 0.192-0.266m0.414 0.266-0.147 0.015-0.045-0.281c0.11 9e-3 0.175 0.169 0.192 0.266m-0.221 0.03h-0.163c6e-3 -0.046 0.017-0.28 0.086-0.268 0.065 0.011 0.07 0.216 0.077 0.267m-3.564 0.104h-0.03l-0.148-0.28c0.193-0.109 0.262 0.141 0.178 0.28m2.81-0.177c-0.175 0.108-0.381 0.388-0.533 0.088 0.126-0.043 0.47-0.298 0.532-0.088m1.878 0.088c-0.151 0.3-0.358 0.02-0.532-0.088 0.062-0.21 0.407 0.045 0.532 0.088m-4.421-0.177-0.025 0.414-0.197 0.384h-0.015l0.01-0.458 0.197-0.34h0.03m1.863 0.177-0.503 0.193-0.133-0.267c0.201-0.068 0.57-0.211 0.636 0.074m3.342-0.074-0.133 0.267-0.503-0.193c0.066-0.285 0.435-0.142 0.636-0.074m1.243-0.103c0.228 0.239 0.221 0.491 0.221 0.798h-0.014c-0.117-0.22-0.318-0.535-0.207-0.798m-6.877 0.547h-0.03c-0.049-0.106-0.22-0.28-0.213-0.397 4e-3 -0.055 0.112-0.117 0.161-0.09 0.187 0.103 0.172 0.34 0.082 0.487m0.843-0.444 0.015 0.281c-0.103-0.066-0.101-0.202-0.015-0.28m5.62 0c0.058 0.094 0.077 0.212-0.03 0.28l0.03-0.28m-3.254 0.058c-0.026 0.08-0.145 0.322-0.238 0.333-0.073 7e-3 -0.187-0.063-0.25-0.096v-0.03c0.164-0.121 0.276-0.289 0.488-0.207m1.36 0.207v0.03c-0.062 0.033-0.177 0.104-0.25 0.096-0.093-0.01-0.212-0.252-0.237-0.333 0.212-0.081 0.324 0.086 0.488 0.207m-3.224 0.222-0.193-0.355c0.09-0.038 0.316-0.133 0.41-0.094 0.042 0.018 0.062 0.071 0.083 0.109 0.022 0.04 0.07 0.097 0.057 0.145-0.021 0.085-0.28 0.173-0.357 0.195m4.791-0.355-0.192 0.355c-0.078-0.022-0.336-0.11-0.358-0.195-0.012-0.048 0.036-0.106 0.058-0.145 0.02-0.038 0.04-0.091 0.083-0.11 0.094-0.038 0.32 0.057 0.41 0.095m-6.449-0.044c0.032 0.067 0.072 0.129 0.11 0.192l0.07 0.118c0.018 0.03 0.111 0.27-0.012 0.196-0.09-0.053-0.158-0.227-0.213-0.314-0.02-0.032-0.06-0.076-0.057-0.117 5e-3 -0.05 0.063-0.066 0.102-0.075m3.771 0.03c0 0.077-7e-3 0.308-0.081 0.353-0.061 0.037-0.236-0.027-0.303-0.043 0.075-0.197 0.175-0.327 0.384-0.31m0.755 0.31c-0.067 0.017-0.242 0.08-0.303 0.043-0.074-0.046-0.081-0.276-0.082-0.354 0.21-0.016 0.31 0.114 0.385 0.311m-2.337-0.074v-0.03c0.142-0.075 0.568-0.326 0.646-0.043 0.017 0.065-0.102 0.125-0.143 0.157-0.053 0.04-0.123 0.12-0.192 0.126-0.098 0.01-0.237-0.155-0.311-0.21m1.937 0.133h-0.34c0.011-0.085 0.022-0.265 0.077-0.331 0.031-0.038 0.155-0.038 0.187 0 0.055 0.066 0.065 0.246 0.076 0.331m1.597-0.163v0.03c-0.074 0.055-0.213 0.219-0.31 0.21-0.07-6e-3 -0.14-0.086-0.192-0.126-0.041-0.032-0.16-0.092-0.143-0.157 0.078-0.283 0.504-0.032 0.645 0.044m-4.791-0.148 0.251 0.443c-0.092-0.05-0.269-0.337-0.251-0.443m0.473 0c0.074 0.171 0.263 0.33 0.06 0.473-0.09-0.136-0.322-0.412-0.06-0.473m5.043 0.473c-0.203-0.144-0.015-0.302 0.06-0.473 0.261 0.061 0.03 0.337-0.06 0.473m0.532-0.473c1e-3 0.118-0.147 0.386-0.25 0.443l0.25-0.443m-7.142 0.044 0.059 0.104-0.06-0.104m1.036 0.045c0.065 0.123 0.245 0.332 0.222 0.473h-0.03c-0.081-0.138-0.22-0.312-0.237-0.473h0.045m6.211 0c-0.017 0.16-0.155 0.335-0.237 0.473h-0.03c-0.022-0.141 0.157-0.35 0.223-0.473h0.044m-1.745 0.37c-0.106 0.04-0.316 0.182-0.428 0.162-0.096-0.017-0.22-0.253-0.238-0.34 0.084-0.029 0.192-0.107 0.281-0.104 0.112 4e-3 0.32 0.196 0.385 0.281m-2.1-0.177c-0.017 0.087-0.141 0.323-0.237 0.34-0.113 0.02-0.322-0.121-0.429-0.163 0.069-0.088 0.268-0.272 0.385-0.277 0.091-5e-3 0.196 0.07 0.281 0.1m-2.011-0.089 0.03 0.074-0.03-0.074m0.503 0.178c0.083-0.05 0.256-0.174 0.354-0.164 0.065 7e-3 0.13 0.08 0.178 0.12 0.038 0.03 0.13 0.077 0.13 0.133 0 0.053-0.08 0.1-0.115 0.129-0.04 0.033-0.093 0.095-0.148 0.093-0.11-2e-3 -0.337-0.226-0.4-0.311m4.452 0c-0.063 0.085-0.29 0.308-0.4 0.311-0.055 2e-3 -0.108-0.06-0.147-0.093-0.036-0.03-0.116-0.076-0.116-0.13 0-0.055 0.093-0.103 0.13-0.133 0.05-0.038 0.113-0.112 0.178-0.119 0.099-0.01 0.271 0.115 0.355 0.164m0.517-0.178-0.044 0.074 0.044-0.074m-5.915 0.015c0.073 0.123 0.22 0.301 0.239 0.444 0.019 0.138-0.155 0.413-0.224 0.532h-0.03c-0.066-0.154-0.216-0.307-0.248-0.473-0.023-0.117 0.18-0.425 0.263-0.503m6.36 0c0.071 0.11 0.259 0.356 0.25 0.488-0.01 0.162-0.187 0.34-0.25 0.488h-0.03c-0.074-0.126-0.226-0.37-0.226-0.518 1e-3 -0.12 0.171-0.375 0.255-0.458m-6.729 0.044-9e-3 0.459-0.183 0.384h-0.015c0-0.302-0.029-0.61 0.207-0.843m7.099 0 0.183 0.34 0.01 0.503h-0.016c-0.105-0.253-0.298-0.554-0.177-0.843m-6.24 0.045 0.058 0.103-0.059-0.103m5.383 0-0.074 0.103 0.045-0.103h0.03m-2.973 0.089c-4e-3 0.073-0.018 0.31-0.083 0.353-0.036 0.023-0.101-2e-3 -0.14-0.01-0.117-0.02-0.235-0.048-0.354-0.063 0.03-0.09 0.142-0.297 0.238-0.327 0.093-0.029 0.245 0.028 0.339 0.046m1.124 0.28c-0.12 0.016-0.237 0.043-0.355 0.064-0.038 6e-3 -0.104 0.032-0.14 0.01-0.065-0.043-0.079-0.28-0.082-0.353 0.094-0.018 0.245-0.075 0.339-0.046 0.096 0.03 0.208 0.237 0.238 0.327m-0.592 0.088h-0.518c4e-3 -0.076 0.018-0.291 0.083-0.34 0.045-0.033 0.144-0.015 0.198-0.015 0.047 0 0.129-0.015 0.164 0.024 0.057 0.063 0.07 0.249 0.073 0.331m-2.558-0.308c0.087-4e-3 0.344 0.223 0.39 0.296 0.029 0.048-0.01 0.132-0.068 0.139-0.043 5e-3 -0.084-0.034-0.115-0.059-0.085-0.066-0.25-0.152-0.3-0.248-0.027-0.052 0.04-0.125 0.093-0.128m4.599 0c0.053 2e-3 0.12 0.076 0.092 0.128-0.05 0.096-0.215 0.182-0.3 0.248-0.03 0.025-0.071 0.063-0.115 0.059-0.058-6e-3 -0.096-0.091-0.067-0.139 0.045-0.073 0.302-0.3 0.39-0.296m-5.013 0.072c0.148 0.076 0.426 0.264 0.502 0.414l-0.37-0.276-0.132-0.14m1.73 0.193v0.015l-0.182 0.242-0.173-0.046-0.4-0.166c0.056-0.079 0.182-0.215 0.282-0.231 0.124-0.02 0.37 0.121 0.473 0.186m2.72 0.045-0.398 0.166-0.173 0.046-0.182-0.242c0.073-0.08 0.378-0.23 0.488-0.198 0.096 0.029 0.21 0.148 0.266 0.228m0.99-0.237c-0.108 0.148-0.349 0.34-0.517 0.414 0.071-0.14 0.369-0.364 0.518-0.414m-5.502 0.074c0.124 0.108 0.257 0.205 0.385 0.308 0.06 0.047 0.125 0.082 0.118 0.165-0.156-0.04-0.302-0.211-0.429-0.309-0.059-0.045-0.143-0.094-0.074-0.164m5.576 0c0.014 0.084-0.042 0.117-0.104 0.164-0.126 0.098-0.273 0.269-0.429 0.31-7e-3 -0.083 0.059-0.119 0.119-0.166 0.127-0.103 0.262-0.244 0.414-0.308m-5.31 1.153c-0.162-0.068-0.304-0.225-0.443-0.333-0.048-0.038-0.138-0.086-0.144-0.155-0.014-0.143 0.163-0.384 0.218-0.517 0.156 0.037 0.304 0.208 0.429 0.305 0.045 0.036 0.114 0.076 0.12 0.139 0.014 0.153-0.117 0.422-0.18 0.561m2.145-0.902-0.07 0.266-0.182-9e-3 -0.458-0.08c0.07-0.362 0.447-0.289 0.71-0.177m1.434 0.177-0.458 0.08-0.181 0.01-0.07-0.267c0.263-0.111 0.64-0.184 0.71 0.178m1.804-0.281c0.055 0.133 0.231 0.374 0.218 0.517-6e-3 0.069-0.096 0.117-0.144 0.155-0.14 0.108-0.281 0.265-0.444 0.333-0.062-0.14-0.194-0.408-0.18-0.561 7e-3 -0.063 0.075-0.104 0.12-0.139 0.126-0.097 0.274-0.268 0.43-0.305m-6.7 0.044-7e-3 0.474-0.14 0.354h-0.015c0-0.288-0.036-0.589 0.162-0.828m7.66 0 0.143 0.326 6e-3 0.502h-0.015c-0.093-0.24-0.244-0.565-0.133-0.828m-7.247 1.02c-0.117-0.066-0.191-0.282-0.255-0.399-0.028-0.05-0.07-0.102-0.063-0.162 0.018-0.152 0.157-0.304 0.215-0.444l0.152 0.207 0.14 0.281-0.189 0.518m6.921-1.006c0.059 0.14 0.197 0.292 0.215 0.444 7e-3 0.06-0.035 0.113-0.062 0.162-0.064 0.117-0.138 0.333-0.256 0.4l-0.188-0.518 0.14-0.28 0.151-0.208m-4.717 0.251-0.063 0.122-0.174-0.05-0.443-0.19c0.09-0.233 0.516 0.055 0.68 0.118m3.09-0.118-0.443 0.19-0.174 0.05-0.063-0.122c0.165-0.063 0.59-0.35 0.68-0.118m-1.537 0.207h-0.695c0.013-0.071 0.018-0.219 0.07-0.272 0.03-0.03 0.083-0.024 0.122-0.024 0.094 0 0.364-0.045 0.433 0.024 0.052 0.053 0.056 0.2 0.07 0.272m-1.76 0.133c-0.17 4e-3 -0.39-0.142-0.547-0.207-0.063-0.026-0.14-0.045-0.178-0.103 0.198 0.035 0.576 0.176 0.725 0.31m3.55-0.31c-0.04 0.058-0.116 0.077-0.178 0.103-0.157 0.065-0.378 0.211-0.548 0.207 0.15-0.135 0.527-0.275 0.725-0.31m-4.348 0.162 0.03-0.073c0.196 0.066 0.386 0.157 0.577 0.238 0.039 0.017 0.172 0.048 0.151 0.112-0.02 0.062-0.148-0.015-0.181-0.03-0.19-0.081-0.393-0.149-0.577-0.246m4.392-0.074 0.03 0.074c-0.183 0.097-0.386 0.165-0.577 0.247-0.033 0.014-0.16 0.09-0.18 0.03-0.022-0.065 0.112-0.096 0.15-0.113 0.191-0.08 0.382-0.172 0.577-0.238m-2.632 0.28-0.71-0.133 0.061-0.103 0.486 0.082 0.154 0.039 0.01 0.115m1.611-0.133-0.71 0.133 0.01-0.115 0.153-0.039 0.486-0.082 0.061 0.103m-2.75 0.947c-0.209-0.021-0.444-0.167-0.636-0.25-0.055-0.023-0.175-0.047-0.198-0.108-0.02-0.052 0.019-0.126 0.035-0.175 0.045-0.136 0.08-0.286 0.148-0.414l0.562 0.23 0.183 0.102-0.018 0.186-0.077 0.429m3.83-0.947c0.068 0.128 0.103 0.278 0.149 0.414 0.016 0.05 0.054 0.122 0.034 0.175-0.023 0.06-0.142 0.085-0.197 0.109-0.192 0.082-0.428 0.228-0.636 0.249l-0.077-0.429-0.018-0.186 0.184-0.101 0.562-0.23m-1.878 0.03v0.103h-0.726v-0.104h0.725m-0.873 0.237-0.577-0.105-0.236-0.073 0.591 0.11 0.222 0.068m1.834-0.178-0.237 0.073-0.577 0.105 0.222-0.068 0.592-0.11m-5.383 0.074c0 0.245 2e-3 0.46-0.074 0.695h-0.015c0-0.212-0.047-0.514 0.089-0.695m0.296 0c0.073 0.158 0.287 0.387 0.289 0.562 1e-3 0.154-0.121 0.324-0.156 0.473-0.12-0.078-0.196-0.305-0.267-0.429-0.03-0.052-0.072-0.113-0.067-0.177 0.01-0.14 0.12-0.298 0.17-0.429h0.03m1.05 1.05c-0.175-0.09-0.334-0.25-0.488-0.373-0.048-0.039-0.147-0.091-0.154-0.16-0.017-0.148 0.15-0.376 0.199-0.517 0.166 0.064 0.32 0.23 0.458 0.34 0.049 0.039 0.129 0.083 0.143 0.149 0.031 0.146-0.105 0.423-0.158 0.561m5.872-1.05c0.048 0.141 0.215 0.369 0.199 0.517-8e-3 0.069-0.106 0.121-0.155 0.16-0.154 0.123-0.313 0.284-0.488 0.373-0.053-0.138-0.189-0.415-0.158-0.561 0.015-0.066 0.094-0.11 0.143-0.149 0.14-0.11 0.293-0.276 0.459-0.34m0.635 0c0.051 0.13 0.16 0.289 0.171 0.429 5e-3 0.064-0.037 0.125-0.067 0.177-0.07 0.124-0.146 0.35-0.266 0.43-0.036-0.15-0.158-0.32-0.157-0.474 2e-3 -0.175 0.216-0.404 0.29-0.562h0.03m0.28 0c0.076 0.235 0.074 0.45 0.074 0.695h-0.014c-0.062-0.19-0.141-0.5-0.06-0.695m-4.599 0.178v0.088l-0.858-0.162 0.015-0.074 0.843 0.147m1.893-0.147 0.015 0.074-0.858 0.162v-0.088l0.843-0.148m-0.946 0.059v0.015h-0.843l0.266-0.015h0.577m-0.962 0.251-0.03 0.65-0.709-0.126-0.227-0.07 0.017-0.173 0.092-0.443 0.857 0.162m1.938-0.162 0.091 0.443 0.018 0.173-0.228 0.07-0.71 0.127-0.029-0.65 0.858-0.163m-0.962 0.014v0.074h-0.872v-0.074h0.872m0.015 0.163 0.045 0.636h-0.991l0.044-0.636h0.902m-2.188 1.124-0.666-0.272-0.227-0.118 0.029-0.157 0.139-0.414 0.606 0.247 0.221 0.113-0.01 0.157-0.092 0.444m4.2-0.961 0.139 0.414 0.028 0.157-0.227 0.118-0.665 0.272-0.093-0.444-0.01-0.156 0.221-0.114 0.606-0.247m-6.462 0.044c0.095 0.161 0.28 0.39 0.307 0.577 0.018 0.123-0.052 0.316-0.1 0.429h-0.015c-0.186-0.283-0.474-0.687-0.192-1.006m8.015 0c0.027 0.06 0.072 0.155 0.05 0.221-0.036 0.107-0.281 0.29-0.375 0.356 0.05-0.173 0.197-0.45 0.325-0.577m-6.891 1.11c-0.19-0.065-0.377-0.272-0.533-0.397-0.052-0.042-0.149-0.095-0.165-0.166-0.027-0.119 0.116-0.378 0.165-0.488l0.488 0.37 0.166 0.163-0.121 0.517m6.285-1.05c0.049 0.11 0.192 0.37 0.165 0.488-0.016 0.07-0.112 0.124-0.165 0.166-0.156 0.125-0.343 0.332-0.532 0.396l-0.122-0.517 0.166-0.163 0.488-0.37m-4.023 1.08-0.783-0.142-0.242-0.072 0.019-0.17 0.075-0.415 0.724 0.124 0.228 0.073-3e-3 0.202-0.018 0.4m2.16-0.799 0.075 0.414 0.019 0.171-0.242 0.072-0.784 0.142-0.017-0.4-4e-3 -0.202 0.228-0.073 0.724-0.124m2.899 0.03c-0.035 0.056-0.106 0.095-0.133 0.014l0.133-0.014m0.281 0.118v0.03c-0.13 0.044-0.184 0.093-0.296-0.015 0.097-0.113 0.181-0.075 0.296-0.015m-0.725 0c0.102 0.157-0.122 0.268-0.266 0.296-0.015-0.147 0.14-0.247 0.266-0.296m0.119 0.015 0.044 0.059-0.044-0.06m-3.624 0.016 0.045 0.62h-1.08l0.045-0.62h0.99m4.452 0.03v0.014l-0.06-0.015h0.06m-9.095 0c0.098 0.168 0.284 0.4 0.319 0.592 0.019 0.105-0.023 0.232-0.023 0.34-0.081-0.046-0.118-0.158-0.163-0.237-0.126-0.22-0.249-0.437-0.133-0.695m8.784 0.119c0.108-0.19 0.264 0.02 0.09 0.01-0.03-2e-3 -0.06-7e-3 -0.09-0.01m-7.32-0.045c0.23 0.024 0.483 0.186 0.695 0.275 0.06 0.025 0.198 0.053 0.228 0.116 0.03 0.065-0.016 0.191-0.027 0.26-0.01 0.058-0.01 0.246-0.062 0.279s-0.179-0.049-0.228-0.07c-0.18163-0.078322-0.36397-0.15499-0.547-0.23-0.05-0.02-0.162-0.044-0.18-0.101-0.044-0.134 0.102-0.39 0.12-0.529m5.37 0c0.018 0.14 0.164 0.395 0.12 0.529-0.018 0.057-0.13 0.081-0.18 0.101-0.18302 0.07503-0.36536 0.1517-0.547 0.23-0.05 0.021-0.176 0.103-0.228 0.07-0.055-0.035-0.052-0.22-0.062-0.28-0.011-0.068-0.057-0.194-0.027-0.26 0.03-0.062 0.168-0.09 0.228-0.115 0.212-0.09 0.466-0.251 0.695-0.275m-6.285 0.03 0.473 0.375c0.064 0.051 0.17 0.106 0.198 0.187 0.041 0.113-0.042 0.361-0.08 0.473-0.18-0.104-0.34-0.258-0.502-0.388-0.063-0.05-0.17-0.104-0.206-0.177-0.044-0.087 0.059-0.399 0.117-0.47m7.217 0c-0.016 0.15-0.14 0.438-0.31 0.384l-0.015 0.074 0.073 0.015c-0.048 0.239-0.28 0.124-0.428 0.074 0.147-0.2 0.464-0.424 0.68-0.547m1.39 0v0.03h-0.089v-0.03h0.089m-0.71 0.088v0.03c-0.15 0.088-0.356 0.242-0.503 0.104 0.144-0.17 0.313-0.222 0.503-0.133m0.843-0.074-0.044 0.044 0.044-0.044m-1.479 0.133c-3e-3 0.139-0.1 0.25-0.162 0.37h-0.015c0.01874-0.13884 0.08066-0.26828 0.177-0.37m0.902 0.074c-0.179 0.049-0.34 0.178-0.532 0.133v-0.03c0.126-0.052 0.42-0.265 0.532-0.103m-0.99 0.62h-0.03c-0.12-0.216 0.075-0.359 0.163-0.561 0.25 0.07-0.056 0.43-0.134 0.562m-4.2-0.281-0.029 0.591-1.094-0.192 0.074-0.577 1.05 0.178m2.307-0.178 0.074 0.577-1.095 0.192-0.03-0.591 1.05-0.178m2.396 0.06c-0.014 0.082-0.061 0.148-0.1 0.221-0.027 0.054-0.053 0.11-0.083 0.163-0.035 0.06-0.204 0.247-0.248 0.07-0.014-0.057 0.059-0.143 0.085-0.189 0.096-0.167 0.13-0.327 0.346-0.266m0.267-0.03c-0.044 0.246-0.171 0.513-0.43 0.548 0.061-0.21 0.197-0.516 0.43-0.548m0.103 0c-0.017 0.114-0.054 0.24-0.148 0.311l0.148-0.31m-8.178 0.147 0.503 0.4 0.196 0.192-0.019 0.384c-0.125-0.055-0.233-0.166-0.34-0.251-0.114-0.091-0.295-0.188-0.375-0.311-0.051-0.078-0.011-0.337 0.035-0.414m4.274 0.015 0.03 0.592h-1.14l0.03-0.592h1.08m-4.644 0.015c0.105 0.12 0.2 0.308 0.252 0.458-0.096-0.054-0.26-0.346-0.252-0.458m2.189 0.932c-0.239-0.093-0.473-0.199-0.71-0.296-0.075-0.031-0.235-0.068-0.28-0.14-0.062-0.095 0.035-0.396 0.073-0.496 0.244 0.094 0.484 0.2 0.725 0.302 0.066 0.028 0.212 0.059 0.242 0.13 0.05 0.118-0.034 0.373-0.05 0.5m5.013-0.843c-0.047 0.1-0.237 0.327-0.355 0.336-0.128 0.011-0.255-0.079-0.384-0.085 0.042 0.135 0.241 0.082 0.331 0.164 0.072 0.066-0.057 0.328-0.095 0.398l-0.414-0.081-0.266 0.11c-0.014-0.115-0.108-0.411-0.044-0.511 0.049-0.077 0.23-0.115 0.31-0.15 0.186-0.08 0.464-0.26 0.666-0.264 0.082-2e-3 0.176 0.054 0.251 0.083m0.281-0.03c-0.01 0.104-0.084 0.258-0.177 0.31 0.02896-0.11781 0.09027-0.22518 0.177-0.31m-0.148 0.06c-0.036 0.112-0.117 0.163-0.221 0.206l0.221-0.207m0.207 0.089c0.023 0.04 0.062 0.086 0.064 0.133s-0.032 0.093-0.052 0.133c-0.056 0.11-0.122 0.312-0.233 0.37-0.017-0.061-0.06-0.128-0.055-0.193 0.01-0.14 0.174-0.325 0.247-0.443h0.03m0.887 0.044c-0.044 0.223-0.056 0.46-0.281 0.577 0.03-0.202 0.109-0.46 0.28-0.577m-1.197 0.104c-0.035 0.267-0.176 0.376-0.414 0.488 0.012-0.263 0.168-0.417 0.414-0.488m0.636 0.088c-0.03 0.203-0.164 0.422-0.252 0.607l-0.221-0.104 0.207-0.414 0.091-0.128 0.175 0.04m0.325-0.045 0.015 0.015c-0.046 0.141-0.091 0.458-0.21 0.55-0.07 0.055-0.194 0.062-0.278 0.086l-0.015-0.015c0.052-0.153 0.137-0.446 0.257-0.554 0.056-0.051 0.16-0.062 0.231-0.082m-4.777 0.769-1.138-0.207 0.032-0.37 0.036-0.132 0.242 0.023 0.621 0.118 0.222 0.06 3e-3 0.153-0.018 0.355m2.514-0.207-1.138 0.207-0.018-0.355 3e-3 -0.154 0.222-0.06 0.62-0.117 0.243-0.023 0.036 0.132 0.032 0.37m-5.575-0.459c0.278 0.224 0.69 0.422 0.74 0.799-0.13-0.058-0.244-0.178-0.355-0.266-0.105-0.083-0.238-0.16-0.32-0.267-0.047-0.061-0.092-0.19-0.065-0.266m1.804 0.932c-0.253-0.043-0.518-0.201-0.754-0.302-0.074-0.031-0.22-0.062-0.266-0.133-0.055-0.087 0.014-0.306 0.015-0.408 0.244 0.025 0.512 0.201 0.74 0.293 0.071 0.03 0.22 0.062 0.265 0.129 0.065 0.094 0 0.313 0 0.421m2.53-0.784 0.014 0.518h-1.197l0.015-0.518h1.168m2.16 0.607c-0.071-0.25-0.062-0.308 0.162-0.447 0.042-0.026 0.12-0.098 0.173-0.08 0.059 0.02 0.106 0.175 0.078 0.226-0.06 0.108-0.3 0.263-0.414 0.3m-0.074 0.03c-0.124-6e-3 -0.246-0.037-0.37-0.052-0.087-0.011-0.112 0.026-0.044 0.082l-0.31 0.118c0-0.108-0.064-0.327 0-0.421 0.102-0.15 0.52-0.14 0.642-0.026 0.059 0.054 0.072 0.222 0.082 0.3m0.77-0.178v0.03l-0.415 0.354h-0.014l-0.208-0.177c0.116-0.072 0.307-0.3 0.444-0.3 0.066-1e-3 0.14 0.058 0.192 0.093m-4.126 0.133v0.444l-1.168-0.207 0.015-0.444 1.153 0.207m2.53-0.207 0.014 0.444-1.168 0.207v-0.444l1.153-0.207m1.952 0.044c-0.14 0.2-0.345 0.35-0.591 0.37 0.14517-0.19141 0.35541-0.32303 0.591-0.37m-5.708 0.725-0.695-0.287-0.287-0.134-0.068-0.274 0.74 0.296 0.268 0.136 0.042 0.263m2.514-0.547 0.015 0.443h-1.228l0.015-0.443h1.198m2.248 0.222c-0.11-0.014-0.229-0.044-0.34-0.043-0.138 2e-3 4e-3 0.076 0.059 0.087v0.015l-0.65 0.266c0-0.079-8e-3 -0.214 0.05-0.275 0.098-0.102 0.294-0.08 0.363-0.213 0.169 0.021 0.402 0.023 0.518 0.163m-5.62 0.044c0.229 0.089 0.455 0.188 0.68 0.285 0.098 0.042 0.21 0.067 0.252 0.173-0.247-0.058-0.49-0.198-0.725-0.295-0.073-0.03-0.209-0.067-0.207-0.163m2.1 0.532-0.828-0.156-0.31-0.076-0.045-0.27 0.858 0.156 0.295 0.074 0.03 0.272m2.529-0.502-0.045 0.27-0.31 0.076-0.828 0.156 0.03-0.272 0.295-0.073 0.858-0.157m0.917 0-0.281 0.164-0.65 0.264c0.038-0.098 0.13-0.12 0.221-0.16 0.209-0.09 0.481-0.263 0.71-0.268m-2.16 0.221-0.014 0.281h-1.198l-0.015-0.28h1.228m-2.366 0.147c0.264 0.084 0.556 0.106 0.828 0.16 0.112 0.022 0.261 9e-3 0.266 0.15-0.288-0.036-0.572-0.108-0.858-0.158-0.083-0.015-0.265-0.027-0.236-0.152m3.52 0c-0.034 0.138-0.164 0.135-0.282 0.157-0.275 0.052-0.55 0.118-0.828 0.154 5e-3 -0.143 0.154-0.129 0.266-0.151 0.28-0.056 0.566-0.091 0.843-0.16m-1.183 0.222c-0.021 0.134-0.142 0.104-0.251 0.104h-0.68c-0.107 0-0.216 0.026-0.237-0.104z" fill="#ffffff"/>
</svg>
