<svg xmlns="http://www.w3.org/2000/svg" width="64" height="64" viewBox="0 0 16.933 16.933"><circle cx="8.466" cy="8.466" r="7.144" fill="#f4782e" style="paint-order:stroke fill markers"/><path fill="#fff" d="M4.548 11.56q0-.365.253-.613a.84.84 0 0 1 .617-.253q.357 0 .604.253.253.248.253.614a.83.83 0 0 1-.253.609.82.82 0 0 1-.604.248.85.85 0 0 1-.617-.248.82.82 0 0 1-.253-.61m-.05-3.912v1.441a3.34 3.34 0 0 1 3.337 3.343h1.447a4.786 4.786 0 0 0-4.784-4.784M4.5 4.495v1.593a6.34 6.34 0 0 1 6.336 6.342h1.6A7.94 7.94 0 0 0 4.5 4.495" font-family="Bitstream Vera Serif" font-size="13.59" font-weight="700" overflow="visible"/></svg>