<?xml version="1.0" encoding="UTF-8" standalone="no"?>
<svg
   inkscape:version="1.2.2 (b0a8486541, 2022-12-01)"
   sodipodi:docname="io.elementary.code.svg"
   id="svg12"
   version="1.1"
   viewBox="0 0 16.933 16.933"
   height="64"
   width="64"
   xmlns:inkscape="http://www.inkscape.org/namespaces/inkscape"
   xmlns:sodipodi="http://sodipodi.sourceforge.net/DTD/sodipodi-0.dtd"
   xmlns="http://www.w3.org/2000/svg"
   xmlns:svg="http://www.w3.org/2000/svg">
  <defs
     id="defs16">
    <linearGradient
       id="linearGradient1229"
       inkscape:swatch="solid">
      <stop
         style="stop-color:#000000;stop-opacity:1;"
         offset="0"
         id="stop1227" />
    </linearGradient>
    <rect
       x="4.4382802"
       y="5.592233"
       width="31.334258"
       height="14.401861"
       id="rect2126" />
    <rect
       x="4.4382801"
       y="5.5922332"
       width="31.334257"
       height="14.401861"
       id="rect2126-3" />
  </defs>
  <sodipodi:namedview
     id="namedview14"
     pagecolor="#505050"
     bordercolor="#eeeeee"
     borderopacity="1"
     inkscape:showpageshadow="0"
     inkscape:pageopacity="0"
     inkscape:pagecheckerboard="0"
     inkscape:deskcolor="#505050"
     showgrid="false"
     inkscape:zoom="11.265625"
     inkscape:cx="29.692094"
     inkscape:cy="32.754508"
     inkscape:window-width="1920"
     inkscape:window-height="972"
     inkscape:window-x="0"
     inkscape:window-y="0"
     inkscape:window-maximized="1"
     inkscape:current-layer="svg12" />
  <circle
     cx="8.466"
     cy="8.466"
     r="7.144"
     fill="#32a3d7"
     style="paint-order:stroke fill markers;fill:#e68900;fill-opacity:1"
     id="circle2" />
  <g
     fill-rule="evenodd"
     id="g10">
    <path
       d="M5.895 2.38a6.614 6.614 0 0 0-.556.265h6.264a6.614 6.614 0 0 0-.548-.265zM3.969 3.624a6.614 6.614 0 0 0-.342.346h.077v1.057h-.877a6.614 6.614 0 0 0-.163.265h1.04V6.35H2.206a6.614 6.614 0 0 0-.085.265h1.583v1.058H1.905a6.614 6.614 0 0 0-.027.265h1.826v1.058H1.876a6.614 6.614 0 0 0 .032.264h1.796v1.06H2.121a6.614 6.614 0 0 0 .088.263h1.495v1.06H2.672a6.614 6.614 0 0 0 .151.263h.881v1.059h-.079a6.614 6.614 0 0 0 .344.34v-.076h9.086a6.614 6.614 0 0 0 .25-.264H3.968v-1.059h10.137a6.614 6.614 0 0 0 .163-.264h-10.3v-1.059h10.757a6.614 6.614 0 0 0 .086-.264H3.969V9.26h11.059a6.614 6.614 0 0 0 .027-.264H3.969V7.938h11.088a6.614 6.614 0 0 0-.032-.265H3.97V6.615h10.844a6.614 6.614 0 0 0-.089-.265H3.97V5.29h10.292a6.614 6.614 0 0 0-.152-.265H3.969V3.968h9.34a6.614 6.614 0 0 0-.264-.265H3.969v-.079zM5.33 14.288a6.614 6.614 0 0 0 .545.264h5.166a6.614 6.614 0 0 0 .553-.264H5.33z"
       fill="#fff"
       fill-opacity=".3"
       id="path4" />
  </g>
  <g
     aria-label="{"
     transform="matrix(-0.31582349,0,0,0.31582349,14.389509,7.6142579)"
     id="text3526"
     style="white-space:pre;shape-inside:url(#rect2126-3);display:inline;fill:#ffffff;stroke:#e68900;stroke-width:1.67548098;stroke-dasharray:none;stroke-opacity:1;paint-order:markers stroke fill">
    <path
       d="m 8.6135,18.406299 q -0.732,-0.012 -1.272,-0.216 -0.528,-0.204 -0.816,-0.636 -0.288,-0.42 -0.288,-1.056 v -1.764 q 0,-0.408 -0.168,-0.648 -0.168,-0.252 -0.492,-0.36 -0.324,-0.12 -0.804,-0.12 v -0.876 q 0.48,-0.012 0.804,-0.12 0.324,-0.108 0.492,-0.348 0.168,-0.252 0.168,-0.648 V 9.8382991 q 0,-0.636 0.3,-1.056 0.3,-0.42 0.84,-0.624 0.54,-0.216 1.236,-0.216 v 0.864 q -0.408,0.012 -0.708,0.132 -0.3,0.12 -0.468,0.36 -0.156,0.24 -0.156,0.636 v 1.7279999 q 0,0.612 -0.324,0.984 -0.324,0.36 -0.984,0.48 v 0.072 q 0.672,0.12 0.984,0.492 0.324,0.36 0.324,0.972 v 1.764 q 0,0.384 0.156,0.624 0.156,0.252 0.456,0.36 0.3,0.12 0.72,0.132 z"
       id="path1031"
       style="stroke-width:1.67548098;stroke-dasharray:none;stroke:#e68900;stroke-opacity:1;paint-order:markers stroke fill" />
  </g>
  <g
     aria-label="{"
     transform="matrix(0.31582349,0,0,0.31582349,3.3165659,0.99650058)"
     id="text5907"
     style="white-space:pre;shape-inside:url(#rect2126);display:inline;fill:#ffffff;stroke:#e68900;stroke-width:1.67548098;stroke-opacity:1;stroke-dasharray:none;paint-order:markers stroke fill">
    <path
       d="m 8.6135,18.406299 q -0.732,-0.012 -1.272,-0.216 -0.528,-0.204 -0.816,-0.636 -0.288,-0.42 -0.288,-1.056 v -1.764 q 0,-0.408 -0.168,-0.648 -0.168,-0.252 -0.492,-0.36 -0.324,-0.12 -0.804,-0.12 v -0.876 q 0.48,-0.012 0.804,-0.12 0.324,-0.108 0.492,-0.348 0.168,-0.252 0.168,-0.648 V 9.8382991 q 0,-0.636 0.3,-1.056 0.3,-0.42 0.84,-0.624 0.54,-0.216 1.236,-0.216 v 0.864 q -0.408,0.012 -0.708,0.132 -0.3,0.12 -0.468,0.36 -0.156,0.24 -0.156,0.636 v 1.7279999 q 0,0.612 -0.324,0.984 -0.324,0.36 -0.984,0.48 v 0.072 q 0.672,0.12 0.984,0.492 0.324,0.36 0.324,0.972 v 1.764 q 0,0.384 0.156,0.624 0.156,0.252 0.456,0.36 0.3,0.12 0.72,0.132 z"
       id="path1028"
       style="stroke:#e68900;stroke-opacity:1;stroke-width:1.67548098;stroke-dasharray:none;paint-order:markers stroke fill" />
  </g>
</svg>
