<svg xmlns="http://www.w3.org/2000/svg" width="64" height="64"><path fill="#d2d1ce" fill-rule="evenodd" d="M32 5a27 27 0 0 0-21 10.113v33.773a27 27 0 0 0 21 10.113 27 27 0 0 0 27-27 27 27 0 0 0-27-27z" style="paint-order:stroke fill markers"/><path fill="#848385" d="M11 14.998C7.247 19.634 5 25.544 5 32s2.247 12.366 6 17.002z"/><path fill="#5f5d65" d="M9.55 37.315h2.25v5.251H9.55zm0-14.756h2.25v5.251H9.55z"/><path fill="#3d3846" d="M32 24.864a7.137 7.137 0 1 0 0 14.274 7.137 7.137 0 0 0 0-14.274"/><g fill="#ababab" stroke-linecap="round" color="#000"><path d="m45.515 18.505-27.03 26.99m25.351-28.673-27.031 26.99a2.377 2.377 0 0 0-.002 3.361 2.377 2.377 0 0 0 3.361.004l27.031-26.99a2.377 2.377 0 0 0 .002-3.361 2.377 2.377 0 0 0-3.361-.004m-25.351 1.683 27.03 26.99" style="-inkscape-stroke:none"/><path d="M18.482 16.129a2.38 2.38 0 0 0-1.68.697 2.377 2.377 0 0 0 .002 3.362l27.031 26.99a2.377 2.377 0 0 0 3.362-.004 2.377 2.377 0 0 0-.002-3.362l-27.031-26.99a2.38 2.38 0 0 0-1.682-.693" style="-inkscape-stroke:none"/></g><path fill="#f6f5f4" d="M32 26.846c-2.848 0-5.154 2.307-5.154 5.154s2.306 5.154 5.154 5.154 5.154-2.307 5.154-5.154-2.306-5.154-5.154-5.154"/><path fill="#a8a8a5" d="M10.675 36.19c-.621 0-1.125.169-1.125.375v5.251h2.25v-5.25c0-.208-.504-.376-1.125-.376"/><path fill="#5f5d65" d="M10.675 41.441c-.621 0-1.125.169-1.125.375 0 .207.504.375 1.125.375q.194 0 .375-.022v-.353h.75c0-.206-.504-.375-1.125-.375m0-3.001c-.621 0-1.125.169-1.125.375v.75c0-.206.504-.375 1.125-.375s1.125.169 1.125.375v-.75c0-.206-.504-.375-1.125-.375m.45 1.093"/><path fill="#a8a8a5" d="M10.675 21.434c-.621 0-1.125.169-1.125.375v5.251h2.25v-5.25c0-.207-.504-.376-1.125-.376"/><path fill="#5f5d65" d="M10.675 26.685c-.621 0-1.125.169-1.125.375 0 .207.504.375 1.125.375q.194 0 .375-.022v-.353h.75c0-.207-.504-.375-1.125-.375m0-3.001c-.621 0-1.125.169-1.125.375v.75c0-.206.504-.375 1.125-.375s1.125.169 1.125.375v-.75c0-.207-.504-.375-1.125-.375m.45 1.093"/></svg>