<svg width="64" height="64" version="1.0" xmlns="http://www.w3.org/2000/svg"><rect x="5" y="5" width="54" height="54" rx="27" ry="27" fill="#f13758"/><rect x="9" y="9" width="46" height="46" rx="23" ry="23" fill="#f0f0f0" opacity=".25"/><path d="M18 18v5.5a.5.5 0 0 0 .5.5.5.5 0 0 0 .5-.5V19h4.5a.5.5 0 0 0 .5-.5.5.5 0 0 0-.5-.5zm22.5 0a.5.5 0 0 0-.5.5.5.5 0 0 0 .5.5H45v4.5a.5.5 0 0 0 .5.5.5.5 0 0 0 .5-.5V18zm5 22a.5.5 0 0 0-.5.5V45h-4.5a.5.5 0 0 0-.5.5.5.5 0 0 0 .5.5H46v-5.5a.5.5 0 0 0-.5-.5zm-27 0a.5.5 0 0 0-.5.5V46h5.5a.5.5 0 0 0 .5-.5.5.5 0 0 0-.5-.5H19v-4.5a.5.5 0 0 0-.5-.5z" color="#000" fill="#fff" style="-inkscape-stroke:none"/><path d="M30 27c-1.108 0-2 .892-2 2v6c0 1.108.892 2 2 2h8c1.108 0 2-.892 2-2v-6c0-1.108-.892-2-2-2zm-2 5-3-4h-1v8h1zm5.94-4a4 4 0 0 1 .06 0 4 4 0 0 1 4 4 4 4 0 0 1-4 4 4 4 0 0 1-4-4 4 4 0 0 1 3.94-4zm.011 2A2 2 0 0 0 32 32a2 2 0 0 0 2 2 2 2 0 0 0 2-2 2 2 0 0 0-2-2 2 2 0 0 0-.049 0z" fill="#fff"/></svg>