<?xml version="1.0" encoding="UTF-8"?>
<svg id="svg2" width="64" height="64" version="1.1" viewBox="0 0 16.933 16.933" xmlns="http://www.w3.org/2000/svg"><circle id="circle1" cx="8.466" cy="8.466" r="7.144" fill="#45171e" style="paint-order:stroke fill markers"/><path id="path8" d="m4.1112 7.0032c0 1.1319 0.9177 1.8788 2.0496 1.8788v-1.1956h1.0248c0.18881 0 0.34159 0.15278 0.34159 0.34159s-0.15278 0.34159-0.34159 0.34159h-0.51239v0.51239h4.0991v-1.8788z" fill="#c0bfbc" stroke-width=".085398"/><path id="path10" d="m12.023 7.0262-6.2124-3.5867c-0.51239 0.88734 0.36895 2.7768 1.7003 3.5454l3.4019 1.9642z" fill="#deddda" stroke-width=".085398"/><path id="path11" d="m6.6124 4.0997 2.3665 1.3664c-0.042699 0.074056-0.23318 0.062381-0.38129-0.023018l-1.775-1.0248c-0.14778-0.085398-0.25286-0.24452-0.21016-0.31858z" fill="#77767b" stroke-width=".085398"/><path id="path13" d="m11.102 6.0248c-0.23184 0.062381-0.443 0.18414-0.61246 0.35394l-4.7823 4.7823c-0.53374 0.5334-0.53374 1.3987 0 1.9321 0.53341 0.53374 1.3987 0.53374 1.9321 0l4.7823-4.7823c0.53374-0.53341 0.53374-1.3987 0-1.9321-0.34493-0.34526-0.84831-0.48003-1.3197-0.35394z" fill="#e01b24" stroke-width=".085398"/><path id="path14" d="m6.5023 11.273 1.0248 1.0248" fill="none" stroke="#fff" stroke-width=".25619"/><path id="path15" d="m6.8439 10.932 1.0248 1.0248" fill="none" stroke="#fff" stroke-width=".25619"/><path id="path16" d="m7.8687 11.273-1.0248 1.0248" fill="none" stroke="#fff" stroke-width=".25619"/><path id="path17" d="m7.5271 10.932-1.0248 1.0248" fill="none" stroke="#fff" stroke-width=".25619"/></svg>
