<svg xmlns="http://www.w3.org/2000/svg" width="64" height="64" data-name="Layer 1" viewBox="0 0 64 64"><defs><style>.cls-1{fill:#fee75c}.cls-2{fill:#fff}.cls-3{fill:#5865f2}</style></defs><g transform="matrix(.12 0 0 .12 5 5)"><circle cx="225" cy="225" r="225" class="cls-3"/><path fill="none" stroke="#fff" stroke-miterlimit="10" stroke-width="25" d="M225 299.8v114"/><path d="m188.8 97.4 12.3-.6c5-.2 9.6 0 6.8-6.5a1309 1309 0 0 1-17-38.6c-1.3-3.5-1.8-3.9-5.4-3.9l-21.9-.2-3 .3-1.1.2a2 2 0 0 0-1.6.8c-.3.6-.5 1.3-.3 2A28 28 0 0 0 159 55c3 7.9 6.2 15.6 9 23.5l-8.5.1-9.2.3c-1.4 0-3 .3-3.6 2-.7 1.6.1 3 1.1 4.1l2 2.4 10 11.6c10.4 11.9 20.3 24.6 32.2 35.2l4.5 4.2c.8.8 1.8 1.5 2.8 1.5a3 3 0 0 0 1.6-.5c1.7-1.2 1.3-2.8.8-4.2l-2.8-7.6c-2.4-6.8-5-13.8-7.3-20.7-1-3-1.8-6.4-2.7-9.6z" class="cls-1"/><path d="M231.5 309h-13a54.2 54.2 0 0 1-54.2-54.1v-54.2h121.4v54.1a54.2 54.2 0 0 1-54.2 54.2" class="cls-2"/><rect width="26" height="70.5" x="186.4" y="141" class="cls-2" rx="13" ry="13"/><rect width="26" height="70.5" x="238.8" y="142.7" class="cls-2" rx="13" ry="13"/><path d="m259.9 108-7.4 20.7-2.7 7.6c-.5 1.4-1 3 .8 4.2.4.3 1 .5 1.5.5 1.1 0 2-.7 2.8-1.5l4.6-4.2c11.8-10.6 21.7-23.3 32.1-35.2l10-11.6 2-2.4c1-1.2 1.9-2.5 1.2-4.2-.7-1.6-2.2-1.9-3.7-2-3 0-6 0-9.1-.2-3 0-5.7-.2-8.6-.1 2.9-8 6-15.6 9-23.5a28 28 0 0 0 1.3-4.3c.2-.6.1-1.3-.2-1.9a2 2 0 0 0-1.6-.8l-1.2-.2-3-.3-21.9.2c-3.6 0-4 .4-5.3 3.9-5.4 12.8-11.2 25.9-17 38.6-2.9 6.4 1.8 6.2 6.8 6.5l12.3.6c-1 3.2-1.7 6.5-2.7 9.6" class="cls-1"/><path d="M450 225a225 225 0 1 1-450 0 225 225 0 0 1 450 0M225 40.6a186.6 186.6 0 1 0 0 373.2 186.6 186.6 0 0 0 0-373.2" class="cls-3"/><circle cx="225" cy="227.2" r="186.6" fill="none" stroke="#fff" stroke-miterlimit="10" stroke-width="14"/></g></svg>