<?xml version="1.0" encoding="UTF-8" standalone="no"?>
<svg
   width="64"
   height="64"
   viewBox="0 0 16.933 16.933"
   version="1.1"
   id="svg122"
   sodipodi:docname="distributor-logo-ubuntu.svg"
   xml:space="preserve"
   inkscape:version="1.2.2 (b0a8486541, 2022-12-01)"
   xmlns:inkscape="http://www.inkscape.org/namespaces/inkscape"
   xmlns:sodipodi="http://sodipodi.sourceforge.net/DTD/sodipodi-0.dtd"
   xmlns="http://www.w3.org/2000/svg"
   xmlns:svg="http://www.w3.org/2000/svg"><defs
     id="defs126" /><sodipodi:namedview
     id="namedview124"
     pagecolor="#ffffff"
     bordercolor="#000000"
     borderopacity="0.25"
     inkscape:showpageshadow="2"
     inkscape:pageopacity="0.0"
     inkscape:pagecheckerboard="0"
     inkscape:deskcolor="#d1d1d1"
     showgrid="false"
     inkscape:zoom="6.328125"
     inkscape:cx="55.703704"
     inkscape:cy="23.071605"
     inkscape:window-width="1920"
     inkscape:window-height="964"
     inkscape:window-x="0"
     inkscape:window-y="32"
     inkscape:window-maximized="1"
     inkscape:current-layer="svg122" /><path
     fill="#f16f41"
     d="m 8.38,1.323 a 7.144,7.144 0 1 1 0,14.287 7.144,7.144 0 0 1 0,-14.287"
     id="path118"
     style="fill:#ff6699;fill-opacity:1" /><path
     d="m 10.564906,5.8118429 h 0.308573 c 0.545601,0.019511 1.000509,0.2088461 1.363281,0.5687264 0.36277,0.3595189 0.550659,0.8126211 0.563667,1.3585841 V 10.39851 c -0.01301,0.5456 -0.200897,1.00051 -0.563667,1.363279 -0.362772,0.362772 -0.817319,0.550662 -1.363281,0.563669 H 6.055563 C 5.5099613,12.312451 5.0550524,12.124561 4.6922816,11.761789 4.3295107,11.39902 4.1416214,10.944471 4.1286136,10.39851 V 7.7391534 C 4.1416214,7.1931904 4.3295107,6.7400882 4.6922816,6.3805693 5.0550524,6.020689 5.5095999,5.8313544 6.055563,5.8118429 H 6.3352289 L 5.9110327,5.4071582 A 0.44587575,0.44587575 0 0 1 5.7762583,5.0797972 c 0,-0.1286318 0.044804,-0.2377522 0.1347744,-0.3277222 l 0.00976,-0.00976 c 0.096473,-0.08997 0.2070393,-0.1347743 0.3324194,-0.1347743 0.1253799,0 0.2359455,0.044804 0.3324195,0.1347744 l 1.0308618,0.9925613 c 0.025653,0.025653 0.048418,0.051309 0.067567,0.076963 h 1.5417762 a 0.30206817,0.30206817 0 0 1 0.057813,-0.076963 L 10.314507,4.7423192 c 0.09648,-0.08997 0.20704,-0.1347744 0.33242,-0.1347744 0.125381,0 0.239198,0.05456 0.335671,0.1445302 0.09648,0.08997 0.141278,0.1990904 0.141278,0.3277222 0,0.1282706 -0.0448,0.237391 -0.134773,0.327361 z M 6.055563,6.746592 C 5.7860141,6.7530959 5.5594629,6.8463179 5.3762708,7.0258967 5.1934401,7.2058368 5.0984115,7.4341946 5.092269,7.7102473 v 2.7171667 c 0.00614,0.276055 0.1011709,0.50405 0.2840018,0.683989 0.1831921,0.179942 0.4097433,0.273163 0.6792922,0.279306 h 4.817916 c 0.269548,-0.0062 0.496099,-0.09936 0.679291,-0.279306 0.182831,-0.179939 0.277859,-0.407934 0.284002,-0.683989 V 7.7102473 C 11.830629,7.4338333 11.735601,7.2058368 11.55277,7.0258967 11.369578,6.8463179 11.143027,6.7530959 10.873479,6.746592 Z m 0.9636552,1.397246 c 0.1347745,0 0.2471467,0.044804 0.3371167,0.1347744 0.090331,0.08997 0.1383876,0.2055944 0.1445303,0.3468727 V 9.04932 c -0.00614,0.1412783 -0.054199,0.2569025 -0.1445303,0.3468724 -0.08997,0.090332 -0.2023422,0.1351358 -0.3371167,0.1351358 -0.1347744,0 -0.2471466,-0.045166 -0.3371167,-0.1351358 C 6.5917701,9.3062225 6.5437138,9.1905982 6.5375713,9.04932 V 8.6254851 c 0,-0.1347746 0.046611,-0.2489534 0.1394716,-0.3421755 C 6.7702647,8.1904486 6.8844438,8.143838 7.0192182,8.143838 Z m 2.8906044,0 c 0.1347744,0 0.2471474,0.044804 0.3371174,0.1347744 0.09032,0.08997 0.138387,0.2055944 0.14453,0.3468727 V 9.04932 c -0.0063,0.1412783 -0.05421,0.2569025 -0.14453,0.3468724 -0.08997,0.090331 -0.202343,0.1351358 -0.3371174,0.1351358 -0.1347747,0 -0.2471466,-0.045166 -0.3371166,-0.1351358 C 9.4823745,9.3062225 9.4343183,9.1905982 9.4281758,9.04932 V 8.6254851 C 9.434317,8.4842068 9.482374,8.3685826 9.572706,8.2786124 9.6626757,8.1886427 9.7750479,8.143838 9.9098226,8.143838 Z"
     id="path3408"
     style="opacity:1;fill:#ff8cb0;fill-opacity:1;stroke-width:0.361326"
     inkscape:label="path3408" /><path
     class="st0"
     d="m 13.402149,10.537046 c -0.05147,0 -0.09773,0 -0.138933,-0.0052 -0.08746,-0.0051 -0.174917,-0.01027 -0.262376,-0.01027 -0.05659,0 -0.05659,0 -0.06175,-0.05659 L 12.85674,9.5285831 12.77444,8.751676 12.71785,8.2731819 12.66638,7.8564358 12.57376,7.2081348 C 12.54289,6.9766326 12.50691,6.750241 12.460598,6.5186861 c -0.0052,-0.035985 -0.0052,-0.041148 0.03604,-0.046311 0.15948,-0.030874 0.324124,-0.046311 0.488768,-0.046311 h 0.05659 c 0.02571,0.00516 0.04115,0.0206 0.04631,0.051474 l 0.0206,0.3549982 0.144043,1.9191395 0.07202,0.8798033 0.04631,0.5042579 z M 7.0942152,6.4260641 h 0.092622 c 0.046311,0 0.056585,0.015437 0.056585,0.061748 l 0.0412,0.6225902 0.092622,1.2913861 0.056585,0.6740117 0.041148,0.519695 0.082348,0.8952399 c 0,0.04115 -0.00516,0.04631 -0.046311,0.04631 l -0.3704879,-0.01544 c -0.025711,0.0052 -0.041148,-0.01027 -0.041148,-0.03604 l -0.015437,-0.18008 C 7.0685044,10.151174 7.0530674,9.9968041 7.0427937,9.8373231 L 6.9604455,9.0243791 6.8729867,8.2886189 6.8112388,7.7689771 6.7443803,7.2955936 C 6.7135063,7.0846389 6.6774691,6.8685737 6.6414845,6.657619 L 6.6157211,6.5135756 c -0.00511,-0.025764 0,-0.036037 0.025763,-0.041201 0.1440435,-0.025711 0.2829764,-0.051422 0.4527311,-0.046311 z m 5.1760278,2.0735095 c 0.128607,0 0.144044,0.00516 0.164644,0.1286064 0.02571,0.15437 0.04631,0.3087401 0.06175,0.4630571 l 0.05659,0.499094 0.108059,1.0598839 c 0.0051,0.02576 0,0.03604 -0.02576,0.03604 l -0.401309,0.04631 c -0.04115,0.0051 -0.05147,0 -0.05659,-0.04115 L 11.946066,9.5080361 11.802023,8.720802 11.781423,8.612743 c -0.0051,-0.020547 0.0052,-0.035984 0.02576,-0.041148 0.15948,-0.035984 0.31385,-0.061748 0.463057,-0.072022 z m -5.8500396,0 c 0.138933,-0.00516 0.15437,0.010274 0.1698069,0.1389329 0.036037,0.2109546 0.061748,0.4167456 0.082348,0.6277006 l 0.066858,0.617374 0.041148,0.4167989 0.036037,0.334398 c 0,0.04631 -0.00516,0.05664 -0.046311,0.06175 l -0.3807089,0.03604 c -0.0412,0.0051 -0.051474,0 -0.056637,-0.04115 L 6.0188943,9.0758001 5.9365988,8.6179063 c -0.00516,-0.025711 0.00511,-0.041148 0.030874,-0.046311 0.1594805,-0.035984 0.3086872,-0.061748 0.4527306,-0.072022 z m 1.9654505,1.5949624 v 0.638027 0.02055 c 0.00516,0.03087 -0.010274,0.04631 -0.041148,0.0412 h -0.123496 c -0.087459,0 -0.1749174,0.0051 -0.2623762,0.01027 -0.046311,0.0052 -0.051474,0.0052 -0.056637,-0.05147 L 7.8197011,9.8269971 7.7785534,9.3691031 7.7168054,8.6693805 c -0.00516,-0.056638 0.00516,-0.066911 0.051422,-0.072075 0.1440962,-0.015437 0.2881396,-0.015437 0.4322358,-0.010274 l 0.1080062,0.015437 c 0.0412,0.015437 0.046311,0.0206 0.046311,0.061748 l 0.015437,0.2778126 0.00516,0.30874 c 0.00516,0.282977 0.010274,0.56079 0.010274,0.8437659 z m 5.8397131,0.03087 v 0.60199 0.03087 c 0,0.02571 -0.01027,0.04115 -0.03604,0.03604 h -0.185188 c -0.07202,0 -0.144096,0.0051 -0.210955,0.01027 -0.04115,0.0052 -0.04631,0 -0.05147,-0.04631 l -0.10801,-1.2039719 -0.05664,-0.596827 -0.02055,-0.3035236 c -0.0052,-0.041201 0.0051,-0.051474 0.04631,-0.051474 0.169754,-0.0206 0.344724,-0.025711 0.514478,-0.00516 0.06691,0.00516 0.07719,0.025764 0.08235,0.092622 l 0.01544,0.6842856 z m -2.10433,-2.7217535 c 0.05142,0 0.09773,0.00516 0.133769,0.010274 0.02571,0.00516 0.03598,0.015437 0.04115,0.0412 l 0.06686,0.7151595 c 0.01544,0.061748 0.0052,0.072022 -0.05659,0.072022 l -0.174917,0.010274 c -0.03604,0.00516 -0.05147,0.010326 -0.05147,-0.046258 l -0.07202,-0.5814431 -0.02055,-0.1646437 c -0.0052,-0.030874 0.0051,-0.046311 0.03598,-0.051422 z m -5.82944,0 c 0.041148,0 0.082348,0.00516 0.1183327,0.010274 0.0206,0.00516 0.030874,0.015437 0.036037,0.0412 l 0.020548,0.1800807 0.051474,0.5607895 c 0.00516,0.041148 0.00516,0.046311 -0.036037,0.046311 l -0.2006282,0.010274 c -0.041148,0.00516 -0.046311,0 -0.051474,-0.041148 L 6.183538,7.7998511 6.1423903,7.4551267 c -0.00516,-0.025763 0.00516,-0.0412 0.030874,-0.0412 0.036037,-0.00511 0.077185,-0.010274 0.1183327,-0.010274 z m 2.0529092,0.5145313 v 0.3549981 c 0.00516,0.056585 -0.00516,0.056585 -0.051474,0.056585 -0.066858,0 -0.1286064,-0.00511 -0.1903544,-0.010274 -0.041148,-0.00516 -0.046311,-0.00516 -0.041148,-0.046311 L 8.0460928,7.8358356 c 0,-0.097732 0,-0.1955177 -0.00516,-0.2932502 -0.00511,-0.046311 0,-0.051474 0.046311,-0.051474 0.072022,0 0.1440435,0.00516 0.2161179,0.015437 0.041148,0 0.041148,0.010326 0.041148,0.051474 z m 5.8448238,0.00511 v 0.3550513 c 0,0.046311 -0.0051,0.051422 -0.05142,0.051422 l -0.195517,-0.010274 c -0.03087,-0.00516 -0.04631,-0.0206 -0.04115,-0.046311 l -0.01544,-0.7357597 c 0,-0.041148 0.0051,-0.046311 0.04631,-0.046311 0.06686,0 0.128607,0.00516 0.190355,0.010326 0.07719,0.00511 0.06686,0.020547 0.06686,0.077132 z M 6.1321165,8.2011602 c 0.00511,0.061748 0,0.072022 -0.061748,0.077185 l -0.1234959,0.030874 c -0.041148,0.015437 -0.046311,0.00511 -0.051422,-0.030874 L 5.7667919,7.5528592 c -0.015437,-0.046311 -0.00516,-0.056585 0.041148,-0.061748 l 0.1800806,-0.030874 c 0.0412,-0.00511 0.051474,-0.00511 0.051474,0.036037 0.015437,0.087459 0.030874,0.1749175 0.041148,0.2623762 L 6.1321165,8.170286 Z M 11.606505,7.4962744 c 0.07719,-0.015437 0.159481,-0.025711 0.241829,-0.036037 0.02571,-0.00511 0.03599,0.010326 0.04115,0.036037 l 0.04115,0.2829764 c 0.0206,0.138933 0.03604,0.2778132 0.0412,0.4167461 v 0.041148 c 0.0051,0.0206 -0.0052,0.036037 -0.02576,0.0412 l -0.164644,0.035985 c -0.02571,0.00516 -0.03598,-0.00511 -0.04115,-0.030874 L 11.606505,7.5168747 Z M 7.9534708,8.0519535 c 0,0.082296 -0.00516,0.1594804 -0.010274,0.2315022 0,0.025763 -0.010326,0.036037 -0.036037,0.0412 L 7.7476794,8.3400931 C 7.7219686,8.3452036 7.7116422,8.3297666 7.7116422,8.3040559 7.7013684,8.2268709 7.6962052,8.1548492 7.6910946,8.0776642 7.6807682,7.9387313 7.6704944,7.7946878 7.6653312,7.6506444 L 7.6550574,7.5477487 c -0.00516,-0.0206 0.00516,-0.030874 0.025711,-0.030874 L 7.891723,7.5014377 c 0.036037,0 0.046311,0.00511 0.046311,0.046311 z m 5.8345502,-0.082348 c 0.0052,0.097785 0.0052,0.2006809 0,0.2984134 0.0052,0.046311 -0.0051,0.056637 -0.05142,0.056637 l -0.144096,0.015437 c -0.02571,0.00511 -0.04115,-0.010326 -0.04115,-0.036037 -0.0052,-0.1286065 -0.01544,-0.2623762 -0.02571,-0.3910354 l -0.0206,-0.3601613 c -0.0052,-0.025711 0.0052,-0.035984 0.02571,-0.035984 l 0.205844,-0.015438 c 0.03599,0 0.04115,0.00511 0.04115,0.046311 0.01027,0.1388802 0.01544,0.2829763 0.01027,0.4218568 z M 5.9314356,9.7241011 c 0.082348,0.09779 0.097785,0.205791 0.061748,0.3241239 -0.030874,0.113222 -0.087459,0.210955 -0.1698069,0.293303 -0.1337697,0.138933 -0.288087,0.252102 -0.4578939,0.339561 -0.2932501,0.15437 -0.5968267,0.262429 -0.9210036,0.319014 -0.2315022,0.04631 -0.4630571,0.07719 -0.6945592,0.09262 -0.072022,0.0051 -0.1440435,0.0051 -0.2161179,0.0051 H 3.3794848 c -0.0412,0 -0.051474,-0.01027 -0.056637,-0.05142 L 3.2868638,10.547308 3.1890788,9.5646101 3.0810725,8.6281692 3.0193245,8.1291276 2.9524135,7.6506336 C 2.9164277,7.3882155 2.8701168,7.1258393 2.8238058,6.8634105 2.7877686,6.6524558 2.751784,6.4415011 2.7054731,6.2305992 c -0.00516,-0.025764 0,-0.046311 0.025711,-0.051474 L 3.4463436,5.8807118 c 0.046311,-0.0206 0.087459,-0.036037 0.1337697,-0.046311 0.030874,-0.00516 0.046311,0.00516 0.041148,0.036037 0,0.082295 0,0.1646437 -0.00511,0.2521024 l -0.00516,0.066858 c -0.00511,0.2984134 -0.00511,0.5968268 0,0.9004034 0.00516,0.2624289 0.0206,0.5299683 0.036037,0.7923445 0.025711,0.4116355 0.066859,0.8232184 0.108059,1.229691 0,0.04115 0.00511,0.04115 0.051422,0.03604 0.087459,-0.01544 0.1698069,-0.0206 0.2572656,-0.0206 0.2727027,0 0.5453526,0.03087 0.8077815,0.09773 0.2315022,0.05664 0.4527833,0.133822 0.6740117,0.231555 0.1080589,0.05147 0.2057914,0.113169 0.2984134,0.185243 0.036037,0.02571 0.061748,0.05142 0.087459,0.0823 z m 5.7985654,-0.04631 c 0.108059,0.08746 0.144044,0.205791 0.11317,0.3447239 -0.02571,0.113223 -0.07719,0.210955 -0.15437,0.298414 -0.123443,0.138933 -0.26754,0.246992 -0.42702,0.33445 -0.308687,0.169807 -0.637975,0.28814 -0.987862,0.349888 -0.190355,0.03598 -0.3807614,0.06686 -0.5711154,0.0823 -0.108059,0.01027 -0.2263919,0.01544 -0.3447246,0.01027 H 9.2191461 c -0.030821,0.0052 -0.046258,-0.01027 -0.046258,-0.04115 -0.010326,-0.144043 -0.0206,-0.288139 -0.036037,-0.432183 L 9.0545024,9.7447011 8.9670437,8.9780681 8.8590374,8.1137014 C 8.8436004,7.9644947 8.8230002,7.8101248 8.7972895,7.6609181 L 8.7046675,7.0846389 C 8.6635198,6.8119889 8.6120456,6.5392863 8.5554608,6.2665837 l -0.00516,-0.035984 c -0.010274,-0.025764 0,-0.046311 0.025711,-0.051474 0.2521516,-0.1028965 0.4990908,-0.2161186 0.7511932,-0.3138511 0.066911,-0.025711 0.1492067,-0.056585 0.1440962,0.00516 -0.0206,0.1903544 -0.015437,0.3807089 -0.0206,0.5659528 -0.00516,0.1543172 -0.00516,0.3086872 0.00516,0.4578938 V 7.012614 c 0,0.1852439 0.00511,0.3704878 0.020547,0.5505158 0.010327,0.2418286 0.025764,0.4888205 0.046311,0.7306491 l 0.04631,0.5196418 c 0.0052,0.097732 0.01544,0.1903544 0.03087,0.2881394 0,0.05659 0.01027,0.05142 0.05659,0.04631 0.09262,-0.01544 0.185244,-0.0206 0.2778662,-0.0206 0.3241236,0.0052 0.6379736,0.05658 0.9466606,0.144044 0.210955,0.05664 0.411636,0.133769 0.607153,0.236718 0.08746,0.04626 0.164644,0.102896 0.241829,0.169754 z M 4.290162,10.583358 C 4.3673469,10.537046 4.5011167,10.444424 4.6863079,10.30038 4.8715518,10.151174 4.9847213,10.053388 5.0310322,10.001967 4.7532191,9.8784711 4.4650794,9.7704121 4.1666661,9.6726791 Z m 6.57031,-0.55568 c 0.01544,-0.01544 0.01027,-0.02571 -0.0052,-0.03604 L 10.731773,9.9402191 C 10.515708,9.847597 10.29959,9.765249 10.078361,9.693227 l -0.03087,-0.01027 c -0.01027,-0.0052 -0.02055,0 -0.03599,0.0052 l 0.123443,0.890077 c 0.01544,0 0.02576,-0.0052 0.03087,-0.01027 0.200681,-0.144097 0.40131,-0.293303 0.60199,-0.452784 z"
     id="path8250"
     style="stroke-width:0.0052686;fill:#ffffff;fill-opacity:1" /><style
     type="text/css"
     id="style8248">
	.st0{fill:#07A3D7;}
</style></svg>
