<svg width="64" height="64" version="1" xmlns="http://www.w3.org/2000/svg">
 <path d="m31.998 5.0005c-14.956 0-26.998 12.042-26.998 27.001 0 14.96 12.042 26.998 26.998 26.998q2.2148-0.0038 4.3314-0.34772l22.322-22.319q0.34394-2.1166 0.34772-4.3314a26.949 26.949 0 0 0-26.998-27.001z" fill="#579c3b" stroke-width="3.7796"/>
 <path d="m58.652 36.333c-39.1 18.444-19.548 9.2222 0 0m0 0-22.322 22.319a26.911 26.911 0 0 0 22.322-22.326z" fill="#427a29" stroke-width="3.7796"/>
 <rect transform="rotate(90)" x="26" y="-47" width="20" height="4" fill="#ffffff"/>
 <rect x="32" y="22" width="24" height="4" fill="#ffffff"/>
 <path d="m22 14a14 14 0 0 0-14 14 14 14 0 0 0 14 14 14 14 0 0 0 14-14 14 14 0 0 0-14-14zm0 4.2a9.8 9.8 0 0 1 9.8 9.8 9.8 9.8 0 0 1-9.8 9.8 9.8 9.8 0 0 1-9.8-9.8 9.8 9.8 0 0 1 9.8-9.8z" fill="#ffffff"/>
 <circle cx="40" cy="9" r="1" fill="#ffffff" stroke-linecap="round" stroke-linejoin="round" stroke-width="2"/>
 <rect x="27" y="8" width="10" height="2" rx="1" ry="1" fill="#ffffff" stroke-linecap="round" stroke-linejoin="round" stroke-width="1.6903"/>
 <path d="m36.33 58.652 22.322-22.319a26.911 26.911 0 0 0-22.322 22.319" fill="#85df66" stroke-width="3.7796"/>
 <circle cx="24" cy="9" r="1" fill="#ffffff" stroke-linecap="round" stroke-linejoin="round" stroke-width="2"/>
</svg>
