<svg xmlns="http://www.w3.org/2000/svg" width="64" height="64"><path fill="#579c3b" d="M31.998 5A26.94 26.94 0 0 0 5 32.002 26.94 26.94 0 0 0 31.998 59q2.215-.004 4.331-.348l22.322-22.32q.344-2.116.348-4.33A26.95 26.95 0 0 0 32.001 5z"/><path fill="#427a29" d="M58.652 36.333c-39.1 18.444-19.548 9.222 0 0m0 0L36.33 58.652a26.91 26.91 0 0 0 22.322-22.326z"/><path fill="#fff" d="M47 26v20h-4V26zM32 22h24v4H32z"/><path fill="#fff" d="M22 14A14 14 0 0 0 8 28a14 14 0 0 0 14 14 14 14 0 0 0 14-14 14 14 0 0 0-14-14m0 4.2a9.8 9.8 0 0 1 9.8 9.8 9.8 9.8 0 0 1-9.8 9.8 9.8 9.8 0 0 1-9.8-9.8 9.8 9.8 0 0 1 9.8-9.8"/><circle cx="40" cy="9" r="1" fill="#fff"/><rect width="10" height="2" x="27" y="8" fill="#fff" rx="1" ry="1"/><path fill="#85df66" d="m36.33 58.652 22.322-22.319A26.91 26.91 0 0 0 36.33 58.652"/><circle cx="24" cy="9" r="1" fill="#fff"/></svg>