<svg width="64" height="64" version="1.1" viewBox="0 0 64 64" xmlns="http://www.w3.org/2000/svg">
 <circle cx="32" cy="32" r="27" fill="#e6e6e6" stroke-linecap="round" stroke-linejoin="round" stroke-width="1.0063"/>
 <path d="m10.883 36.998v6.0792s0.07864 0.17302 0.17458 0.17302h2.7682c0.09594 0 0.17301-0.07707 0.17301-0.17302l0.0079-1.3888c0-0.09594 0.07707-0.17301 0.17302-0.17301h3.5924c0.09437 0 0.17144 0.07707 0.17144 0.17301v1.4061c0 0.09437 0.0755 0.17144 0.16987 0.17144h1.3338c0.0928 0 0.16987-0.07707 0.16987-0.17144v-1.3448c0.06134-0.16043 0.23436-0.27211 0.39951-0.27211 0.16358 0 0.33659 0.11167 0.39793 0.27211v2.2916c0 0.09594 0.07707 0.17301 0.17301 0.17301h1.9802c0.09437 0 0.17302-0.07707 0.17302-0.17301v-1.4156c0-0.13369 0.0928-0.24222 0.21076-0.24222 0.11639 0 0.21076 0.10853 0.21076 0.24222v0.07392h0.0016v1.3416c0 0.09594 0.07707 0.17301 0.17302 0.17301h14.623c0.09594 0 0.17302-0.07707 0.17302-0.17301v-1.4958c0.03146-0.1793 0.17616-0.31614 0.34288-0.31614 0.16672 0 0.30985 0.13684 0.34131 0.31614v0.85249c0 0.09594 0.07707 0.17301 0.16987 0.17301h2.1249l0.30985-0.53162v-0.46397h-0.80844c-0.19346 0-0.3476-0.12111-0.38377-0.2784v-1.1246h-26.54v-1.3228z" fill="#302b36" stroke-width=".40265"/>
 <path d="m10.888 34.354v3.6238c0 1.7852 1.436 3.2212 3.2212 3.2212h38.654c1.7852 0 3.2212-1.436 3.2212-3.2212v-3.6238c0 1.7852-1.436 3.2212-3.2212 3.2212h-38.654c-1.7852 0-3.2212-1.436-3.2212-3.2212z" fill="#5c1c22" stroke-width=".40265"/>
 <path d="m14.109 20h38.654c1.7789 0 3.2212 1.4423 3.2212 3.2212v11.938c0 1.7789-1.4423 3.2212-3.2212 3.2212h-38.654c-1.7789 0-3.2212-1.4423-3.2212-3.2212v-11.938c0-1.7789 1.4423-3.2212 3.2212-3.2212z" fill="#9c3038" stroke-width=".40265"/>
 <path d="m8.3418 19.783c-0.1793 0-0.32617 0.14687-0.32617 0.32617v0.13086c0 0.1793 0.14687 0.32617 0.32617 0.32617h1.7617v26.893c0 0.17931 0.14687 0.32422 0.32617 0.32422h0.13281c0.18088 0 0.32422-0.14491 0.32422-0.32422v-27.186c0.001104-0.010921 0-0.021997 0-0.033204v-0.13086c0-0.022413-0.00155-0.045247-0.00586-0.066406-0.028014-0.13754-0.14221-0.24332-0.28516-0.25781-0.010996-0.001115-0.021898-0.001953-0.033203-0.001953h-0.14258-2.0781z" fill="#5e5c64" stroke-width=".40265"/>
 <path d="m10.888 24.027v10.327h45.097v-10.327z" fill="#271818" stroke-width=".40265"/>
 <path d="m33.192 29.19c0 4.8837-3.9589 8.841-8.841 8.841-4.8837 0-8.8426-3.9573-8.8426-8.841 0-4.8837 3.9589-8.841 8.8426-8.841 4.8821 0 8.841 3.9573 8.841 8.841z" fill="#757475" stroke-width=".40265"/>
 <path d="m32.396 29.19c0 4.4432-3.6018 8.0449-8.0449 8.0449s-8.0449-3.6018-8.0449-8.0449c0-4.4432 3.6018-8.0449 8.0449-8.0449s8.0449 3.6018 8.0449 8.0449z" fill="#171420" stroke-width=".40265"/>
 <path d="m51.362 29.19c0 4.8837-3.9589 8.841-8.8426 8.841-4.8821 0-8.841-3.9573-8.841-8.841 0-4.8837 3.9589-8.841 8.841-8.841 4.8837 0 8.8426 3.9573 8.8426 8.841z" fill="#757475" stroke-width=".40265"/>
 <path d="m50.565 29.19c0 4.4432-3.6018 8.0449-8.0449 8.0449s-8.0449-3.6018-8.0449-8.0449c0-4.4432 3.6018-8.0449 8.0449-8.0449s8.0449 3.6018 8.0449 8.0449z" fill="#171420" stroke-width=".40265"/>
 <path d="m31.733 27.671c-0.04247-0.2029-0.12897-0.3476-0.2894-0.47972-1.2756-1.0538-3.0435-0.98303-5.3069 0.21233-0.14785-0.14627-0.30671-0.2721-0.486-0.37906 1.5587-1.3983 2.9805-1.9865 4.2641-1.7616 0.37748 0.06606 0.64013-0.36805 0.40579-0.67162-0.52063-0.67633-1.112-1.2253-1.8245-1.6939-0.17302-0.11482-0.33659-0.15571-0.54265-0.13527-1.6468 0.15571-2.8484 1.4565-3.6018 3.9022-0.20919 0-0.4105 0.02517-0.6134 0.0755 0.11325-2.0919 0.70307-3.5122 1.7694-4.2608 0.31457-0.2202 0.19346-0.71249-0.18717-0.76282-0.84621-0.10853-1.6531-0.07864-2.4883 0.0928-0.2029 0.04247-0.3476 0.12897-0.47972 0.28783-1.0538 1.2756-0.98303 3.045 0.21233 5.3069-0.14785 0.14785-0.2721 0.30828-0.37906 0.48757-1.3999-1.5603-1.9865-2.9805-1.7632-4.2641 0.06606-0.37906-0.36648-0.64013-0.67162-0.40579-0.67476 0.52063-1.2253 1.112-1.6939 1.8245-0.11324 0.17301-0.15414 0.33659-0.13527 0.54265 0.15728 1.6468 1.458 2.8484 3.9038 3.6018 0 0.20919 0.02359 0.4105 0.0755 0.6134-2.0919-0.11482-3.5122-0.70464-4.2608-1.7694-0.22177-0.31457-0.71249-0.19346-0.76282 0.18717-0.10853 0.84621-0.07864 1.6531 0.0928 2.4883 0.04089 0.2029 0.12897 0.3476 0.28783 0.47972 1.2756 1.0538 3.045 0.98303 5.3069-0.21233 0.14785 0.14627 0.30828 0.2721 0.486 0.37906-1.5587 1.3983-2.9805 1.9865-4.2625 1.7616-0.37906-0.06606-0.64174 0.36805-0.40736 0.67162 0.52063 0.67633 1.1136 1.2253 1.8245 1.6939 0.17302 0.11482 0.33816 0.15571 0.54422 0.13527 1.6468-0.15571 2.8469-1.4565 3.6018-3.9022 0.20761 0 0.40893-0.02517 0.61183-0.0755-0.11325 2.0919-0.70307 3.5122-1.7694 4.2608-0.313 0.2202-0.19189 0.71249 0.18874 0.76125 0.84464 0.1101 1.6531 0.08022 2.4883-0.09122 0.2029-0.04247 0.3476-0.12897 0.47815-0.2894 1.0554-1.274 0.9846-3.0435-0.21233-5.3053 0.14785-0.14785 0.27368-0.30828 0.38063-0.48757 1.3983 1.5603 1.9865 2.9805 1.7616 4.2641-0.06606 0.37906 0.36805 0.64013 0.67162 0.40579 0.67476-0.52063 1.2253-1.112 1.6939-1.8245 0.11482-0.17301 0.15414-0.33659 0.13527-0.54265-0.15728-1.6468-1.458-2.8484-3.9022-3.6018 0-0.20919-0.02517-0.4105-0.0755-0.6134 2.0919 0.11482 3.5122 0.70307 4.2608 1.7694 0.2202 0.31457 0.71249 0.19346 0.76125-0.18717 0.1101-0.84621 0.08022-1.6531-0.09122-2.4883zm-7.3814 3.6238c-1.1623 0-2.1061-0.94212-2.1061-2.1045s0.94373-2.1045 2.1061-2.1045c1.1623 0 2.1045 0.94212 2.1045 2.1045s-0.94212 2.1045-2.1045 2.1045z" stroke-width=".40265"/>
 <path d="m24.072 21.658c-0.41189 0.01534-0.82265 0.06467-1.2402 0.15039-0.2029 0.04247-0.34835 0.1302-0.48047 0.28906-1.0538 1.2756-0.98247 3.0448 0.21289 5.3066l1.1738-0.66406c0.11325-2.0919 0.70315-3.5131 1.7695-4.2617 0.31457-0.2202 0.19313-0.71139-0.1875-0.76172-0.4231-0.05426-0.83616-0.07393-1.248-0.05859zm4.0273 1.0996c-0.04702-0.0027-0.09497-0.0012-0.14648 0.0039-1.6468 0.15571-2.8482 1.4566-3.6016 3.9023l1.2988 0.36133c1.5587-1.3983 2.9801-1.9866 4.2637-1.7617 0.37748 0.06606 0.64059-0.3683 0.40625-0.67188-0.52063-0.67633-1.1117-1.2266-1.8242-1.6953-0.12976-0.08611-0.25544-0.13041-0.39648-0.13867zm-8.1055 0.375c-0.08243 0.0025-0.16785 0.02931-0.24414 0.08789-0.67476 0.52063-1.2247 1.1137-1.6934 1.8262-0.11325 0.17302-0.15364 0.33496-0.13477 0.54102 0.15728 1.6468 1.4585 2.8501 3.9043 3.6035l0.35938-1.3008c-1.3999-1.5603-1.987-2.9801-1.7637-4.2637 0.04954-0.28429-0.18045-0.50181-0.42774-0.49414zm9.4922 3.3203c-0.96017-0.03926-2.0764 0.27878-3.3496 0.95117l0.66406 1.1719c2.0919 0.11482 3.5131 0.70472 4.2617 1.7695 0.2202 0.31457 0.71296 0.19508 0.76172-0.18555 0.1101-0.84621 0.07964-1.6531-0.0918-2.4883-0.04247-0.2029-0.12863-0.34835-0.28906-0.48047-0.55807-0.46104-1.2102-0.70775-1.957-0.73828zm-12.172 1.4023c-0.20233-0.0079-0.40604 0.12734-0.4375 0.36523-0.10853 0.84621-0.07769 1.6531 0.09375 2.4883 0.04089 0.2029 0.12825 0.34835 0.28711 0.48047 1.2756 1.0538 3.0448 0.98247 5.3066-0.21289l-0.66406-1.1738c-2.0919-0.11324-3.5111-0.70277-4.2598-1.7676-0.08317-0.11796-0.20477-0.17497-0.32617-0.17969zm9.5625 1.3359-0.35938 1.2988c1.3983 1.5603 1.9866 2.9801 1.7617 4.2637-0.06606 0.37906 0.36635 0.64059 0.66992 0.40625 0.67476-0.52063 1.2266-1.1117 1.6953-1.8242 0.11482-0.17301 0.15364-0.33691 0.13477-0.54297-0.15728-1.6468-1.4581-2.8482-3.9023-3.6016zm-0.74023 1.7852-1.1738 0.66406c-0.11325 2.0919-0.70315 3.5131-1.7695 4.2617-0.313 0.2202-0.19118 0.711 0.18945 0.75977 0.84464 0.1101 1.6531 0.0816 2.4883-0.08984 0.2029-0.04247 0.34797-0.12863 0.47852-0.28906 1.0554-1.274 0.98404-3.0448-0.21289-5.3066zm-3.0859 0.37891c-1.5587 1.3983-2.9818 1.9866-4.2637 1.7617-0.37906-0.06606-0.64063 0.3683-0.40625 0.67188 0.52063 0.67633 1.1133 1.2247 1.8242 1.6934 0.17302 0.11482 0.33886 0.15716 0.54492 0.13672 1.6468-0.15571 2.8466-1.4566 3.6016-3.9023z" fill="#5d586c" stroke-width=".40265"/>
 <path d="m26.952 29.19c0 1.4392-1.1655 2.6047-2.6015 2.6047-1.4376 0-2.6031-1.1655-2.6031-2.6047 0-1.4392 1.1655-2.6047 2.6031-2.6047 1.436 0 2.6015 1.1655 2.6015 2.6047z" fill="#54525c" stroke-width=".40265"/>
 <path d="m26.574 29.19c0 1.2284-0.99563 2.224-2.2224 2.224-1.2284 0-2.2224-0.99563-2.2224-2.224 0-1.2284 0.99406-2.224 2.2224-2.224 1.2268 0 2.2224 0.99563 2.2224 2.224z" fill="#342f3b" stroke-width=".40265"/>
 <path d="m49.9 27.671c-0.04089-0.2029-0.12897-0.3476-0.28783-0.47972-1.2756-1.0538-3.045-0.98303-5.3069 0.21233-0.14785-0.14627-0.30828-0.2721-0.486-0.37906 1.5587-1.3983 2.9805-1.9865 4.2625-1.7616 0.37905 0.06606 0.64174-0.36805 0.40736-0.67162-0.52063-0.67633-1.1136-1.2253-1.8245-1.6939-0.17302-0.11482-0.33816-0.15571-0.54422-0.13527-1.6468 0.15571-2.8469 1.4565-3.6018 3.9022-0.20762 0-0.40893 0.02517-0.61183 0.0755 0.11324-2.0919 0.70307-3.5122 1.7694-4.2608 0.313-0.2202 0.19189-0.71249-0.18874-0.76282-0.84464-0.10853-1.6531-0.07864-2.4883 0.0928-0.2029 0.04247-0.3476 0.12897-0.47815 0.28783-1.0554 1.2756-0.9846 3.045 0.21233 5.3069-0.14785 0.14785-0.27368 0.30828-0.38063 0.48757-1.3983-1.5603-1.9865-2.9805-1.7616-4.2641 0.06606-0.37906-0.36805-0.64013-0.67162-0.40579-0.67476 0.52063-1.2253 1.112-1.6939 1.8245-0.11482 0.17301-0.15414 0.33659-0.13527 0.54265 0.15728 1.6468 1.458 2.8484 3.9022 3.6018 0 0.20919 0.02517 0.4105 0.0755 0.6134-2.0919-0.11482-3.5122-0.70464-4.2608-1.7694-0.2202-0.31457-0.71249-0.19346-0.76125 0.18717-0.1101 0.84621-0.08022 1.6531 0.09122 2.4883 0.04247 0.2029 0.12897 0.3476 0.2894 0.47972 1.2756 1.0538 3.0435 0.98303 5.3069-0.21233 0.14785 0.14627 0.30671 0.2721 0.486 0.37906-1.5587 1.3983-2.9805 1.9865-4.2641 1.7616-0.37748-0.06606-0.64013 0.36805-0.40579 0.67162 0.52063 0.67633 1.112 1.2253 1.8245 1.6939 0.17301 0.11482 0.33659 0.15571 0.54265 0.13527 1.6468-0.15571 2.8484-1.4565 3.6018-3.9022 0.20919 0 0.4105-0.02517 0.6134-0.0755-0.11324 2.0919-0.70307 3.5122-1.7694 4.2608-0.31457 0.2202-0.19346 0.71249 0.18717 0.76125 0.84621 0.1101 1.6531 0.08022 2.4883-0.09122 0.2029-0.04247 0.3476-0.12897 0.47972-0.2894 1.0538-1.274 0.98303-3.0435-0.21233-5.3053 0.14785-0.14785 0.2721-0.30828 0.37906-0.48757 1.3999 1.5603 1.9865 2.9805 1.7632 4.2641-0.06606 0.37906 0.36648 0.64013 0.67162 0.40579 0.67476-0.52063 1.2253-1.112 1.6939-1.8245 0.11324-0.17301 0.15414-0.33659 0.13527-0.54265-0.15728-1.6468-1.458-2.8484-3.9038-3.6018 0-0.20919-0.02359-0.4105-0.0755-0.6134 2.0919 0.11482 3.5122 0.70307 4.2608 1.7694 0.22177 0.31457 0.71249 0.19346 0.76282-0.18717 0.10853-0.84621 0.07864-1.6531-0.0928-2.4883zm-7.3814 3.6238c-1.1623 0-2.1045-0.94212-2.1045-2.1045s0.94212-2.1045 2.1045-2.1045 2.1061 0.94212 2.1061 2.1045-0.94373 2.1045-2.1061 2.1045z" stroke-width=".40265"/>
 <path d="m42.242 21.658c-0.41209 0.01534-0.82265 0.06467-1.2402 0.15039-0.2029 0.04247-0.34797 0.1302-0.47852 0.28906-1.0554 1.2756-0.98404 3.0448 0.21289 5.3066l1.1719-0.66406c0.11325-2.0919 0.70315-3.5131 1.7695-4.2617 0.313-0.2202 0.19313-0.71139-0.1875-0.76172-0.42232-0.05426-0.83596-0.07393-1.248-0.05859zm4.0273 1.0996c-0.04716-0.0027-0.09497-0.0012-0.14648 0.0039-1.6468 0.15571-2.8466 1.4566-3.6016 3.9023l1.3008 0.36133c1.5587-1.3983 2.9798-1.9866 4.2617-1.7617 0.37906 0.06606 0.64258-0.3683 0.4082-0.67188-0.52063-0.67633-1.1152-1.2266-1.8262-1.6953-0.12976-0.08611-0.255-0.13041-0.39648-0.13867zm-8.1055 0.375c-0.08235 0.0025-0.16629 0.02931-0.24219 0.08789-0.67476 0.52063-1.2247 1.1137-1.6934 1.8262-0.11482 0.17302-0.15559 0.33496-0.13672 0.54102 0.15728 1.6468 1.4581 2.8501 3.9023 3.6035l0.36133-1.3008c-1.3983-1.5603-1.9866-2.9801-1.7617-4.2637 0.04954-0.28429-0.18262-0.50181-0.42969-0.49414zm9.4922 3.3203c-0.96044-0.03926-2.0773 0.27878-3.3496 0.95117l0.66406 1.1719c2.0919 0.11482 3.5131 0.70472 4.2617 1.7695 0.22177 0.31457 0.71139 0.19508 0.76172-0.18555 0.10853-0.84621 0.07964-1.6531-0.0918-2.4883-0.04089-0.2029-0.1302-0.34835-0.28906-0.48047-0.55807-0.46104-1.21-0.70775-1.957-0.73828zm-12.172 1.4023c-0.20227-0.0079-0.40507 0.12734-0.43555 0.36523-0.1101 0.84621-0.0816 1.6531 0.08984 2.4883 0.04247 0.2029 0.13058 0.34835 0.29102 0.48047 1.2756 1.0538 3.0432 0.98247 5.3066-0.21289l-0.66602-1.1738c-2.0919-0.11324-3.5131-0.70277-4.2617-1.7676-0.08258-0.11796-0.20286-0.17497-0.32422-0.17969zm9.5625 1.3359-0.36133 1.2988c1.3999 1.5603 1.987 2.9801 1.7637 4.2637-0.06606 0.37906 0.36673 0.64059 0.67188 0.40625 0.67476-0.52063 1.2247-1.1117 1.6934-1.8242 0.11325-0.17301 0.1556-0.33691 0.13672-0.54297-0.15728-1.6468-1.4585-2.8482-3.9043-3.6016zm-0.74023 1.7852-1.1719 0.66406c-0.11325 2.0919-0.70315 3.5131-1.7695 4.2617-0.31457 0.2202-0.19313 0.711 0.1875 0.75977 0.84621 0.1101 1.6531 0.0816 2.4883-0.08984 0.2029-0.04247 0.3464-0.12863 0.47852-0.28906 1.0538-1.274 0.98247-3.0448-0.21289-5.3066zm-3.0859 0.37891c-1.5587 1.3983-2.9801 1.9866-4.2637 1.7617-0.37748-0.06606-0.64059 0.3683-0.40625 0.67188 0.52063 0.67633 1.1137 1.2247 1.8262 1.6934 0.17302 0.11482 0.33496 0.15716 0.54102 0.13672 1.6468-0.15571 2.8501-1.4566 3.6035-3.9023z" fill="#5d586c" stroke-width=".40265"/>
 <path d="m45.124 29.19c0 1.4392-1.1655 2.6047-2.6031 2.6047-1.436 0-2.6015-1.1655-2.6015-2.6047 0-1.4392 1.1655-2.6047 2.6015-2.6047 1.4376 0 2.6031 1.1655 2.6031 2.6047z" fill="#54525c" stroke-width=".40265"/>
 <path d="m44.743 29.19c0 1.2284-0.99406 2.224-2.2224 2.224-1.2268 0-2.2224-0.99563-2.2224-2.224 0-1.2284 0.99563-2.224 2.2224-2.224 1.2284 0 2.2224 0.99563 2.2224 2.224z" fill="#342f3b" stroke-width=".40265"/>
 <rect x="20.414" y="43" width="17.718" height="1" fill="#e5a50a" stroke-linecap="round" stroke-linejoin="round" stroke-width="1.8684"/>
</svg>
