<?xml version="1.0" encoding="UTF-8" standalone="no"?>
<svg
   width="64"
   height="64"
   viewBox="0 0 16.933 16.933"
   version="1.1"
   id="svg4"
   sodipodi:docname="io.github.giantpinkrobots.flatsweep.svg"
   xml:space="preserve"
   inkscape:version="1.4.2 (ebf0e940d0, 2025-05-08)"
   xmlns:inkscape="http://www.inkscape.org/namespaces/inkscape"
   xmlns:sodipodi="http://sodipodi.sourceforge.net/DTD/sodipodi-0.dtd"
   xmlns="http://www.w3.org/2000/svg"
   xmlns:svg="http://www.w3.org/2000/svg"><defs
     id="defs4"><inkscape:path-effect
       effect="perspective-envelope"
       up_left_point="74.825329,70.246338"
       up_right_point="101.51237,54.838568"
       down_left_point="74.825329,97.749993"
       down_right_point="101.51237,82.342223"
       id="path-effect2"
       is_visible="true"
       lpeversion="1"
       deform_type="perspective"
       horizontal_mirror="false"
       vertical_mirror="false"
       overflow_perspective="false" /></defs><sodipodi:namedview
     id="namedview4"
     pagecolor="#505050"
     bordercolor="#eeeeee"
     borderopacity="1"
     inkscape:showpageshadow="0"
     inkscape:pageopacity="0"
     inkscape:pagecheckerboard="0"
     inkscape:deskcolor="#505050"
     inkscape:zoom="9.46875"
     inkscape:cx="28.514851"
     inkscape:cy="32.528053"
     inkscape:window-width="1536"
     inkscape:window-height="808"
     inkscape:window-x="0"
     inkscape:window-y="0"
     inkscape:window-maximized="1"
     inkscape:current-layer="svg4" /><circle
     cx="8.4659996"
     cy="8.4599991"
     r="7.1440001"
     fill="#4e99f3"
     style="paint-order:stroke markers fill;fill:#3269ae;fill-opacity:1"
     id="circle1" /><g
     id="g4"
     transform="translate(0.05588448,0.1397112)"><path
       sodipodi:type="star"
       style="display:inline;fill:#fb4d4d;fill-opacity:1;stroke:none;stroke-width:5;stroke-linecap:square;stroke-linejoin:round"
       id="path4"
       inkscape:flatsided="true"
       sodipodi:sides="6"
       sodipodi:cx="36.324223"
       sodipodi:cy="41.657764"
       sodipodi:r1="48.427113"
       sodipodi:r2="41.93911"
       sodipodi:arg1="0.52359878"
       sodipodi:arg2="1.0471976"
       inkscape:rounded="0.05"
       inkscape:randomized="0"
       d="m 78.263332,65.871321 c -1.210678,2.096955 -39.517754,24.213556 -41.93911,24.213556 -2.421355,0 -40.7284315,-22.116601 -41.9391093,-24.213556 -1.2106778,-2.096956 -1.2106776,-46.330158 2e-7,-48.427113 1.2106779,-2.096956 39.5177541,-24.2135562 41.9391101,-24.2135561 2.421355,0 40.728432,22.1166011 41.939109,24.2135561 1.210678,2.096956 1.210678,46.330157 0,48.427113 z"
       transform="matrix(0.10870102,0,0,0.10404709,4.4758681,4.0153925)"
       inkscape:label="Red Cube" /><path
       id="path23"
       style="display:inline;fill:#ffffff;stroke:none;stroke-width:0.00959752;stroke-linecap:square;stroke-linejoin:round"
       d="M 8.4243482,4.5107522 V 8.3497618 L 11.74899,6.430257 Z m 0,3.8390096 L 5.0997059,6.430257 v 3.83901 l 3.3246423,1.919504 z"
       inkscape:label="White Cube" /><path
       id="path7"
       style="display:inline;fill:#ffffff;stroke-width:0.143847;stroke-linecap:square;stroke-linejoin:round"
       d="m 83.721009,65.110415 c -0.889568,0.513592 -1.779145,1.943978 -1.779136,2.860761 v 2.750366 l -6.226976,3.595146 c -0.492821,0.28453 -0.889568,0.922481 -0.889568,1.430381 v 1.833577 c 0,0.5079 0.396747,0.687726 0.889568,0.403196 l 2.668704,-1.540777 v 17.418982 c 0,0.916787 0.889568,1.319984 1.779136,0.806392 l 16.012224,-9.244662 c 0.889568,-0.513592 1.779136,-1.943974 1.779136,-2.860761 V 65.144034 l 2.668703,-1.540777 c 0.49282,-0.28453 0.88957,-0.922481 0.88957,-1.430381 v -1.833577 c 0,-0.5079 -0.39675,-0.687726 -0.88957,-0.403196 l -6.226975,3.595147 v -2.750366 c 0,-0.916788 -0.889568,-1.319985 -1.779136,-0.806392 z m 1.779136,1.723181 5.337408,-3.081554 c 0.446688,-0.257895 0.889568,-0.05211 0.889568,0.403196 v 0.916788 l -7.116544,4.108739 v -0.916788 c 0,-0.459821 0.44498,-1.1737 0.889568,-1.430381 z m -3.558272,7.5551 12.453952,-7.190292 V 82.783808 L 81.941873,89.9741 Z m 4.003056,0.4392 c -0.739231,0.426795 -1.334352,1.383721 -1.334352,2.145571 v 7.334308 c 0,0.761851 0.595121,1.03159 1.334352,0.604795 0.739231,-0.426796 1.334352,-1.383721 1.334352,-2.145572 V 75.43269 c 0,-0.76185 -0.595121,-1.031589 -1.334352,-0.604794 z m 4.44784,-2.567962 c -0.739231,0.426796 -1.334352,1.383721 -1.334352,2.145572 v 7.334308 c 0,0.76185 0.595121,1.031589 1.334352,0.604794 0.739231,-0.426795 1.334352,-1.383721 1.334352,-2.145571 v -7.334308 c 0,-0.761851 -0.595121,-1.03159 -1.334352,-0.604795 z"
       inkscape:label="Trashcan"
       inkscape:path-effect="#path-effect2"
       inkscape:original-d="m 83.825329,61.246338 c -1,0 -2.00001,1 -2,2 v 3 h -7 c -0.554,0 -1,0.446001 -1,1 v 2 c 0,0.553999 0.446,1 1,1 h 3 v 19 c 0,0.999999 1,2 2,2 h 18 c 1,0 2,-1.000001 2,-2 v -19 h 3.000001 c 0.554,0 1,-0.446001 1,-1 v -2 c 0,-0.553999 -0.446,-1 -1,-1 h -7.000001 v -3 c 0,-0.999999 -1,-2 -2,-2 z m 2,3 h 6 c 0.50214,0 1,0.503374 1,1 v 1 h -8 v -1 c 0,-0.501556 0.50022,-1.000002 1,-1 z m -4,6 h 14 v 17 h -14 z m 4.5,3 c -0.831,0 -1.5,0.669001 -1.5,1.5 v 8 c 0,0.830999 0.669,1.5 1.5,1.5 0.831,0 1.5,-0.669001 1.5,-1.5 v -8 c 0,-0.830999 -0.669,-1.5 -1.5,-1.5 z m 5,0 c -0.831,0 -1.5,0.669001 -1.5,1.5 v 8 c 0,0.830999 0.669,1.5 1.5,1.5 0.831,0 1.5,-0.669001 1.5,-1.5 v -8 c 0,-0.830999 -0.669,-1.5 -1.5,-1.5 z"
       transform="matrix(0.09597524,0,0,0.09597524,2.2819328,2.2073464)" /></g></svg>
