<svg xmlns="http://www.w3.org/2000/svg" width="64" height="64" viewBox="0 0 64 64"><circle cx="32" cy="32" r="27" fill="#f2f2f2"/><g transform="translate(4.572 4.571)scale(.66964)"><circle cx="40.959" cy="69.8" r="7" fill="#f9f06b"/><g fill="#f6d32d"><path d="M47.959 69.8a7 7 0 0 0-7-7v14a7 7 0 0 0 7-7"/><path d="M64.637 28.798c0-13.077-10.601-23.678-23.678-23.678S17.28 15.721 17.28 28.798c0 4.89 1.483 9.433 4.022 13.205A42.8 42.8 0 0 1 28.61 65.89v.005a3.906 3.906 0 0 0 3.906 3.906h16.885a3.906 3.906 0 0 0 3.906-3.906v-.005c0-8.546 2.536-16.798 7.309-23.886a23.57 23.57 0 0 0 4.02-13.205z"/></g><path fill="#ffa348" d="M40.959 5.12v64.681h8.443a3.906 3.906 0 0 0 3.906-3.906v-.005c0-8.546 2.536-16.797 7.308-23.886a23.57 23.57 0 0 0 4.022-13.205c0-13.077-10.601-23.678-23.68-23.678z"/><path fill="#9a9996" d="M27.277 55.331A42.6 42.6 0 0 1 28.61 65.89v.005a3.906 3.906 0 0 0 3.906 3.906h16.885a3.906 3.906 0 0 0 3.906-3.906v-.005c0-3.593.45-7.134 1.325-10.559z"/><path fill="#1fb772" d="M50.257 29.886a1.57 1.57 0 0 0-1.267-2.496h-6.122l2.482-12.135a.979.979 0 0 0-1.75-.774L31.663 30.805a1.57 1.57 0 0 0 1.267 2.496h6.122l-2.482 12.135a.979.979 0 0 0 1.749.774z"/><path fill="#77767b" d="M40.959 69.801h8.443a3.906 3.906 0 0 0 3.906-3.906v-.005c0-3.594.45-7.134 1.324-10.56H40.96z"/></g></svg>