<svg width="64" height="64" version="1.1" viewBox="0 0 16.933 16.933" xmlns="http://www.w3.org/2000/svg" xmlns:xlink="http://www.w3.org/1999/xlink">
 <defs>
  <linearGradient id="linearGradient14" gradientUnits="userSpaceOnUse">
   <stop stop-color="#4fd2fd" offset="0"/>
   <stop stop-color="#4fd2fd" offset="1"/>
  </linearGradient>
  <clipPath id="f">
   <rect width="192" height="152"/>
  </clipPath>
  <mask id="e">
   <g filter="url(#b)">
    <rect width="128" height="128" fill-opacity=".236"/>
   </g>
  </mask>
  <filter id="b" x="0" y="0" width="1" height="1">
   <feColorMatrix in="SourceGraphic" values="0 0 0 0 1 0 0 0 0 1 0 0 0 0 1 0 0 0 1 0"/>
  </filter>
  <linearGradient id="h" x1="93.539" x2="58.923" y1="240.42" y2="240.42" gradientTransform="matrix(.11977 0 0 .12154 .31797 -21.055)" xlink:href="#linearGradient14"/>
  <clipPath id="j">
   <rect width="192" height="152"/>
  </clipPath>
  <mask id="i">
   <g filter="url(#b)">
    <rect width="128" height="128" fill-opacity=".236"/>
   </g>
  </mask>
  <linearGradient id="k" x1="36.418" x2="21.723" y1="218.4" y2="218.4" gradientTransform="matrix(.12539 0 0 .1143 .7793 -19.468)" xlink:href="#linearGradient14"/>
  <clipPath id="m">
   <rect width="192" height="152"/>
  </clipPath>
  <mask id="l">
   <g filter="url(#b)">
    <rect width="128" height="128" fill-opacity=".236"/>
   </g>
  </mask>
  <linearGradient id="linearGradient3" x1="36.418" x2="21.723" y1="218.4" y2="218.4" gradientTransform="matrix(.12539 0 0 .1143 .7793 -17.503)" xlink:href="#linearGradient14"/>
  <clipPath id="o">
   <rect width="192" height="152"/>
  </clipPath>
  <mask id="n">
   <g filter="url(#b)">
    <rect width="128" height="128" fill-opacity=".236"/>
   </g>
  </mask>
  <linearGradient id="linearGradient2" x1="36.418" x2="21.723" y1="218.4" y2="218.4" gradientTransform="matrix(.12539 0 0 .1143 .7793 -15.537)" xlink:href="#linearGradient14"/>
  <clipPath id="q">
   <rect width="192" height="152"/>
  </clipPath>
  <mask id="p">
   <g filter="url(#b)">
    <rect width="128" height="128" fill-opacity=".236"/>
   </g>
  </mask>
  <linearGradient id="linearGradient1" x1="36.418" x2="21.723" y1="218.4" y2="218.4" gradientTransform="matrix(.12539 0 0 .1143 .7793 -13.572)" xlink:href="#linearGradient14"/>
 </defs>
 <rect x="1.3229" y="1.3229" width="14.287" height="14.287" rx="7.1436" ry="7.1436" fill="#e6e6e6" stroke-width="1.039" paint-order="markers stroke fill"/>
 <path d="m7.4838 6.0097h5.4805v4.4222h-5.4805z" fill="none" stroke="#241f31" stroke-linejoin="round" stroke-width=".98272"/>
 <path d="m7.4838 6.0097h5.216v4.4222h-5.216z" fill="#241f31" stroke-width=".12284"/>
 <path d="m7.4838 4.5356h5.4805z" fill="none" stroke="#241f31" stroke-linejoin="round" stroke-width=".98272"/>
 <path d="m3.7041 4.5356h2.06v7.8618h-2.06z" fill="none" stroke="#241f31" stroke-linejoin="round" stroke-width=".98272"/>
 <path d="m3.7041 4.5356h2.06v7.8618h-2.06z" fill="#241f31" stroke-width=".12284"/>
 <path d="m7.2381 11.66h5.9718z" fill="none" stroke="#241f31" stroke-linejoin="round" stroke-width=".49136"/>
 <path d="m7.2381 12.643h5.9718z" fill="none" stroke="#241f31" stroke-linejoin="round" stroke-width=".49136"/>
 <g transform="matrix(.12284 0 0 .12284 -.37797 -2.0977)" clip-path="url(#f)" mask="url(#e)">
  <path d="m63.385 86.181h15.481l5.625-13.129 3.375 22.261 4.5-9.1329h16.25" fill="none" stroke="#4fd2fd" stroke-miterlimit="10" stroke-width="2.2666"/>
 </g>
 <path d="m7.9373 8.4881h1.3725l0.69097-1.6128 0.41458 2.7346 0.55278-1.1219h0.41458" fill="none" stroke="url(#h)" stroke-linecap="round" stroke-miterlimit="10" stroke-width=".27842"/>
 <g transform="matrix(.12284 0 0 .12284 .063776 -2.0977)" clip-path="url(#j)" mask="url(#i)">
  <path transform="matrix(1.0208 0 0 .9305 5.8248 -141.41)" d="m19.764 219.53h8.8167l2.4491-5.6337 1.4694 9.5505 1.9593-3.9168h8.8167" fill="none" stroke="#4fd2fd" stroke-miterlimit="10" stroke-width=".97963"/>
 </g>
 <path d="m3.5085 5.6254h0.8546l0.3071-0.64395 0.18426 1.0916 0.24568-0.44769h0.18426" fill="none" stroke="url(#k)" stroke-linecap="round" stroke-miterlimit="10" stroke-width=".11728"/>
 <g transform="matrix(.12284 0 0 .12284 .063776 -2.0977)" clip-path="url(#m)" mask="url(#l)">
  <path transform="matrix(1.0208 0 0 .9305 5.8248 -125.41)" d="m19.764 219.53h8.8167l2.4491-5.6337 1.4694 9.5505 1.9593-3.9168h8.8167" fill="none" stroke="#4fd2fd" stroke-miterlimit="10" stroke-width=".97963"/>
 </g>
 <path d="m3.5085 7.5908h0.8546l0.3071-0.64395 0.18426 1.0916 0.24568-0.44769h0.18426" fill="none" stroke="url(#linearGradient3)" stroke-linecap="round" stroke-miterlimit="10" stroke-width=".11728"/>
 <g transform="matrix(.12284 0 0 .12284 .063776 -2.0977)" clip-path="url(#o)" mask="url(#n)">
  <path transform="matrix(1.0208 0 0 .9305 5.8248 -109.41)" d="m19.764 219.53h8.8167l2.4491-5.6337 1.4694 9.5505 1.9593-3.9168h8.8167" fill="none" stroke="#4fd2fd" stroke-miterlimit="10" stroke-width=".97963"/>
 </g>
 <path d="m3.5085 9.5562h0.8546l0.3071-0.64395 0.18426 1.0916 0.24568-0.4477h0.18426" fill="none" stroke="url(#linearGradient2)" stroke-linecap="round" stroke-miterlimit="10" stroke-width=".11728"/>
 <g transform="matrix(.12284 0 0 .12284 .063776 -2.0977)" clip-path="url(#q)" mask="url(#p)">
  <path transform="matrix(1.0208 0 0 .9305 5.8248 -93.406)" d="m19.764 219.53h8.8167l2.4491-5.6337 1.4694 9.5505 1.9593-3.9168h8.8167" fill="none" stroke="#4fd2fd" stroke-miterlimit="10" stroke-width=".97963"/>
 </g>
 <path d="m3.5085 11.521h0.8546l0.3071-0.64395 0.18426 1.0916 0.24568-0.44769h0.18426" fill="none" stroke="url(#linearGradient1)" stroke-linecap="round" stroke-miterlimit="10" stroke-width=".11728"/>
</svg>
