<svg xmlns="http://www.w3.org/2000/svg" xmlns:xlink="http://www.w3.org/1999/xlink" width="64" height="64" viewBox="0 0 16.933 16.933"><defs><linearGradient id="a" gradientUnits="userSpaceOnUse"><stop offset="0" stop-color="#4fd2fd"/><stop offset="1" stop-color="#4fd2fd"/></linearGradient><linearGradient xlink:href="#a" id="f" x1="93.539" x2="58.923" y1="240.42" y2="240.42" gradientTransform="matrix(.11977 0 0 .12154 .318 -21.055)"/><linearGradient xlink:href="#a" id="j" x1="36.418" x2="21.723" y1="218.4" y2="218.4" gradientTransform="matrix(.12539 0 0 .1143 .78 -19.468)"/><linearGradient xlink:href="#a" id="o" x1="36.418" x2="21.723" y1="218.4" y2="218.4" gradientTransform="matrix(.12539 0 0 .1143 .78 -17.503)"/><linearGradient xlink:href="#a" id="r" x1="36.418" x2="21.723" y1="218.4" y2="218.4" gradientTransform="matrix(.12539 0 0 .1143 .78 -15.537)"/><linearGradient xlink:href="#a" id="u" x1="36.418" x2="21.723" y1="218.4" y2="218.4" gradientTransform="matrix(.12539 0 0 .1143 .78 -13.572)"/><clipPath id="c"><path d="M0 0h192v152H0z"/></clipPath><clipPath id="g"><path d="M0 0h192v152H0z"/></clipPath><clipPath id="l"><path d="M0 0h192v152H0z"/></clipPath><clipPath id="p"><path d="M0 0h192v152H0z"/></clipPath><clipPath id="s"><path d="M0 0h192v152H0z"/></clipPath><mask id="d"><g filter="url(#b)"><path fill-opacity=".236" d="M0 0h128v128H0z"/></g></mask><mask id="h"><g filter="url(#b)"><path fill-opacity=".236" d="M0 0h128v128H0z"/></g></mask><mask id="n"><g filter="url(#b)"><path fill-opacity=".236" d="M0 0h128v128H0z"/></g></mask><mask id="q"><g filter="url(#b)"><path fill-opacity=".236" d="M0 0h128v128H0z"/></g></mask><mask id="t"><g filter="url(#b)"><path fill-opacity=".236" d="M0 0h128v128H0z"/></g></mask><filter id="b" width="1" height="1" x="0" y="0"><feColorMatrix in="SourceGraphic" values="0 0 0 0 1 0 0 0 0 1 0 0 0 0 1 0 0 0 1 0"/></filter></defs><rect width="14.287" height="14.287" x="1.323" y="1.323" fill="#e6e6e6" paint-order="markers stroke fill" rx="7.144" ry="7.144"/><path fill="none" stroke="#241f31" stroke-linejoin="round" stroke-width=".983" d="M7.484 6.01h5.48v4.422h-5.48z"/><path fill="#241f31" d="M7.484 6.01H12.7v4.422H7.484z"/><path fill="none" stroke="#241f31" stroke-linejoin="round" stroke-width=".983" d="M7.484 4.536h5.48zm-3.78 0h2.06v7.861h-2.06z"/><path fill="#241f31" d="M3.704 4.536h2.06v7.861h-2.06z"/><path fill="none" stroke="#241f31" stroke-linejoin="round" stroke-width=".491" d="M7.238 11.66h5.972zm0 .983h5.972z"/><g clip-path="url(#c)" mask="url(#d)" transform="translate(-.378 -2.098)scale(.12284)"><path fill="none" stroke="#4fd2fd" stroke-miterlimit="10" stroke-width="2.267" d="M63.385 86.181h15.481l5.625-13.129 3.375 22.261 4.5-9.133h16.25"/></g><path fill="none" stroke="url(#f)" stroke-linecap="round" stroke-miterlimit="10" stroke-width=".278" d="M7.937 8.488H9.31L10 6.875l.415 2.735.553-1.122h.415"/><g clip-path="url(#g)" mask="url(#h)" transform="translate(.064 -2.098)scale(.12284)"><path fill="none" stroke="#4fd2fd" stroke-miterlimit="10" stroke-width=".98" d="M19.764 219.53h8.817l2.449-5.634 1.47 9.55 1.959-3.916h8.816" transform="matrix(1.0208 0 0 .9305 5.825 -141.41)"/></g><path fill="none" stroke="url(#j)" stroke-linecap="round" stroke-miterlimit="10" stroke-width=".117" d="M3.509 5.625h.854l.307-.644.184 1.092.246-.448h.184"/><g clip-path="url(#l)" mask="url(#n)" transform="translate(.064 -2.098)scale(.12284)"><path fill="none" stroke="#4fd2fd" stroke-miterlimit="10" stroke-width=".98" d="M19.764 219.53h8.817l2.449-5.634 1.47 9.55 1.959-3.916h8.816" transform="matrix(1.0208 0 0 .9305 5.825 -125.41)"/></g><path fill="none" stroke="url(#o)" stroke-linecap="round" stroke-miterlimit="10" stroke-width=".117" d="M3.509 7.59h.854l.307-.643.184 1.091.246-.447h.184"/><g clip-path="url(#p)" mask="url(#q)" transform="translate(.064 -2.098)scale(.12284)"><path fill="none" stroke="#4fd2fd" stroke-miterlimit="10" stroke-width=".98" d="M19.764 219.53h8.817l2.449-5.634 1.47 9.55 1.959-3.916h8.816" transform="matrix(1.0208 0 0 .9305 5.825 -109.41)"/></g><path fill="none" stroke="url(#r)" stroke-linecap="round" stroke-miterlimit="10" stroke-width=".117" d="M3.509 9.556h.854l.307-.644.184 1.092.246-.448h.184"/><g clip-path="url(#s)" mask="url(#t)" transform="translate(.064 -2.098)scale(.12284)"><path fill="none" stroke="#4fd2fd" stroke-miterlimit="10" stroke-width=".98" d="M19.764 219.53h8.817l2.449-5.634 1.47 9.55 1.959-3.916h8.816" transform="matrix(1.0208 0 0 .9305 5.825 -93.406)"/></g><path fill="none" stroke="url(#u)" stroke-linecap="round" stroke-miterlimit="10" stroke-width=".117" d="M3.509 11.521h.854l.307-.644.184 1.092.246-.448h.184"/></svg>