<svg xmlns="http://www.w3.org/2000/svg" width="64" height="64"><circle cx="32" cy="32" r="27" style="fill:#f2f2f2;stroke-width:.981818;stroke-linecap:round;stroke-linejoin:round"/><path fill="#4d4d4d" d="M32.469 32.641c-4.167 0-7.545 2.525-7.545 5.64s3.378 5.641 7.545 5.641 7.544-2.526 7.544-5.64c0-3.116-3.378-5.64-7.544-5.64"/><path fill="#6b6b6b" d="M53 40.065v-4.229c-2.889-.767-4.715-.984-5.634-2.642v-.001c-.921-1.662.175-2.792 1.483-4.85l-3.998-2.99c-2.733.971-4.259 1.8-6.488 1.109h-.001c-2.221-.69-2.513-2.063-3.534-4.212h-5.657c-1.017 2.139-1.31 3.522-3.533 4.212h-.001c-2.225.69-3.73-.129-6.488-1.109l-3.998 2.99c1.305 2.052 2.406 3.185 1.483 4.85S13.86 35.075 11 35.837v4.228c2.856.758 4.71.98 5.634 2.642.928 1.677-.2 2.833-1.483 4.85l3.998 2.99c2.734-.971 4.26-1.799 6.488-1.107h.001c2.223.688 2.343 1.414 3.362 3.56h6c1.018-2.14 1.14-2.869 3.376-3.565h.001c2.207-.685 3.71.133 6.47 1.114l4-2.991c-1.303-2.046-2.406-3.183-1.484-4.85.922-1.662 2.779-1.883 5.637-2.643zM32 43.25c-3.866 0-7-2.41-7-5.3s3.134-5.233 7-5.233 7 2.343 7 5.234c0 2.889-3.134 5.299-7 5.299"/><path fill="#bcbcc3" d="M25.241 11c-.826 0-1.491.616-1.491 1.38v9.87h16.5v-9.87c0-.765-.666-1.38-1.491-1.38Zm-7.16 10.5c-1.217 0-1.831.962-1.831 1.579C16.25 26.687 27.477 41.75 32 41.75S47.75 26.687 47.75 23.08c0-.617-.613-1.58-1.83-1.58h-5.67v.75h-16.5v-.75z"/></svg>