<svg width="64" height="64" viewBox="0 0 16.933 16.933" xmlns="http://www.w3.org/2000/svg"><defs><linearGradient id="a" x1="69.033" x2="64.443" y1="454.92" y2="449.57" gradientTransform="translate(-8.085 -395.13)" gradientUnits="userSpaceOnUse"><stop stop-color="#2B3B6A" offset="0"/><stop stop-color="#2B3B6A" offset="1"/></linearGradient></defs><circle cx="8.466" cy="8.466" r="7.144" fill="#f0f0f0" style="paint-order:stroke fill markers"/><path class="st0" fill="url(#a)" d="m54.9 55.8 7.1-.2-3.6 6.6z" transform="matrix(.08796 0 0 .0889 3.352 3.325)"/><g fill="#222856"><path class="st1" d="M10.872 8.436c2.296.373 2.622.951 2.622.951v.107c0 .018-.01.036-.018.062s-.238.507-1.724.827z"/><path class="st2" d="M5.093 10.303c-.519 1.396-.255 1.831-.237 1.867.009.018.017.035.035.044.035 0 .07-.009.105-.018 0 0 .942-.044 2.041-1.626z"/><path class="st3" d="M8.524 4.978C7.266 3.582 6.65 3.662 6.615 3.671a.162.162 0 0 0-.062.018c-.044.018-.088.16-.088.16s-.263.773.8 2.836z"/></g><g fill="#24426c"><path class="st4" d="M9.614 10.33c1.707 1.973 2.305 1.866 2.305 1.866a.51.51 0 0 0 .114.018c.018-.009.027-.026.036-.044.026-.036.475-.848-1.161-3.728z"/><path class="st5" d="M7.407 10.632C3.888 10.48 3.466 9.6 3.448 9.556c0-.018-.008-.035-.008-.053.008-.062.132-.178.132-.178s.932-.578 2.489-.889z"/><path class="st7" d="M9.843 6.471c.915-2.195.563-2.702.563-2.702-.009-.027-.018-.062-.026-.089-.018-.009-.036-.009-.062-.018-.044-.009-1.005-.089-3.029 2.774z"/></g><path class="st8" d="M8.482 11.974c-1.25 1.369-1.876 1.298-1.911 1.298a.776.776 0 0 1-.15-.071l-1.53-.987c.642-.142 1.47-.918 2.297-1.905z" fill="#2072ae"/><path class="st10" d="M5.172 6.703c-.554-1.44-.281-1.894-.263-1.92a.464.464 0 0 1 .123-.107l1.521-.978c-.132.631.217 1.609.736 2.738z" fill="#26b1ed"/><path class="st11" d="M8.383 8.41c-.765 0-1.53.062-2.287.168.026.045.378.64.633 1.04 2.446 3.805 3.59 3.654 3.642 3.645a.776.776 0 0 0 .15-.07l1.521-.979c-1.038-.222-2.48-1.938-3.659-3.805z" fill="#26b1ed"/><path class="st13" d="M10.817 8.6c1.188.17 2.228.44 2.677.894V7.672a1.1 1.1 0 0 0-.018-.17c-.009-.026-.282-.511-1.716-.822z" fill="#0e88c8"/><path class="st15" d="M9.79 6.445c-.264-.01-.835-.036-1.328-.036-4.486 0-4.987 1.05-5.005 1.094-.017.053-.017.115-.017.169v1.83c.44-.444 1.398-.684 2.568-.861a17.748 17.748 0 0 1 2.278-.178h.422c-.008 0 1.355-2.01 1.082-2.018z" fill="#0e88c8"/><path class="st18" d="M8.47 8.552c1.224-1.858 2.13-3.805 1.9-4.863l1.523.978a.464.464 0 0 1 .123.107c.026.044.624 1.04-1.821 4.844-.176.285-.385.685-.447.712-.36-.356-1.066-1.458-1.25-1.716a.532.532 0 0 1-.027-.062z" fill="#2072ae"/></svg>