<svg width="64" height="64" xmlns="http://www.w3.org/2000/svg"><defs><linearGradient id="a" x2="0" y1="-521.8" y2="-525.8" gradientUnits="userSpaceOnUse"><stop stop-color="#2a2c2f" offset="0"/><stop stop-color="#424649" offset="1"/></linearGradient></defs><g transform="matrix(1.35 0 0 1.35 -519.57 -675.13)" stroke-width=".741"><rect x="388.57" y="503.8" width="40" height="40" rx="20" fill="#383b3e"/><rect x="401.57" y="516.8" width="14" height="14" rx="7" fill="#f57953"/><rect transform="scale(1 -1)" x="406.57" y="-525.8" width="4" height="4" rx="2" fill="url(#a)"/><path d="M408.57 517.8c-3.324 0-6 2.676-6 6s2.676 6 6 6 6-2.676 6-6-2.676-6-6-6m0 1c2.77 0 5 2.23 5 5s-2.23 5-5 5-5-2.23-5-5 2.23-5 5-5" fill="#fff" fill-opacity=".275"/><g fill="#4c5053"><path d="M418.07 507.34c-.971-.56-1.973-1-2.99-1.377l-3.465 9.368c.495.179.982.396 1.454.668.472.273.903.587 1.306.925l6.381-7.685a19.04 19.04 0 0 0-2.687-1.901M399.07 540.25a18.959 18.959 0 0 1-2.687-1.901l6.381-7.685c.403.339.834.653 1.306.925.472.273.96.489 1.454.668l-3.465 9.368a19.039 19.039 0 0 1-2.99-1.376"/><g fill-opacity=".198"><path d="M422.01 510.36a19 19 0 0 0-2.531-2.103l-5.771 8.152c.431.301.846.636 1.232 1.022s.721.801 1.022 1.232l8.152-5.771a19.013 19.013 0 0 0-2.103-2.531M395.14 537.23a18.945 18.945 0 0 1-2.103-2.532l8.152-5.771c.301.431.636.846 1.022 1.232s.801.721 1.232 1.022l-5.771 8.152a19.013 19.013 0 0 1-2.531-2.103"/><path d="M425.03 514.3a18.959 18.959 0 0 0-1.901-2.687l-7.685 6.381c.339.403.653.834.925 1.306.273.472.489.96.668 1.454l9.368-3.465a18.955 18.955 0 0 0-1.377-2.99M392.12 533.3c-.56-.971-1-1.973-1.377-2.99l9.368-3.465c.179.495.396.982.668 1.454.273.472.587.903.925 1.306l-7.685 6.381a19.04 19.04 0 0 1-1.901-2.687"/></g></g></g></svg>