<svg xmlns="http://www.w3.org/2000/svg" width="64" height="64"><circle cx="32" cy="32" r="27" fill="#a7a7a7" style="paint-order:stroke fill markers"/><circle cx="32" cy="32" r="24" fill="#646464" style="paint-order:stroke fill markers"/><path fill="#fff" d="m17.39 35.612-2.903-4.995v4.995H13v-7.224h1.526l2.864 4.915v-4.915h1.487v7.224zm7.003-10.528v7.225h-1.487v-7.225zm6.178 6.607v5.986h3.46v1.239h-4.946V31.69zm9.259 4.08a4.3 4.3 0 0 1-1.536 0 3.4 3.4 0 0 1-.763-.247q-.387-.178-.674-.456c-.287-.278-.35-.43-.476-.733a2.9 2.9 0 0 1-.178-1.05v-4.896h1.486v4.895q0 1.29 1.378 1.289 1.377 0 1.377-1.289v-4.895h1.487v4.895q0 .585-.188 1.05-.18.458-.466.734c-.286.276-.42.337-.684.456a3.2 3.2 0 0 1-.763.248m8.851-7.149 2.32 3.687h-1.765L47.85 29.8l-1.38 2.51h-1.724l2.28-3.637-2.201-3.588h1.764l1.269 2.379 1.328-2.379h1.724z"/></svg>