<svg width="64" height="64" xmlns="http://www.w3.org/2000/svg"><circle cx="32" cy="32" r="27" fill="#a7a7a7" style="paint-order:stroke fill markers"/><circle cx="32" cy="32" r="24" fill="#646464" style="paint-order:stroke fill markers"/><g fill="#fff"><path d="m17.39 35.612-2.903-4.995v4.995H13v-7.224h1.526l2.864 4.915v-4.915h1.487v7.224H17.39M24.393 25.084v7.225h-1.487v-7.225h1.487M30.571 31.691v5.986h3.46v1.239h-4.946V31.69h1.486M39.83 35.77a4.26 4.26 0 0 1-1.536 0 3.412 3.412 0 0 1-.763-.247c-.258-.119-.483-.27-.674-.456s-.35-.43-.476-.733a2.92 2.92 0 0 1-.178-1.05v-4.896h1.486v4.895c0 .86.46 1.289 1.378 1.289.918 0 1.377-.43 1.377-1.289v-4.895h1.487v4.895c0 .39-.063.74-.188 1.05-.12.305-.275.55-.466.734s-.42.337-.684.456a3.209 3.209 0 0 1-.763.248M48.681 28.622l2.32 3.687h-1.765L47.85 29.8 46.47 32.31h-1.724l2.28-3.637-2.201-3.588h1.764l1.269 2.379 1.328-2.379h1.724l-2.23 3.538"/></g></svg>