<svg width="64" height="64" version="1.1" xmlns="http://www.w3.org/2000/svg">
 <circle cx="32" cy="32" r="27" fill="#33393e" stroke-width="3.7796" style="paint-order:stroke fill markers"/>
 <circle cx="32" cy="32" r="25" fill="#4d4d4d" stroke-width="3.4996" style="paint-order:stroke fill markers"/>
 <g stroke-width="0">
  <path d="m32 5a27 27 0 0 0-7.8008 1.1758v14.125c0 0.7202 0.58058 1.2988 1.3008 1.2988h13c0.7202 0 1.3008-0.57863 1.3008-1.2988v-14.141a27 27 0 0 0-7.8008-1.1602z" fill="#d64239"/>
  <path d="m42.42 7.0957c-0.01055 0.066955-0.01953 0.13507-0.01953 0.20508v13c0 0.7202 0.57863 1.2988 1.2988 1.2988h13c0.06202 0 0.12198-0.0093 0.18164-0.01758a27 27 0 0 0-14.461-14.486z" fill="#ffb345"/>
  <path d="m21.582 7.1191a27 27 0 0 0-14.486 14.461c0.066955 0.01056 0.13507 0.01953 0.20508 0.01953h13c0.7202 0 1.2988-0.57863 1.2988-1.2988v-13c0-0.06202-0.0093-0.12198-0.01758-0.18164z" fill="#467fab"/>
  <path d="m43.699 24.199c-0.7202 0-1.2988 0.58058-1.2988 1.3008v13c0 0.7202 0.57863 1.3008 1.2988 1.3008h14.141a27 27 0 0 0 1.1602-7.8008 27 27 0 0 0-1.1758-7.8008h-14.125z" fill="#d64239"/>
  <path d="m6.1602 24.199a27 27 0 0 0-1.1602 7.8008 27 27 0 0 0 1.1758 7.8008h14.125c0.7202 0 1.2988-0.58058 1.2988-1.3008v-13c0-0.7202-0.57863-1.3008-1.2988-1.3008h-14.141z" fill="#467fab"/>
  <path d="m7.3008 42.4c-0.06202 0-0.12198 0.0093-0.18164 0.01758a27 27 0 0 0 14.461 14.486c0.01056-0.06696 0.01953-0.13507 0.01953-0.20508v-13c0-0.7202-0.57863-1.2988-1.2988-1.2988z" fill="#d64239"/>
  <path d="m43.699 42.4c-0.7202 0-1.2988 0.57863-1.2988 1.2988v13c0 0.06202 0.0093 0.12198 0.01758 0.18164a27 27 0 0 0 14.486-14.461c-0.06696-0.01055-0.13507-0.01953-0.20508-0.01953z" fill="#ffb345"/>
  <path d="m25.5 42.4c-0.7202 0-1.3008 0.57863-1.3008 1.2988v14.141a27 27 0 0 0 7.8008 1.1602 27 27 0 0 0 7.8008-1.1758v-14.125c0-0.7202-0.58058-1.2988-1.3008-1.2988h-13z" fill="#467fab"/>
  <rect transform="rotate(-90)" x="-39.8" y="24.2" width="15.6" height="15.6" rx="1.3" ry="1.3" fill="#ffb345"/>
 </g>
</svg>
