<svg width="64" height="64" version="1.1" xmlns="http://www.w3.org/2000/svg">
 <circle cx="32" cy="32" r="27" fill="#455a64" stroke-width="3.7796" style="paint-order:stroke fill markers"/>
 <path d="m35 49v6h1v-6h-1zm-16 4v0.31641a25 25 0 0 0 1 0.61524v-0.93164h-1zm4 0v2h1v-2h-1zm4 0v2h1v-2h-1zm4 0v2h1v-2h-1zm8 0v2h1v-2h-1zm4 0v1.4316a25 25 0 0 0 1-0.53125v-0.90039h-1zm-22 1v0.41602a25 25 0 0 0 1 0.48438v-0.90039h-1zm4 0v1h1v-1h-1zm4 0v1h1v-1h-1zm4 0v1h1v-1h-1zm4 0v1h1v-1h-1zm4 0v1h0.73047a25 25 0 0 0 0.26953-0.12109v-0.87891h-1z" fill="#b0bec5"/>
 <path d="m48 39v2h1v-1h1v-1zm3 0v1h1v1h1v-2zm-3 3v2h2v-1h-1v-1zm4 0v1h-1v1h2v-2z" fill="#eee"/>
 <path d="m35.5 46.998a1.5 1.5 0 0 0-1.5 1.5c0 0.828 1 3.5 1.5 3.5s1.5-2.672 1.5-3.5a1.5 1.5 0 0 0-1.5-1.5zm0 1a0.5 0.5 0 1 1 0 1 0.5 0.5 0 0 1 0-1z" fill="#ffd54f"/>
 <path d="m10.988 37.998a1 1 0 0 0-0.987 1v3.998a1 1 0 0 0 1.555 0.832l3-2a1 1 0 0 0 0-1.663l-3-2a1 1 0 0 0-0.568-0.167z" fill="#eceff1" fill-rule="evenodd" font-weight="400" overflow="visible" style="isolation:auto;mix-blend-mode:normal;text-decoration-color:#000000;text-decoration-line:none;text-decoration-style:solid;text-indent:0;text-transform:none;white-space:normal"/>
 <rect x="27" y="40" width="19" height="2" rx="1" ry="1" fill="#eee" stroke-width=".95119"/>
 <rect x="17" y="40" width="10" height="2" ry="1" fill="#42a5f5"/>
 <circle cx="27" cy="41" r="3" fill="#78909c"/>
 <path d="m34 55 1-2h1l1 2z" fill="#b0bec5" fill-rule="evenodd"/>
 <path d="m17.041 12a25 25 0 0 0-2.041 1.6992v0.30078h4v-2h-1.959zm3.959 0v2h4v-2h-4zm6 0v2h4v-2h-4zm6 0v2h4v-2h-4zm6 0v2h4v-2h-4zm6 0v2h4v-0.28711a25 25 0 0 0-2.0508-1.7129h-1.9492z" fill="#263238"/>
 <rect x="17" y="17.04" width="30" height="17.96" ry="0" fill="#81d4fa"/>
 <path d="m12.01 17.039a25 25 0 0 0-5.0098 14.961 25 25 0 0 0 0.21094 3h5.7891v-17.961h-0.99023zm38.99 0v17.961h5.7988a25 25 0 0 0 0.20117-3 25 25 0 0 0-5.002-14.961h-0.99805z" fill="#81d4fa"/>
</svg>
