<svg width="64" height="64" version="1.1" xmlns="http://www.w3.org/2000/svg">
 <path d="m32.15 5.001a27.01 27.01 0 0 0-2.9161 0.13867l-0.64454 4.1856a22.959 22.959 0 0 0-4.9786 1.3321l-2.6407-3.2969a27.01 27.01 0 0 0-4.7931 2.7735l1.5313 3.9317a22.959 22.959 0 0 0-3.6583 3.6407l-3.9083-1.5235a27.01 27.01 0 0 0-2.7676 4.7989l3.2696 2.6211a22.959 22.959 0 0 0-0.82033 2.4551 22.959 22.959 0 0 0-0.50001 2.5352l-4.1778 0.64064a27.01 27.01 0 0 0-0.00781 5.5333l4.1856 0.64259a22.959 22.959 0 0 0 1.3321 4.9786l-3.2969 2.6426a27.01 27.01 0 0 0 2.7735 4.7931l3.9317-1.5332a22.959 22.959 0 0 0 3.6387 3.6602l-1.5215 3.9063a27.01 27.01 0 0 0 4.7989 2.7676l2.6211-3.2696a22.959 22.959 0 0 0 2.4571 0.82228 22.959 22.959 0 0 0 2.5332 0.49806l0.64259 4.1778a27.01 27.01 0 0 0 5.5333 0.0078l0.64064-4.1856a22.959 22.959 0 0 0 4.9806-1.3301l2.6407 3.295a27.01 27.01 0 0 0 4.7931-2.7735l-1.5332-3.9317a22.959 22.959 0 0 0 3.6602-3.6387l3.9063 1.5215a27.01 27.01 0 0 0 2.7696-4.7989l-3.2715-2.6211a22.959 22.959 0 0 0 0.82228-2.4551 22.959 22.959 0 0 0 0.49806-2.5352l4.1798-0.64064a27.01 27.01 0 0 0 0.0078-5.5333l-4.1876-0.64259a22.959 22.959 0 0 0-1.3301-4.9786l3.2969-2.6426a27.01 27.01 0 0 0-2.7735-4.793l-3.9317 1.5332a22.959 22.959 0 0 0-3.6407-3.6602l1.5235-3.9063a27.01 27.01 0 0 0-4.7989-2.7676l-2.6192 3.2696a22.959 22.959 0 0 0-2.459-0.82228 22.959 22.959 0 0 0-2.5332-0.49806l-0.64064-4.1778a27.01 27.01 0 0 0-2.6172-0.14649z" color="#000000" fill="#d9dddd" stroke-linecap="round" stroke-linejoin="round" stroke-width="3"/>
 <circle transform="rotate(195)" cx="-39.192" cy="-22.627" r="20" color="#000000" opacity=".1" stroke-linecap="round" stroke-linejoin="round" stroke-width="3.7023"/>
 <circle transform="rotate(195)" cx="-39.192" cy="-22.627" r="17" color="#000000" fill="#4abd7e" stroke-linecap="round" stroke-linejoin="round" stroke-width="3.147"/>
 <path d="m19.845 37.401 5.402 5.402 2.701-8.103z" fill="#fff" fill-rule="evenodd" stroke-width=".99998"/>
</svg>
