<?xml version="1.0" encoding="UTF-8" standalone="no"?>
<svg
   width="64"
   height="64"
   viewBox="0 0 16.933 16.933"
   version="1.1"
   id="svg2"
   sodipodi:docname="kdiskmark.svg"
   xml:space="preserve"
   inkscape:version="1.4.1 (93de688d07, 2025-03-30)"
   xmlns:inkscape="http://www.inkscape.org/namespaces/inkscape"
   xmlns:sodipodi="http://sodipodi.sourceforge.net/DTD/sodipodi-0.dtd"
   xmlns="http://www.w3.org/2000/svg"
   xmlns:svg="http://www.w3.org/2000/svg"><defs
     id="defs2" /><sodipodi:namedview
     id="namedview2"
     pagecolor="#505050"
     bordercolor="#ffffff"
     borderopacity="1"
     inkscape:showpageshadow="0"
     inkscape:pageopacity="0"
     inkscape:pagecheckerboard="1"
     inkscape:deskcolor="#505050"
     inkscape:zoom="3.2070313"
     inkscape:cx="-83.09866"
     inkscape:cy="21.047503"
     inkscape:window-width="1920"
     inkscape:window-height="1012"
     inkscape:window-x="0"
     inkscape:window-y="0"
     inkscape:window-maximized="1"
     inkscape:current-layer="svg2" /><circle
     cx="8.4659996"
     cy="8.4659996"
     r="7.1440001"
     fill="#f0f0f0"
     style="display:inline;fill:#35cedc;fill-opacity:1;paint-order:stroke fill markers"
     id="circle1" /><g
     id="g3"
     transform="translate(0.02007248,-1.0770667)"
     inkscape:label="g2"><path
       style="fill:#ffffff;stroke-width:0.863994"
       d="m 103.90327,23.073148 c -10.264054,0.05374 -18.652473,8.282684 -18.903249,18.543811 a 1.2959911,1.2959911 0 0 0 1.263929,1.326366 1.2959911,1.2959911 0 0 0 1.328053,-1.26393 c 0.217216,-8.887927 7.434303,-15.967714 16.324767,-16.014264 8.89046,-0.04655 16.18154,6.956975 16.49182,15.842141 a 1.2959911,1.2959911 0 0 0 1.33987,1.250429 1.2959911,1.2959911 0 0 0 1.25043,-1.339866 c -0.35822,-10.257938 -8.83157,-18.39843 -19.09562,-18.344687 z m 11.08004,10.371304 c -0.079,-0.006 -0.15815,-0.0045 -0.23793,0.0051 -0.31764,0.03751 -0.60832,0.198873 -0.80662,0.447149 l -7.61563,9.574809 c -0.71531,-0.296356 -1.49965,-0.526496 -2.3203,-0.526496 -3.3259,0 -6.047961,2.758487 -6.047961,6.047959 h 2.591981 c 0,-1.996356 1.43751,-3.455977 3.45598,-3.455977 2.01846,0 3.45598,1.459621 3.45598,3.455977 h 2.59198 c 0,-1.617549 -0.66006,-3.08846 -1.72461,-4.168097 l 7.51269,-9.448248 c 0.41355,-0.518794 0.32365,-1.269932 -0.20081,-1.679051 -0.18943,-0.147479 -0.4179,-0.234903 -0.65475,-0.253123 z"
       id="path4"
       transform="matrix(0.26457812,0,0,0.26457812,-19.069606,-1.5874686)"
       inkscape:label="path1" /><circle
       style="fill:none;fill-opacity:1;stroke:#ffffff;stroke-width:0.695605;stroke-dasharray:none;stroke-opacity:1"
       id="path3"
       cx="8.4499359"
       cy="11.375"
       r="1.254599"
       inkscape:label="path2" /></g></svg>
