<svg width="64" height="64" version="1.1" xmlns="http://www.w3.org/2000/svg">
 <circle cx="32" cy="32" r="27" fill="#3491d6" stroke-linecap="round" stroke-linejoin="round" stroke-width="4.4304"/>
 <text x="-27.930717" y="19.715731"><tspan x="-27.930717" y="56.110737"/></text>
 <text x="-49.243217" y="15.715731"><tspan x="-49.243217" y="52.110737"/></text>
 <circle cx="32" cy="32" r="24" fill="#ffffff" opacity=".15" stroke-linecap="round" stroke-linejoin="round" stroke-width="3.9381"/>
 <path d="m16 20v24h4.526v-10.628l10.044 10.628h5.5885v-0.27344l-11.552-12.104 10.661-11.484v-0.13802h-5.6224l-9.1198 10.148v-10.148zm26.115 0.01563c-3.1845 0.18925-4.7839 2.1738-4.7839 5.1302 0 3.2763 2.2123 5.3646 5.2839 5.3646 3.2354-4e-6 5.3854-2.0684 5.3854-5.5495 0-1.5358-0.53226-3.2763-1.638-4.3411l-1.5781 1.5964c0.59383 0.57336 0.94271 1.7817 0.94271 2.7031 0 1.761-0.89934 2.8466-2.1484 3.0104v-7.8828c-0.5196-0.04863-1.0086-0.05828-1.4635-0.03125zm-0.60677 2.4271v5.4453c-1.3105-0.36859-1.9635-1.474-1.9635-2.8255 0-1.4334 0.65301-2.456 1.9635-2.6198zm-8.0885 9.8177v2.4792h14.315v-2.4792zm1.3724 4.513c-1.9453 0-1.9453 2.9505 0 2.9505s1.9453-2.9505 0-2.9505zm2.8073 0.22656v2.4974h10.135v-2.4974z" fill="#ffffff" stroke-width="1.3333"/>
</svg>
