<svg xmlns="http://www.w3.org/2000/svg" width="64" height="64"><circle cx="32" cy="32" r="27" fill="#3491d6"/><circle cx="32" cy="32" r="24" fill="#fff" opacity=".15"/><path fill="#fff" d="M16 20v24h4.526V33.372L30.57 44h5.589v-.273L24.607 31.623l10.66-11.484V20h-5.622l-9.12 10.148V20zm26.115.016c-3.185.189-4.784 2.173-4.784 5.13 0 3.276 2.212 5.364 5.284 5.364 3.235 0 5.385-2.068 5.385-5.55 0-1.535-.532-3.275-1.638-4.34l-1.578 1.596c.594.574.943 1.782.943 2.703 0 1.761-.9 2.847-2.148 3.01v-7.882a9.6 9.6 0 0 0-1.464-.031m-.607 2.427v5.445c-1.31-.369-1.963-1.474-1.963-2.825 0-1.434.653-2.456 1.963-2.62M33.42 32.26v2.48h14.315v-2.48zm1.372 4.513c-1.945 0-1.945 2.95 0 2.95s1.945-2.95 0-2.95M37.6 37v2.497h10.135V37z"/></svg>