<svg width="64" height="64" xmlns="http://www.w3.org/2000/svg" xmlns:xlink="http://www.w3.org/1999/xlink"><defs><path id="a" d="m410.57 528.8-1.996-10h12z" fill="#feb70d" stroke-linejoin="bevel"/></defs><circle cx="32" cy="32" r="27" fill="#c7ced2" style="paint-order:stroke fill markers"/><circle cx="32" cy="32" r="24" fill="#333639" style="paint-order:stroke fill markers"/><g transform="translate(-488 -641.018) scale(1.2727)"><g transform="translate(-14 9.999)"><path d="m410.57 528.8 4.14-5.64 5.86-4.36 2 10z" fill="#6af804" fill-rule="evenodd"/><use width="100%" height="100%" xlink:href="#a"/></g><path d="m396.58 538.8-2-10h12l1.994 10z" fill="#fff" fill-opacity=".353"/><g transform="translate(-7 4.999)"><path d="m410.57 528.8 3.751-6.06 6.249-3.936 2 10z" fill="#6af804" fill-rule="evenodd"/><use width="100%" height="100%" xlink:href="#a"/></g><path d="m410.57 528.8 4.627-5.577 5.373-4.423 2 10z" fill="#6af804" fill-rule="evenodd"/><use width="100%" height="100%" xlink:href="#a"/><path d="m410.57 528.8-1.996-10h12l1.994 10z" fill-opacity=".353"/></g></svg>