<svg width="64" height="64" xmlns="http://www.w3.org/2000/svg"><circle cx="32" cy="32" r="27" fill="#eceff1" style="paint-order:stroke fill markers"/><g transform="translate(0 -1058.5)"><path d="M22 1070.5v2h9v-2zm-6 4v2h22v-2zm0 6v2h31v-2zm0 4v2h31v-2zm0 4v2h31v-2zm0 6v2h31v-2zm0 4v2h31v-2zm0 4v2h15v-2zm19 7v2h7v-2z" fill="#90a4ae"/><path d="M47 1087.5a10 10 0 0 0-10 10 10 10 0 0 0 10 10h7c1.662 0 3-1.338 3-3v-7a10 10 0 0 0-10-10z" fill="#546e7a"/><circle cx="55" cy="1105.5" fill="#37474f"/><circle transform="scale(-1 1)" cx="-47" cy="1097.5" fill="#eceff1"/><circle transform="scale(-1 1)" cx="-47" cy="1097.5" fill="#d0eaf6"/><path d="M42.111 1092.5a7 7 0 0 0-2.033 4H49v-4h-6.89zm-2.031 6a7 7 0 0 0 2.023 4H49v-4h-8.92z" fill="#8ab1c3"/></g></svg>