<svg xmlns="http://www.w3.org/2000/svg" width="64" height="64" viewBox="0 0 16.933 16.933"><path fill="#2f8dac" d="M8.466 1.323A7.14 7.14 0 0 0 1.644 6.35h13.638a7.14 7.14 0 0 0-6.815-5.027z" style="paint-order:stroke fill markers"/><circle cx="8.466" cy="8.466" r="6.35" fill="#fff" style="paint-order:stroke fill markers"/><path fill="#26a4ca" d="M14.866 5.3 3.402 13.5a7.14 7.14 0 0 0 5.064 2.11 7.144 7.144 0 0 0 7.143-7.144 7.14 7.14 0 0 0-.743-3.165z" style="paint-order:markers stroke fill"/><path fill="#49bde3" d="M2.07 5.304a7.14 7.14 0 0 0-.747 3.163 7.144 7.144 0 0 0 7.143 7.143 7.14 7.14 0 0 0 5.063-2.11z" style="paint-order:markers stroke fill"/><g stroke-linecap="round"><circle cx="12.964" cy="12.435" r="3.175" fill="#666"/><path fill="#fff" d="m10.848 12.436 1.87-1.871.375.374-1.871 1.87z"/><path fill="#fff" d="m10.848 12.436 1.87 1.871.375-.374-1.871-1.871z"/><path fill="#fff" d="M11.377 12.171h3.704v.529h-3.704z"/></g></svg>