<svg width="64" height="64" version="1.1" viewBox="0 0 16.933 16.933" xmlns="http://www.w3.org/2000/svg">
 <path d="m8.466 1.323a7.14 7.14 0 0 0-6.822 5.027h13.638a7.14 7.14 0 0 0-6.815-5.027z" fill="#2f8dac" style="paint-order:stroke fill markers"/>
 <circle cx="8.466" cy="8.466" r="6.35" fill="#ffffff" style="paint-order:stroke fill markers"/>
 <path d="m14.866 5.3-11.464 8.2a7.14 7.14 0 0 0 5.064 2.11 7.144 7.144 0 0 0 7.143-7.144 7.14 7.14 0 0 0-0.743-3.165z" fill="#26a4ca" style="paint-order:markers stroke fill"/>
 <path d="m2.07 5.304a7.14 7.14 0 0 0-0.747 3.163 7.144 7.144 0 0 0 7.143 7.143 7.14 7.14 0 0 0 5.063-2.11z" fill="#49bde3" style="paint-order:markers stroke fill"/>
 <g stroke-linecap="round">
  <circle cx="12.964" cy="12.435" r="3.1749" fill="#666666" stroke-width=".55218"/>
  <rect transform="rotate(-45)" x="-1.1225" y="16.464" width="2.6458" height=".52916" fill="#ffffff" stroke-width=".70994"/>
  <rect transform="matrix(.70711 .70711 .70711 -.70711 0 0)" x="16.464" y="-1.1225" width="2.6458" height=".52916" fill="#ffffff" stroke-width=".70995"/>
  <rect x="11.377" y="12.171" width="3.7041" height=".52916" fill="#ffffff" stroke-width=".51122"/>
 </g>
</svg>
