<svg xmlns="http://www.w3.org/2000/svg" width="64" height="64"><rect width="54" height="54" x="5" y="5" fill="#3f3f3f" rx="27" ry="27"/><path fill="none" stroke="#757575" stroke-linecap="round" stroke-linejoin="round" stroke-width="2" d="M50 45h-4m-4 0h-4m-4 0h-4m-4 0h-4m-4 0h-4m36-8h-4m-4 0h-4m-4 0h-4m-4 0h-4m-4 0h-4m4 0h-4m36-9h-4m-4 0h-4m-4 0h-4m-4 0h-4m-4 0h-4m36-9h-4m-4 0h-4m-4 0h-4m-4 0h-4m-4 0h-4"/><path fill="#ffc540" d="M33.004 5.025v18.471c-.031.383.113.677.604.385l4.892-4.306 4.893 4.306c.49.292.635-.002.603-.385V7.793a26.95 26.95 0 0 0-10.992-2.767z"/><path fill="none" stroke="#fff" stroke-linecap="round" stroke-linejoin="round" stroke-width="6" d="M16 28v17m11-17-10.023 7.988M27 45l-10.023-7.755"/><circle cx="16" cy="20" r="3" fill="#ffc540"/></svg>