<?xml version="1.0" encoding="UTF-8"?>
<svg id="svg2782" width="64" height="64" version="1.1" xml:space="preserve" xmlns="http://www.w3.org/2000/svg" xmlns:xlink="http://www.w3.org/1999/xlink"><defs id="defs2786"><clipPath id="clipPath5247"><path id="path5249" d="m307.09 257.37a121.22 121.22 0 0 0-121.22 121.22 121.22 121.22 0 0 0 121.22 121.22 121.22 121.22 0 0 0 121.22-121.22 121.22 121.22 0 0 0-121.22-121.22zm0 24.242a96.975 96.975 0 0 1 96.975 96.975 96.975 96.975 0 0 1-96.975 96.975 96.975 96.975 0 0 1-96.975-96.975 96.975 96.975 0 0 1 96.975-96.975z" fill="#b3b3b3" stroke="#000" stroke-width=".046"/></clipPath><clipPath id="clipPath5610"><path id="path5612" d="m4.6453 193.85v294.52h397.71v-294.52h-397.71zm322.24 151.56a115.99 115.99 0 0 1 19.682 1.8949 115.99 115.99 0 0 1 26.413 8.3374v86.035h-75.407a21.56 21.56 0 0 0-17.499-23.859 21.56 21.56 0 0 0-2.002-0.25541v-61.797a115.99 115.99 0 0 1 48.813-10.356z" fill="#f00" opacity=".466" stroke="#000" stroke-width=".19403"/></clipPath></defs><circle id="path386" cx="32" cy="32" r="25.737" fill="#ffe5aa"/><g id="g2172" transform="matrix(.83417 0 0 .83417 12.92 10.673)"><path id="path17563" transform="matrix(.0091402 0 0 -.0091402 -23.394 60.243)" d="m4658.7 4641.2c78.118-45.066 178.39-18.199 223.46 59.876 45.087 78.093 18.221 178.36-59.861 223.41-78.14 45.15-178.37 18.295-223.48-59.806-45.091-78.079-18.232-178.32 59.88-223.48zm836.31 713.77c289.46-167.12 455.84-478.43 434.28-812.5 0.011-0.042 0.1961-0.7319 0.1961-0.7319-1.3839-20.057 8.5188-39.956 25.722-51.97l1752-1012.3c4.1694-2.4429 7.8189-5.7039 10.695-9.6248 43.54-59.188 65.585-117.36 76.426-155.69 2.5395-9.1399 1.2962-18.856-3.3626-27.028l-10.661-18.424-65.942-114.15-19.834-34.353c-4.4884-7.7948-8.1671-12.25-16.788-14.756l-92.52-27.068c-0.2299 0.014-0.2561-0.1139-0.3124-0.129l-129.91-16.012c-0.084-0.023-0.1435-0.084-0.1857-0.095l-110.25-2.2823-76.148 12.044c-13.557 2.2354-24.575 12.166-28.15 25.509 0 0-2.3872 8.9092-4.2011 15.679-11.027-2.9848-22.92-6.1715-22.92-6.1715-8.9936-2.4099-18.515-1.1598-26.546 3.4767-8.056 4.675-13.907 12.324-16.309 21.29 0 0-3.1867 11.893-6.166 23.012-14.272-3.824-28.839-7.7273-28.839-7.7273-8.9092-2.3872-18.473-1.1484-26.55 3.4908l-91.989 53.146c-8.1583 4.6626-13.963 12.309-16.362 21.26l-26.474 98.804-98.728-26.53c-8.9514-2.3985-18.452-1.1728-26.606 3.4758l-29.732 17.225c-11.317 6.4864-17.98 18.685-17.449 31.68 0 0 1.7162 46.741 2.7043 72.047-27.778 16.014-138.05 79.632-155.33 89.606-20.229-3.3234-115.42-19.282-115.42-19.282-8.0648-1.3162-16.279 0.1785-23.308 4.284l-281.88 162.71c-11.235 6.4629-17.976 18.671-17.484 31.64 0 0 1.392 36.804 2.445 64.344-28.167-9.6141-80.128-27.263-80.128-27.263-9.5877-3.2328-20.117-2.1622-28.844 2.8761 0 0-18.87 10.859-31.012 17.893-21.793-4.2405-147.52-28.771-147.52-28.771-8.2616-1.5952-16.87-0.206-24.138 4.0615l-280.36 161.83c-23.017 13.896-48.734 12.194-67.672-2.3083-277.4-190.02-642.24-204.51-931.1-37.754-416.77 240.62-560.06 775.37-319.44 1192.2 240.54 416.7 775.37 560.01 1192.1 319.41" fill="#e3e3e3" stroke="#737373" stroke-width="41.351"/><path id="path17563-2" transform="matrix(.0091402 0 0 -.0091402 -23.394 60.243)" d="m4557.6 4744.4c30.874-84.736 124.95-128.61 209.67-97.771 84.736 30.842 128.61 124.92 97.746 209.62-30.837 84.815-124.88 128.67-209.64 97.837-84.73-30.828-128.59-124.88-97.777-209.68zm1099.5 9.2052c114.32-314.08 41.669-659.5-189.58-901.56-0.019-0.04-0.3202-0.6867-0.3202-0.6867-13.952-14.475-19.157-36.084-13.702-56.345l691.42-1901.7c1.6237-4.5514 2.3231-9.3953 2.0059-14.248-4.6913-73.328-25.198-132.06-41.526-168.39-3.9297-8.634-11.128-15.278-19.95-18.544l-20.01-7.2611-123.89-45.06-37.276-13.567c-8.4488-3.086-14.131-4.1344-22.346-0.5127l-88.274 38.735c-0.1673 0.1584-0.2694 0.077-0.3222 0.102l-109.81 71.236c-0.079 0.037-0.1638 0.028-0.2034 0.047l-85.922 69.118-50.591 58.174c-8.9484 10.427-11.006 25.116-5.1677 37.635 0 0 3.898 8.3593 6.86 14.711-10.366 4.8014-21.525 10.005-21.525 10.005-8.4386 3.935-14.929 11.013-18.101 19.727-3.1663 8.7595-2.7316 18.38 1.191 26.792 0 0 5.2036 11.159 10.068 21.592-13.391 6.2442-27.059 12.618-27.059 12.618-8.3593 3.8981-14.89 10.995-18.094 19.74l-36.306 99.841c-3.2526 8.8158-2.7844 18.405 1.132 26.804l43.229 92.705-92.683 43.139c-8.399 3.9165-14.889 10.962-18.147 19.765l-11.704 32.307c-4.5 12.243-1.7629 25.871 6.9965 35.484 0 0 31.359 34.702 48.382 53.453-10.986 30.123-54.566 149.74-61.389 168.48-17.632 10.457-100.81 59.422-100.81 59.422-7.024 4.1757-12.356 10.601-15.101 18.264l-111.35 305.83c-4.4525 12.173-1.7691 25.857 6.9445 35.476 0 0 24.723 27.298 43.233 47.719-27.757 10.741-78.906 30.621-78.906 30.621-9.4226 3.6864-16.801 11.275-20.247 20.744 0 0-7.4751 20.447-12.255 33.641-19.42 10.76-131.5 72.782-131.5 72.782-7.3541 4.0885-13.056 10.686-15.88 18.627l-110.75 304.19c-8.7002 25.44-29.494 40.667-53.323 41.73-334.64 32.747-623.44 256.16-737.53 569.58-164.6 452.22 69.371 953.97 521.6 1118.6 452.11 164.6 953.94-69.405 1118.5-521.56" fill="#e3e3e3" stroke="#737373" stroke-width="41.351"/><rect id="rect4181" transform="matrix(-.23121 0 0 .23121 30.944 17.1)" x="74.801" y="74.583" width="11.37" height="11.37" fill="#e5e5ed" stroke="#737373" stroke-linecap="round" stroke-linejoin="round" stroke-width=".6"/><rect id="rect3988" transform="matrix(-.16388 -.1631 -.1631 .16388 30.944 17.1)" x="-4.6272" y="102.47" width="10.304" height="8.5437" fill="#e5e5ed" stroke="#737373" stroke-linejoin="round" stroke-width=".61"/><rect id="rect3986" transform="matrix(-.16282 .16416 .16416 .16282 30.944 17.1)" x="100.44" y="-8.5894" width="3.9474" height="15.779" fill="#e5e5ed" stroke="#737373" stroke-linejoin="round"/><path id="rect3990" transform="matrix(-.16208 -.1649 -.1649 .16208 30.944 17.1)" d="m-10.422 113.57h18.958v48.152h-18.958zm18.919 48.169c-0.047065 4.262-4.334 6.9742-9.5793 6.9481-5.2453-0.0261-9.2393-2.8281-9.3274-6.9948-0.02247-4.2556 4.2715-8.47 9.5168-8.4439 5.2453 0.0261 9.4474 4.2286 9.3898 8.4906z" fill="#717274" stroke-linecap="round" stroke-linejoin="round" stroke-width=".1"/><path id="path5129" transform="matrix(-.23121 0 0 .23121 30.944 17.1)" d="m45.636 12.532c18.235 0 33.04 14.805 33.04 33.04 0 18.235-14.805 33.01-33.04 33.01-18.235 0-33.01-14.775-33.01-33.01 0-18.235 14.775-33.04 33.01-33.04z" fill="#303e73" fill-opacity=".4"/><path id="path3779" transform="matrix(-.23121 0 0 .23121 30.944 17.1)" d="m46.014 8.0354c-19.236 0-37.885 15.144-37.885 36.905 0 21.761 19.706 37.948 37.506 38.011 17.628 0.06251 37.41-15.619 37.41-37.38 0.18836-21.581-18.726-37.2-37.031-37.537zm-0.37881 4.4965c18.235 0 33.04 14.805 33.04 33.04 0 18.235-14.805 33.01-33.04 33.01-18.235 0-33.01-14.775-33.01-33.01 0-18.235 14.775-33.04 33.01-33.04z" fill="#b3b3b3" stroke="#737373" stroke-width=".67"/><g id="g5598" transform="matrix(.068371 0 0 .068371 .67011 -13.55)" clip-path="url(#clipPath5610)"><path id="path5105" transform="translate(-72.731 -45.457)" d="m307.09 257.37a121.22 121.22 0 0 0-121.22 121.22 121.22 121.22 0 0 0 121.22 121.22 121.22 121.22 0 0 0 121.22-121.22 121.22 121.22 0 0 0-121.22-121.22zm0 24.242a96.975 96.975 0 0 1 96.975 96.975 96.975 96.975 0 0 1-96.975 96.975 96.975 96.975 0 0 1-96.975-96.975 96.975 96.975 0 0 1 96.975-96.975z" clip-path="none" fill="#b3b3b3" stroke="#737373" stroke-width="5.528"/></g></g></svg>
