<svg width="64" height="64" viewBox="0 0 16.933 16.933" xmlns="http://www.w3.org/2000/svg"><defs><radialGradient id="a" cx="24" cy="24" r="15" gradientTransform="matrix(.31059 0 0 .28989 2.214 1.384)" gradientUnits="userSpaceOnUse"><stop stop-color="#f2bc4e" offset="0"/><stop stop-color="#f1b741" offset="1"/></radialGradient></defs><g transform="translate(-1.202 .126)"><path d="M9.668 1.197a7.143 7.143 0 1 1 0 14.287 7.143 7.143 0 0 1 0-14.287z" fill="#aed2fa"/><ellipse cx="9.668" cy="8.341" rx="4.659" ry="4.348" fill="url(#a)"/><path d="M8.338 7.696c.198.935.073 1.755-.483 1.873-.557.119-1.001-.579-1.199-1.514-.197-.935-.106-1.748.484-1.873.59-.127 1 .578 1.198 1.514z" fill="#f0f0f0"/><path d="M13.395 9.894c-2.174 2.904-6.522 2.124-7.454-.31 2.174 1.552 5.28 1.401 7.454.31z" fill="#ba6616"/><path d="M10.998 7.696c-.198.935-.073 1.755.483 1.873.557.119 1.001-.579 1.199-1.514.197-.935.106-1.748-.484-1.873-.59-.127-1 .578-1.198 1.514z" fill="#f0f0f0"/><path d="M8.134 8.07c.132.596.048 1.118-.322 1.193-.37.076-.667-.368-.799-.963s-.071-1.112.322-1.193c.393-.08.667.368.799.964zm3.068 0c-.132.596-.048 1.118.322 1.193.37.076.667-.368.799-.963s.071-1.112-.322-1.193c-.393-.08-.667.368-.799.964z" fill="#4d8bd1"/></g></svg>