<svg width="64" height="64" version="1.1" viewBox="0 0 16.933 16.933" xmlns="http://www.w3.org/2000/svg">
 <circle cx="8.4665" cy="8.4665" r="7.1436" fill="#f9f9f9" style="paint-order:stroke fill markers"/>
 <g>
  <path transform="scale(.26458)" d="m53.574 45.312c-1.5337 0-3.067 0.58846-4.2422 1.7637l-11.18 11.18a27 27 0 0 0 17.152-12.674c-0.56425-0.17303-1.1458-0.26953-1.7305-0.26953z" fill="#ff522c" opacity=".75" style="paint-order:stroke fill markers"/>
  <path transform="scale(.26458)" d="m43.354 43.113c-1.5337 0-3.0689 0.58846-4.2441 1.7637l-13.359 13.359a27 27 0 0 0 6.25 0.76367 27 27 0 0 0 13.768-3.8105l1.8281-1.8281c2.3504-2.3504 2.3504-6.134 0-8.4844-1.1752-1.1752-2.7085-1.7637-4.2422-1.7637z" fill="#71ffb2" opacity=".75" style="paint-order:stroke fill markers"/>
  <path transform="scale(.26458)" d="m40.639 34.496c-1.5337 0-3.067 0.58846-4.2422 1.7637l-18.639 18.639a27 27 0 0 0 12.934 4.0371l14.191-14.191c2.3504-2.3504 2.3504-6.134 0-8.4844-1.1752-1.1752-2.7104-1.7637-4.2441-1.7637z" fill="#4997ff" opacity=".75" style="paint-order:stroke fill markers"/>
  <path transform="scale(.26458)" d="m24.916 39.32c-1.5337 0-3.0689 0.58651-4.2441 1.7617l-8.8301 8.8301a27 27 0 0 0 9.916 7.0566l7.4004-7.4004c2.3504-2.3504 2.3504-6.1359 0-8.4863-1.1752-1.1752-2.7085-1.7617-4.2422-1.7617z" fill="#ff4b20" opacity=".75" style="paint-order:stroke fill markers"/>
  <path transform="scale(.26458)" d="m13.932 40.268c-1.5337 0-3.067 0.58846-4.2422 1.7637l-1.8965 1.8965a27 27 0 0 0 7.627 9.3418l2.7539-2.7539c2.3504-2.3504 2.3504-6.134 0-8.4844-1.1752-1.1752-2.7085-1.7637-4.2422-1.7637z" fill="#ffef4d" opacity=".75" style="paint-order:stroke fill markers"/>
 </g>
 <path d="m6.3487 3.9697v0.529h0.52985l-0.79377 3.704h-0.52885v0.53h1.8525v-0.53h-0.44987l0.29092-1.587h0.42388l0.79377 1.587c0.13396 0.269 0.36989 0.53 0.79277 0.53h0.79377l1.8515-1.853 0.52985-0.794v-0.264l-0.26492-0.265h-0.26492l-0.26392 0.265v0.794l-1.1927 1.322 0.39689-2.116-0.26492-0.265-1.0577 0.265v0.264h0.52885l-0.26392 2.117h-0.26392l-1.0577-2.117 1.5865-1.587h0.52985v-0.53h-1.8535v0.53h0.60883l-1.7715 1.852h-0.26492l0.36989-1.852h0.52985v-0.53z" fill="#808080" stroke-width=".99986"/>
</svg>
