<svg xmlns="http://www.w3.org/2000/svg" width="64" height="64" viewBox="0 0 16.933 16.933"><circle cx="8.466" cy="8.466" r="7.144" fill="#8380c7" style="paint-order:stroke fill markers"/><g fill-rule="evenodd"><path fill="#fff" fill-opacity=".3" d="M5.895 2.38a7 7 0 0 0-.556.265h6.264a7 7 0 0 0-.548-.265zM3.969 3.624a7 7 0 0 0-.342.346h.077v1.057h-.877a7 7 0 0 0-.163.265h1.04V6.35H2.206a7 7 0 0 0-.085.265h1.583v1.058H1.905a7 7 0 0 0-.027.265h1.826v1.058H1.876a7 7 0 0 0 .032.264h1.796v1.06H2.121a7 7 0 0 0 .088.263h1.495v1.06H2.672a7 7 0 0 0 .151.263h.881v1.059h-.079a7 7 0 0 0 .344.34v-.076h9.086a7 7 0 0 0 .25-.264H3.968v-1.059h10.137a7 7 0 0 0 .163-.264h-10.3v-1.059h10.757a7 7 0 0 0 .086-.264H3.969V9.26h11.059a7 7 0 0 0 .027-.264H3.969V7.938h11.088a7 7 0 0 0-.032-.265H3.97V6.615h10.844a7 7 0 0 0-.089-.265H3.97V5.29h10.292a7 7 0 0 0-.152-.265H3.969V3.968h9.34a7 7 0 0 0-.264-.265H3.969zM5.33 14.288a7 7 0 0 0 .545.264h5.166a7 7 0 0 0 .553-.264z"/><path fill="#8380c7" stroke="#8380c7" stroke-width=".529" d="M12.17 10.529q0 .582-.24.928c-.24.346-.407.38-.74.45v-.42a.46.46 0 0 0 .246-.334h-.245v-1.146h.98zm-1.309 0q0 .582-.24.928-.242.346-.74.45v-.42a.5.5 0 0 0 .177-.137.4.4 0 0 0 .068-.197h-.245v-1.146h.98zm-6.099-5.51V3.97h1.984v2.308H6.25a.93.93 0 0 0 .496.672v.844q-1.008-.207-1.496-.905c-.488-.698-.488-1.088-.488-1.868zm2.651 0V3.97h1.984v2.308H8.9a.85.85 0 0 0 .137.396q.102.138.359.276v.844q-1.01-.207-1.497-.905c-.487-.698-.487-1.088-.487-1.868z" style="paint-order:stroke markers fill"/><path fill="#fff" d="M12.17 10.529q0 .582-.24.928c-.24.346-.407.38-.74.45v-.42a.46.46 0 0 0 .246-.334h-.245v-1.146h.98zm-1.309 0q0 .582-.24.928-.242.346-.74.45v-.42a.5.5 0 0 0 .177-.137.4.4 0 0 0 .068-.197h-.245v-1.146h.98zm-6.099-5.51V3.97h1.984v2.308H6.25a.93.93 0 0 0 .496.672v.844q-1.008-.207-1.496-.905c-.488-.698-.488-1.088-.488-1.868zm2.651 0V3.97h1.984v2.308H8.9a.85.85 0 0 0 .137.396q.102.138.359.276v.844q-1.01-.207-1.497-.905c-.487-.698-.487-1.088-.487-1.868z" style="paint-order:stroke markers fill"/></g></svg>