<svg width="64" height="64" version="1.1" viewBox="0 0 16.933 16.933" xmlns="http://www.w3.org/2000/svg">
 <circle cx="8.4665" cy="8.4665" r="7.1436" fill="#8380c7" style="paint-order:stroke fill markers"/>
 <g fill-rule="evenodd">
  <path transform="scale(.26458)" d="m22.279 8.9961a25 25 0 0 0-2.0996 1h23.674a25 25 0 0 0-2.0684-1zm-7.2773 4.7012a25 25 0 0 0-1.2949 1.3086h0.29297v3.9941h-3.3164a25 25 0 0 0-0.61524 1.002h3.9316v3.998h-5.6602a25 25 0 0 0-0.32227 1.002h5.9824v3.998h-6.7988a25 25 0 0 0-0.10156 1.002h6.9004v4h-6.9082a25 25 0 0 0 0.11914 0.99805h6.7891v4.002h-5.9844a25 25 0 0 0 0.33203 0.99805h5.6523v4.002h-3.9004a25 25 0 0 0 0.57227 0.99805h3.3281v4.002h-0.29883a25 25 0 0 0 1.3008 1.2871v-0.28906h34.34a25 25 0 0 0 0.94336-0.99805h-35.283v-4.002h38.314a25 25 0 0 0 0.61328-0.99805h-38.928v-4.002h40.658a25 25 0 0 0 0.32227-0.99805h-40.98v-4.002h41.797a25 25 0 0 0 0.10156-0.99805h-41.898v-4h41.908a25 25 0 0 0-0.12109-1.002h-41.787v-3.998h40.984a25 25 0 0 0-0.33398-1.002h-40.65v-4.002h38.898a25 25 0 0 0-0.57422-1.002h-38.324v-3.998h35.297a25 25 0 0 0-0.99414-1.002h-34.303v-0.29883zm5.1445 40.307a25 25 0 0 0 2.0605 0.99609h19.523a25 25 0 0 0 2.0898-0.99609h-23.674z" fill="#fff" fill-opacity=".3" stroke-width="3.7796"/>
  <path d="m12.17 10.529c0 0.388-0.08 0.697-0.24 0.928s-0.407 0.38-0.74 0.45v-0.42a0.463 0.463 0 0 0 0.246-0.334h-0.245v-1.146h0.98zm-1.309 0c0 0.388-0.08 0.697-0.24 0.928-0.161 0.231-0.408 0.38-0.74 0.45v-0.42a0.537 0.537 0 0 0 0.177-0.137 0.422 0.422 0 0 0 0.068-0.197h-0.245v-1.146h0.98zm-6.099-5.51v-1.049h1.984v2.308h-0.496a0.933 0.933 0 0 0 0.496 0.672v0.844c-0.672-0.138-1.171-0.44-1.496-0.905s-0.488-1.088-0.488-1.868zm2.651 0v-1.049h1.984v2.308h-0.497a0.848 0.848 0 0 0 0.137 0.396c0.068 0.092 0.188 0.184 0.359 0.276v0.844c-0.673-0.138-1.172-0.44-1.497-0.905s-0.487-1.088-0.487-1.868z" fill="#8380c7" stroke="#8380c7" stroke-width=".529" style="paint-order:stroke markers fill"/>
  <path d="m12.17 10.529c0 0.388-0.08 0.697-0.24 0.928s-0.407 0.38-0.74 0.45v-0.42a0.463 0.463 0 0 0 0.246-0.334h-0.245v-1.146h0.98zm-1.309 0c0 0.388-0.08 0.697-0.24 0.928-0.161 0.231-0.408 0.38-0.74 0.45v-0.42a0.537 0.537 0 0 0 0.177-0.137 0.422 0.422 0 0 0 0.068-0.197h-0.245v-1.146h0.98zm-6.099-5.51v-1.049h1.984v2.308h-0.496a0.933 0.933 0 0 0 0.496 0.672v0.844c-0.672-0.138-1.171-0.44-1.496-0.905s-0.488-1.088-0.488-1.868zm2.651 0v-1.049h1.984v2.308h-0.497a0.848 0.848 0 0 0 0.137 0.396c0.068 0.092 0.188 0.184 0.359 0.276v0.844c-0.673-0.138-1.172-0.44-1.497-0.905s-0.487-1.088-0.487-1.868z" fill="#fff" style="paint-order:stroke markers fill"/>
 </g>
</svg>
