<svg width="64" height="64" xmlns="http://www.w3.org/2000/svg"><circle cx="32" cy="32" r="27" fill="#d2a25c" fill-rule="evenodd" style="paint-order:stroke fill markers"/><circle cx="32" cy="32" r="23" fill="#474f54" fill-rule="evenodd" style="paint-order:stroke fill markers"/><g fill="none" stroke-width=".984"><path d="M12 32.49c13.01 0 15.772 14.973 21.511 15.02 5.739.042 5.484-15.02 18.489-15.02" stroke="#787e82"/><path d="M12 31.51c13.01 0 15.772-10.274 21.511-10.316S38.995 31.51 52 31.51" stroke="#5090c3"/></g><path d="M12 31.51c13.01 0 15.772-14.973 21.511-15.02C39.25 16.448 38.995 31.51 52 31.51" fill="none" stroke="#d6d6d6" stroke-width=".984"/><g color="#000" fill="#d6d6d6"><path d="M12.01 32h39.992v1H12.01z"/><path d="M19 31h1v3h-1zm14 0h1v3h-1zm14 0h1v3h-1z"/></g></svg>