<?xml version="1.0" encoding="UTF-8"?>
<svg width="63.987px" height="63.987px" version="1.1" viewBox="0 0 16.9 16.9" xmlns="http://www.w3.org/2000/svg" xmlns:bx="https://boxy-svg.com">
 <path transform="matrix(1 0 0 1 -255.86 -254.25)" d="m271.46 262.7a7.15 7.15 0 0 1-7.15 7.15 7.15 7.15 0 0 1-7.15-7.15 7.15 7.15 0 0 1 7.15-7.15 7.15 7.15 0 0 1 7.15 7.15z" fill="#1c90ed" bx:origin="-3.742381 -3.629666">
  <title>Background</title>
 </path>
 <path d="m9.426 10.054c0 1.643-1.332 2.975-2.975 2.975s-2.975-1.332-2.975-2.975 1.332-2.975 2.975-2.975 2.975 1.332 2.975 2.975z" fill="#47ceff">
  <title>Blue ball</title>
 </path>
 <g fill="none" stroke="#fff" stroke-width=".5px">
  <path transform="matrix(.68152 .7318 -.7318 .68152 9.1191 -3.0459)" d="m12.114 8.954c0 0.874-1.816 1.582-4.055 1.582-2.24 0-4.055-0.708-4.055-1.582s1.815-1.582 4.055-1.582c2.239 0 4.055 0.708 4.055 1.582z" stroke-opacity=".28">
   <title>Light 1</title>
  </path>
  <path transform="matrix(.68152 .7318 -.7318 .68152 8.8744 -3.6677)" d="m12.706 8.362c0 0.873-1.815 1.582-4.055 1.582-2.239 0-4.055-0.709-4.055-1.582 0-0.874 1.816-1.582 4.055-1.582 2.24 0 4.055 0.708 4.055 1.582z" stroke-opacity=".65">
   <title>Strong</title>
  </path>
  <path transform="matrix(.68152 .7318 -.7318 .68152 8.8201 -4.4329)" d="m13.558 7.917c0 0.874-1.816 1.582-4.055 1.582-2.24 0-4.055-0.708-4.055-1.582 0-0.873 1.815-1.582 4.055-1.582 2.239 0 4.055 0.709 4.055 1.582z" stroke-opacity=".28">
   <title>Light 2</title>
  </path>
 </g>
 <path d="m12.716 6.555c0 1.055-0.855 1.91-1.91 1.91s-1.91-0.855-1.91-1.91 0.855-1.91 1.91-1.91 1.91 0.855 1.91 1.91z" fill="#f9b400">
  <title>Orange ball</title>
 </path>
</svg>
