<svg width="64" height="64" version="1.1" xmlns="http://www.w3.org/2000/svg">
 <circle cx="32" cy="32" r="27" fill="#e6e6e6" stroke-width="3.7796" style="paint-order:stroke fill markers"/>
 <path d="m32.175 14.45c-1.7829 0-3.127 0.76912-3.1281 1.7881v1.2946c-0.02713 6.21e-4 -0.05535 0.0095-0.08127 0.0216l-2.0207 1.0324c-0.08654 0.04442-0.1585 0.1053-0.21793 0.17344-0.51196-0.20852-1.1428-0.33242-1.8487-0.33242-1.782 0-3.1259 0.76707-3.1259 1.786v1.1026c-0.11259 0.0027-0.22522 0.02376-0.32949 0.08046l-3.859 2.0751c-0.13352 0.07128-0.22314 0.18274-0.28882 0.30661-0.01876 0.02794-0.03037 0.05467-0.04482 0.08465-0.01215 0.0351-0.02093 0.06912-0.02808 0.1053-0.02093 0.06804-0.05535 0.13216-0.05535 0.20544v16.821c0 0.26325 0.14388 0.50688 0.37641 0.63696l14.033 7.8214c0.0095 0.0054 0.02093 4e-3 0.03024 0.0094 0.09504 0.04752 0.19705 0.07439 0.30132 0.07844 6.34e-4 0 0.01985 0.0094 0.03024 0.0094 0.09275 0 0.17829-0.03928 0.26483-0.07222 0.03132-0.01215 0.06777-0.0068 0.09801-0.02363l4e-3 -0.0027c0.0027-1.22e-4 0.0041-1.22e-4 0.0068-0.0027 0.0027-1.08e-4 0.0027-0.0041 4e-3 -0.0041l14.16-7.872c0.23356-0.12906 0.37641-0.37373 0.37641-0.63698l0.01458-16.729c0-0.25913-0.13763-0.5007-0.36493-0.63077-0.02403-0.01445-0.05427-0.0108-0.07925-0.02174-0.03335-0.02578-0.05738-0.05778-0.09585-0.0783l-3.861-2.0751c-0.0166-0.0094-0.03442-0.0081-0.05116-0.01647v-1.18c0-1.02-1.344-1.7881-3.1259-1.7881-0.75698 0-1.4253 0.1435-1.9551 0.38096-0.03645-0.02889-0.06669-0.06399-0.10948-0.0868l-1.8371-0.93999c-0.02092-6.07e-4 -0.04374-0.0094-0.06561-0.01849v-1.5124c0-1.02-1.344-1.7881-3.1259-1.7881m-2.0207 3.1622c0.53907 0.256 1.2314 0.41087 2.0207 0.41087 0.78826 0 1.4796-0.1559 2.0187-0.41087v2.0266c0 0.21164-0.76218 0.69169-2.0187 0.69169s-2.0207-0.48005-2.0207-0.69169v-2.0266m-1.1084 1.5464v0.48007c0 1.019 1.3451 1.786 3.1281 1.786 1.784 0 3.127-0.76706 3.1259-1.786v-0.25811l0.89775 0.45942c-0.03861 0.11664-0.0594 0.23744-0.0594 0.36339v3.3996c0 1.019 1.3451 1.786 3.1281 1.786 1.7829 0 3.127-0.76706 3.1259-1.786v-0.56885l2.1896 1.18-12.661 7.0192-12.554-7.0635 2.3888-1.2863v0.73196c0 1.019 1.344 1.7881 3.1259 1.7881 1.782 0 3.1259-0.76912 3.1259-1.7881v-3.3996c0-0.16416-0.0459-0.319-0.11151-0.46767l1.1542-0.58846m8.2007 2.4179c0.53803 0.25604 1.2314 0.41295 2.0207 0.41295 0.78825 0 1.4796-0.15795 2.0187-0.41295v2.0266c0 0.20027-0.70694 0.68963-2.0187 0.68963-1.2564 0-2.0207-0.478-2.0207-0.68963v-2.0266m-14.39 0.01215c0.53906 0.25604 1.2314 0.41296 2.0207 0.41296 0.78722 0 1.4796-0.1559 2.0187-0.41088v2.0245c0 0.20027-0.70694 0.69168-2.0187 0.69168-1.3117 0-2.0207-0.49141-2.0207-0.69168v-2.0266m9.2704 0.74435c-1.782 0-3.1281 0.76912-3.1281 1.7881v3.3996c0 1.019 1.3461 1.7881 3.1281 1.7881 1.782 0 3.1239-0.76914 3.1239-1.7881v-3.3996c0-1.019-1.3419-1.7881-3.1239-1.7881m-2.0207 3.1612c0.53906 0.25604 1.2314 0.41295 2.0207 0.41295 0.78722 0 1.4785-0.15588 2.0165-0.41089v2.0245c0 0.20029-0.70485 0.6917-2.0165 0.6917-1.2564 0-2.0207-0.48005-2.0207-0.6917v-2.0266" fill="#df3c3c"/>
</svg>
