<svg xmlns="http://www.w3.org/2000/svg" width="64" height="64" viewBox="0 0 16.933 16.933"><circle cx="8.466" cy="8.466" r="7.144" fill="#4caf50" style="paint-order:stroke fill markers"/><path fill="#fff" d="m9.847 2.547 4.538 4.538a6.09 6.09 0 0 0-4.538-4.538" opacity=".5" style="paint-order:stroke fill markers"/><path fill="#fff" d="M8.195 2.391a6.085 6.085 0 0 0-5.814 6.075 6.085 6.085 0 0 0 6.085 6.086 6.085 6.085 0 0 0 6.072-5.818z" style="paint-order:stroke fill markers"/><path fill="#ccc" d="M19 29v17.002h26V29zm2 2h5.998v3.002H21zm8 0h6v3.002h-6zm8.002 0H43v3.002h-5.998zM21 36h5.998v3.002H21zm8 0h6v3.002h-6zm8.002 0H43v3.002h-5.998zM21 41.002h5.998v3H21zm8 0h6v3h-6zm8.002 0H43v3h-5.998z" style="paint-order:markers stroke fill" transform="scale(.26458)"/></svg>