<svg width="64" height="64" version="1.1" viewBox="0 0 16.933 16.933" xmlns="http://www.w3.org/2000/svg" xmlns:xlink="http://www.w3.org/1999/xlink">
 <g>
  <circle cx="8.4665" cy="8.4665" r="7.1436" fill="#ff5722" style="paint-order:stroke fill markers"/>
  <path d="m9.8473 2.5466 4.5381 4.5381c-0.52723-2.2523-2.2858-4.0109-4.5381-4.5381z" fill="#fff" opacity=".5" stroke-width=".85185" style="paint-order:stroke fill markers"/>
  <path d="m8.1952 2.391c-3.2506 0.14506-5.812 2.8216-5.814 6.0755-1e-7 3.3608 2.7245 6.0853 6.0853 6.0853 3.2538-4e-3 5.9287-2.567 6.0719-5.8176z" fill="#fff" stroke-width=".85185" style="paint-order:stroke fill markers"/>
 </g>
 <g fill="#ccc">
  <path d="m6.88 7.673a1.323 1.323 0 0 0-1.324 1.323 1.323 1.323 0 0 0 1.323 1.322 1.323 1.323 0 0 0 1.323-1.322h-1.322z" style="paint-order:markers stroke fill"/>
  <rect x="8.731" y="7.673" width="2.646" height=".529" rx="0" ry="0" style="paint-order:markers stroke fill"/>
  <rect x="8.731" y="9.26" width="2.646" height=".529" rx="0" ry="0" style="paint-order:markers stroke fill"/>
  <rect x="5.556" y="10.848" width="4.762" height=".529" rx="0" ry="0" style="paint-order:markers stroke fill"/>
 </g>
</svg>
