<svg width="64" height="64" viewBox="0 0 16.933 16.933" xmlns="http://www.w3.org/2000/svg"><circle cx="8.466" cy="8.466" r="7.144" fill="#009688" style="paint-order:stroke fill markers"/><path d="m9.847 2.547 4.538 4.538a6.085 6.085 0 0 0-4.538-4.538z" fill="#fff" opacity=".5" style="paint-order:stroke fill markers"/><path d="M8.195 2.391a6.085 6.085 0 0 0-5.814 6.075 6.085 6.085 0 0 0 6.085 6.086 6.085 6.085 0 0 0 6.072-5.818z" fill="#fff" style="paint-order:stroke fill markers"/><g fill="#ccc" style="paint-order:markers stroke fill"><g transform="translate(-.265 -280.6)"><rect x="5.292" y="290.39" width="3.44" height=".529" rx="0" ry="0"/><circle cx="7.011" cy="289.59" r=".397"/><circle cx="7.011" cy="291.84" r=".397"/></g><g transform="translate(.132 -280.6)"><rect transform="rotate(45)" x="211.25" y="197.81" width="3.44" height=".529" rx="0" ry="0"/><rect transform="scale(-1 1) rotate(45)" x="196.35" y="212.7" width="3.44" height=".529" rx="0" ry="0"/></g></g></svg>