<svg width="64" height="64" version="1.1" viewBox="0 0 16.933 16.933" xmlns="http://www.w3.org/2000/svg" xmlns:xlink="http://www.w3.org/1999/xlink">
 <g>
  <circle cx="8.4665" cy="8.4665" r="7.1436" fill="#009688" style="paint-order:stroke fill markers"/>
  <path d="m9.8473 2.5466 4.5381 4.5381c-0.52723-2.2523-2.2858-4.0109-4.5381-4.5381z" fill="#fff" opacity=".5" stroke-width=".85185" style="paint-order:stroke fill markers"/>
  <path d="m8.1952 2.391c-3.2506 0.14506-5.812 2.8216-5.814 6.0755-1e-7 3.3608 2.7245 6.0853 6.0853 6.0853 3.2538-4e-3 5.9287-2.567 6.0719-5.8176z" fill="#fff" stroke-width=".85185" style="paint-order:stroke fill markers"/>
 </g>
 <g transform="translate(0 -280.07)" fill="#ccc" style="paint-order:markers stroke fill">
  <g transform="translate(-.265 -.53)">
   <rect x="5.292" y="290.39" width="3.44" height=".529" rx="0" ry="0"/>
   <circle cx="7.011" cy="289.59" r=".397"/>
   <circle cx="7.011" cy="291.84" r=".397"/>
  </g>
  <g transform="translate(.132 -.53)">
   <rect transform="rotate(45)" x="211.25" y="197.81" width="3.44" height=".529" rx="0" ry="0"/>
   <rect transform="matrix(-.70711 .70711 .70711 .70711 0 0)" x="196.35" y="212.7" width="3.44" height=".529" rx="0" ry="0"/>
  </g>
 </g>
</svg>
