<svg width="64" height="64" version="1.1" viewBox="0 0 64 64" xmlns="http://www.w3.org/2000/svg">
 <path d="m32 5c14.912 0 27 12.088 27 27s-12.088 27-27 27-27-12.088-27-27 12.088-27 27-27z" fill="#429bd4" stroke-width="1.1739"/>
 <circle cx="21.435" cy="42.565" r="3.5217" fill="#f0f0f0"/>
 <path d="m17.913 28.478v5.8696h2.9348c4.8623 0 8.8043 3.942 8.8043 8.8043v2.9348h5.8696v-2.9348c0-8.1047-6.5692-14.674-14.674-14.674" fill="#f0f0f0"/>
 <path d="m17.913 16.739v5.8696h3.5217a19.957 19.957 0 0 1 19.957 19.957v3.5217h5.8696v-3.5217a25.826 25.826 0 0 0-25.826-25.826z" fill="#f0f0f0"/>
</svg>
