<?xml version="1.0" encoding="UTF-8" standalone="no"?>
<svg
   width="64"
   height="64"
   viewBox="0 0 16.934 16.934"
   version="1.1"
   id="svg6"
   sodipodi:docname="lisa-the-painful.svg"
   inkscape:version="1.1.2 (0a00cf5339, 2022-02-04)"
   xmlns:inkscape="http://www.inkscape.org/namespaces/inkscape"
   xmlns:sodipodi="http://sodipodi.sourceforge.net/DTD/sodipodi-0.dtd"
   xmlns="http://www.w3.org/2000/svg"
   xmlns:svg="http://www.w3.org/2000/svg">
  <defs
     id="defs10" />
  <sodipodi:namedview
     id="namedview8"
     pagecolor="#505050"
     bordercolor="#ffffff"
     borderopacity="1"
     inkscape:pageshadow="0"
     inkscape:pageopacity="0"
     inkscape:pagecheckerboard="1"
     showgrid="false"
     inkscape:zoom="7.9107571"
     inkscape:cx="68.135071"
     inkscape:cy="27.431003"
     inkscape:window-width="1920"
     inkscape:window-height="1000"
     inkscape:window-x="0"
     inkscape:window-y="44"
     inkscape:window-maximized="1"
     inkscape:current-layer="svg6" />
  <circle
     cx="8.467"
     cy="8.467"
     r="7.1440001"
     fill="#333333"
     style="paint-order:markers stroke fill;fill:#ff0000;fill-opacity:1"
     id="circle2" />
  <path
     style="fill:#ffffff;stroke-width:0.00455663;fill-opacity:1"
     d="m 7.0216771,11.179799 c -0.011033,-0.0122 -0.00989,-0.02045 0.00608,-0.04409 0.010445,-0.01549 0.01829,-0.0218 0.031483,-0.02536 0.019145,-0.0052 0.044132,-0.02283 0.07736,-0.05472 0.03383,-0.03247 0.045354,-0.04117 0.073956,-0.0558 0.0178,-0.0091 0.035516,-0.02363 0.05263,-0.04312 0.015059,-0.01715 0.034927,-0.03402 0.047713,-0.04048 0.012053,-0.0061 0.021911,-0.0126 0.021923,-0.01445 0,-0.0019 0.011298,-0.01149 0.025065,-0.02144 0.01378,-0.0099 0.025039,-0.0195 0.025039,-0.02127 0,-0.0072 0.041785,-0.05144 0.054408,-0.05755 0.0075,-0.0036 0.014898,-0.01055 0.016423,-0.01534 0.00394,-0.0124 0.037146,-0.04987 0.05499,-0.06207 0.010098,-0.0068 0.020373,-0.02148 0.031173,-0.04425 0.00886,-0.01868 0.020224,-0.03616 0.025239,-0.03885 0.00982,-0.0052 0.024128,-0.03065 0.02924,-0.05189 0.00181,-0.0072 0.011137,-0.02488 0.020897,-0.03924 0.019914,-0.02931 0.036473,-0.0849 0.036473,-0.122401 0,-0.02239 8.402e-4,-0.02368 0.035315,-0.05914 0.01943,-0.01994 0.03763,-0.03904 0.040467,-0.04243 0.00285,-0.0034 0.017703,-0.01823 0.033034,-0.03297 0.015344,-0.01474 0.027883,-0.02834 0.027883,-0.03024 0,-0.0018 -0.00491,-0.0067 -0.010974,-0.01064 -0.00955,-0.0063 -0.010652,-0.0096 -0.00842,-0.02625 l 0.00259,-0.01906 -0.013211,0.0033 c -0.00728,0.0018 -0.016462,0.0062 -0.020418,0.0098 -0.00942,0.0084 -0.012558,0.0083 -0.035238,-0.0027 -0.014918,-0.0072 -0.019086,-0.01172 -0.019086,-0.02071 0,-0.01356 0.017232,-0.0323 0.033448,-0.03636 0.00627,-0.0017 0.016747,-0.01089 0.023242,-0.02069 0.00648,-0.0098 0.014775,-0.01783 0.018433,-0.01783 0.00368,0 0.011098,-0.006 0.01652,-0.01339 0.00542,-0.0074 0.015829,-0.01585 0.0231,-0.01886 0.028277,-0.01171 0.036078,-0.04236 0.012843,-0.05047 -0.01685,-0.0059 -0.018917,-0.02352 -0.00368,-0.03167 0.00549,-0.0029 0.030662,-0.026384 0.055953,-0.052117 0.028639,-0.029132 0.050227,-0.047386 0.0572,-0.048368 0.0062,-8.41e-4 0.011886,-0.00521 0.01272,-0.00955 0.00207,-0.010974 -0.010956,-0.010264 -0.020708,0.00122 -0.00427,0.00504 -0.010057,0.0091 -0.012804,0.0091 -0.00271,0 -0.00945,0.00513 -0.014898,0.011401 -0.00542,0.00626 -0.013514,0.011462 -0.017903,0.01154 -0.00439,8.71e-5 -0.016196,0.00618 -0.026228,0.013427 -0.053097,0.038699 -0.057466,0.041141 -0.068587,0.03835 -0.00794,-0.002 -0.017418,0.00122 -0.033311,0.011462 -0.023171,0.014879 -0.037074,0.014992 -0.037074,4.061e-4 0,-0.00782 0.021801,-0.026333 0.067794,-0.057499 0.011583,-0.00782 0.028238,-0.021463 0.037009,-0.030246 0.00877,-0.00877 0.026202,-0.023585 0.038729,-0.032897 0.012539,-0.0093 0.031127,-0.025784 0.041313,-0.036594 0.013721,-0.014549 0.025155,-0.021593 0.044041,-0.02708 0.017315,-0.00505 0.027992,-0.011201 0.033221,-0.019183 0.021478,-0.032783 0.058203,-0.068293 0.097858,-0.094638 0.026099,-0.017334 0.060962,-0.047842 0.1139174,-0.099659 0.00877,-0.00858 0.027075,-0.02151 0.04068,-0.028723 0.015732,-0.00833 0.030261,-0.020806 0.039911,-0.03423 0.00835,-0.011601 0.020889,-0.023475 0.02787,-0.026364 0.00697,-0.00291 0.021827,-0.013599 0.032996,-0.023785 0.039452,-0.036005 0.081822,-0.078831 0.081822,-0.082709 0,-0.00498 0.069241,-0.071585 0.074412,-0.071585 0.00668,0 0.062727,-0.056107 0.077362,-0.077462 0.01579,-0.023036 0.023055,-0.029939 0.039801,-0.037828 0.01449,-0.00683 0.043065,-0.038414 0.047428,-0.052424 0.00181,-0.00579 0.01016,-0.013799 0.018576,-0.017803 0.00842,-0.004 0.017561,-0.012621 0.020328,-0.019104 0.00278,-0.00648 0.014368,-0.01888 0.025808,-0.027526 0.01142,-0.00864 0.024146,-0.020897 0.028263,-0.027227 0.012843,-0.019773 0.038825,-0.046368 0.052068,-0.053317 0.00696,-0.00366 0.021606,-0.020577 0.03251,-0.037586 0.012131,-0.018921 0.024897,-0.033112 0.032879,-0.036553 0.00717,-0.00308 0.020224,-0.016014 0.029001,-0.028702 0.00877,-0.012682 0.019021,-0.025812 0.022783,-0.029155 0.044015,-0.039141 0.065736,-0.060751 0.07068,-0.070308 0.00898,-0.017356 0.038295,-0.046938 0.062888,-0.063459 0.012074,-0.0081 0.024321,-0.020181 0.027237,-0.026845 0.00291,-0.00666 0.00945,-0.015771 0.014529,-0.020242 0.067902,-0.059862 0.1217232,-0.100953 0.1481853,-0.1131329 0.00877,-0.00405 0.021614,-0.013779 0.028524,-0.021644 0.00691,-0.00786 0.015689,-0.014307 0.01953,-0.014307 0.00382,0 0.010973,-0.00681 0.015872,-0.01512 0.0081,-0.013738 0.040853,-0.035003 0.05391,-0.035003 0.00285,0 0.012884,-0.00689 0.022283,-0.015323 0.0094,-0.00843 0.023619,-0.018656 0.031586,-0.022733 0.00797,-0.00407 0.015771,-0.011482 0.017356,-0.016441 0.00162,-0.00498 0.00777,-0.012884 0.013738,-0.017579 0.023692,-0.018636 0.015974,-0.049524 -0.00947,-0.037928 -0.00704,0.00321 -0.038492,0.00522 -0.081327,0.00522 -0.054309,0 -0.073784,0.00162 -0.0875,0.00742 -0.020815,0.00876 -0.060985,0.017559 -0.1010606,0.022141 -0.020941,0.0024 -0.031451,0.00608 -0.038729,0.013575 -0.010956,0.011279 -0.035426,0.016929 -0.1102391,0.025505 -0.025065,0.00287 -0.065047,0.00994 -0.088855,0.01571 -0.043284,0.010487 -0.082722,0.016502 -0.1640393,0.025005 -0.1111757,0.011624 -0.154794,0.019795 -0.1708716,0.032009 -0.010445,0.00793 -0.062908,0.014815 -0.1161959,0.015242 -0.061362,4.065e-4 -0.097389,-0.00616 -0.1099275,-0.020282 -0.0079,-0.0089 -0.048248,-0.028409 -0.068836,-0.033274 -0.00742,-0.00182 -0.015286,-0.00842 -0.019468,-0.016502 -0.00388,-0.00746 -0.012235,-0.01697 -0.018596,-0.021153 -0.00969,-0.00634 -0.029414,-0.035862 -0.059927,-0.08965 -0.0031,-0.00547 -0.00563,-0.01319 -0.00569,-0.017194 -4.47e-5,-0.004 -0.00407,-0.010893 -0.00896,-0.015324 -0.013573,-0.012275 -0.033434,-0.084896 -0.043459,-0.1588406 -0.00161,-0.012071 -0.00898,-0.035328 -0.01632,-0.051687 -0.00734,-0.016361 -0.013353,-0.034641 -0.013353,-0.040621 0,-0.015242 0.01325,-0.047367 0.025853,-0.062668 0.00581,-0.0071 0.010606,-0.0151 0.010606,-0.017823 0,-0.011828 0.028296,-0.047799 0.043194,-0.054904 0.00883,-0.00421 0.016035,-0.00982 0.016035,-0.012437 0,-0.00685 0.086354,-0.090609 0.1015821,-0.098529 0.00699,-0.00363 0.014471,-0.011219 0.016605,-0.016847 0.00446,-0.011686 0.035749,-0.034905 0.047073,-0.034905 0.00414,0 0.017969,-0.00923 0.030663,-0.020506 0.012701,-0.011279 0.02619,-0.020504 0.029984,-0.020504 0.00381,0 0.010243,-0.0058 0.014329,-0.012945 0.00827,-0.01443 0.044209,-0.038833 0.08537,-0.058 0.014937,-0.00695 0.035438,-0.020262 0.045567,-0.029575 0.021749,-0.019998 0.039756,-0.031323 0.079934,-0.050287 0.019609,-0.00925 0.038089,-0.02288 0.05468,-0.04032 0.01378,-0.01449 0.033687,-0.031722 0.044229,-0.038296 0.010548,-0.00658 0.021335,-0.015994 0.023985,-0.020946 0.00265,-0.00494 0.014026,-0.013068 0.025259,-0.018047 0.01124,-0.00498 0.020444,-0.011238 0.020444,-0.013921 0,-0.00826 0.020081,-0.036468 0.027747,-0.038977 0.004,-0.00122 0.028587,-0.023077 0.05468,-0.048383 0.026093,-0.025303 0.05499,-0.050843 0.064226,-0.056751 0.00922,-0.00592 0.02829,-0.025155 0.042342,-0.042771 0.014065,-0.01762 0.028523,-0.032026 0.032148,-0.032026 0.00362,0 0.017923,-0.010264 0.031748,-0.022784 0.013838,-0.012539 0.027159,-0.022784 0.029608,-0.022784 0.00245,0 0.00723,-0.00666 0.010652,-0.014815 0.00614,-0.014673 0.027715,-0.034325 0.066246,-0.06032 0.010956,-0.0074 0.023126,-0.020161 0.027042,-0.02838 0.00455,-0.00955 0.010425,-0.014958 0.016257,-0.014958 0.00502,0 0.018474,-0.00994 0.029913,-0.022075 0.011421,-0.012133 0.024414,-0.023372 0.028856,-0.024959 0.00445,-0.00162 0.00935,-0.00652 0.010893,-0.010954 0.00483,-0.01386 0.039418,-0.046922 0.058486,-0.05591 0.023555,-0.011096 0.029082,-0.015892 0.049777,-0.043087 0.016563,-0.021764 0.023706,-0.027932 0.081463,-0.070318 0.014549,-0.010669 0.028335,-0.024393 0.030655,-0.030492 0.00233,-0.00609 0.01124,-0.01445 0.019836,-0.018534 0.00859,-0.00411 0.018311,-0.012458 0.021588,-0.018596 0.0033,-0.00611 0.012196,-0.014348 0.019797,-0.01827 0.0076,-0.00392 0.025111,-0.018798 0.038889,-0.033055 0.01378,-0.014246 0.033926,-0.031491 0.044752,-0.038304 0.010833,-0.00681 0.035432,-0.02783 0.05468,-0.046706 0.02142,-0.021014 0.044261,-0.038558 0.058906,-0.045247 0.013146,-0.00602 0.023953,-0.012479 0.023998,-0.014409 1.383e-4,-0.00689 0.048081,-0.05506 0.061452,-0.061759 0.00748,-0.00379 0.01774,-0.01134 0.022689,-0.016807 0.00496,-0.00547 0.015418,-0.012641 0.023271,-0.015913 0.019427,-0.0081 0.033759,-0.021043 0.033759,-0.030444 0,-0.00428 0.0046,-0.00919 0.010243,-0.010873 0.00565,-0.00162 0.016401,-0.00877 0.023923,-0.01571 0.00748,-0.00695 0.022462,-0.018067 0.033211,-0.024725 0.010749,-0.00664 0.021784,-0.01703 0.024541,-0.023077 0.0027,-0.00603 0.01252,-0.013982 0.0217,-0.01766 0.0092,-0.00368 0.02554,-0.014064 0.03634,-0.023093 0.01081,-0.00902 0.02842,-0.018616 0.03914,-0.021321 0.01116,-0.0028 0.028,-0.012479 0.03936,-0.022593 0.01094,-0.00974 0.02138,-0.017742 0.02322,-0.017802 0.0018,-6.91e-5 0.01335,-0.00628 0.02557,-0.013799 0.01222,-0.00752 0.02609,-0.013677 0.03082,-0.013717 0.0047,-1.62e-5 0.02605,-0.00843 0.04733,-0.018697 0.0213,-0.010264 0.05,-0.022871 0.0638,-0.028021 0.01378,-0.00515 0.03326,-0.016197 0.04328,-0.024548 0.01001,-0.00835 0.02918,-0.024253 0.04256,-0.03534 0.01337,-0.011097 0.02963,-0.021485 0.0361,-0.02311 0.0065,-0.00162 0.02189,-0.012052 0.03425,-0.023176 0.01237,-0.011116 0.02399,-0.020221 0.02582,-0.020221 0.0018,0 0.0055,-0.00461 0.008,-0.010264 0.003,-0.00638 0.01325,-0.01323 0.0273,-0.018149 0.01491,-0.0052 0.0243,-0.011645 0.02763,-0.018982 0.0059,-0.012884 0.02327,-0.020161 0.0284,-0.011848 0.0052,0.00854 -8.8e-5,0.022488 -0.01084,0.028212 -0.0053,0.00285 -0.01217,0.00842 -0.01524,0.012376 -0.008,0.010425 -0.0073,0.027735 0.0012,0.027735 0.01152,0 0.02946,-0.014124 0.02946,-0.023203 0,-0.00467 0.0056,-0.012052 0.01254,-0.016421 0.0069,-0.00437 0.01705,-0.0126 0.02257,-0.018331 0.01272,-0.01319 0.02414,-0.013514 0.02414,-6.097e-4 0,0.00535 0.0044,0.016685 0.0096,0.02522 l 0.0096,0.015506 0.01971,-0.011544 c 0.01517,-0.00888 0.02601,-0.011544 0.04705,-0.011544 0.03405,0 0.04297,0.00689 0.03679,0.028455 -0.0082,0.028624 -0.0038,0.032905 0.0176,0.017112 0.01061,-0.00782 0.01617,-0.00864 0.03968,-0.00569 0.0252,0.00315 0.02745,0.00437 0.02874,0.015548 10e-4,0.00953 -0.0023,0.014897 -0.01579,0.02506 -0.01728,0.013006 -0.04587,0.040579 -0.06338,0.061122 -0.0052,0.00608 -0.01339,0.014124 -0.01825,0.017884 -0.03946,0.030555 -0.04753,0.038165 -0.04757,0.04481 0,0.00419 0.0064,0.012904 0.01435,0.019409 0.01897,0.015588 0.01579,0.03024 -0.0096,0.044528 -0.01012,0.00569 -0.02485,0.018372 -0.03273,0.028171 -0.0079,0.0098 -0.0181,0.019022 -0.02271,0.020493 -0.01225,0.00389 -0.02211,0.01512 -0.02211,0.025174 0,0.012133 0.01283,0.011055 0.01858,-0.00162 0.0042,-0.00927 0.02804,-0.022731 0.07008,-0.039593 0.0074,-0.00297 0.01624,-0.00935 0.01963,-0.014185 0.0039,-0.00565 0.0115,-0.00878 0.02117,-0.00878 0.01053,0 0.01938,-0.00417 0.02962,-0.013961 0.01467,-0.014022 0.03203,-0.016726 0.03571,-0.00558 0.0018,0.0054 -0.02018,0.028051 -0.06752,0.069637 -0.03689,0.032408 -0.04068,0.036193 -0.04068,0.040688 0,0.00234 -0.01435,0.01199 -0.03189,0.021463 -0.01753,0.00947 -0.03317,0.021219 -0.03471,0.026101 -0.0056,0.017477 -0.03723,0.044094 -0.06083,0.051104 -0.02552,0.00758 -0.03211,0.015242 -0.04354,0.05071 -0.0081,0.025018 -0.01911,0.034676 -0.05406,0.047314 -0.0092,0.00331 -0.01973,0.010711 -0.0235,0.016441 -0.0037,0.00573 -0.01353,0.013209 -0.02173,0.016644 -0.0082,0.0034 -0.0261,0.018534 -0.03978,0.033591 -0.01368,0.015039 -0.02945,0.028789 -0.03506,0.030532 -0.0056,0.00183 -0.01723,0.011787 -0.02587,0.02232 -0.009,0.010913 -0.02417,0.022653 -0.03538,0.027292 -0.01531,0.00632 -0.02139,0.012153 -0.02732,0.026131 -0.006,0.014185 -0.01006,0.017985 -0.01917,0.017985 -0.01146,0 -0.03472,0.018779 -0.03472,0.02804 0,0.010346 -0.04755,0.063921 -0.06433,0.072482 -0.01211,0.00619 -0.01771,0.012052 -0.01771,0.018636 0,0.00997 -0.02849,0.040296 -0.03791,0.040341 -0.0122,5.08e-5 -0.03955,0.00986 -0.03955,0.014146 0,0.00827 -0.03819,0.049227 -0.05077,0.05444 -0.0067,0.00278 -0.01465,0.010893 -0.0176,0.018026 -0.0034,0.0082 -0.01152,0.015424 -0.02224,0.019713 -0.0098,0.00394 -0.023923,0.015791 -0.033759,0.028417 -0.018758,0.024066 -0.018697,0.023892 -0.012358,0.040586 0.00592,0.015424 -0.010627,0.04945 -0.033846,0.069841 -0.00892,0.00784 -0.016236,0.016238 -0.016236,0.018656 0,0.00242 -0.00365,0.00559 -0.008,0.00707 -0.00435,0.00143 -0.013105,0.011036 -0.019366,0.021243 -0.00626,0.010222 -0.028054,0.03372 -0.04843,0.052235 -0.020375,0.018515 -0.040351,0.040646 -0.044394,0.049174 -0.00856,0.018007 -0.023779,0.034608 -0.054228,0.059075 -0.011971,0.00961 -0.024612,0.024343 -0.028121,0.032735 -0.00349,0.00839 -0.012216,0.01829 -0.019364,0.021976 -0.00714,0.00369 -0.019797,0.017213 -0.028096,0.030036 -0.00832,0.012824 -0.035289,0.044286 -0.059948,0.06991 -0.024657,0.025624 -0.050304,0.054793 -0.056993,0.064816 -0.00668,0.010015 -0.019797,0.02643 -0.029143,0.036453 -0.00934,0.010015 -0.022473,0.025048 -0.029182,0.033387 -0.014245,0.017702 -0.016424,0.040762 -0.0042,0.044578 0.00439,0.00143 0.017418,0.00664 0.028949,0.011706 0.018963,0.00833 0.022233,0.00859 0.034178,0.0026 0.014956,-0.0075 0.049075,-0.014246 0.1088916,-0.021579 0.079012,-0.00967 0.1049586,-0.014632 0.1241695,-0.02367 0.024109,-0.01136 0.1145641,-0.017091 0.2677,-0.01701 0.134608,8.54e-5 0.163131,0.00308 0.177647,0.018737 0.006,0.00648 0.0208,0.015466 0.03284,0.019938 0.03361,0.0125 0.08797,0.055916 0.08797,0.070264 0,0.00402 0.0062,0.015791 0.01384,0.026132 0.01317,0.017904 0.05452,0.1362622 0.05452,0.1560484 0,0.00459 0.0052,0.018432 0.0116,0.030726 0.01001,0.019327 0.01102,0.02494 0.0074,0.041302 -0.0023,0.010405 -0.0095,0.025135 -0.01585,0.032712 -0.0064,0.00758 -0.01298,0.018392 -0.01471,0.02405 -0.0017,0.00565 -0.0066,0.014389 -0.01081,0.019388 -0.0042,0.00502 -0.01024,0.019225 -0.01335,0.031563 -0.0034,0.013352 -0.01187,0.029336 -0.02099,0.039434 -0.0084,0.00935 -0.01941,0.025896 -0.02436,0.036786 -0.0087,0.019104 -0.01431,0.025743 -0.05531,0.065367 -0.01037,0.010015 -0.02012,0.023188 -0.02165,0.02925 -0.0017,0.00605 -0.01581,0.02404 -0.03172,0.039944 -0.01591,0.015913 -0.03407,0.03709 -0.04038,0.047074 -0.0063,0.00997 -0.01435,0.018149 -0.01789,0.018149 -0.0036,0 -0.01343,0.00819 -0.02201,0.018209 -0.0086,0.010015 -0.02196,0.020434 -0.02974,0.023149 -0.0099,0.00348 -0.01701,0.010853 -0.02384,0.024965 -0.0068,0.014042 -0.01882,0.026668 -0.04023,0.042239 -0.01678,0.012214 -0.03365,0.025326 -0.03746,0.029136 -0.0038,0.00382 -0.01298,0.010057 -0.02038,0.0139 -0.00739,0.00384 -0.020515,0.016441 -0.02915,0.027996 -0.00888,0.011889 -0.023236,0.024337 -0.033037,0.028661 -0.010853,0.00479 -0.017331,0.01073 -0.017331,0.015892 0,0.00453 -0.00278,0.00824 -0.00618,0.00824 -0.00792,0 -0.022837,0.013129 -0.029768,0.026207 -0.00296,0.00565 -0.013053,0.013433 -0.022359,0.017315 -0.0093,0.00389 -0.028202,0.01575 -0.041986,0.026379 -0.013783,0.010629 -0.030546,0.022767 -0.037249,0.026984 -0.0067,0.00421 -0.013431,0.011605 -0.014956,0.016421 -0.00161,0.00482 -0.00842,0.011076 -0.015305,0.013942 -0.00689,0.00285 -0.018614,0.010487 -0.026047,0.01695 -0.00744,0.00646 -0.024102,0.016807 -0.037035,0.022979 -0.015829,0.00755 -0.025259,0.015466 -0.028872,0.024168 -0.0031,0.00754 -0.011382,0.015344 -0.019771,0.018697 -0.00793,0.00318 -0.021872,0.012356 -0.030992,0.020421 -0.00913,0.00807 -0.023469,0.016157 -0.031896,0.017985 -0.00843,0.00183 -0.016339,0.0047 -0.017599,0.00638 -0.010222,0.013717 -0.077961,0.066524 -0.1088145,0.084805 -0.02569,0.015222 -0.039528,0.026437 -0.042287,0.034278 -0.0024,0.00683 -0.014165,0.017742 -0.028393,0.026375 -0.013352,0.00809 -0.029132,0.019875 -0.035053,0.026175 -0.00592,0.0063 -0.01953,0.015324 -0.030248,0.020079 -0.010711,0.00474 -0.019489,0.011726 -0.019489,0.015527 0,0.0038 -0.0074,0.012621 -0.016461,0.019612 -0.00904,0.00699 -0.023602,0.020282 -0.032344,0.029505 -0.00874,0.00923 -0.022973,0.020139 -0.031628,0.02425 -0.00866,0.00411 -0.017499,0.011929 -0.019632,0.017395 -0.00506,0.012884 -0.034561,0.040092 -0.054871,0.05059 -0.00877,0.00453 -0.022098,0.016421 -0.029621,0.026437 -0.023836,0.03173 -0.075195,0.078161 -0.099659,0.090101 -0.00771,0.00377 -0.016378,0.011624 -0.019305,0.017478 -0.007,0.014064 -0.1269178,0.1308704 -0.1486488,0.1447873 -0.00945,0.00608 -0.021323,0.019468 -0.026752,0.030248 -0.00542,0.010813 -0.039181,0.048901 -0.076416,0.086281 -0.036659,0.036802 -0.083802,0.084475 -0.1047537,0.1059425 -0.020955,0.021463 -0.040654,0.039029 -0.043782,0.039029 -0.00965,0 -0.047493,0.036272 -0.059877,0.057404 -0.00646,0.011036 -0.013618,0.020053 -0.015913,0.020053 -0.00233,0 -0.016158,0.010767 -0.030803,0.023923 -0.041727,0.037463 -0.083112,0.07177 -0.086605,0.07177 -0.00181,0 -0.00661,0.0058 -0.010793,0.01289 -0.0042,0.0071 -0.019429,0.024 -0.03388,0.03759 -0.014452,0.0136 -0.033758,0.0322 -0.042917,0.04137 -0.00917,0.0092 -0.022848,0.01987 -0.030429,0.0238 -0.00833,0.0043 -0.0178,0.01544 -0.023933,0.02811 -0.00627,0.013 -0.019021,0.02778 -0.0335,0.03887 -0.012843,0.0098 -0.024877,0.01943 -0.026746,0.0213 -0.00181,0.0018 -0.014168,0.01474 -0.02734,0.02858 -0.013172,0.01384 -0.032142,0.03257 -0.042167,0.04162 -0.010015,0.009 -0.027456,0.02825 -0.038728,0.04268 -0.011279,0.01444 -0.027683,0.03094 -0.036454,0.03671 -0.00877,0.0057 -0.024566,0.01932 -0.035095,0.03012 -0.036686,0.03764 -0.058357,0.06131 -0.064426,0.07039 -0.00335,0.005 -0.014123,0.01408 -0.023921,0.02014 -0.0098,0.0061 -0.0178,0.01341 -0.0178,0.01636 0,0.0075 -0.050297,0.05698 -0.067102,0.06602 -0.00921,0.005 -0.015771,0.01339 -0.019512,0.02506 -0.00646,0.02012 -0.01994,0.03661 -0.0335,0.04091 -0.0051,0.0017 -0.037461,0.03139 -0.071856,0.06614 -0.034398,0.03475 -0.064686,0.0632 -0.067309,0.0632 -0.00265,0 -0.00801,0.0063 -0.011971,0.01394 -0.00446,0.0087 -0.014452,0.01707 -0.026318,0.02219 -0.01051,0.0046 -0.023209,0.01289 -0.028219,0.01856 -0.00504,0.0057 -0.017826,0.01406 -0.028477,0.01867 -0.013476,0.0058 -0.019364,0.01111 -0.019364,0.01739 0,0.01004 -0.026215,0.03229 -0.038023,0.03229 -0.00414,0 -0.011459,0.0039 -0.016236,0.0087 -0.00478,0.0048 -0.024128,0.01911 -0.042994,0.03183 -0.01888,0.01273 -0.03792,0.02926 -0.042335,0.03673 -0.00517,0.0088 -0.018518,0.01859 -0.037591,0.02771 -0.016255,0.0078 -0.035438,0.01906 -0.042613,0.0251 -0.00717,0.006 -0.019836,0.01421 -0.028141,0.01815 -0.00832,0.0039 -0.017438,0.01229 -0.020302,0.01857 -0.00285,0.0063 -0.012881,0.01461 -0.022273,0.01854 -0.00939,0.0039 -0.023792,0.01303 -0.032007,0.02025 -0.0082,0.0072 -0.024373,0.01549 -0.035924,0.0184 -0.014898,0.0037 -0.023067,0.0089 -0.028128,0.0177 -0.00434,0.0074 -0.018007,0.0175 -0.034702,0.02532 -0.015163,0.0071 -0.032698,0.01644 -0.038967,0.0208 -0.00627,0.0043 -0.02067,0.0092 -0.031999,0.01079 -0.016869,0.0024 -0.02204,0.0013 -0.028477,-0.0058 z M 10.661006,6.4322832 c 0.0017,-0.00412 0.002,-0.00842 8.4e-4,-0.00953 -0.0042,-0.00419 -0.02096,0.00421 -0.02096,0.010487 0,0.00902 0.0166,0.00824 0.02012,-0.00102 z M 2.9699822,10.409788 c -0.0079,-0.0012 -0.021879,-0.01014 -0.033752,-0.02168 -0.017581,-0.01709 -0.020302,-0.02231 -0.020682,-0.03946 -4.066e-4,-0.0179 -0.002,-0.02062 -0.016946,-0.02864 -0.015686,-0.0084 -0.016928,-0.0084 -0.024444,-0.001 -0.00434,0.0044 -0.010387,0.01756 -0.013392,0.02936 -0.00524,0.02038 -0.00627,0.02146 -0.021439,0.02161 -0.00934,1.04e-4 -0.021245,0.0044 -0.02871,0.01018 -0.01325,0.01043 -0.018963,0.0096 -0.029021,-0.0044 -0.00728,-0.01008 -0.027023,-0.01075 -0.037487,-0.0012 -0.00426,0.0038 -0.012604,0.0081 -0.018596,0.0095 -0.00595,0.0014 -0.015447,0.0036 -0.021045,0.005 -0.00794,0.0018 -0.011195,-2.02e-4 -0.014852,-0.0099 -0.00271,-0.0071 -0.010445,-0.01449 -0.018311,-0.01746 -0.014044,-0.0053 -0.01579,-0.0094 -0.013884,-0.03269 0.00143,-0.01803 0.010222,-0.03417 0.039594,-0.0732 0.015505,-0.02059 0.024451,-0.03699 0.024451,-0.04479 0,-0.0082 0.00614,-0.0187 0.018226,-0.03127 0.010015,-0.01043 0.018226,-0.02345 0.018226,-0.02894 0,-0.0055 0.00719,-0.01994 0.015971,-0.03212 0.00877,-0.01217 0.018187,-0.02727 0.020889,-0.03353 0.00581,-0.01351 0.016016,-0.03351 0.026713,-0.05239 0.00426,-0.0075 0.014652,-0.02699 0.023113,-0.043281 0.00845,-0.016297 0.02522,-0.040264 0.037248,-0.053274 0.012029,-0.013001 0.021872,-0.027462 0.021872,-0.032123 0,-0.0046 0.00161,-0.010427 0.00362,-0.012801 0.002,-0.00243 0.00847,-0.016628 0.014387,-0.031671 0.00588,-0.015035 0.019486,-0.036811 0.030144,-0.048378 0.018678,-0.020262 0.037985,-0.053103 0.045224,-0.076928 0.00181,-0.00627 0.011402,-0.020055 0.021096,-0.030655 0.00969,-0.010586 0.017638,-0.022227 0.017638,-0.025853 0,-0.00362 0.00466,-0.012377 0.010405,-0.019468 0.00569,-0.00709 0.015402,-0.02416 0.02153,-0.03794 0.00614,-0.01378 0.020509,-0.035536 0.031967,-0.048338 0.015079,-0.01685 0.022945,-0.030875 0.028478,-0.05075 0.0042,-0.015117 0.014614,-0.036601 0.023113,-0.047744 0.00853,-0.011137 0.017845,-0.027467 0.020748,-0.036263 0.00614,-0.018656 0.029415,-0.056515 0.041185,-0.067049 0.00446,-0.00402 0.010813,-0.01447 0.014044,-0.023249 0.00324,-0.00878 0.015809,-0.033623 0.027967,-0.055221 0.012151,-0.021599 0.022092,-0.042794 0.022092,-0.047101 0,-0.00431 0.00595,-0.016361 0.01323,-0.026797 0.00728,-0.010446 0.016605,-0.029573 0.020748,-0.042532 0.00414,-0.012966 0.012029,-0.026584 0.017541,-0.030281 0.00892,-0.006 0.018983,-0.023637 0.046898,-0.08223 0.00459,-0.00967 0.015021,-0.024839 0.023119,-0.033687 0.00811,-0.00884 0.015854,-0.021947 0.017231,-0.029106 0.00143,-0.00716 0.00368,-0.019165 0.00517,-0.026693 0.00142,-0.00752 0.00976,-0.022196 0.018453,-0.032612 0.016566,-0.019835 0.029021,-0.044937 0.029021,-0.058517 0,-0.00439 0.00291,-0.010385 0.0064,-0.013312 0.00664,-0.00552 0.026875,-0.045134 0.032214,-0.063102 0.00161,-0.00569 0.00917,-0.01697 0.016624,-0.025062 0.016093,-0.017478 0.02915,-0.045199 0.033538,-0.071215 0.00181,-0.01134 0.00937,-0.026213 0.018718,-0.037413 0.00856,-0.010222 0.015544,-0.02065 0.015544,-0.023159 0,-0.00906 0.031619,-0.070069 0.043033,-0.083025 0.0064,-0.00729 0.01378,-0.02105 0.016339,-0.030565 0.00259,-0.00951 0.00627,-0.018311 0.0083,-0.01955 0.002,-0.00122 0.010326,-0.016197 0.018472,-0.033231 0.00816,-0.01703 0.018776,-0.03918 0.023591,-0.049205 0.00484,-0.010015 0.00874,-0.02039 0.00874,-0.023036 -1.03e-5,-0.00265 0.00498,-0.011544 0.011014,-0.019774 0.00608,-0.00823 0.013456,-0.025042 0.016404,-0.037369 0.00303,-0.01258 0.00974,-0.025901 0.015305,-0.030358 0.012131,-0.00972 0.032252,-0.044046 0.036712,-0.062623 0.00394,-0.016461 0.016217,-0.036954 0.037146,-0.061998 0.00856,-0.010222 0.015544,-0.022213 0.015544,-0.026622 0,-0.00908 0.01014,-0.020605 0.04485,-0.050967 0.015099,-0.013209 0.028717,-0.030637 0.036349,-0.046535 0.00772,-0.016055 0.018085,-0.029275 0.028161,-0.035897 0.012946,-0.00852 0.017969,-0.016584 0.026654,-0.042934 0.0078,-0.023667 0.013799,-0.034106 0.02213,-0.038567 0.00978,-0.00522 0.033235,-0.04401 0.033235,-0.054941 0,-0.00695 0.032569,-0.054458 0.039038,-0.056939 0.00362,-0.00143 0.00652,-0.00547 0.00652,-0.00906 0,-0.00675 0.0064,-0.020591 0.030946,-0.067051 0.00778,-0.014714 0.015525,-0.033166 0.017211,-0.041009 0.00161,-0.00784 0.010729,-0.030666 0.020101,-0.050716 0.00937,-0.020038 0.018433,-0.042337 0.020159,-0.049528 0.00181,-0.00719 0.00886,-0.02052 0.015829,-0.029619 0.00696,-0.0091 0.01943,-0.037047 0.027696,-0.062108 0.00826,-0.02506 0.016681,-0.047679 0.018718,-0.050264 0.002,-0.00259 0.00466,-0.00976 0.00588,-0.015953 0.0031,-0.016421 0.00797,-0.027198 0.012196,-0.027198 0.00207,0 0.00614,-0.00738 0.00913,-0.01638 0.00297,-0.00902 0.00826,-0.02183 0.011725,-0.028481 0.00349,-0.00664 0.00633,-0.022343 0.00647,-0.034874 6.73e-5,-0.012519 0.00388,-0.031077 0.00849,-0.041211 0.00459,-0.010139 0.00984,-0.030129 0.011627,-0.044427 0.00181,-0.014307 0.00498,-0.025999 0.00707,-0.025999 0.00517,0 0.027418,-0.045279 0.027418,-0.055902 0,-0.017965 0.028775,-0.096956 0.038185,-0.1048085 0.026862,-0.022422 0.044533,-0.043686 0.048481,-0.058357 0.00259,-0.00967 0.0089,-0.018717 0.015525,-0.022251 0.00614,-0.00327 0.013496,-0.011686 0.016398,-0.018676 0.00291,-0.007 0.00942,-0.016461 0.014471,-0.021036 0.00504,-0.00456 0.014148,-0.017538 0.020198,-0.028809 0.00608,-0.011279 0.023255,-0.037935 0.038231,-0.059237 0.014975,-0.021302 0.027237,-0.043188 0.027237,-0.048634 3.8e-6,-0.00545 0.0051,-0.015994 0.011402,-0.023441 0.00627,-0.00744 0.011382,-0.015527 0.011382,-0.017965 0,-0.00243 0.004,-0.00951 0.0089,-0.01573 0.00491,-0.00622 0.011886,-0.020018 0.015564,-0.030678 0.00368,-0.010648 0.010935,-0.022358 0.016159,-0.026011 0.00865,-0.00608 0.045955,-0.076129 0.045955,-0.086336 0,-0.0024 0.00794,-0.014916 0.017658,-0.027857 0.011647,-0.015487 0.018718,-0.030574 0.020766,-0.044201 0.00161,-0.011381 0.00498,-0.021839 0.00725,-0.023245 0.00575,-0.00356 0.02723,-0.04707 0.02723,-0.055193 0,-0.00366 0.00484,-0.011482 0.01071,-0.017376 0.011769,-0.011767 0.042083,-0.064608 0.044637,-0.0778 8.402e-4,-0.00456 0.00748,-0.011563 0.014671,-0.015547 0.00849,-0.00472 0.019713,-0.019938 0.032156,-0.043657 0.013902,-0.026541 0.028148,-0.045072 0.052476,-0.068315 0.018349,-0.017538 0.038748,-0.037788 0.045308,-0.044991 0.00657,-0.00719 0.018821,-0.020443 0.027223,-0.029423 0.00842,-0.00898 0.020302,-0.02288 0.026403,-0.030889 0.00614,-0.00801 0.016643,-0.015953 0.023411,-0.017641 0.017069,-0.00428 0.023746,-0.010791 0.023746,-0.023138 0,-0.00906 0.00297,-0.010995 0.021083,-0.013717 0.016663,-0.0025 0.024781,-0.0071 0.038729,-0.0219 0.02418,-0.025673 0.023274,-0.037553 -0.00427,-0.055606 -0.027644,-0.018128 -0.031398,-0.034781 -0.00957,-0.042389 0.01829,-0.00638 0.043019,-0.00655 0.05455,-4.064e-4 0.013903,0.00744 0.026578,-0.00253 0.039038,-0.03071 0.00614,-0.01386 0.01632,-0.03199 0.022629,-0.040268 0.00633,-0.00827 0.013372,-0.021911 0.015693,-0.030299 0.00233,-0.00839 0.013373,-0.024959 0.02458,-0.036819 0.011195,-0.011868 0.024671,-0.031301 0.029931,-0.0432 0.011059,-0.025034 0.034656,-0.051254 0.046128,-0.051254 0.011705,0 0.014878,0.016584 0.00729,0.038039 -0.018918,0.053506 -0.020159,0.066764 -0.00621,0.066764 0.00963,0 0.038612,-0.029626 0.041934,-0.042871 0.00368,-0.014775 0.01305,-0.019631 0.022538,-0.011767 0.010916,0.00906 0.00769,0.019957 -0.00813,0.027292 -0.013166,0.00611 -0.014852,0.0091 -0.016094,0.028481 -0.00103,0.016604 1.706e-4,0.021644 0.0053,0.021644 0.00892,0 0.030275,-0.02583 0.030275,-0.036626 0,-0.00472 0.00381,-0.012254 0.00856,-0.016746 0.00472,-0.0045 0.010077,-0.01327 0.011931,-0.019551 0.00181,-0.00625 0.00654,-0.014978 0.010387,-0.019367 0.00706,-0.00803 0.019229,-0.010913 0.019287,-0.00455 1.61e-5,0.00183 0.00744,0.00845 0.016501,0.014632 l 0.016462,0.011218 0.00823,-0.01016 c 0.00452,-0.00559 0.016993,-0.013251 0.027708,-0.01703 0.01071,-0.00379 0.023041,-0.010098 0.027391,-0.014043 0.010729,-0.00969 0.016217,-0.00512 0.019874,0.016543 0.00362,0.021244 0.00751,0.022274 0.025886,0.00681 0.00744,-0.00625 0.017762,-0.011381 0.022913,-0.011381 0.00517,0 0.017374,-0.0024 0.02714,-0.00532 0.026687,-0.00799 0.031037,-8.144e-4 0.017315,0.028443 -0.00601,0.012823 -0.014283,0.025669 -0.018415,0.028567 -0.00414,0.00291 -0.013999,0.017499 -0.021976,0.032428 -0.00797,0.014937 -0.017987,0.030534 -0.022286,0.03466 -0.015809,0.015201 -0.026183,0.02984 -0.032116,0.045329 -0.012558,0.032784 -0.013373,0.029596 0.012359,0.049191 0.012028,0.00917 0.013069,0.00565 -0.01557,0.053266 -0.00601,0.010015 -0.015893,0.028481 -0.021917,0.041011 -0.00601,0.012519 -0.015305,0.02635 -0.020625,0.030711 -0.00931,0.00765 -0.01274,0.021635 -0.00679,0.027604 0.00549,0.00547 0.01886,-0.00571 0.021968,-0.018331 0.00161,-0.00695 0.0078,-0.016746 0.013515,-0.021764 0.00575,-0.00502 0.01378,-0.015669 0.017923,-0.023696 0.00414,-0.00803 0.010077,-0.016218 0.01323,-0.01823 0.00317,-0.00203 0.011459,-0.01134 0.018453,-0.020731 0.00717,-0.00963 0.016643,-0.017091 0.021698,-0.017091 0.00491,0 0.0178,-0.00923 0.028606,-0.020505 0.010813,-0.011279 0.023074,-0.020504 0.027263,-0.020504 0.011725,0 0.00921,0.016055 -0.00517,0.032876 -0.01833,0.021477 -0.046433,0.061068 -0.046652,0.065702 -1.039e-4,0.00217 -0.00627,0.011036 -0.013677,0.019714 -0.00742,0.00868 -0.013496,0.01894 -0.013496,0.022816 0,0.00386 -0.00721,0.013677 -0.016054,0.02177 -0.00883,0.0081 -0.017296,0.020907 -0.018803,0.028448 -0.00143,0.00754 -0.00434,0.013717 -0.00627,0.013717 -0.00837,0 -0.00833,0.015405 6.92e-5,0.026081 0.00504,0.00638 0.00917,0.015932 0.00919,0.021239 1.022e-4,0.013413 0.00491,0.019692 0.01939,0.025187 0.022577,0.00856 0.012636,0.03088 -0.01862,0.041778 -0.010015,0.0035 -0.014633,0.0081 -0.014878,0.014855 -6.102e-4,0.01703 -0.023824,0.055501 -0.032679,0.054234 -0.00439,-6.098e-4 -0.011543,-0.00162 -0.015913,-0.00228 -0.00627,-8.143e-4 -0.00845,0.00324 -0.010387,0.019876 -0.00161,0.013677 -0.00689,0.026407 -0.015182,0.036453 -0.021322,0.025865 -0.071289,0.094651 -0.071289,0.098145 0,0.00183 -0.00375,0.00752 -0.00839,0.012701 -0.00459,0.00516 -0.012862,0.02401 -0.018349,0.041856 -0.00549,0.017843 -0.013903,0.035997 -0.018678,0.040332 -0.00478,0.00434 -0.01071,0.016381 -0.013146,0.026786 -0.00245,0.010405 -0.00991,0.033256 -0.016624,0.050801 -0.0067,0.017538 -0.014756,0.040936 -0.017884,0.051988 -0.0031,0.011055 -0.00972,0.023353 -0.014633,0.027337 -0.00839,0.00681 -0.015505,0.027066 -0.022544,0.064208 -0.00161,0.00878 -0.00687,0.02139 -0.011562,0.028041 -0.00472,0.00664 -0.00854,0.013556 -0.00854,0.015344 0,0.00183 -0.00614,0.010222 -0.013599,0.018738 -0.00748,0.00852 -0.014795,0.021095 -0.016236,0.027941 -0.00414,0.019673 -0.033209,0.075166 -0.045534,0.086969 -0.00614,0.0059 -0.011201,0.014489 -0.011201,0.019104 0,0.00459 -0.00181,0.00947 -0.004,0.010832 -0.00588,0.00363 -0.027915,0.051737 -0.027915,0.060978 0,0.00439 -0.010243,0.022203 -0.022764,0.039591 -0.012519,0.017396 -0.024024,0.038349 -0.025569,0.046579 -0.00161,0.00824 -0.00446,0.014958 -0.00657,0.014958 -0.00207,0 -0.00633,0.00723 -0.00957,0.016055 -0.00342,0.00936 -0.011769,0.019571 -0.020121,0.024505 -0.010586,0.00624 -0.015628,0.013678 -0.01939,0.028594 -0.00278,0.011076 -0.011298,0.028744 -0.018899,0.039247 -0.0076,0.010507 -0.013838,0.020845 -0.013838,0.022984 0,0.00213 -0.0051,0.00986 -0.011382,0.017133 -0.00627,0.00728 -0.011382,0.016726 -0.011382,0.020996 -6.4e-6,0.00917 -0.039633,0.067182 -0.048113,0.070438 -0.00324,0.00122 -0.00892,0.0099 -0.012662,0.019245 -0.00375,0.00935 -0.00984,0.019509 -0.013574,0.022609 -0.00375,0.00308 -0.011485,0.017335 -0.017257,0.031638 -0.00575,0.014307 -0.014103,0.032236 -0.018556,0.039834 -0.00446,0.0076 -0.00989,0.03019 -0.012131,0.050212 -0.00382,0.034031 -0.017173,0.070067 -0.043033,0.1159637 -0.010852,0.019245 -0.026112,0.052187 -0.026099,0.0563 1.04e-5,0.00215 -0.0051,0.00999 -0.011382,0.017437 -0.00627,0.00744 -0.011382,0.018107 -0.011382,0.023686 0,0.00561 -0.00714,0.017051 -0.015952,0.025606 -0.00877,0.00849 -0.015951,0.017742 -0.015951,0.020538 0,0.0028 -0.00414,0.00955 -0.00925,0.014998 -0.0051,0.00545 -0.011052,0.019631 -0.013268,0.031511 -0.00252,0.013535 -0.00809,0.025087 -0.014917,0.030953 -0.013289,0.011421 -0.044591,0.057861 -0.044591,0.066138 0,0.00329 -0.011137,0.016421 -0.024748,0.029147 -0.014452,0.013514 -0.026111,0.028841 -0.028012,0.036819 -0.0031,0.012926 -0.011344,0.024097 -0.051131,0.069245 -0.00927,0.010527 -0.017942,0.023713 -0.019267,0.029324 -0.00143,0.00561 -0.00853,0.013576 -0.015951,0.017681 -0.00744,0.00411 -0.015952,0.012275 -0.018899,0.018149 -0.00297,0.00588 -0.00853,0.012437 -0.012358,0.014592 -0.00382,0.00215 -0.021672,0.023357 -0.039614,0.047124 -0.019532,0.025881 -0.036834,0.044269 -0.04313,0.045848 -0.011259,0.00282 -0.033965,0.031906 -0.033965,0.043508 0,0.00837 -0.010671,0.018331 -0.030235,0.028238 -0.014284,0.00723 -0.042671,0.050207 -0.042671,0.064606 0,0.013474 -0.017684,0.041681 -0.033868,0.054022 -0.011459,0.00874 -0.017703,0.018168 -0.021174,0.031984 -0.00324,0.012844 -0.013696,0.029641 -0.030378,0.04876 -0.01398,0.016035 -0.030268,0.039414 -0.036175,0.051945 -0.00588,0.012539 -0.016605,0.032232 -0.023798,0.043783 -0.00719,0.011543 -0.014575,0.025903 -0.016377,0.031896 -0.00181,0.006 -0.00693,0.014998 -0.011337,0.020018 -0.00439,0.00502 -0.010652,0.014206 -0.013863,0.020417 -0.00324,0.00622 -0.010606,0.01504 -0.016423,0.019612 -0.00581,0.00457 -0.018984,0.024489 -0.029272,0.044259 -0.01071,0.020583 -0.025071,0.040804 -0.033603,0.047312 -0.010405,0.00795 -0.016688,0.017966 -0.020844,0.033291 -0.00782,0.028846 -0.025711,0.060358 -0.041741,0.073515 -0.00709,0.0058 -0.012887,0.013108 -0.012887,0.016177 0,0.00308 -0.00872,0.018535 -0.019371,0.034354 -0.010652,0.015811 -0.025679,0.038745 -0.033402,0.050956 -0.00772,0.012214 -0.017108,0.025823 -0.020889,0.030249 -0.00734,0.00859 -0.026584,0.048595 -0.026584,0.055217 0,0.00414 -0.020716,0.032521 -0.035749,0.04895 -0.011647,0.012722 -0.018899,0.026753 -0.01906,0.036863 -6.73e-5,0.00455 -0.011195,0.019957 -0.024735,0.034234 -0.013534,0.014267 -0.027696,0.032732 -0.031483,0.041009 -0.00375,0.00827 -0.010057,0.022226 -0.013941,0.030998 -0.00388,0.00878 -0.016217,0.028251 -0.027391,0.043287 -0.011175,0.01504 -0.020437,0.031242 -0.020567,0.036014 -1.196e-4,0.00477 -0.00815,0.016055 -0.017845,0.02506 -0.00969,0.009 -0.020987,0.022538 -0.025117,0.030054 -0.00414,0.00751 -0.00932,0.016747 -0.011544,0.020509 -0.0022,0.00375 -0.00748,0.015202 -0.011666,0.02542 -0.0042,0.010222 -0.013166,0.021853 -0.019914,0.02584 -0.00707,0.0042 -0.014756,0.014653 -0.01813,0.024703 -0.012196,0.036381 -0.025058,0.059947 -0.035232,0.064581 -0.00614,0.00278 -0.016462,0.01683 -0.024665,0.033513 -0.02129,0.043292 -0.037281,0.068801 -0.048907,0.078023 -0.020902,0.016584 -0.00895,0.044092 0.019164,0.044092 0.01195,0 0.017541,-0.00314 0.025466,-0.014265 0.010139,-0.014245 0.010201,-0.014245 0.040182,-0.010852 0.01652,0.00181 0.034127,0.00303 0.039142,0.00259 0.00504,-4.065e-4 0.037196,-0.00181 0.071515,-0.00303 l 0.062403,-0.00227 0.012396,0.013922 c 0.00681,0.00764 0.014141,0.013921 0.016281,0.013921 0.00213,0 0.00717,-0.00691 0.011195,-0.015344 0.00693,-0.01453 0.00862,-0.015363 0.031547,-0.015564 0.020722,-1.849e-4 0.025271,0.00143 0.031444,0.010793 0.00815,0.012435 0.018394,0.014283 0.023973,0.00434 0.00207,-0.00368 0.01396,-0.011886 0.026429,-0.018208 0.019345,-0.00982 0.028826,-0.011504 0.064555,-0.011524 0.023035,-8.2e-6 0.042975,-0.00181 0.044313,-0.00394 0.00297,-0.00478 0.03569,-0.01049 0.056555,-0.00986 0.00833,2.038e-4 0.021723,-0.00181 0.029744,-0.00484 0.012558,-0.00452 0.016766,-0.00394 0.030404,0.00439 0.019772,0.012054 0.028459,0.012093 0.05287,2.029e-4 0.020554,-0.00994 0.034146,-0.00756 0.039736,0.00699 0.004,0.010367 0.069628,0.00989 0.0812,-6.095e-4 0.00777,-0.007 0.00892,-0.007 0.016662,0 0.00614,0.00556 0.017012,0.00754 0.041153,0.00754 0.018045,0 0.039601,0.00285 0.047881,0.00633 0.01051,0.00439 0.017496,0.00491 0.023152,0.00181 0.00446,-0.00245 0.015544,-0.00317 0.024665,-0.00161 0.00913,0.00161 0.026829,0.00407 0.039362,0.00549 0.012539,0.00143 0.042587,0.0064 0.066787,0.011195 0.024199,0.00478 0.052908,0.00874 0.063793,0.00874 0.010891,1.42e-5 0.03209,0.0022 0.04713,0.00484 0.044255,0.00778 0.2697276,0.00994 0.8201918,0.00787 l 0.3554165,-0.00139 0.020509,-0.011912 c 0.016339,-0.00949 0.029292,-0.012577 0.063793,-0.015202 0.079271,-0.00608 0.1929787,-0.00721 0.2084649,-0.00213 0.018802,0.0062 0.019164,0.017458 0.00103,0.030875 -0.00758,0.00565 -0.012558,0.012201 -0.011078,0.01461 0.00143,0.00243 0.012313,0.00923 0.02405,0.015114 0.01937,0.00974 0.024231,0.010326 0.05322,0.00661 0.03169,-0.00409 0.065144,6.096e-4 0.078603,0.011096 0.009,0.00695 0.00664,0.01955 -0.00452,0.024515 -0.04377,0.019375 -0.053542,0.025967 -0.053542,0.036115 0,0.00695 0.0042,0.01254 0.012519,0.016506 0.010793,0.00521 0.012312,0.00826 0.011078,0.022766 -0.00143,0.016219 -8.402e-4,0.016871 0.015978,0.019671 0.030268,0.00504 0.02955,0.00417 0.026222,0.033584 l -0.00303,0.02694 0.019894,0.009 c 0.024192,0.01091 0.046393,0.03351 0.044203,0.04502 -0.00143,0.0071 -0.00725,0.0088 -0.038476,0.01071 -0.04121,0.0025 -0.051893,0.0083 -0.051893,0.0279 0,0.0086 -0.00233,0.0131 -0.00683,0.0131 -0.00452,0 -0.00683,-0.0045 -0.00683,-0.01351 0,-0.01805 -0.010464,-0.02294 -0.048966,-0.02294 -0.029408,0 -0.031949,8.4e-4 -0.041255,0.01341 -0.00816,0.01104 -0.013741,0.01366 -0.031463,0.01481 -0.018757,0.0012 -0.0229,0.0034 -0.032052,0.01703 -0.00575,0.0086 -0.00978,0.01783 -0.00886,0.0205 8.402e-4,0.0027 0.013023,0.005 0.026933,0.005 0.017684,0 0.027947,0.0023 0.034133,0.008 0.013903,0.01254 0.022422,0.0096 0.030442,-0.01041 0.00815,-0.02039 0.015402,-0.02501 0.032491,-0.02073 0.018938,0.0048 0.029492,0.01878 0.029492,0.0392 0,0.0152 0.002,0.01923 0.011562,0.0236 0.00664,0.003 0.010956,0.0084 0.01014,0.01243 -0.00103,0.0055 -0.00744,0.0071 -0.027263,0.0071 -0.018453,0 -0.027521,0.0021 -0.031774,0.0075 -0.00537,0.0068 -0.015144,0.009 -0.06747,0.01581 -0.01559,0.002 -0.022693,-6.09e-4 -0.047312,-0.01815 -0.012009,-0.0085 -0.012152,-0.0084 -0.030681,0.0044 -0.015324,0.01061 -0.023953,0.01305 -0.048688,0.01378 -0.036957,0.001 -0.04989,-0.0035 -0.053756,-0.01888 -0.00278,-0.01108 -0.016946,-0.02033 -0.031127,-0.02033 -0.00324,0 -0.011808,0.0046 -0.019002,0.01026 -0.00991,0.0077 -0.019693,0.01043 -0.040487,0.01096 -0.015079,4.06e-4 -0.044842,0.0017 -0.066142,0.0027 -0.021303,0.0012 -0.043861,0 -0.050123,-0.0025 -0.024676,-0.0098 -0.056464,-0.01158 -0.081644,-0.0045 -0.020727,0.0058 -0.028497,0.006 -0.048481,0.0012 -0.023423,-0.0056 -0.035044,-0.0051 -0.1091022,0.0049 -0.017541,0.0024 -0.084184,0.0054 -0.1480904,0.0066 -0.06391,0.0012 -0.1363187,0.0044 -0.1609155,0.0069 -0.0246,0.0024 -0.049807,0.0032 -0.056018,0.0017 -0.0062,-0.0017 -0.019914,4.06e-4 -0.030462,0.0042 -0.010548,0.0039 -0.027373,0.008 -0.037396,0.0092 -0.010015,0.0012 -0.024955,0.0046 -0.033176,0.0077 -0.011686,0.0044 -0.017845,0.0044 -0.028277,0 -0.00874,-0.0037 -0.022699,-0.0044 -0.040551,-0.0023 -0.042232,0.0049 -0.073425,-0.0077 -0.073425,-0.02957 0,-0.01571 0.00633,-0.02092 0.030339,-0.02488 0.010425,-0.0017 0.022318,-0.0056 0.026448,-0.0086 0.01778,-0.013 -0.012946,-0.03751 -0.040564,-0.03233 -0.011912,0.0023 -0.018596,6.1e-4 -0.02935,-0.0074 -0.01146,-0.0084 -0.018983,-0.01012 -0.042549,-0.0093 -0.016339,6.1e-4 -0.033195,0.004 -0.03929,0.008 -0.00845,0.0055 -0.013211,0.0059 -0.0229,0.0018 -0.00872,-0.0037 -0.021588,-0.0037 -0.044908,-4.07e-4 -0.017969,0.0025 -0.035807,0.0034 -0.039627,0.002 -0.00382,-0.0014 -0.019817,0.0014 -0.035554,0.0064 -0.031063,0.0099 -0.051952,0.0091 -0.075008,-0.0026 -0.011828,-0.006 -0.016688,-0.0064 -0.026415,-0.002 -0.016624,0.0076 -0.026738,0.0068 -0.039348,-0.0031 -0.00991,-0.0077 -0.019409,-0.0084 -0.1088347,-0.0077 -0.053885,4.07e-4 -0.1161848,0.0034 -0.1384503,0.0065 -0.02864,0.004 -0.041908,0.0043 -0.04534,8.41e-4 -0.00265,-0.0026 -0.00823,-0.0049 -0.012358,-0.0049 -0.010425,0 -0.036848,0.01335 -0.046827,0.02365 -0.00813,0.0084 -0.00862,0.0084 -0.023313,-6.09e-4 -0.014898,-0.0092 -0.015098,-0.0092 -0.02628,-4.07e-4 -0.00856,0.0067 -0.021083,0.0095 -0.051875,0.01124 -0.022324,0.0012 -0.051868,0.0046 -0.065656,0.0075 -0.01378,0.0029 -0.032685,0.0056 -0.041998,0.0061 -0.010181,6.09e-4 -0.0212,0.0049 -0.027631,0.01097 -0.00917,0.0086 -0.015893,0.01006 -0.046853,0.01011 -0.043582,6.9e-5 -0.056664,0.0031 -0.056664,0.01313 0,0.0042 -0.00317,0.01213 -0.00709,0.01771 -0.00608,0.0087 -0.00978,0.0097 -0.026202,0.0072 -0.01051,-0.0017 -0.03092,-0.0098 -0.045366,-0.01813 -0.025944,-0.01505 -0.026454,-0.01511 -0.042025,-0.0077 -0.012784,0.0061 -0.017987,0.0065 -0.027489,0.0022 -0.00646,-0.003 -0.018718,-0.0054 -0.027249,-0.0054 -0.00854,0 -0.020734,-0.0023 -0.027107,-0.0053 -0.00965,-0.0044 -0.013108,-0.0039 -0.020722,0.003 -0.00879,0.008 -0.00947,0.008 -0.018187,6.9e-5 -0.00875,-0.0079 -0.00963,-0.0078 -0.026202,0.0033 -0.022776,0.01528 -0.06433,0.01453 -0.081349,-0.0014 l -0.010974,-0.01031 -0.010547,0.0099 c -0.00581,0.0054 -0.013166,0.0099 -0.016359,0.0099 -0.00324,0 -0.011033,0.0042 -0.017418,0.0091 -0.013677,0.01075 -0.032342,0.01193 -0.036046,0.0023 -0.00472,-0.01227 -0.018433,-0.0072 -0.030727,0.0114 -0.013476,0.02035 -0.018861,0.02255 -0.022357,0.0091 -0.00342,-0.01319 -0.015569,-0.01602 -0.033014,-0.0077 -0.014595,0.0069 -0.015059,0.008 -0.010548,0.02229 0.00976,0.03094 0.00953,0.03286 -0.00504,0.04099 -0.012074,0.0068 -0.013902,0.01033 -0.014044,0.02734 -1.545e-4,0.02137 -0.00801,0.03553 -0.019714,0.03553 -0.00742,0 -0.009,-0.0055 -0.00782,-0.02734 8.402e-4,-0.01638 -0.023656,-0.04101 -0.040842,-0.04101 -0.010305,0 -0.01579,-0.0037 -0.023694,-0.0159 -0.00569,-0.0087 -0.013554,-0.01591 -0.017541,-0.01595 -0.00927,-6.9e-5 -0.017762,0.01864 -0.021057,0.04644 -0.00252,0.02122 -0.00303,0.02186 -0.01778,0.02186 -0.012216,0 -0.016566,0.0026 -0.022117,0.01337 -0.00943,0.01825 -0.013638,0.02 -0.03202,0.01335 -0.014283,-0.0052 -0.017211,-0.0047 -0.029409,0.0043 -0.00744,0.0055 -0.014141,0.0097 -0.014853,0.0093 -8.402e-4,-4.07e-4 -0.0074,-0.0017 -0.014814,-0.0026 z m -0.048016,-0.183734 c 0,-0.0024 -0.00207,-0.0043 -0.00452,-0.0043 -0.00252,0 -0.00452,0.0031 -0.00452,0.0071 0,0.0039 0.00207,0.0058 0.00452,0.0043 0.00252,-0.0017 0.00452,-0.0048 0.00452,-0.0071 z m 2.0504779,-0.01803 c 0.00608,-0.004 0.00608,-0.005 0,-0.009 -0.00375,-0.0024 -0.00888,-0.0044 -0.011382,-0.0044 -0.00252,0 -0.00761,0.002 -0.011382,0.0044 -0.00608,0.004 -0.00608,0.005 0,0.009 0.00375,0.0024 0.00888,0.0044 0.011382,0.0044 0.00252,0 0.00765,-0.002 0.011382,-0.0044 z M 6.164002,9.9113937 c 0,-0.00951 -0.024457,-0.010913 -0.028031,-0.00166 -0.00161,0.00417 -2.037e-4,0.00923 0.00303,0.011279 0.0079,0.00496 0.024994,-0.00166 0.024994,-0.00967 z M 5.3679597,6.4889817 c 0.0064,-0.00643 0.0074,-0.030984 0.00123,-0.030984 -0.00804,0 -0.018556,0.014368 -0.018556,0.025387 0,0.011848 0.00837,0.01455 0.017315,0.00559 z m 0.034767,-0.068906 c -0.00161,-0.00421 -0.00466,-0.00765 -0.00668,-0.00765 -0.00537,0 -0.010119,0.017194 -0.0064,0.02318 0.00478,0.00772 0.016624,-0.00634 0.013108,-0.015527 z m 0.079965,-0.1158641 c 0.014123,-0.022507 0.017012,-0.035046 0.00917,-0.039896 -0.00974,-0.00602 -0.021659,0.00331 -0.031728,0.024814 -0.018472,0.039447 -4.066e-4,0.051563 0.022564,0.015079 z m 0.00906,-0.1421171 c 0.00335,-0.00624 0.00324,-0.00976 -4.065e-4,-0.011971 -0.00537,-0.00331 -0.012986,0.00548 -0.013108,0.01512 -1.035e-4,0.0087 0.00815,0.00679 0.013457,-0.00315 z M 5.2959679,5.8692551 c 0,-0.013799 -0.011175,-0.00699 -0.012927,0.00786 -0.00143,0.011462 -6.101e-4,0.012336 0.00569,0.00707 0.00394,-0.00329 0.00721,-0.010015 0.00721,-0.014937 z m 0.8627729,4.3910469 c -0.00143,-0.0039 -0.00161,-0.0081 -2.036e-4,-0.0095 0.00342,-0.0034 0.021458,0.0068 0.021458,0.01211 0,0.0072 -0.01829,0.005 -0.021213,-0.0026 z m 6.2501462,-0.131905 c -0.0035,-0.0042 -0.0046,-0.01245 -0.0027,-0.02164 0.0017,-0.0082 0.0041,-0.02561 0.0057,-0.03878 0.0023,-0.0197 0.0013,-0.02392 -0.0043,-0.02392 -0.01445,0 -0.02148,0.0059 -0.02603,0.02211 -0.0055,0.01951 -0.02434,0.04405 -0.03075,0.04008 -0.0025,-0.0014 -0.0058,-0.01111 -0.0074,-0.02132 -0.0026,-0.01655 -0.0037,-0.01783 -0.0098,-0.01169 -0.0095,0.0095 -0.02026,0.0042 -0.02035,-0.01031 -1.81e-4,-0.0312 -0.0278,-0.03455 -0.04236,-0.0051 -0.0047,0.0096 -0.0177,0.01844 -0.05698,0.039 -0.0033,0.0018 -0.0084,8.4e-4 -0.01111,-0.002 -0.0038,-0.0037 -0.0026,-0.01137 0.0047,-0.02909 0.01072,-0.02621 0.03749,-0.1077619 0.03749,-0.1141911 0,-0.00217 -0.0044,-0.00756 -0.0098,-0.011966 -0.01224,-0.00991 -0.0078,-0.021071 0.0052,-0.012966 0.01225,0.00766 0.025,-0.00504 0.03463,-0.034603 0.0041,-0.012862 0.0095,-0.02581 0.01187,-0.028767 0.0024,-0.00296 0.0036,-0.017558 0.0029,-0.032455 -8.4e-4,-0.015288 8.4e-4,-0.029802 0.0037,-0.033351 0.01374,-0.016889 0.01802,-0.094593 0.0057,-0.102238 -0.0086,-0.0053 -0.02159,0.00799 -0.02859,0.029357 -0.004,0.012396 -0.01353,0.02871 -0.02107,0.036247 -0.01428,0.014309 -0.01882,0.039368 -0.0089,0.049295 0.0026,0.00261 0.006,0.016427 0.0074,0.030603 0.0022,0.020932 0.0012,0.02748 -0.0055,0.034828 -0.01004,0.011157 -0.04374,0.012575 -0.05234,0.00217 -0.0072,-0.00875 -0.01322,-0.00861 -0.02327,4.061e-4 -0.01846,0.016705 -0.02212,-0.00679 -0.0072,-0.046012 0.0059,-0.015732 0.0061,-0.019201 4.05e-4,-0.025419 -0.0096,-0.01071 -0.0079,-0.020334 0.0049,-0.026093 0.0067,-0.00303 0.0123,-0.010284 0.0138,-0.017826 0.0013,-0.00697 0.0047,-0.018841 0.0073,-0.026357 0.0094,-0.026416 0.0092,-0.031942 -0.0025,-0.049011 -0.01256,-0.018492 -0.01153,-0.030727 0.0026,-0.030727 0.0049,0 0.01284,-0.00207 0.01764,-0.00466 0.0062,-0.0033 0.0113,-0.00303 0.01756,8.402e-4 0.0068,0.00434 0.01035,0.00434 0.01547,3.43e-5 0.0068,-0.00569 0.01319,-0.043407 0.0091,-0.054033 -0.0052,-0.013741 -0.02766,-0.00388 -0.05828,0.025627 -0.0051,0.00484 -0.01796,0.011808 -0.02878,0.015486 -0.01728,0.00588 -0.01998,0.00588 -0.02224,3.5e-5 -0.0032,-0.00842 0.01874,-0.031818 0.03332,-0.035477 0.0071,-0.00181 0.01419,-0.00969 0.02042,-0.022977 0.0052,-0.011137 0.01343,-0.021478 0.01821,-0.022996 0.0064,-0.00207 0.0087,-0.00712 0.0088,-0.019532 8.7e-5,-0.00922 0.0031,-0.020761 0.0068,-0.025627 0.0036,-0.00484 0.0067,-0.014426 0.0067,-0.021258 0,-0.00683 0.004,-0.017193 0.0089,-0.023055 0.0218,-0.025912 0.03205,-0.039526 0.03205,-0.042536 0,-0.00183 0.0052,-0.00947 0.01162,-0.01707 0.01627,-0.019327 0.01398,-0.037491 -0.0048,-0.037938 -0.01534,-4.064e-4 -0.03865,-0.00605 -0.04557,-0.011097 -0.0025,-0.00183 -0.01234,-0.00474 -0.02183,-0.00645 -0.0095,-0.00162 -0.02591,-0.00679 -0.03645,-0.011299 -0.01054,-0.0045 -0.03353,-0.010791 -0.05108,-0.013982 -0.01753,-0.00319 -0.03804,-0.00947 -0.04557,-0.013942 -0.0076,-0.00447 -0.028,-0.011686 -0.04547,-0.016014 -0.04119,-0.010243 -0.0909,-0.035335 -0.10335,-0.052171 -0.0054,-0.00729 -0.01557,-0.014531 -0.0226,-0.016076 -0.01217,-0.00268 -0.03288,-0.011442 -0.06784,-0.028757 -0.0088,-0.00435 -0.02271,-0.017945 -0.03102,-0.030289 -0.01004,-0.014916 -0.02021,-0.024156 -0.03046,-0.027684 -0.0085,-0.00291 -0.02243,-0.012762 -0.03104,-0.021878 -0.0086,-0.00913 -0.01884,-0.016584 -0.02273,-0.016584 -0.0094,0 -0.03386,-0.020902 -0.04188,-0.035858 -0.0035,-0.00658 -0.01874,-0.02492 -0.03378,-0.040724 -0.01503,-0.015811 -0.02862,-0.032724 -0.03017,-0.037593 -0.0017,-0.00488 -0.0044,-0.00886 -0.0064,-0.00886 -0.0052,0 -0.02305,-0.017884 -0.03909,-0.038863 -0.0074,-0.00984 -0.02033,-0.025364 -0.02848,-0.034496 -0.0082,-0.00913 -0.01481,-0.020819 -0.01481,-0.025975 0,-0.00516 -0.0026,-0.012092 -0.0058,-0.015405 -0.01126,-0.011666 -0.0352,-0.050955 -0.0352,-0.05774 0,-0.00379 -0.0067,-0.013332 -0.0148,-0.021246 -0.01682,-0.016339 -0.03755,-0.048879 -0.04533,-0.071174 -0.0029,-0.00829 -0.0123,-0.024289 -0.0209,-0.035561 -0.01827,-0.023938 -0.02378,-0.036774 -0.02378,-0.055444 0,-0.014876 -0.0111,-0.03877 -0.02926,-0.063059 -0.0064,-0.00864 -0.01172,-0.01888 -0.0117,-0.022784 0,-0.0039 -0.0081,-0.025543 -0.01794,-0.048098 -0.0099,-0.022556 -0.01908,-0.046285 -0.02042,-0.052734 -0.0013,-0.00645 -0.0078,-0.01949 -0.01412,-0.028966 -0.01743,-0.025699 -0.02685,-0.086106 -0.03375,-0.2167586 -0.0036,-0.069536 6.09e-4,-0.1240766 0.01235,-0.1549266 0.0025,-0.00625 0.0058,-0.023485 0.0077,-0.038265 0.0019,-0.014775 0.0091,-0.038363 0.01612,-0.052402 0.007,-0.014043 0.0153,-0.037828 0.01833,-0.052865 0.003,-0.01504 0.0072,-0.030661 0.0094,-0.034724 0.0022,-0.00407 0.0058,-0.018413 0.0082,-0.031894 0.0052,-0.029304 0.02032,-0.070501 0.03007,-0.081273 0.0039,-0.00427 0.007,-0.011177 0.007,-0.015344 0,-0.00419 0.0039,-0.019388 0.0087,-0.033817 0.0048,-0.014408 0.01004,-0.03689 0.01153,-0.049931 0.003,-0.025402 0.01264,-0.050114 0.02809,-0.072035 0.0052,-0.00748 0.01102,-0.01953 0.01277,-0.026757 0.0019,-0.00723 0.01024,-0.027446 0.01889,-0.044925 0.0086,-0.017478 0.01572,-0.03559 0.01572,-0.040239 0,-0.00466 0.0059,-0.015181 0.01307,-0.023421 0.01441,-0.016502 0.03705,-0.058743 0.03705,-0.069122 0,-0.0076 0.02241,-0.054004 0.02782,-0.057605 0.002,-0.00143 0.01004,-0.015669 0.01789,-0.031896 0.01577,-0.032547 0.0305,-0.055453 0.04681,-0.072784 0.0059,-0.00625 0.01752,-0.022959 0.02583,-0.037097 0.0084,-0.014144 0.02106,-0.032072 0.02833,-0.039849 0.0073,-0.00778 0.01587,-0.020433 0.01911,-0.028116 0.0068,-0.016361 0.04544,-0.057426 0.0575,-0.061259 0.0047,-0.00143 0.01039,-0.00819 0.0129,-0.014998 0.0025,-0.00679 0.01242,-0.019978 0.02202,-0.029318 0.07276,-0.070764 0.108444,-0.103313 0.119041,-0.1085702 0.01772,-0.0088 0.05945,-0.039264 0.08067,-0.058915 0.01004,-0.00929 0.02951,-0.021551 0.04328,-0.027271 0.01378,-0.00571 0.03019,-0.014002 0.03645,-0.018432 0.0063,-0.00441 0.02005,-0.010629 0.03066,-0.013799 0.01067,-0.00319 0.02529,-0.012376 0.03276,-0.020597 0.0075,-0.00826 0.02018,-0.016218 0.02859,-0.017925 0.02474,-0.00508 0.0729,-0.019916 0.09483,-0.029208 0.01128,-0.00477 0.04101,-0.012235 0.06607,-0.016563 0.02506,-0.00434 0.05582,-0.011502 0.06835,-0.015953 0.08086,-0.028657 0.276007,-0.044832 0.382756,-0.031724 0.06743,0.00827 0.141745,0.023631 0.158927,0.032831 0.0053,0.00285 0.03302,0.010913 0.06153,0.017925 0.02853,0.007 0.05519,0.015689 0.05924,0.019306 0.004,0.00362 0.01659,0.009 0.02787,0.01199 0.01425,0.00377 0.02616,0.011462 0.03901,0.02518 0.01014,0.010873 0.0242,0.021195 0.03117,0.022944 0.0069,0.00183 0.02184,0.011096 0.03302,0.020788 0.01117,0.00967 0.02518,0.018819 0.03112,0.020302 0.007,0.00183 0.01661,0.012661 0.02771,0.031653 0.0093,0.015933 0.02496,0.035404 0.03477,0.043291 0.01138,0.00915 0.02261,0.024714 0.03097,0.042979 0.0072,0.01575 0.01928,0.033506 0.0268,0.039463 0.0088,0.00695 0.01764,0.021442 0.02471,0.04045 0.01231,0.033102 0.02142,0.037647 0.0274,0.013677 0.0022,-0.00877 0.0078,-0.028251 0.01229,-0.043287 0.0047,-0.015039 0.0097,-0.039643 0.01146,-0.05468 0.0017,-0.01504 0.005,-0.030763 0.0072,-0.034948 0.0023,-0.00419 0.0062,-0.02254 0.0088,-0.040788 0.0043,-0.030369 0.0066,-0.035384 0.02738,-0.05924 0.01248,-0.014327 0.02267,-0.028028 0.02267,-0.030429 0,-0.00815 0.02425,-0.057795 0.03554,-0.072766 0.0095,-0.012641 0.01081,-0.018046 0.0085,-0.035681 -0.0035,-0.02608 0.0026,-0.039337 0.01682,-0.035782 0.01416,0.00356 0.03006,-0.00999 0.05516,-0.047037 0.02607,-0.038455 0.04678,-0.06121 0.0631,-0.069331 0.0075,-0.00371 0.0162,-0.014246 0.0212,-0.025537 0.006,-0.013595 0.01341,-0.021549 0.02524,-0.027162 0.02056,-0.00976 0.03191,-0.026175 0.03053,-0.044175 -6.1e-4,-0.00748 0.0012,-0.016441 0.0041,-0.019896 0.0068,-0.00819 0.02429,-0.00809 0.03115,1.707e-4 0.0076,0.00917 0.0076,0.074546 0,0.092623 -0.0055,0.013129 -0.0053,0.015689 0.0017,0.022707 0.006,0.006 0.0098,0.00677 0.01581,0.00315 0.01094,-0.00661 0.02839,-0.042149 0.02839,-0.057776 0,-0.0075 0.0044,-0.017133 0.01041,-0.022957 0.0139,-0.013392 0.03838,-0.045176 0.04578,-0.059422 0.0062,-0.011787 0.03461,-0.045023 0.0431,-0.050275 0.0069,-0.00428 0.01916,0.00974 0.01916,0.021944 0,0.00577 -0.004,0.019489 -0.0088,0.030488 -0.0087,0.019753 -0.01378,0.060296 -0.0082,0.065886 0.0017,0.00162 0.0085,-0.00143 0.01514,-0.00675 0.01687,-0.013251 0.02632,-0.012071 0.03242,0.00405 0.0063,0.016705 0.01248,0.017274 0.02244,0.0021 0.0062,-0.00935 0.0066,-0.013779 0.0025,-0.022985 -0.0029,-0.00628 -0.0078,-0.011076 -0.01089,-0.010669 -0.01256,0.00162 -0.01709,-8.143e-4 -0.01709,-0.0089 0,-0.015019 0.01087,-0.019795 0.02182,-0.00959 0.01437,0.013373 0.01992,0.011238 0.0365,-0.014125 0.01743,-0.026661 0.02977,-0.028563 0.04192,-0.00647 0.01136,0.020651 0.02924,0.020994 0.04116,8.145e-4 0.0052,-0.00868 0.01486,-0.017722 0.02168,-0.02012 0.04286,-0.015099 0.04401,-0.015263 0.04995,-0.00717 0.0031,0.00427 0.0057,0.014531 0.0057,0.02283 0,0.019612 0.008,0.019327 0.02412,-8.143e-4 0.0069,-0.00878 0.01622,-0.015953 0.0205,-0.015974 0.0042,-1.42e-5 0.01366,-0.00308 0.02083,-0.00683 0.01512,-0.00788 0.024,-0.00864 0.02789,-0.00236 0.0042,0.00691 -0.0057,0.038499 -0.01587,0.050207 -0.0051,0.00579 -0.0092,0.012783 -0.0092,0.015527 -1.79e-4,0.00908 -0.04022,0.080852 -0.05712,0.1024005 -0.0151,0.019245 -0.02935,0.045979 -0.02935,0.055052 0,0.00596 0.005,0.00957 0.01709,0.012418 0.02413,0.00567 0.02559,0.021868 0.0041,0.045616 -0.01646,0.01823 -0.03945,0.057751 -0.03945,0.067835 0,0.00321 -0.0063,0.010305 -0.01393,0.01575 -0.01053,0.0075 -0.01358,0.012844 -0.01254,0.021954 0.0023,0.019713 0.01833,0.016076 0.02337,-0.00531 0.003,-0.012762 0.01497,-0.028702 0.04527,-0.060374 0.02265,-0.023673 0.04352,-0.04304 0.0464,-0.04304 0.0029,0 0.01335,-0.010709 0.02326,-0.0238 0.02403,-0.031743 0.03343,-0.040867 0.0387,-0.037611 0.0024,0.00143 0.0044,0.00658 0.0044,0.01132 0,0.00854 -0.02121,0.04381 -0.03704,0.061605 -0.0046,0.00508 -0.01111,0.017437 -0.01464,0.027436 -0.0035,0.00999 -0.01181,0.026127 -0.01836,0.035821 -0.0066,0.00969 -0.01197,0.0213 -0.01197,0.025793 0,0.0045 -0.0058,0.012315 -0.01296,0.017396 -0.01368,0.00974 -0.05083,0.055387 -0.0508,0.062431 0,0.00228 0.0062,0.01132 0.01366,0.020078 0.0075,0.00877 0.01366,0.018535 0.01366,0.021674 0,0.00315 0.0052,0.010181 0.0114,0.015628 0.01996,0.017355 0.0097,0.049271 -0.01577,0.049271 -0.01037,0 -0.01743,0.0055 -0.03505,0.027255 -0.02705,0.033374 -0.03803,0.053219 -0.03803,0.068677 0,0.00648 -0.0031,0.022501 -0.007,0.035613 -0.0044,0.014734 -0.006,0.031153 -0.0043,0.042977 0.0026,0.018493 0.0019,0.02012 -0.0249,0.048753 -0.0152,0.016299 -0.0353,0.039083 -0.04464,0.050651 -0.0093,0.011563 -0.02461,0.026773 -0.03393,0.033789 -0.0093,0.007 -0.02015,0.019571 -0.02411,0.027887 -0.0039,0.00833 -0.01104,0.017194 -0.01575,0.019714 -0.0047,0.00252 -0.01802,0.020181 -0.02959,0.039224 -0.01157,0.019043 -0.027,0.039666 -0.03431,0.04581 -0.0073,0.00614 -0.01874,0.022864 -0.02541,0.03716 -0.0067,0.014287 -0.01947,0.037166 -0.02843,0.05083 -0.009,0.013657 -0.01847,0.03109 -0.02113,0.038731 -0.0066,0.018921 -0.01911,0.036313 -0.04432,0.061615 -0.01169,0.011726 -0.02441,0.028885 -0.02828,0.03812 -0.0039,0.00925 -0.01736,0.026712 -0.03002,0.038836 -0.01536,0.014734 -0.02299,0.02575 -0.02299,0.033208 0,0.014307 -0.02131,0.047303 -0.03438,0.053262 -0.01175,0.00535 -0.03579,0.039327 -0.04016,0.056758 -0.0017,0.00662 -0.0072,0.014307 -0.01241,0.017071 -0.01169,0.00625 -0.0452,0.057439 -0.0452,0.069022 0,0.00472 -0.0029,0.013108 -0.0063,0.018657 -0.0035,0.00555 -0.0078,0.01829 -0.0095,0.028319 -0.0019,0.010015 -0.0079,0.024516 -0.01378,0.032201 -0.01539,0.020262 -0.05242,0.095167 -0.05242,0.1059933 0,0.00508 -0.0047,0.012966 -0.01055,0.017538 -0.0126,0.00992 -0.03503,0.046961 -0.03503,0.057842 0,0.00868 -0.01937,0.048772 -0.03268,0.067641 -0.0048,0.00681 -0.01195,0.02321 -0.01587,0.036453 -0.0039,0.013251 -0.01101,0.02952 -0.01575,0.036174 -0.0047,0.00664 -0.0086,0.014897 -0.0086,0.018332 0,0.00343 -0.0058,0.013372 -0.0129,0.022079 -0.01536,0.01884 -0.03887,0.064353 -0.04662,0.090217 -0.003,0.010181 -0.01227,0.025647 -0.02053,0.03438 -0.01108,0.011726 -0.01572,0.021617 -0.01781,0.037864 -0.0031,0.024289 -0.02036,0.063374 -0.03641,0.082513 -0.0057,0.00681 -0.01488,0.023654 -0.02037,0.03744 -0.01638,0.041051 -0.02838,0.064295 -0.05057,0.097966 -0.01157,0.017538 -0.02584,0.047045 -0.03171,0.065559 -0.0059,0.018515 -0.02501,0.061577 -0.0425,0.09569 -0.05189,0.101163 -0.06686,0.1299927 -0.07127,0.1372113 -0.0085,0.014002 -0.02751,0.0589 -0.02751,0.065146 0,0.00356 -0.0059,0.017538 -0.01309,0.031038 -0.01501,0.028182 -0.02991,0.065319 -0.05101,0.1270884 -0.0081,0.023808 -0.01623,0.045338 -0.01804,0.047844 -0.0019,0.0025 -0.0059,0.012762 -0.009,0.022784 -0.0031,0.010015 -0.0073,0.020282 -0.0092,0.022782 -0.0019,0.0025 -0.0065,0.014815 -0.01024,0.02734 -0.0036,0.01254 -0.01208,0.035421 -0.01859,0.050868 -0.0065,0.015445 -0.0141,0.043127 -0.01689,0.061514 -0.0028,0.018392 -0.0079,0.040608 -0.01117,0.049378 -0.0034,0.00878 -0.0075,0.022099 -0.0091,0.029616 -0.0017,0.00751 -0.0089,0.026268 -0.01628,0.041663 -0.0073,0.015383 -0.01334,0.032445 -0.01334,0.037888 0,0.00542 -0.0062,0.01508 -0.01368,0.0214 -0.0097,0.00815 -0.01368,0.015544 -0.01368,0.025382 0,0.01652 -0.0092,0.049108 -0.01383,0.049108 -0.0019,0 -0.0058,0.00666 -0.0089,0.014814 -0.01117,0.029616 -0.02353,0.060679 -0.02946,0.074046 -0.0097,0.021846 -0.01589,0.044313 -0.01898,0.068564 -0.0017,0.013479 -0.0098,0.034802 -0.02009,0.05296 -0.0095,0.016705 -0.01859,0.037211 -0.02028,0.045569 -0.0053,0.026402 -0.03955,0.090879 -0.05104,0.096111 -0.0058,0.0026 -0.01058,0.0065 -0.01058,0.0086 0,0.0022 -0.0041,0.0038 -0.0091,0.0038 -0.008,0 -0.0091,-0.003 -0.0091,-0.024792 0,-0.013635 0.0021,-0.026063 0.0046,-0.02761 0.0025,-0.00166 0.0046,-0.00885 0.0046,-0.016219 0,-0.00985 -0.0022,-0.013392 -0.0082,-0.013392 -0.01099,0 -0.01914,0.00877 -0.01914,0.020645 0,0.00539 -0.0052,0.019793 -0.01137,0.032124 -0.0063,0.012339 -0.01138,0.024983 -0.0114,0.028123 0,0.0031 -0.0041,0.01337 -0.0091,0.02271 -0.0051,0.0094 -0.0091,0.02046 -0.0091,0.0247 0,0.0042 -0.0052,0.01378 -0.01138,0.02124 -0.0063,0.0074 -0.01138,0.01644 -0.01138,0.02 0,0.01043 -0.01769,0.0264 -0.02924,0.0264 -0.0059,0 -0.01319,-0.003 -0.01629,-0.0068 z m -0.04186,-0.08548 c -8.41e-4,-0.0056 -0.0046,-0.01026 -0.0083,-0.01026 -0.0037,0 -0.0075,0.0046 -0.0083,0.01026 -0.0012,0.0079 8.4e-4,0.01026 0.0083,0.01026 0.0074,0 0.0094,-0.0024 0.0083,-0.01026 z m 0.06825,-0.045342 c 0.0074,-0.00748 0.0068,-0.021871 -8.4e-4,-0.021871 -0.0065,0 -0.01187,0.00943 -0.01187,0.02088 0,0.00791 0.0054,0.00835 0.01277,0.00104 z m 0.133053,-0.131769 c 0,-0.00252 -0.0021,-0.0033 -0.0046,-0.00183 -0.0025,0.00166 -0.0046,0.00496 -0.0046,0.00739 0,0.00252 0.0021,0.0033 0.0046,0.00183 0.0025,-0.00166 0.0046,-0.00487 0.0046,-0.00739 z M 12.353261,9.5965972 c 0.008,-0.00803 0.0067,-0.012765 -0.0036,-0.012765 -0.0051,0 -0.0091,8.402e-4 -0.0091,0.00181 0,0.00103 -0.0012,0.00517 -0.0028,0.0091 -0.0033,0.00862 0.0074,0.00982 0.01552,0.00181 z m 0.203203,-0.8127605 c 0.0078,-0.017559 0.01876,-0.036856 0.02441,-0.04287 0.0057,-0.00602 0.01024,-0.014146 0.01024,-0.018046 4e-6,-0.00782 0.01699,-0.054544 0.02248,-0.061793 0.0019,-0.0025 0.006,-0.014083 0.0092,-0.025718 0.0031,-0.011645 0.01269,-0.030967 0.02121,-0.042952 0.0122,-0.017152 0.01549,-0.026229 0.01549,-0.042695 0,-0.012194 0.0038,-0.02799 0.0091,-0.037914 0.0051,-0.00935 0.0091,-0.019938 0.0091,-0.023505 0,-0.00357 0.0049,-0.012295 0.01077,-0.019388 0.0059,-0.0071 0.01555,-0.026207 0.02135,-0.042499 0.0058,-0.016299 0.01303,-0.033717 0.01602,-0.038731 0.003,-0.00502 0.0068,-0.015263 0.0085,-0.022782 0.0044,-0.020099 0.02153,-0.061982 0.03094,-0.075935 0.015,-0.022228 0.03601,-0.078634 0.03979,-0.1068185 0.0028,-0.020541 0.008,-0.034043 0.02005,-0.051553 0.009,-0.013047 0.0177,-0.03128 0.01939,-0.04052 0.0017,-0.00925 0.0087,-0.0291 0.01559,-0.044137 0.0068,-0.015039 0.01393,-0.033492 0.01562,-0.041009 0.0017,-0.00752 0.0092,-0.023204 0.01665,-0.034857 0.0074,-0.011645 0.01854,-0.036501 0.02464,-0.055221 0.0062,-0.018717 0.01526,-0.043699 0.02032,-0.055514 0.0051,-0.011807 0.0092,-0.024556 0.0092,-0.028314 0,-0.00377 0.0063,-0.02153 0.01394,-0.039491 0.0077,-0.017965 0.01567,-0.036762 0.01781,-0.041774 0.0022,-0.00502 0.0064,-0.019367 0.0095,-0.031896 0.0031,-0.012539 0.01131,-0.028936 0.01827,-0.036453 0.0069,-0.00752 0.01494,-0.022898 0.01778,-0.034174 0.0052,-0.02091 0.02077,-0.065 0.02728,-0.077612 0.002,-0.00384 0.0051,-0.013413 0.0068,-0.021258 0.0017,-0.00784 0.0081,-0.020078 0.01425,-0.027189 0.0062,-0.00712 0.01111,-0.016381 0.01111,-0.020622 5e-6,-0.00424 0.0019,-0.00888 0.0041,-0.010326 0.0024,-0.00143 0.0067,-0.010057 0.0097,-0.019185 0.0031,-0.00953 0.01688,-0.027723 0.03231,-0.042822 0.01652,-0.016177 0.03102,-0.035729 0.03774,-0.050919 0.0063,-0.014246 0.02139,-0.035103 0.03571,-0.049389 0.02026,-0.020181 0.0259,-0.029305 0.03073,-0.049682 0.0035,-0.014815 0.0099,-0.028086 0.01573,-0.032663 0.0054,-0.00424 0.02074,-0.029354 0.03411,-0.055812 0.02667,-0.052751 0.02663,-0.055185 -0.0012,-0.069608 -0.0075,-0.00386 -0.01856,-0.012945 -0.02466,-0.020201 -0.0062,-0.00725 -0.0129,-0.01319 -0.0151,-0.01319 -0.0022,0 -0.01617,-0.00786 -0.03107,-0.017499 -0.04195,-0.027117 -0.05287,-0.03059 -0.0764,-0.024298 -0.0319,0.00854 -0.07437,0.00681 -0.09163,-0.00371 -0.0082,-0.00496 -0.01481,-0.011462 -0.01481,-0.01443 0,-0.00841 -0.01423,-0.02207 -0.02297,-0.02207 -0.0043,0 -0.01124,-0.00512 -0.01534,-0.011381 -0.008,-0.012254 -0.02031,-0.014734 -0.02913,-0.00593 -0.0085,0.00849 -0.0073,0.08754 0.0013,0.094777 0.0037,0.00314 0.0068,0.00876 0.0068,0.012539 0,0.00379 0.0063,0.017864 0.014,0.031327 0.01364,0.023844 0.01386,0.025109 0.0084,0.049711 -0.0092,0.041235 -0.0089,0.041042 -0.06387,0.034508 -0.02603,-0.00308 -0.05744,-0.00858 -0.06981,-0.012174 -0.02876,-0.00837 -0.05481,-0.00835 -0.06322,5.29e-5 -0.0036,0.00363 -0.02056,0.00984 -0.0376,0.013799 -0.01705,0.00396 -0.03326,0.00906 -0.03603,0.01136 -0.0066,0.0055 -0.07523,0.027337 -0.08611,0.027414 -0.0047,3.46e-5 -0.01594,0.0039 -0.02506,0.00862 -0.05441,0.028116 -0.115203,0.054912 -0.130736,0.057634 -0.04331,0.00758 -0.09191,0.021813 -0.104087,0.030479 -0.0072,0.00516 -0.02198,0.010385 -0.0327,0.011605 -0.01572,0.00183 -0.02429,0.00675 -0.04416,0.025564 -0.01358,0.012844 -0.03019,0.027101 -0.03694,0.03166 -0.0068,0.00455 -0.01857,0.019489 -0.02631,0.033189 -0.0078,0.013698 -0.01967,0.027798 -0.02652,0.031344 -0.0068,0.00356 -0.01559,0.011177 -0.01939,0.016929 -0.0038,0.00577 -0.01568,0.019713 -0.02642,0.030989 -0.02784,0.02925 -0.06878,0.085284 -0.08017,0.1096982 -0.0095,0.020433 -0.03125,0.052306 -0.05407,0.079334 -0.0063,0.00748 -0.01149,0.016807 -0.01149,0.020733 0,0.00392 -0.002,0.00908 -0.0043,0.011463 -0.0024,0.00238 -0.01333,0.021757 -0.02435,0.043061 -0.01101,0.021302 -0.02443,0.045909 -0.02984,0.05468 -0.0054,0.00878 -0.0098,0.021591 -0.0098,0.028487 0,0.00689 -0.0064,0.030477 -0.01416,0.052401 -0.0078,0.021924 -0.01737,0.052164 -0.02135,0.067201 -0.0039,0.01504 -0.0098,0.029971 -0.01303,0.033189 -0.0079,0.00786 -0.0138,0.029913 -0.02462,0.091085 -0.0086,0.048623 -0.0087,0.054466 -0.0023,0.1093587 0.0068,0.05846 0.01567,0.08989 0.03076,0.109867 0.0046,0.00597 0.0082,0.014855 0.0082,0.019734 0,0.00488 0.0072,0.021098 0.01593,0.036047 0.0088,0.014937 0.01728,0.035599 0.01891,0.045895 0.0025,0.014958 0.0089,0.024763 0.03247,0.048775 0.01622,0.016522 0.03281,0.035385 0.03689,0.041894 0.004,0.00651 0.01971,0.022816 0.03476,0.036234 0.01504,0.013413 0.04374,0.040101 0.0638,0.059298 0.02005,0.019185 0.04157,0.036448 0.04784,0.038341 0.0063,0.00183 0.01846,0.00884 0.02708,0.015445 0.0086,0.00661 0.02181,0.01508 0.0293,0.01884 0.0075,0.00377 0.01698,0.012945 0.02108,0.020411 0.0056,0.010077 0.01443,0.016014 0.03449,0.023054 0.01486,0.0052 0.03563,0.013962 0.04618,0.019449 0.02738,0.014246 0.06413,0.026865 0.08792,0.030192 0.01128,0.00162 0.03113,0.00801 0.04412,0.014307 0.03106,0.01504 0.05931,0.020099 0.07615,0.013595 0.01024,-0.00392 0.0164,-0.012315 0.02734,-0.037019 z m 1.526284,-1.872241 c 0.0096,-0.00892 0.01205,-0.015344 0.01205,-0.031896 0,-0.023148 -0.0059,-0.026383 -0.02149,-0.011848 -0.01459,0.013596 -0.01931,0.054913 -0.0063,0.054913 0.002,0 0.009,-0.00502 0.01569,-0.011177 z m 0.0074,-0.1625151 c 0,-0.0025 -0.0021,-0.00329 -0.0046,-0.00183 -0.0025,0.00162 -0.0046,0.00485 -0.0046,0.00738 0,0.0025 0.0021,0.00329 0.0046,0.00183 0.0025,-0.00162 0.0046,-0.00488 0.0046,-0.00738 z M 13.876698,6.462495 c 0.01445,-0.030517 -0.002,-0.02304 -0.01859,0.00843 -0.005,0.00943 -0.0047,0.010466 0.0027,0.00904 0.0047,-8.145e-4 0.01172,-0.00876 0.01587,-0.017499 z M 6.2279902,9.9395696 c -0.00143,-0.00235 -8.403e-4,-0.00539 0.00161,-0.00687 0.00537,-0.00339 0.018718,0.00166 0.018718,0.00705 0,0.00539 -0.016947,0.00521 -0.020302,-1.705e-4 z M 12.108116,9.7497754 c 0,-0.00804 0.0098,-0.00664 0.01262,0.00181 10e-4,0.00297 -0.0013,0.00542 -0.0054,0.00542 -0.0039,0 -0.0072,-0.00324 -0.0072,-0.00721 z m -0.0084,-0.086957 c 0.0019,-0.00927 0.0085,-0.011828 0.01688,-0.00651 0.0083,0.00524 0.0025,0.014103 -0.0092,0.014103 -0.0062,0 -0.0087,-0.00252 -0.0078,-0.0076 z m 0.02198,-0.097206 c -0.01284,-0.012843 -0.01341,-0.033131 -0.0017,-0.056095 0.0052,-0.00994 0.0093,-0.012501 0.01872,-0.011402 0.0099,0.00123 0.01273,0.00446 0.01567,0.018757 0.0026,0.012377 0.0017,0.021128 -0.0032,0.030532 -0.0037,0.00726 -0.0068,0.016359 -0.0068,0.020243 0,0.00988 -0.01193,0.00879 -0.02278,-0.00207 z M 6.6328518,9.4418086 c -0.00181,-0.00293 -0.00484,-0.029077 -0.0067,-0.058097 -0.00278,-0.04263 -0.00614,-0.059765 -0.017457,-0.089217 -0.00772,-0.020058 -0.015344,-0.043284 -0.016908,-0.051632 -0.00161,-0.00835 -0.00784,-0.020161 -0.013922,-0.026229 -0.013677,-0.013677 -0.028574,-0.045696 -0.028704,-0.061683 -1.384e-4,-0.017437 -0.011705,-0.04746 -0.024987,-0.064868 -0.00633,-0.00833 -0.011563,-0.016644 -0.011563,-0.018432 0,-0.00183 -0.00689,-0.018007 -0.015306,-0.036022 -0.00842,-0.018007 -0.020139,-0.043717 -0.026041,-0.057115 -0.00588,-0.013392 -0.014407,-0.028576 -0.018879,-0.033731 -0.010548,-0.012153 -0.010284,-0.022249 0.00103,-0.036563 0.00504,-0.00635 0.0091,-0.014958 0.0091,-0.019083 0,-0.00412 0.00388,-0.016116 0.0087,-0.026621 0.00478,-0.010507 0.010833,-0.030393 0.013476,-0.044178 0.00265,-0.013779 0.00902,-0.039414 0.014207,-0.056957 0.00517,-0.017538 0.010326,-0.03571 0.01142,-0.040368 0.00103,-0.00466 0.00627,-0.017213 0.01142,-0.027905 0.00961,-0.019876 0.019675,-0.070788 0.025227,-0.1276635 0.00427,-0.043505 0.013799,-0.087352 0.021646,-0.099384 0.00356,-0.00548 0.00768,-0.016136 0.0091,-0.023644 0.00143,-0.00752 0.00595,-0.029049 0.010067,-0.047844 0.014407,-0.06606 0.020968,-0.098183 0.024697,-0.1207517 0.00952,-0.057558 0.019751,-0.1013803 0.02661,-0.1138339 0.00414,-0.00748 0.00892,-0.021829 0.010671,-0.031896 0.00859,-0.049595 0.014368,-0.069608 0.024419,-0.084799 0.00601,-0.00913 0.013373,-0.025572 0.0163,-0.036561 0.00291,-0.010994 0.01016,-0.026376 0.016074,-0.034197 0.00588,-0.00782 0.018899,-0.030908 0.028872,-0.0513 0.00996,-0.020392 0.025452,-0.04564 0.034411,-0.056108 0.00896,-0.010466 0.018065,-0.025432 0.020224,-0.033252 0.00213,-0.00782 0.015487,-0.031763 0.029602,-0.053203 0.014123,-0.021441 0.025673,-0.041438 0.025673,-0.044438 0,-0.00957 0.023023,-0.047098 0.034378,-0.056024 0.00601,-0.00474 0.017173,-0.021629 0.024755,-0.037534 0.00856,-0.017925 0.023313,-0.038083 0.038799,-0.052997 0.016681,-0.016055 0.02593,-0.029021 0.027785,-0.038928 0.00161,-0.00816 0.00771,-0.021519 0.013715,-0.029671 0.00601,-0.00815 0.010974,-0.018007 0.010994,-0.021909 8.32e-5,-0.00847 0.00942,-0.035061 0.017173,-0.048961 0.00388,-0.00699 0.011743,-0.010893 0.02619,-0.013068 0.028013,-0.00421 0.031159,-0.011787 0.019914,-0.047907 -0.010425,-0.033477 -0.00988,-0.054021 0.00161,-0.059593 0.00439,-0.00213 0.011562,-0.00563 0.015951,-0.00778 0.00439,-0.00215 0.009,-0.00929 0.010243,-0.015871 0.00123,-0.00658 0.00588,-0.016117 0.010264,-0.021208 0.00439,-0.00508 0.00797,-0.016279 0.00797,-0.024873 0,-0.018107 0.00652,-0.024506 0.013108,-0.012844 0.00748,0.013251 0.015686,4.064e-4 0.012843,-0.020018 -0.00581,-0.041944 -0.011621,-0.058374 -0.024199,-0.068396 l -0.012784,-0.010181 0.00957,-0.017294 c 0.00524,-0.00951 0.010994,-0.024468 0.01274,-0.033242 0.00181,-0.00878 0.01016,-0.026681 0.018718,-0.039801 0.00856,-0.013109 0.015544,-0.026301 0.015544,-0.029294 0,-0.011747 0.012216,-0.039659 0.032964,-0.075281 0.01195,-0.020512 0.021716,-0.038448 0.021716,-0.039859 0,-0.00274 0.025078,-0.058875 0.032174,-0.072015 0.00233,-0.00435 0.00427,-0.010973 0.00427,-0.014714 0,-0.00373 0.00595,-0.019673 0.013269,-0.035375 0.00729,-0.01571 0.018699,-0.042155 0.025336,-0.058765 0.00662,-0.016604 0.019124,-0.041148 0.027735,-0.054527 0.00862,-0.013373 0.015668,-0.026681 0.015668,-0.029563 0,-0.00288 0.00704,-0.019348 0.015609,-0.036606 0.00858,-0.017254 0.01703,-0.039177 0.018776,-0.048716 0.00181,-0.010326 0.00723,-0.019998 0.013166,-0.023887 0.011743,-0.00771 0.027172,-0.04378 0.034495,-0.080702 0.00285,-0.01443 0.00991,-0.031864 0.015668,-0.038731 0.011278,-0.013433 0.06177,-0.1271718 0.06177,-0.1391236 0,-0.00398 0.00794,-0.016401 0.017639,-0.027617 0.0098,-0.01132 0.019002,-0.027577 0.020676,-0.036561 0.00362,-0.019245 0.023915,-0.065628 0.033655,-0.076887 0.014283,-0.016522 0.051054,-0.00337 0.051054,0.01825 0,0.00919 0.031334,0.060352 0.036957,0.060352 0.00207,0 0.00601,-0.00422 0.00875,-0.00939 0.00324,-0.00602 0.0086,-0.00888 0.014975,-0.00797 0.00919,0.00122 0.010119,0.00456 0.012274,0.043391 0.00335,0.060735 0.014775,0.068349 0.029512,0.019692 0.010119,-0.033393 0.018634,-0.042527 0.027883,-0.029878 0.00965,0.013209 0.00768,0.024875 -0.00505,0.029714 -0.011828,0.0045 -0.015144,0.01892 -0.00723,0.031421 0.0064,0.010119 0.017211,0.0026 0.023378,-0.0163 0.0031,-0.00957 0.00771,-0.018738 0.010202,-0.020343 0.00252,-0.00162 0.011486,0.00402 0.019997,0.012539 0.00853,0.00852 0.017418,0.015466 0.019817,0.015466 0.00239,0 0.00934,-0.00793 0.015486,-0.017641 0.02407,-0.038128 0.066446,-0.060261 0.066446,-0.034705 0,0.0063 -0.002,0.015019 -0.00446,0.019368 -0.011743,0.020697 -0.02712,0.062178 -0.029905,0.080728 -0.00233,0.015344 -0.00123,0.023476 0.00427,0.031834 0.00959,0.014632 0.00927,0.017335 -0.00161,0.013881 -0.00716,-0.00228 -0.010367,6.097e-4 -0.015952,0.013922 -0.00388,0.00921 -0.007,0.022202 -0.007,0.028857 0,0.00664 -0.0033,0.016786 -0.00729,0.022506 -0.00908,0.012966 -0.00542,0.037076 0.00738,0.048658 0.00719,0.00651 0.00902,0.014043 0.00902,0.037079 0,0.027865 0.00556,0.038058 0.011195,0.020401 0.00143,-0.00467 0.00675,-0.012174 0.011705,-0.016665 0.012739,-0.011523 0.011686,-0.032101 -0.00213,-0.041135 -0.016747,-0.010973 -0.019002,-0.030147 -0.00627,-0.053283 0.012481,-0.02266 0.02564,-0.026653 0.048061,-0.014572 0.013857,0.00746 0.015447,0.0075 0.023209,4.065e-4 0.00459,-0.00414 0.010749,-0.00754 0.013677,-0.00754 0.00687,0 0.00687,0.015995 0,0.02878 -0.00852,0.015831 -0.012377,0.044806 -0.00742,0.055693 0.00335,0.00734 0.00265,0.013657 -0.00271,0.024031 -0.004,0.00774 -0.00728,0.019327 -0.00728,0.025755 0,0.00643 -0.00259,0.015831 -0.00569,0.020924 -0.00484,0.00788 -0.00388,0.01256 0.00681,0.031785 l 0.0125,0.02254 -0.016114,0.00674 c -0.00886,0.00369 -0.02184,0.00559 -0.02884,0.00419 -0.023416,-0.00467 -0.034959,0.02012 -0.023448,0.050398 0.00356,0.00935 0.00751,0.011686 0.019713,0.011686 0.014568,0 0.034831,-0.014591 0.035244,-0.025357 8.91e-5,-0.00234 0.00491,-0.010098 0.010793,-0.017255 0.013715,-0.016766 0.028181,-0.014978 0.026868,0.00331 -0.00123,0.016766 -0.00902,0.025624 -0.022667,0.025624 -0.0082,0 -0.012293,0.00354 -0.015829,0.013677 -0.00297,0.00854 -0.00793,0.013677 -0.013172,0.013677 -0.00965,0 -0.022596,0.016339 -0.022596,0.028497 0,0.011482 0.013696,0.015771 0.020527,0.00643 0.00793,-0.010853 0.016831,-0.00938 0.015099,0.0025 -8.403e-4,0.00624 -0.00563,0.011036 -0.012417,0.012641 -0.012009,0.0028 -0.016708,0.00931 -0.020857,0.028977 -0.00213,0.010015 -0.00446,0.012194 -0.010528,0.00967 -0.017276,-0.00728 -0.027172,-0.00713 -0.034831,6.096e-4 -0.00704,0.00704 -0.00772,0.01504 -0.00575,0.067603 0.00123,0.032791 0.00466,0.075362 0.00766,0.094602 0.00542,0.034693 0.00537,0.035223 -0.00845,0.064127 -0.00764,0.016035 -0.017012,0.040269 -0.020819,0.053872 -0.00382,0.013596 -0.013004,0.042158 -0.020463,0.06346 -0.00746,0.021302 -0.013638,0.042483 -0.01376,0.047068 -4.065e-4,0.01894 -0.033615,0.095468 -0.055895,0.1289176 -0.00689,0.010326 -0.018596,0.032362 -0.026047,0.048961 -0.00746,0.016604 -0.015668,0.032752 -0.018272,0.035898 -0.026835,0.032475 -0.038307,0.048118 -0.041552,0.056662 -0.00213,0.00558 -0.00957,0.013149 -0.016584,0.016827 -0.00699,0.00368 -0.02427,0.01762 -0.038385,0.030976 -0.020198,0.019104 -0.027599,0.030098 -0.034766,0.051618 -0.00498,0.01504 -0.017438,0.048868 -0.027604,0.075184 -0.01016,0.026314 -0.023688,0.068349 -0.030029,0.093409 -0.00633,0.025062 -0.015809,0.057617 -0.021032,0.072346 -0.0076,0.021468 -0.00854,0.029503 -0.00472,0.040499 0.004,0.011402 0.00239,0.02113 -0.00947,0.057516 -0.00784,0.024092 -0.01908,0.049015 -0.024994,0.055385 -0.00652,0.00704 -0.013599,0.02405 -0.018027,0.043289 -0.01124,0.048935 -0.028252,0.093694 -0.043117,0.113393 -0.00744,0.00984 -0.013514,0.020358 -0.013514,0.023363 0,0.00301 -0.00291,0.00788 -0.00651,0.010852 -0.00356,0.00297 -0.010036,0.016665 -0.014368,0.030422 -0.00434,0.013759 -0.014711,0.033632 -0.023081,0.044147 -0.00837,0.010528 -0.018537,0.029092 -0.022621,0.041276 -0.00407,0.012194 -0.01449,0.034673 -0.023132,0.049974 -0.00865,0.015302 -0.016966,0.034038 -0.018492,0.041639 -0.00143,0.0076 -0.00819,0.023046 -0.014834,0.034326 -0.00664,0.011279 -0.015829,0.030756 -0.020405,0.043287 -0.00459,0.012539 -0.014168,0.028525 -0.021303,0.035544 -0.00714,0.007 -0.012985,0.015466 -0.012985,0.018758 0,0.00329 -0.00388,0.010954 -0.00868,0.01701 -0.00478,0.00605 -0.010916,0.019348 -0.013657,0.029529 -0.00271,0.010181 -0.011137,0.027005 -0.018654,0.037394 -0.00751,0.010385 -0.013677,0.021068 -0.013677,0.023735 0,0.011848 -0.03891,0.092251 -0.053542,0.1106371 -0.00563,0.0071 -0.010264,0.014612 -0.010264,0.016705 0,0.00211 -0.00952,0.019896 -0.021148,0.039519 -0.011627,0.019632 -0.023009,0.042355 -0.025278,0.0505 -0.00227,0.00815 -0.00588,0.014815 -0.00803,0.014815 -0.007,0 -0.026202,0.038239 -0.029292,0.058332 -0.00317,0.020501 -0.021717,0.054374 -0.031967,0.058308 -0.0033,0.00122 -0.010568,0.012945 -0.016178,0.025983 -0.019145,0.044447 -0.02765,0.060142 -0.041281,0.076095 -0.0075,0.00878 -0.013638,0.019144 -0.013638,0.023029 -3.8e-6,0.0039 -0.00614,0.016786 -0.013677,0.028637 -0.00751,0.011848 -0.013677,0.024438 -0.013677,0.027964 0,0.00352 -0.00181,0.00758 -0.00427,0.00902 -0.00233,0.00143 -0.00668,0.014389 -0.00965,0.028748 -0.00297,0.014368 -0.01051,0.036224 -0.016747,0.048569 -0.00627,0.012336 -0.014187,0.032005 -0.017639,0.043684 -0.00349,0.011686 -0.015628,0.035411 -0.02703,0.052736 -0.011402,0.017315 -0.021994,0.036626 -0.023546,0.042892 -0.00161,0.00625 -0.00895,0.023503 -0.016424,0.038304 -0.012804,0.025347 -0.020036,0.036104 -0.034268,0.05106 -0.00744,0.00782 -0.053542,0.00862 -0.058253,0.00102 z M 7.1519851,7.5041871 c 0.00259,-0.0067 -4.067e-4,-0.011828 -0.00679,-0.011828 -0.00207,0 -0.00382,0.00411 -0.00382,0.0091 0,0.010446 0.00695,0.012235 0.010586,0.00272 z m 0.025026,-0.067744 c 0.015732,-0.037936 0.01144,-0.046872 -0.010139,-0.021207 -0.00766,0.0091 -0.011808,0.019489 -0.011808,0.029619 0,0.023357 0.010445,0.019348 0.021944,-0.00842 z m 0.00658,-0.069238 c 0.012765,-0.00532 0.016584,-0.00992 0.019002,-0.022859 0.00362,-0.01943 8.402e-4,-0.025172 -0.012481,-0.025079 -0.015059,1.036e-4 -0.020437,0.00525 -0.028045,0.026801 -0.010098,0.028596 -0.00595,0.032628 0.021524,0.021136 z m -0.045043,-0.044507 c 0.00504,-0.00797 -0.00259,-0.030839 -0.010222,-0.030839 -0.00581,0 -0.010652,0.021735 -0.00723,0.032534 0.00317,0.010057 0.010483,0.00935 0.017457,-0.00162 z M 7.958144,6.7625741 c -0.00699,-0.00699 -0.00721,-0.020787 -6.101e-4,-0.039613 0.00601,-0.017213 0.00856,-0.01762 0.021853,-0.00348 0.00771,0.0082 0.00986,0.015181 0.00875,0.028481 -0.00123,0.014937 -0.00317,0.017803 -0.012862,0.01894 -0.00627,8.145e-4 -0.013961,-0.00122 -0.017089,-0.00434 z M 5.1383894,5.8358097 c -0.0088,-0.021036 -0.00103,-0.040803 0.016217,-0.040803 0.00919,0 0.011886,0.00308 0.015305,0.017499 0.00856,0.036187 -0.017942,0.05579 -0.031515,0.023313 z"
     id="path932" />
</svg>
