<?xml version="1.0" encoding="UTF-8"?>
<svg width="64" height="64" version="1.1" viewBox="0 0 16.933 16.933" xmlns="http://www.w3.org/2000/svg">
 <circle cx="8.4665" cy="8.46" r="7.1436" fill="#ececec"/>
 <path d="m8.318 3.97a4.498 4.498 0 0 0-3.032 1.313 4.498 4.498 0 0 0-0.367 5.935l0.945-0.945a3.175 3.175 0 0 1 0.358-4.054 3.175 3.175 0 0 1 3.303-0.744v1.136l1.697-1.697a4.498 4.498 0 0 0-2.904-0.944z" fill="#f55" style="paint-order:stroke markers fill"/>
 <path d="m12.015 5.709-0.945 0.945a3.175 3.175 0 0 1-0.359 4.054 3.175 3.175 0 0 1-3.303 0.744v-1.137l-1.122 1.123-0.575 0.574a4.498 4.498 0 0 0 5.936-0.368 4.498 4.498 0 0 0 0.368-5.935z" fill="#ff8080" style="paint-order:stroke markers fill"/>
</svg>
