<svg width="64" height="64" viewBox="0 0 16.933 16.933" xmlns="http://www.w3.org/2000/svg"><circle cx="8.466" cy="8.46" r="7.144" fill="#ececec"/><path d="M8.318 3.97a4.498 4.498 0 0 0-3.032 1.313 4.498 4.498 0 0 0-.367 5.935l.945-.945a3.175 3.175 0 0 1 .358-4.054 3.175 3.175 0 0 1 3.303-.744v1.136l1.697-1.697a4.498 4.498 0 0 0-2.904-.944z" fill="#f55" style="paint-order:stroke markers fill"/><path d="m12.015 5.709-.945.945a3.175 3.175 0 0 1-.359 4.054 3.175 3.175 0 0 1-3.303.744v-1.137l-1.122 1.123-.575.574a4.498 4.498 0 0 0 5.936-.368 4.498 4.498 0 0 0 .368-5.935z" fill="#ff8080" style="paint-order:stroke markers fill"/></svg>