<svg width="64" height="64" enable-background="new 0 0 48 48" version="1.1" viewBox="0 0 64 64" xmlns="http://www.w3.org/2000/svg">
 <circle cx="32" cy="32" r="27" fill="#f0f0f0" stroke-width="3.7796" style="paint-order:stroke fill markers"/>
 <g transform="translate(.50884 .34265)">
  <polygon transform="translate(7.5027 6.7353)" points="37.364 34.456 37.364 42.091 37.366 42.09" fill="#20bd4d"/>
  <polygon transform="translate(7.5027 6.7353)" points="17.318 30.67 10.636 26.841 10.636 19.275 24 11.617 24.004 11.615 37.364 19.27 37.364 26.822 30.686 30.6 30.707 38.253 37.364 42.09 37.364 42.091 44.045 38.273 44.045 30.622 44.045 23.099 44.045 15.398 24.019 3.922 3.955 15.364 3.955 23.103 3.955 38.273 10.636 42.121 10.636 42.114 17.318 38.269" fill="#00913a"/>
  <polygon transform="translate(7.5027 6.7353)" points="3.955 15.364 3.955 15.403 3.955 23.103 3.955 38.273 10.636 42.121 10.636 42.114 17.318 38.269 17.318 30.67 10.636 26.841 10.636 19.275 24.004 11.615 37.364 19.27 37.364 42.091 44.045 38.273 44.045 23.099 44.045 15.398 44.045 15.364 43.986 15.364 24.019 3.922 24.012 3.909 24.004 3.914 23.997 3.909 23.989 3.922 4.022 15.364" fill="#3fb66c"/>
  <polygon transform="translate(7.5027 6.7353)" points="37.361 42.09 37.361 26.822 30.684 30.6 30.705 38.253" fill="#2fd36d"/>
  <polygon transform="translate(7.5027 6.7353)" points="24.004 3.914 24 3.911 24 11.617 24.004 11.615 37.364 19.27 37.364 34.456 44.045 30.622 44.045 23.099 44.045 15.398 44.045 15.364 43.986 15.364 24.019 3.922 24.012 3.909" fill="#2fd36d"/>
  <polygon transform="translate(7.5027 6.7353)" points="10.636 42.114 10.636 34.448 3.957 30.622 3.977 38.275" fill="#2fd36d"/>
  <line x1="11.458" x2="11.458" y1="22.099" y2="45.008" fill="none" stroke="#00913a" stroke-miterlimit="10" stroke-width=".0955"/>
  <line x1="18.142" x2="31.507" y1="18.307" y2="10.649" fill="none" stroke="#00913a" stroke-linejoin="round" stroke-miterlimit="10" stroke-width=".0955"/>
  <line x1="31.507" x2="18.139" y1="18.35" y2="26.01" fill="none" stroke="#00913a" stroke-linejoin="round" stroke-miterlimit="10" stroke-width=".0955"/>
  <line x1="18.139" x2="24.821" y1="33.576" y2="37.405" fill="none" stroke="#00913a" stroke-miterlimit="10" stroke-width=".0955"/>
  <line x1="11.458" x2="18.139" y1="45.008" y2="48.856" fill="none" stroke="#00913a" stroke-miterlimit="10" stroke-width=".0955"/>
  <line x1="51.526" x2="51.526" y1="22.099" y2="45.008" fill="none" stroke="#00913a" stroke-miterlimit="10" stroke-width=".0955"/>
  <line x1="44.841" x2="31.476" y1="18.307" y2="10.649" fill="none" stroke="#00913a" stroke-linejoin="round" stroke-miterlimit="10" stroke-width=".0955"/>
  <line x1="31.476" x2="44.844" y1="18.35" y2="26.01" fill="none" stroke="#00913a" stroke-linejoin="round" stroke-miterlimit="10" stroke-width=".0955"/>
  <line x1="44.844" x2="38.162" y1="33.576" y2="37.405" fill="none" stroke="#00913a" stroke-miterlimit="10" stroke-width=".0955"/>
  <g transform="translate(7.5027 6.7353)" fill="none" stroke="#00913a" stroke-miterlimit="10" stroke-width=".0955">
   <line x1="3.977" x2="17.318" y1="38.275" y2="30.67"/>
   <polyline points="17.318 38.269 3.928 30.63 10.622 26.845 3.955 23.003 10.633 19.276 3.953 15.365 10.639 11.572 17.321 15.444 17.307 7.751 24.004 11.615 23.997 3.909" stroke-linejoin="round"/>
   <polyline points="17.318 30.637 17.318 38.273 10.636 42.114 10.639 11.572"/>
   <line x1="44" x2="30.659" y1="38.275" y2="30.67"/>
   <polyline points="30.659 38.269 44.049 30.63 37.356 26.845 44.023 23.003 37.345 19.276 44.025 15.365 37.338 11.572 30.656 15.444 30.67 7.751 23.973 11.615 23.981 3.909" stroke-linejoin="round"/>
   <polyline points="30.659 30.637 30.659 38.273 37.341 42.114 37.338 11.572"/>
  </g>
  <line x1="51.526" x2="44.844" y1="45.008" y2="48.856" fill="none" stroke="#00913a" stroke-miterlimit="10" stroke-width=".0955"/>
 </g>
</svg>
