<svg xmlns="http://www.w3.org/2000/svg" width="64" height="64"><g transform="translate(3.826 3.826)scale(1.1739)"><circle cx="24" cy="24" r="23" fill="#f9f9f9"/><path fill="#0b8484" d="M24 9a15 15 0 0 0-3.99.557 1.49 1.49 0 0 0 1.49 1.44h5c.816 0 1.47-.646 1.5-1.46a15 15 0 0 0-4-.545zm7.39 1.95a1.5 1.5 0 0 0 .03 2.09l3.54 3.54c.576.577 1.5.584 2.09.029a15 15 0 0 0-5.65-5.65zm-14.8.025a15 15 0 0 0-5.65 5.65c.59.532 1.49.518 2.06-.051l3.54-3.54a1.49 1.49 0 0 0 .05-2.06zm7.37 5.02a8 8 0 0 0-8 8 8 8 0 0 0 8 8 8 8 0 0 0 8-8 8 8 0 0 0-8-8m14.5 4a1.493 1.493 0 0 0-1.45 1.5v5c0 .812.639 1.46 1.44 1.49a15 15 0 0 0 .557-3.99 15 15 0 0 0-.547-4m-28.9 0a15 15 0 0 0-.557 4 15 15 0 0 0 .557 3.99 1.49 1.49 0 0 0 1.44-1.49v-5c0-.812-.639-1.46-1.44-1.49zm2.42 11a1.5 1.5 0 0 0-1 .389 15 15 0 0 0 5.65 5.65c.531-.59.517-1.49-.05-2.06l-3.54-3.54a1.5 1.5 0 0 0-1.06-.439m24 0c-.383 0-.767.146-1.06.439l-3.54 3.54a1.494 1.494 0 0 0-.05 2.06 15 15 0 0 0 5.65-5.65 1.5 1.5 0 0 0-1-.389m-14.5 6.02c-.812 0-1.46.64-1.49 1.44a15 15 0 0 0 3.99.557 15 15 0 0 0 3.99-.557 1.49 1.49 0 0 0-1.49-1.44z"/></g></svg>