<svg width="64" height="64" version="1.1" viewBox="0 0 64 64" xmlns="http://www.w3.org/2000/svg">
 <g transform="matrix(1.1739 0 0 1.1739 3.8261 3.8261)">
  <circle cx="24" cy="24" r="23" fill="#f9f9f9"/>
  <path d="m24 9a15 15 0 0 0-3.99 0.557c0.0303 0.804 0.683 1.44 1.49 1.44h5c0.816 0 1.47-0.646 1.5-1.46a15 15 0 0 0-4-0.545zm7.39 1.95c-0.555 0.59-0.547 1.51 0.0293 2.09l3.54 3.54c0.577 0.577 1.5 0.584 2.09 0.029a15 15 0 0 0-5.65-5.65zm-14.8 0.025a15 15 0 0 0-5.65 5.65c0.59 0.532 1.49 0.518 2.06-0.051l3.54-3.54c0.569-0.569 0.583-1.47 0.0508-2.06zm7.37 5.02a8 8 0 0 0-8 8 8 8 0 0 0 8 8 8 8 0 0 0 8-8 8 8 0 0 0-8-8zm14.5 4c-0.809 0.0252-1.45 0.681-1.45 1.5v5c0 0.812 0.639 1.46 1.44 1.49a15 15 0 0 0 0.557-3.99 15 15 0 0 0-0.547-4zm-28.9 0a15 15 0 0 0-0.557 4 15 15 0 0 0 0.557 3.99c0.804-0.0302 1.44-0.682 1.44-1.49v-5c0-0.812-0.639-1.46-1.44-1.49zm2.42 11c-0.359 0-0.715 0.132-1 0.389a15 15 0 0 0 5.65 5.65c0.531-0.59 0.517-1.49-0.0508-2.06l-3.54-3.54c-0.294-0.294-0.677-0.439-1.06-0.439zm24 0c-0.383 0-0.767 0.146-1.06 0.439l-3.54 3.54c-0.568 0.568-0.582 1.47-0.0508 2.06a15 15 0 0 0 5.65-5.65c-0.285-0.257-0.641-0.389-1-0.389zm-14.5 6.02c-0.812 0-1.46 0.64-1.49 1.44a15 15 0 0 0 3.99 0.557 15 15 0 0 0 3.99-0.557c-0.0303-0.804-0.683-1.44-1.49-1.44z" fill="#0b8484"/>
 </g>
</svg>
