<?xml version="1.0" encoding="UTF-8" standalone="no"?>
<svg
   width="64"
   height="64"
   viewBox="0 0 16.933 16.933"
   version="1.1"
   id="svg2"
   sodipodi:docname="lutris.svg"
   xml:space="preserve"
   inkscape:version="1.4.1 (93de688d07, 2025-03-30)"
   xmlns:inkscape="http://www.inkscape.org/namespaces/inkscape"
   xmlns:sodipodi="http://sodipodi.sourceforge.net/DTD/sodipodi-0.dtd"
   xmlns="http://www.w3.org/2000/svg"
   xmlns:svg="http://www.w3.org/2000/svg"><defs
     id="defs2" /><sodipodi:namedview
     id="namedview2"
     pagecolor="#505050"
     bordercolor="#ffffff"
     borderopacity="1"
     inkscape:showpageshadow="0"
     inkscape:pageopacity="0"
     inkscape:pagecheckerboard="1"
     inkscape:deskcolor="#505050"
     inkscape:zoom="9.5625"
     inkscape:cx="20.183007"
     inkscape:cy="9.6732026"
     inkscape:window-width="1920"
     inkscape:window-height="1012"
     inkscape:window-x="0"
     inkscape:window-y="0"
     inkscape:window-maximized="1"
     inkscape:current-layer="svg2" /><circle
     cx="8.466"
     cy="8.466"
     r="7.144"
     fill="#f0f0f0"
     style="paint-order:stroke fill markers;fill:#fac286;fill-opacity:1"
     id="circle1" /><g
     id="g3"
     transform="matrix(0.25134356,0,0,0.25135454,2.1697895,2.6986775)"><path
       style="fill:#f8952b"
       d="M 27,11 A 15,15 0 0 0 12,26 15,15 0 0 0 27,41 15,15 0 0 0 42,26 15,15 0 0 0 27,11 Z"
       id="path2-6" /><path
       style="fill:#946857"
       d="M 23.365234,4 C 12.902025,3.9906183 4.2809096,12.607202 4.0058594,23.476562 3.7261152,34.518451 12.164138,43.703495 22.851562,43.992188 c 5.206738,0.140546 9.985059,-1.85664 13.550782,-5.21875 0.380732,-0.317656 0.58789,-0.515626 0.58789,-0.515626 0,0 3.866703,-4.058281 4.074219,-7.408203 -0.986638,1.629996 -1.891678,3.262027 -4.347656,4.470703 -1.126347,0.521744 -2.158741,0.965649 -3.199219,1.316407 -0.06662,0.01696 -0.133511,0.03268 -0.201172,0.04883 -0.492826,0.117638 -1.009349,0.216435 -1.550781,0.291015 -0.06562,0.009 -0.132982,0.01699 -0.199219,0.02539 -0.561535,0.07122 -1.141344,0.12307 -1.740234,0.148438 -0.06164,0.0026 -0.125537,0.0018 -0.1875,0.0039 -0.590827,0.02022 -1.195097,0.01847 -1.808594,-0.0059 -0.04003,-0.0016 -0.07904,-1.73e-4 -0.11914,-0.002 -0.623893,-0.02767 -1.256569,-0.08424 -1.890626,-0.158203 -0.09048,-0.01056 -0.18094,-0.01779 -0.271484,-0.0293 -0.617212,-0.07843 -1.234176,-0.182052 -1.847656,-0.304687 -0.09911,-0.01981 -0.198035,-0.03958 -0.296875,-0.06055 -0.600346,-0.127401 -1.195306,-0.276931 -1.779297,-0.447266 -0.187237,-0.05462 -0.373776,-0.110867 -0.558594,-0.169922 -0.139675,-0.04463 -0.279854,-0.08759 -0.417968,-0.134765 -0.197373,-0.06741 -0.390184,-0.140288 -0.583985,-0.212891 -0.158066,-0.05921 -0.317239,-0.117009 -0.472656,-0.179687 -0.180099,-0.07264 -0.355064,-0.151213 -0.53125,-0.228516 -0.149316,-0.06551 -0.301011,-0.128404 -0.447266,-0.197265 -0.318427,-0.149944 -0.631431,-0.306757 -0.933593,-0.472657 -0.240474,-0.13302 -0.469335,-0.272295 -0.6875,-0.417969 -0.50102,-0.33454 -0.938294,-0.703265 -1.330079,-1.089843 -2.039693,-2.081489 -1.944994,-4.528933 -1.83789,-6.115235 0.134945,-1.992574 1.805495,-6.364326 7.302734,-8.679687 3.396519,-1.199267 7.391084,-2.038011 10.730469,-0.962891 2.511963,0.566771 4.318261,1.390912 6.707031,2.234375 0,0 -0.01933,0.04157 0.640625,0.205078 4.645666,0.735907 4.12419,-3.091269 4.12419,-3.091269 l -0.364139,-0.895627 v 0 c -0.08055,-0.471962 0.272962,-0.84418 0.272962,-0.84418 0,0 -0.286352,-1.055347 -0.238091,-1.75281 0.04892,-0.697142 0.0094,-1.590751 -0.142581,-2.865234 C 42.705407,9.0008173 41.868866,8.4931859 41.597656,8.2950704 41.325825,8.0973119 40.05922,7.1424409 38.845703,6.6661641 37.631444,6.1898811 36.404212,5.8378972 34.892578,6.0509297 c -0.16784,0.023733 -0.326706,0.049398 -0.492187,0.074219 -0.0293,-0.0093 -0.05228,-0.019896 -0.08398,-0.029297 -0.576424,-0.1711851 -0.984172,-1.1039846 -1.455078,-1.0927021 -0.03604,8.641e-4 -0.07249,0.00395 -0.109375,0.00781 -0.03631,0.0038 -0.07399,0.00866 -0.111328,0.015625 h -0.002 c -0.03806,0.0071 -0.0759,0.01668 -0.115234,0.027344 -0.04294,0.011654 -0.08431,0.026919 -0.123047,0.044922 -0.275581,0.1281117 -0.444403,0.6102762 -0.548787,0.92654 C 29.433694,4.8032615 26.730234,4.08507 23.863281,4.0078125 23.696294,4.0032925 23.531316,4.00015 23.365234,4 Z m 11.367188,32.269531 c -0.354946,0.132282 -0.740241,0.244228 -1.136719,0.347657 0.396253,-0.103374 0.782011,-0.215465 1.136719,-0.347657 z"
       id="path5" /><path
       style="fill:#d3c9c6"
       d="m 31.803977,10.01989 c -2.092912,-0.0025 -4.361827,0.609918 -6.018933,1.18622 -3.142531,1.112027 -5.244489,1.726798 -7.790758,3.546476 -0.675185,0.490282 -3.328429,2.438412 -4.940572,5.155036 -4.4552301,7.876792 -1.160406,16.668963 4.600955,18.569378 6.334274,2.368883 13.111187,2.624519 20.737553,-4.115317 -0.656433,0.525348 0,0 -3.660306,1.907353 C 30.41777,37.876838 22.796842,37.36038 17.679754,34.550893 13.563085,32.273716 13.765466,28.920775 13.9,26.928202 c 0.134945,-1.992574 1.730514,-6.365071 7.227753,-8.680432 3.396519,-1.199267 7.390375,-1.73789 10.72976,-0.66277 2.511963,0.566771 4.317558,1.292303 6.706328,2.135766 0,0 -0.01967,0.04095 0.640286,0.204468 C 43.849793,20.661043 44,16.572657 44,16.572657 l -0.132462,-0.744935 -0.404423,-1.010743 -0.192729,-0.433046 -0.116249,-0.23468 c 0,0 -0.0335,-0.295478 -0.08046,-0.595704 C 42.984697,14.675752 42.537835,15 42.537835,15 38.927098,14.315416 38.281729,11.772501 34.474639,10.465753 33.670005,10.149307 32.7553,10.021025 31.803977,10.01989 Z m 6.588245,24.341793 c 0.420565,-0.33658 0.624316,-0.566562 0.624378,-0.566407 -0.208852,0.195138 -0.416793,0.382954 -0.624378,0.566407 z"
       id="path6" /><path
       style="fill:#946857"
       d="m 12.454075,20.297529 -0.02167,0.178439 c 1.452899,-0.07361 3.233592,0.241217 4.554499,1.16768 1.024088,0.691366 1.946611,1.723144 3.259638,1.256352 0.897679,-0.314815 0.947557,-0.84791 0.603458,-1.724503 -0.29058,-0.712742 -0.770913,-1.943518 -1.364877,-2.415399 -0.855652,-0.67712 -3.067669,-0.44067 -3.178648,-1.856654 -0.0834,-0.669319 0.338189,-1.172749 0.712168,-1.660576 -6.9e-4,0 -4.283509,1.076745 -4.564568,5.054661 z"
       id="path8" /><path
       style="fill:#3f3f3f"
       d="m 42.537835,15 c 0,0 -0.172819,0.544934 -0.984299,0.592753 -0.811162,0.04845 -0.670867,1.176519 0.03252,1.808104 0.703709,0.631908 1.25405,0.805208 1.723081,0.320286 C 43.777533,17.237184 44.927952,16.434225 42.537833,15 Z"
       id="path10" /><path
       style="fill:#3f3f3f"
       d="m 38.682949,13.427632 c -0.510174,0.650967 -1.452686,0.763022 -2.105622,0.251841 -0.652933,-0.513802 -0.769871,-1.456714 -0.259328,-2.108057 0.509069,-0.649844 1.452318,-0.762274 2.104885,-0.250343 0.653302,0.513054 0.768765,1.45559 0.260065,2.106559 z"
       id="path12" /><path
       style="fill:#3f3f3f"
       d="m 43.603576,13.535155 c -0.04203,0.551035 -0.392695,0.964667 -0.78276,0.922911 -0.389739,-0.04068 -0.671455,-0.519628 -0.628441,-1.071733 0.04236,-0.55032 0.392364,-0.963595 0.782103,-0.922553 0.389737,0.04211 0.671452,0.520698 0.629098,1.071375 z"
       id="path14" /></g></svg>
