<svg xmlns="http://www.w3.org/2000/svg" xml:space="preserve" width="64" height="64" viewBox="0 0 16.933 16.933"><circle cx="8.466" cy="8.466" r="7.144" fill="#f0f0f0" style="paint-order:stroke fill markers;fill:#fac286;fill-opacity:1"/><path d="M27 11a15 15 0 0 0-15 15 15 15 0 0 0 15 15 15 15 0 0 0 15-15 15 15 0 0 0-15-15" style="fill:#f8952b" transform="matrix(.25134 0 0 .25135 2.17 2.699)"/><path d="M23.365 4c-10.463-.01-19.084 8.607-19.36 19.477-.279 11.041 8.16 20.226 18.847 20.515 5.206.14 9.985-1.856 13.55-5.219.381-.317.588-.515.588-.515s3.867-4.058 4.074-7.408c-.986 1.63-1.891 3.262-4.347 4.47-1.127.522-2.159.966-3.2 1.317l-.2.049q-.74.177-1.551.29-.1.014-.2.026c-.561.071-1.14.123-1.74.148q-.093.003-.187.004a25 25 0 0 1-1.809-.006q-.06 0-.12-.002a27 27 0 0 1-1.89-.158q-.135-.014-.271-.03a26 26 0 0 1-1.848-.304l-.297-.06a25 25 0 0 1-2.338-.618q-.21-.065-.418-.134-.294-.103-.584-.213c-.158-.06-.317-.117-.472-.18q-.268-.111-.531-.228c-.15-.066-.301-.129-.448-.198q-.479-.224-.933-.472a9.018 9.018 0 0 1-2.018-1.508c-2.04-2.082-1.945-4.53-1.838-6.115.135-1.993 1.806-6.365 7.303-8.68 3.396-1.2 7.391-2.038 10.73-.963 2.512.567 4.319 1.391 6.707 2.234 0 0-.019.042.641.206 4.646.735 4.124-3.092 4.124-3.092l-.364-.895c-.08-.472.273-.845.273-.845s-.286-1.055-.238-1.752c.049-.698.01-1.591-.143-2.866-.152-1.274-.988-1.782-1.26-1.98-.271-.198-1.538-1.153-2.751-1.629-1.215-.476-2.442-.828-3.953-.615-.168.024-.327.05-.493.074-.029-.01-.052-.02-.084-.03-.576-.17-.984-1.103-1.455-1.092a1.4 1.4 0 0 0-.22.024h-.002a2 2 0 0 0-.116.027 1 1 0 0 0-.123.045c-.275.128-.444.61-.548.926A18.8 18.8 0 0 0 23.365 4m11.367 32.27" style="fill:#946857" transform="matrix(.25134 0 0 .25135 2.17 2.699)"/><path d="M31.804 10.02c-2.093-.003-4.362.61-6.019 1.186-3.142 1.112-5.244 1.727-7.79 3.547-.676.49-3.33 2.438-4.941 5.155-4.456 7.876-1.16 16.669 4.6 18.569 6.335 2.369 13.112 2.625 20.738-4.115-.656.525 0 0-3.66 1.907-4.314 1.608-11.935 1.091-17.052-1.718-4.117-2.277-3.915-5.63-3.78-7.623.135-1.992 1.73-6.365 7.228-8.68 3.396-1.2 7.39-1.738 10.73-.663 2.511.567 4.317 1.292 6.706 2.136 0 0-.02.04.64.204C43.85 20.661 44 16.573 44 16.573l-.132-.745-.405-1.011-.193-.433-.116-.235s-.033-.295-.08-.595c-.09 1.122-.536 1.446-.536 1.446-3.61-.685-4.256-3.227-8.063-4.534-.805-.317-1.72-.445-2.671-.446m6.588 24.342c.42-.337.625-.567.625-.567q-.314.292-.625.567" style="fill:#d3c9c6" transform="matrix(.25134 0 0 .25135 2.17 2.699)"/><path d="m12.454 20.298-.022.178c1.453-.074 3.234.241 4.555 1.168 1.024.691 1.947 1.723 3.26 1.256.897-.315.947-.848.603-1.725-.29-.712-.77-1.943-1.365-2.415-.856-.677-3.068-.44-3.179-1.857-.083-.669.339-1.172.713-1.66-.001 0-4.284 1.077-4.565 5.055" style="fill:#946857" transform="matrix(.25134 0 0 .25135 2.17 2.699)"/><path d="M42.538 15s-.173.545-.984.593c-.812.048-.671 1.176.032 1.808s1.254.805 1.723.32c.469-.484 1.619-1.287-.771-2.721M38.683 13.428a1.503 1.503 0 0 1-2.365-1.856 1.5 1.5 0 0 1 2.105-.25c.653.512.769 1.455.26 2.106M43.604 13.535c-.042.551-.393.965-.783.923-.39-.04-.672-.52-.629-1.072.043-.55.393-.963.782-.922.39.042.672.52.63 1.071" style="fill:#3f3f3f" transform="matrix(.25134 0 0 .25135 2.17 2.699)"/></svg>