<svg width="64" height="64" version="1.1" xmlns="http://www.w3.org/2000/svg">
 <circle cx="32" cy="32" r="27" fill="#e23a3d" stroke-linecap="round" stroke-width="1.9636" style="paint-order:stroke fill markers"/>
 <path d="m26.879 17c-0.63156 0.0013-1.3122 0.0054-2.0137 0.01312l-5.1018 0.05813 0.52124 0.63186c0.65447 0.79482 1.3502 2.3213 3.9337 8.6305 3.8123 9.31 4.3283 10.37 5.0455 10.37 0.11082 0 0.33057-0.20266 0.48749-0.45187 0.64164-1.019 4.9108-10.962 4.9068-11.428-0.0026-0.27689-0.60399-1.8849-1.335-3.5737-1.3369-3.0886-1.9295-3.9373-2.9287-4.1868-0.17659-0.0441-1.6209-0.06775-3.5156-0.06375zm-7.7736 1.2562c-0.25887 0.0079-0.50791 0.20254-0.75186 0.58311l-9.0205 22.16h11.122s3.856-9.6415 4.1999-10.579c0.11524-0.31407-2.9918-8.2749-4.1493-10.631-0.5103-1.0388-0.96916-1.5468-1.4006-1.5337zm23.261 4.5543c-0.82374 0.03149-1.9792 0.35584-3.8774 1.0162-1.6323 0.56786-2.8433 1.1796-3.0168 1.3594-0.32745 0.33919-4.9424 11.161-4.9424 11.595 0 0.50425 0.48359 0.76193 1.215 0.64499 0.39776-0.06359 4.2332-1.4754 8.848-3.1368 6.031-2.1713 8.6379-3.0206 9.2736-3.0206 0.59585 0 0.88498-0.08743 0.88498-0.26437 0-0.33935-6.0374-7.1612-6.8717-7.7567-0.43221-0.3085-0.87241-0.46136-1.5131-0.43687zm7.3086 9.3242c-0.38276 0.0043-0.85494 0.12973-1.7775 0.42374-3.5139 1.1199-6.6018 2.3717-6.6018 2.6756 0 0.33443 2.2125 5.7655 2.2125 5.7655h11.158s-3.0869-7.9085-3.3712-8.2705c-0.1083-0.13794-0.53534-0.35526-0.94873-0.48187-0.24515-0.07508-0.44158-0.11509-0.67124-0.1125z" fill="#ffffff" stroke-width=".95998"/>
 <path transform="rotate(-45)" d="m15.703 67.175h-31.405a27 27 0 0 0 31.405 0z" fill="#c03134" stroke-linecap="round" stroke-width="2" style="paint-order:stroke fill markers"/>
 <path d="m36.396 58.604 22.207-22.207a27 27 0 0 0-22.207 22.207z" fill="#f07577" stroke-linecap="round" stroke-width="2" style="paint-order:stroke fill markers"/>
</svg>
