<svg xmlns="http://www.w3.org/2000/svg" xml:space="preserve" width="64" height="64" viewBox="0 0 16.933 16.933"><circle cx="8.466" cy="8.466" r="7.144" fill="#b52cc1" style="paint-order:stroke markers fill;fill:#267eb6;fill-opacity:1"/><path d="M5.08 5.685s-.838.626-.915.8-.253.796-.185.952c.067.157.302.148.302.148s2.198-1.202 2.46-1.338c.263-.136.296.305.296.305s.036.115-.071.31c-.108.193-.68 1.227-.771 1.344-.092.117-1.098 1.726-1.371 2.003-.274.277.198.954.198.954s.044.066.13.077c.085.011.181-.044.224-.09.042-.045.982-1.448.982-1.448l.827-1.132S8.712 6.625 8.95 6.677s.162.315.162.315-.486.959-.57 1.036c-.085.078-1.369 2.135-1.588 2.324s.184 1.037.184 1.037.075.155.221.035.873-1.05.898-1.09.98-1.186.993-1.206 1.787-1.85 1.958-1.865.099.124.099.124-.959 1.147-.99 1.194-.848 1.219-.889 1.624c-.04.405-.097.736.145 1.18.243.442.755.244.858.204.086-.044.559-.29.811-.478.24-.179.646-.5.763-.603.127-.111.335-.266.371-.35s-.031-.309-.031-.309-.444.304-.719.486c-.269.177-.454.373-.753.413a.6.6 0 0 1-.412-.071c-.101-.07-.105-.2-.071-.399.033-.198.071-.363.122-.511.11-.317.13-.332.285-.628.2-.298.185-.315.366-.594.329-.506.604-.904.803-1.137.21-.246.827-.827.956-1 .127-.168-.06-.473-.06-.473s-.221-.273-.345-.29c-.125-.019-.328.027-.5.146-.126.135-1.226 1.062-1.337 1.188-.111.127-1.759 1.79-1.88 1.873-.122.083.642-1.042.642-1.042l.432-.9s.368-.78.366-.862.039-.24-.062-.365c-.1-.125-.272-.164-.272-.164s-.21-.06-.408.093-.654.508-.769.61c-.098.087-.784.803-.784.803l-1.08 1.263s.012-.14.326-.743.528-1.4.517-1.543c-.011-.146-.09-.61-.37-.723-.294-.118-2.045.497-2.45.86-.404.364.262-.335.262-.335s.027-.071.004-.097-.074-.022-.074-.022" style="fill:#fefcfe;fill-opacity:1;stroke-width:.264578"/></svg>