<svg xmlns="http://www.w3.org/2000/svg" width="64" height="64"><circle cx="32" cy="32" r="27" fill="#e23a3d" style="paint-order:stroke fill markers"/><path fill="#fff" d="M26.879 17c-.632.001-1.312.005-2.014.013l-5.101.058.52.632c.655.795 1.35 2.321 3.934 8.63 3.813 9.31 4.329 10.37 5.046 10.37.11 0 .33-.202.487-.451.642-1.02 4.911-10.962 4.907-11.428-.002-.277-.604-1.885-1.335-3.574-1.337-3.089-1.93-3.937-2.928-4.187-.177-.044-1.621-.068-3.516-.064zm-7.774 1.256q-.387.012-.751.583L9.333 41h11.122s3.856-9.641 4.2-10.579c.115-.314-2.992-8.275-4.15-10.63-.51-1.04-.969-1.547-1.4-1.534zm23.261 4.554c-.823.032-1.979.356-3.877 1.017-1.632.568-2.843 1.18-3.017 1.36-.327.338-4.942 11.16-4.942 11.594 0 .504.483.762 1.215.645.398-.063 4.233-1.475 8.848-3.137 6.03-2.171 8.638-3.02 9.273-3.02.596 0 .885-.088.885-.265 0-.339-6.037-7.16-6.871-7.756-.433-.309-.873-.462-1.513-.437zm7.309 9.325c-.383.004-.855.13-1.777.423-3.514 1.12-6.602 2.372-6.602 2.676 0 .334 2.212 5.766 2.212 5.766h11.158s-3.087-7.909-3.371-8.271c-.108-.138-.535-.355-.949-.482a2.1 2.1 0 0 0-.671-.112"/><path fill="#c03134" d="M15.703 67.175h-31.405a27 27 0 0 0 31.405 0" style="paint-order:stroke fill markers" transform="rotate(-45)"/><path fill="#f07577" d="m36.396 58.604 22.207-22.207a27 27 0 0 0-22.207 22.207" style="paint-order:stroke fill markers"/></svg>