<?xml version="1.0" encoding="UTF-8" standalone="no"?>
<svg
   height="128px"
   viewBox="0 0 128 128"
   width="128px"
   version="1.1"
   id="svg114"
   sodipodi:docname="me.iepure.devtoolbox.svg"
   xml:space="preserve"
   inkscape:version="1.4.2 (ebf0e940d0, 2025-05-08)"
   xmlns:inkscape="http://www.inkscape.org/namespaces/inkscape"
   xmlns:sodipodi="http://sodipodi.sourceforge.net/DTD/sodipodi-0.dtd"
   xmlns:xlink="http://www.w3.org/1999/xlink"
   xmlns="http://www.w3.org/2000/svg"
   xmlns:svg="http://www.w3.org/2000/svg"><defs
     id="defs114"><clipPath
       clipPathUnits="userSpaceOnUse"
       id="clipPath118"><path
         d="M 76.956283,74.036746 H 95.124356 V 100.8939 H 76.956283 Z m 0,0"
         id="path119"
         style="stroke-width:0.789916" /></clipPath></defs><sodipodi:namedview
     id="namedview114"
     pagecolor="#505050"
     bordercolor="#eeeeee"
     borderopacity="1"
     inkscape:showpageshadow="0"
     inkscape:pageopacity="0"
     inkscape:pagecheckerboard="0"
     inkscape:deskcolor="#505050"
     inkscape:zoom="4.609375"
     inkscape:cx="38.4"
     inkscape:cy="76.583051"
     inkscape:window-width="1536"
     inkscape:window-height="808"
     inkscape:window-x="0"
     inkscape:window-y="0"
     inkscape:window-maximized="1"
     inkscape:current-layer="svg114" /><linearGradient
     id="a"
     gradientUnits="userSpaceOnUse"
     x1="12.000015"
     x2="116.000015"
     y1="124.035328"
     y2="124.035328"
     gradientTransform="matrix(0.67912424,0,0,0.67912424,18.386103,19.659987)"><stop
       offset="0"
       stop-color="#1a5fb4"
       id="stop1" /><stop
       offset="0.04"
       stop-color="#5f9ce8"
       id="stop2" /><stop
       offset="0.08"
       stop-color="#3582e3"
       id="stop3" /><stop
       offset="0.92"
       stop-color="#3483e3"
       id="stop4" /><stop
       offset="0.96"
       stop-color="#609ee8"
       id="stop5" /><stop
       offset="1"
       stop-color="#1a5fb5"
       id="stop6" /></linearGradient><linearGradient
     id="b"
     gradientUnits="userSpaceOnUse"
     x1="18.000023"
     x2="110.000031"
     y1="50.035328"
     y2="50.035328"
     gradientTransform="matrix(0.67912424,0,0,0.67912424,18.386103,19.659987)"><stop
       offset="0"
       stop-color="#1a5fb4"
       id="stop7" /><stop
       offset="0.0834497"
       stop-color="#3584e4"
       id="stop8" /><stop
       offset="0.338668"
       stop-color="#468de6"
       id="stop9" /><stop
       offset="0.661298"
       stop-color="#468de6"
       id="stop10" /><stop
       offset="0.919584"
       stop-color="#3584e4"
       id="stop11" /><stop
       offset="1"
       stop-color="#3584e4"
       id="stop12" /></linearGradient><linearGradient
     id="c"
     gradientUnits="userSpaceOnUse"><stop
       offset="0"
       stop-color="#c01c28"
       id="stop13" /><stop
       offset="0.5"
       stop-color="#ed333b"
       id="stop14" /><stop
       offset="1"
       stop-color="#e01b24"
       id="stop15" /></linearGradient><linearGradient
     id="d"
     gradientTransform="matrix(0.94562293,-0.63651055,0.63651055,0.94562293,-109.29197,-111.28737)"
     x1="23"
     x2="23"
     xlink:href="#c"
     y1="238"
     y2="222" /><radialGradient
     id="e"
     cx="28"
     cy="229.944962"
     gradientTransform="matrix(-0.49506341,-0.73548469,0.73548469,-0.49506341,-84.741776,218.14687)"
     gradientUnits="userSpaceOnUse"
     r="12"><stop
       offset="0"
       stop-color="#a51d2d"
       id="stop16" /><stop
       offset="0.7"
       stop-color="#b21c2a"
       stop-opacity="0.72549"
       id="stop17" /><stop
       offset="1"
       stop-color="#c01c28"
       stop-opacity="0"
       id="stop18" /></radialGradient><linearGradient
     id="f"
     gradientTransform="matrix(-0.31825488,-0.47281147,0.47281147,-0.31825488,-27.111624,168.66814)"
     x1="16"
     x2="40"
     xlink:href="#c"
     y1="232"
     y2="232" /><linearGradient
     id="g"
     gradientTransform="matrix(-0.74861862,0.50390415,0.84868047,1.2608311,-67.626481,-244.67798)"
     gradientUnits="userSpaceOnUse"
     x1="46"
     x2="46"
     y1="232"
     y2="228"><stop
       offset="0"
       stop-color="#9a9996"
       id="stop19" /><stop
       offset="0.5"
       stop-color="#ffffff"
       id="stop20" /><stop
       offset="1"
       stop-color="#c0bfbc"
       id="stop21" /></linearGradient><clipPath
     id="i"><path
       d="m 48.300781 92.210938 c 3.558594 5.289062 10.730469 6.691406 16.023438 3.132812 l 17.554687 -11.820312 c 1.765625 -1.1875 2.230469 -3.578126 1.042969 -5.339844 c -0.589844 -0.882813 -0.359375 -2.078125 0.523437 -2.671875 l 5.585938 -3.757813 c 0.882812 -0.59375 2.078125 -0.363281 2.671875 0.519532 c 1.1875 1.761718 3.578125 2.230468 5.339844 1.042968 l 1.597656 -1.074218 l -12.894531 -19.152344 l -1.59375 1.074218 c -1.765625 1.1875 -2.230469 3.578126 -1.046875 5.339844 c 0.59375 0.882813 0.363281 2.078125 -0.519531 2.671875 l -5.585938 3.761719 c -0.882812 0.589844 -2.078125 0.359375 -2.671875 -0.523438 c -1.1875 -1.761718 -3.578125 -2.230468 -5.339844 -1.042968 l -17.558593 11.816406 c -5.289063 3.5625 -6.691407 10.734375 -3.128907 16.023438 z m 0 0"
       id="path22" /></clipPath><path
     fill="#383838"
     d="m 64.142374,0.412532 c 35.221527,0 63.772886,28.548994 63.772886,63.77052 0,35.221527 -28.551359,63.772878 -63.772886,63.772878 -35.221526,0 -63.772882,-28.551351 -63.772882,-63.772878 0,-35.221526 28.551356,-63.77288196 63.772882,-63.77288196 z"
     id="path1"
     style="stroke-width:2.01239" /><path
     d="m 28.034586,33.976992 h 69.512628 c 3.489826,0 6.319326,2.829506 6.319326,6.31933 v 47.394973 c 0,3.489826 -2.8295,6.31933 -6.319326,6.31933 H 28.034586 c -3.489825,0 -6.319329,-2.829504 -6.319329,-6.31933 V 40.296322 c 0,-3.489824 2.829504,-6.31933 6.319329,-6.31933 z m 0,0"
     fill="#1c71d8"
     id="path24"
     style="stroke-width:0.789916" /><path
     d="m 29.524936,44.113223 49.669069,-9.355571 c 2.286437,-0.431985 4.480305,0.848543 4.903034,2.86036 l 6.893253,32.778439 c 0.422733,2.011817 -1.08922,3.992779 -3.375657,4.421679 L 37.948651,84.1737 C 35.662215,84.605685 33.46526,83.325157 33.042532,81.31334 L 26.152364,48.534902 c -0.422729,-2.011818 1.086135,-3.99278 3.372572,-4.421679 z m 0,0"
     fill="#5e5c64"
     id="path33"
     style="stroke-width:0.789916" /><path
     d="m 28.910899,41.181892 49.665984,-9.35557 c 2.286436,-0.431986 4.489562,0.888656 4.924633,2.949844 l 7.056791,33.577611 c 0.435071,2.061186 -1.067621,4.079177 -3.354058,4.511162 L 37.535181,82.22051 c -2.283352,0.431985 -4.489564,-0.891742 -4.921549,-2.949844 l -7.059877,-33.57761 c -0.431985,-2.061189 1.070707,-4.082263 3.357144,-4.511164 z m 0,0"
     fill="#9a9996"
     id="path34"
     style="stroke-width:0.789916" /><path
     d="m 30.30251,50.06228 2.980699,-0.561582 c 0.891742,-0.169708 1.706343,0.132681 1.82051,0.672663 0.11108,0.539982 -0.518382,1.113906 -1.410124,1.280528 l -2.977614,0.561581 c -0.894826,0.166623 -1.709427,-0.132681 -1.82051,-0.672663 -0.114173,-0.539981 0.515298,-1.113905 1.407039,-1.280527 z m 0,0"
     id="path35"
     style="stroke-width:0.789916" /><path
     d="m 30.034062,49.096483 3.104124,-0.586266 c 0.8578,-0.160452 1.669315,0.256106 1.811253,0.928769 0.141938,0.675749 -0.438157,1.354583 -1.295957,1.515035 l -3.104123,0.58318 c -0.8578,0.163537 -1.66623,-0.253021 -1.808169,-0.928769 -0.141937,-0.672663 0.438158,-1.351497 1.292872,-1.511949 z m 0,0"
     fill="#36343d"
     id="path36"
     style="stroke-width:0.789916" /><path
     d="m 37.482726,48.707696 3.104122,-0.583181 c 0.857801,-0.163537 1.644631,0.145024 1.758799,0.685007 0.114162,0.539981 -0.490613,1.107733 -1.345327,1.268186 l -3.104124,0.586265 c -0.857799,0.160452 -1.644629,-0.145024 -1.758797,-0.685005 -0.114162,-0.539982 0.490612,-1.107735 1.345327,-1.271272 z m 0,0"
     id="path37"
     style="stroke-width:0.789916" /><path
     d="m 37.279075,47.732643 3.104123,-0.586265 c 0.8578,-0.160453 1.666231,0.256105 1.808169,0.928768 0.141936,0.675749 -0.438157,1.351497 -1.295958,1.515034 l -3.104123,0.583181 c -0.8578,0.163537 -1.666229,-0.25302 -1.808168,-0.928769 -0.141938,-0.672663 0.438158,-1.351496 1.295957,-1.511949 z m 0,0"
     fill="#36343d"
     id="path38"
     style="stroke-width:0.789916" /><path
     d="m 44.727738,47.343857 3.104124,-0.583181 c 0.8578,-0.163538 1.64463,0.145024 1.758797,0.681919 0.11108,0.539982 -0.490611,1.110821 -1.348412,1.271272 l -3.104123,0.583181 c -0.857799,0.163538 -1.644631,-0.145024 -1.758798,-0.685005 -0.111079,-0.536897 0.490613,-1.107735 1.348412,-1.268186 z m 0,0"
     id="path39"
     style="stroke-width:0.789916" /><path
     d="m 44.521003,46.365718 3.104122,-0.58318 c 0.8578,-0.160452 1.669316,0.253019 1.811254,0.928768 0.141939,0.67575 -0.438157,1.351498 -1.295956,1.515035 l -3.104124,0.583181 c -0.8578,0.160451 -1.669316,-0.25302 -1.811254,-0.92877 -0.138852,-0.675748 0.438157,-1.351497 1.295958,-1.515034 z m 0,0"
     fill="#36343d"
     id="path40"
     style="stroke-width:0.789916" /><path
     d="m 51.969665,45.980017 3.104124,-0.586266 c 0.857799,-0.160452 1.644631,0.145024 1.758797,0.685005 0.114163,0.539982 -0.490611,1.107734 -1.348411,1.271272 l -3.104124,0.58318 c -0.854714,0.163537 -1.641544,-0.145024 -1.755712,-0.685006 -0.114163,-0.539981 0.490612,-1.107733 1.345326,-1.268185 z m 0,0"
     id="path41"
     style="stroke-width:0.789916" /><path
     d="m 51.766015,45.001879 3.104124,-0.583181 c 0.8578,-0.163537 1.666229,0.25302 1.808167,0.928769 0.141938,0.672662 -0.438157,1.351497 -1.295956,1.511949 l -3.104124,0.586266 c -0.8578,0.160451 -1.666229,-0.256105 -1.808167,-0.92877 -0.141938,-0.675748 0.438155,-1.351496 1.295956,-1.515033 z m 0,0"
     fill="#36343d"
     id="path42"
     style="stroke-width:0.789916" /><path
     d="m 59.214677,44.616177 3.104125,-0.586265 c 0.8578,-0.160453 1.64463,0.145022 1.755712,0.685004 0.114162,0.539983 -0.487527,1.107734 -1.345326,1.271272 l -3.104124,0.583179 c -0.8578,0.160453 -1.64463,-0.145022 -1.758798,-0.685004 -0.11108,-0.539983 0.490612,-1.107734 1.348411,-1.268186 z m 0,0"
     id="path43"
     style="stroke-width:0.789916" /><path
     d="m 59.007942,43.638038 3.104124,-0.583179 c 0.857799,-0.163539 1.669315,0.253019 1.808168,0.928768 0.141938,0.672663 -0.438157,1.351497 -1.29287,1.51195 l -3.104125,0.586265 c -0.8578,0.160452 -1.669315,-0.256106 -1.811254,-0.928769 -0.141937,-0.675748 0.438157,-1.354583 1.295957,-1.515035 z m 0,0"
     fill="#36343d"
     id="path44"
     style="stroke-width:0.789916" /><path
     d="m 70.597494,42.471677 3.104124,-0.586265 c 0.854714,-0.160452 1.641545,0.145023 1.755712,0.685005 0.114173,0.539982 -0.487526,1.107734 -1.345326,1.271272 L 71.00788,44.42487 c -0.857799,0.163536 -1.64463,-0.145024 -1.758798,-0.685007 -0.114162,-0.539981 0.490612,-1.107733 1.348412,-1.268186 z m 0,0"
     id="path45"
     style="stroke-width:0.789916" /><path
     d="m 70.390759,41.493539 3.104123,-0.58318 c 0.8578,-0.163538 1.66623,0.25302 1.808168,0.928769 0.141938,0.672663 -0.438157,1.351497 -1.295956,1.511949 l -3.104124,0.586265 c -0.854715,0.160452 -1.66623,-0.256106 -1.808168,-0.928768 -0.141938,-0.675749 0.438157,-1.351497 1.295957,-1.515035 z m 0,0"
     fill="#36343d"
     id="path46"
     style="stroke-width:0.789916" /><path
     d="m 77.839422,41.107838 3.104124,-0.586267 c 0.857799,-0.16045 1.64463,0.145025 1.758797,0.685007 0.11108,0.539981 -0.490611,1.107734 -1.348411,1.271271 l -3.104124,0.58318 c -0.8578,0.160452 -1.644631,-0.145024 -1.755713,-0.685005 -0.114162,-0.539982 0.487527,-1.107735 1.345327,-1.268186 z m 0,0"
     id="path47"
     style="stroke-width:0.789916" /><path
     d="m 77.632686,40.1297 3.107209,-0.583181 c 0.854715,-0.163537 1.66623,0.253021 1.808168,0.92877 0.141938,0.672662 -0.438157,1.351496 -1.295956,1.511947 l -3.104125,0.586267 c -0.857799,0.160451 -1.666229,-0.256106 -1.808167,-0.928768 -0.141939,-0.675749 0.438156,-1.354583 1.292871,-1.515035 z m 0,0"
     fill="#36343d"
     id="path48"
     style="stroke-width:0.789916" /><path
     d="m 38.300411,52.589394 3.104124,-0.586266 c 0.857801,-0.160451 1.690914,0.364101 1.860623,1.172532 l 0.614037,2.931329 c 0.172795,0.811516 -0.385702,1.598347 -1.243501,1.758798 l -3.104124,0.586266 c -0.8578,0.160451 -1.690915,-0.364101 -1.860623,-1.175617 l -0.614036,-2.93133 c -0.172794,-0.80843 0.3857,-1.595261 1.2435,-1.755712 z m 0,0"
     id="path49"
     style="stroke-width:0.789916" /><path
     d="m 38.300411,52.589394 3.104124,-0.586266 c 0.857801,-0.160451 1.690914,0.364101 1.860623,1.172532 l 0.512212,2.443804 c 0.169708,0.808428 -0.385702,1.598345 -1.243501,1.758797 l -3.104125,0.583181 C 38.571945,58.124979 37.73883,57.59734 37.569121,56.788909 l -0.51221,-2.443803 c -0.172794,-0.80843 0.3857,-1.595261 1.2435,-1.755712 z m 0,0"
     fill="#36343d"
     id="path50"
     style="stroke-width:0.789916" /><path
     d="m 45.542339,51.222469 3.104124,-0.583181 c 0.8578,-0.160452 1.690914,0.364102 1.860623,1.172532 l 0.617122,2.93133 c 0.169708,0.811515 -0.388787,1.598345 -1.243501,1.758797 l -3.104125,0.586267 C 45.918783,57.248665 45.08567,56.724111 44.91596,55.912596 l -0.617122,-2.931329 c -0.169709,-0.808431 0.385701,-1.595261 1.243501,-1.758798 z m 0,0"
     id="path51"
     style="stroke-width:0.789916" /><path
     d="m 45.542339,51.222469 3.104124,-0.583181 c 0.8578,-0.160452 1.690914,0.364102 1.860623,1.172532 l 0.515296,2.443803 c 0.169709,0.80843 -0.388786,1.59526 -1.246585,1.758799 l -3.104125,0.583179 C 45.816959,56.761139 44.983844,56.2335 44.811049,55.425069 l -0.512211,-2.443802 c -0.169709,-0.808431 0.385701,-1.595261 1.243501,-1.758798 z m 0,0"
     fill="#36343d"
     id="path52"
     style="stroke-width:0.789916" /><path
     d="m 52.787352,49.858629 3.104124,-0.58318 c 0.854714,-0.163538 1.687828,0.364101 1.860623,1.172531 l 0.614037,2.931329 c 0.169708,0.808431 -0.385702,1.598347 -1.243501,1.758799 l -3.104125,0.583181 c -0.857799,0.163537 -1.690914,-0.364103 -1.860623,-1.172532 l -0.617122,-2.931331 c -0.169708,-0.808429 0.388787,-1.59526 1.246587,-1.758797 z m 0,0"
     id="path53"
     style="stroke-width:0.789916" /><path
     d="m 52.787352,49.858629 3.104124,-0.58318 c 0.854714,-0.163538 1.687828,0.364101 1.860623,1.172531 l 0.512211,2.443804 c 0.169709,0.80843 -0.385702,1.59526 -1.243501,1.758797 l -3.104124,0.58318 C 53.058886,55.394214 52.225771,54.86966 52.056062,54.06123 l -0.515297,-2.443804 c -0.169708,-0.808429 0.388787,-1.59526 1.246587,-1.758797 z m 0,0"
     fill="#36343d"
     id="path54"
     style="stroke-width:0.789916" /><path
     d="m 60.029279,48.494789 3.104125,-0.583181 c 0.857799,-0.163537 1.690914,0.364102 1.860622,1.172532 l 0.617122,2.93133 c 0.169709,0.80843 -0.388786,1.595261 -1.243501,1.758797 l -3.10721,0.583182 C 60.405724,54.520986 59.572608,53.993346 59.4029,53.184916 l -0.617121,-2.931329 c -0.169709,-0.808429 0.385701,-1.598345 1.2435,-1.758798 z m 0,0"
     id="path55"
     style="stroke-width:0.789916" /><path
     d="m 60.029279,48.494789 3.104125,-0.583181 c 0.857799,-0.163537 1.690914,0.364102 1.860622,1.172532 l 0.512211,2.443804 c 0.172794,0.808429 -0.385701,1.595261 -1.2435,1.755711 l -3.104124,0.586267 C 60.300812,54.030373 59.467699,53.50582 59.29799,52.69739 l -0.512211,-2.443803 c -0.169709,-0.808429 0.385701,-1.598345 1.2435,-1.758798 z m 0,0"
     fill="#36343d"
     id="path56"
     style="stroke-width:0.789916" /><path
     d="m 31.055399,53.953234 3.104123,-0.586267 c 0.8578,-0.160451 1.690915,0.364103 1.860623,1.175618 l 0.617122,2.93133 c 0.169709,0.80843 -0.3857,1.59526 -1.2435,1.755712 l -3.104124,0.586266 c -0.857801,0.160452 -1.690914,-0.364102 -1.860623,-1.172532 l -0.617123,-2.93133 c -0.169708,-0.811514 0.388788,-1.598345 1.243502,-1.758797 z m 0,0"
     id="path57"
     style="stroke-width:0.789916" /><path
     d="m 31.055399,53.953234 3.104123,-0.586267 c 0.8578,-0.160451 1.690915,0.364103 1.860623,1.175618 l 0.515298,2.440718 c 0.169708,0.811516 -0.388788,1.598346 -1.246587,1.758798 l -3.104124,0.586266 c -0.854714,0.160451 -1.687828,-0.364102 -1.857537,-1.175618 l -0.515298,-2.440718 c -0.169708,-0.811514 0.388788,-1.598345 1.243502,-1.758797 z m 0,0"
     fill="#36343d"
     id="path58"
     style="stroke-width:0.789916" /><path
     d="m 67.274292,47.13095 3.104124,-0.586267 c 0.854714,-0.160451 1.687829,0.364102 1.857537,1.175618 l 0.617122,2.931329 c 0.16971,0.808431 -0.385701,1.595261 -1.243502,1.755714 l -3.104122,0.586265 c -0.857799,0.160452 -1.690915,-0.364102 -1.860623,-1.172532 l -0.617123,-2.93133 c -0.169709,-0.811516 0.388788,-1.598346 1.246587,-1.758797 z m 0,0"
     id="path59"
     style="stroke-width:0.789916" /><path
     d="m 67.274292,47.13095 3.104124,-0.586267 c 0.854714,-0.160451 1.687829,0.364102 1.857537,1.175618 l 0.515298,2.440718 c 0.169708,0.811515 -0.385702,1.598345 -1.243502,1.758797 l -3.104123,0.586267 c -0.8578,0.160451 -1.690915,-0.364103 -1.860623,-1.175618 l -0.515298,-2.440718 c -0.169709,-0.811516 0.388788,-1.598346 1.246587,-1.758797 z m 0,0"
     fill="#36343d"
     id="path60"
     style="stroke-width:0.789916" /><path
     d="m 74.51622,45.76711 7.241927,-1.36384 c 0.857799,-0.163537 1.690914,0.364101 1.860623,1.172532 l 0.617122,2.93133 c 0.169708,0.80843 -0.385701,1.59526 -1.243502,1.758797 l -7.245012,1.36384 c -0.854714,0.160452 -1.687829,-0.364101 -1.860623,-1.172531 l -0.614036,-2.93133 c -0.169709,-0.811516 0.3857,-1.598347 1.243501,-1.758798 z m 0,0"
     id="path61"
     style="stroke-width:0.789916" /><path
     d="m 74.51622,45.76711 7.241927,-1.36384 c 0.857799,-0.163537 1.690914,0.364101 1.860623,1.172532 l 0.515297,2.443803 c 0.169709,0.80843 -0.388787,1.59526 -1.243501,1.755712 l -7.245012,1.36384 c -0.857801,0.163538 -1.690916,-0.361016 -1.860625,-1.172531 l -0.51221,-2.440718 c -0.169709,-0.811516 0.3857,-1.598347 1.243501,-1.758798 z m 0,0"
     fill="#36343d"
     id="path62"
     style="stroke-width:0.789916" /><path
     d="m 32.499465,60.821802 7.245012,-1.363839 c 0.857799,-0.163538 1.687829,0.364101 1.860623,1.172531 l 0.614037,2.931329 c 0.169709,0.808431 -0.385702,1.595261 -1.243501,1.758799 l -7.241928,1.363839 c -0.8578,0.160452 -1.690914,-0.364101 -1.860623,-1.172532 L 31.255963,62.5806 c -0.169708,-0.811515 0.385702,-1.598347 1.243502,-1.758798 z m 0,0"
     id="path63"
     style="stroke-width:0.789916" /><path
     d="m 32.499465,60.821802 7.245012,-1.363839 c 0.854715,-0.163538 1.687829,0.364101 1.860623,1.172531 l 0.512212,2.443804 c 0.169708,0.808429 -0.385702,1.59526 -1.243502,1.755712 l -7.245012,1.366926 c -0.854715,0.160451 -1.68783,-0.364104 -1.860623,-1.175618 L 31.255963,62.5806 c -0.169708,-0.811515 0.385702,-1.598347 1.243502,-1.758798 z m 0,0"
     fill="#36343d"
     id="path64"
     style="stroke-width:0.789916" /><path
     d="m 43.882281,58.677303 3.104124,-0.586267 c 0.857799,-0.160451 1.690914,0.364104 1.860623,1.175618 l 0.617121,2.93133 c 0.169709,0.80843 -0.388787,1.595261 -1.2435,1.758797 l -3.10721,0.583181 C 44.258725,64.700415 43.42561,64.17586 43.255901,63.367431 l -0.617121,-2.93133 c -0.169709,-0.811516 0.3857,-1.598346 1.243501,-1.758798 z m 0,0"
     id="path65"
     style="stroke-width:0.789916" /><path
     d="m 43.882281,58.677303 3.104124,-0.586267 c 0.857799,-0.160451 1.690914,0.364104 1.860623,1.175618 l 0.512211,2.440718 c 0.172794,0.811515 -0.385702,1.598346 -1.243502,1.758798 l -3.104122,0.586266 C 44.153814,64.212887 43.3207,63.688335 43.150992,62.876819 L 42.63878,60.436101 c -0.169709,-0.811516 0.3857,-1.598346 1.243501,-1.758798 z m 0,0"
     fill="#36343d"
     id="path66"
     style="stroke-width:0.789916" /><path
     d="m 51.127294,57.313464 3.104123,-0.586267 c 0.854714,-0.160451 1.687829,0.364102 1.857538,1.175618 l 0.617121,2.931329 c 0.169709,0.808431 -0.3857,1.595261 -1.2435,1.755712 l -3.104124,0.586267 c -0.857799,0.160452 -1.690914,-0.364102 -1.860623,-1.172532 l -0.617122,-2.93133 c -0.169709,-0.811516 0.388787,-1.598346 1.246587,-1.758797 z m 0,0"
     id="path67"
     style="stroke-width:0.789916" /><path
     d="m 51.127294,57.313464 3.104123,-0.586267 c 0.854714,-0.160451 1.687829,0.364102 1.857538,1.175618 l 0.515297,2.440717 c 0.169707,0.811516 -0.385701,1.598346 -1.243501,1.758798 l -3.104124,0.586265 c -0.8578,0.160453 -1.690914,-0.364101 -1.860623,-1.175616 l -0.515297,-2.440718 c -0.169709,-0.811516 0.388787,-1.598346 1.246587,-1.758797 z m 0,0"
     fill="#36343d"
     id="path68"
     style="stroke-width:0.789916" /><path
     d="m 58.36922,55.949623 3.104124,-0.586265 c 0.857801,-0.160453 1.690916,0.364101 1.860623,1.172532 l 0.617123,2.93133 c 0.169709,0.811514 -0.388788,1.598346 -1.246587,1.758797 l -3.104124,0.586267 c -0.854714,0.16045 -1.687828,-0.364104 -1.860623,-1.175619 L 57.12572,57.705336 c -0.169709,-0.808431 0.385701,-1.59526 1.2435,-1.755713 z m 0,0"
     id="path69"
     style="stroke-width:0.789916" /><path
     d="m 58.36922,55.949623 3.104124,-0.586265 c 0.857801,-0.160453 1.690916,0.364101 1.860623,1.172532 l 0.512212,2.443802 c 0.169708,0.808431 -0.385702,1.598347 -1.243501,1.758798 l -3.104124,0.583181 c -0.8578,0.163537 -1.690915,-0.364103 -1.860624,-1.172531 l -0.51221,-2.443804 c -0.169709,-0.808431 0.385701,-1.59526 1.2435,-1.755713 z m 0,0"
     fill="#36343d"
     id="path70"
     style="stroke-width:0.789916" /><path
     d="m 65.611148,54.582698 3.104124,-0.58318 c 0.8578,-0.160452 1.690914,0.364102 1.860623,1.172533 l 0.617122,2.931329 c 0.169708,0.811515 -0.3857,1.598345 -1.243501,1.758798 l -3.104125,0.586265 c -0.857799,0.160452 -1.690913,-0.364102 -1.860622,-1.175617 l -0.617122,-2.931331 c -0.169709,-0.808429 0.388786,-1.595259 1.243501,-1.758797 z m 0,0"
     id="path71"
     style="stroke-width:0.789916" /><path
     d="m 65.611148,54.582698 3.104124,-0.58318 c 0.8578,-0.160452 1.690914,0.364102 1.860623,1.172533 l 0.515296,2.443802 c 0.169709,0.80843 -0.388786,1.595261 -1.243499,1.758797 l -3.104125,0.583181 c -0.857799,0.160452 -1.690914,-0.364102 -1.860622,-1.172532 l -0.515298,-2.443804 c -0.169709,-0.808429 0.388786,-1.595259 1.243501,-1.758797 z m 0,0"
     fill="#36343d"
     id="path72"
     style="stroke-width:0.789916" /><path
     d="m 72.856161,53.218858 3.104124,-0.58318 c 0.857799,-0.163537 1.690914,0.364103 1.860623,1.172532 l 0.614037,2.931329 c 0.172793,0.808431 -0.385702,1.595261 -1.243501,1.758799 l -3.104125,0.583179 C 73.22952,59.245056 72.399491,58.717416 72.226696,57.908985 L 71.61266,54.977656 c -0.169709,-0.808429 0.385701,-1.595261 1.243501,-1.758798 z m 0,0"
     id="path73"
     style="stroke-width:0.789916" /><path
     d="m 72.856161,53.218858 3.104124,-0.58318 c 0.857799,-0.163537 1.690914,0.364103 1.860623,1.172532 l 0.512211,2.443803 c 0.169709,0.808429 -0.385701,1.595261 -1.243501,1.755712 l -3.104124,0.586267 C 73.127695,58.754443 72.29458,58.22989 72.124871,57.42146 L 71.61266,54.977656 c -0.169709,-0.808429 0.385701,-1.595261 1.243501,-1.758798 z m 0,0"
     fill="#36343d"
     id="path74"
     style="stroke-width:0.789916" /><path
     d="m 41.182371,66.295675 3.104125,-0.58318 c 0.857799,-0.160453 1.687828,0.364101 1.860623,1.172531 l 0.614036,2.93133 c 0.169709,0.80843 -0.385701,1.598347 -1.243501,1.758797 l -3.104124,0.583181 c -0.857799,0.163537 -1.690914,-0.364102 -1.860623,-1.172532 l -0.614037,-2.93133 c -0.172793,-0.80843 0.385702,-1.59526 1.243501,-1.758797 z m 0,0"
     id="path75"
     style="stroke-width:0.789916" /><path
     d="m 41.182371,66.295675 3.104125,-0.58318 c 0.857799,-0.160453 1.687828,0.364101 1.860623,1.172531 l 0.512211,2.443804 c 0.169709,0.808429 -0.385701,1.595261 -1.243501,1.758797 l -3.104124,0.583181 c -0.8578,0.160451 -1.690914,-0.364102 -1.860623,-1.172532 L 39.93887,68.054472 c -0.172793,-0.80843 0.385702,-1.59526 1.243501,-1.758797 z m 0,0"
     fill="#36343d"
     id="path76"
     style="stroke-width:0.789916" /><path
     d="m 48.424299,64.931834 3.104125,-0.583179 c 0.857799,-0.163538 1.690913,0.364101 1.860622,1.172532 l 0.617122,2.93133 c 0.169709,0.80843 -0.388787,1.59526 -1.243501,1.758797 l -3.104124,0.583181 c -0.8578,0.163536 -1.690914,-0.364102 -1.860623,-1.172532 l -0.617122,-2.93133 c -0.169708,-0.80843 0.3857,-1.59526 1.243501,-1.758799 z m 0,0"
     id="path77"
     style="stroke-width:0.789916" /><path
     d="m 48.424299,64.931834 3.104125,-0.583179 c 0.857799,-0.163538 1.690913,0.364101 1.860622,1.172532 l 0.512211,2.443802 c 0.172794,0.808431 -0.385701,1.595261 -1.2435,1.755713 l -3.104124,0.586266 c -0.857801,0.160452 -1.68783,-0.364102 -1.860623,-1.172532 l -0.512212,-2.443803 c -0.169708,-0.80843 0.3857,-1.59526 1.243501,-1.758799 z m 0,0"
     fill="#36343d"
     id="path78"
     style="stroke-width:0.789916" /><path
     d="m 55.669312,63.567995 3.104124,-0.583181 c 0.854714,-0.163537 1.687828,0.361018 1.857537,1.172533 l 0.617122,2.931329 c 0.169709,0.80843 -0.385701,1.59526 -1.2435,1.758799 l -3.104124,0.583179 c -0.857801,0.160453 -1.690914,-0.364102 -1.860623,-1.172531 l -0.617123,-2.931331 c -0.169709,-0.811515 0.388788,-1.598345 1.246587,-1.758797 z m 0,0"
     id="path79"
     style="stroke-width:0.789916" /><path
     d="m 55.669312,63.567995 3.104124,-0.583181 c 0.854714,-0.163537 1.687828,0.361018 1.857537,1.172533 l 0.515298,2.440717 c 0.169708,0.811516 -0.385702,1.598347 -1.243502,1.758799 l -3.104124,0.586265 C 55.940846,69.10358 55.107731,68.579027 54.938023,67.76751 l -0.515298,-2.440718 c -0.169709,-0.811515 0.388788,-1.598345 1.246587,-1.758797 z m 0,0"
     fill="#36343d"
     id="path80"
     style="stroke-width:0.789916" /><path
     d="m 62.911239,62.204155 3.104124,-0.586266 c 0.857799,-0.160451 1.690914,0.364103 1.860623,1.175618 l 0.617122,2.931329 c 0.169709,0.808431 -0.388787,1.595261 -1.246586,1.755713 l -3.104124,0.586266 c -0.854714,0.160452 -1.687829,-0.364102 -1.857538,-1.172532 l -0.617121,-2.93133 c -0.169709,-0.811515 0.3857,-1.598346 1.2435,-1.758798 z m 0,0"
     id="path81"
     style="stroke-width:0.789916" /><path
     d="m 62.911239,62.204155 3.104124,-0.586266 c 0.857799,-0.160451 1.690914,0.364103 1.860623,1.175618 l 0.512212,2.440718 c 0.169708,0.811514 -0.385703,1.598346 -1.243502,1.758797 l -3.104124,0.586267 c -0.857799,0.160451 -1.690914,-0.364102 -1.860623,-1.175618 l -0.51221,-2.440718 c -0.169709,-0.811515 0.3857,-1.598346 1.2435,-1.758798 z m 0,0"
     fill="#36343d"
     id="path82"
     style="stroke-width:0.789916" /><path
     d="m 33.937359,67.662601 3.104124,-0.586267 c 0.857799,-0.160451 1.690914,0.364103 1.860622,1.172532 l 0.617122,2.931329 c 0.169709,0.811516 -0.385701,1.598347 -1.2435,1.758799 l -3.104125,0.586265 c -0.857799,0.160453 -1.690914,-0.364101 -1.860622,-1.175618 l -0.617122,-2.931329 c -0.169709,-0.808429 0.385701,-1.595261 1.243501,-1.755711 z m 0,0"
     id="path83"
     style="stroke-width:0.789916" /><path
     d="m 33.937359,67.662601 3.104124,-0.586267 c 0.857799,-0.160451 1.690914,0.364103 1.860622,1.172532 l 0.515297,2.443803 c 0.169709,0.80843 -0.388786,1.595261 -1.246586,1.758798 l -3.104124,0.583181 c -0.854715,0.163537 -1.687828,-0.364102 -1.860623,-1.172532 l -0.512211,-2.443804 c -0.169709,-0.808429 0.385701,-1.595261 1.243501,-1.755711 z m 0,0"
     fill="#36343d"
     id="path84"
     style="stroke-width:0.789916" /><path
     d="m 70.153166,60.840316 3.104125,-0.586267 c 0.857799,-0.160452 1.690914,0.364103 1.860623,1.172533 l 0.617121,2.931329 c 0.169709,0.811517 -0.3857,1.598347 -1.243501,1.758798 l -3.104124,0.586267 c -0.857799,0.160452 -1.690914,-0.364103 -1.860623,-1.175619 l -0.617121,-2.931329 c -0.169709,-0.80843 0.388787,-1.595261 1.2435,-1.755712 z m 0,0"
     id="path85"
     style="stroke-width:0.789916" /><path
     d="m 70.153166,60.840316 3.104125,-0.586267 c 0.857799,-0.160452 1.690914,0.364103 1.860623,1.172533 l 0.515296,2.443803 c 0.169708,0.80843 -0.388787,1.598346 -1.2435,1.758798 l -3.104124,0.583181 C 70.427785,66.3759 69.59467,65.84826 69.424963,65.039832 l -0.515297,-2.443804 c -0.169709,-0.80843 0.388787,-1.595261 1.2435,-1.755712 z m 0,0"
     fill="#36343d"
     id="path86"
     style="stroke-width:0.789916" /><path
     d="m 77.398179,59.476476 3.104124,-0.586266 c 0.857799,-0.160452 1.690915,0.364102 1.860623,1.172532 l 0.614037,2.93133 c 0.172794,0.811515 -0.385702,1.598345 -1.243501,1.758798 l -3.104124,0.586266 c -0.857799,0.160451 -1.68783,-0.364103 -1.860623,-1.175618 l -0.614037,-2.93133 c -0.169709,-0.80843 0.385702,-1.59526 1.243501,-1.755712 z m 0,0"
     id="path87"
     style="stroke-width:0.789916" /><path
     d="m 77.398179,59.476476 3.104124,-0.586266 c 0.857799,-0.160452 1.690915,0.364102 1.860623,1.172532 l 0.512212,2.443803 c 0.169708,0.80843 -0.385702,1.59526 -1.243502,1.758798 l -3.104123,0.58318 c -0.8578,0.163538 -1.690915,-0.364102 -1.860624,-1.172532 l -0.512211,-2.443803 c -0.169709,-0.80843 0.385702,-1.59526 1.243501,-1.755712 z m 0,0"
     fill="#36343d"
     id="path88"
     style="stroke-width:0.789916" /><path
     d="m 80.098088,51.855019 3.104125,-0.58318 c 0.857799,-0.163538 1.690914,0.364101 1.860622,1.172531 l 0.617122,2.93133 c 0.169709,0.80843 -0.385701,1.59526 -1.243501,1.758797 l -3.104124,0.583181 C 80.474533,57.87813 79.641418,57.353576 79.47171,56.545146 l -0.617122,-2.93133 c -0.169709,-0.80843 0.385701,-1.598346 1.2435,-1.758797 z m 0,0"
     id="path89"
     style="stroke-width:0.789916" /><path
     d="m 80.098088,51.855019 3.104125,-0.58318 c 0.857799,-0.163538 1.690914,0.364101 1.860622,1.172531 l 0.515297,2.443804 c 0.169709,0.808429 -0.388786,1.595261 -1.246586,1.755712 l -3.104124,0.586265 c -0.854715,0.160452 -1.687829,-0.364102 -1.857538,-1.172531 l -0.515296,-2.443804 c -0.169709,-0.80843 0.385701,-1.598346 1.2435,-1.758797 z m 0,0"
     fill="#36343d"
     id="path90"
     style="stroke-width:0.789916" /><path
     d="m 83.705166,53.755755 0.01852,-0.0031 c 0.8578,-0.163536 1.690914,0.364104 1.860623,1.172533 l 1.629203,7.738711 c 0.169707,0.811515 -0.388788,1.598346 -1.246587,1.758798 l -0.01852,0.0062 c -0.857799,0.160511 -1.690914,-0.364042 -1.860622,-1.175559 l -1.629203,-7.73871 c -0.169709,-0.811515 0.388787,-1.598345 1.246586,-1.758797 z m 0,0"
     id="path91"
     style="stroke-width:0.789916" /><path
     d="m 83.609513,53.305255 0.0216,-0.0031 c 0.857799,-0.160451 1.687828,0.364102 1.860623,1.172532 l 1.626117,7.741796 c 0.169708,0.80843 -0.385702,1.595261 -1.243502,1.755712 l -0.0216,0.0062 c -0.857803,0.160462 -1.690917,-0.36409 -1.860626,-1.175606 l -1.626117,-7.738711 c -0.169709,-0.80843 0.385701,-1.59526 1.243501,-1.758799 z m 0,0"
     fill="#36343d"
     id="path92"
     style="stroke-width:0.789916" /><path
     d="m 35.375253,74.500313 7.245013,-1.36384 c 0.857799,-0.160452 1.687828,0.364101 1.860622,1.172531 l 0.614038,2.931331 c 0.169708,0.811515 -0.385702,1.598345 -1.243501,1.758797 l -7.241928,1.363839 c -0.8578,0.163539 -1.690914,-0.364101 -1.860623,-1.172531 l -0.617122,-2.93133 c -0.169709,-0.808431 0.385701,-1.59526 1.243501,-1.758797 z m 0,0"
     id="path93"
     style="stroke-width:0.789916" /><path
     d="m 35.375253,74.500313 7.245013,-1.36384 c 0.854714,-0.160452 1.687828,0.364101 1.857538,1.172531 l 0.515296,2.443804 c 0.169709,0.80843 -0.385701,1.59526 -1.243501,1.758797 l -7.245013,1.363841 c -0.857799,0.160451 -1.687828,-0.364102 -1.860622,-1.172532 L 34.131752,76.25911 c -0.169709,-0.808431 0.385701,-1.59526 1.243501,-1.758797 z m 0,0"
     fill="#36343d"
     id="path94"
     style="stroke-width:0.789916" /><path
     d="m 46.75807,72.355813 3.104123,-0.583181 c 0.8578,-0.16045 1.690915,0.364102 1.860623,1.172533 l 0.617122,2.931329 c 0.169709,0.811516 -0.388786,1.598346 -1.243501,1.758799 l -3.107208,0.58318 C 47.134514,78.38201 46.301399,77.857457 46.13169,77.045942 L 45.514568,74.114611 C 45.34486,73.306182 45.90027,72.51935 46.75807,72.355813 Z m 0,0"
     id="path95"
     style="stroke-width:0.789916" /><path
     d="m 46.75807,72.355813 3.104123,-0.583181 c 0.8578,-0.16045 1.690915,0.364102 1.860623,1.172533 l 0.512211,2.443804 c 0.172795,0.808429 -0.3857,1.59526 -1.2435,1.758797 l -3.104124,0.58318 C 47.029604,77.891397 46.196489,77.366845 46.02678,76.558414 L 45.514568,74.114611 C 45.34486,73.306182 45.90027,72.51935 46.75807,72.355813 Z m 0,0"
     fill="#36343d"
     id="path96"
     style="stroke-width:0.789916" /><path
     d="m 53.999997,70.991974 3.10721,-0.583181 c 0.854713,-0.163537 1.687828,0.364102 1.857536,1.172532 l 0.617122,2.931329 c 0.169709,0.808431 -0.3857,1.595262 -1.2435,1.758798 l -3.104124,0.583181 c -0.8578,0.163537 -1.690914,-0.364102 -1.860623,-1.172532 l -0.617123,-2.931329 c -0.169709,-0.808431 0.388787,-1.595262 1.243502,-1.758798 z m 0,0"
     id="path97"
     style="stroke-width:0.789916" /><path
     d="m 53.999997,70.991974 3.10721,-0.583181 c 0.854713,-0.163537 1.687828,0.364102 1.857536,1.172532 l 0.515298,2.443804 c 0.169709,0.808429 -0.388788,1.595259 -1.243501,1.755711 l -3.104124,0.586267 c -0.8578,0.160451 -1.690915,-0.364103 -1.860623,-1.172532 l -0.515298,-2.443803 c -0.169709,-0.808431 0.388787,-1.595262 1.243502,-1.758798 z m 0,0"
     fill="#36343d"
     id="path98"
     style="stroke-width:0.789916" /><path
     d="m 61.24501,69.628133 17.591063,-3.313945 c 0.8578,-0.160451 1.690915,0.364103 1.860624,1.172532 l 0.614036,2.934415 c 0.172793,0.80843 -0.385701,1.595261 -1.243501,1.755713 l -17.591065,3.313946 c -0.857799,0.160451 -1.687828,-0.364102 -1.860622,-1.172532 l -0.614036,-2.93133 c -0.169709,-0.80843 0.3857,-1.598346 1.243501,-1.758799 z m 0,0"
     id="path99"
     style="stroke-width:0.789916" /><path
     d="m 61.24501,69.628133 17.591063,-3.313945 c 0.8578,-0.160451 1.690915,0.364103 1.860624,1.172532 l 0.512211,2.443803 c 0.169709,0.811516 -0.385702,1.598347 -1.243501,1.758798 l -17.591065,3.313945 c -0.857799,0.160452 -1.690914,-0.364101 -1.860622,-1.172532 l -0.512211,-2.443802 c -0.169709,-0.80843 0.3857,-1.598346 1.243501,-1.758799 z m 0,0"
     fill="#36343d"
     id="path100"
     style="stroke-width:0.789916" /><path
     d="m 82.973877,65.536615 3.104124,-0.586266 c 0.8578,-0.160451 1.690915,0.364101 1.860624,1.172532 l 0.617121,2.931329 c 0.169708,0.811516 -0.385702,1.598347 -1.243501,1.758798 l -3.104124,0.586266 c -0.857799,0.160451 -1.690915,-0.364101 -1.860623,-1.175618 l -0.617122,-2.931329 c -0.169708,-0.80843 0.385702,-1.595261 1.243501,-1.755712 z m 0,0"
     id="path101"
     style="stroke-width:0.789916" /><path
     d="m 82.973877,65.536615 3.104124,-0.586266 c 0.8578,-0.160451 1.690915,0.364101 1.860624,1.172532 l 0.515296,2.443803 c 0.169708,0.808429 -0.388787,1.595261 -1.246586,1.758798 l -3.104124,0.58318 c -0.854715,0.163538 -1.68783,-0.364101 -1.860623,-1.172531 l -0.512212,-2.443804 c -0.169708,-0.80843 0.385702,-1.595261 1.243501,-1.755712 z m 0,0"
     fill="#36343d"
     id="path102"
     style="stroke-width:0.789916" /><path
     d="m 71.89345,36.047438 c 0.573924,-0.107998 1.132419,0.243762 1.246587,0.78683 0.114174,0.539981 -0.25919,1.067621 -0.833115,1.175617 -0.573923,0.107998 -1.132419,-0.243763 -1.246586,-0.783744 -0.114163,-0.543067 0.259191,-1.070707 0.833114,-1.178703 z m 0,0"
     fill="#ff7800"
     id="path103"
     style="stroke-width:0.789916" /><path
     d="m 75.031516,35.454999 c 0.577009,-0.107997 1.13242,0.243764 1.246587,0.786832 0.114162,0.543067 -0.259191,1.070706 -0.833115,1.178702 -0.573924,0.107998 -1.132419,-0.243763 -1.246587,-0.786829 -0.114162,-0.543067 0.259192,-1.070707 0.833115,-1.178705 z m 0,0"
     fill="#f6d32d"
     id="path104"
     style="stroke-width:0.789916" /><path
     d="m 68.953678,75.875952 c -1.925421,-0.06788 -3.823072,0.472099 -5.418332,1.548976 l -17.652776,11.8796 c -1.629202,1.101563 -2.860361,2.69991 -3.505253,4.554361 h 29.399694 l 1.940849,-1.305213 c 4.177916,-2.814077 5.285651,-8.479257 2.471573,-12.657174 -1.629201,-2.422203 -4.319854,-3.915639 -7.235755,-4.02055 z m 0,0"
     fill="url(#d)"
     id="path106"
     style="fill:url(#d);stroke-width:0.789916" /><path
     d="m 63.535346,77.424928 c 4.177916,-2.814076 9.843096,-1.706341 12.657173,2.471574 2.810992,4.177917 1.703257,9.846183 -2.474659,12.657174 -4.177916,2.81099 -9.843097,1.706343 -12.657174,-2.471574 -2.81099,-4.177917 -1.703256,-9.846183 2.47466,-12.657174 z m 0,0"
     fill="url(#e)"
     id="path107"
     style="fill:url(#e);stroke-width:0.789916" /><path
     d="m 69.851591,75.919151 c 3.131893,-2.107472 7.383865,-1.277443 9.491335,1.857538 2.110559,3.131893 1.28053,7.380779 -1.854451,9.491337 -3.131894,2.110557 -7.383864,1.277442 -9.491337,-1.854452 -2.110557,-3.134981 -1.280527,-7.383867 1.854453,-9.494423 z m 0,0"
     fill="url(#f)"
     id="path108"
     style="fill:url(#f);stroke-width:0.789916" /><path
     d="m 71.743069,74.647879 c 3.131894,-2.110557 7.38078,-1.280528 9.491337,1.854452 2.110558,3.131894 1.277443,7.383865 -1.854451,9.491338 -3.13498,2.110557 -7.383866,1.280528 -9.494423,-1.854451 -2.107471,-3.131896 -1.277442,-7.383867 1.857537,-9.491339 z m 0,0"
     fill="#a51d2d"
     id="path109"
     style="stroke-width:0.789916" /><path
     d="m 93.277546,63.141638 7.140094,-2.416032 c 0.20674,-0.07096 0.43199,0.0062 0.55233,0.185136 l 2.13833,3.175093 c 0.12033,0.178966 0.10491,0.416558 -0.037,0.580095 l -4.924639,5.708379 c -0.117255,0.135767 -0.29313,0.209822 -0.475182,0.200564 -0.178964,-0.01234 -0.345589,-0.104915 -0.447417,-0.256105 l -4.24271,-6.303902 c -0.101833,-0.151194 -0.126514,-0.339417 -0.06786,-0.509126 0.05861,-0.172793 0.19131,-0.30856 0.364103,-0.364102 z m 0,0"
     fill="#c0bfbc"
     id="path110"
     style="stroke-width:0.789916" /><path
     d="M 93.407139,64.644331 74.492348,77.375559 c -1.39161,0.938025 -1.758798,2.826418 -0.823858,4.218029 0.938025,1.394696 2.826419,1.761884 4.221114,0.823859 l 18.91171,-12.728143 c 1.391603,-0.938025 1.761876,-2.82642 0.823851,-4.221115 -0.938026,-1.39161 -2.826415,-1.761884 -4.218026,-0.823858 z m 0,0"
     fill="url(#g)"
     id="path111"
     style="fill:url(#g);stroke-width:0.789916" /><path
     d="m 92.654254,63.582881 6.50137,-2.01799 c 0.20674,-0.0648 0.43199,0.01542 0.55233,0.194394 l 2.138326,3.175093 c 0.12034,0.182051 0.11108,0.419643 -0.0278,0.586267 l -4.316768,5.26405 c -0.114162,0.138852 -0.28696,0.215993 -0.465923,0.206736 -0.175883,-0.0093 -0.3425,-0.09874 -0.441239,-0.246849 l -4.242732,-6.306988 c -0.09874,-0.148108 -0.123424,-0.333245 -0.06478,-0.502954 0.05861,-0.166622 0.194399,-0.299304 0.367193,-0.351759 z m 0,0"
     fill="#deddda"
     id="path112"
     style="stroke-width:0.789916" /><g
     fill="#0e315b"
     stroke="#0e315b"
     stroke-width="0.2"
     id="g29"
     transform="matrix(0.64360331,0,0,0.64360331,50.864965,20.659172)"
     style="fill:#383838;fill-opacity:1;stroke:#383838;stroke-opacity:1"><path
       d="m 61.0625,112.25781 c 1.136719,-0.0312 2.109375,-0.82422 2.371094,-1.92968 l 4.34375,-16.332036 c 0.140625,-0.535157 0.02734,-1.101563 -0.308594,-1.542969 -0.339843,-0.4375 -0.859375,-0.691406 -1.410156,-0.691406 -1.066406,0.02734 -1.972656,0.777343 -2.203125,1.8125 l -4.25,16.808591 c -0.113281,0.44922 -0.01563,0.92578 0.269531,1.29297 0.285157,0.36719 0.722657,0.58203 1.1875,0.58203 z m 0,0"
       id="path27"
       style="fill:#383838;fill-opacity:1;stroke:#383838;stroke-opacity:1" /><path
       d="m 71.242188,107.73828 6.21875,-3.125 c 0.972656,-0.48828 1.589844,-1.48437 1.589844,-2.57422 0,-1.0039 -0.554688,-1.92578 -1.441407,-2.398435 l -6.277343,-3.339844 c -0.578125,-0.308594 -1.277344,-0.289062 -1.839844,0.05078 -0.5625,0.335938 -0.90625,0.945313 -0.90625,1.601563 v 0.0078 c 0,0.851563 0.480469,1.628907 1.246094,2.007813 l 4.5625,2.261723 -4.738282,2.19531 c -0.652343,0.30078 -1.070312,0.95313 -1.070312,1.67578 0,0.63282 0.328125,1.22657 0.871094,1.5586 0.539062,0.33593 1.214843,0.36328 1.785156,0.0781 z m 0,0"
       id="path28"
       style="fill:#383838;fill-opacity:1;stroke:#383838;stroke-opacity:1" /><path
       d="m 56.152344,107.73828 -6.21875,-3.125 c -0.972656,-0.48828 -1.585937,-1.48437 -1.585937,-2.57422 0,-1.0039 0.550781,-1.92578 1.4375,-2.398435 L 56.0625,96.300781 c 0.578125,-0.308594 1.277344,-0.289062 1.839844,0.05078 0.5625,0.335938 0.90625,0.945313 0.90625,1.601563 v 0.0078 c 0,0.851563 -0.480469,1.628907 -1.246094,2.007813 l -4.558593,2.261723 4.734375,2.19531 c 0.652343,0.30078 1.070312,0.95313 1.070312,1.67578 0,0.63282 -0.328125,1.22657 -0.871094,1.5586 -0.539062,0.33593 -1.214843,0.36328 -1.785156,0.0781 z m 0,0"
       id="path29"
       style="fill:#383838;fill-opacity:1;stroke:#383838;stroke-opacity:1" /></g></svg>
