<svg width="64" height="64" version="1.1" viewBox="0 0 64 64" xmlns="http://www.w3.org/2000/svg" xmlns:xlink="http://www.w3.org/1999/xlink">
 <circle cx="32" cy="32" r="27" fill="#383838" stroke-linecap="round" stroke-linejoin="round" stroke-width="1.0077"/>
 <g transform="matrix(.51125 0 0 .51125 -.10197 -1.0631)">
  <path d="m28.035 33.977h69.513c3.4898 0 6.3193 2.8295 6.3193 6.3193v47.395c0 3.4898-2.8295 6.3193-6.3193 6.3193h-69.513c-3.4898 0-6.3193-2.8295-6.3193-6.3193v-47.395c0-3.4898 2.8295-6.3193 6.3193-6.3193z" fill="#1c71d8" stroke-width=".78992"/>
  <path d="m28.911 41.182 49.666-9.3556c2.2864-0.43199 4.4896 0.88866 4.9246 2.9498l7.0568 33.578c0.43507 2.0612-1.0676 4.0792-3.3541 4.5112l-49.669 9.3556c-2.2834 0.43198-4.4896-0.89174-4.9215-2.9498l-7.0599-33.578c-0.43198-2.0612 1.0707-4.0823 3.3571-4.5112z" fill="#9a9996" stroke-width=".78992"/>
  <path d="m30.303 50.062 2.9807-0.56158c0.89174-0.16971 1.7063 0.13268 1.8205 0.67266 0.11108 0.53998-0.51838 1.1139-1.4101 1.2805l-2.9776 0.56158c-0.89483 0.16662-1.7094-0.13268-1.8205-0.67266-0.11417-0.53998 0.5153-1.1139 1.407-1.2805z" stroke-width=".78992"/>
  <path d="m30.034 49.096 3.1041-0.58627c0.8578-0.16045 1.6693 0.25611 1.8113 0.92877 0.14194 0.67575-0.43816 1.3546-1.296 1.515l-3.1041 0.58318c-0.8578 0.16354-1.6662-0.25302-1.8082-0.92877-0.14194-0.67266 0.43816-1.3515 1.2929-1.5119z" fill="#36343d" stroke-width=".78992"/>
  <path d="m37.279 47.733 3.1041-0.58626c0.8578-0.16045 1.6662 0.2561 1.8082 0.92877 0.14194 0.67575-0.43816 1.3515-1.296 1.515l-3.1041 0.58318c-0.8578 0.16354-1.6662-0.25302-1.8082-0.92877-0.14194-0.67266 0.43816-1.3515 1.296-1.5119z" fill="#36343d" stroke-width=".78992"/>
  <path d="m44.521 46.366 3.1041-0.58318c0.8578-0.16045 1.6693 0.25302 1.8113 0.92877 0.14194 0.67575-0.43816 1.3515-1.296 1.515l-3.1041 0.58318c-0.8578 0.16045-1.6693-0.25302-1.8113-0.92877-0.13885-0.67575 0.43816-1.3515 1.296-1.515z" fill="#36343d" stroke-width=".78992"/>
  <path d="m51.766 45.002 3.1041-0.58318c0.8578-0.16354 1.6662 0.25302 1.8082 0.92877 0.14194 0.67266-0.43816 1.3515-1.296 1.5119l-3.1041 0.58627c-0.8578 0.16045-1.6662-0.2561-1.8082-0.92877-0.14194-0.67575 0.43816-1.3515 1.296-1.515z" fill="#36343d" stroke-width=".78992"/>
  <path d="m59.008 43.638 3.1041-0.58318c0.8578-0.16354 1.6693 0.25302 1.8082 0.92877 0.14194 0.67266-0.43816 1.3515-1.2929 1.512l-3.1041 0.58626c-0.8578 0.16045-1.6693-0.25611-1.8113-0.92877-0.14194-0.67575 0.43816-1.3546 1.296-1.515z" fill="#36343d" stroke-width=".78992"/>
  <path d="m70.391 41.494 3.1041-0.58318c0.8578-0.16354 1.6662 0.25302 1.8082 0.92877 0.14194 0.67266-0.43816 1.3515-1.296 1.5119l-3.1041 0.58626c-0.85472 0.16045-1.6662-0.25611-1.8082-0.92877-0.14194-0.67575 0.43816-1.3515 1.296-1.515z" fill="#36343d" stroke-width=".78992"/>
  <path d="m77.633 40.13 3.1072-0.58318c0.85472-0.16354 1.6662 0.25302 1.8082 0.92877 0.14194 0.67266-0.43816 1.3515-1.296 1.5119l-3.1041 0.58627c-0.8578 0.16045-1.6662-0.25611-1.8082-0.92877-0.14194-0.67575 0.43816-1.3546 1.2929-1.515z" fill="#36343d" stroke-width=".78992"/>
  <path d="m38.3 52.589 3.1041-0.58627c0.8578-0.16045 1.6909 0.3641 1.8606 1.1725l0.51221 2.4438c0.16971 0.80843-0.3857 1.5983-1.2435 1.7588l-3.1041 0.58318c-0.8578 0.16354-1.6909-0.3641-1.8606-1.1725l-0.51221-2.4438c-0.17279-0.80843 0.3857-1.5953 1.2435-1.7557z" fill="#36343d" stroke-width=".78992"/>
  <path d="m45.542 51.222 3.1041-0.58318c0.8578-0.16045 1.6909 0.3641 1.8606 1.1725l0.5153 2.4438c0.16971 0.80843-0.38879 1.5953-1.2466 1.7588l-3.1041 0.58318c-0.85471 0.16354-1.6878-0.3641-1.8606-1.1725l-0.51221-2.4438c-0.16971-0.80843 0.3857-1.5953 1.2435-1.7588z" fill="#36343d" stroke-width=".78992"/>
  <path d="m52.787 49.859 3.1041-0.58318c0.85471-0.16354 1.6878 0.3641 1.8606 1.1725l0.51221 2.4438c0.16971 0.80843-0.3857 1.5953-1.2435 1.7588l-3.1041 0.58318c-0.8578 0.16045-1.6909-0.3641-1.8606-1.1725l-0.5153-2.4438c-0.16971-0.80843 0.38879-1.5953 1.2466-1.7588z" fill="#36343d" stroke-width=".78992"/>
  <path d="m60.029 48.495 3.1041-0.58318c0.8578-0.16354 1.6909 0.3641 1.8606 1.1725l0.51221 2.4438c0.17279 0.80843-0.3857 1.5953-1.2435 1.7557l-3.1041 0.58627c-0.8578 0.16045-1.6909-0.3641-1.8606-1.1725l-0.51221-2.4438c-0.16971-0.80843 0.3857-1.5983 1.2435-1.7588z" fill="#36343d" stroke-width=".78992"/>
  <path d="m31.055 53.953 3.1041-0.58627c0.8578-0.16045 1.6909 0.3641 1.8606 1.1756l0.5153 2.4407c0.16971 0.81152-0.38879 1.5983-1.2466 1.7588l-3.1041 0.58627c-0.85471 0.16045-1.6878-0.3641-1.8575-1.1756l-0.5153-2.4407c-0.16971-0.81151 0.38879-1.5983 1.2435-1.7588z" fill="#36343d" stroke-width=".78992"/>
  <path d="m67.274 47.131 3.1041-0.58627c0.85471-0.16045 1.6878 0.3641 1.8575 1.1756l0.5153 2.4407c0.16971 0.81152-0.3857 1.5983-1.2435 1.7588l-3.1041 0.58627c-0.8578 0.16045-1.6909-0.3641-1.8606-1.1756l-0.5153-2.4407c-0.16971-0.81152 0.38879-1.5983 1.2466-1.7588z" fill="#36343d" stroke-width=".78992"/>
  <path d="m74.516 45.767 7.2419-1.3638c0.8578-0.16354 1.6909 0.3641 1.8606 1.1725l0.5153 2.4438c0.16971 0.80843-0.38879 1.5953-1.2435 1.7557l-7.245 1.3638c-0.8578 0.16354-1.6909-0.36102-1.8606-1.1725l-0.51221-2.4407c-0.16971-0.81152 0.3857-1.5983 1.2435-1.7588z" fill="#36343d" stroke-width=".78992"/>
  <path d="m32.499 60.822 7.245-1.3638c0.85472-0.16354 1.6878 0.3641 1.8606 1.1725l0.51221 2.4438c0.16971 0.80843-0.3857 1.5953-1.2435 1.7557l-7.245 1.3669c-0.85472 0.16045-1.6878-0.3641-1.8606-1.1756l-0.51221-2.4407c-0.16971-0.81152 0.3857-1.5983 1.2435-1.7588z" fill="#36343d" stroke-width=".78992"/>
  <path d="m43.882 58.677 3.1041-0.58627c0.8578-0.16045 1.6909 0.3641 1.8606 1.1756l0.51221 2.4407c0.17279 0.81152-0.3857 1.5983-1.2435 1.7588l-3.1041 0.58627c-0.8578 0.16045-1.6909-0.3641-1.8606-1.1756l-0.51221-2.4407c-0.16971-0.81152 0.3857-1.5983 1.2435-1.7588z" fill="#36343d" stroke-width=".78992"/>
  <path d="m51.127 57.313 3.1041-0.58627c0.85471-0.16045 1.6878 0.3641 1.8575 1.1756l0.5153 2.4407c0.16971 0.81152-0.3857 1.5983-1.2435 1.7588l-3.1041 0.58626c-0.8578 0.16045-1.6909-0.3641-1.8606-1.1756l-0.5153-2.4407c-0.16971-0.81152 0.38879-1.5983 1.2466-1.7588z" fill="#36343d" stroke-width=".78992"/>
  <path d="m58.369 55.95 3.1041-0.58626c0.8578-0.16045 1.6909 0.3641 1.8606 1.1725l0.51221 2.4438c0.16971 0.80843-0.3857 1.5983-1.2435 1.7588l-3.1041 0.58318c-0.8578 0.16354-1.6909-0.3641-1.8606-1.1725l-0.51221-2.4438c-0.16971-0.80843 0.3857-1.5953 1.2435-1.7557z" fill="#36343d" stroke-width=".78992"/>
  <path d="m65.611 54.583 3.1041-0.58318c0.8578-0.16045 1.6909 0.3641 1.8606 1.1725l0.5153 2.4438c0.16971 0.80843-0.38879 1.5953-1.2435 1.7588l-3.1041 0.58318c-0.8578 0.16045-1.6909-0.3641-1.8606-1.1725l-0.5153-2.4438c-0.16971-0.80843 0.38879-1.5953 1.2435-1.7588z" fill="#36343d" stroke-width=".78992"/>
  <path d="m72.856 53.219 3.1041-0.58318c0.8578-0.16354 1.6909 0.3641 1.8606 1.1725l0.51221 2.4438c0.16971 0.80843-0.3857 1.5953-1.2435 1.7557l-3.1041 0.58627c-0.8578 0.16045-1.6909-0.3641-1.8606-1.1725l-0.51221-2.4438c-0.16971-0.80843 0.3857-1.5953 1.2435-1.7588z" fill="#36343d" stroke-width=".78992"/>
  <path d="m41.182 66.296 3.1041-0.58318c0.8578-0.16045 1.6878 0.3641 1.8606 1.1725l0.51221 2.4438c0.16971 0.80843-0.3857 1.5953-1.2435 1.7588l-3.1041 0.58318c-0.8578 0.16045-1.6909-0.3641-1.8606-1.1725l-0.51221-2.4438c-0.17279-0.80843 0.3857-1.5953 1.2435-1.7588z" fill="#36343d" stroke-width=".78992"/>
  <path d="m48.424 64.932 3.1041-0.58318c0.8578-0.16354 1.6909 0.3641 1.8606 1.1725l0.51221 2.4438c0.17279 0.80843-0.3857 1.5953-1.2435 1.7557l-3.1041 0.58627c-0.8578 0.16045-1.6878-0.3641-1.8606-1.1725l-0.51221-2.4438c-0.16971-0.80843 0.3857-1.5953 1.2435-1.7588z" fill="#36343d" stroke-width=".78992"/>
  <path d="m55.669 63.568 3.1041-0.58318c0.85471-0.16354 1.6878 0.36102 1.8575 1.1725l0.5153 2.4407c0.16971 0.81152-0.3857 1.5983-1.2435 1.7588l-3.1041 0.58626c-0.8578 0.16045-1.6909-0.3641-1.8606-1.1756l-0.5153-2.4407c-0.16971-0.81152 0.38879-1.5983 1.2466-1.7588z" fill="#36343d" stroke-width=".78992"/>
  <path d="m62.911 62.204 3.1041-0.58627c0.8578-0.16045 1.6909 0.3641 1.8606 1.1756l0.51221 2.4407c0.16971 0.81151-0.3857 1.5983-1.2435 1.7588l-3.1041 0.58627c-0.8578 0.16045-1.6909-0.3641-1.8606-1.1756l-0.51221-2.4407c-0.16971-0.81152 0.3857-1.5983 1.2435-1.7588z" fill="#36343d" stroke-width=".78992"/>
  <path d="m33.937 67.663 3.1041-0.58627c0.8578-0.16045 1.6909 0.3641 1.8606 1.1725l0.5153 2.4438c0.16971 0.80843-0.38879 1.5953-1.2466 1.7588l-3.1041 0.58318c-0.85472 0.16354-1.6878-0.3641-1.8606-1.1725l-0.51221-2.4438c-0.16971-0.80843 0.3857-1.5953 1.2435-1.7557z" fill="#36343d" stroke-width=".78992"/>
  <path d="m70.153 60.84 3.1041-0.58627c0.8578-0.16045 1.6909 0.3641 1.8606 1.1725l0.5153 2.4438c0.16971 0.80843-0.38879 1.5983-1.2435 1.7588l-3.1041 0.58318c-0.8578 0.16354-1.6909-0.3641-1.8606-1.1725l-0.5153-2.4438c-0.16971-0.80843 0.38879-1.5953 1.2435-1.7557z" fill="#36343d" stroke-width=".78992"/>
  <path d="m77.398 59.476 3.1041-0.58627c0.8578-0.16045 1.6909 0.3641 1.8606 1.1725l0.51221 2.4438c0.16971 0.80843-0.3857 1.5953-1.2435 1.7588l-3.1041 0.58318c-0.8578 0.16354-1.6909-0.3641-1.8606-1.1725l-0.51221-2.4438c-0.16971-0.80843 0.3857-1.5953 1.2435-1.7557z" fill="#36343d" stroke-width=".78992"/>
  <path d="m80.098 51.855 3.1041-0.58318c0.8578-0.16354 1.6909 0.3641 1.8606 1.1725l0.5153 2.4438c0.16971 0.80843-0.38879 1.5953-1.2466 1.7557l-3.1041 0.58626c-0.85472 0.16045-1.6878-0.3641-1.8575-1.1725l-0.5153-2.4438c-0.16971-0.80843 0.3857-1.5983 1.2435-1.7588z" fill="#36343d" stroke-width=".78992"/>
  <path d="m83.61 53.305 0.0216-0.0031c0.8578-0.16045 1.6878 0.3641 1.8606 1.1725l1.6261 7.7418c0.16971 0.80843-0.3857 1.5953-1.2435 1.7557l-0.0216 0.0062c-0.8578 0.16046-1.6909-0.36409-1.8606-1.1756l-1.6261-7.7387c-0.16971-0.80843 0.3857-1.5953 1.2435-1.7588z" fill="#36343d" stroke-width=".78992"/>
  <path d="m35.375 74.5 7.245-1.3638c0.85471-0.16045 1.6878 0.3641 1.8575 1.1725l0.5153 2.4438c0.16971 0.80843-0.3857 1.5953-1.2435 1.7588l-7.245 1.3638c-0.8578 0.16045-1.6878-0.3641-1.8606-1.1725l-0.51221-2.4438c-0.16971-0.80843 0.3857-1.5953 1.2435-1.7588z" fill="#36343d" stroke-width=".78992"/>
  <path d="m46.758 72.356 3.1041-0.58318c0.8578-0.16045 1.6909 0.3641 1.8606 1.1725l0.51221 2.4438c0.1728 0.80843-0.3857 1.5953-1.2435 1.7588l-3.1041 0.58318c-0.8578 0.16045-1.6909-0.3641-1.8606-1.1725l-0.51221-2.4438c-0.16971-0.80843 0.3857-1.5953 1.2435-1.7588z" fill="#36343d" stroke-width=".78992"/>
  <path d="m54 70.992 3.1072-0.58318c0.85471-0.16354 1.6878 0.3641 1.8575 1.1725l0.5153 2.4438c0.16971 0.80843-0.38879 1.5953-1.2435 1.7557l-3.1041 0.58627c-0.8578 0.16045-1.6909-0.3641-1.8606-1.1725l-0.5153-2.4438c-0.16971-0.80843 0.38879-1.5953 1.2435-1.7588z" fill="#36343d" stroke-width=".78992"/>
  <path d="m61.245 69.628 17.591-3.3139c0.8578-0.16045 1.6909 0.3641 1.8606 1.1725l0.51221 2.4438c0.16971 0.81152-0.3857 1.5983-1.2435 1.7588l-17.591 3.3139c-0.8578 0.16045-1.6909-0.3641-1.8606-1.1725l-0.51221-2.4438c-0.16971-0.80843 0.3857-1.5983 1.2435-1.7588z" fill="#36343d" stroke-width=".78992"/>
  <path d="m82.974 65.537 3.1041-0.58627c0.8578-0.16045 1.6909 0.3641 1.8606 1.1725l0.5153 2.4438c0.16971 0.80843-0.38879 1.5953-1.2466 1.7588l-3.1041 0.58318c-0.85472 0.16354-1.6878-0.3641-1.8606-1.1725l-0.51221-2.4438c-0.16971-0.80843 0.3857-1.5953 1.2435-1.7557z" fill="#36343d" stroke-width=".78992"/>
  <path d="m71.893 36.047c0.57392-0.108 1.1324 0.24376 1.2466 0.78683 0.11417 0.53998-0.25919 1.0676-0.83312 1.1756-0.57392 0.108-1.1324-0.24376-1.2466-0.78374-0.11416-0.54307 0.25919-1.0707 0.83311-1.1787z" fill="#ff7800" stroke-width=".78992"/>
  <path d="m75.032 35.455c0.57701-0.108 1.1324 0.24376 1.2466 0.78683 0.11416 0.54307-0.25919 1.0707-0.83312 1.1787-0.57392 0.108-1.1324-0.24376-1.2466-0.78683-0.11416-0.54307 0.25919-1.0707 0.83312-1.1787z" fill="#f6d32d" stroke-width=".78992"/>
  <path d="m68.954 76.028c-1.9254-0.06788-3.8231 0.4721-5.4183 1.549l-17.653 11.88c-1.6292 1.1016-2.8604 2.6999-3.5053 4.5544h29.4l1.9408-1.3052c4.1779-2.8141 5.2857-8.4793 2.4716-12.657-1.6292-2.4222-4.3199-3.9156-7.2358-4.0206z" fill="#e82931" stroke-width=".78992"/>
  <path d="m69.852 75.919c3.1319-2.1075 7.3839-1.2774 9.4913 1.8575 2.1106 3.1319 1.2805 7.3808-1.8545 9.4913-3.1319 2.1106-7.3839 1.2774-9.4913-1.8545-2.1106-3.135-1.2805-7.3839 1.8545-9.4944z" fill="#c61f2b" stroke-width=".78992"/>
  <path d="m71.743 74.648c3.1319-2.1106 7.3808-1.2805 9.4913 1.8545 2.1106 3.1319 1.2774 7.3839-1.8545 9.4913-3.135 2.1106-7.3839 1.2805-9.4944-1.8545-2.1075-3.1319-1.2774-7.3839 1.8575-9.4913z" fill="#a51d2d" stroke-width=".78992"/>
  <path d="m93.407 64.644-18.915 12.731c-1.3916 0.93802-1.7588 2.8264-0.82386 4.218 0.93802 1.3947 2.8264 1.7619 4.2211 0.82386l18.912-12.728c1.3916-0.93802 1.7619-2.8264 0.82385-4.2211-0.93803-1.3916-2.8264-1.7619-4.218-0.82386z" fill="#eaeae9" stroke-width=".78992"/>
  <path d="m92.654 63.583 6.5014-2.018c0.20674-0.0648 0.43199 0.01542 0.55233 0.19439l2.1383 3.1751c0.12034 0.18205 0.11108 0.41964-0.0278 0.58627l-4.3168 5.264c-0.11416 0.13885-0.28696 0.21599-0.46592 0.20674-0.17588-0.0093-0.3425-0.09874-0.44124-0.24685l-4.2427-6.307c-0.09874-0.14811-0.12342-0.33324-0.06478-0.50295 0.05861-0.16662 0.1944-0.2993 0.36719-0.35176z" fill="#deddda" stroke-width=".78992"/>
  <g transform="matrix(.6436 0 0 .6436 50.865 20.659)" fill="#383838" stroke="#383838" stroke-width=".2">
   <path d="m61.062 112.26c1.1367-0.0312 2.1094-0.82422 2.3711-1.9297l4.3438-16.332c0.14062-0.53516 0.02734-1.1016-0.30859-1.543-0.33984-0.4375-0.85938-0.69141-1.4102-0.69141-1.0664 0.02734-1.9727 0.77734-2.2031 1.8125l-4.25 16.809c-0.11328 0.44922-0.01563 0.92578 0.26953 1.293 0.28516 0.36719 0.72266 0.58203 1.1875 0.58203z"/>
   <path d="m71.242 107.74 6.2188-3.125c0.97266-0.48828 1.5898-1.4844 1.5898-2.5742 0-1.0039-0.55469-1.9258-1.4414-2.3984l-6.2773-3.3398c-0.57812-0.30859-1.2773-0.28906-1.8398 0.05078-0.5625 0.33594-0.90625 0.94531-0.90625 1.6016v0.0078c0 0.85156 0.48047 1.6289 1.2461 2.0078l4.5625 2.2617-4.7383 2.1953c-0.65234 0.30078-1.0703 0.95313-1.0703 1.6758 0 0.63282 0.32812 1.2266 0.87109 1.5586 0.53906 0.33593 1.2148 0.36328 1.7852 0.0781z"/>
   <path d="m56.152 107.74-6.2188-3.125c-0.97266-0.48828-1.5859-1.4844-1.5859-2.5742 0-1.0039 0.55078-1.9258 1.4375-2.3984l6.2773-3.3398c0.57812-0.30859 1.2773-0.28906 1.8398 0.05078 0.5625 0.33594 0.90625 0.94531 0.90625 1.6016v0.0078c0 0.85156-0.48047 1.6289-1.2461 2.0078l-4.5586 2.2617 4.7344 2.1953c0.65234 0.30078 1.0703 0.95313 1.0703 1.6758 0 0.63282-0.32812 1.2266-0.87109 1.5586-0.53906 0.33593-1.2148 0.36328-1.7852 0.0781z"/>
  </g>
 </g>
</svg>
