<?xml version="1.0" encoding="UTF-8" standalone="no"?>
<svg
   width="64"
   height="64"
   version="1.1"
   viewBox="0 0 16.933 16.933"
   id="svg8"
   sodipodi:docname="medisafe.svg"
   inkscape:version="1.1.1 (3bf5ae0d25, 2021-09-20)"
   xmlns:inkscape="http://www.inkscape.org/namespaces/inkscape"
   xmlns:sodipodi="http://sodipodi.sourceforge.net/DTD/sodipodi-0.dtd"
   xmlns="http://www.w3.org/2000/svg"
   xmlns:svg="http://www.w3.org/2000/svg">
  <defs
     id="defs12" />
  <sodipodi:namedview
     id="namedview10"
     pagecolor="#ffffff"
     bordercolor="#666666"
     borderopacity="1.0"
     inkscape:pageshadow="2"
     inkscape:pageopacity="0.0"
     inkscape:pagecheckerboard="0"
     showgrid="false"
     inkscape:zoom="4.6451402"
     inkscape:cx="24.21886"
     inkscape:cy="39.180734"
     inkscape:window-width="1366"
     inkscape:window-height="688"
     inkscape:window-x="0"
     inkscape:window-y="0"
     inkscape:window-maximized="1"
     inkscape:current-layer="svg8" />
  <g
     transform="translate(0 -280.07)"
     id="g6">
    <circle
       cx="8.4665"
       cy="288.53"
       r="7.1436"
       fill="#6fd16f"
       style="paint-order:stroke markers fill;fill:#57dee3;fill-opacity:1"
       id="circle2" />
  </g>
  <path
     style="fill:#ffffff;stroke-width:0.054367"
     d="m 5.6622367,10.458672 c -0.548361,-0.115551 -1.061581,-0.5275184 -1.341259,-1.0766434 -0.169711,-0.333214 -0.179096,-0.38104 -0.179096,-0.912622 0,-0.506293 0.01499,-0.593495 0.153811,-0.894513 0.195547,-0.424033 0.504579,-0.753057 0.902847,-0.9612535 l 0.313266,-0.163763 1.67062,-0.01693 1.67062,-0.01693 -0.07342,0.24132 c -0.04038,0.1327255 -0.267193,0.8850445 -0.504032,1.6718195 l -0.430616,1.4305 -0.270867,0.2884764 c -0.2021,0.215238 -0.343524,0.311373 -0.55705,0.378662 -0.304004,0.0958 -0.976378,0.11162 -1.354827,0.03187 z m 1.327052,-0.4959164 c 0.374503,-0.181118 0.464758,-0.358377 0.86868,-1.706072 0.205365,-0.685204 0.383141,-1.277381 0.395058,-1.315949 0.01694,-0.05484 -0.262206,-0.07 -1.280743,-0.06958 -1.254506,5.28e-4 -1.312099,0.0054 -1.565857,0.131745 -0.324535,0.161619 -0.664127,0.545847 -0.788235,0.891842 -0.117999,0.328966 -0.09332,0.92745 0.05138,1.245976 0.187468,0.412674 0.605293,0.759984 1.052995,0.8752854 0.328781,0.08467 1.043675,0.05462 1.266725,-0.05325 z m 1.0911,0.4560584 c 0.01399,-0.05399 0.247931,-0.8428734 0.519867,-1.7530643 0.488034,-1.6334831 0.49759,-1.6582911 0.738677,-1.9176121 0.298033,-0.3205725 0.394347,-0.3437435 1.3212743,-0.3178725 0.668275,0.01865 0.719739,0.02855 1.050354,0.201927 0.412181,0.2161565 0.73603,0.5684095 0.932208,1.0139675 0.19008,0.431708 0.198796,1.181304 0.01865,1.604151 -0.253474,0.59497 -0.720837,1.0192564 -1.299508,1.1797324 -0.247552,0.06865 -0.628412,0.08694 -1.8102363,0.08694 -1.400015,0 -1.49508,-0.0063 -1.471287,-0.09817 z M 11.496764,9.9210706 c 0.511197,-0.251739 0.837869,-0.761996 0.879073,-1.3731009 0.04504,-0.668045 -0.289697,-1.2380581 -0.906682,-1.5439431 -0.237862,-0.117925 -0.342741,-0.1323779 -0.964196,-0.132866 -0.9695013,-7.62e-4 -0.8989053,-0.08482 -1.4365873,1.7104421 -0.23102,0.7713479 -0.420376,1.4229843 -0.420791,1.4480803 -4.16e-4,0.0251 0.586073,0.03772 1.303308,0.02805 1.1981393,-0.01615 1.3237043,-0.02725 1.5458753,-0.1366624 z"
     id="path1447" />
</svg>
