<svg xmlns="http://www.w3.org/2000/svg" width="64" height="64"><path fill="#9add9c" d="M32 6c-1.945 0-3.833.23-5.653.635-1.56.347-3.074.833-4.521 1.444L19.565 32l2.26 23.92a26.4 26.4 0 0 0 4.522 1.445c1.82.404 3.708.636 5.652.636s3.832-.231 5.652-.636a26 26 0 0 0 4.522-1.445L44.433 32l-2.26-23.92a26.4 26.4 0 0 0-4.522-1.444A26 26 0 0 0 32 6"/><path fill="#ed8e68" d="M21.826 8.076a25.8 25.8 0 0 0-6.783 4.197C9.504 17.035 6 24.12 6 31.906s3.504 14.893 9.043 19.632v-.002a25.8 25.8 0 0 0 6.783 4.197V8.006z"/><path fill="#9ab9dd" d="M42.173 8.076v47.727a25.8 25.8 0 0 0 6.782-4.197c5.54-4.762 9.043-11.847 9.043-19.633 0-7.864-3.504-14.893-9.043-19.632a25.8 25.8 0 0 0-6.782-4.197z"/><path fill="#474747" d="M27.478 15.026c19.216 4.514 19.216 29.336 0 33.85 23.738-3.385 23.738-30.465 0-33.85m0 6.77c10.173 2.257 10.173 18.053 0 20.31 14.695-1.129 14.695-19.182 0-20.31m-1.13 4.513a5.652 5.642 0 0 0-5.653 5.642 5.652 5.642 0 0 0 5.652 5.641A5.652 5.642 0 0 0 32 31.951a5.652 5.642 0 0 0-5.652-5.642"/><path fill="#f9f9f9" d="M26.347 27.889a4.27 4.27 0 0 0-2.295.683v2.256c1.707-1.342 2.453-1.128 2.872-.52.57.833-1.741.52-1.741 2.776h2.26c0-.626 1.696-1.275 1.662-2.968-.033-1.433-1.3-2.234-2.758-2.234zm-1.164 6.33v2.256h2.26V34.22z"/></svg>