<svg width="64" height="64" version="1.1" viewBox="0 0 64 64" xmlns="http://www.w3.org/2000/svg">
 <g transform="matrix(1.1304 0 0 1.1283 4.8696 4.8717)">
  <path d="m24 1c-1.72 0-3.39 0.204-5 0.563-1.38 0.307-2.72 0.738-4 1.28l-2 21.2 2 21.2c1.28 0.541 2.62 0.972 4 1.28 1.61 0.358 3.28 0.564 5 0.564s3.39-0.205 5-0.564c1.38-0.307 2.72-0.738 4-1.28l2-21.2-2-21.2c-1.28-0.541-2.62-0.972-4-1.28-1.61-0.358-3.28-0.563-5-0.563z" fill="#9add9c"/>
  <path d="m15 2.84c-2.2 0.929-4.22 2.19-6 3.72-4.9 4.22-8 10.5-8 17.4s3.1 13.2 8 17.4v-2e-3c1.78 1.53 3.8 2.79 6 3.72v-42.3z" fill="#ed8e68"/>
  <path d="m33 2.84v42.3c2.2-0.929 4.22-2.19 6-3.72 4.9-4.22 8-10.5 8-17.4 0-6.97-3.1-13.2-8-17.4-1.78-1.53-3.8-2.79-6-3.72z" fill="#9ab9dd"/>
  <path d="m20 9c17 4 17 26 0 30 21-3 21-27 0-30zm0 6c9 2 9 16 0 18 13-1 13-17 0-18zm-1 4a5 5 0 0 0-5 5 5 5 0 0 0 5 5 5 5 0 0 0 5-5 5 5 0 0 0-5-5z" fill="#474747"/>
  <path d="m19 20.4c-0.675 5.04e-4 -1.4 0.196-2.03 0.605v2c1.51-1.19 2.17-1 2.54-0.461 0.505 0.738-1.54 0.461-1.54 2.46h2c0-0.555 1.5-1.13 1.47-2.63-0.0295-1.27-1.15-1.98-2.44-1.98zm-1.03 5.61v2h2v-2z" fill="#f9f9f9"/>
 </g>
</svg>
