<svg xmlns="http://www.w3.org/2000/svg" width="64" height="64"><circle cx="32" cy="32" r="27" style="fill:#526fc5;stroke-width:.964285"/><path d="M18.778 17.001a2.82 2.82 0 0 0-2.834 2.817 2.82 2.82 0 0 0 2.834 2.817v19.719h-.945A2.82 2.82 0 0 0 15 45.17a2.82 2.82 0 0 0 2.833 2.817c2.575.029 5 0 7.556 0a2.82 2.82 0 0 0 2.833-2.817 2.82 2.82 0 0 0-2.833-2.816h-.945V29.553l4.933 10.881c.96 2.335 4.286 2.335 5.246 0l4.933-10.881v12.8h-.945a2.82 2.82 0 0 0-2.833 2.817 2.82 2.82 0 0 0 2.833 2.817c2.574.029 5 0 7.556 0A2.82 2.82 0 0 0 49 45.17a2.82 2.82 0 0 0-2.833-2.816h-.945v-19.72a2.82 2.82 0 0 0 2.834-2.816 2.82 2.82 0 0 0-2.834-2.817H40.5c-.581-.019-1.046.218-1.542.457q-.03.017-.057.035l-.006.005c-.47.295-.718.734-.985 1.181l-.03.063-.003.009L32 31.925 26.123 18.75l-.004-.01-.033-.07c-.194-.504-.578-.815-.96-1.156l-.06-.045c-.482-.343-1.015-.397-1.566-.469h-1.889z" style="fill:#5a387c;stroke-width:.941708"/></svg>