<?xml version="1.0" encoding="UTF-8" standalone="no"?>
<svg
   width="64"
   height="64"
   version="1.1"
   id="svg4"
   sodipodi:docname="mednaffe.svg"
   inkscape:version="1.4.1 (93de688d07, 2025-03-30)"
   xmlns:inkscape="http://www.inkscape.org/namespaces/inkscape"
   xmlns:sodipodi="http://sodipodi.sourceforge.net/DTD/sodipodi-0.dtd"
   xmlns="http://www.w3.org/2000/svg"
   xmlns:svg="http://www.w3.org/2000/svg">
  <defs
     id="defs4" />
  <sodipodi:namedview
     id="namedview4"
     pagecolor="#505050"
     bordercolor="#ffffff"
     borderopacity="1"
     inkscape:showpageshadow="0"
     inkscape:pageopacity="0"
     inkscape:pagecheckerboard="1"
     inkscape:deskcolor="#505050"
     inkscape:zoom="9.453125"
     inkscape:cx="31.947107"
     inkscape:cy="32"
     inkscape:window-width="1920"
     inkscape:window-height="1012"
     inkscape:window-x="0"
     inkscape:window-y="0"
     inkscape:window-maximized="1"
     inkscape:current-layer="svg4" />
  <circle
     style="fill:#526fc5;stroke-width:0.964285"
     cx="32"
     cy="32"
     id="circle2"
     r="27" />
  <path
     style="fill:#5a387c;stroke-width:0.941708"
     d="m 18.777778,17.001067 c -1.569667,0 -2.833334,1.256354 -2.833334,2.816938 0,1.560584 1.263667,2.816939 2.833334,2.816939 V 42.353515 H 17.833333 C 16.263667,42.353515 15,43.60987 15,45.170454 c 0,1.560584 1.263667,2.816938 2.833333,2.816938 2.574307,0.02837 4.999702,0 7.555556,0 1.569667,0 2.833333,-1.256354 2.833333,-2.816938 0,-1.560584 -1.263666,-2.816939 -2.833333,-2.816939 H 24.444444 V 29.552583 l 4.932509,10.881525 c 0.959899,2.335341 4.286195,2.335341 5.246094,0 l 4.932509,-10.881525 v 12.800932 h -0.944445 c -1.569667,0 -2.833333,1.256355 -2.833333,2.816939 0,1.560584 1.263666,2.816938 2.833333,2.816938 2.574307,0.02837 4.999702,0 7.555556,0 C 47.736333,47.987392 49,46.731038 49,45.170454 49,43.60987 47.736333,42.353515 46.166667,42.353515 H 45.222222 V 22.634944 c 1.569667,0 2.833334,-1.256355 2.833334,-2.816939 0,-1.560584 -1.263667,-2.816938 -2.833334,-2.816938 H 42.388889 40.5 c -0.581479,-0.01896 -1.046341,0.217913 -1.542101,0.45669 -0.0188,0.01213 -0.03869,0.02229 -0.05719,0.03485 -0.0022,0.0015 -0.0034,0.004 -0.0056,0.0055 -0.470209,0.29539 -0.718261,0.733889 -0.985031,1.181068 -0.0094,0.02109 -0.02067,0.041 -0.02951,0.06236 -0.0012,0.0031 -0.0025,0.0061 -0.0037,0.0092 L 32,31.924606 26.123047,18.750649 c -0.0012,-0.0031 -0.0025,-0.0061 -0.0037,-0.0092 -0.0099,-0.02391 -0.02266,-0.04612 -0.03321,-0.06969 -0.193652,-0.504921 -0.578259,-0.815566 -0.959231,-1.157252 -0.02064,-0.0144 -0.03984,-0.03015 -0.06087,-0.04401 C 24.584052,17.126522 24.051201,17.073354 23.5,17.001067 h -1.888889 z"
     id="path3" />
</svg>
