<svg width="64" height="64" version="1.1" viewBox="0 0 16.933 16.933" xmlns="http://www.w3.org/2000/svg">
 <g transform="translate(-14.4 -259.75) scale(.92857)">
  <path transform="matrix(.28493 0 0 .28493 15.508 279.73)" d="m32 5a27 27 0 0 0-27 27 27 27 0 0 0 27 27 27 27 0 0 0 27-27 27 27 0 0 0-27-27z" fill="#2f8ddd" stroke-width="3.7799"/>
  <path transform="matrix(.28493 0 0 .28493 15.508 279.73)" d="m24.371 6.1191a27 27 0 0 0-19.371 25.881 27 27 0 0 0 9.1875 20.262c3.3589 1.3295 6.9234 2.103 10.494 2.0527 5.9839-0.09125 11.978-2.5726 16.727-8.5039 2.5269-3.1552 2.9025-6.9361 2.0918-10.225-0.81423-3.2885-2.7485-6.1484-5.0684-7.4785h-0.044922c-1.6441-0.77682-3.5608-0.72446-5.1602 0.14062-1.3688 0.74053-2.2993 1.8875-2.5977 3.0176l-0.2793 0.92773c-0.21409-0.010528-0.44332-0.053191-0.65039-0.091797-1.0634-0.18601-1.8461-0.62873-2.0918-1.4395-0.31587-2.5024 0.33697-4.5472 1.625-6.0879 1.3091-1.5618 3.2959-2.6192 5.6719-2.8789 4.0326-0.44221 7.5976 1.342 10.311 4.2305 2.7164 2.8849 4.5076 6.8964 4.834 10.732 0.69492 8.082-3.8605 16.237-10.344 21.197a27 27 0 0 0 19.295-25.855 27 27 0 0 0-9.0664-20.148c-3.3959-1.36-7.0023-2.1526-10.617-2.0996-5.9839 0.087741-11.978 2.5691-16.727 8.5039-2.5269 3.1516-2.9041 6.9357-2.0898 10.221 0.81072 3.2885 2.7446 6.1034 5.0645 7.4336l0.046875 0.044922c1.8917 0.87741 3.7824 0.60732 5.1582-0.13672 1.3688-0.74404 2.3028-1.891 2.5977-3.0176l0.28125-0.97656c0.22462 0 0.43124 0.018798 0.65234 0.046875 0.52995 0.070192 1.0311 0.19491 1.3926 0.41602 0.31671 0.17408 0.56297 0.45472 0.69531 0.79102 0.007019 0.010529-0.00351 0.034393 0 0.044922 0.66683 5.0609-2.576 8.6833-7.293 9.1992-4.0361 0.44221-7.6019-1.2948-10.318-4.1797-2.7094-2.8849-4.4982-6.8999-4.8281-10.732-0.69685-8.1288 3.8858-16.338 10.422-21.291z" fill="#ffba24" fill-rule="evenodd" stroke-width="3.7799"/>
 </g>
</svg>
