<svg width="64" height="64" version="1.1" xmlns="http://www.w3.org/2000/svg">
 <circle cx="32" cy="32" r="27" fill="#d8394b" stroke-width="3.7796" style="paint-order:stroke fill markers"/>
 <path d="m20.937 17.69c-1.6974 0.05291-3.337 0.8197-4.5929 1.9813-1.2764 1.1806-2.1913 2.8027-2.3765 4.5466-0.09266 0.87201-0.0026 1.7658 0.28214 2.5936 0.28469 0.82797 0.76634 1.5886 1.4056 2.1778 0.75394 0.69478 1.6962 1.1331 2.562 1.6766 0.43295 0.2718 0.85125 0.57342 1.2099 0.94032 0.35862 0.3669 0.65679 0.80214 0.82099 1.2916 0.14609 0.43555 0.18214 0.90614 0.11692 1.3614-0.06522 0.45539-0.23117 0.89478-0.47277 1.2839-0.4832 0.77838-1.2623 1.3451-2.1173 1.6481-0.99168 0.35143-2.0842 0.36886-3.0399 0.81115-0.75637 0.34997-1.3926 0.96026-1.7894 1.7024-0.39679 0.74213-0.55396 1.6126-0.45752 2.4515 0.11332 0.98576 0.57738 1.9234 1.2734 2.6195 0.69603 0.69611 1.6171 1.1495 2.5824 1.2994 1.4154 0.21969 2.9285-0.24081 3.9575-1.2529 0.51449-0.50604 0.90692-1.1389 1.126-1.8316 0.21908-0.6928 0.26434-1.4439 0.122-2.1571-0.10871-0.54453-0.32283-1.0606-0.52107-1.5783-0.19822-0.51795-0.38431-1.0481-0.43209-1.6016-0.08438-0.9773 0.28398-1.9716 0.92266-2.7072 0.63868-0.73566 1.531-1.2197 2.4731-1.4338 0.60784-0.13809 1.2416-0.16901 1.8555-0.062 0.61389 0.10715 1.2081 0.35273 1.7055 0.73366 0.49742 0.38093 0.89498 0.89868 1.1158 1.4906 0.22084 0.59189 0.25997 1.2579 0.08388 1.8651-0.18036 0.62191-0.56806 1.1553-0.96078 1.6662s-0.80366 1.0241-1.037 1.6275c-0.25736 0.66542-0.28309 1.4157-0.10676 2.108 0.17633 0.69215 0.54898 1.327 1.037 1.8418 0.53994 0.56966 1.2237 0.99633 1.9673 1.2296 0.74363 0.23345 1.5042 0.27383 2.2825 0.27383 0.77827 0 1.5896-0.04038 2.3334-0.27383 0.74363-0.23331 1.4274-0.65998 1.9673-1.2296 0.48806-0.5149 0.8607-1.1497 1.037-1.8418 0.17633-0.69228 0.1506-1.4425-0.10676-2.108-0.23338-0.6034-0.64431-1.1165-1.037-1.6275-0.39273-0.51094-0.78043-1.0443-0.96078-1.6662-0.17608-0.60723-0.13697-1.2732 0.08388-1.8651 0.22084-0.59188 0.61841-1.1096 1.1158-1.4906 0.49742-0.38093 1.0916-0.62652 1.7055-0.73366 0.61389-0.107 1.2476-0.07608 1.8555 0.062 0.9421 0.21401 1.8344 0.69807 2.4731 1.4338 0.63868 0.73566 1.007 1.73 0.92266 2.7072-0.04779 0.55353-0.23387 1.0837-0.43209 1.6016-0.19822 0.51782-0.41236 1.0339-0.52107 1.5783-0.14234 0.71317-0.09707 1.4642 0.122 2.1571 0.21908 0.69267 0.61152 1.3255 1.126 1.8316 1.029 1.0121 2.542 1.4726 3.9575 1.2529 0.96529-0.14985 1.8864-0.60329 2.5824-1.2994 0.69603-0.69611 1.1601-1.6337 1.2734-2.6195 0.09645-0.83896-0.06072-1.7094-0.45752-2.4515-0.3968-0.74213-1.033-1.3524-1.7894-1.7024-0.95584-0.44229-2.0483-0.45973-3.0399-0.81115-0.85498-0.30302-1.6341-0.86976-2.1173-1.6481-0.2416-0.38913-0.40755-0.82852-0.47277-1.2839-0.06522-0.45526-0.02917-0.92585 0.11692-1.3614 0.1642-0.48952 0.46236-0.92474 0.82099-1.2916 0.35862-0.3669 0.77693-0.66851 1.2099-0.94032 0.8659-0.54348 1.8082-0.98177 2.562-1.6766 0.63925-0.58911 1.1209-1.3498 1.4056-2.1778 0.28467-0.82784 0.37479-1.7216 0.28214-2.5936-0.18533-1.744-1.1002-3.366-2.3765-4.5466-1.2559-1.1617-2.8955-1.9284-4.5929-1.9813-0.8487-0.02645-1.7035 0.12441-2.4859 0.45982-0.78233 0.33543-1.4897 0.85653-2.0309 1.5215-0.62044 0.76237-1.0104 1.6888-1.3675 2.6091-0.35708 0.92043-0.69459 1.8587-1.2353 2.6815-0.89164 1.3567-2.2989 2.6452-3.9042 2.6452s-3.0125-1.2887-3.9042-2.6452c-0.5407-0.82269-0.87822-1.761-1.2353-2.6815-0.35708-0.9203-0.74703-1.8468-1.3675-2.6091-0.54119-0.66503-1.2485-1.1861-2.0309-1.5215-0.78233-0.33543-1.6371-0.48628-2.4859-0.45982zm11.024 12.563a2.6027 2.6454 0 0 1 2.6027 2.6452 2.6027 2.6454 0 0 1-2.6027 2.6452 2.6027 2.6454 0 0 1-2.6027-2.6452 2.6027 2.6454 0 0 1 2.6027-2.6452z" fill="#f5cdcd"/>
</svg>
