<svg xmlns="http://www.w3.org/2000/svg" width="64" height="64"><circle cx="32" cy="32" r="27" fill="#d8394b" style="paint-order:stroke fill markers"/><path fill="#f5cdcd" d="M20.937 17.69c-1.697.053-3.337.82-4.593 1.981-1.276 1.18-2.191 2.803-2.376 4.547a6 6 0 0 0 .282 2.594 5.3 5.3 0 0 0 1.405 2.177c.754.695 1.697 1.133 2.562 1.677.433.272.852.573 1.21.94.359.367.657.802.821 1.292.146.435.182.906.117 1.361a3.35 3.35 0 0 1-.473 1.284c-.483.779-1.262 1.345-2.117 1.648-.992.352-2.084.37-3.04.811-.756.35-1.392.96-1.79 1.703a4.2 4.2 0 0 0-.457 2.451 4.47 4.47 0 0 0 1.274 2.62 4.7 4.7 0 0 0 2.582 1.3c1.415.219 2.929-.242 3.958-1.254a4.5 4.5 0 0 0 1.126-1.831 4.4 4.4 0 0 0 .122-2.157c-.11-.545-.323-1.061-.522-1.579-.198-.518-.384-1.048-.432-1.601-.084-.978.284-1.972.923-2.708.639-.735 1.531-1.22 2.473-1.433a4.7 4.7 0 0 1 1.856-.062 3.9 3.9 0 0 1 1.705.733c.498.381.895.899 1.116 1.49a3 3 0 0 1 .084 1.866c-.18.622-.568 1.155-.96 1.666s-.805 1.024-1.038 1.628a3.5 3.5 0 0 0-.107 2.108 4.2 4.2 0 0 0 1.037 1.842c.54.57 1.224.996 1.968 1.23.743.233 1.504.273 2.282.273s1.59-.04 2.333-.274a4.64 4.64 0 0 0 1.968-1.23 4.2 4.2 0 0 0 1.037-1.841 3.5 3.5 0 0 0-.107-2.108c-.233-.604-.644-1.117-1.037-1.628s-.78-1.044-.96-1.666a3 3 0 0 1 .083-1.865 3.4 3.4 0 0 1 1.116-1.49 3.9 3.9 0 0 1 1.705-.734 4.7 4.7 0 0 1 1.856.062c.942.214 1.834.698 2.473 1.433s1.007 1.73.923 2.708c-.048.553-.234 1.083-.432 1.601-.199.518-.413 1.034-.521 1.579a4.4 4.4 0 0 0 .122 2.157 4.5 4.5 0 0 0 1.126 1.831c1.029 1.012 2.542 1.473 3.957 1.253a4.7 4.7 0 0 0 2.582-1.3 4.47 4.47 0 0 0 1.274-2.619 4.2 4.2 0 0 0-.458-2.451 3.92 3.92 0 0 0-1.79-1.703c-.955-.442-2.047-.46-3.039-.81-.855-.304-1.634-.87-2.117-1.649a3.35 3.35 0 0 1-.473-1.284 3 3 0 0 1 .117-1.361c.164-.49.462-.925.82-1.292.36-.367.778-.668 1.21-.94.867-.544 1.809-.982 2.563-1.677a5.3 5.3 0 0 0 1.405-2.177 6 6 0 0 0 .282-2.594c-.185-1.744-1.1-3.366-2.376-4.547-1.256-1.161-2.896-1.928-4.593-1.981a5.9 5.9 0 0 0-2.486.46 5.3 5.3 0 0 0-2.03 1.521c-.621.763-1.011 1.69-1.368 2.61s-.695 1.858-1.236 2.68c-.891 1.358-2.298 2.646-3.904 2.646s-3.012-1.289-3.904-2.645c-.54-.823-.878-1.761-1.235-2.682-.357-.92-.747-1.846-1.368-2.609a5.3 5.3 0 0 0-2.03-1.521 5.9 5.9 0 0 0-2.487-.46zm11.024 12.563a2.603 2.645 0 0 1 2.603 2.645 2.603 2.645 0 0 1-2.603 2.645 2.603 2.645 0 0 1-2.603-2.645 2.603 2.645 0 0 1 2.603-2.645"/></svg>