<svg xmlns="http://www.w3.org/2000/svg" width="64" height="64"><circle cx="32" cy="32" r="27" style="fill:#f2f2f2;stroke-width:4.64213;stroke-linecap:round;stroke-linejoin:round;paint-order:stroke fill markers"/><path fill="#0d78b9" d="M32 55.36s12.75-6 17.25-16.5V15.61S42.781 13.36 32 13.36s-17.25 2.25-17.25 2.25v22.95C19.25 49.36 32 55.36 32 55.36"/><path d="M32 13.36v42s12.75-6 17.25-16.5V15.61S42.781 13.36 32 13.36" opacity=".2"/><path fill="#fff" d="M17 17.11v21.75c0 1.5 6 7.5 6 7.5V26.11l6 6v8.25h6v-8.25l6-6v20.25s6-6 6-7.5V17.11h-6l-9 8.85-9-8.85Z"/></svg>