<svg width="64" height="64" viewBox="0 0 16.933 16.933" xmlns="http://www.w3.org/2000/svg"><defs><clipPath id="a"><rect x="1.587" y="1.587" width="13.758" height="13.758" ry=".794" fill="#71c947"/></clipPath></defs><circle cx="8.466" cy="8.466" r="7.144" fill="#f0f0f0"/><path d="M1.587 1.587h13.758v13.758H1.587z" clip-path="url(#a)" fill="none"/><path d="M1.587 1.587h13.758v13.758H1.587z" fill="none"/><g stroke-width=".012"><path d="M8.396 13.61a8507.452 8507.452 0 0 0-2.978-1.716c-.74-.427-1.366-.79-1.391-.805l-.046-.03.006-5.203 1.37-.791L7.55 3.799c.452-.26.842-.484.868-.497.04-.02.052-.02.085-.007.02.009.257.142.525.297l2.191 1.265c.938.541 1.711.989 1.72.996.012.01.015.545.015 2.607 0 2.457-.001 2.597-.021 2.614-.012.01-.085.054-.162.098l-1.43.825c-2.526 1.458-2.825 1.63-2.855 1.637-.02.005-.05-.003-.09-.024z" fill="#a2caa9"/><path d="m8.114 13.44-3.058-1.767-1.075-.62V8.457c0-1.427.005-2.594.01-2.593.008.003.636-.357 2.382-1.366l1.34-.773c.381-.22.706-.41.721-.424.02-.018.033-.022.044-.014l.045.032c.016.011.602.35 1.301.754l2.194 1.266c.507.292.925.529.928.525.004-.004.007 1.162.007 2.591 0 2.461-.001 2.599-.021 2.611l-3.627 2.095c-.457.263-.835.478-.84.478-.006-.001-.163-.09-.35-.2z" fill="#a5ad90"/><path d="M8.437 13.617c-.017-.012-.283-.167-.59-.345l-1.157-.667-2.39-1.38-.319-.183v-2.59c0-1.425.004-2.589.01-2.587.008.003.729-.41 2.425-1.391l1.296-.748c.382-.22.706-.41.721-.424l.027-.024.046.03c.025.018.613.359 1.306.758l2.2 1.27.94.543v2.59c0 1.425-.003 2.59-.008 2.588s-.029.008-.052.022c-.054.033-.531.31-1.46.845l-1.182.681-1.107.64c-.252.145-.654.38-.656.385-.006.015-.016.012-.05-.013z" fill="#79b684"/><path d="M8.437 13.617c-.017-.012-.283-.167-.59-.345l-1.157-.667-2.39-1.38-.319-.183V8.458c0-1.421.005-2.583.01-2.581.005.002.308-.17.673-.38a1098.978 1098.978 0 0 1 2.02-1.165l1.132-.655c.345-.199.629-.367.63-.373.006-.014.036-.014.041 0 .003.006.517.307 1.143.668l2.224 1.284c.597.345 1.089.624 1.092.62.004-.003.007 1.162.007 2.589s-.004 2.593-.01 2.591-.027.01-.05.023c-.055.033-.532.31-1.462.845l-1.18.681-1.108.64c-.25.145-.653.38-.656.385-.006.015-.016.012-.05-.013z" fill="#65ab70"/><path d="M8.437 13.617c-.017-.012-.283-.167-.59-.345l-1.157-.667-2.39-1.38-.319-.183v-1.29c0-1.025.003-1.287.015-1.282.012.005.015-.257.012-1.286l-.003-1.292.198-.114.265-.154c.128-.076.691-.401 1.211-.7l.822-.474c1.295-.753 1.945-1.126 1.966-1.125.013 0 .542.299 1.175.664l2.179 1.258c.565.326 1.048.606 1.073.622.032.02.047.024.05.014.004-.008.007 1.153.008 2.58 0 1.428-.003 2.595-.008 2.594-.005-.002-.029.008-.052.022-.054.033-.532.31-1.46.845l-1.182.681-1.108.64c-.252.145-.653.38-.655.385-.006.015-.017.012-.05-.013zM7.337 9.9c-.001-.089-.003-.016-.003.161s.002.25.004.162a8.338 8.338 0 0 0 0-.323zm.559-.481c-.021-.02-.021-.02-.006.006.009.014.019.024.022.02.003-.002-.004-.015-.016-.026zm-1.151-.02c0-.004-.017-.015-.037-.025-.046-.024-.049-.014-.003.01.038.022.04.022.04.014zm1.095-.013c0-.003-.012-.011-.027-.019-.027-.013-.027-.012-.004.006.025.02.031.022.031.013zM6.66 9.35c0-.003-.013-.012-.028-.02-.026-.012-.027-.012-.004.006.025.02.031.023.031.014zm1.095-.013c0-.003-.012-.011-.027-.018-.027-.013-.027-.013-.004.005.025.02.03.023.03.013zm-1.18-.036c0-.003-.013-.012-.028-.019-.027-.013-.027-.013-.004.006.025.02.031.022.031.013zm1.119 0c0-.003-.012-.012-.027-.019-.027-.013-.027-.013-.004.006.025.02.031.022.031.013zm-1.205-.049c0-.003-.012-.011-.027-.019-.027-.012-.027-.012-.004.006.025.02.03.023.03.013zm-.061-.036c0-.004-.016-.015-.036-.025-.046-.024-.049-.013-.004.011.039.021.04.021.04.014zm1.096-.012c0-.004-.013-.012-.028-.02-.026-.012-.026-.012-.004.006.025.02.032.023.032.014zm-1.181-.036c0-.005-.169-.106-.396-.237a36.786 36.786 0 0 1-.222-.129l-.051-.03-.007-.628-.003.31c-.001.171.002.317.006.325.007.01.658.393.67.394.001 0 .003-.002.003-.005zm1.095-.013c0-.003-.012-.012-.027-.02-.026-.012-.026-.012-.004.007.025.02.031.022.031.013zm-.064-.038c-.004-.004-.014-.005-.023-.001-.01.004-.007.006.007.007.013 0 .02-.002.016-.006zM4.536 8.63v-.122l-.004.118c-.003.099-.007.12-.025.124-.015.005-.014.006.004.004.022-.002.024-.012.025-.124zm-.056.11c0-.003-.012-.012-.027-.019-.026-.013-.026-.012-.004.006.025.02.031.022.031.013zm-.085-.049c0-.003-.012-.011-.027-.019-.027-.012-.027-.012-.004.006.025.02.031.023.031.013zm-.085-.048c0-.003-.012-.012-.027-.02-.027-.012-.027-.012-.004.006.025.02.03.023.03.014zm-.146-.086c0-.003-.012-.011-.028-.019-.026-.012-.026-.012-.003.006.025.02.03.023.03.013zm-.085-.048c0-.003-.013-.012-.028-.02-.026-.012-.026-.012-.003.006.024.02.03.023.03.014zm.459-.07c-.003-.016-.006-.006-.006.02 0 .027.002.04.005.028a.133.133 0 0 0 0-.049zm3.91.011c0-.019-.523-.316-.522-.297 0 .008.08.06.18.117.098.057.21.124.25.15.078.05.093.054.092.03zm-3.91-.158c-.003-.021-.005-.006-.005.034s.002.058.005.04.003-.052 0-.074zm.016-.788c.007 0 .029.008.049.019.02.01.036.015.036.012 0-.01-.07-.043-.091-.043-.017 0-.019.044-.016.38l.003.38.003-.374c.002-.247.008-.374.016-.374zm.523.287c0-.004-.012-.012-.028-.02-.026-.012-.026-.012-.003.006.025.02.03.023.03.014zm-.085-.05c0-.002-.013-.01-.028-.018-.026-.013-.026-.013-.004.006.025.02.032.022.032.013zm-.061-.036c0-.003-.013-.011-.028-.019-.026-.012-.026-.012-.003.006.024.02.03.023.03.013zm-.085-.048c0-.003-.013-.012-.028-.02-.026-.012-.026-.012-.004.006.025.02.032.023.032.014zm-.061-.037c0-.003-.013-.012-.028-.019-.026-.013-.026-.012-.003.006.024.02.03.022.03.013zm-.086-.049c0-.003-.012-.011-.027-.019-.026-.012-.026-.012-.004.006.025.02.031.023.031.013zm-.712-.402c0-.71.002-1.001.003-.649s.002.933 0 1.29c-.001.358-.003.069-.003-.64zM8.46 3.297c.009-.003.019-.003.023.001s-.003.007-.016.007c-.014-.001-.017-.004-.007-.008z" fill="#5db06d"/><path d="M8.437 13.617c-.017-.012-.283-.167-.59-.345l-1.157-.667-2.39-1.38-.319-.183v-1.29c0-1.025.003-1.287.015-1.282.012.005.015-.257.012-1.286l-.003-1.292.563-.326.836-.483c.15-.087.28-.158.289-.158.009 0 .075.034.147.077.233.137.37.215.382.215.01 0 .104-.05.255-.137.224-.129.285-.166.289-.177.004-.012-.236-.16-.42-.26-.042-.022-.074-.046-.073-.052A126.902 126.902 0 0 1 8.45 3.327c.013-.008.05.007.128.052a769.878 769.878 0 0 0 1.418.818c.354.203.535.307.9.52a179.914 179.914 0 0 0 1.224.707l.751.433c.046.026.071.034.075.025a287.6 287.6 0 0 1 .007 2.582c0 1.427-.003 2.594-.008 2.593-.005-.002-.029.008-.052.022-.054.033-.531.31-1.46.845l-1.182.681-1.107.64c-.252.145-.654.38-.656.385-.006.015-.017.012-.05-.013zM7.337 9.9c-.001-.089-.003-.016-.003.161s.002.25.004.162a8.338 8.338 0 0 0 0-.323zm.559-.481c-.021-.02-.021-.02-.006.006.009.014.019.024.022.02.003-.002-.004-.015-.016-.026zm-1.151-.02c0-.004-.017-.015-.037-.025-.046-.024-.049-.014-.003.01.038.022.04.022.04.014zm1.095-.013c0-.003-.012-.011-.027-.019-.027-.013-.027-.012-.004.006.025.02.031.022.031.013zM6.66 9.35c0-.003-.013-.012-.028-.02-.026-.012-.027-.012-.004.006.025.02.031.023.031.014zm1.095-.013c0-.003-.012-.011-.027-.018-.027-.013-.027-.013-.004.005.025.02.03.023.03.013zm-1.18-.036c0-.003-.013-.012-.028-.019-.027-.013-.027-.013-.004.006.025.02.031.022.031.013zm1.119 0c0-.003-.012-.012-.027-.019-.027-.013-.027-.013-.004.006.025.02.031.022.031.013zm-1.205-.049c0-.003-.012-.011-.027-.019-.027-.012-.027-.012-.004.006.025.02.03.023.03.013zm-.061-.036c0-.004-.016-.015-.036-.025-.046-.024-.049-.013-.004.011.039.021.04.021.04.014zm1.096-.012c0-.004-.013-.012-.028-.02-.026-.012-.026-.012-.004.006.025.02.032.023.032.014zm-1.181-.036c0-.005-.169-.106-.396-.237a36.786 36.786 0 0 1-.222-.129l-.051-.03-.007-.628-.003.31c-.001.171.002.317.006.325.007.01.658.393.67.394.001 0 .003-.002.003-.005zm1.095-.013c0-.003-.012-.012-.027-.02-.026-.012-.026-.012-.004.007.025.02.031.022.031.013zm-.064-.038c-.004-.004-.014-.005-.023-.001-.01.004-.007.006.007.007.013 0 .02-.002.016-.006zM4.536 8.63v-.122l-.004.118c-.003.099-.007.12-.025.124-.015.005-.014.006.004.004.022-.002.024-.012.025-.124zm-.056.11c0-.003-.012-.012-.027-.019-.026-.013-.026-.012-.004.006.025.02.031.022.031.013zm-.085-.049c0-.003-.012-.011-.027-.019-.027-.012-.027-.012-.004.006.025.02.031.023.031.013zm-.085-.048c0-.003-.012-.012-.027-.02-.027-.012-.027-.012-.004.006.025.02.03.023.03.014zm-.146-.086c0-.003-.012-.011-.028-.019-.026-.012-.026-.012-.003.006.025.02.03.023.03.013zm-.085-.048c0-.003-.013-.012-.028-.02-.026-.012-.026-.012-.003.006.024.02.03.023.03.014zm.459-.07c-.003-.016-.006-.006-.006.02 0 .027.002.04.005.028a.133.133 0 0 0 0-.049zm3.91.011c0-.019-.523-.316-.522-.297 0 .008.08.06.18.117.098.057.21.124.25.15.078.05.093.054.092.03zm-3.91-.158c-.003-.021-.005-.006-.005.034s.002.058.005.04.003-.052 0-.074zm.016-.788c.007 0 .029.008.049.019.02.01.036.015.036.012 0-.01-.07-.043-.091-.043-.017 0-.019.044-.016.38l.003.38.003-.374c.002-.247.008-.374.016-.374zm3.481.537a.349.349 0 0 1 .055-.032c.027-.013.089-.048.138-.076.05-.03.114-.064.143-.078a.223.223 0 0 0 .07-.046.098.098 0 0 1 .043-.03c.016-.006.08-.04.144-.078.063-.038.16-.093.214-.122a2.59 2.59 0 0 0 .129-.07l.028-.02-.071-.043a4.678 4.678 0 0 0-.23-.13 1.05 1.05 0 0 1-.11-.067.392.392 0 0 0-.074-.042l-.051-.022-.083.047a18.14 18.14 0 0 0-.15.087c-.037.022-.079.045-.093.05-.014.007-.055.03-.091.052a2.273 2.273 0 0 1-.17.099 9.528 9.528 0 0 0-.413.241l-.075.044.09.05.265.153.176.103.055-.032a.517.517 0 0 0 .061-.038zm-2.958-.25c0-.004-.012-.012-.028-.02-.026-.012-.026-.012-.003.006.025.02.03.023.03.014zm4.626-.07a1472.86 1472.86 0 0 0 .3-.173.763.763 0 0 0 .107-.068c.004-.006-.033-.034-.081-.062a9.282 9.282 0 0 1-.138-.08 4.093 4.093 0 0 0-.28-.163c-.028-.01-.036-.006-.267.128l-.21.12c-.049.028-.089.057-.089.065 0 .013.135.096.323.199l.128.074c.03.02.06.035.067.035.007 0 .07-.033.14-.074zm-4.711.02c0-.002-.013-.01-.028-.018-.026-.013-.026-.013-.003.006.024.02.03.022.03.013zm-.061-.036c0-.003-.013-.011-.028-.019-.026-.012-.026-.012-.003.006.024.02.03.023.03.013zm-.085-.048c0-.003-.013-.012-.028-.02-.026-.012-.026-.012-.004.006.025.02.032.023.032.014zm-.061-.037c0-.003-.013-.012-.028-.019-.026-.013-.026-.012-.003.006.024.02.03.022.03.013zM4.7 7.572c0-.003-.013-.011-.028-.018-.026-.013-.026-.013-.004.005.025.02.032.023.032.013zm4.405-.791a.595.595 0 0 1 .08-.043c.005 0 .045-.023.09-.052s.12-.073.166-.1c.128-.07.126-.064.035-.117a.715.715 0 0 0-.088-.047c-.005 0-.035-.019-.069-.041s-.074-.045-.091-.05a.192.192 0 0 1-.06-.038.374.374 0 0 0-.085-.052c-.064-.029-.087-.023-.208.058a.498.498 0 0 1-.085.05.194.194 0 0 0-.051.025 3.659 3.659 0 0 1-.132.076c-.05.028-.091.058-.091.066 0 .017.02.03.122.08a.41.41 0 0 1 .079.047c.01.01.036.027.058.038l.077.04c.02.011.066.039.1.061a.416.416 0 0 0 .071.041c.005 0 .042-.019.082-.042zm-1.439-.442a137.805 137.805 0 0 0 .661-.383.475.475 0 0 0 .12-.083c0-.01-.016-.028-.037-.04a33.26 33.26 0 0 0-.421-.246.461.461 0 0 0-.08-.042 10.45 10.45 0 0 0-.65.373c-.098.05-.125.066-.125.077 0 .005-.018.017-.04.026a2.153 2.153 0 0 0-.29.164c-.009.012-.005.02.016.034.055.036.515.3.524.3.004 0 .15-.081.322-.18zm2.548-.175.244-.14c.208-.12.246-.147.237-.163a3.116 3.116 0 0 0-.21-.128l-.262-.153a.298.298 0 0 0-.072-.035.68.68 0 0 0-.112.06l-.266.152a.805.805 0 0 0-.168.11c0 .016.18.126.463.286.08.044.09.045.146.011zm-4.442-.049c.018-.012.07-.041.116-.065a.738.738 0 0 0 .109-.068c.014-.012.03-.023.037-.023a.12.12 0 0 0 .042-.021.306.306 0 0 1 .066-.034c.04-.013.05-.046.014-.052-.012-.003-.033-.015-.046-.028s-.036-.03-.05-.036a1.135 1.135 0 0 1-.088-.048 2.084 2.084 0 0 0-.085-.049 2.923 2.923 0 0 1-.098-.055c-.13-.076-.118-.074-.203-.03a1.614 1.614 0 0 0-.126.073.592.592 0 0 1-.087.048.165.165 0 0 0-.053.032c-.008.01-.042.03-.077.047s-.073.038-.087.048c-.023.017-.023.018.012.034.02.008.056.03.08.046.055.04.084.058.121.076a.59.59 0 0 1 .063.037c.018.012.075.046.127.075.095.054.095.054.138.034a.63.63 0 0 0 .075-.04zm2.921-1.021.265-.153c.029-.017.05-.037.048-.045-.004-.013-.124-.085-.438-.264a.619.619 0 0 0-.127-.06c-.01 0-.037-.014-.059-.03s-.057-.038-.08-.049-.058-.03-.078-.042a1.522 1.522 0 0 0-.104-.058.957.957 0 0 1-.11-.065c-.086-.064-.102-.066-.171-.018a.294.294 0 0 1-.077.042c-.009 0-.03.01-.045.024s-.08.049-.139.08c-.143.075-.188.103-.188.116 0 .006.02.022.046.036s.07.041.1.06c.07.047.18.105.22.116.016.006.052.03.08.055s.128.092.225.15l.278.164a.681.681 0 0 0 .123.063c.01 0 .114-.055.231-.122zM3.987 7.17c0-.71.002-1.002.004-.649s.001.933 0 1.29c-.002.357-.004.069-.004-.64zM8.46 3.297c.009-.003.02-.003.023.001.004.004-.003.007-.016.007-.014-.001-.017-.004-.007-.008z" fill="#95875d"/><path d="M7.962 13.326c-.278-.16-.552-.317-.609-.352l-.48-.278a157.02 157.02 0 0 1-.634-.365l-.614-.355a335.42 335.42 0 0 1-1.531-.884l-.088-.051V9.772c0-.698.004-1.269.009-1.269.005 0 .118.063.252.14.133.078.251.14.262.137.016-.003.019-.077.021-.627.003-.473.007-.624.018-.624.008 0 .102.052.21.114.284.166.672.381.627.349a3.961 3.961 0 0 0-.146-.09 4.086 4.086 0 0 1-.164-.1 6.924 6.924 0 0 0-.546-.31c-.02 0-.02.039-.02.509.002.772.003.745-.017.745-.01 0-.128-.063-.262-.14l-.244-.142V5.891l.563-.325.835-.484c.15-.087.28-.158.289-.158.009 0 .075.035.147.078.233.137.37.214.382.214.01 0 .104-.05.255-.137.224-.128.285-.166.289-.176.004-.012-.236-.16-.42-.26-.042-.023-.074-.046-.073-.052A126.902 126.902 0 0 1 8.45 3.327c.013-.008.05.007.128.052a769.878 769.878 0 0 0 1.418.817c.354.203.535.308.9.521a179.914 179.914 0 0 0 1.224.707l.751.433c.046.026.071.034.075.025.003-.008.006 1.151.007 2.575 0 1.425-.003 2.589-.008 2.587-.005-.001-.023.006-.04.017-.041.027-.954.554-3.299 1.907l-.82.473c-.166.096-.305.174-.31.174s-.235-.13-.513-.289zm.48-2.936a3.473 3.473 0 0 0-.274-.168l-.249-.144-.006-.65-.046-.028c-.11-.069-.5-.288-.51-.288-.015 0-.037 1.273-.023 1.287.029.029.032-.06.025-.633-.008-.521-.006-.606.009-.612.01-.004.128.057.266.137l.249.144.006.324c.003.178.009.327.012.33.009.008.553.323.56.324.003 0-.006-.01-.02-.023zm-1.66-.96a.788.788 0 0 0-.149-.099 24.519 24.519 0 0 1-.327-.19 42.278 42.278 0 0 0-.581-.34l-.052-.03v-.309c0-.232-.003-.312-.015-.322-.012-.01-.014.055-.009.32.005.302.008.336.028.35.02.015.343.2.77.44.106.06.223.128.258.15l.064.04v.295c0 .163.004.31.01.326s.01-.114.011-.29c.002-.179-.001-.329-.008-.34zm1.666-.979c0-.019-.523-.316-.522-.297 0 .008.08.06.18.117.098.057.21.124.25.15.077.049.093.054.092.03zm-.413-.41a.349.349 0 0 1 .055-.031c.026-.013.089-.048.138-.077.049-.028.114-.063.143-.077a.223.223 0 0 0 .069-.047.098.098 0 0 1 .044-.03c.016-.005.08-.04.144-.078.063-.037.16-.092.214-.12a2.59 2.59 0 0 0 .129-.072l.028-.019-.071-.043a4.678 4.678 0 0 0-.23-.13 1.05 1.05 0 0 1-.11-.068.392.392 0 0 0-.074-.042l-.051-.022-.083.047a18.14 18.14 0 0 0-.15.088c-.037.022-.079.044-.093.05-.014.006-.055.03-.091.052a2.273 2.273 0 0 1-.17.099 9.528 9.528 0 0 0-.413.24l-.075.045.09.05.265.153.176.103.055-.032a.517.517 0 0 0 .06-.039zm-2.471.042c0-.003-.013-.011-.028-.019-.026-.012-.026-.012-.003.006.024.02.03.023.03.013zm4.139-.36a1472.86 1472.86 0 0 0 .3-.175.763.763 0 0 0 .107-.067c.004-.006-.033-.034-.081-.062a9.274 9.274 0 0 1-.138-.081 4.093 4.093 0 0 0-.28-.162c-.028-.01-.036-.006-.267.128l-.21.12c-.049.028-.089.057-.089.064 0 .013.135.096.323.2.04.022.098.055.128.074.03.019.06.035.067.035.006 0 .07-.034.14-.075zm-.598-.942a.595.595 0 0 1 .08-.043c.005 0 .045-.024.09-.052s.12-.074.166-.1c.128-.07.126-.064.035-.117a.715.715 0 0 0-.088-.048c-.005 0-.036-.018-.069-.04s-.074-.045-.091-.05a.192.192 0 0 1-.061-.038.374.374 0 0 0-.085-.053c-.064-.028-.086-.022-.207.059a.498.498 0 0 1-.085.05.194.194 0 0 0-.051.025 3.659 3.659 0 0 1-.132.076c-.05.028-.091.058-.091.066 0 .017.02.03.122.079a.41.41 0 0 1 .079.047c.01.01.036.027.057.039l.078.04c.02.011.066.038.1.061a.416.416 0 0 0 .071.041c.005 0 .042-.02.082-.042zm-1.439-.443a137.805 137.805 0 0 0 .661-.382.475.475 0 0 0 .119-.084c.002-.009-.015-.027-.037-.04a33.26 33.26 0 0 0-.42-.245.461.461 0 0 0-.08-.042 10.45 10.45 0 0 0-.65.373c-.098.05-.125.066-.125.077 0 .005-.018.017-.04.025a2.153 2.153 0 0 0-.29.165c-.009.012-.005.02.016.034.054.036.515.299.524.3.004 0 .15-.081.322-.18zm2.548-.174.243-.141c.209-.12.247-.146.238-.162a3.116 3.116 0 0 0-.21-.128l-.262-.153a.298.298 0 0 0-.072-.035.68.68 0 0 0-.112.059l-.266.153a.805.805 0 0 0-.168.11c0 .016.18.126.463.285.08.045.09.046.146.012zm-4.442-.05.116-.065a.738.738 0 0 0 .109-.067c.014-.013.03-.023.037-.023a.12.12 0 0 0 .041-.021.306.306 0 0 1 .067-.034c.04-.013.05-.046.014-.053-.012-.002-.033-.015-.046-.028s-.036-.029-.05-.035a1.135 1.135 0 0 1-.088-.048 2.084 2.084 0 0 0-.086-.049 2.923 2.923 0 0 1-.097-.055c-.13-.076-.118-.074-.203-.03a1.614 1.614 0 0 0-.126.072.592.592 0 0 1-.087.049.165.165 0 0 0-.053.032c-.008.01-.042.03-.077.047s-.073.038-.087.048c-.023.017-.023.018.012.033.02.009.056.03.08.047.055.04.084.058.121.076a.59.59 0 0 1 .063.037c.018.012.075.046.127.075.095.053.095.053.138.034a.63.63 0 0 0 .075-.041zm2.921-1.02.265-.154c.029-.016.05-.036.048-.044-.005-.013-.124-.085-.438-.264a.619.619 0 0 0-.127-.06c-.011 0-.037-.014-.059-.03s-.057-.038-.08-.049-.058-.03-.078-.043a1.522 1.522 0 0 0-.104-.057.957.957 0 0 1-.11-.065c-.086-.064-.102-.066-.171-.018a.294.294 0 0 1-.078.042c-.008 0-.028.01-.045.023s-.078.05-.138.08c-.143.076-.188.104-.188.117 0 .006.02.022.046.036s.07.04.1.06c.07.046.18.104.22.116.016.005.052.03.08.055s.128.092.225.149l.278.165a.681.681 0 0 0 .123.062c.01 0 .114-.054.231-.122zM3.987 7.17c0-.71.002-1.002.003-.65s.002.934 0 1.291c-.001.357-.003.069-.003-.641zM8.46 3.297c.009-.004.02-.003.023 0 .004.005-.003.008-.016.007-.014 0-.017-.003-.007-.007z" fill="#5bac6c"/><path d="M7.962 13.326c-.278-.16-.552-.317-.609-.352l-.48-.278a157.02 157.02 0 0 1-.634-.365l-.614-.355a335.42 335.42 0 0 1-1.531-.884l-.088-.051V9.772c0-.698.004-1.269.009-1.269.005 0 .118.063.252.14.133.078.251.14.262.137.016-.003.019-.077.021-.627.003-.473.007-.624.018-.624l-.02-.036c-.018 0-.02.038-.019.508.002.772.003.745-.017.745-.01 0-.128-.063-.262-.14l-.244-.142V7.186c0-1.212 0-1.278.02-1.27.028.01.241.132.515.293a94.8 94.8 0 0 0 1.51.866l.438.253c.137.08.271.159.298.177.027.018.145.087.262.155.49.28.81.469.83.487.02.017.022.049.022.324v.306l.04.026c.021.014.08.05.13.078.05.028.153.089.227.134.075.046.14.08.143.076.004-.004.008-.145.008-.313s.004-.312.01-.32a36.87 36.87 0 0 1 1.08-.63A627.048 627.048 0 0 1 12.84 5.92c.035-.021.071-.035.08-.031.01.004.02 0 .024-.008.003-.008.006 1.15.007 2.575 0 1.425-.003 2.589-.008 2.587-.005-.001-.023.006-.04.017-.041.027-.954.554-3.299 1.907l-.82.473c-.166.096-.305.174-.31.174s-.235-.13-.513-.289zm.48-2.936a3.473 3.473 0 0 0-.274-.168l-.249-.144-.006-.65-.046-.028c-.11-.069-.5-.288-.51-.288-.015 0-.037 1.273-.023 1.287.029.029.032-.06.025-.633-.008-.521-.006-.606.009-.612.01-.004.128.057.266.137l.249.144.006.324c.003.178.009.327.012.33.009.008.553.323.56.324.003 0-.006-.01-.02-.023zm-1.66-.96a2.415 2.415 0 0 0-.276-.172 3.332 3.332 0 0 1-.3-.186l-.52-.313c-.008.012-.012-.088-.012-.294 0-.235-.004-.315-.016-.325-.012-.01-.014.055-.009.32.005.302.008.336.028.35.02.015.343.2.77.44.106.06.223.128.258.15l.064.04v.295c0 .163.004.31.01.326s.01-.114.011-.29a2.656 2.656 0 0 0-.008-.34z" fill="#55a566"/><path d="M7.962 13.326c-.278-.16-.552-.317-.609-.352l-.48-.278a157.02 157.02 0 0 1-.634-.365l-.614-.355a335.42 335.42 0 0 1-1.531-.884l-.088-.051V9.772c0-.698.004-1.269.009-1.269.005 0 .118.063.252.14.133.078.251.14.262.137.016-.003.019-.077.021-.627.003-.465.007-.624.018-.624.008 0 .121.062.252.138l.433.239.371.214.013.006c.007.01.012.152.012.337 0 .301.001.32.024.34.021.02.194.12.773.447.107.06.224.128.259.15l.064.04v.295c0 .287.005.35.024.35.006 0 .124.066.262.147s.257.146.262.146.013.006.016.015c.005.011.01.01.02-.003.01-.014.012-.18.006-.624-.008-.521-.006-.606.009-.612.01-.004.128.057.266.137l.249.144.006.324c.003.179.009.327.012.33.013.012.542.315.554.317.008.001.014-.332.018-.971l.006-.973.14-.081a837.118 837.118 0 0 0 2.502-1.445l.842-.486a29.9 29.9 0 0 1 .434-.248c.002 0 .122-.067.265-.15l.26-.151.013 1.926.006-.657c.003-.361.007.363.009 1.61.001 1.247-.001 2.266-.006 2.264s-.023.006-.04.017c-.042.027-.954.554-3.299 1.907l-.82.473c-.166.096-.305.174-.31.174s-.235-.13-.513-.29z" fill="#967445"/><path d="M8.46 13.602a239.68 239.68 0 0 1 .004-3.204c.005.003.01-.431.012-.965l.003-.971.14-.08a829.087 829.087 0 0 0 2.502-1.446l.842-.485a29.9 29.9 0 0 1 .434-.248l.265-.15.26-.152.013 1.927.006-.657c.003-.362.007.362.009 1.61a141.47 141.47 0 0 1-.006 2.264.786.786 0 0 0-.125.065c-.19.112-.703.409-1.04.603-.825.474-1.105.636-1.517.874a174 174 0 0 1-1.78 1.023c-.013.006-.022.003-.023-.008zm4.478-3.664c-.003-.09-.004-.02-.004.154s.002.247.004.162.002-.227 0-.317zm0-1.29c-.003-.09-.004-.02-.004.154s.002.247.004.162a7.972 7.972 0 0 0 0-.317zM7.636 13.13a7.022 7.022 0 0 1-.264-.16c-.016-.012-.019-.062-.019-.311v-.297l-.07-.043a4.738 4.738 0 0 0-.485-.273c-.014 0-.017.053-.017.293v.293l-.058-.033a63.513 63.513 0 0 1-.265-.155l-.207-.121-.005-.428-.005-.612-.002-.184.055.03.268.146.134.075c.037.021.078.038.091.038.014 0 .046.013.073.03.256.148.459.262.469.262.008 0 .012-.106.012-.298 0-.243.003-.3.017-.305.017-.007.096.035.379.198a.558.558 0 0 1 .16.116c.013.024.014.232.008.957-.004.51-.011.927-.015.926-.004 0-.118-.065-.254-.144zm-2.252-1.302a6.898 6.898 0 0 1-.265-.16c-.017-.014-.02-.069-.019-.443v-.47c-.003-.268.002-.998.007-.998.003 0 .057.028.119.063l.186.102a5.25 5.25 0 0 1 .237.137c.02.012.02.2.006 1-.003.185-.006.466-.006.625 0 .159-.004.289-.01.289s-.12-.065-.255-.145zm1.707-.907a3.297 3.297 0 0 1-.292-.182c-.05-.043-.108-.079-.383-.24a2.624 2.624 0 0 1-.174-.106c-.019-.017-.02-.048-.02-.308 0-.16.002-.298.006-.308.007-.016.028-.009.124.042.064.034.168.093.233.132.064.039.129.074.144.079.014.005.03.02.034.032.004.013.015.024.024.024.009 0 .13.066.268.146s.256.146.259.146.013.01.022.021c.013.017.017.095.017.341 0 .176-.004.32-.01.32-.004 0-.118-.063-.252-.14zM4.948 9.04a62.962 62.962 0 0 0-.257-.16c-.115-.07-.124-.079-.13-.12a6.066 6.066 0 0 1 .007-.593c.01-.009.133.051.302.147.119.067.205.104.212.092.004-.005.006-.1.006-.21 0-.356-.001-.35.02-.35l.517.272.012.007c.016.025.016.641 0 .651-.007.005-.028-.002-.046-.015a1.815 1.815 0 0 0-.112-.067 5.531 5.531 0 0 1-.207-.124.974.974 0 0 0-.143-.08c-.012 0-.016.069-.016.303 0 .237-.003.306-.016.316-.012.01-.047-.006-.149-.07z" fill="#906e42"/><path d="M8.469 13.606a64.362 64.362 0 0 1-.003-1.22c.002-.666 0-1.387-.004-1.603-.004-.215-.003-.388.002-.385s.01-.432.012-.966l.003-.97.14-.081a829.087 829.087 0 0 0 2.502-1.445l.842-.486a29.9 29.9 0 0 1 .434-.248c.002 0 .122-.067.265-.15l.26-.151.013 1.926.006-.657c.003-.361.007.364.009 1.613.001 1.47-.002 2.264-.01 2.252-.006-.01-.011-.012-.011-.004 0 .012-.52.32-1.175.694l-.506.292c-.138.08-.32.186-.407.235a120.1 120.1 0 0 0-.889.514c-.266.155-1.414.816-1.45.835-.016.008-.03.01-.033.005zm4.469-3.72c-.002-.108-.004-.015-.004.205 0 .221.002.31.004.197s.002-.293 0-.401zm0-1.27c-.002-.1-.004-.018-.004.179 0 .198.002.278.004.18s.002-.26 0-.36zm-.001-.463c-.003-.012-.006-.005-.006.015s.002.03.005.022a.07.07 0 0 0 0-.037zm-5.88 2.732c-.28-.164-.331-.21-.318-.282a.881.881 0 0 0 .002-.249c-.007-.027-.006-.043.002-.049.007-.004.01-.045.009-.099-.004-.087-.003-.092.026-.106.032-.015.057-.01.045.01-.004.007.003.008.014.004.015-.006.018-.004.011.008-.006.01-.005.013.004.007.018-.01.066.015.057.03-.004.006.002.008.013.003.016-.006.019-.004.011.008-.006.011-.005.014.004.008.018-.01.066.021.054.035-.005.006-.002.006.006.002.019-.011.067.014.058.03-.004.006.002.007.013.002.015-.005.019-.003.013.007s-.002.011.012.006c.013-.005.018-.004.013.005-.005.007 0 .012.013.01.012 0 .02.006.018.014-.002.009.005.012.017.007.015-.006.018-.003.01.008-.006.011-.005.014.004.008.018-.01.066.014.057.03-.004.006.002.007.014.003.015-.006.018-.004.01.008-.005.01-.004.013.004.008.007-.004.028 0 .047.01.02.01.03.019.023.019-.006 0-.005.006.003.014.022.022.021.631 0 .63-.009 0-.13-.067-.27-.15zm-1.457-.19c-.017-.012-.071-.046-.121-.075s-.103-.062-.116-.073c-.014-.011-.044-.03-.067-.042s-.071-.043-.107-.07l-.063-.048.003-.578.032.015c.093.043.253.128.36.19l.122.07.003.307c.002.169 0 .311-.006.316-.005.005-.023 0-.04-.013zm-.602-1.656-.146-.098c-.04-.028-.091-.06-.113-.073L4.7 8.845l.006-.1c.002-.056.008-.116.012-.134.005-.024.001-.036-.013-.045-.016-.008-.02-.02-.012-.046.004-.02.01-.079.014-.132a.58.58 0 0 1 .012-.107c.004-.006.022-.001.04.01.017.012.054.032.08.045l.15.074.1.05v.314c0 .172-.004.313-.01.313a.565.565 0 0 1-.081-.048zm.462-.385c-.08-.05-.163-.099-.185-.11s-.053-.032-.07-.048a.342.342 0 0 0-.056-.042c-.022-.012-.023-.027-.023-.28 0-.147.005-.27.01-.272.005-.004.035.01.066.03s.057.032.057.028.009.002.02.012c.01.011.025.02.033.02.048.004.104.028.227.1l.092.053.003.3c.002.237 0 .301-.012.3-.009 0-.081-.041-.162-.09z" fill="#8e6b42"/><path d="M8.472 12.372c-.001-.679-.005-1.402-.01-1.607-.004-.205-.003-.37.002-.367s.01-.432.012-.966l.003-.97.14-.081a829.087 829.087 0 0 0 2.502-1.445l.842-.486a29.9 29.9 0 0 1 .434-.248c.002 0 .122-.067.265-.15l.26-.151.013 1.926.012-1.314.003.65c.002.426-.001.655-.009.663-.008.008-.012.553-.012 1.614v1.602l-.271.156a315.314 315.314 0 0 1-1.178.68 362.37 362.37 0 0 1-1.57.906c-.683.396-1.4.808-1.418.815-.017.006-.019-.12-.02-1.227zm-1.393-1.49a4.176 4.176 0 0 1-.258-.162c-.027-.024-.028-.03-.028-.305 0-.209.004-.281.015-.281.014 0 .373.2.472.262l.049.03v.299c0 .163-.004.297-.01.297s-.112-.064-.24-.14zm-.034-.64c-.139-.081-.25-.15-.248-.152.003-.003.106.053.229.124.123.072.243.14.266.153.023.012.034.022.024.022-.01 0-.131-.067-.27-.148z" fill="#896539"/><path d="M8.485 12.328c0-.798-.004-1.268-.011-1.275-.014-.014-.024-.663-.01-.655.005.003.01-.431.012-.965l.003-.971.14-.08a829.087 829.087 0 0 0 2.502-1.446l.842-.485a29.9 29.9 0 0 1 .434-.248l.265-.15.26-.152.013 1.927.012-1.315.003.65c.002.49 0 .654-.011.667-.011.014-.015.397-.016 1.614v1.596l-.247.142c-.136.079-.267.156-.292.172s-.155.092-.29.168c-.228.13-.494.283-1.112.64a7.482 7.482 0 0 1-.365.205c-.37.214-.46.267-.476.281-.01.008-.235.139-.5.29l-.808.464c-.18.104-.333.19-.338.19s-.01-.569-.01-1.264zm2.36-1.37c.051-.03.123-.07.16-.09.037-.02.108-.06.158-.09l.092-.054.003-.307a3.27 3.27 0 0 0-.004-.307c-.008 0-.065.033-.343.198l-.186.11v.296c0 .197.005.297.013.297a.68.68 0 0 0 .106-.053zm1.264-2.04a.356.356 0 0 1 .078-.043c.036-.011.084-.054.084-.075 0-.01.011-.014.034-.01.066.012.066.009.065-.305 0-.16-.004-.293-.007-.296s-.049.02-.1.052l-.16.097c-.06.034-.064.04-.058.072.01.047-.035.114-.061.092-.01-.008-.017-.009-.017-.002 0 .017.057.076.073.076.008 0 .011.01.008.022-.003.011-.01.036-.013.054-.004.019-.013.034-.02.034-.006 0-.008-.008-.004-.017.008-.021-.015-.068-.033-.068-.018 0-.007.158.012.17.008.005.02.027.026.05.005.023.014.053.018.067.007.022.002.027-.03.033-.053.01-.046.033.01.033.032 0 .062-.011.095-.035zm-.097-.143c-.016-.015-.009-.053.01-.053.01 0 .018.009.018.019v.027c.002.012-.018.017-.028.007zm.26-.072c0-.014.004-.017.008-.007.003.009.003.02-.001.023-.004.004-.007-.003-.007-.016zm-.006-.085c-.006-.034-.004-.062.004-.07.013-.012.022.014.028.082.006.06-.023.05-.032-.012zm0-.233c-.003-.012-.004-.04-.001-.064l.005-.06c.002-.039.014 0 .02.063.006.065-.01.107-.023.06zm-.238.064c0-.01-.011-.019-.025-.019s-.024.008-.024.019c0 .01.01.018.024.018s.025-.008.025-.018zm-4.983 1.793c-.139-.081-.25-.15-.248-.152.003-.003.106.054.229.125l.266.152c.023.013.034.023.024.022-.01 0-.132-.066-.27-.147z" fill="#418d50"/><path d="M8.485 12.328c0-.798-.004-1.268-.011-1.275a2.438 2.438 0 0 1-.016-.336c-.002-.259 0-.322.012-.312.011.01.015.085.015.303 0 .16.005.29.011.29.006 0 .017-.007.026-.018.008-.01.02-.018.024-.018s.072-.036.148-.08c.076-.045.168-.097.205-.118a.673.673 0 0 0 .082-.05c.011-.01.016-.168.018-.657.003-.558.006-.645.022-.654.027-.014.395-.225.49-.28l.082-.049v-.302c0-.23.004-.305.016-.315.008-.007.056-.034.106-.06.05-.026.127-.07.17-.098.044-.028.099-.06.122-.07a.189.189 0 0 0 .062-.044c.014-.018.027-.023.046-.017.025.008.026.012.026.297 0 .234.004.292.018.312.015.019.018.077.018.313 0 .16.004.29.008.29s.074-.038.155-.084c.153-.087.177-.101.626-.364.149-.088.281-.163.295-.167.023-.007.024-.02.027-.32l.003-.312.113-.067c.062-.038.17-.1.241-.14.071-.041.134-.08.14-.086l.038-.045c.016-.019.097-.073.18-.12l.255-.147a.725.725 0 0 1 .116-.06.5.5 0 0 0 .146-.076.225.225 0 0 1 .062-.033c.007 0 .04-.018.074-.04s.069-.045.079-.05a.631.631 0 0 0 .054-.032c.055-.037.115-.062.128-.054.007.004.012.135.012.324 0 .25.003.314.015.307.01-.006.008-.001-.002.012-.015.019-.018.25-.019 1.618v1.596l-.247.142c-.136.079-.268.156-.292.172s-.155.092-.29.168c-.228.13-.494.283-1.112.64a7.482 7.482 0 0 1-.365.205c-.37.214-.46.267-.476.28-.01.01-.235.14-.5.29s-.628.36-.809.465-.332.19-.337.19-.01-.57-.01-1.264zm2.36-1.37c.051-.03.123-.07.16-.09.037-.02.108-.06.158-.09l.092-.054.003-.307a3.27 3.27 0 0 0-.004-.307c-.008 0-.065.033-.343.198l-.186.11v.296c0 .197.005.297.013.297a.68.68 0 0 0 .106-.053zm1.264-2.04a.356.356 0 0 1 .078-.043c.036-.011.084-.054.084-.075 0-.01.011-.014.034-.01.066.012.066.009.065-.305 0-.16-.004-.293-.007-.296s-.049.02-.1.052l-.16.097c-.06.034-.064.04-.058.072.01.047-.035.114-.061.092-.01-.008-.017-.009-.017-.002 0 .017.057.076.073.076.008 0 .011.01.008.022-.003.011-.01.036-.013.054-.004.019-.013.034-.02.034-.006 0-.008-.008-.004-.017.008-.021-.015-.068-.033-.068-.018 0-.007.158.012.17.008.005.02.027.026.05.005.023.014.053.018.067.007.022.002.027-.03.033-.053.01-.046.033.01.033.032 0 .062-.011.095-.035zm-.097-.143c-.016-.015-.009-.053.01-.053.01 0 .018.009.018.019v.027c.002.012-.018.017-.028.007zm.26-.072c0-.014.004-.017.008-.007.003.009.003.02-.001.023-.004.004-.007-.003-.007-.016zm-.006-.085c-.006-.034-.004-.062.004-.07.013-.012.022.014.028.082.006.06-.023.05-.032-.012zm0-.233c-.003-.012-.004-.04-.001-.064l.005-.06c.002-.039.014 0 .02.063.006.065-.01.107-.023.06zm-.238.064c0-.01-.011-.019-.025-.019s-.024.008-.024.019c0 .01.01.018.024.018s.025-.008.025-.018zm-4.983 1.793c-.139-.081-.25-.15-.248-.152.003-.003.106.054.229.125l.266.152c.023.013.034.023.024.022-.01 0-.132-.066-.27-.147zM8.76 9.1c.004-.007.01-.012.013-.012.003 0 .005.005.005.012 0 .006-.005.012-.012.012-.008 0-.01-.006-.006-.012zm.56-.876c-.003-.006 0-.015.006-.019.015-.009.037.003.037.019 0 .015-.033.015-.042 0zm.842-.132a5.62 5.62 0 0 1-.001-.527l.007-.056.16-.092.514-.295c.194-.112.373-.214.398-.227l.045-.023-.002.15a8.71 8.71 0 0 0 0 .258c.003.181-.006.23-.045.243a.051.051 0 0 0-.03.025c-.003.01-.016.018-.028.018-.033 0-.079.036-.071.056.005.013-.001.016-.024.01-.022-.006-.042.003-.083.036-.03.025-.067.044-.084.044a.062.062 0 0 0-.05.03c-.012.017-.031.03-.045.03s-.035.012-.048.025-.04.025-.058.025c-.029 0-.088.03-.283.142l-.116.065a1.76 1.76 0 0 0-.105.063c-.04.027-.044.027-.05 0zm-.772-.016c0-.013.004-.023.01-.023.014 0 .015.033.002.04-.005.004-.01-.004-.012-.017zm1.683 0c-.005-.007-.005-.015-.002-.019.009-.009.033.007.033.021 0 .016-.021.014-.031-.002zM9.518 8.02c.008-.003.019-.003.023.001s-.003.007-.016.007c-.014-.001-.017-.004-.007-.008zm1.341-.04c0-.007.006-.012.013-.012.007 0 .01.005.005.012-.004.007-.01.012-.013.012-.003 0-.005-.005-.005-.012zm-.06-.117c0-.014.004-.017.008-.007.003.009.003.02-.001.023-.004.004-.007-.003-.007-.016zm.194-.157c0-.01.007-.015.018-.01.01.003.018.011.018.017 0 .006-.008.011-.018.011a.018.018 0 0 1-.018-.018zm.657-.554c0-.007.006-.012.012-.012.007 0 .013.005.013.012a.012.012 0 0 1-.013.012.012.012 0 0 1-.012-.012zm1.01-.06c0-.007.006-.013.013-.013.007 0 .012.006.012.012a.012.012 0 0 1-.012.012.012.012 0 0 1-.012-.012zm-1.217-.098c0-.007.006-.012.012-.012s.015.005.019.012-.001.012-.012.012c-.01 0-.019-.005-.019-.012zm1.34-.28c0-.007.005-.012.012-.012s.01.005.006.012-.01.012-.013.012c-.003 0-.006-.005-.006-.012z" fill="#627644"/><path d="M8.482 12.319c-.001-.7 0-1.272.005-1.272.009 0 .51-.29.53-.307.013-.01.016-.154.016-.647 0-.349.005-.641.01-.649s.132-.085.282-.172l.535-.31c.144-.084.266-.15.271-.147.006.003.01.14.01.304 0 .246.003.299.017.304.017.007.14-.062.771-.432.162-.095.303-.175.313-.18.016-.005.019.031.019.286 0 .282.003.331.024.331.02 0 .519-.294.539-.318.02-.024.021-.073.021-.656v-.631l.034-.023c.046-.032.484-.283.494-.283.004 0 .009.135.01.301.003.27.006.302.024.305a1.69 1.69 0 0 0 .254-.132 9.27 9.27 0 0 1 .249-.14c.01-.005.014.369.013 1.591v1.598l-.247.142c-.136.078-.268.155-.293.172s-.154.091-.288.167c-.229.13-.495.284-1.113.641a7.482 7.482 0 0 1-.365.204c-.37.214-.46.268-.476.281-.01.009-.235.14-.5.29s-.628.36-.809.464-.332.19-.337.19-.011-.572-.013-1.272zm2.362-1.362.161-.09c.037-.02.108-.06.158-.09l.092-.054.003-.306a3.27 3.27 0 0 0-.004-.307c-.008 0-.065.032-.343.197l-.186.11v.297c0 .196.004.296.013.296a.68.68 0 0 0 .106-.053zm1.265-2.039a.356.356 0 0 1 .078-.044c.036-.01.084-.053.084-.075 0-.01.011-.014.034-.01.066.013.066.01.065-.305 0-.16-.004-.292-.007-.295s-.049.02-.1.052l-.16.096c-.06.035-.064.041-.058.073.01.046-.035.113-.061.092-.01-.008-.017-.009-.017-.002 0 .017.057.076.073.076.008 0 .011.01.008.021-.003.012-.01.037-.013.055-.004.018-.013.034-.02.034-.006 0-.008-.008-.004-.018.008-.02-.015-.068-.034-.068-.018 0-.006.158.013.17.008.005.02.028.026.05.005.023.014.054.018.068.006.021.002.027-.03.033-.053.01-.046.032.01.032.032 0 .062-.01.095-.035zm-.097-.143c-.016-.015-.009-.053.01-.053.01 0 .018.008.018.018v.027c.002.013-.018.018-.028.008zm.26-.072c0-.014.004-.017.007-.008.004.01.004.02 0 .024-.005.004-.007-.003-.007-.016zm-.007-.085c-.005-.035-.003-.062.004-.07.014-.013.023.014.03.081.005.06-.024.05-.034-.011zm.002-.234c-.004-.011-.005-.04-.002-.064l.005-.06c.002-.038.014 0 .02.063.006.065-.01.107-.024.061zm-.24.064c0-.01-.01-.018-.024-.018s-.024.008-.024.018c0 .01.01.018.024.018s.025-.008.025-.018zm-3.548 2.56a4.25 4.25 0 0 1-.003-.308l.004-.292.002.295c.002.162.008.295.014.295s.017-.008.026-.018c.008-.01.019-.018.024-.018s.071-.037.148-.08c.076-.045.168-.098.205-.118a.673.673 0 0 0 .082-.05c.011-.011.016-.169.018-.658.003-.557.006-.645.022-.653l.49-.281.082-.048v-.302c0-.23.004-.306.015-.316.009-.007.057-.034.107-.06.05-.026.127-.07.17-.098.044-.028.098-.059.122-.07a.189.189 0 0 0 .062-.044c.014-.018.027-.022.045-.016.026.008.027.012.027.296 0 .234.004.293.018.312.015.02.018.077.018.313 0 .16.004.29.008.29s.074-.037.155-.084c.153-.087.177-.1.626-.364.149-.087.281-.162.295-.166.023-.008.024-.021.027-.32l.003-.313.113-.067c.061-.037.17-.1.241-.14.071-.04.134-.079.14-.086l.038-.045c.016-.018.097-.072.18-.12l.255-.147a.725.725 0 0 1 .116-.059.5.5 0 0 0 .146-.076.225.225 0 0 1 .062-.033c.007 0 .04-.019.074-.04s.069-.045.078-.05a.631.631 0 0 0 .054-.032c.056-.037.116-.063.129-.055.007.005.011.135.011.32v.314l-.248.142a3.501 3.501 0 0 1-.261.143c-.01 0-.014-.084-.014-.298 0-.247-.003-.3-.017-.306a4.83 4.83 0 0 0-.55.308c-.015.015-.017.117-.017.655v.638l-.034.023c-.046.032-.484.283-.494.283a3.02 3.02 0 0 1-.01-.308c-.004-.284-.006-.307-.025-.305-.012 0-.26.139-.55.307s-.531.306-.535.306c-.004 0-.008-.134-.008-.297 0-.227-.004-.3-.016-.31-.011-.01-.031-.004-.076.02-.124.07-1.022.59-1.037.602-.012.01-.015.154-.015.647 0 .49-.004.64-.015.654-.014.017-.501.303-.516.303-.003 0-.008-.007-.012-.016zm.28-1.909c.004-.006.01-.012.013-.012.003 0 .005.006.005.012 0 .007-.005.013-.013.013-.007 0-.009-.006-.005-.013zm.56-.875c-.003-.006 0-.015.006-.02.014-.008.037.003.037.02 0 .014-.033.015-.042 0zm.842-.132a5.62 5.62 0 0 1-.001-.527l.007-.056.16-.092.514-.296c.194-.112.373-.213.398-.226l.045-.023-.003.149a8.71 8.71 0 0 0 0 .259c.004.18-.005.23-.044.243a.051.051 0 0 0-.03.025c-.003.01-.016.018-.028.018-.033 0-.08.036-.072.056.005.013 0 .015-.023.01-.022-.006-.042.003-.083.036-.03.025-.067.044-.084.044a.062.062 0 0 0-.05.03c-.012.017-.032.03-.045.03s-.035.011-.048.025-.04.024-.058.024c-.029 0-.088.03-.283.142l-.116.065a1.76 1.76 0 0 0-.105.063c-.04.028-.044.028-.05.001zm-.772-.016c0-.013.004-.024.01-.024.014 0 .015.033.002.042-.006.003-.01-.005-.012-.018zm1.683 0c-.005-.007-.006-.016-.002-.02.009-.008.032.007.032.022s-.02.014-.03-.002zM9.518 8.02c.008-.004.019-.003.023 0 .004.005-.003.008-.016.007-.014 0-.017-.003-.007-.007zm1.34-.04c0-.007.007-.013.014-.013s.01.006.005.012c-.004.007-.01.013-.013.013-.003 0-.005-.006-.005-.013zm-.059-.117c0-.014.003-.017.007-.008.004.01.003.02 0 .024-.005.004-.007-.003-.007-.016zm.194-.157c0-.01.007-.015.018-.01.01.003.018.011.018.017 0 .006-.008.01-.018.01a.018.018 0 0 1-.018-.017zm.657-.554c0-.007.006-.012.012-.012.007 0 .012.005.012.012a.012.012 0 0 1-.012.012.012.012 0 0 1-.012-.012zm1.01-.061c0-.007.006-.012.013-.012.006 0 .012.005.012.012a.012.012 0 0 1-.012.012.012.012 0 0 1-.012-.012zm-1.217-.098c0-.006.005-.012.012-.012.006 0 .015.006.019.012.004.007-.001.013-.012.013-.01 0-.019-.006-.019-.013zm1.34-.28c0-.006.005-.012.012-.012s.01.006.006.013c-.004.006-.01.012-.013.012-.003 0-.006-.006-.006-.012z" fill="#418b4e"/><path d="M8.482 12.319c-.001-.7 0-1.272.005-1.272.009 0 .51-.29.53-.307.013-.01.016-.154.016-.647 0-.349.005-.641.01-.649s.132-.085.282-.172l.535-.31c.144-.084.266-.15.271-.147.006.003.01.14.01.304 0 .246.003.299.017.304.017.007.14-.062.771-.432.162-.095.303-.175.313-.18.016-.005.019.031.019.286 0 .282.003.331.024.331.02 0 .519-.294.539-.318.02-.024.021-.073.021-.656v-.631l.034-.023c.046-.032.484-.283.494-.283.004 0 .009.135.01.301.003.27.006.302.024.305a1.69 1.69 0 0 0 .254-.132 9.27 9.27 0 0 1 .249-.14c.01-.005.014.369.013 1.591v1.598l-.247.142c-.136.078-.268.155-.293.172s-.154.091-.288.167c-.229.13-.495.284-1.113.641a7.482 7.482 0 0 1-.365.204c-.37.214-.46.268-.476.281-.01.009-.235.14-.5.29s-.628.36-.809.464-.332.19-.337.19-.011-.572-.013-1.272zm2.362-1.362.161-.09c.037-.02.108-.06.158-.09l.092-.054.003-.306a3.27 3.27 0 0 0-.004-.307c-.008 0-.065.032-.343.197l-.186.11v.297c0 .196.004.296.013.296a.68.68 0 0 0 .106-.053z" fill="#815d33"/><path d="m8.496 13.395-.006-1.258-.01-1.075.004-.015.534-.307.015-.647.01-.649.282-.171.535-.31.271-.148.01.304.017.305.771-.432.314-.18.018.285.024.331.539-.318.021-.656v-.63l.034-.024.494-.283.01.301.024.305.265-.138.252-.135-.257.16-.285.136-.057.01-.09.052-.36.21-.018.653.007.637.066-.036.161-.098.185-.106.134-.029.002.616-.001.675.01.302v.287l-.03.026-.17.104-.19.11-.752.422-.07.052-.09.049-.084.049-.15.085-.158.085-.02-.307-.01-.466-.007-.307-.017-.15-.103.055-.088.025-.04-.033.006.041-.098.104-.131.076-.06.674-.012.634-.237.138-.293.163-.328.185-.518.298-.258.151-.017-.187zm2.213-3.005-.02-.305v-.306l-.046.028-.05.038-.021.01-.066.03-.049.021-.009.004-.257.156-.02.017-.017.322-.002.301h.029l.055-.036.06-.037.087-.03.078-.023.017-.004.002-.023.201-.114.008.302.007.31z" fill="#766334"/><path d="m8.496 13.393.01-2.328.265-.16.257-.15.023-.66.03-.662.147-.082.262-.148.23-.14.24-.144.156-.087.015.3.022.311.444-.237.635-.37.017.293.018.307.304-.158.286-.165v.298l.007.298.066-.037.161-.097.185-.107.134-.028.002.615-.001.675.01.302-.027.309-1.668.96-.018-.307-.012-.466-.007-.307-.016-.15-.454.269-.06.672-.012.632-.268.153-.408.231-.377.217-.417.241-.18.104v-.197zm2.518-2.506.24-.164-.005-.628-.269.15-.27.145-.021-.305V9.78l-.046.028-.05.037-.021.01-.066.03-.049.022-.009.003-.257.157-.02.016-.017.322-.002.302h.029l.5-.268.008.302.007.31.318-.164z" fill="#7a5933"/><path d="M9.81 12.797c.01-.014.01-.076.001-.266a.238.238 0 0 1 .006-.083c.006-.008.006-.038.002-.067a.334.334 0 0 1 .006-.11c.012-.046.024-.063.065-.09a.65.65 0 0 0 .079-.06c.016-.014.038-.027.049-.027.01 0 .04-.014.065-.031l.046-.031-.007.613-.085.049c-.186.106-.256.138-.228.103zm1.445-2.03c.026-.027.1-.08.164-.117.24-.14.36-.212.393-.236l.033-.025v-.311c0-.285-.001-.31-.02-.304a8.557 8.557 0 0 0-.275.154c-.14.08-.267.145-.28.145s-.137.063-.272.14-.252.14-.26.14c-.009 0-.013-.085-.013-.29v-.29l.034-.034c.018-.018.06-.047.094-.064s.065-.038.07-.047a.036.036 0 0 1 .028-.017c.01 0 .018-.006.018-.012 0-.007.004-.012.009-.01.015.003.076-.03.076-.042 0-.006.005-.008.011-.004.006.004.013.003.015-.002.013-.028.144-.1.182-.1.015 0 .147-.07.293-.154.146-.084.27-.15.278-.145.008.005.012.117.012.311 0 .167.005.304.01.304a.195.195 0 0 0 .052-.028c.044-.03.112-.07.212-.125.034-.018.1-.057.146-.086s.092-.053.1-.053c.012 0 .016.048.017.21.002.313.002 1.021 0 1.366l-.002.304-.256.147c-.14.08-.26.147-.265.149a2.03 2.03 0 0 1-.012-.28 2.11 2.11 0 0 0-.013-.293c-.012-.012-.034-.001-.32.163l-.222.125zm-1.655.902a3.656 3.656 0 0 1-.006-.304c.001-.237.005-.297.019-.311.01-.01.065-.046.123-.081s.115-.07.125-.079c.028-.022.254-.151.266-.151.006 0 .015.009.019.02.01.025.007.575-.003.612a.078.078 0 0 1-.033.042l-.072.044a1.425 1.425 0 0 1-.11.061l-.251.129c-.064.033-.067.034-.077.018zm-.428-1.062a5.632 5.632 0 0 1-.005-.581.94.94 0 0 1 .097-.068c.18-.114.226-.144.268-.172.031-.021.044-.025.051-.014.017.027.012.61-.005.633-.008.01-.101.064-.206.118-.138.071-.194.094-.2.084zm.424-1.162.003-.287.032-.026c.018-.014.07-.048.114-.075a.954.954 0 0 0 .1-.065c.02-.02.261-.16.274-.16.006 0 .01.139.01.308v.308l-.125.075c-.069.04-.139.08-.156.086a1.728 1.728 0 0 0-.132.068.837.837 0 0 1-.113.056c-.007 0-.01-.116-.007-.288z" fill="#77552e"/></g></svg>