<svg width="64" height="64" viewBox="0 0 16.933 16.933" xmlns="http://www.w3.org/2000/svg"><defs><clipPath id="a"><rect x="1.587" y="1.587" width="13.758" height="13.758" ry=".794" fill="#71c947"/></clipPath></defs><circle cx="8.466" cy="8.466" r="7.144" fill="#f0f0f0"/><path d="M1.587 1.587h13.758v13.758H1.587z" clip-path="url(#a)" fill="none"/><path d="M1.587 1.587h13.758v13.758H1.587z" fill="none"/><g stroke-width=".012"><path d="M7.942 13.357a2841.655 2841.655 0 0 0-1.324-.765 807.555 807.555 0 0 0-2.356-1.36l-.287-.166V5.868l.3-.17a363.45 363.45 0 0 0 1.93-1.117c.304-.176.564-.325.578-.33.033-.014.422-.239.506-.292.037-.024.205-.122.372-.22l.55-.317a3.55 3.55 0 0 1 .255-.14c.012 0 .652.366 1.41.806l2.698 1.56.385.22.006 5.199-.027.017c-.045.028-.729.424-1.499.867l-.946.546A158.988 158.988 0 0 1 8.47 13.66l-.528-.303z" fill="#8a8888"/><path d="M8.461 12.668c-.002-.539-.003-1.27-.002-1.626.003-.977.003-1.213-.004-1.913l-.007-.643.04-.03c.022-.015.142-.086.266-.157a54.228 54.228 0 0 0 1.11-.642c.145-.083.275-.162.289-.175a26.463 26.463 0 0 1 1.105-.637 4.95 4.95 0 0 0 .316-.174c.713-.415 1.352-.783 1.37-.79.02-.007.02.157.018 2.587-.003 2.296-.005 2.596-.021 2.599-.01.001-.384.214-.83.471l-1.107.64-1.405.81a38.86 38.86 0 0 0-1.105.65c.003.005-.003.01-.012.01-.014 0-.017-.157-.021-.98zm-3.082-1.433a5.042 5.042 0 0 1-.266-.16c-.02-.018-.022-.047-.02-.344l.002-.324-.255-.149a9.96 9.96 0 0 1-.282-.168c-.027-.02-.028-.023-.028-.324 0-.298 0-.304-.027-.334a2.45 2.45 0 0 0-.265-.166 6.128 6.128 0 0 1-.25-.147c-.009-.01-.02-1.281-.01-1.281.001 0 .12.067.262.15.497.287.824.472.834.472.005 0 .005-.28 0-.621a13.42 13.42 0 0 1 0-.647c.01-.036.024-.033.128.027a314.336 314.336 0 0 1 .787.454c.114.065.221.131.238.147.054.048.524.314.543.306.016-.006.019-.052.019-.306 0-.165.003-.3.006-.3.015 0 .537.308.545.321.013.02.012.585 0 .605-.013.02.002.028-.297-.146a3.118 3.118 0 0 0-.241-.133c-.01 0-.013.093-.013.293 0 .243-.003.295-.018.3a1.631 1.631 0 0 1-.262-.134 8.377 8.377 0 0 0-.263-.15c-.016-.005-.019.035-.022.31-.003.273-.005.315-.022.318a2.082 2.082 0 0 1-.274-.143 2.4 2.4 0 0 0-.262-.14c-.003.004-.006.138-.006.298s-.004.295-.009.3a1.984 1.984 0 0 1-.265-.14 3.921 3.921 0 0 0-.269-.148c-.009 0-.013.103-.013.32v.321l.26.15c.526.305.811.473.83.49.019.014.02.053.02.32 0 .166-.003.305-.008.308a2.644 2.644 0 0 1-.271-.146 5.37 5.37 0 0 0-.272-.151c-.005 0-.01.142-.01.317 0 .246-.003.317-.015.317-.008 0-.125-.064-.26-.142zm2.227-.013-.524-.306a6.312 6.312 0 0 1-.284-.17c-.02-.018-.021-.067-.021-.652 0-.347.004-.635.01-.638.005-.004.13.062.275.146.146.083.267.152.27.152.003 0 .006-.14.006-.31 0-.195.004-.314.012-.319.007-.004.133.062.281.148.192.11.27.162.275.18.003.015.004.452.003.972-.003.83-.006.946-.022.949a2.388 2.388 0 0 1-.28-.152zm.028-3.888c-.17-.098-.259-.156-.257-.167.004-.02.513-.318.542-.318.028 0 .53.293.53.31 0 .013-.525.325-.547.325-.005 0-.126-.068-.268-.15zm1.675-.31a5.126 5.126 0 0 1-.26-.156c-.025-.024-.006-.037.29-.207l.267-.155.273.158c.19.11.272.164.272.179 0 .03-.51.323-.56.323-.025 0-.118-.047-.282-.142zm-.885.09a3.717 3.717 0 0 1-.15-.086 1.162 1.162 0 0 0-.1-.057 1.75 1.75 0 0 1-.126-.071 39.5 39.5 0 0 0-.566-.33.472.472 0 0 1-.076-.05c-.005-.008.48-.294.5-.294.005 0 .106.056.224.125l.283.162c.218.12.572.331.57.34a2.865 2.865 0 0 1-.365.213.504.504 0 0 1-.129.076.347.347 0 0 1-.065-.029zm1.422-1.09-.54-.313c-.17-.098-.258-.156-.256-.168.002-.01.116-.082.253-.161a5.62 5.62 0 0 0 .305-.185c.03-.022.158-.1.284-.172.163-.093.238-.13.258-.126a24.66 24.66 0 0 1 1.109.636c.004.008.002.02-.006.028s-.21.125-.449.26l-.534.307a.53.53 0 0 1-.122.06 3.585 3.585 0 0 1-.302-.165zm-2.789-.322-.546-.314c-.167-.096-.271-.162-.269-.172.005-.023.52-.32.554-.32a.433.433 0 0 0 .119-.054c.252-.149.413-.239.429-.239.01 0 .015-.007.01-.017-.003-.012.011-.029.04-.047.112-.07.502-.29.514-.29.016 0 .502.277.528.301.016.014.016.019 0 .033-.015.015-.433.26-.523.308-.03.016-.058-.002.381.254.066.04.116.075.11.08a6.241 6.241 0 0 1-.498.281c-.02 0-.022-.001-.236-.126a2.713 2.713 0 0 0-.143-.081.649.649 0 0 1-.07-.04c-.066-.042-.124-.07-.1-.048.01.01.3.18.478.28.029.016.052.036.052.045 0 .014-.524.325-.545.324a6.32 6.32 0 0 1-.285-.158z" fill="#c45757"/><path d="M8.461 12.668c-.002-.539-.003-1.27-.002-1.626.003-.977.003-1.213-.004-1.913l-.007-.643.04-.03c.022-.015.142-.086.266-.157a54.228 54.228 0 0 0 1.11-.642c.145-.083.275-.162.289-.175a26.463 26.463 0 0 1 1.105-.637 4.95 4.95 0 0 0 .316-.174c.713-.415 1.352-.783 1.37-.79.02-.007.02.157.018 2.587-.003 2.296-.005 2.596-.021 2.599-.01.001-.384.214-.83.471l-1.107.64-1.405.81a38.86 38.86 0 0 0-1.105.65c.003.005-.003.01-.012.01-.014 0-.017-.157-.021-.98zm-3.082-1.433a5.042 5.042 0 0 1-.266-.16c-.02-.018-.022-.047-.02-.344l.002-.324-.255-.149a9.96 9.96 0 0 1-.282-.168c-.027-.02-.028-.023-.028-.324 0-.298 0-.304-.027-.334a2.45 2.45 0 0 0-.265-.166 6.128 6.128 0 0 1-.25-.147c-.009-.01-.02-1.281-.01-1.281.001 0 .12.067.262.15.497.287.824.472.834.472.005 0 .005-.28 0-.621a13.42 13.42 0 0 1 0-.647c.01-.036.024-.033.128.027a314.336 314.336 0 0 1 .787.454c.114.065.221.131.238.147.054.048.524.314.543.306.016-.006.019-.052.019-.306 0-.165.003-.3.006-.3.015 0 .537.308.545.321.013.02.012.585 0 .605-.013.02.002.028-.297-.146a3.118 3.118 0 0 0-.241-.133c-.01 0-.013.093-.013.293 0 .243-.003.295-.018.3a1.631 1.631 0 0 1-.262-.134 8.377 8.377 0 0 0-.263-.15c-.016-.005-.019.035-.022.31-.003.273-.005.315-.022.318a2.082 2.082 0 0 1-.274-.143 2.4 2.4 0 0 0-.262-.14c-.003.004-.006.138-.006.298s-.004.295-.009.3a1.984 1.984 0 0 1-.265-.14 3.921 3.921 0 0 0-.269-.148c-.009 0-.013.103-.013.32v.321l.26.15c.526.305.811.473.83.49.019.014.02.053.02.32 0 .166-.003.305-.008.308a2.644 2.644 0 0 1-.271-.146 5.37 5.37 0 0 0-.272-.151c-.005 0-.01.142-.01.317 0 .246-.003.317-.015.317-.008 0-.125-.064-.26-.142zm.262-.185v-.303l-.257-.149a4.28 4.28 0 0 0-.269-.148c-.007 0-.01.115-.008.306l.003.306.25.145a3.4 3.4 0 0 0 .266.145c.012 0 .015-.068.015-.302zm.57-2.252a3.38 3.38 0 0 0-.007-.31c-.007-.026-.103-.086-.545-.34-.295-.171-.54-.31-.546-.31-.005 0-.008.14-.006.313l.003.314.531.308c.292.17.54.308.55.306.015-.002.018-.044.02-.281zm1.395 2.424-.524-.306a6.312 6.312 0 0 1-.284-.17c-.02-.018-.021-.067-.021-.652 0-.347.004-.635.01-.638.005-.004.13.062.275.146.146.083.267.152.27.152.003 0 .006-.14.006-.31 0-.195.005-.314.012-.319.007-.004.133.062.281.148.193.11.27.162.275.18.003.015.004.452.003.972-.003.83-.006.946-.022.949a2.388 2.388 0 0 1-.28-.152zm.289-.182a2.436 2.436 0 0 0-.016-.298 9.233 9.233 0 0 0-.29-.171l-.531-.306a1.653 1.653 0 0 0-.26-.135 2.555 2.555 0 0 0-.007.308l.004.298.25.145c.819.475.835.484.845.466a2.39 2.39 0 0 0 .005-.307zm.001-1.281a2.754 2.754 0 0 0-.006-.305 4.725 4.725 0 0 0-.53-.3 2.634 2.634 0 0 0-.007.308l.003.298.257.149c.14.082.261.148.268.146.008-.003.013-.115.015-.296zm.001-2.284c.009-.003.02-.003.024.001s-.004.007-.016.007c-.015-.001-.018-.004-.008-.008zm.537-.308a6.67 6.67 0 0 0-.504-.295c-.038-.018-.043-.023-.02-.023.036 0 .539.29.539.312 0 .02-.008.023-.015.006zm.875-.143a5.126 5.126 0 0 1-.26-.156c-.025-.024-.006-.037.29-.207l.267-.155.273.158c.19.11.272.164.272.179 0 .03-.51.323-.56.323-.025 0-.118-.047-.282-.142zm-.885.09a3.717 3.717 0 0 1-.15-.086 1.162 1.162 0 0 0-.1-.057 1.75 1.75 0 0 1-.125-.071 39.5 39.5 0 0 0-.567-.33.472.472 0 0 1-.076-.05c-.005-.008.48-.294.5-.294.005 0 .106.056.224.125l.283.162c.218.12.572.331.57.34a2.865 2.865 0 0 1-.365.213.504.504 0 0 1-.129.076.347.347 0 0 1-.065-.029zm1.422-1.09-.54-.313c-.162-.093-.258-.156-.256-.167.001-.009.017-.024.033-.034.03-.018.03-.018.003.003-.047.036-.123-.015.642.426.282.162.426.24.442.235.013-.004.021-.001.017.005-.016.027-.078 0-.34-.154zm.385.124c0-.003.01-.012.024-.02.014-.006.025-.01.025-.006 0 .003-.011.012-.025.019-.013.007-.024.01-.024.007zm.06-.037c0-.003.012-.012.025-.019.014-.007.025-.01.025-.007 0 .004-.011.012-.025.02-.013.007-.024.01-.024.006zm.086-.048c0-.004.011-.012.025-.02.013-.007.024-.01.024-.007 0 .004-.01.012-.024.02-.014.007-.025.01-.025.007zm.086-.05c0-.003.01-.011.024-.018.014-.008.025-.01.025-.007s-.011.012-.025.019c-.013.007-.024.01-.024.007zm.085-.048c0-.003.011-.012.025-.02.013-.006.024-.01.024-.006 0 .003-.011.012-.024.019-.014.007-.025.01-.025.007zm.061-.037c0-.003.011-.012.025-.019.013-.007.024-.01.024-.007s-.011.012-.024.02c-.014.006-.025.01-.025.006zm.075-.054c.009-.014.013-.027.01-.03a86.314 86.314 0 0 0-.542-.313c-.513-.295-.538-.308-.573-.295l-.037.014.043-.036c.023-.02.153-.1.29-.178.175-.101.255-.141.275-.137a24.66 24.66 0 0 1 1.109.636c.013.02.002.028-.278.187-.334.191-.316.182-.297.152zm-3.348-.022c.008-.004.019-.003.023 0 .004.005-.003.008-.016.007-.014 0-.017-.003-.007-.007zm.537-.308a36.107 36.107 0 0 0-1.09-.636c-.022-.01-.021-.01.008-.011a.427.427 0 0 0 .124-.055c.252-.15.413-.239.43-.239.009 0 .014-.007.01-.016-.003-.01.003-.024.013-.033.016-.013.018-.012.012.004-.008.02.022.038.371.238l.151.087.05-.025c.063-.032.045-.01-.02.024l-.047.024.145.085.264.154c.067.04.116.075.11.08a6.241 6.241 0 0 1-.498.281c-.02 0-.022-.001-.236-.126a2.713 2.713 0 0 0-.143-.081.649.649 0 0 1-.07-.04c-.066-.042-.124-.07-.1-.048.01.01.3.18.478.28.029.016.052.037.052.047 0 .02-.008.023-.014.006zm-1.128-.02c-.023-.018-.022-.019.004-.006.015.008.027.016.027.02 0 .009-.006.006-.03-.014zm-.085-.049c-.023-.018-.023-.018.003-.006.016.008.028.016.028.02 0 .009-.006.006-.031-.014zm2.484.002c0-.004.011-.012.025-.02.013-.007.024-.01.024-.006 0 .003-.01.011-.024.019-.014.007-.025.01-.025.007zm.086-.05c0-.003.01-.011.024-.018.014-.008.025-.01.025-.007s-.011.012-.025.019c-.013.007-.024.01-.024.007zm.06-.036c0-.003.012-.012.025-.019.014-.007.025-.01.025-.007s-.011.012-.025.02c-.013.006-.024.01-.024.006zm.086-.049c0-.003.011-.012.025-.019.013-.007.024-.01.024-.007 0 .004-.01.012-.024.02-.014.007-.025.01-.025.006zm.086-.048c0-.004.01-.012.024-.02.014-.007.025-.01.025-.007 0 .004-.011.012-.025.02-.013.007-.024.01-.024.007zm-3.223-.086c0-.003.011-.012.025-.02.013-.006.024-.01.024-.006 0 .003-.01.012-.024.02-.014.006-.025.01-.025.006zm.061-.037c0-.003.011-.011.025-.019.013-.007.024-.01.024-.007 0 .004-.01.012-.024.02-.014.007-.025.01-.025.006zm.061-.036c0-.004.017-.015.037-.025.02-.01.037-.017.037-.013a.128.128 0 0 1-.037.025c-.02.01-.037.016-.037.013zm.086-.05c0-.003.016-.014.037-.024.02-.01.036-.016.036-.013 0 .003-.016.015-.036.025-.02.01-.037.016-.037.013zm.091-.051a.53.53 0 0 1 .123-.068.53.53 0 0 1-.123.068zm.14-.082c0-.004.017-.015.037-.025.02-.01.037-.017.037-.013 0 .003-.016.014-.037.025-.02.01-.036.016-.036.013zM8.01 4.83c0-.004.011-.012.025-.02.013-.007.024-.01.024-.006 0 .003-.01.012-.024.019-.014.007-.025.01-.025.007zm.061-.037c0-.003.017-.015.037-.025.02-.01.037-.016.037-.013 0 .003-.017.015-.037.025-.02.01-.037.016-.037.013zm.086-.049c0-.003.016-.015.036-.025.02-.01.037-.016.037-.013 0 .004-.016.015-.037.025-.02.01-.036.016-.036.013zm.091-.052a.53.53 0 0 1 .122-.068.53.53 0 0 1-.122.068zm.165-.099c.017-.014.028-.027.024-.03a10.45 10.45 0 0 0-.506-.29c-.027-.013-.04-.023-.028-.024.03 0 .54.298.54.317 0 .009-.013.024-.03.034l-.03.018zm-.928-.105c0-.003.011-.012.025-.02.013-.006.024-.01.024-.006 0 .003-.01.012-.024.019-.014.007-.025.01-.025.007zm.318-.183c0-.003.01-.012.024-.02.014-.006.025-.01.025-.006 0 .003-.011.012-.025.019-.013.007-.024.01-.024.007z" fill="#9d5b5b"/><path d="M8.461 12.668c-.002-.539-.003-1.27-.002-1.626.003-.977.003-1.213-.004-1.913l-.007-.643.04-.03c.022-.015.142-.086.266-.157a54.228 54.228 0 0 0 1.11-.642c.145-.083.275-.162.289-.175a26.463 26.463 0 0 1 1.105-.637 4.95 4.95 0 0 0 .316-.174c.713-.415 1.352-.783 1.37-.79.02-.007.02.157.018 2.587-.003 2.296-.005 2.596-.021 2.599-.01.001-.384.214-.83.471l-1.107.64-1.405.81a38.86 38.86 0 0 0-1.105.65c.003.005-.003.01-.012.01-.014 0-.017-.157-.021-.98zm1.407-.456a5.55 5.55 0 0 0 .268-.16c.02-.018.022-.05.022-.335 0-.257-.003-.315-.017-.315-.015 0-.507.28-.542.308-.011.009-.015.088-.015.32 0 .169.004.311.008.316a.031.031 0 0 0 .02.008c.005 0 .121-.064.257-.142zm-.249-.014c-.003-.3.004-.473.018-.487.014-.014.481-.285.491-.285.003 0 .005.134.005.298 0 .223-.004.3-.015.31a16.14 16.14 0 0 1-.492.283.685.685 0 0 1-.007-.119zm1.976-2.281.534-.307a4.93 4.93 0 0 0 .266-.159c.02-.017.02-.045.018-.33-.002-.193-.008-.313-.016-.315-.008-.003-.012.108-.012.315v.319l-.259.15a4.948 4.948 0 0 1-.287.159c-.015.004-.13.067-.253.139l-.254.145-.027.015v-.605l.229-.131c.287-.165.312-.18.304-.188a5.252 5.252 0 0 0-.548.315c-.02.022-.022.056-.022.315 0 .284.004.33.026.33.006 0 .141-.075.3-.167zm-1.978-.178c-.018-.014-.021-.051-.024-.32l-.003-.306-.006.64h.027c.024 0 .024 0 .006-.014zm.827-.458c.135-.078.254-.149.266-.16.02-.016.021-.048.021-.326 0-.193-.004-.312-.012-.317-.008-.005-.012.104-.012.316v.322l-.28.162a7.25 7.25 0 0 0-.282.167c0 .007.029-.009.3-.164zm1.413-1.141-.003-.32.253-.147c.14-.08.26-.148.27-.15.012-.004.015.056.012.314-.002.175 0 .318.004.318.019 0 .023-.056.023-.342 0-.192-.005-.306-.013-.311-.016-.01-.546.296-.561.324a4.977 4.977 0 0 0-.005.615c.004.01.011.02.016.02a3.3 3.3 0 0 0 .004-.321zm-5.923 2.754a9.199 9.199 0 0 1-.275-.161c-.012-.01-.412-.244-.53-.31a21.96 21.96 0 0 1-.58-.34c-.015-.012-.018-.068-.018-.318 0-.297-.001-.303-.028-.333a2.45 2.45 0 0 0-.265-.166 6.128 6.128 0 0 1-.25-.147c-.009-.01-.02-1.281-.01-1.281.001 0 .12.067.262.15.549.317.825.472.838.472.008 0 .014.005.014.01s.128.083.284.173l.284.164v.302c0 .166-.004.305-.01.31a2.013 2.013 0 0 1-.264-.14 3.918 3.918 0 0 0-.269-.148c-.009 0-.013.103-.013.32v.321l.26.15c.526.305.811.473.83.49.019.014.02.053.02.32 0 .166-.003.305-.008.308a2.65 2.65 0 0 1-.272-.146zm-.842-1.456c0-.285-.002-.317-.021-.334a8.084 8.084 0 0 0-.528-.302c-.008 0-.012.11-.012.322v.322l.265.154c.146.084.272.153.28.154.013 0 .016-.071.016-.316zm-.278.14a5.366 5.366 0 0 1-.247-.15 1.726 1.726 0 0 1-.01-.3l.004-.29.5.289.004.295c.002.162-.001.295-.006.294-.005 0-.116-.063-.245-.138zm2.548.833a26.37 26.37 0 0 0-.558-.316l-.028-.01v-.312c0-.17.005-.313.01-.317a5.36 5.36 0 0 1 .554.315 3.4 3.4 0 0 0 .284.173c.183.105.276.166.28.182.01.038.008.56-.002.576-.006.01-.173-.08-.54-.291zm-.874-1.796c-.226-.13-.26-.153-.266-.184a4.367 4.367 0 0 1-.007-.324c0-.214-.004-.293-.015-.306-.009-.01 0-.004.021.014.06.053.53.319.55.311.015-.006.018-.052.018-.306 0-.165.003-.3.006-.3.015 0 .537.308.545.321.013.02.012.585 0 .605-.013.02.002.028-.297-.146a3.16 3.16 0 0 0-.241-.133c-.009 0-.014.099-.016.296-.003.252-.006.296-.022.299a2.332 2.332 0 0 1-.276-.147zm-.844-.475-.528-.305v-.621l.072.04.536.309.466.269v.308c0 .17-.004.307-.009.307-.005 0-.246-.139-.537-.307zm-.567-.358a5.47 5.47 0 0 1-.002-.596.032.032 0 0 1 .027-.02c.015 0 .016.003.005.01-.01.007-.015.089-.018.312a2.22 2.22 0 0 1-.012.294zm.667-.244c-.022-.018-.022-.019.004-.006.015.008.028.016.028.02 0 .009-.007.006-.032-.014zm3.565-.514a4.494 4.494 0 0 1-.262-.159c-.01-.01.094.048.232.128l.274.158c.014.008.02.015.013.015-.007 0-.123-.064-.257-.142zm.55-.005c.14-.08.263-.154.273-.164.02-.02-.003-.035-.325-.22a2.429 2.429 0 0 1-.206-.125c.003-.002.128.067.278.154.19.11.272.164.272.179 0 .015-.078.067-.262.172a4.304 4.304 0 0 1-.274.151c-.007 0 .103-.066.244-.147zm-1.435.094a3.717 3.717 0 0 1-.15-.085 1.162 1.162 0 0 0-.1-.057 1.75 1.75 0 0 1-.125-.071c-.121-.072-.44-.258-.567-.33a.472.472 0 0 1-.076-.05 5.73 5.73 0 0 1 .5-.293c.005 0 .106.056.224.124.118.069.245.141.283.162.218.12.572.331.57.34a2.865 2.865 0 0 1-.365.213.504.504 0 0 1-.129.076.347.347 0 0 1-.065-.029zm-.58-1.63a7.45 7.45 0 0 0-.36-.209 1.667 1.667 0 0 0-.142-.08 4.24 4.24 0 0 1-.165-.088 37.026 37.026 0 0 0-.204-.117.646.646 0 0 1-.141-.094.87.87 0 0 1 .106-.067l.245-.142c.079-.045.152-.083.163-.083.025 0 .293.151.684.386l.264.157c.066.038.116.074.11.08-.028.027-.482.28-.501.28a.165.165 0 0 1-.059-.024zm1.78-.298a7.85 7.85 0 0 1 .503-.287c.002.002-.082.054-.187.114-.256.147-.342.194-.316.173z" fill="#706e6e"/><path d="m10.16 12.345.003-.29.11-.064a5.42 5.42 0 0 1 .421-.235c.009 0 .012.093.01.289l-.004.29-.26.15a4.45 4.45 0 0 1-.272.15c-.007 0-.01-.114-.008-.29zm-.541-.147c-.003-.3.003-.473.017-.487.015-.014.482-.285.492-.285.002 0 .005.134.005.298 0 .223-.004.3-.015.31-.019.015-.485.283-.493.283a.685.685 0 0 1-.006-.119zm-.597-.47c0-.165-.004-.303-.01-.306a4.515 4.515 0 0 0-.455.252c-.03.018-.06.03-.064.025a13.251 13.251 0 0 1-.008-.647v-.638l.027-.02c.028-.02.386-.23.705-.415.09-.052.214-.124.273-.16a.657.657 0 0 1 .129-.065c.017 0 .017-.002-.002-.013-.02-.011-.021-.04-.021-.315s-.002-.303-.02-.303c-.02 0-.472.253-.498.278a.046.046 0 0 1-.028.011c-.013 0-.016-.063-.016-.305v-.305l.066-.043c.037-.023.126-.075.199-.116.194-.11.246-.143.276-.176a25.914 25.914 0 0 1 1.421-.823l.272-.154v-.307c0-.23.004-.31.015-.32.024-.019.477-.278.562-.32.042-.022.183-.1.314-.176l.507-.293c.147-.086.272-.162.277-.17.005-.007.009.273.009.622v.634l-.259.147c-.142.08-.267.155-.278.165-.01.011-.142.09-.292.176a2.62 2.62 0 0 0-.278.173c-.003.01-.016.017-.028.017a5.23 5.23 0 0 0-.519.292 5.494 5.494 0 0 1-.296.177c-.149.085-.271.16-.271.167 0 .007-.006.009-.012.005-.008-.005-.012.216-.012.63 0 .501-.003.64-.015.652a4.815 4.815 0 0 1-.254.152 2.98 2.98 0 0 0-.275.17c-.02.02-.143.096-.274.172a4.293 4.293 0 0 0-.26.156c-.019.016-.021.047-.021.315 0 .18.005.297.012.297.006 0 .12-.062.253-.138.133-.076.274-.155.315-.176.04-.02.169-.092.286-.16s.22-.124.23-.124c.011 0 .015.067.015.304 0 .168.003.313.007.323.004.011-.003.021-.019.026a9.828 9.828 0 0 0-.516.294 4.57 4.57 0 0 0-.322.178c-.586.342-.804.466-.825.471-.02.006-.022-.01-.022-.294zm1.431-2.453c.14-.08.253-.148.253-.151 0-.007.029-.023-.28.154a6.886 6.886 0 0 0-.275.162c-.02.019.032-.01.302-.165zm.286 2.4a3.051 3.051 0 0 1-.008-.305v-.296l.052-.03.257-.147a2.97 2.97 0 0 1 .217-.118c.007 0 .01.126.008.302l-.003.302-.092.054c-.386.227-.422.247-.431.237zm1.115-.626v-.62l.255-.148a3.7 3.7 0 0 1 .269-.149c.009 0 .013.09.014.278 0 .153.003.401.007.552.003.151.002.303-.002.336-.007.06-.008.061-.095.112a13.6 13.6 0 0 0-.268.155l-.18.104zm-.55-1.304v-.302l.23-.131c.287-.165.312-.18.304-.188a2.99 2.99 0 0 0-.283.153c-.152.088-.28.16-.282.16-.003 0-.005-.142-.005-.316 0-.283.002-.319.021-.341.012-.014.137-.092.277-.173.141-.08.26-.154.266-.162.007-.012.01-.012.01 0 0 .008.004.015.009.015.005 0 .007-.144.005-.32l-.003-.32.253-.147c.14-.08.26-.148.27-.15.013-.004.015.056.012.314-.002.25 0 .317.012.313.012-.005.015.066.015.329s-.003.333-.015.329c-.012-.005-.015.063-.015.313v.32l-.259.15a4.948 4.948 0 0 1-.287.158c-.015.005-.13.067-.254.14a22 22 0 0 1-.253.144l-.027.015v-.303zm-6.49-.167a5.366 5.366 0 0 1-.248-.15 1.726 1.726 0 0 1-.009-.3l.004-.29.5.289.003.295a2.1 2.1 0 0 1-.006.294c-.005 0-.115-.062-.244-.138zm.83-1.438-.528-.305v-.621l.071.04.537.31.466.268v.308c0 .17-.004.308-.009.307-.005 0-.247-.138-.537-.307z" fill="#a43838"/><path d="m10.16 12.345.003-.29.11-.064a5.42 5.42 0 0 1 .421-.235c.009 0 .012.093.01.289l-.004.29-.26.15a4.45 4.45 0 0 1-.272.15c-.007 0-.01-.114-.008-.29zm-1.138-.618c0-.164-.004-.302-.01-.305a4.515 4.515 0 0 0-.455.252c-.03.018-.06.03-.064.025a13.251 13.251 0 0 1-.008-.647v-.638l.027-.02c.028-.02.386-.23.705-.415l.273-.16a.7.7 0 0 1 .126-.065c.009 0 .016-.005.016-.012s.004-.011.01-.01c.01.003.067-.026.076-.04a.196.196 0 0 1 .049-.028.655.655 0 0 0 .122-.07.098.098 0 0 1 .033-.016c.015-.005.028-.014.028-.02 0-.007.005-.01.012-.005.007.004.012.001.012-.006s.007-.013.016-.013a.2.2 0 0 0 .064-.035.326.326 0 0 1 .06-.038c.023-.005.096-.045.349-.191l.25-.145-.004.311c-.003.22-.008.316-.019.326a4.847 4.847 0 0 1-.252.15 3.142 3.142 0 0 0-.275.171c-.02.019-.143.096-.274.172a4.293 4.293 0 0 0-.26.156c-.019.016-.021.047-.021.315 0 .18.005.297.012.297.006 0 .12-.062.253-.138.133-.076.274-.155.315-.176.04-.02.169-.092.286-.16s.22-.124.23-.124c.011 0 .015.067.015.304 0 .168.003.313.007.323.004.011-.003.021-.019.026a9.828 9.828 0 0 0-.516.294 4.57 4.57 0 0 0-.322.178c-.586.342-.804.466-.825.471-.02.006-.022-.01-.022-.294zm1.717-.053a3.051 3.051 0 0 1-.008-.304v-.296l.052-.03.257-.147a2.97 2.97 0 0 1 .217-.118c.007 0 .01.126.008.302l-.003.302-.092.054c-.386.227-.422.247-.431.237zm1.115-.625v-.62l.255-.149c.14-.081.262-.148.269-.148.009 0 .013.09.014.278 0 .153.003.401.007.552.003.151.002.302-.002.336-.007.06-.008.061-.095.111l-.268.155-.18.105zm-.586-1.928c0-.284.002-.319.021-.341.012-.014.137-.092.278-.173.14-.081.258-.154.26-.16.004-.01.008-.009.014 0 .007.012.022.008.057-.015.084-.054.453-.264.486-.277l.031-.012v.336c0 .203-.004.334-.011.33a2.189 2.189 0 0 0-.276.146 7.338 7.338 0 0 1-.29.164 5.696 5.696 0 0 0-.293.164l-.272.154c-.003 0-.005-.143-.005-.316zm-2.234-.014v-.305l.066-.043c.037-.023.126-.076.199-.116.194-.11.246-.143.276-.176a25.914 25.914 0 0 1 1.421-.823l.272-.154v-.307c0-.23.004-.31.015-.32.024-.019.477-.278.562-.32.042-.022.183-.1.314-.176l.507-.293c.147-.086.272-.162.277-.17.005-.007.009.272.009.622v.634l-.259.147c-.142.08-.267.155-.278.165-.01.01-.142.09-.292.176a2.62 2.62 0 0 0-.278.173c-.003.01-.016.017-.028.017a5.23 5.23 0 0 0-.519.292 5.494 5.494 0 0 1-.296.177 3.54 3.54 0 0 0-.271.164c0 .005-.01.008-.022.008-.019 0-.888.494-1.07.608a.257.257 0 0 1-.07.036 7.79 7.79 0 0 0-.491.278.046.046 0 0 1-.028.011c-.013 0-.016-.063-.016-.305z" fill="#5c5858"/><path d="M9.043 11.369a3.234 3.234 0 0 1-.008-.317v-.308l.033-.023a8.07 8.07 0 0 1 .502-.284c.01 0 .014.087.014.316v.316l-.241.138-.267.154c-.014.009-.029.012-.033.008zm2.8-2.255c0-.004.016-.015.036-.025.02-.01.036-.017.036-.013 0 .003-.016.014-.036.025s-.037.016-.037.013zM9.595 8.79v-.318l.046-.028a32.9 32.9 0 0 1 1.05-.599c.02-.001.021.027.024.31l.004.313-.031.014a64.43 64.43 0 0 0-1.086.625c-.004 0-.007-.143-.007-.317zm2.332.275c0-.003.01-.012.024-.02.013-.006.024-.01.024-.006 0 .003-.01.012-.024.02-.013.006-.024.01-.024.006zm.06-.037c0-.003.017-.014.037-.025s.037-.016.037-.013c0 .004-.017.015-.037.025s-.036.017-.036.013zm.086-.049c0-.003.017-.014.037-.025s.036-.016.036-.013c0 .004-.016.015-.036.026s-.037.016-.037.012zm.086-.048c0-.004.01-.012.024-.02.013-.007.024-.01.024-.006 0 .003-.01.012-.024.019-.014.007-.024.01-.024.007zm.06-.037c0-.003.017-.015.037-.025s.037-.016.037-.013c0 .003-.017.015-.037.025s-.036.016-.036.013zm.086-.049c0-.003.016-.015.037-.025s.036-.016.036-.013c0 .004-.016.015-.036.025s-.037.016-.037.013zm-.403-.415c0-.003.017-.015.037-.025.02-.01.036-.016.036-.013 0 .004-.016.015-.036.025s-.037.016-.037.013zm.086-.049c0-.003.01-.011.024-.019.013-.007.024-.01.024-.007 0 .004-.01.012-.024.02-.013.007-.024.01-.024.006zm.085-.048c0-.004.011-.012.024-.02.014-.007.025-.01.025-.006 0 .003-.011.012-.025.019-.013.007-.024.01-.024.007zm.061-.037c0-.004.017-.015.037-.025s.036-.016.036-.013c0 .003-.016.015-.036.025s-.037.016-.037.013zm.086-.049c0-.003.016-.015.036-.025s.037-.016.037-.013c0 .003-.017.015-.037.025s-.036.016-.036.013zm.085-.049c0-.003.011-.012.024-.019.014-.007.025-.01.025-.007 0 .004-.011.012-.025.02-.013.007-.024.01-.024.006z" fill="#7d3131"/></g></svg>