<svg xmlns="http://www.w3.org/2000/svg" width="64" height="64" viewBox="0 0 16.933 16.933"><defs><clipPath id="a"><rect width="13.758" height="13.758" x="1.587" y="1.587" fill="#71c947" ry=".794"/></clipPath></defs><circle cx="8.466" cy="8.466" r="7.144" fill="#f0f0f0"/><path fill="none" d="M1.587 1.587h13.758v13.758H1.587z" clip-path="url(#a)"/><path fill="none" d="M1.587 1.587h13.758v13.758H1.587z"/><path fill="#8a8888" d="m7.942 13.357-3.967-2.291V5.868c1.506-.846 2.986-1.739 4.491-2.586 1.505.85 2.993 1.729 4.493 2.586l.006 5.199c-1.494.872-2.997 1.728-4.495 2.593z"/><path fill="#c45757" d="M8.461 12.668c-.007-1.394.008-2.788-.013-4.182 1.488-.886 2.995-1.74 4.496-2.605.043 1.38.007 2.766.015 4.149-.06.45.204 1.106-.392 1.246-1.363.789-2.732 1.566-4.085 2.372-.032-.324-.013-.654-.021-.98m-3.082-1.433c-.488-.064-.197-.572-.308-.842-.333-.172-.697-.346-.541-.8.032-.396-.73-.31-.55-.776.046-.27-.115-.893.076-.935.326.152.757.508 1.02.529.031-.402-.07-.88.027-1.241.569.294 1.1.66 1.667.956.03-.33-.061-.797.35-.42.33.058.26.584.18.74-.229-.11-.618-.468-.511.014.116.502-.323.132-.553.024-.078.206.163.932-.308.477-.6-.606.066.928-.542.318-.381-.447-.32.346-.234.52.348.203.7.401 1.042.613-.006.207.169.922-.26.482l-.271-.151c-.078.241.168.887-.284.492m2.227-.013c-.275-.166-.568-.315-.82-.503.037-.364-.122-1.084.086-1.223.236.125.573.42.466-.052-.19-.572.697-.087.57.243-.008.561.02 1.128-.021 1.687zm.028-3.888c-.57-.13.305-.645.512-.364.596.13-.078.506-.327.47zm1.675-.31c-.622-.18.112-.359.297-.518.185.144.783.308.333.48-.225.154-.395.248-.63.038m-.885.09c-.338-.2-.69-.377-1.018-.594.309-.326.644-.286.962-.033.21.18 1.066.392.25.579l-.129.076zm1.422-1.09c-.265-.16-.545-.299-.796-.481.705-.374 1.481-1.31 2.209-.008-.244.208-.58.342-.86.52-.178.092-.377.296-.553-.03zm-2.789-.322c-.272-.162-.556-.305-.815-.486.406-.288.895-.449 1.278-.752.288-.326.696-.128.916.119-.196.16-.815.314-.286.478.231.133.684.359-.244.445-.215-.105-.837-.47-.298-.145.709.13-.422.7-.551.341"/><path fill="#9d5b5b" d="M8.461 12.668c-.007-1.394.008-2.788-.013-4.182 1.488-.886 2.995-1.74 4.496-2.605.043 1.38.007 2.766.015 4.149-.06.45.204 1.106-.392 1.246-1.363.789-2.732 1.566-4.085 2.372-.032-.324-.013-.654-.021-.98m-3.082-1.433c-.488-.064-.197-.572-.308-.842-.333-.172-.697-.346-.541-.8.032-.396-.73-.31-.55-.776.046-.27-.115-.893.076-.935.326.152.757.508 1.02.529.031-.402-.07-.88.027-1.241.569.294 1.1.66 1.667.956.03-.33-.061-.797.35-.42.33.058.26.584.18.74-.229-.11-.618-.468-.511.014.116.502-.323.132-.553.024-.078.206.163.932-.308.477-.6-.606.066.928-.542.318-.381-.447-.32.346-.234.52.348.203.7.401 1.042.613-.006.207.169.922-.26.482l-.271-.151c-.078.241.168.887-.284.492m.262-.185c.003-.167.046-.357-.166-.4-.188-.115-.456-.332-.369.038.026.165-.08.408.147.457.25.134.462.384.388-.095m.57-2.252c-.015-.138.059-.335-.116-.395-.297-.11-.807-.601-.988-.473.058.18-.107.494.098.59.328.187.65.386.986.559.034-.09.011-.188.02-.281m1.395 2.424c-.275-.166-.568-.315-.82-.503.037-.364-.122-1.084.086-1.223.236.125.573.42.466-.052-.189-.572.697-.088.57.243-.008.561.02 1.128-.021 1.687zm.289-.182c0-.217.026-.482-.33-.483-.255-.144-.503-.3-.767-.427.076.214-.157.623.163.702.306.152.636.424.93.499q.013-.146.004-.291m.001-1.281c-.001-.297.057-.67-.536-.605.077.214-.159.623.162.702.236.115.436.374.374-.097m.001-2.284c.073-.013-.026.024 0 0m.537-.308-.504-.295c-.052-.061.529.258.504.295m.875-.143c-.622-.18.112-.359.297-.518.185.144.783.308.333.48-.225.154-.395.248-.63.038m-.885.09c-.338-.2-.69-.377-1.018-.594.309-.326.644-.286.962-.033.21.18 1.066.392.25.579l-.129.076zm1.422-1.09c-.265-.16-.544-.3-.796-.48.192.093.682.418.999.575.324.148-.135-.017-.202-.094zm.385.124c.065-.06.066-.01 0 0m.06-.037c.07-.06.065-.008 0 0m.086-.048c.07-.062.063-.01 0 0m.086-.05c.074-.06.058-.006 0 0m.085-.048c.068-.06.063-.01 0 0m.061-.037c.07-.06.062-.007 0 0m.075-.054c-.066-.12-.29-.18-.418-.277-.177-.14-.65-.32-.681-.383.528-.334 1.174-.796 1.674.321-.132.134-.445.279-.575.339m-3.348-.022c.052-.02.006.023 0 0m.537-.308-1.09-.636c.314-.102.6-.57.906-.147.188.149.308.06.243.173.157.098.328.176.472.291l-.498.281c-.215-.105-.837-.47-.298-.145.055.048.297.138.265.183m-1.128-.02c.01-.032.068.06 0 0m-.085-.049c.007-.033.07.062 0 0m2.484.002c.068-.06.063-.01 0 0m.086-.05c.074-.06.058-.006 0 0m.06-.036c.07-.06.065-.008 0 0m.086-.049c.07-.06.062-.007 0 0m.086-.048c.066-.061.065-.011 0 0m-3.223-.086c.07-.063.063-.006 0 0m.061-.037c.07-.06.062-.007 0 0m.061-.036c.1-.074.097-.027 0 0m.086-.05c.107-.076.089-.021 0 0m.091-.051.123-.068zm.14-.082c.1-.074.097-.027 0 0M8.01 4.83c.068-.06.063-.01 0 0m.061-.037c.1-.074.097-.027 0 0m.086-.049c.097-.073.097-.028 0 0m.091-.052.122-.068zm.165-.099.024-.03-.506-.29c.036-.03.57.32.482.32m-.928-.105c.068-.06.063-.01 0 0m.318-.183c.065-.06.066-.01 0 0"/><path fill="#706e6e" d="M8.461 12.668c-.007-1.394.008-2.788-.013-4.182 1.488-.886 2.995-1.74 4.496-2.605.043 1.38.007 2.766.015 4.149-.06.45.204 1.106-.392 1.246-1.363.789-2.732 1.566-4.085 2.372-.032-.324-.013-.654-.021-.98m1.407-.456c.406.033.362-.797.187-.766-.457.104-.565.516-.443.908.087-.044.175-.095.256-.142m-.249-.014c-.115-.413.148-.64.509-.772-.02.366.165.897-.502.891zm1.976-2.281c.272-.16.554-.307.812-.485.03-.256-.024-.912-.022-.311 0 .17.05.37-.166.415-.304.172-.612.337-.914.512v-.605c.295-.162 1.102-.655-.015-.004.02.284-.22.933.305.478m-1.978-.178c-.042-.083-.018-.708-.028-.544l-.005.558c.002-.005.076.01.033-.014m.827-.458c.431-.003.268-.757.266-.726-.068.187.11.512-.098.616-.175.099-.702.413-.258.162zm1.413-1.141c-.001-.17-.054-.37.163-.417.259-.201.464-.232.368.178-.044.746.226-.808-.215-.28-.275.17-.689.298-.336.82.038.009.015-.165.022-.231zm-5.923 2.754c-.454-.304-1.019-.525-1.4-.88.072-.434-.047-.79-.546-.895.043-.359-.124-1.097.068-1.237.536.308 1.072.612 1.604.925-.04.23.15.871-.274.472-.381-.447-.32.346-.234.52.348.203.7.401 1.042.613-.012.187.178.96-.26.482m-.842-1.456c.007-.308.013-.69-.549-.636.04.206-.107.54.06.685.234.096.6.514.489-.049m-.278.14c-.353.052-.299-.662-.205-.713l.452.262c-.041.225.163.83-.247.451m2.548.833-.558-.316c-.064-.297-.126-1.246.536-.324.448.15.685.465.562.931-.19-.077-.36-.194-.54-.291m-.874-1.796c-.398-.031-.313-.744-.227-.771.307.25.652.387.529-.14-.084-.362.54.09.557.237-.003.22.093.729-.252.39-.197-.172-.365-.23-.308.063-.02.176.083.662-.299.221m-.844-.475-.528-.305v-.621q.539.307 1.074.618c-.042.188.124.758-.17.525zm-.567-.358-.002-.596c.07.013-.004.341.011.488zm.667-.244c.01-.032.07.062 0 0m3.565-.514-.262-.159c.1.048.74.417.358.214l-.047-.027zm.55-.005c.378-.11.244-.279-.052-.384-.637-.284.78.212.146.343l-.064.037-.274.151c.078-.054.162-.099.244-.147m-1.435.094c-.334-.287-1.613-.588-.518-.886.36.205.729.4 1.077.626l-.365.213-.129.076zm-.58-1.63c-.327-.214-.69-.365-1.012-.588.244-.119.508-.43.765-.16.269.163.552.308.807.491-.17.074-.38.293-.56.257m1.78-.298.503-.287c-.163.103-.33.202-.503.287"/><path fill="#a43838" d="M10.16 12.345c-.074-.344.206-.485.534-.589-.043.19.117.526-.09.634-.233.105-.534.48-.444-.045m-.541-.147c-.115-.414.147-.641.509-.772.09.432-.054.77-.503.891zm-.597-.47c.202-.877-.562.767-.537-.676v-.638c.377-.229.755-.461 1.147-.662-.12-.202.13-.878-.303-.5-.404.396-.277-.183-.295-.447.732-.453 1.481-.89 2.234-1.315.025-.29-.116-.693.273-.778.471-.263.944-.523 1.402-.808.016.418.007.837.009 1.256-.748.433-1.488.881-2.233 1.319-.128.466.24 1.191-.281 1.434-.383.28-1.015.432-.827 1.029.233.122.843-.537 1.104-.454-.033.376.204.905-.524.884-.379.152-.824.56-1.165.61-.005-.084-.003-.172-.004-.254m1.431-2.453c.224-.123.322-.204.027-.028-.167.091-.474.28-.19.122l.072-.042zm.286 2.4c.088-.199-.164-.605.14-.686.179-.092.479-.359.387.028.023.243.01.465-.278.527-.082.045-.16.102-.249.131m1.115-.626v-.62c.254-.137.653-.476.538.042-.067.33.192.852-.209 1.008-.107.023-.367.31-.329.08zm-.55-1.304c-.016-.183-.023-.361.19-.41.157-.083.664-.4.061-.058-.233.194-.343.152-.287-.156-.194-.585.818-.451.588-1.008-.02-.182-.023-.353.187-.403.218-.162.436-.25.345.127.038.456.019.91-.003 1.366.054.202-.06.307-.238.376-.25.085-.626.401-.842.442zm-6.49-.167c-.355.054-.298-.662-.205-.713l.452.262c-.003.196.016.393-.003.589q-.123-.066-.244-.138m.83-1.438-.528-.305v-.621l1.074.618c-.042.188.125.758-.17.525z"/><path fill="#5c5858" d="M10.16 12.345c-.074-.344.206-.485.534-.589-.043.19.117.526-.09.634-.233.105-.534.48-.444-.045m-1.138-.618c.202-.876-.693.9-.537-.675v-.638c.731-.452 1.485-.859 2.228-1.289.025.433-.004.851-.55.958-.364.184-.685.402-.552.859.233.122.843-.537 1.104-.454-.033.376.204.905-.524.884-.379.152-.824.56-1.165.61-.005-.084-.003-.17-.004-.255m1.717-.053c.088-.199-.164-.604.14-.685.179-.092.479-.359.387.028.023.243.01.465-.278.527-.082.045-.159.102-.249.13m1.115-.625v-.62c.22-.1.635-.5.538-.019-.077.338.196.872-.185 1.054-.106.02-.36.299-.353.123zm-.586-1.928c-.102-.496.507-.58.812-.797.26-.225.4-.208.335.121.104.608-.706.667-1.109.973-.087.088-.014-.266-.038-.297m-2.234-.014c-.064-.265.07-.425.331-.502.586-.444 1.511-.662 1.903-1.197-.069-.415.096-.722.53-.84a25 25 0 0 0 1.145-.664c.016.418.007.837.01 1.256-1.295.762-2.589 1.525-3.903 2.252-.028-.099-.01-.204-.016-.305"/><path fill="#7d3131" d="M9.043 11.369c.037-.381-.207-.95.527-.932-.036.2.109.534-.057.673-.158.082-.306.191-.47.259m.552-2.579c-.05-.554.256-.913 1.096-.945.013.185.065.47-.003.637l-1.086.625c-.008-.105-.006-.211-.007-.317"/></svg>