<svg width="64" height="64" version="1.1" viewBox="0 0 16.933 16.933" xmlns="http://www.w3.org/2000/svg">
 <defs>
  <clipPath id="c">
   <rect x="1.5875" y="1.5875" width="13.758" height="13.758" ry=".79367" fill="#71c947"/>
  </clipPath>
  <linearGradient id="e" x1="388.57" x2="428.57" y1="528.79" y2="528.79" gradientTransform="matrix(1.3,0,0,1.3,-499.14,-648.92)" gradientUnits="userSpaceOnUse">
   <stop stop-color="#9c6d42" offset="0"/>
   <stop stop-color="#9c6d42" stop-opacity="0" offset="1"/>
  </linearGradient>
 </defs>
 <circle cx="8.4665" cy="8.4665" r="7.1436" fill="#f9f9f9" style="paint-order:stroke fill markers"/>
 <g transform="matrix(.61537 0 0 .61537 3.2563 3.2563)">
  <g stroke-width="204.07">
   <path transform="matrix(.26458 0 0 .26458 3.2916e-5 3.2916e-5)" d="m51.502 6v6.5h6.498v-3.5c0-1.6619-1.3381-3-3-3z" fill="#45a943"/>
   <path transform="matrix(.26458 0 0 .26458 3.2916e-5 3.2916e-5)" d="m9 6c-1.6619 0-3 1.3381-3 3v46c0 1.6619 1.3381 3 3 3h46c1.6619 0 3-1.3381 3-3v-46c0-1.6619-1.3381-3-3-3z" fill="#76bd74"/>
   <path transform="matrix(.26458 0 0 .26458 3.2916e-5 3.2916e-5)" d="m6 32v23c0 1.6619 1.3381 3 3 3h23v-26z" fill="#5bb059"/>
   <path transform="matrix(.26458 0 0 .26458 3.2916e-5 3.2916e-5)" d="m6 51.502v3.498c0 1.6619 1.3381 3 3 3h3.5v-6.498z" fill="#8f6335"/>
  </g>
  <g stroke-width="53.991">
   <rect x="3.3072" y="13.626" width="1.7198" height="1.7198" ry="0" fill="#a2703c"/>
   <rect x="5.027" y="13.626" width="1.7198" height="1.7198" ry="0" fill="#875d32"/>
   <rect x="6.7467" y="13.626" width="1.7198" height="1.7198" ry="0" fill="#b77939"/>
   <rect x="8.4665" y="13.626" width="1.7198" height="1.7198" ry="0" fill="#956837"/>
   <rect x="10.186" y="13.626" width="1.7198" height="1.7198" ry="0" fill="#a2703c"/>
   <rect x="11.906" y="13.626" width="1.7198" height="1.7198" ry="0" fill="#956837"/>
  </g>
  <path transform="matrix(.26458 0 0 .26458 3.2916e-5 3.2916e-5)" d="m51.502 51.502v6.498h3.498c1.6619 0 3-1.3381 3-3v-3.498z" fill="#a2703c" stroke-width="204.07"/>
  <g stroke-width="53.991">
   <rect x="1.5875" y="11.906" width="1.7198" height="1.7198" ry="0" fill="#a2703c"/>
   <rect x="3.3072" y="11.906" width="1.7198" height="1.7198" ry="0" fill="#946f2d"/>
   <rect x="5.027" y="11.906" width="1.7198" height="1.7198" ry="0" fill="#8f6335"/>
   <rect x="6.7467" y="11.906" width="1.7198" height="1.7198" ry="0" fill="#aa7034"/>
   <rect x="8.4665" y="11.906" width="1.7198" height="1.7198" ry="0" fill="#956837"/>
   <rect x="10.186" y="11.906" width="1.7198" height="1.7198" ry="0" fill="#8f6335"/>
   <rect x="11.906" y="11.906" width="1.7198" height="1.7198" ry="0" fill="#8f6335"/>
   <rect x="13.626" y="11.906" width="1.7198" height="1.7198" ry="0" fill="#ac7740"/>
   <rect x="1.5875" y="10.186" width="1.7198" height="1.7198" ry="0" fill="#a36b30"/>
   <rect x="3.3072" y="10.186" width="1.7198" height="1.7198" ry="0" fill="#a2703c"/>
   <rect x="5.027" y="10.186" width="1.7198" height="1.7198" ry="0" fill="#7c502e"/>
   <rect x="6.7467" y="10.186" width="1.7198" height="1.7198" ry="0" fill="#a2703c"/>
   <rect x="8.4665" y="10.186" width="1.7198" height="1.7198" ry="0" fill="#bc844a"/>
   <rect x="10.186" y="10.186" width="1.7198" height="1.7198" ry="0" fill="#a2703c"/>
   <rect x="11.906" y="10.186" width="1.7198" height="1.7198" ry="0" fill="#866b3b"/>
   <rect x="13.626" y="10.186" width="1.7198" height="1.7198" ry="0" fill="#a2703c"/>
   <rect x="1.5875" y="8.4665" width="1.7198" height="1.7198" ry="0" fill="#a2703c"/>
   <rect x="3.3072" y="8.4665" width="1.7198" height="1.7198" ry="0" fill="#956837"/>
   <rect x="5.027" y="8.4665" width="1.7198" height="1.7198" ry="0" fill="#a36b30"/>
   <rect x="6.7467" y="8.4665" width="1.7198" height="1.7198" ry="0" fill="#ab7033"/>
   <rect x="8.4665" y="8.4665" width="1.7198" height="1.7198" ry="0" fill="#8f6335"/>
   <rect x="10.186" y="8.4665" width="1.7198" height="1.7198" ry="0" fill="#845531"/>
   <rect x="11.906" y="8.4665" width="1.7198" height="1.7198" ry="0" fill="#a2703c"/>
   <rect x="13.626" y="8.4665" width="1.7198" height="1.7198" ry="0" fill="#ac7740"/>
  </g>
  <path transform="matrix(.26458 0 0 .26458 3.2916e-5 3.2916e-5)" d="m9 6c-1.6619 0-3 1.3381-3 3v23h26v-26z" fill="#5bb059" stroke-width="204.07"/>
  <g stroke-width="53.991">
   <rect x="1.5875" y="6.7467" width="1.7198" height="1.7198" ry="0" fill="#3fa13d"/>
   <rect x="3.3072" y="6.7467" width="1.7198" height="1.7198" ry="0" fill="#674726"/>
   <rect x="5.027" y="6.7467" width="1.7198" height="1.7198" ry="0" fill="#a36b30"/>
   <rect x="6.7467" y="6.7467" width="1.7198" height="1.7198" ry="0" fill="#977047"/>
   <rect x="8.4665" y="6.7467" width="1.7198" height="1.7198" ry="0" fill="#a36b30"/>
   <rect x="10.186" y="6.7467" width="1.7198" height="1.7198" ry="0" fill="#3b843a"/>
   <rect x="11.906" y="6.7467" width="1.7198" height="1.7198" ry="0" fill="#b17a41"/>
   <rect x="13.626" y="6.7467" width="1.7198" height="1.7198" ry="0" fill="#a2703c"/>
   <rect x="1.5875" y="5.027" width="1.7198" height="1.7198" ry="0" fill="#4eb84b"/>
   <rect x="3.3072" y="5.027" width="1.7198" height="1.7198" ry="0" fill="#956837"/>
   <rect x="5.027" y="5.027" width="1.7198" height="1.7198" ry="0" fill="#7c502e"/>
   <rect x="6.7467" y="5.027" width="1.7198" height="1.7198" ry="0" fill="#50a85f"/>
   <rect x="8.4665" y="5.027" width="1.7198" height="1.7198" ry="0" fill="#43c340"/>
   <rect x="10.186" y="5.027" width="1.7198" height="1.7198" ry="0" fill="#3b843a"/>
   <rect x="11.906" y="5.027" width="1.7198" height="1.7198" ry="0" fill="#9b783a"/>
   <rect x="13.626" y="5.027" width="1.7198" height="1.7198" ry="0" fill="#377c36"/>
   <rect x="1.5875" y="3.3072" width="1.7198" height="1.7198" ry="0" fill="#499648"/>
   <rect x="3.3072" y="3.3072" width="1.7198" height="1.7198" ry="0" fill="#45a943"/>
   <rect x="5.027" y="3.3072" width="1.7198" height="1.7198" ry="0" fill="#3b843a"/>
   <rect x="6.7467" y="3.3072" width="1.7198" height="1.7198" ry="0" fill="#4eb84b"/>
   <rect x="8.4665" y="3.3072" width="1.7198" height="1.7198" ry="0" fill="#499648"/>
   <rect x="10.186" y="3.3072" width="1.7198" height="1.7198" ry="0" fill="#45a943"/>
   <rect x="11.906" y="3.3072" width="1.7198" height="1.7198" ry="0" fill="#3ca33b"/>
   <rect x="13.626" y="3.3072" width="1.7198" height="1.7198" ry="0" fill="#499648"/>
  </g>
  <path transform="matrix(.26458 0 0 .26458 3.2916e-5 3.2916e-5)" d="m9 6c-1.6619 0-3 1.3381-3 3v3.5h6.5v-6.5z" fill="#3eb13b" stroke-width="204.07"/>
  <g stroke-width="53.991">
   <rect x="3.3072" y="1.5875" width="1.7198" height="1.7198" ry="0" fill="#499648"/>
   <rect x="5.027" y="1.5875" width="1.7198" height="1.7198" ry="0" fill="#548b53"/>
   <rect x="6.7467" y="1.5875" width="1.7198" height="1.7198" ry="0" fill="#3b843a"/>
   <rect x="8.4665" y="1.5875" width="1.7198" height="1.7198" ry="0" fill="#3b843a"/>
   <rect x="10.186" y="1.5875" width="1.7198" height="1.7198" ry="0" fill="#499648"/>
   <rect x="11.906" y="1.5875" width="1.7198" height="1.7198" ry="0" fill="#46b044"/>
  </g>
  <path transform="matrix(.26458 0 0 .26458 3.2916e-5 3.2916e-5)" d="m25.508 18.98-12.998 0.01367-0.01172 13.004-6.498 0.0039v22.998c0 1.6619 1.3381 3 3 3h46c1.6619 0 3-1.3381 3-3v-29.5l-6.5039-0.0059v-6.4961h-6.4961v13.002h-6.5059l2e-3 -6.5137-12.996 0.01172 0.0078-6.5176z" fill="url(#e)" stroke-width="204.07"/>
  <path transform="matrix(.26458 0 0 .26458 3.2916e-5 3.2916e-5)" d="m8.9609 6.0039c-1.6432 0.02134-2.9609 1.3476-2.9609 2.9961v23.004l6.498-0.0059v-6.4922l-2e-3 -6.5039 6.5 0.03711 6.5059-0.04297-0.0098 6.5039 12.996-0.0039 0.0039 6.5059 6.5059-0.0059 0.0039-12.988 6.498-0.01172-0.0059 6.5039h6.5039v-16.52c-0.01064-1.6392-1.3224-2.9553-2.959-2.9766h-46.078z" fill="#51c164" fill-opacity=".87006" stroke-width="204.07"/>
 </g>
 <rect x="1.5875" y="1.5875" width="13.758" height="13.758" clip-path="url(#c)" fill="none"/>
 <rect x="1.5875" y="1.5875" width="13.758" height="13.758" fill="none"/>
</svg>
