<svg width="64" height="64" xmlns="http://www.w3.org/2000/svg"><circle cx="32" cy="32" r="27" fill="#ccc" style="paint-order:stroke fill markers"/><g transform="matrix(1.3 0 0 1.3 -499.18 -648.9)"><g stroke-width=".769"><circle cx="408.6" cy="523.77" r="17.045" fill="#333"/><circle cx="408.6" cy="523.77" r="7.102" fill="#4d4d4d"/><circle cx="408.6" cy="523.77" r="5.208" fill="#1abc9c"/><circle cx="408.6" cy="523.77" r=".473" fill="#333"/><g fill="none" stroke="#4d4d4d"><circle cx="408.6" cy="523.77" r="16.985" stroke-width=".073"/><g stroke-width=".364"><circle cx="408.6" cy="523.77" r="13.672"/><circle cx="408.6" cy="523.77" r="10.357"/><circle cx="408.6" cy="523.77" r="16.808"/></g></g><circle cx="393.32" cy="509.7" r="2.624" fill="#4aaee8" opacity=".98"/></g><path d="m393.44 510.05 2.752 15.197s.477 2.982 2.452 4.056 4.94 2.343 4.94 2.343" fill="none" stroke="#4aaee8" stroke-linecap="round" stroke-width=".971"/><rect transform="rotate(-64.35)" x="-305.85" y="589.21" width="2.537" height="3.7" rx="0" ry="0" fill="#2c99d8" fill-opacity=".996"/><path d="m391.6 508.77.84 4.265 1.483 2.928 1.151-.21.307-3.343-.84-4.264c-1.005-.27-2.444.173-2.941.624z" fill="#2c99d8" fill-opacity=".996"/></g></svg>