<svg width="64" height="64" version="1.1" xmlns="http://www.w3.org/2000/svg">
 <rect x="5" y="5" width="54" height="54" rx="27" ry="27" fill="#e3e7ee" stroke-width="1.0385"/>
 <rect x="8" y="8" width="48" height="48" rx="24" ry="24" fill="#8d74de" stroke-width="1.0435"/>
 <rect x="15" y="15" width="34" height="34" rx="5" ry="5" fill="#e5e9f0"/>
 <path d="m34 42c-0.554 0-1 0.3345-1 0.75v2.25h1v-2h1v2h1v-2h1v2h1v-2.25c0-0.4155-0.446-0.75-1-0.75h-3zm8 0c-0.554 0-1 0.3345-1 0.75v1.5c0 0.4155 0.446 0.75 1 0.75h3c0.554 0 1-0.3345 1-0.75v-1.5c0-0.4155-0.446-0.75-1-0.75h-3zm-2.5 1c-0.277 0-0.5 0.223-0.5 0.5s0.223 0.5 0.5 0.5 0.5-0.223 0.5-0.5-0.223-0.5-0.5-0.5zm2.5 0h3v1h-3v-1z" fill="#9aa0aa"/>
 <path d="m22 15v5c0 1.662 1.338 3 3 3h14c1.662 0 3-1.338 3-3v-5h-20z" fill="#333333"/>
 <path d="m26 19v1h4v-1h-4zm8 0v1h4v-1h-4z" fill="#fbe604"/>
</svg>
