<svg xmlns="http://www.w3.org/2000/svg" width="64" height="64" viewBox="0 0 16.933 16.933"><circle cx="8.466" cy="8.466" r="7.144" fill="#0d68ab" style="paint-order:stroke fill markers"/><g stroke-width=".8" transform="translate(1.962 1.799)scale(.84062)"><rect width="5.506" height="9.742" x="8.757" y="2.204" fill="#0c578c" rx=".423" ry=".423" style="paint-order:markers stroke fill" transform="rotate(4.372)"/><rect width="4.66" height="8.895" x="9.18" y="2.627" fill="#fff" rx="0" ry="0" style="paint-order:markers stroke fill" transform="rotate(4.372)"/><path fill="#0c578c" d="m12.965 3.626-1.817 4.322 1.139 4.547.423.032-1.14-4.547 1.818-4.322z" style="paint-order:markers stroke fill"/></g><path fill="#1e84d0" d="M8.466 1.323a7.144 7.144 0 0 0-7.143 7.144 7.144 7.144 0 0 0 7.143 7.143 7.14 7.14 0 0 0 3.405-.872L9.344 1.383a7 7 0 0 0-.877-.06z" style="paint-order:markers stroke fill"/><path fill="#fff" d="M6.605 6.968c-.33.055-.619.237-.756.53-.14.292-.245.688-.167 1.163.079.474.274.82.499 1.052.225.231.589.306.918.251.332-.055.665-.245.803-.536.139-.293.217-.683.139-1.157a1.94 1.94 0 0 0-.51-1.051c-.225-.233-.595-.306-.926-.252m-.14-.843q1.012-.166 1.686.361.676.528.857 1.626.181 1.094-.288 1.811-.47.718-1.48.885-1.009.165-1.688-.361-.675-.528-.856-1.622-.182-1.098.289-1.815.471-.719 1.48-.884z" aria-label="O" font-size="6.406" font-weight="700" letter-spacing="0" word-spacing="0"/></svg>