<svg width="64" height="64" version="1.1" viewBox="0 0 16.933 16.933" xmlns="http://www.w3.org/2000/svg" xmlns:xlink="http://www.w3.org/1999/xlink">
 <circle cx="8.4665" cy="8.4665" r="7.1436" fill="#bc492d" style="paint-order:stroke fill markers"/>
 <g transform="matrix(.67292 0 0 .67292 -11.197 4.0298)">
  <g transform="rotate(4.363 3715.6 -280.37)" style="paint-order:markers stroke fill">
   <rect x="62.442" y="279.8" width="6.879" height="12.171" rx=".529" ry=".529" fill="#95362b"/>
   <rect x="62.971" y="280.33" width="5.821" height="11.112" rx="0" ry="0" fill="#fff"/>
   <g fill="#bc492d">
    <rect x="63.765" y="289.33" width="4.233" height=".794" rx="0" ry="0"/>
    <path d="m66.146 281.65v2.117h2.117a2.117 2.117 0 0 0-2.117-2.117z"/>
    <path d="m65.881 281.92a2.117 2.117 0 0 0-2.116 2.116 2.117 2.117 0 0 0 2.116 2.117 2.117 2.117 0 0 0 2.117-2.117h-2.118z"/>
    <rect x="63.765" y="287.48" width="4.233" height=".794" rx="0" ry="0"/>
   </g>
  </g>
 </g>
 <path d="m8.4665 1.3229a7.1436 7.1436 0 0 0-7.1436 7.1436 7.1436 7.1436 0 0 0 7.1436 7.1436 7.1436 7.1436 0 0 0 3.4049-0.87176l-2.5269-13.355a7.1436 7.1436 0 0 0-0.87797-0.06046z" fill="#d5583a" stroke-width=".72129" style="paint-order:markers stroke fill"/>
 <g transform="matrix(.9432 0 0 .9432 .26062 .48094)">
  <path d="m4.98 6.284 1.943-0.299c0.577-0.089 1.041-0.045 1.39 0.175 0.351 0.217 0.564 0.592 0.64 1.084 0.076 0.494-0.026 0.866-0.295 1.18-0.267 0.313-0.694 0.48-1.272 0.57l-0.886 0.136 0.262 1.699-1.055 0.162zm1.179 0.642 0.214 1.39 0.763-0.118c0.227-0.034 0.546-0.135 0.662-0.276 0.125-0.158 0.189-0.287 0.15-0.523-0.034-0.21-0.089-0.381-0.262-0.504-0.192-0.133-0.484-0.13-0.764-0.086z" fill="#fff" font-size="6.533" font-weight="700" letter-spacing="0" stroke-width=".163" word-spacing="0" aria-label="P"/>
 </g>
</svg>
