<svg width="64" height="64" viewBox="0 0 16.933 16.933" xmlns="http://www.w3.org/2000/svg"><circle cx="8.466" cy="8.466" r="7.144" fill="#bc492d" style="paint-order:stroke fill markers"/><g transform="rotate(4.363 2441.808 -333.622) scale(.67292)" style="paint-order:markers stroke fill"><rect x="62.442" y="279.8" width="6.879" height="12.171" rx=".529" ry=".529" fill="#95362b"/><rect x="62.971" y="280.33" width="5.821" height="11.112" rx="0" ry="0" fill="#fff"/><g fill="#bc492d"><rect x="63.765" y="289.33" width="4.233" height=".794" rx="0" ry="0"/><path d="M66.146 281.65v2.117h2.117a2.117 2.117 0 0 0-2.117-2.117z"/><path d="M65.881 281.92a2.117 2.117 0 0 0-2.116 2.116 2.117 2.117 0 0 0 2.116 2.117 2.117 2.117 0 0 0 2.117-2.117H65.88z"/><rect x="63.765" y="287.48" width="4.233" height=".794" rx="0" ry="0"/></g></g><path d="M8.466 1.323a7.144 7.144 0 0 0-7.143 7.144 7.144 7.144 0 0 0 7.143 7.143 7.144 7.144 0 0 0 3.405-.872L9.344 1.383a7.144 7.144 0 0 0-.877-.06z" fill="#d5583a" style="paint-order:markers stroke fill"/><path d="m4.958 6.408 1.832-.282c.545-.084.982-.042 1.311.165.332.205.532.558.604 1.022.072.466-.024.817-.278 1.113-.252.296-.655.453-1.2.538l-.836.128.248 1.603-.996.153zm1.112.606.202 1.31.72-.11c.213-.033.514-.128.624-.261.118-.15.178-.27.141-.493-.032-.198-.084-.36-.247-.476-.181-.125-.456-.122-.72-.08z" fill="#fff" font-size="6.533" font-weight="700" letter-spacing="0" word-spacing="0" aria-label="P"/></svg>