<?xml version="1.0" encoding="UTF-8"?>
<svg width="64" height="64" version="1.1" viewBox="0 0 16.933 16.933" xmlns="http://www.w3.org/2000/svg" xmlns:cc="http://creativecommons.org/ns#" xmlns:dc="http://purl.org/dc/elements/1.1/" xmlns:rdf="http://www.w3.org/1999/02/22-rdf-syntax-ns#">
 <metadata>
  <rdf:RDF>
   <cc:Work rdf:about="">
    <dc:format>image/svg+xml</dc:format>
    <dc:type rdf:resource="http://purl.org/dc/dcmitype/StillImage"/>
    <dc:title/>
   </cc:Work>
  </rdf:RDF>
 </metadata>
 <defs>
  <clipPath id="c">
   <rect x="1.5875" y="1.5875" width="13.758" height="13.758" ry=".79367" fill="#71c947"/>
  </clipPath>
 </defs>
 <rect x="1.3229" y="1.3229" width="14.287" height="14.287" rx="7.1436" ry="7.1436" fill="#7f583c" stroke-width="1.0385"/>
 <rect x="2.6458" y="2.6458" width="11.641" height="11.641" rx="5.8207" ry="5.8207" fill="#fff" opacity=".1" stroke-width="1.0476"/>
 <path transform="scale(.26458)" d="m32 5c-7.4246 0-14.128 2.9694-19 7.7871v3.3672h0.003906v2.1992l4.75-0.003907v-4.7461-2.1992h4.7461 4.75 0.001953l-0.003906 2.1953 9.498-0.001953 0.001953 4.7539 4.7539-0.003906 0.001953-6.9434h4.7461 0.001953l-0.001953 2.1953h4.75v-0.8125c-4.8717-4.8177-11.575-7.7871-19-7.7871z" fill="#7fb551" stroke-width=".73077"/>
 <rect x="1.5875" y="1.5875" width="13.758" height="13.758" clip-path="url(#c)" fill="none"/>
 <rect x="1.5875" y="1.5875" width="13.758" height="13.758" fill="none"/>
 <path d="m5.6884 6.0853c-0.68348 0-1.3569 0.22217-1.8805 0.62939-0.52359 0.40723-0.89759 1.0242-0.89759 1.7518 0 0.72762 0.37402 1.3445 0.89759 1.7518 0.52359 0.40723 1.197 0.62939 1.8805 0.62939 0.95911 0 1.7315-0.57494 2.2649-1.1084 0.32074-0.32074 0.3699-0.43731 0.51315-0.64257 0.14324 0.20527 0.19239 0.32184 0.51315 0.64257 0.53351 0.53351 1.3059 1.1084 2.2649 1.1084 0.68349 0 1.3569-0.22217 1.8805-0.62939 0.52359-0.40722 0.89759-1.0242 0.89759-1.7518 0-0.72762-0.37402-1.3445-0.89759-1.7518-0.52359-0.40723-1.197-0.62939-1.8805-0.62939-0.95911 0-1.7315 0.57494-2.2649 1.1084-0.32074 0.32074-0.3699 0.43731-0.51315 0.64257-0.14324-0.20527-0.19239-0.32184-0.51315-0.64257-0.53351-0.53351-1.3059-1.1084-2.2649-1.1084zm0 0.79373c0.62836 0 1.2451 0.41723 1.7038 0.87589 0.35651 0.3565 0.4787 0.57089 0.5705 0.71158-0.0918 0.1407-0.21399 0.35507-0.5705 0.71158-0.45866 0.45866-1.0754 0.87589-1.7038 0.87589-0.50712 0-1.0243-0.1747-1.3937-0.46199-0.36936-0.28728-0.59066-0.66249-0.59066-1.1255 0-0.46298 0.22129-0.83822 0.59066-1.1255 0.36936-0.28728 0.88656-0.46199 1.3937-0.46199zm5.5561 0c0.50712 0 1.0243 0.1747 1.3937 0.46199 0.36936 0.28728 0.59066 0.66249 0.59066 1.1255 0 0.46298-0.22129 0.83823-0.59066 1.1255-0.36936 0.28728-0.88656 0.46199-1.3937 0.46199-0.62836 0-1.2451-0.41723-1.7038-0.87589-0.35651-0.35651-0.4787-0.5709-0.5705-0.71158 0.0918-0.1407 0.21399-0.35506 0.5705-0.71158 0.45866-0.45866 1.0754-0.87589 1.7038-0.87589z" fill="#b3ea15" stroke-width=".39687"/>
</svg>
