<svg width="64" height="64" version="1.1" viewBox="0 0 16.933 16.933" xmlns="http://www.w3.org/2000/svg">
 <circle cx="8.466" cy="8.466" r="7.144" fill="#4c8cff" style="paint-order:stroke fill markers"/>
 <path d="m8.4666 1.3229a7.1437 7.1437 0 0 0-7.1437 7.1437 7.1437 7.1437 0 0 0 4.9474 6.7939 10.139 10.139 0 0 0 9.2831-7.6207 7.1437 7.1437 0 0 0-7.0868-6.3168" fill="#457eff" stroke-width=".26458" style="paint-order:stroke fill markers"/>
 <path d="m8.467 1.323a7.14 7.14 0 0 0-6.497 4.189 8.767 8.767 0 0 0 8.694 7.725 8.8 8.8 0 0 0 3.776-0.864 7.14 7.14 0 0 0 1.17-3.907 7.144 7.144 0 0 0-7.144-7.143z" fill="#0000ff" opacity=".1" style="paint-order:stroke fill markers"/>
 <path d="m5.292 5.2915a3.175 3.175 0 0 0 3.175 3.175 3.175 3.175 0 0 0 3.175-3.175h-0.794a2.38 2.38 0 0 1-2.381 2.381 2.38 2.38 0 0 1-2.382-2.381z" fill="#ffffff" style="paint-order:stroke markers fill"/>
 <circle cx="12.435" cy="12.171" r="3.4395" fill="#7ba3f4" stroke-width=".81255"/>
 <path d="m11.588 10.319c-0.14657 0-0.26457 0.118-0.26457 0.26458s0.118 0.26458 0.26457 0.26458 0.26457-0.118 0.26457-0.26458-0.118-0.26458-0.26457-0.26458zm1.6631 0-0.6048 0.60483 0.90711 0.90676-0.90711 0.90747 0.6048 0.60483 1.5117-1.512-0.6048-0.60501zm-2.3246 1.5875c-0.21977 0-0.39685 0.17709-0.39685 0.39687s0.17708 0.39687 0.39685 0.39687 0.39685-0.17709 0.39685-0.39687-0.17691-0.39687-0.39685-0.39687zm1.1906 1.5875c-0.29296 0-0.52914 0.236-0.52914 0.52916s0.23617 0.52916 0.52914 0.52916 0.52914-0.236 0.52914-0.52916-0.23581-0.52916-0.52914-0.52916z" fill="#ffffff" stroke-width=".17638"/>
</svg>
