<svg xmlns="http://www.w3.org/2000/svg" width="64" height="64" viewBox="0 0 16.933 16.933"><circle cx="8.466" cy="8.466" r="7.144" fill="#4c8cff" style="paint-order:stroke fill markers"/><path fill="#457eff" d="M8.467 1.323a7.144 7.144 0 0 0-7.144 7.144A7.14 7.14 0 0 0 6.27 15.26a10.14 10.14 0 0 0 9.283-7.62 7.144 7.144 0 0 0-7.086-6.317" style="paint-order:stroke fill markers"/><path fill="#00f" d="M8.467 1.323A7.14 7.14 0 0 0 1.97 5.512a8.767 8.767 0 0 0 8.694 7.725 8.8 8.8 0 0 0 3.776-.864 7.14 7.14 0 0 0 1.17-3.907 7.144 7.144 0 0 0-7.144-7.143z" opacity=".1" style="paint-order:stroke fill markers"/><path fill="#fff" d="M5.292 5.292a3.175 3.175 0 0 0 3.175 3.175 3.175 3.175 0 0 0 3.175-3.176h-.794a2.38 2.38 0 0 1-2.381 2.381 2.38 2.38 0 0 1-2.382-2.38z" style="paint-order:stroke markers fill"/><circle cx="12.435" cy="12.171" r="3.439" fill="#7ba3f4"/><path fill="#fff" d="M11.588 10.319a.264.264 0 1 0 0 .53.264.264 0 1 0 0-.53m1.663 0-.605.605.907.907-.907.907.605.605 1.512-1.512-.605-.605zm-2.325 1.588a.396.396 0 1 0 0 .793.396.396 0 1 0 0-.793m1.191 1.587a.528.528 0 1 0 0 1.058.528.528 0 1 0 0-1.058"/></svg>