<svg width="64" height="64" xmlns="http://www.w3.org/2000/svg"><g stroke-width=".852"><path d="M32 5c14.912 0 27 12.087 27 26.999s-12.088 27-27 27-27-12.088-27-27 12.088-27 27-27z" fill="#dcdcdc"/><path d="M32 9c12.702 0 23 10.296 23 23 0 12.702-10.297 23-23 23S9 44.703 9 32 19.295 9 32 9z" fill="#f0f0f0"/><path d="m44.913 22.608-7.044-5.87V47.26l7.044-5.87z" fill="#6ba63f"/><path d="m19.087 22.608 7.043-5.87V47.26l-7.043-5.87z" fill="#42afe6"/><path d="M26.13 16.738c-1.43 4.09-1.158 8.276 0 12.521l11.74 18c.752-4.107 1.618-8.213 0-12.32z" fill="#96ca6b"/><path d="M37.87 34.938V47.26l5.282-4.402z" fill="#569e41"/><path d="m26.13 16.738-5.292 4.41 5.292 8.111z" fill="#70be63"/></g></svg>