<svg width="64" height="64" version="1" xmlns="http://www.w3.org/2000/svg"><path d="M32 5c14.912 0 27 12.087 27 27S46.912 59 32 59 5 46.91 5 32 17.088 5 32 5z" fill="#f0f0f0"/><path d="M32.113 10.809c-.07-.002-.138.007-.208.008l.045 10.142L32 32l9.55-5.479 8.817-5.056a4.783 4.783 0 0 0-1.777-1.828L34.41 11.45a4.821 4.821 0 0 0-2.297-.642z" fill="#add439"/><path d="M13.717 21.293a4.812 4.812 0 0 0-.717 2.52v16.374c0 .907.262 1.772.724 2.517l8.776-5.141L32 32l-9.5-5.564z" fill="#ac1248"/><path d="m50.277 21.296-8.777 5.14L32 32l18.287 10.709A4.82 4.82 0 0 0 51 40.188V23.813a4.82 4.82 0 0 0-.039-.574c-.007-.06-.017-.121-.027-.182a4.82 4.82 0 0 0-.072-.362 4.782 4.782 0 0 0-.064-.244 4.82 4.82 0 0 0-.09-.267c-.034-.093-.065-.187-.104-.277a4.82 4.82 0 0 0-.016-.038l-.002.002a4.9 4.9 0 0 0-.31-.575z" fill="#3471b9"/><path d="M32.095 10.809a4.816 4.816 0 0 0-2.505.641l-14.18 8.188a4.81 4.81 0 0 0-1.791 1.82l8.832 5.064L32 32l.049-11.042z" fill="#86b02f"/><path d="m32 32-.05 11.042-.045 10.15a4.82 4.82 0 0 0 2.505-.644l14.18-8.188a4.82 4.82 0 0 0 1.79-1.817l-8.83-5.064z" fill="#2e90e8"/><path d="m32 32-9.55 5.478-8.817 5.057c.169.298.359.584.587.842a4.82 4.82 0 0 0 .091.105c.079.084.162.164.248.243a4.82 4.82 0 0 0 .164.145c.079.065.157.13.24.192a4.82 4.82 0 0 0 .447.298l14.18 8.188a4.82 4.82 0 0 0 2.505.637l-.046-10.143z" fill="#eb2f6a"/><path d="m32 18.492 11.692 6.752v13.45L32 45.445l-11.692-6.753V25.244z" fill="#fff"/><path d="m32 18.492 11.692 6.752v13.45L32 45.445z" fill="#cedbe6"/><path d="m32 18.492-11.692 6.752L32 31.997l11.692-6.753z" fill="#dee5c0"/></svg>