<svg width="64" height="64" version="1.1" viewBox="0 0 16.933 16.933" xmlns="http://www.w3.org/2000/svg">
 <circle cx="8.466" cy="8.46" r="7.144" fill="#5294e2" style="paint-order:stroke markers fill"/>
 <path d="m8.467 4.23a4.233 4.233 0 0 0-4.234 4.233 4.233 4.233 0 0 0 4.234 4.234 4.233 4.233 0 0 0 4.233-4.234 4.233 4.233 0 0 0-4.233-4.233zm0.377 0.452c0.412 0.038 0.81 0.131 1.173 0.29a0.355 0.355 0 0 0-0.069 0.124c-0.111 0.334-0.277 0.174-0.082 0.593 0.195 0.418 0.358 0.526 0.414 0.331s-0.14-0.47 0.083-0.358c0.223 0.111 0.388-0.031 0.22 0.22-0.167 0.251-0.163 0.388-0.358 0.332-0.196-0.056-0.192 0.33-0.387 0.386s-0.263-0.084-0.263 0.055c0 0.14 0.112 0.01 0.084 0.235-9e-3 0.068-7e-3 0.08-0.015 0.11-0.183-0.052-0.264-0.08-0.4-0.028-0.139 0.056-0.304 0.414-0.304 0.414 0.175 0.175 0.256 0.3 0.318 0.36-0.039 0.018-0.086 0.027-0.124 0.054-0.279 0.196-0.496 0.232-0.58 0.51-0.083 0.28-0.055 0.024-0.055 0.36 0 0.334-0.085 0.108 0.083 0.414 0.167 0.307 0.577 0.454 0.773 0.622 0.195 0.167 0.396-0.364 0.787 0.138 0.39 0.502 0.415 0.3 0.276 0.58-0.14 0.278-0.276 0.37-0.331 0.482-0.056 0.112 0.108 0.496 0.303 0.58h0.014c-0.01 0.024-0.017 0.045-0.028 0.069-0.253 0.114-0.562 0.273-0.62 0.29-0.139 0.04-0.626 0.122-0.98 0.22-0.045 0.013-0.08 0.013-0.098 0.015 0.044-0.048 0.394-0.23 0.567-0.331 0.236-0.139-0.015-0.125-0.015-0.125s-0.376-0.041-1.145-0.041c-0.385 0-0.551 0.017-0.635 0.041a0.21 0.21 0 0 0-0.083 0.042c-0.02 0.018-0.035 0.036-0.07 0.055-0.137 0.08 0.082 0.162-0.096 0.221-0.133 0.044-0.148 0-0.262-0.083 0.081-0.08 0.193-0.178 0.331-0.345 0.251-0.304 0.33-0.249 0.414-0.525s-0.703-0.193-0.703-0.359-0.136-0.276-0.387-0.386-0.08-0.166-0.359-0.249c-0.279-0.082-0.593 0.415-0.677 0.249-0.083-0.166 0.263-0.166 0.263-0.359 0-0.188-0.398 0.142-0.47-0.097-2e-3 -9e-3 -0.012-9e-3 -0.013-0.014-7e-3 -0.035-3e-3 -0.055 0-0.083 0.017-0.198 0.247-0.276 0.345-0.47 0.111-0.22 0.054 0.167 0.193 0.36 0.14 0.194 0.084-0.248 0-0.496-0.083-0.25 0.053-0.25 0.248-0.58 0.195-0.332 0.194-0.525 0.194-0.774 0-0.248 0.135-0.276 0.414-0.524 0.128-0.114 0.228-0.213 0.304-0.304 0.018-9e-3 0.036-9e-3 0.055-0.014 0.295-0.119 0.42-0.296 0.676-0.828 0.256-0.533-0.1-0.036-0.179-0.056s-0.193-0.16-0.47-0.317a0.444 0.444 0 0 0-0.151-0.055l0.51-0.842c0.164-0.044 0.34-0.074 0.51-0.097 0.064 0.357 0.029 0.69 0.029 0.69s-0.097 0.115-0.097 0.194 0.528-0.65 0.607-0.69c0.08-0.04 0.279 0.208 0.318-0.166 2e-3 -0.022-2e-3 -0.022 0-0.04zm0.7 1.489c-0.017 5e-3 -0.034 9e-3 -0.051 0.016 0 0.097-0.038 0.168-0.056 0.207-0.01-0.018-0.04-0.042-0.04-0.042-0.043 0.077-0.133 0.145-0.042 0.124 0.09-0.02 0.16 0.035 0.097-0.041-0.012-0.015-7e-3 -0.01-0.015-0.015 0.012 0.01 0.035 0.015 0.084 0.015h0.123c-0.067 0.05-0.14 0.071-0.04 0.097 0.132 0.034 0.193 0.042 0.193 0.014a0.639 0.639 0 0 0-0.042-0.125c0.026-0.01 0.05-0.023 0.027-0.068-0.041-0.084-0.107-0.167-0.192-0.18a0.14 0.14 0 0 0-0.046-2e-3zm2.157 0.235c0.07 0.108 0.136 0.218 0.194 0.332-0.039 0.223-0.136 0.373 0.027 0.373 0.046 0 0.087-0.01 0.124-0.014 6e-3 0.014 0.01 0.028 0.014 0.04-0.279 0-0.413 0.084-0.552 0.056-0.14-0.029-0.527-0.053-0.276-0.304 0.147-0.146 0.33-0.38 0.47-0.483zm-1.739 0.51v2e-3c0.026 9e-3 0.048 0.035 0.07 0.082 0.083 0.195 0.221 0.358 0.11 0.386-0.112 0.028-0.166 0.056-0.166 0.056s0.386 0.251 0.414-0.028-0.11-0.442-0.11-0.442 0.192 0.193 0.248 0.304c0.056 0.112 0.054 0 0.193 0.138 0.14 0.14 0.109-0.554 0.304-0.358 0.195 0.195 0.318 0.19 0.262 0.33s0.359-0.168 0.359 0.111c0 0.269 0.172 0.378-0.165 0.51-0.128-8e-3 -0.23-0.03-0.25-0.068-0.055-0.112-0.372-0.027-0.372-0.027-0.834-0.209-1.196-0.275-1.435-0.235 4e-3 -9e-3 8e-3 -9e-3 0.013-0.014 0.122-0.22 0.352-0.525 0.276-0.635 0.107-0.061 0.19-0.129 0.25-0.11zm2.347 1.396c2e-3 0.056 0 0.11 0 0.166 0 0.157-0.01 0.316-0.027 0.468-0.251-0.223-0.608-0.22-0.608-0.22s0.217-0.247 0.524-0.359a0.486 0.486 0 0 0 0.11-0.055z" fill="#ffffff"/>
</svg>
