<?xml version="1.0" encoding="UTF-8" standalone="no"?>
<svg
   width="64"
   height="64"
   viewBox="0 0 16.933 16.933"
   version="1.1"
   id="svg2"
   sodipodi:docname="noisetorch.svg"
   xml:space="preserve"
   inkscape:version="1.4.1 (93de688d07, 2025-03-30)"
   xmlns:inkscape="http://www.inkscape.org/namespaces/inkscape"
   xmlns:sodipodi="http://sodipodi.sourceforge.net/DTD/sodipodi-0.dtd"
   xmlns="http://www.w3.org/2000/svg"
   xmlns:svg="http://www.w3.org/2000/svg"><defs
     id="defs2"><clipPath
       id="a"><circle
         cx="8.467"
         cy="288.53"
         r="6.879"
         fill="#d86eb0"
         stroke-opacity=".039"
         stroke-width=".491"
         style="paint-order:stroke markers fill"
         id="circle1-3" /></clipPath></defs><sodipodi:namedview
     id="namedview2"
     pagecolor="#505050"
     bordercolor="#ffffff"
     borderopacity="1"
     inkscape:showpageshadow="0"
     inkscape:pageopacity="0"
     inkscape:pagecheckerboard="1"
     inkscape:deskcolor="#505050"
     inkscape:zoom="6.4140625"
     inkscape:cx="27.985384"
     inkscape:cy="33.909866"
     inkscape:window-width="1920"
     inkscape:window-height="1012"
     inkscape:window-x="0"
     inkscape:window-y="0"
     inkscape:window-maximized="1"
     inkscape:current-layer="svg2" /><circle
     cx="8.4659996"
     cy="8.4659996"
     r="7.1440001"
     fill="#d86eb0"
     style="paint-order:stroke markers fill;fill:#57b044;fill-opacity:1"
     id="circle2"
     transform="matrix(0.99994339,0,0,0.99994339,1.7219373e-4,1.7219373e-4)" /><rect
     x="6.8790002"
     y="5.2909999"
     width="3.175"
     height="5.2919998"
     rx="1.587"
     ry="1.587"
     fill="#ffffff"
     style="paint-order:stroke markers fill"
     id="rect2"
     transform="matrix(0.99994339,0,0,0.99994339,1.7219373e-4,1.7219373e-4)" /><path
     d="m 6.218,8.863 a 0.132,0.132 0 0 0 -0.133,0.133 0.132,0.132 0 0 0 0.002,0.016 2.381,2.381 0 0 0 2.38,2.365 2.381,2.381 0 0 0 2.38,-2.368 0.132,0.132 0 0 0 0,-0.01 2.381,2.381 0 0 0 0,-0.003 0.132,0.132 0 0 1 0,-0.001 A 0.132,0.132 0 0 0 10.715,8.863 0.132,0.132 0 0 0 10.583,8.995 2.116,2.116 0 0 1 8.467,11.112 2.116,2.116 0 0 1 6.351,8.995 H 6.349 A 0.132,0.132 0 0 0 6.218,8.863 Z"
     fill="#ffffff"
     style="paint-order:stroke markers fill"
     id="path2-6"
     transform="matrix(0.99994339,0,0,0.99994339,1.7219373e-4,1.7219373e-4)" /><path
     fill="none"
     d="m 1.588,7.237 h 13.758 v 4.762 H 1.588 Z"
     id="path3"
     transform="matrix(0.99994339,0,0,0.99994339,1.7219373e-4,1.7219373e-4)" /><g
     transform="matrix(1.0384412,0,0,1.0384412,-0.32580936,-291.27334)"
     clip-path="url(#a)"
     fill="none"
     stroke="#ffffff"
     stroke-opacity="0.937"
     stroke-width="0.127"
     id="g6"><path
       d="m 1.485,287.74 c 0.72,0.155 1.391,0.625 1.983,1.98 0.674,1.545 1.623,2.23 2.772,2.284 1.48,0.07 2.673,-1.226 3.459,-2.385 1.602,-2.362 4.519,-2.136 5.816,-1.251"
       opacity="0.35"
       id="path4" /><path
       d="m 1.493,288.13 c 0.894,-0.35 2.083,-0.424 2.872,0.827 0.722,1.143 1.576,2.867 4.049,2.709 1.478,-0.095 2.956,-0.71 3.718,-2.15 0.53,-0.933 1.26,-1.872 2.293,-2.104 0.382,-0.081 0.655,-0.07 0.976,0.057"
       opacity="0.35"
       id="path5" /><path
       d="m 1.775,290.25 c 0.947,-0.444 2.745,-0.953 4.197,-0.53 1.297,0.38 2.937,1.847 6.056,1.504 0.824,-0.09 1.522,-0.563 2.183,-1.464 0.478,-0.652 0.75,-1.02 1.306,-1.167"
       opacity="0.35"
       id="path6" /></g></svg>
