<?xml version="1.0" encoding="UTF-8" standalone="no"?>
<svg
   width="64"
   height="64"
   viewBox="0 0 16.933 16.933"
   version="1.1"
   id="svg12"
   sodipodi:docname="nordvpn.svg"
   inkscape:version="1.1.2 (0a00cf5339, 2022-02-04)"
   xmlns:inkscape="http://www.inkscape.org/namespaces/inkscape"
   xmlns:sodipodi="http://sodipodi.sourceforge.net/DTD/sodipodi-0.dtd"
   xmlns="http://www.w3.org/2000/svg"
   xmlns:svg="http://www.w3.org/2000/svg">
  <defs
     id="defs16" />
  <sodipodi:namedview
     id="namedview14"
     pagecolor="#ffffff"
     bordercolor="#666666"
     borderopacity="1.0"
     inkscape:pageshadow="2"
     inkscape:pageopacity="0.0"
     inkscape:pagecheckerboard="0"
     showgrid="true"
     inkscape:zoom="11.313709"
     inkscape:cx="14.186329"
     inkscape:cy="32.615299"
     inkscape:window-width="1920"
     inkscape:window-height="1000"
     inkscape:window-x="0"
     inkscape:window-y="44"
     inkscape:window-maximized="1"
     inkscape:current-layer="svg12">
    <inkscape:grid
       type="xygrid"
       id="grid823" />
  </sodipodi:namedview>
  <ellipse
     cx="8.4659996"
     cy="8.4659996"
     fill="#62acf3"
     id="circle2"
     rx="7.1438742"
     ry="7.1440001"
     style="fill:#ffffff;fill-opacity:1" />
  <g
     fill="#fff"
     id="g10" />
  <path
     style="fill:#387fe7;fill-opacity:1;stroke-width:0.00770917"
     d="M 2.6103006,12.708087 C 2.422792,12.446988 2.2021977,12.072991 2.0389866,11.739474 1.5231112,10.685297 1.2733431,9.5583008 1.2950941,8.3828975 1.3189315,7.0951062 1.6549012,5.898489 2.3025923,4.7945642 2.7318736,4.0628979 3.3190864,3.3804613 3.9799249,2.8452312 5.0652708,1.9661818 6.3686654,1.4262419 7.7394932,1.2878047 c 0.2670842,-0.02697 0.3713571,-0.031352 0.7385494,-0.031044 0.3976851,3.348e-4 0.5170966,0.00687 0.8501004,0.046348 1.956208,0.2320592 3.755408,1.2967579 4.927542,2.9159334 0.688015,0.9504186 1.136396,2.0503085 1.30693,3.2059389 0.05114,0.3465961 0.06982,0.5875579 0.07541,0.9733694 0.0056,0.39304 -0.0081,0.6693528 -0.05167,1.027445 -0.138621,1.1422016 -0.56192,2.2605836 -1.219151,3.2210746 -0.04655,0.06804 -0.08667,0.123725 -0.08918,0.123786 -0.0025,7.6e-5 -0.775874,-1.267862 -1.718598,-2.8176244 -0.942724,-1.5497557 -1.71788,-2.8219339 -1.72257,-2.8270554 -0.0064,-0.00701 -0.04837,0.05881 -0.169038,0.2651803 -0.08827,0.1509711 -0.161993,0.2803092 -0.163802,0.287418 -0.0018,0.00712 0.0714,0.3618939 0.162679,0.7884113 0.09129,0.4265142 0.164683,0.7767768 0.163111,0.7783568 -0.0016,0.0016 -0.532372,-0.9140285 -1.179563,-2.0346852 C 9.0030447,6.0899984 8.4708143,5.1730972 8.4675017,5.1730972 c -0.00333,0 -0.3340492,0.5604835 -0.734971,1.2455185 L 7.0035771,7.6641334 7.171455,8.4503304 C 7.2637873,8.8827365 7.3384353,9.2393069 7.3373385,9.2427047 7.3362504,9.2461442 7.0589493,8.7707149 6.7211323,8.1862904 6.3833155,7.6018647 6.104686,7.1237572 6.1019556,7.1238294 6.0992556,7.123899 5.3277375,8.3884128 4.3875391,9.933851 3.4473409,11.479293 2.6733029,12.750294 2.667452,12.7583 2.657532,12.77182 2.65353,12.7681 2.610309,12.70809 Z"
     id="path798" />
</svg>
