<?xml version="1.0" encoding="UTF-8" standalone="no"?>
<svg
   width="64"
   height="64"
   viewBox="0 0 16.933 16.933"
   version="1.1"
   id="svg12"
   sodipodi:docname="nordvpn.svg"
   inkscape:version="1.1.2 (0a00cf5339, 2022-02-04)"
   xmlns:inkscape="http://www.inkscape.org/namespaces/inkscape"
   xmlns:sodipodi="http://sodipodi.sourceforge.net/DTD/sodipodi-0.dtd"
   xmlns="http://www.w3.org/2000/svg"
   xmlns:svg="http://www.w3.org/2000/svg">
  <defs
     id="defs16" />
  <sodipodi:namedview
     id="namedview14"
     pagecolor="#ffffff"
     bordercolor="#666666"
     borderopacity="1.0"
     inkscape:pageshadow="2"
     inkscape:pageopacity="0.0"
     inkscape:pagecheckerboard="0"
     showgrid="false"
     inkscape:zoom="32"
     inkscape:cx="48.015625"
     inkscape:cy="65.96875"
     inkscape:window-width="1920"
     inkscape:window-height="1000"
     inkscape:window-x="0"
     inkscape:window-y="44"
     inkscape:window-maximized="1"
     inkscape:current-layer="svg12" />
  <ellipse
     cx="8.4659996"
     cy="8.4659996"
     fill="#62acf3"
     id="circle2"
     rx="7.1438742"
     ry="7.1440001"
     style="fill:#ffffff;fill-opacity:1" />
  <g
     fill="#fff"
     id="g10" />
  <path
     style="fill:#62acf3;stroke-width:0.00763645;fill-opacity:1"
     d="M 2.6535107,12.642747 C 2.4673859,12.384646 2.2484194,12.014943 2.0864127,11.685255 1.574344,10.643184 1.3264189,9.5291257 1.3480095,8.3672188 1.3716709,7.0942143 1.7051614,5.9113369 2.3480732,4.8200878 2.7741867,4.0968228 3.3570664,3.422222 4.0130284,2.8931378 5.0903655,2.0241817 6.384142,1.4904415 7.7448543,1.3535939 c 0.2651132,-0.02666 0.3686168,-0.030992 0.7330994,-0.030689 0.3947504,3.308e-4 0.5132809,0.00677 0.8438274,0.045816 1.9417729,0.2293944 3.7276959,1.281868 4.8911799,2.8824519 0.682938,0.9395054 1.128011,2.026766 1.297288,3.1691271 0.05077,0.3426165 0.0693,0.5808114 0.07485,0.9621929 0.0056,0.388527 -0.0081,0.661667 -0.05127,1.0156476 -0.137599,1.1290866 -0.557775,2.2346256 -1.210156,3.1840876 -0.0462,0.06725 -0.08603,0.122307 -0.08852,0.122368 -0.0025,7.6e-5 -0.770149,-1.253306 -1.705916,-2.7852731 -0.935767,-1.5319611 -1.705204,-2.7895317 -1.709859,-2.7945946 -0.0064,-0.00691 -0.04801,0.058135 -0.167791,0.2621356 -0.08763,0.1492375 -0.160797,0.2770905 -0.162593,0.2841176 -0.0018,0.00702 0.07088,0.3577385 0.161479,0.7793587 0.09061,0.4216168 0.163468,0.7678574 0.161907,0.7694194 -0.0016,0.0016 -0.528452,-0.9035334 -1.1708677,-2.0113225 C 8.9990817,6.1006475 8.4707788,5.1942747 8.4674907,5.1942747 c -0.00329,0 -0.3315843,0.5540476 -0.7295476,1.2312169 L 7.0143686,7.6567078 7.1810077,8.4338774 C 7.2726587,8.8613184 7.3467558,9.2137946 7.3456671,9.2171536 7.3445871,9.2205536 7.0693322,8.7505832 6.734008,8.1728691 6.3986841,7.595154 6.1221105,7.1225363 6.1194004,7.1226077 6.1167004,7.1226765 5.3508953,8.3726708 4.4176349,9.9003639 3.4843745,11.428061 2.7160481,12.684468 2.7102404,12.692382 c -0.00984,0.01337 -0.013818,0.0098 -0.056723,-0.04963 z"
     id="path798" />
</svg>
