<?xml version="1.0" encoding="UTF-8" standalone="no"?>
<svg
   width="64"
   height="64"
   viewBox="0 0 16.933 16.933"
   version="1.1"
   id="svg186"
   sodipodi:docname="notesnook.svg"
   inkscape:version="1.2.2 (b0a8486541, 2022-12-01)"
   xmlns:inkscape="http://www.inkscape.org/namespaces/inkscape"
   xmlns:sodipodi="http://sodipodi.sourceforge.net/DTD/sodipodi-0.dtd"
   xmlns="http://www.w3.org/2000/svg"
   xmlns:svg="http://www.w3.org/2000/svg">
  <defs
     id="defs190">
    <inkscape:perspective
       sodipodi:type="inkscape:persp3d"
       inkscape:vp_x="-16.623075 : -3.0895728 : 1"
       inkscape:vp_y="0 : 21653.276 : 0"
       inkscape:vp_z="39.025735 : -3.3174706 : 1"
       inkscape:persp3d-origin="37.157789 : -174.92776 : 1"
       id="perspective250" />
  </defs>
  <sodipodi:namedview
     id="namedview188"
     pagecolor="#ffffff"
     bordercolor="#000000"
     borderopacity="0.25"
     inkscape:showpageshadow="2"
     inkscape:pageopacity="0.0"
     inkscape:pagecheckerboard="0"
     inkscape:deskcolor="#d1d1d1"
     showgrid="false"
     inkscape:zoom="17.312017"
     inkscape:cx="32.578526"
     inkscape:cy="32.318591"
     inkscape:window-width="1920"
     inkscape:window-height="1011"
     inkscape:window-x="0"
     inkscape:window-y="28"
     inkscape:window-maximized="1"
     inkscape:current-layer="svg186" />
  <circle
     cx="8.466"
     cy="8.466"
     r="7.144"
     fill="#f0f0f0"
     style="paint-order:stroke markers fill"
     id="circle170" />
  <path
     id="rect563"
     style="stroke-width:0.264578"
     d="m 8.4827242,3.4026344 h 0.0822 V 9.808553 h -0.0822 z" />
  <path
     id="rect563-3"
     style="stroke-width:0.211527"
     transform="matrix(0.47323401,0.88093676,-0.89717119,0.44168298,0,0)"
     d="m 12.520484,-2.8948083 h 0.06489 v 5.1868372 h -0.06489 z" />
  <path
     id="rect563-3-6"
     style="stroke-width:0.211527"
     transform="matrix(-0.47323401,0.88093676,0.89717119,0.44168298,0,0)"
     d="m 4.978004,12.160309 h 0.06489 v 5.186837 h -0.06489 z" />
  <g
     aria-label="N"
     id="text693"
     style="font-size:3.17494px;stroke-width:0.264578"
     transform="matrix(1.499012,-0.0647083,0,1.4474281,-3.6920085,-3.5325322)">
    <path
       d="M 5.5916869,7.8239005 6.2375934,7.5434801 7.053238,8.8188532 V 7.189368 L 7.6015075,6.9513367 V 9.3271381 L 6.9556011,9.6075577 6.1399564,8.3321862 V 9.9616707 L 5.5916869,10.199702 Z"
       style="font-weight:bold;-inkscape-font-specification:'sans-serif Bold';stroke-width:0.26386"
       id="path795" />
  </g>
  <path
     id="rect1175"
     style="fill:#999999;stroke-width:0.264578"
     d="m 9.4475319,8.6397387 3.7693571,1.7472823 c 0.183954,0.08527 0.263398,0.302014 0.178126,0.485968 -0.08527,0.183954 -0.302013,0.263399 -0.485967,0.178127 L 9.1396911,9.3038334 C 8.955737,9.2185615 8.8762929,9.0018201 8.9615648,8.8178659 9.0468366,8.6339117 9.2635778,8.5544669 9.4475319,8.6397387 Z" />
  <path
     id="rect1175-2"
     style="fill:#999999;stroke-width:0.264578"
     d="m 9.4793369,7.1771655 3.7693561,1.7472829 c 0.183954,0.085272 0.263399,0.3020137 0.178127,0.4859679 -0.08527,0.1839542 -0.302014,0.2633986 -0.485968,0.1781267 L 9.1714961,7.8412601 C 8.987542,7.7559882 8.9080969,7.5392465 8.9933688,7.3552923 9.0786406,7.1713381 9.2953827,7.0918937 9.4793369,7.1771655 Z" />
  <path
     id="rect1175-2-9"
     style="fill:#999999;stroke-width:0.264578"
     d="m 9.4849404,5.7295283 3.7693556,1.7472829 c 0.183955,0.085272 0.2634,0.3020137 0.178128,0.4859679 -0.08527,0.1839542 -0.302014,0.2633986 -0.485968,0.1781267 L 9.1770997,6.3936229 C 8.9931455,6.308351 8.9137013,6.0916097 8.9989732,5.9076555 9.0842451,5.7237013 9.3009863,5.6442565 9.4849404,5.7295283 Z" />
</svg>
