<svg width="64" height="64" version="1.1" viewBox="0 0 16.933 16.933" xmlns="http://www.w3.org/2000/svg" xmlns:xlink="http://www.w3.org/1999/xlink">
 <ellipse cx="8.4127" cy="8.3768" rx="5.2198" ry="5.0046" fill="#333" style="paint-order:stroke fill markers"/>
 <path transform="scale(.26458)" d="m28.475 5.2637a27 27 0 0 0-23.475 26.736 27 27 0 0 0 23.475 26.74v-53.477z" fill="#333" stroke-width="3.7796" style="paint-order:stroke fill markers"/>
 <path transform="scale(.26458)" d="m32 5a27 27 0 0 0-3.75 0.29102v16.689l0.39844-0.009766c8.712-0.056694 14.361 7.5215 14.361 7.5215s-6.6938 8.3242-13.672 8.3242c-0.37796 0-0.73828-0.018844-1.0879-0.05664v2.1934c0.25512 0.018898 0.52058 0.023437 0.78516 0.023437 6.4915 0 11.192-3.3873 15.732-7.3984 0.75592 0.61418 3.8415 2.1167 4.4746 2.7734-4.3229 3.704-14.395 6.6836-20.107 6.6836-0.30237 0-0.59657-0.008445-0.88477-0.027344v16.697a27 27 0 0 0 3.75 0.29492 27 27 0 0 0 27-27 27 27 0 0 0-27-27zm-3.75 34.953c-0.24095-0.014174-0.41498-0.043919-0.64648-0.072266-7.9419-1.0252-10.658-9.9824-10.658-9.9824 0 0 3.5526-5.3769 10.658-5.9297 0.22678-0.014174 0.41026-0.032385 0.64648-0.037109v2.3848c0.18898-0.009449 0.45001-0.023437 0.64844-0.023437 4.1198 0 6.5664 3.2852 6.5664 3.2852l-3.3535 2.8906c-1.3465-2.3008-1.9574-3.4493-3.8613-3.8887v-2.2637c-0.23622 0.014174-0.41498 0.038878-0.64648 0.0625-4.7859 0.52914-7.668 3.7988-7.668 3.7988s1.6631 6.3872 7.668 7.4785c0.2315 0.047245 0.40553 0.075169 0.64648 0.10352v-1.8086c-0.24567-0.047245-0.42443-0.11386-0.64648-0.18945-3.3827-1.1622-4.4844-5.2109-4.4844-5.2109s1.9612-2.4047 4.4746-2.0977h0.009766c0.25985 0.033072 0.42443 0.080843 0.64648 0.13281v7.3652c0 0.37796 0.83261 0.12305 1.2578 0.12305 4.8851 0 9.4492-6.4824 9.4492-6.4824s-4.2817-5.8578-10.707-5.6641v-1.9434c-0.23622 0.009449-0.41498 0.020164-0.64648 0.039063-7.871 0.64253-14.684 7.4648-14.684 7.4648s3.8598 11.423 14.684 12.467c0.23622 0.023434 0.40553 0.037426 0.64648 0.046875v-2.0488z" color="#bebebe" fill="#4bd239" stroke-width="3.7796"/>
</svg>
