<svg width="64" height="64" version="1.1" viewBox="0 0 16.933 16.933" xmlns="http://www.w3.org/2000/svg">
 <path d="m8.4665 1.3229a7.1436 7.1436 0 0 0-6.8227 5.027h13.638a7.1436 7.1436 0 0 0-6.815-5.027z" fill="#2f8dac" style="paint-order:stroke fill markers"/>
 <circle cx="8.4665" cy="8.4665" r="6.3499" fill="#fff" stroke-width=".88889" style="paint-order:stroke fill markers"/>
 <path d="m14.866 5.3009-11.464 8.1993a7.1436 7.1436 0 0 0 5.0637 2.1099 7.1436 7.1436 0 0 0 7.1436-7.1436 7.1436 7.1436 0 0 0-0.74361-3.1656z" fill="#26a4ca" style="paint-order:markers stroke fill"/>
 <path d="m2.0706 5.304a7.1436 7.1436 0 0 0-0.74774 3.1625 7.1436 7.1436 0 0 0 7.1436 7.1436 7.1436 7.1436 0 0 0 5.0621-2.1109z" fill="#49bde3" style="paint-order:markers stroke fill"/>
 <path d="m3.2061 8.7321c-0.197 0-0.358 0.147-0.358 0.33v0.383l2.32 1.339v-0.982l-1.778-1.023a0.381 0.381 0 0 0-0.184-0.048m2.35 0v0.982l2.32 1.338v-0.981m-5.028-0.313v0.982l2.32 1.339v-0.982zm2.707 0.268v0.982l2.32 1.338v-0.981zm-2.707 1.026v0.982l2.32 1.339v-0.982m0.387-1.07v0.98l1.779 1.024c0.055 0.031 0.119 0.048 0.184 0.048 0.197 0 0.357-0.148 0.357-0.33v-0.384" fill="#fff"/>
</svg>
