<?xml version="1.0" encoding="UTF-8" standalone="no"?>
<svg
   width="64"
   height="64"
   viewBox="0 0 16.933 16.933"
   version="1.1"
   id="svg2"
   sodipodi:docname="obfuscate.svg"
   inkscape:version="1.4.2 (ebf0e940d0, 2025-05-08)"
   xmlns:inkscape="http://www.inkscape.org/namespaces/inkscape"
   xmlns:sodipodi="http://sodipodi.sourceforge.net/DTD/sodipodi-0.dtd"
   xmlns="http://www.w3.org/2000/svg"
   xmlns:svg="http://www.w3.org/2000/svg">
  <defs
     id="defs2">
    <linearGradient
       id="a"
       gradientUnits="userSpaceOnUse"
       x1="8.4940004"
       x2="66"
       y1="74"
       y2="74">
      <stop
         offset="0"
         stop-color="#1a5fb4"
         id="stop1" />
      <stop
         offset=".085"
         stop-color="#62a0ea"
         id="stop2" />
      <stop
         offset=".199"
         stop-color="#1a5fb4"
         id="stop3" />
      <stop
         offset="1"
         stop-color="#1a5fb4"
         id="stop4" />
    </linearGradient>
    <linearGradient
       id="b"
       gradientTransform="matrix(-1,0,0,1.3526384,129.874,-258.04795)"
       gradientUnits="userSpaceOnUse"
       x1="66"
       x2="44"
       y1="234"
       y2="234">
      <stop
         offset="0"
         stop-color="#fff"
         id="stop5" />
      <stop
         offset="1"
         stop-color="#648cf9"
         stop-opacity="0"
         id="stop6" />
    </linearGradient>
    <clipPath
       clipPathUnits="userSpaceOnUse"
       id="clipPath4">
      <circle
         fill="#f0f0f0"
         style="fill:#3584e4;fill-opacity:1;stroke-width:8.33091;paint-order:stroke fill markers"
         id="circle4"
         r="59.516087"
         cy="71.996643"
         cx="59.934139" />
    </clipPath>
  </defs>
  <sodipodi:namedview
     id="namedview2"
     pagecolor="#505050"
     bordercolor="#ffffff"
     borderopacity="1"
     inkscape:showpageshadow="0"
     inkscape:pageopacity="0"
     inkscape:pagecheckerboard="1"
     inkscape:deskcolor="#505050"
     inkscape:zoom="9.0377085"
     inkscape:cx="11.617989"
     inkscape:cy="43.373826"
     inkscape:window-width="1920"
     inkscape:window-height="1012"
     inkscape:window-x="0"
     inkscape:window-y="0"
     inkscape:window-maximized="1"
     inkscape:current-layer="svg2" />
  <circle
     fill="#f0f0f0"
     style="paint-order:stroke fill markers;fill:#3584e4;fill-opacity:1"
     id="circle1"
     r="7.144"
     cy="8.466"
     cx="8.466" />
  <path
     d="M 4.5128548,8.9466391 V 9.5468129 H 5.1130286 M 4.9929939,9.0666738 V 10.026952 M 5.5931677,8.9466391 H 5.953272 V 9.4267782 H 5.5931677 Z M 5.3530982,9.4267782 h 0.7202086 v 0.480139 H 5.3530982 Z M 6.5534459,8.9466391 H 7.033585 V 9.4267782 H 6.5534459 v 0.480139 h 0.6001738 m 0.7202086,0 H 8.1138979 V 8.9466391 H 7.513724 v 0.4801391 h 0.6001739"
     style="fill:none;stroke:#ffffff;stroke-width:0.24007"
     id="path8" />
  <path
     d="M 3.6726114,11.587404 H 7.513724 v 0.960278 H 3.6726114 Z m 0,-0.960278 h 2.4006954 v 0.480139 H 3.6726114 Z m 0,0"
     fill="#99c1f1"
     id="path9"
     style="stroke-width:0.120035" />
  <g
     id="g3"
     transform="matrix(0.12003477,0,0,0.12003477,1.271916,-0.17600344)"
     inkscape:label="g1">
    <path
       d="m 30.777,38.637 8.586,8.586 a 3.925,3.925 0 0 1 0,5.554 l -8.586,8.586 a 3.925,3.925 0 0 1 -5.554,0 l -8.586,-8.586 a 3.925,3.925 0 0 1 0,-5.554 l 8.586,-8.586 a 3.925,3.925 0 0 1 5.554,0 z m 0,0"
       fill="#c64600"
       id="path19" />
    <path
       d="m 44.777,38.637 8.586,8.586 a 3.925,3.925 0 0 1 0,5.554 l -8.586,8.586 a 3.925,3.925 0 0 1 -5.554,0 l -8.586,-8.586 a 3.925,3.925 0 0 1 0,-5.554 l 8.586,-8.586 a 3.925,3.925 0 0 1 5.554,0 z m 0,0"
       fill="#f5c211"
       id="path20" />
    <path
       d="m 35,42.86 -4.363,4.363 a 3.918,3.918 0 0 0 0,5.554 L 35,57.141 39.363,52.777 a 3.918,3.918 0 0 0 0,-5.554 z m 0,0"
       fill="#ff7800"
       id="path21" />
  </g>
  <g
     id="g4"
     transform="matrix(0.12003477,0,0,0.12003477,1.271916,-0.17600344)"
     inkscape:label="g2">
    <path
       d="M 72,72 H 88 V 88 H 72 Z m 0,0"
       fill="#ffffff"
       id="path11" />
    <path
       d="m 88,72 h 16 V 88 H 88 Z m 0,0"
       fill="#ffffff"
       style="opacity:0.8"
       id="path12" />
    <path
       d="m 72,88 h 16 v 16 H 72 Z m 0,0"
       fill="#62a0ea"
       id="path13" />
    <path
       d="m 88,88 h 16 v 16 H 88 Z m 0,0"
       fill="#99c1f1"
       id="path17" />
  </g>
  <g
     id="g2"
     transform="matrix(0.12003477,0,0,0.12003477,1.271916,-0.17600344)"
     inkscape:label="g3"
     clip-path="url(#clipPath4)">
    <path
       d="m 97.875,12.479742 h -34 V 131.51192 h 34 z m 0,0"
       fill="url(#b)"
       id="path14"
       style="fill:url(#b);stroke-width:1.16303" />
    <path
       d="M 60,131.51192 59.875,12.479742 h 8 L 68,131.51192 Z"
       fill="#fff"
       style="fill:#6bf9f4;fill-opacity:1;stroke-width:1.16303"
       id="path15" />
    <path
       d="M 62,131.51192 61.875,12.479742 h 4 L 66,131.51192 Z"
       fill="#ffffff"
       id="path16"
       style="stroke-width:1.16303" />
  </g>
</svg>
