<svg width="64" height="64" version="1" xmlns="http://www.w3.org/2000/svg">
 <g transform="translate(-6,-6)" stroke-width=".102">
  <rect x="11" y="11" width="54" height="54" rx="27" ry="27" fill="#333333" stroke-width=".10592"/>
  <path d="m48.552 56.109c-0.264 1.94-2.163 3.453-4.063 2.935-2.68-0.741-5.789-1.899-8.602-2.112l-4.296-0.325a2.834 2.834 0 0 1-1.828-0.853l-7.414-7.618a2.834 2.834 0 0 1-0.549-3.148s4.58-10.055 4.753-10.583c0.173-0.518 0.793-5.078 1.158-7.536a2.844 2.844 0 0 1 0.914-1.686l8.755-7.87a2.844 2.844 0 0 1 4.123 0.355l7.364 9.343a3.016 3.016 0 0 1 0.63 1.859c0 1.767 0.152 5.403 1.127 7.75a30.773 30.773 0 0 0 3.615 5.94 1.422 1.422 0 0 1 0.112 1.595c-0.65 1.097-1.92 3.19-3.727 5.88a14.554 14.554 0 0 0-2.072 6.074z" fill="#6c31e3"/>
  <path d="m30.555 56.322c3.443-6.977 3.352-11.984 1.879-15.539-1.34-3.29-3.85-5.362-5.82-6.652-0.04 0.193-0.101 0.375-0.182 0.548l-4.632 10.309a2.834 2.834 0 0 0 0.559 3.148l7.404 7.618c0.233 0.233 0.508 0.426 0.792 0.568z" fill="#8962d9"/>
  <path d="m39.92 42.164a11.12 11.12 0 0 1 2.722 0.62c2.823 1.056 5.393 3.432 7.515 8.013 0.153-0.264 0.305-0.518 0.468-0.762a124.11 124.11 0 0 0 3.727-5.88 1.422 1.422 0 0 0-0.101-1.595 30.773 30.773 0 0 1-3.626-5.941c-0.975-2.336-1.117-5.982-1.128-7.75a3 3 0 0 0-0.63-1.858l-7.363-9.344-0.121-0.152c0.538 1.777 0.507 3.199 0.172 4.489-0.304 1.198-0.873 2.285-1.472 3.433-0.204 0.386-0.407 0.782-0.6 1.188a14.219 14.219 0 0 0-1.604 5.89c-0.102 2.458 0.396 5.536 2.03 9.649z" fill="#a683ee"/>
  <path d="m39.909 42.164c-1.635-4.113-2.133-7.19-2.031-9.648 0.101-2.438 0.812-4.266 1.605-5.891l0.609-1.188c0.589-1.148 1.148-2.235 1.462-3.433a7.973 7.973 0 0 0-0.172-4.49 2.844 2.844 0 0 0-4.002-0.202l-8.755 7.87a2.844 2.844 0 0 0-0.914 1.687l-1.066 7.068c0 0.072-0.02 0.132-0.03 0.204 1.97 1.28 4.468 3.351 5.819 6.632 0.264 0.65 0.487 1.33 0.65 2.071a20.312 20.312 0 0 1 6.825-0.69z" fill="#c9b4f5"/>
  <path d="m44.5 59.044c1.89 0.518 3.788-0.995 4.052-2.945a15.539 15.539 0 0 1 1.615-5.302c-2.133-4.58-4.702-6.957-7.515-8.013-2.996-1.117-6.257-0.742-9.568 0.06 0.742 3.362 0.305 7.76-2.518 13.478 0.314 0.162 0.67 0.254 1.025 0.284l4.459 0.335c2.417 0.173 6.023 1.422 8.45 2.103z" fill="#663db9"/>
 </g>
</svg>
