<svg xmlns="http://www.w3.org/2000/svg" width="64" height="64"><rect width="54" height="54" x="5" y="5" fill="#496cdf" fill-rule="evenodd" rx="27" ry="27" style="paint-order:stroke fill markers"/><path fill="#ffe680" fill-rule="evenodd" d="M20.874 30.983c3.513 0 5.849-2.437 5.849-6.084 0-3.53-2.27-5.9-5.664-5.9-3.48 0-5.782 2.438-5.782 6.085 0 3.546 2.236 5.899 5.597 5.899m.185-1.9c-2.118 0-3.513-1.663-3.513-4.184 0-2.403 1.328-3.983 3.328-3.983 2.168 0 3.58 1.647 3.58 4.168 0 2.403-1.345 4-3.395 4M34.748 31c1.193 0 2.504-.303 3.512-.79l-.487-1.563a7.5 7.5 0 0 1-2.504.454c-2.555 0-4.151-1.681-4.151-4.303 0-2.47 1.445-3.882 3.899-3.882.924 0 1.983.185 2.74.487l.604-1.68A7.7 7.7 0 0 0 35.067 19c-3.68 0-6.201 2.437-6.201 6.1 0 3.53 2.386 5.9 5.882 5.9m6.11-.168h7.865v-1.9h-5.698v-3.125h5.227v-1.9h-5.227v-2.84h5.698v-1.9h-7.866z" aria-label="OCE" style="paint-order:stroke fill markers"/><path fill="#fff" fill-rule="evenodd" d="M11.346 42.957h1.833c1.816 0 3.052-1.184 3.052-3.112 0-1.816-1.09-2.888-2.922-2.888h-1.963zm.718-.622V37.58h1.158c1.461 0 2.274.855 2.274 2.377 0 1.513-.804 2.378-2.23 2.378zm5.753.622h.718v-2.43h1.184c.06 0 .121 0 .19-.008l1.392 2.438h.856l-1.521-2.594a1.8 1.8 0 0 0 1.175-1.729c0-1.055-.778-1.677-2.005-1.677h-1.989zm.718-3.035V37.58h1.184c.856 0 1.357.44 1.357 1.184 0 .735-.45 1.158-1.27 1.158zm4.232 3.035h.752l.64-1.781h2.498l.597 1.781h.804l-2.11-6h-.933zm1.608-2.403 1.063-2.983 1.003 2.983zm5.978 2.403h.718l1.59-5.084 1.678 5.084h.691l1.781-6h-.717l-1.392 5.014-1.6-4.97H32.3l-1.557 5.022-1.366-5.066h-.83zm7.682 0h3.77v-.622h-3.053v-2.17h2.819v-.623h-2.819V37.58h3.052v-.623h-3.77zm8.831 0h.856l-2.179-3.147 1.954-2.853h-.812l-1.513 2.291-1.487-2.291h-.856l1.945 2.888-2.118 3.112h.812l1.678-2.56zm2.019 0h3.77v-.622h-3.053v-2.17h2.819v-.623h-2.819V37.58h3.052v-.623h-3.77z" aria-label="DRAWEXE" style="paint-order:stroke fill markers"/></svg>