<?xml version="1.0" encoding="UTF-8" standalone="no"?>
<svg
   width="64"
   height="64"
   viewBox="0 0 16.933 16.933"
   version="1.1"
   id="svg2"
   sodipodi:docname="ocenaudio.svg"
   xml:space="preserve"
   inkscape:version="1.3.2 (091e20ef0f, 2023-11-25, custom)"
   xmlns:inkscape="http://www.inkscape.org/namespaces/inkscape"
   xmlns:sodipodi="http://sodipodi.sourceforge.net/DTD/sodipodi-0.dtd"
   xmlns="http://www.w3.org/2000/svg"
   xmlns:svg="http://www.w3.org/2000/svg"><defs
     id="defs2" /><sodipodi:namedview
     id="namedview2"
     pagecolor="#505050"
     bordercolor="#ffffff"
     borderopacity="1"
     inkscape:showpageshadow="0"
     inkscape:pageopacity="0"
     inkscape:pagecheckerboard="1"
     inkscape:deskcolor="#505050"
     inkscape:zoom="8.2161401"
     inkscape:cx="28.054536"
     inkscape:cy="34.748677"
     inkscape:window-width="1366"
     inkscape:window-height="844"
     inkscape:window-x="0"
     inkscape:window-y="0"
     inkscape:window-maximized="1"
     inkscape:current-layer="svg2" /><ellipse
     cx="8.4665003"
     cy="8.4665003"
     fill="#f0f0f0"
     style="fill:#61c478;fill-opacity:1;stroke:#3dae5a;stroke-width:1.84342;stroke-dasharray:none;stroke-opacity:1;paint-order:stroke fill markers"
     id="circle1"
     rx="6.2218981"
     ry="6.2218986" /><g
     id="g3"
     transform="matrix(0.26457812,0,0,0.26457812,2.1165861,1.9843489)"><path
       style="fill:#4f4f4f"
       d="m 26.289062,4.0039062 c -0.503803,0.021109 -1.002397,0.139522 -1.464843,0.3125 -4.148037,1.0953437 -7.938942,2.8744486 -11.457031,4.7597657 -0.02493,0.013322 -0.04967,0.026995 -0.07422,0.041016 -0.664061,0.3802925 -1.712624,0.9047541 -2.740235,1.9550781 -1.0276107,1.050326 -1.977983,3.239527 -1.3535152,5.232422 l -0.076172,-0.300782 c 0.5707021,2.8152 1.2459312,5.796266 2.4414062,8.736328 -0.01569,0.01309 -0.05677,0.02023 -0.07226,0.0332 -0.404917,0.338429 -0.709088,0.711302 -0.980469,1.146484 -0.965356,1.503224 -1.0548053,3.169883 -0.9394535,4.357422 0.1163225,1.197531 0.3617227,2.107964 0.4238282,2.625 0.00184,0.01499 0.00379,0.02996 0.00586,0.04492 0.08682,0.641843 0.167299,1.671151 0.707031,2.892578 0.53069,1.200965 1.973239,2.696967 3.810547,3.011718 0.572008,0.14295 1.421375,0.154038 2.404297,-0.419921 1.624442,2.326319 3.843936,4.459448 7.054688,5.355468 0.0039,0.0013 0.0078,0.0026 0.01172,0.0039 0.373735,0.102593 0.808481,0.150943 1.25586,0.173828 1.936615,0.203411 3.725572,-0.497608 4.966797,-1.457032 1.26857,-0.980561 2.123124,-2.179136 2.732421,-3.355468 0.0046,-0.0091 0.0092,-0.01821 0.01367,-0.02734 0.469655,-0.930302 0.807299,-1.900392 1.117188,-2.875 0.02019,-4.48e-4 0.04037,-0.0011 0.06055,-0.002 2.565953,-0.144545 4.367182,-1.718409 4.6875,-4.367188 0.239618,-1.981759 0.216615,-3.95343 0.04102,-5.863281 -0.06879,-1.113731 -0.37352,-1.978828 -0.925781,-2.912109 -0.3008,-0.508252 -0.707015,-1.095488 -1.31056,-1.576116 C 35.242581,17.223618 33.121793,13.094302 31.818359,8.7871094 31.804869,8.7333194 31.789887,8.6799138 31.773438,8.6269531 31.499193,7.7456335 31.083607,6.825377 30.306641,5.9042969 29.529676,4.9832166 28.129359,3.9267965 26.289062,4.0039062 Z m -0.01953,5.2382813 0.101563,0.023437 0.154297,0.099609 c 1.277428,1.4221115 2.079364,3.1733735 2.896484,4.8652345 0.268374,1.047578 1.726721,2.512942 0.488281,3.353515 -0.287088,1.057733 -1.179923,1.137738 -1.876953,0.298828 -0.98399,-1.118787 0.240244,-2.850603 -0.324219,-3.93164 -0.304597,1.139199 -1.29466,3.476515 -2.623046,1.566406 -0.887061,-1.529698 -1.1128,-3.354151 -2.128907,-4.83789 -0.01272,-1.1597528 2.353723,-0.9189398 3.3125,-1.4374995 z m -4.162109,1.2246095 0.130859,0.04297 c 1.065165,1.613712 1.909043,4.0001 0.488281,5.662109 -1.79879,0.147999 -2.739425,-1.618718 -3.248046,-3.005859 -0.595441,-1.494396 -0.569644,0.404244 -0.394532,1 -0.134043,0.738676 1.485435,2.560194 0.310547,2.521484 -1.539876,-0.215128 -2.82892,-1.054335 -3.769531,-2.220703 -0.868476,1.123844 0.941335,2.297489 1.765625,3.03125 0.648596,1.211906 -1.762287,0.697243 -2.318359,0.181641 -0.945697,0.4432 1.418884,1.216771 1.634765,1.896484 -0.825927,1.087801 -2.82214,-0.134509 -2.427734,-1.507813 -0.169468,-1.542344 -0.522716,-3.570647 1.017578,-4.599609 2.162611,-1.197057 4.463254,-2.194702 6.810547,-3.001953 z"
       id="path2-6" /><path
       style="fill:#ffb925"
       d="m 24.805102,40.869196 c -3.417886,-0.954555 -5.640558,-3.99084 -7.047086,-6.969025 -1.64484,-3.553469 -2.380342,-7.795436 -0.846517,-11.501616 1.241366,-2.912644 4.661418,-5.044463 7.949422,-4.449507 3.552521,0.888301 5.987423,4.1146 6.720499,7.461527 0.940775,4.088555 0.617596,8.5467 -1.295098,12.338293 -0.889661,1.718927 -2.584591,3.498038 -4.768235,3.222805 -0.241377,-7.3e-5 -0.481341,-0.03884 -0.712985,-0.102477 z m 0.658943,-1.235397 c 1.611776,-0.272238 3.643434,-0.521949 4.356915,-2.181938 0.74856,-2.013004 1.287448,-4.130028 1.188904,-6.284481 -0.02918,-1.299525 0.941495,-3.839364 -1.372007,-3.450171 -2.111507,-0.183929 -3.942488,0.948159 -5.719026,1.860504 -1.310984,0.653139 -2.763142,0.501676 -4.15742,0.318261 -1.026789,0.01357 -1.827255,1.164485 -2.067155,2.032016 0.122239,1.477324 1.420283,2.604111 2.234665,3.808638 1.158445,1.461841 1.954174,3.707265 4.139953,3.927567 0.462722,0.05824 0.932668,0.0033 1.395171,-0.0304 z m -0.136012,-2.624338 c -2.179702,-0.949912 1.922544,-2.371065 1.746101,-0.536451 -0.453817,0.393991 -1.120406,0.784654 -1.746101,0.536451 z m -6.446361,-8.188155 c 1.924215,-0.732699 3.697252,-1.992151 5.846699,-2.026034 1.069583,-0.236928 3.24449,0.109558 3.68514,-0.493731 -0.692204,-0.08687 -1.866686,-0.459173 -0.58422,-0.835208 1.525013,-0.493753 -1.146238,-0.540184 0.108338,-1.10288 0.71431,-0.13149 1.506104,-0.764989 0.22394,-0.589392 -1.944802,0.456548 -2.94884,2.673419 -5.062245,2.753608 -1.865092,0.339637 -3.763421,-0.847538 -5.568218,-0.146053 0.12225,0.677408 2.87401,-0.42226 2.282056,0.796362 -0.580597,0.211853 -1.552914,0.720586 -0.380225,0.788418 0.05021,0.18777 -1.457341,1.138122 -0.551261,0.85491 z m -3.807274,7.075507 c -1.647387,-0.243409 -1.88593,-2.075722 -2.061311,-3.37326 -0.196681,-1.638654 -0.926285,-3.501267 0.06326,-5.016913 0.437027,-0.716327 1.271415,-1.037707 0.989124,0.107004 -0.136526,2.466809 0.303633,4.938152 1.287051,7.21838 0.08463,0.379939 0.610985,1.312443 -0.27813,1.064788 z M 33.97172,33.228736 c -0.156806,-3.188263 0.146937,-6.402449 -0.259073,-9.585485 1.192352,-0.335308 2.101415,1.513125 2.16144,2.558297 0.165805,1.757993 0.180255,3.547324 -0.03145,5.29958 -0.107357,0.888428 -1.002787,1.678667 -1.870917,1.727608 z M 14.454702,23.819432 c -1.125427,-2.697837 -1.774087,-5.571937 -2.351174,-8.420807 -0.573107,-1.830379 1.358458,-2.902557 2.717498,-3.681439 3.502582,-1.8784399 7.156162,-3.6011417 11.044048,-4.5928324 1.564769,-0.6105068 2.66906,1.1615215 3.050585,2.3885418 0.519375,2.0700026 1.630903,3.9744776 1.988992,6.0785176 -0.69926,-0.792344 -1.086521,-2.76844 -1.791147,-3.974719 -0.84062,-1.159043 -1.201687,-3.5229211 -3.014215,-3.4138564 -3.258344,0.3164916 -6.228047,1.8273874 -9.115725,3.2194444 -1.380482,0.827042 -3.166181,1.463623 -3.848756,2.994159 -0.278819,2.052084 0.472896,4.078194 0.934995,6.059896 0.107476,0.939066 1.030837,2.782553 0.384899,3.343095 z"
       id="path4" /><path
       style="fill:#ffffff"
       d="m 28.855466,28.277739 c -2.634546,-0.10812 -4.301214,2.661144 -6.957445,2.388244 -1.424655,-0.241564 -3.557211,-0.05561 -3.369501,1.832297 -0.419062,0.829351 1.784016,3.282027 1.708539,1.449348 -0.213288,-1.754568 2.184668,-1.522145 3.24804,-2.349468 1.787341,-0.716053 3.727485,-0.961326 5.624605,-1.251782 0.395555,0.4471 1.431249,1.905774 1.592494,0.39058 -0.186738,-0.664528 0.457667,-1.79721 -0.340904,-2.187829 -0.485231,-0.16639 -0.986574,-0.283823 -1.505828,-0.27139 z"
       id="path5" /></g></svg>
