<?xml version="1.0" encoding="UTF-8" standalone="no"?>
<svg
   width="64"
   height="64"
   viewBox="0 0 16.934 16.934"
   version="1.1"
   id="svg6"
   xmlns="http://www.w3.org/2000/svg"
   xmlns:svg="http://www.w3.org/2000/svg">
  <defs
     id="defs10" />
  <circle
     cx="8.467"
     cy="8.467"
     r="7.144"
     fill="#333"
     style="fill:#1a1a1a;fill-opacity:1;paint-order:markers stroke fill"
     id="circle2" />
  <path
     style="fill:#da541b;stroke-width:0.0117087;fill-opacity:1"
     d="m 11.013063,12.965109 c -0.01653,-0.0078 -0.141218,-0.131045 -0.277116,-0.273968 -0.261336,-0.27485 -0.253469,-0.263865 -0.36312,-0.507058 -0.03669,-0.08137 -0.251143,-0.375585 -0.4139214,-0.567871 C 9.7249023,11.339791 9.4415779,10.985645 9.3766132,10.888365 9.295832,10.767401 9.2816441,10.754211 9.0669876,10.600543 8.9084305,10.48704 8.907369,10.485969 8.8633192,10.395643 8.8043506,10.274715 8.7270329,10.153782 8.6938135,10.130513 c -0.014831,-0.01037 -0.048487,-0.01886 -0.074828,-0.01886 -0.054295,0 -0.077478,0.01971 -0.1533615,0.130469 -0.033799,0.04933 -0.1817041,0.182574 -0.5835935,0.525753 -0.2960777,0.252825 -0.546674,0.47073 -0.5568858,0.484236 -0.010221,0.0135 -0.033441,0.0509 -0.051623,0.0831 -0.018197,0.0322 -0.043273,0.06983 -0.055754,0.08363 -0.012495,0.0138 -0.1336265,0.09547 -0.2692122,0.181483 -0.2707166,0.171747 -0.3689492,0.254314 -0.5177978,0.435221 -0.1103369,0.134105 -0.1092481,0.133193 -0.5212765,0.435194 -0.4176363,0.30611 -0.375482,0.295367 -0.5977845,0.152336 C 5.2247622,12.567135 5.1319676,12.503684 5.1054904,12.482065 5.0590446,12.444148 4.7576866,12.061657 4.6118103,11.855475 4.5665655,11.791529 4.4789784,11.696596 4.3701125,11.593508 4.2022961,11.434596 4.1993754,11.430975 4.1993754,11.381957 v -0.04987 l 1.1972097,-1.0697 C 6.0550517,9.6740527 6.7317674,9.064628 6.9003965,8.9081094 7.2401935,8.5927152 7.2535109,8.5751638 7.2399508,8.4606567 7.2250288,8.3347155 7.2029068,8.307013 6.9040785,8.0401967 6.7371629,7.8911601 6.7090267,7.8576556 6.6456391,7.7324636 6.5843291,7.6113782 6.5491231,7.5741706 6.3961953,7.4688319 6.2535004,7.3705449 6.2802142,7.3962759 5.4808936,6.5872166 5.1146376,6.2164963 4.8662462,5.9759479 4.7028488,5.8337383 4.4236583,5.5907516 4.3926257,5.5589455 4.2686499,5.3887301 4.1733679,5.2579151 4.1615855,5.2254085 4.1887149,5.1682111 4.1957249,5.1534101 4.2729569,5.0833561 4.3603254,5.0125202 4.5961879,4.8212899 4.6567094,4.7611566 4.7430985,4.6322159 4.8219725,4.514497 4.9864644,4.329299 5.094469,4.2366227 5.164031,4.1769357 5.5039377,3.9626488 5.5399837,3.9557581 c 0.013951,-0.00273 0.043355,0.00306 0.065377,0.012768 0.051923,0.022838 1.3710464,1.256151 1.4962141,1.3988974 0.057401,0.065465 0.2983008,0.2884985 0.6030253,0.5583082 0.5136791,0.4548166 0.5459764,0.488221 0.5459764,0.5646652 0,0.018774 0.00773,0.060142 0.017166,0.0919 0.015134,0.050965 0.041272,0.081612 0.2227422,0.2611842 0.2527285,0.2500868 0.2378642,0.2448338 0.4384571,0.1550357 0.073275,-0.032804 0.1551785,-0.076823 0.1820105,-0.097826 0.026841,-0.021018 0.2295571,-0.2410427 0.4504978,-0.4889731 0.5007259,-0.561887 0.5202579,-0.5819193 0.6561979,-0.673061 0.156774,-0.1051081 0.776444,-0.6273703 0.831736,-0.7009939 0.0249,-0.033141 0.09426,-0.1260231 0.154141,-0.206407 0.08664,-0.1162905 0.116685,-0.1483391 0.147069,-0.1568707 0.02269,-0.00637 0.04756,-0.00646 0.06127,-1.971e-4 0.03548,0.016165 1.310631,1.25707 1.329747,1.294038 0.03271,0.06326 0.01556,0.1394557 -0.04353,0.1934231 -0.0151,0.0138 -0.06001,0.041338 -0.0998,0.061216 -0.07847,0.039206 -0.120488,0.080778 -1.520577,1.504506 -0.394629,0.4012768 -0.658097,0.6600862 -0.70198,0.6895539 -0.0753,0.050564 -0.197721,0.1497464 -0.231246,0.1873482 -0.01159,0.012981 -0.02047,0.041499 -0.02044,0.065589 3.3e-5,0.036589 0.0097,0.051884 0.06824,0.1082169 0.05748,0.055302 0.07608,0.084324 0.118492,0.1848217 0.06886,0.1631821 0.09656,0.2002593 0.230179,0.3080819 0.06368,0.051383 0.136053,0.1127086 0.160829,0.1362803 0.06472,0.061562 0.273834,0.3294972 0.351479,0.45034 0.03642,0.056682 0.375755,0.472923 0.754076,0.924986 0.378321,0.452059 0.699666,0.837125 0.714099,0.855705 0.03791,0.04878 0.03549,0.119827 -0.0059,0.175402 -0.0259,0.03473 -1.289998,1.072939 -1.395937,1.14649 -0.03358,0.02332 -0.0643,0.02475 -0.106461,0.0049 z"
     id="path919" />
</svg>
