<svg width="64" height="64" version="1.1" xmlns="http://www.w3.org/2000/svg">
 <circle cx="32" cy="32" r="27" fill="#388e3c" stroke-width="3.7796" style="paint-order:stroke fill markers"/>
 <g fill-rule="evenodd">
  <path d="m48 49-2 2h2z" fill="#e6ea97"/>
  <rect x="12" y="18" width="40" height="28" rx="2" ry="2" fill="#263238" stroke-width=".83666"/>
  <path d="m14 20v24h36v-24z" fill="#fff" opacity=".15" stroke-width=".8165"/>
  <g transform="matrix(1.3 0 0 1.3 .8 -1304.9)" fill="#bcbcbc" stroke-width=".76923">
   <rect x="13.231" y="1032.2" width="7.6923" height=".76921"/>
   <rect x="22.462" y="1032.2" width="6.1538" height=".76921"/>
   <rect x="13.231" y="1033.7" width="6.9231" height=".76922"/>
   <rect x="21.692" y="1033.7" width="3.0769" height=".76922"/>
   <rect x="13.231" y="1035.3" width="3.8462" height=".76923"/>
   <rect x="18.615" y="1035.3" width="7.6923" height=".76923"/>
   <rect x="13.231" y="1030.7" width="5.3846" height=".76923"/>
   <rect x="20.154" y="1030.7" width="6.9231" height=".76923"/>
  </g>
  <g transform="matrix(1.3 0 0 1.3 .8 -1296.9)" fill="#959595" stroke-width=".76923">
   <rect x="13.231" y="1016.1" width="10" height=".76923"/>
   <rect x="24.769" y="1016.1" width="4.6154" height=".76923"/>
   <rect x="13.231" y="1017.6" width="6.9231" height=".76918"/>
   <rect x="21.692" y="1017.6" width="3.8462" height=".76918"/>
  </g>
  <g transform="translate(7,-3)" fill="#dee372">
   <rect x="12" y="52" width="1" height="1" ry="0" opacity=".6" style="paint-order:normal"/>
   <rect x="14" y="52" width="1" height="1" ry="0" opacity=".6" style="paint-order:normal"/>
   <rect x="16" y="52" width="1" height="1" ry="0" opacity=".6" style="paint-order:normal"/>
   <rect x="18" y="52" width="1" height="1" ry="0" opacity=".6" style="paint-order:normal"/>
   <rect x="20" y="52" width="1" height="1" ry="0" opacity=".6" style="paint-order:normal"/>
   <rect x="22" y="52" width="1" height="1" ry="0" opacity=".6" style="paint-order:normal"/>
   <rect x="24" y="52" width="1" height="1" ry="0" opacity=".6" style="paint-order:normal"/>
   <rect x="26" y="52" width="1" height="1" ry="0" opacity=".6" style="paint-order:normal"/>
   <rect x="28" y="52" width="1" height="1" ry="0" opacity=".6" style="paint-order:normal"/>
   <rect x="30" y="52" width="1" height="1" ry="0" opacity=".6" style="paint-order:normal"/>
   <rect x="13" y="53" width="1" height="1" ry="0" opacity=".6" style="paint-order:normal"/>
   <rect x="15" y="53" width="1" height="1" ry="0" opacity=".6" style="paint-order:normal"/>
   <rect x="17" y="53" width="1" height="1" ry="0" opacity=".6" style="paint-order:normal"/>
   <rect x="19" y="53" width="1" height="1" ry="0" opacity=".6" style="paint-order:normal"/>
   <rect x="21" y="53" width="1" height="1" ry="0" opacity=".6" style="paint-order:normal"/>
   <rect x="23" y="53" width="1" height="1" ry="0" opacity=".6" style="paint-order:normal"/>
   <rect x="25" y="53" width="1" height="1" ry="0" opacity=".6" style="paint-order:normal"/>
   <rect x="27" y="53" width="1" height="1" ry="0" opacity=".6" style="paint-order:normal"/>
   <rect x="29" y="53" width="1" height="1" ry="0" opacity=".6" style="paint-order:normal"/>
   <rect x="31" y="53" width="1" height="1" ry="0" opacity=".6" style="paint-order:normal"/>
  </g>
  <g transform="rotate(90,49,59)" fill="#dee372">
   <rect x="12" y="52" width="1" height="1" ry="0" opacity=".6" style="paint-order:normal"/>
   <rect x="14" y="52" width="1" height="1" ry="0" opacity=".6" style="paint-order:normal"/>
   <rect x="16" y="52" width="1" height="1" ry="0" opacity=".6" style="paint-order:normal"/>
   <rect x="18" y="52" width="1" height="1" ry="0" opacity=".6" style="paint-order:normal"/>
   <rect x="20" y="52" width="1" height="1" ry="0" opacity=".6" style="paint-order:normal"/>
   <rect x="22" y="52" width="1" height="1" ry="0" opacity=".6" style="paint-order:normal"/>
   <rect x="24" y="52" width="1" height="1" ry="0" opacity=".6" style="paint-order:normal"/>
   <rect x="26" y="52" width="1" height="1" ry="0" opacity=".6" style="paint-order:normal"/>
   <rect x="28" y="52" width="1" height="1" ry="0" opacity=".6" style="paint-order:normal"/>
   <rect x="30" y="52" width="1" height="1" ry="0" opacity=".6" style="paint-order:normal"/>
   <rect x="13" y="53" width="1" height="1" ry="0" opacity=".6" style="paint-order:normal"/>
   <rect x="15" y="53" width="1" height="1" ry="0" opacity=".6" style="paint-order:normal"/>
   <rect x="17" y="53" width="1" height="1" ry="0" opacity=".6" style="paint-order:normal"/>
   <rect x="19" y="53" width="1" height="1" ry="0" opacity=".6" style="paint-order:normal"/>
   <rect x="21" y="53" width="1" height="1" ry="0" opacity=".6" style="paint-order:normal"/>
   <rect x="23" y="53" width="1" height="1" ry="0" opacity=".6" style="paint-order:normal"/>
   <rect x="25" y="53" width="1" height="1" ry="0" opacity=".6" style="paint-order:normal"/>
   <rect x="27" y="53" width="1" height="1" ry="0" opacity=".6" style="paint-order:normal"/>
   <rect x="29" y="53" width="1" height="1" ry="0" opacity=".6" style="paint-order:normal"/>
   <rect x="31" y="53" width="1" height="1" ry="0" opacity=".6" style="paint-order:normal"/>
  </g>
  <circle cx="9.5" cy="22.5" r="1.5" fill="#fbc02d" style="paint-order:normal"/>
  <circle cx="9.5" cy="22.5" r=".5" fill="#263238" style="paint-order:normal"/>
  <circle cx="9.5" cy="39.5" r="1.5" fill="#fbc02d" style="paint-order:normal"/>
  <circle cx="9.5" cy="39.5" r=".5" fill="#263238" style="paint-order:normal"/>
  <g transform="translate(7,-39)" fill="#dee372">
   <rect x="12" y="52" width="1" height="1" ry="0" opacity=".6" style="paint-order:normal"/>
   <rect x="14" y="52" width="1" height="1" ry="0" opacity=".6" style="paint-order:normal"/>
   <rect x="16" y="52" width="1" height="1" ry="0" opacity=".6" style="paint-order:normal"/>
   <rect x="18" y="52" width="1" height="1" ry="0" opacity=".6" style="paint-order:normal"/>
   <rect x="20" y="52" width="1" height="1" ry="0" opacity=".6" style="paint-order:normal"/>
   <rect x="22" y="52" width="1" height="1" ry="0" opacity=".6" style="paint-order:normal"/>
   <rect x="24" y="52" width="1" height="1" ry="0" opacity=".6" style="paint-order:normal"/>
   <rect x="26" y="52" width="1" height="1" ry="0" opacity=".6" style="paint-order:normal"/>
   <rect x="28" y="52" width="1" height="1" ry="0" opacity=".6" style="paint-order:normal"/>
   <rect x="30" y="52" width="1" height="1" ry="0" opacity=".6" style="paint-order:normal"/>
   <rect x="13" y="53" width="1" height="1" ry="0" opacity=".6" style="paint-order:normal"/>
   <rect x="15" y="53" width="1" height="1" ry="0" opacity=".6" style="paint-order:normal"/>
   <rect x="17" y="53" width="1" height="1" ry="0" opacity=".6" style="paint-order:normal"/>
   <rect x="19" y="53" width="1" height="1" ry="0" opacity=".6" style="paint-order:normal"/>
   <rect x="21" y="53" width="1" height="1" ry="0" opacity=".6" style="paint-order:normal"/>
   <rect x="23" y="53" width="1" height="1" ry="0" opacity=".6" style="paint-order:normal"/>
   <rect x="25" y="53" width="1" height="1" ry="0" opacity=".6" style="paint-order:normal"/>
   <rect x="27" y="53" width="1" height="1" ry="0" opacity=".6" style="paint-order:normal"/>
   <rect x="29" y="53" width="1" height="1" ry="0" opacity=".6" style="paint-order:normal"/>
   <rect x="31" y="53" width="1" height="1" ry="0" opacity=".6" style="paint-order:normal"/>
  </g>
 </g>
</svg>
