<svg width="64" height="64" xmlns="http://www.w3.org/2000/svg"><circle cx="32" cy="32" r="27" fill="#388e3c" style="paint-order:stroke fill markers"/><g fill-rule="evenodd"><path d="m48 49-2 2h2z" fill="#e6ea97"/><rect x="12" y="18" width="40" height="28" rx="2" ry="2" fill="#263238"/><path d="M14 20v24h36V20z" fill="#fff" opacity=".15"/><path d="M18 36.96h10v1H18zm12 0h8v1h-8zm-12 1.95h9v1h-9zm11 0h4v1h-4zm-11 2.08h5v1h-5zm7 0h10v1H25zm-7-5.98h7v1h-7zm9 0h9v1h-9z" fill="#bcbcbc" stroke-width=".769"/><path d="M18 24.03h13v1H18zm15 0h6v1h-6zm-15 1.95h9v1h-9zm11 0h5v1h-5z" fill="#959595" stroke-width=".769"/><g transform="translate(7 -3)" fill="#dee372"><rect x="12" y="52" width="1" height="1" ry="0" opacity=".6" style="paint-order:normal"/><rect x="14" y="52" width="1" height="1" ry="0" opacity=".6" style="paint-order:normal"/><rect x="16" y="52" width="1" height="1" ry="0" opacity=".6" style="paint-order:normal"/><rect x="18" y="52" width="1" height="1" ry="0" opacity=".6" style="paint-order:normal"/><rect x="20" y="52" width="1" height="1" ry="0" opacity=".6" style="paint-order:normal"/><rect x="22" y="52" width="1" height="1" ry="0" opacity=".6" style="paint-order:normal"/><rect x="24" y="52" width="1" height="1" ry="0" opacity=".6" style="paint-order:normal"/><rect x="26" y="52" width="1" height="1" ry="0" opacity=".6" style="paint-order:normal"/><rect x="28" y="52" width="1" height="1" ry="0" opacity=".6" style="paint-order:normal"/><rect x="30" y="52" width="1" height="1" ry="0" opacity=".6" style="paint-order:normal"/><rect x="13" y="53" width="1" height="1" ry="0" opacity=".6" style="paint-order:normal"/><rect x="15" y="53" width="1" height="1" ry="0" opacity=".6" style="paint-order:normal"/><rect x="17" y="53" width="1" height="1" ry="0" opacity=".6" style="paint-order:normal"/><rect x="19" y="53" width="1" height="1" ry="0" opacity=".6" style="paint-order:normal"/><rect x="21" y="53" width="1" height="1" ry="0" opacity=".6" style="paint-order:normal"/><rect x="23" y="53" width="1" height="1" ry="0" opacity=".6" style="paint-order:normal"/><rect x="25" y="53" width="1" height="1" ry="0" opacity=".6" style="paint-order:normal"/><rect x="27" y="53" width="1" height="1" ry="0" opacity=".6" style="paint-order:normal"/><rect x="29" y="53" width="1" height="1" ry="0" opacity=".6" style="paint-order:normal"/><rect x="31" y="53" width="1" height="1" ry="0" opacity=".6" style="paint-order:normal"/></g><g transform="rotate(90 49 59)" fill="#dee372"><rect x="12" y="52" width="1" height="1" ry="0" opacity=".6" style="paint-order:normal"/><rect x="14" y="52" width="1" height="1" ry="0" opacity=".6" style="paint-order:normal"/><rect x="16" y="52" width="1" height="1" ry="0" opacity=".6" style="paint-order:normal"/><rect x="18" y="52" width="1" height="1" ry="0" opacity=".6" style="paint-order:normal"/><rect x="20" y="52" width="1" height="1" ry="0" opacity=".6" style="paint-order:normal"/><rect x="22" y="52" width="1" height="1" ry="0" opacity=".6" style="paint-order:normal"/><rect x="24" y="52" width="1" height="1" ry="0" opacity=".6" style="paint-order:normal"/><rect x="26" y="52" width="1" height="1" ry="0" opacity=".6" style="paint-order:normal"/><rect x="28" y="52" width="1" height="1" ry="0" opacity=".6" style="paint-order:normal"/><rect x="30" y="52" width="1" height="1" ry="0" opacity=".6" style="paint-order:normal"/><rect x="13" y="53" width="1" height="1" ry="0" opacity=".6" style="paint-order:normal"/><rect x="15" y="53" width="1" height="1" ry="0" opacity=".6" style="paint-order:normal"/><rect x="17" y="53" width="1" height="1" ry="0" opacity=".6" style="paint-order:normal"/><rect x="19" y="53" width="1" height="1" ry="0" opacity=".6" style="paint-order:normal"/><rect x="21" y="53" width="1" height="1" ry="0" opacity=".6" style="paint-order:normal"/><rect x="23" y="53" width="1" height="1" ry="0" opacity=".6" style="paint-order:normal"/><rect x="25" y="53" width="1" height="1" ry="0" opacity=".6" style="paint-order:normal"/><rect x="27" y="53" width="1" height="1" ry="0" opacity=".6" style="paint-order:normal"/><rect x="29" y="53" width="1" height="1" ry="0" opacity=".6" style="paint-order:normal"/><rect x="31" y="53" width="1" height="1" ry="0" opacity=".6" style="paint-order:normal"/></g><circle cx="9.5" cy="22.5" r="1.5" fill="#fbc02d" style="paint-order:normal"/><circle cx="9.5" cy="22.5" r=".5" fill="#263238" style="paint-order:normal"/><circle cx="9.5" cy="39.5" r="1.5" fill="#fbc02d" style="paint-order:normal"/><circle cx="9.5" cy="39.5" r=".5" fill="#263238" style="paint-order:normal"/><g transform="translate(7 -39)" fill="#dee372"><rect x="12" y="52" width="1" height="1" ry="0" opacity=".6" style="paint-order:normal"/><rect x="14" y="52" width="1" height="1" ry="0" opacity=".6" style="paint-order:normal"/><rect x="16" y="52" width="1" height="1" ry="0" opacity=".6" style="paint-order:normal"/><rect x="18" y="52" width="1" height="1" ry="0" opacity=".6" style="paint-order:normal"/><rect x="20" y="52" width="1" height="1" ry="0" opacity=".6" style="paint-order:normal"/><rect x="22" y="52" width="1" height="1" ry="0" opacity=".6" style="paint-order:normal"/><rect x="24" y="52" width="1" height="1" ry="0" opacity=".6" style="paint-order:normal"/><rect x="26" y="52" width="1" height="1" ry="0" opacity=".6" style="paint-order:normal"/><rect x="28" y="52" width="1" height="1" ry="0" opacity=".6" style="paint-order:normal"/><rect x="30" y="52" width="1" height="1" ry="0" opacity=".6" style="paint-order:normal"/><rect x="13" y="53" width="1" height="1" ry="0" opacity=".6" style="paint-order:normal"/><rect x="15" y="53" width="1" height="1" ry="0" opacity=".6" style="paint-order:normal"/><rect x="17" y="53" width="1" height="1" ry="0" opacity=".6" style="paint-order:normal"/><rect x="19" y="53" width="1" height="1" ry="0" opacity=".6" style="paint-order:normal"/><rect x="21" y="53" width="1" height="1" ry="0" opacity=".6" style="paint-order:normal"/><rect x="23" y="53" width="1" height="1" ry="0" opacity=".6" style="paint-order:normal"/><rect x="25" y="53" width="1" height="1" ry="0" opacity=".6" style="paint-order:normal"/><rect x="27" y="53" width="1" height="1" ry="0" opacity=".6" style="paint-order:normal"/><rect x="29" y="53" width="1" height="1" ry="0" opacity=".6" style="paint-order:normal"/><rect x="31" y="53" width="1" height="1" ry="0" opacity=".6" style="paint-order:normal"/></g></g></svg>