<svg width="64" height="64" version="1.1" viewBox="0 0 16.933 16.933" xmlns="http://www.w3.org/2000/svg">
 <circle cx="8.4665" cy="8.4665" r="7.1436" fill="#2f3234" style="paint-order:stroke fill markers"/>
 <path d="m6.6145 1.5699a7.1437 7.1437 0 0 0-2.1166 0.96376v5.1381l1.0588-1.0588 1.0578 1.0578v-6.101z" fill="#c83737"/>
 <path d="m3.9687 2.9212a7.1437 7.1437 0 0 0-2.6458 5.5453 7.1437 7.1437 0 0 0 2.6458 5.5432z" fill-rule="evenodd" opacity=".2" stroke-width="1.5713" style="paint-order:fill markers stroke"/>
 <path transform="scale(.26458)" d="m54.039 16.461a15.187 24.95 48.947 0 0-14.305 7.8164 15.187 24.95 48.947 0 0-8.8418 27.84 15.187 24.95 48.947 0 0 15.875 2.4727 27 27 0 0 0 7.1934-6.9199 12.647 20.767 48.713 0 1-17.373-0.34766 12.647 20.767 48.713 0 1 7.3457-23.221 12.647 20.767 48.713 0 1 11.027-6.2676 27 27 0 0 0-0.92188-1.373z" fill="#1c95f5" style="paint-order:stroke fill markers"/>
</svg>
