<svg xmlns="http://www.w3.org/2000/svg" width="64" height="64" viewBox="0 0 16.933 16.933"><rect width="14.287" height="14.287" x="1.323" y="1.323" fill="#00da00" rx="7.144" ry="7.144" style="stroke-width:1.03847"/><path fill="#010301" d="M6.754 5.306h.766l.368.001v2.297h1.226v-3.37H7.11zm1.44 2.74a2.46 2.46 0 0 0-1.041.387c-1.618 1.124-1.181 3.737.766 4.201a2.34 2.34 0 0 0 1.839-.32c1.99-1.296.829-4.61-1.563-4.267m.153 1.037c.958-.124 1.673.943 1.302 1.8-.2.46-.638.711-1.118.757-.743.07-1.413-.638-1.343-1.37a1.32 1.32 0 0 1 1.159-1.187"/></svg>