<?xml version="1.0" encoding="UTF-8"?>
<svg id="svg310" width="64" height="64" version="1.1" xmlns="http://www.w3.org/2000/svg">
 <path id="path304" d="M32 5c14.912 0 27 12.088 27 27S46.911 59 32 59 5 46.911 5 32 17.088 5 32 5z" fill="#4a97d1"/>
 <path id="path368" d="m17 17v7.5l6.875 8.75 3.125-16.25zm11.25 0-1.5625 8.75 18.438-8.75zm18.75 0.625-13.75 6.5625 13.75 6.5625zm-30 9.375v12.5h10zm21.875 1.25 4.375 18.75h3.75v-15zm0.625 8.125-8.75 10.625h11.25zm-22.5 4.375v6.25h11.875l5-6.25z" fill="#f9f9f9" stroke-width="1.25"/>
</svg>
