<svg width="64" height="64" xmlns="http://www.w3.org/2000/svg"><circle cx="32" cy="32" r="27" fill="#f0f0f0" style="paint-order:stroke fill markers"/><g transform="translate(12.923 13.538) scale(2.3259)"><path d="M1.323 10.319v3.175a6.879 1.587 0 0 0 6.879 1.587 6.879 1.587 0 0 0 6.879-1.587v-3.175z" fill="#e6e6e6"/><ellipse cx="8.202" cy="10.319" rx="6.879" ry="1.587" fill="#ccc"/><path d="M1.323 6.35v3.175a6.879 1.587 0 0 0 6.879 1.587 6.879 1.587 0 0 0 6.879-1.587V6.35z" fill="#e6e6e6"/><ellipse cx="8.202" cy="6.35" rx="6.879" ry="1.587" fill="#ccc"/><path d="M1.323 2.381v3.175a6.88 1.587 0 0 0 6.879 1.588 6.88 1.587 0 0 0 6.88-1.588V2.381z" fill="#e6e6e6"/><ellipse cx="8.202" cy="2.381" rx="6.879" ry="1.587" fill="#ccc"/><path d="M1.852 2.988v3.178a6.88 1.587 0 0 0 .53.233V3.226a6.88 1.587 0 0 1-.53-.238zm0 3.969v3.177a6.88 1.587 0 0 0 .53.234V7.195a6.88 1.587 0 0 1-.53-.238zm0 3.968v3.178a6.88 1.587 0 0 0 .53.233v-3.172a6.88 1.587 0 0 1-.53-.239zm.794-7.611v3.175a6.88 1.587 0 0 0 1.323.318V3.63a6.88 1.587 0 0 1-1.323-.316zm0 3.969v3.175a6.88 1.587 0 0 0 1.323.317V7.6a6.88 1.587 0 0 1-1.323-.316zm0 3.968v3.176a6.88 1.587 0 0 0 1.323.317v-3.177a6.88 1.587 0 0 1-1.323-.316z" fill="#fff" opacity=".35"/></g><path d="M51.001 42a8 7.95 0 1 1-16 0 8 7.95 0 1 1 16 0z" fill="#57d747"/><path d="m47.801 42.052-8 4v-8l4 2z" fill="#fff"/></svg>