<svg xmlns="http://www.w3.org/2000/svg" width="64" height="64"><circle cx="32" cy="32" r="27" fill="#ececec"/><g stroke-width=".265"><path fill="#df6277" d="m32 10.971-9.107 15.772L32 32l9.105-5.257.396-11.198c-4.158-2.4-8.45-4.574-9.5-4.574z"/><path fill="#fb9168" d="M41.5 15.545 32 32l9.105 5.258 9.107-15.772c-.525-.91-4.552-3.54-8.71-5.94z"/><path fill="#f3db6c" d="M50.212 21.486 32 32l9.105 5.258L51 32c0-4.802-.262-9.604-.788-10.514"/><path fill="#7ab392" d="M32 32v10.515h18.212c.526-.91.788-5.713.788-10.515z"/><path fill="#4b7cbc" d="M32 32v10.515l9.5 5.94c4.16-2.4 8.186-5.03 8.712-5.94z"/><path fill="#6f488c" d="m32 32-9.107 5.258L32 53.029c1.052 0 5.342-2.173 9.5-4.574z"/><path fill="#4d3f33" d="m22.893 26.743-9.105 15.772C14.84 44.335 29.898 53.029 32 53.029V32z"/><path fill="#7a573b" d="M13.789 21.486c-1.052 1.821-1.052 19.208 0 21.029L32 32V21.486z"/><path fill="#99cd61" d="M32 10.971c-2.103 0-17.16 8.694-18.211 10.515L32 32z"/></g><path fill="#fff" d="M32.003 21.486c-1.052 0-8.58 4.347-9.105 5.257l9.105 15.772 9.106-15.772c-.526-.91-8.055-5.257-9.106-5.257"/><path fill="#dfdfdf" d="m22.898 26.743 9.105 15.772c1.051 0 8.58-4.347 9.106-5.258s.526-9.603 0-10.514L32.003 32z"/><path fill="#d6d2d2" d="M22.896 26.743c-.526.91-.526 9.604 0 10.515.526.91 8.053 5.257 9.105 5.257V32z"/></svg>