<svg xmlns="http://www.w3.org/2000/svg" width="64" height="64" viewBox="0 0 16.933 16.933"><circle cx="8.466" cy="8.466" r="7.144" fill="#4d4d4d" style="paint-order:normal;fill:#ff4c4c;fill-opacity:1;stroke:none;stroke-opacity:1;stroke-width:1.00010531;stroke-dasharray:none"/><path fill="none" stroke="#fff" stroke-width="3.226404" d="M10.835 6.408q-.068.299-.102.647a1 1 0 0 0 .017.239q.026.17.026.238 0 .222-.29.222-.187 0-.247-.111a6 6 0 0 1 .009-.511q.017-.383.017-.51-.008 0-.026-.018-.791.035-1.49.102a1 1 0 0 0 0 .273l.034.306a7 7 0 0 0-.034.784q.026.22.026 1.898v.622q0 .145.042.204h.528q.324-.042.324.273 0 .188-.179.264-.11.042-.392.017a3 3 0 0 0-.4-.009q-.315.043-.766.069-.46.025-.562-.128-.069-.103 0-.213.12-.187.621-.187.264 0 .264-.145 0-.077-.008-.145 0-.213.008-.375.025-.46 0-1.294a24 24 0 0 1 .026-2.171l-.026-.026q-.264.018-.987-.008-.034 0-.52.034.12.818.136 1.166l-.017.23q-.008.128-.212.128-.163 0-.273-.613l-.102-.74q0-.06-.06-.205c-.034-.102-.109-.272-.109-.323 0-.18.166-.137.382-.171q.025 0 .085.008t.085.009h2.112a16 16 0 0 0 1.515-.136 1 1 0 0 1 .154-.051.4.4 0 0 1 .306.085q.128.093.085.272z"/><path fill="none" stroke="#ff4c4c" stroke-width="1.613202" d="M10.83 6.41q-.069.297-.103.646-.008.094.017.239.026.17.026.238 0 .222-.29.222-.187 0-.246-.111-.009-.187.008-.511.017-.383.017-.51-.008 0-.025-.018-.792.034-1.49.102-.018.11 0 .273l.034.306q-.035.264-.035.784.026.221.026 1.898v.622q0 .145.043.204h.528q.323-.042.323.273 0 .187-.179.264-.11.042-.391.017-.17-.017-.4-.009-.316.043-.767.068-.46.026-.562-.127-.068-.102 0-.213.12-.187.622-.187.264 0 .264-.145 0-.077-.009-.145 0-.213.009-.375.025-.46 0-1.294-.034-1.209.025-2.171l-.025-.026q-.264.017-.988-.008-.034 0-.52.034.12.817.137 1.166l-.017.23q-.009.128-.213.128-.162 0-.273-.613l-.102-.74q0-.06-.06-.205-.05-.154-.05-.23 0-.213.323-.264.026 0 .085.008t.085.009H8.77q.783-.034 1.516-.136.05-.026.153-.051.179-.017.306.085.128.093.086.272z"/><path fill="#fff" d="M56.58-38.184q-1.321 5.782-1.982 12.555-.165 1.818.33 4.626.496 3.304.496 4.626 0 4.295-5.617 4.295-3.634 0-4.79-2.148-.166-3.634.164-9.912.33-7.434.33-9.912-.164 0-.495-.33-15.364.66-28.91 1.982-.33 2.148 0 5.286l.66 5.948q-.66 5.121-.66 15.199.495 4.295.495 36.84v12.06q0 2.808.826 3.965H27.67q6.278-.826 6.278 5.286 0 3.635-3.47 5.122-2.147.826-7.6.33-3.303-.33-7.764-.165-6.112.826-14.868 1.321-8.921.496-10.903-2.478-1.322-1.982 0-4.13 2.312-3.634 12.06-3.634 5.12 0 5.12-2.809 0-1.487-.164-2.808 0-4.13.165-7.27.495-8.92 0-25.11-.661-23.459.495-42.127l-.495-.496q-5.122.33-19.164-.165-.66 0-10.077.661 2.313 15.86 2.643 22.633l-.33 4.46q-.166 2.478-4.13 2.478-3.14 0-5.287-11.894-.991-7.104-1.983-14.373 0-1.156-1.156-3.965-.991-2.973-.991-4.46 0-4.13 6.278-5.122.495 0 1.652.166 1.156.165 1.652.165H16.6q15.199-.661 29.406-2.643.992-.496 2.974-.992 3.47-.33 5.947 1.652 2.478 1.818 1.652 5.287" style="stroke-width:1.10974" transform="translate(7.907 8.378)scale(.05154)"/></svg>