<?xml version="1.0" encoding="UTF-8"?>
<svg id="svg3" width="64" height="64" version="1.1" viewBox="0 0 16.933 16.933" xmlns="http://www.w3.org/2000/svg"><defs id="defs2"><linearGradient id="a" x1="43" x2="49" y1="44" y2="50" gradientTransform="scale(.26458)" gradientUnits="userSpaceOnUse"><stop id="stop1" offset="0"/><stop id="stop2" stop-opacity="0" offset="1"/></linearGradient></defs><circle id="circle2" cx="8.466" cy="8.466" r="7.144" fill="#55a73e" style="paint-order:stroke fill markers"/><rect id="rect2" x="5.821" y="9.525" width="4.233" height=".529" ry=".265" fill="#fff" style="paint-order:stroke markers fill"/><path id="path2" d="M4.502 4.725a.26.26 0 0 0-.262.13.264.264 0 0 0 .097.362l2.842 1.64-2.842 1.641a.264.264 0 0 0-.097.362c.074.127.235.17.362.097l3.207-1.852a.26.26 0 0 0 .127-.225l.002-.022-.002-.023a.26.26 0 0 0-.127-.224L4.602 4.758a.3.3 0 0 0-.1-.033" fill="#fff" style="paint-order:stroke markers fill"/><path id="path3" d="m15.582 9.024-6.563 6.562a7.144 7.144 0 0 0 6.563-6.562" fill="url(#a)" opacity=".25" style="paint-order:stroke fill markers"/></svg>
