<svg width="64" height="64" version="1.1" viewBox="0 0 64 64" xmlns="http://www.w3.org/2000/svg">
 <rect x="5" y="5" width="54" height="54" rx="27" ry="27" fill="#316ca7" stroke-width=".96425"/>
 <circle cx="32.02" cy="32.044" r="30.001" fill="none"/>
 <path d="m22 16c-3.324 0-6 2.676-6 6v6h4v-6c0-1.108 0.892-2 2-2h6v-4h-6zm14 0v4h6c1.108 0 2 0.892 2 2v6h4v-6c0-3.324-2.676-6-6-6h-6zm-20 20v6c0 3.324 2.676 6 6 6h6v-4h-6c-1.108 0-2-0.892-2-2v-6h-4zm28 0v6c0 1.108-0.892 2-2 2h-6v4h6c3.324 0 6-2.676 6-6v-6h-4z" fill="#ffffff" stroke-width="0"/>
</svg>
