<svg width="64" height="64" viewBox="0 0 16.933 16.933" xmlns="http://www.w3.org/2000/svg" xmlns:xlink="http://www.w3.org/1999/xlink"><defs><linearGradient id="c" x1="30" x2="57" y1="44" y2="44" gradientTransform="scale(.26458)" gradientUnits="userSpaceOnUse" xlink:href="#a"/><linearGradient id="a"><stop offset="0"/><stop stop-opacity="0" offset="1"/></linearGradient><linearGradient id="b" x1="32" x2="32" y1="13" y2="9" gradientTransform="scale(.26458)" gradientUnits="userSpaceOnUse" xlink:href="#a"/></defs><circle cx="8.466" cy="8.466" r="6.614" fill="#3578c7" style="paint-order:stroke markers fill"/><path d="M5.132 3.704a5.82 5.82 0 0 0-2.486 4.763 5.82 5.82 0 0 0 5.82 5.82 5.82 5.82 0 0 0 5.821-5.82 5.82 5.82 0 0 0-2.48-4.763z" fill="#fff" style="paint-order:stroke markers fill"/><path d="M8.466 1.852a6.614 6.614 0 0 0-3.944 1.323h7.898a6.614 6.614 0 0 0-3.954-1.323z" fill="url(#b)" opacity=".15" style="paint-order:stroke markers fill"/><path d="M8.466 4.233c-.292 0-.381.276-.53.53l-.307.528H2.076a7.144 7.144 0 0 0-.753 3.175 7.144 7.144 0 0 0 7.144 7.144 7.144 7.144 0 0 0 7.143-7.144 7.144 7.144 0 0 0-1.4-4.233H8.467z" fill="#5294e2" style="paint-order:stroke markers fill"/><rect x="9.26" y="4.762" width="3.969" height=".529" ry=".265" opacity=".25" style="paint-order:stroke markers fill"/><path d="M15.61 8.467 8.466 15.61a7.144 7.144 0 0 0 7.144-7.143z" fill="url(#c)" opacity=".15" style="paint-order:stroke markers fill"/><path transform="scale(.26458)" d="M21 23.004c-1.108 0-2 .892-2 2v3.002h26v-3.002c0-1.108-.892-2-2-2H21zM22.002 25a1.002 1.002 0 0 1 1 1.002 1.002 1.002 0 0 1-1 1.002A1.002 1.002 0 0 1 21 26.002 1.002 1.002 0 0 1 22.002 25zM19 29.002v5.002h26v-5.002H19zm3.002 2a1.002 1.002 0 0 1 1 1.002 1.002 1.002 0 0 1-1 1.002A1.002 1.002 0 0 1 21 32.004a1.002 1.002 0 0 1 1.002-1.002zM19 35.004v5.002h26v-5.002H19zM22.002 37a1.002 1.002 0 0 1 1 1.002 1.002 1.002 0 0 1-1 1.002A1.002 1.002 0 0 1 21 38.002 1.002 1.002 0 0 1 22.002 37zM19 41.002v5.002h26v-5.002H19zm3.002 2a1.002 1.002 0 0 1 1 1.002 1.002 1.002 0 0 1-1 1.002A1.002 1.002 0 0 1 21 44.004a1.002 1.002 0 0 1 1.002-1.002zM19 47.006v4.002c0 1.108.892 2 2 2h22c1.108 0 2-.892 2-2v-4.002H19zM22.002 49a1.002 1.002 0 0 1 1 1.002 1.002 1.002 0 0 1-1 1.002A1.002 1.002 0 0 1 21 50.002 1.002 1.002 0 0 1 22.002 49z" opacity=".15" style="paint-order:markers stroke fill"/></svg>