<svg xmlns="http://www.w3.org/2000/svg" width="64" height="64" viewBox="0 0 64 64"><defs><linearGradient id="a" x1="72.839" x2="98.156" y1="52.81" y2="24.853" gradientTransform="matrix(.40211 -.40109 .36414 .40408 -16.475 55.144)" gradientUnits="userSpaceOnUse"><stop offset="0" stop-color="#3f3f3f"/><stop offset="1" stop-color="#232629"/></linearGradient></defs><rect width="54" height="54" x="5" y="5" fill="#379cd6" paint-order="stroke fill markers" rx="27" ry="27"/><path fill="#eff0f1" d="M49.033 36.242c-.22-1.317-.234-2.778-1.092-4.781s-1.87-3.508-3.17-4.784a12.5 12.5 0 0 0-4.65-2.918c-1.866-.672-4.06-1.012-5.362-1.376-1.301-.363-1.703-.747-1.938-1.216a2.6 2.6 0 0 1-.225-1.53c.078-.508.303-.976.48-1.3.176-.324.306-.508.197-.628s-.456-.178-1.003.138-1.292 1.005-1.736 1.57c-.445.565-.586 1.001-.83 1.447a4.8 4.8 0 0 1-.988 1.255c-.401.36-.856.626-1.865 1.147-1.008.52-2.565 1.291-4.124 2.226s-3.118 2.032-4.52 3.2-2.645 2.41-3.51 3.489c-.866 1.079-1.353 1.996-1.648 2.83-.296.834-.398 1.583-.3 2.05.1.468.4.653 2.323.25s5.469-1.392 7.647-1.934c2.178-.543.85-2.786 1.474-2.997s3.204 1.61 3.916 1.331 1.709-.516 2.715-.753c1.007-.236 2.03-.473 2.577-.683s.624-.394 1.885-.438c1.26-.045 3.706.05 5.392.283 1.685.233 2.61.604 3.25 1.03.64.428.993.91 1.333 1.272s.665.604 1.148 1.066c.484.462 1.124 1.143 1.614 2.178s.828 2.422 1.038 2.684-.386-1.616-.22-2.125c.164-.51.413-.666.192-1.983z"/><path fill="url(#a)" d="M54.203 41.607c.379-.524.905-1.289.824-1.56-.082-.273-.768-.052-1.415-1.124s-1.253-3.431-2.174-5.534c-.921-2.104-2.154-3.94-3.73-5.486a15.2 15.2 0 0 0-5.635-3.536c-2.26-.814-4.92-1.226-6.497-1.666s-2.063-.906-2.348-1.474a3.14 3.14 0 0 1-.273-1.854c.094-.616.367-1.184.58-1.576.215-.392.372-.615.24-.76s-.552-.217-1.214.166c-.663.383-1.566 1.218-2.105 1.903-.539.684-.71 1.213-1.005 1.753a5.9 5.9 0 0 1-1.197 1.521c-.487.437-1.038.76-2.26 1.39s-3.109 1.565-4.998 2.697-3.779 2.463-5.477 3.88-3.205 2.918-4.254 4.226-1.639 2.419-1.997 3.429-.482 1.918-.362 2.484.485.791 1.187.45c.702-.34 1.739-1.244 2.655-1.994.916-.751 1.711-1.348 2.598-1.807.886-.46 1.864-.782 2.72-.967.858-.185 1.594-.234 1.995-.078.4.155.465.515.497.696.033.18.003.797.106.957s.308.477 1.071.468 11.533-3.27 12.196-3.525.756-.478 1.033-1.177.742-1.887 1.305-2.758c.563-.87 1.228-1.436 1.827-1.707.598-.27 1.138-.251 1.809-.137.67.114 1.478.323 2.099.634.62.31 1.058.724 1.293 1.11s.266.747.045 1.098c-.22.351-.69.69-1.064.8s-.644-.009-1.09-.054a3.4 3.4 0 0 0-1.758.3c-.691.312-1.59 1.105-1.433 1.385 6.413-.08 12.125 3.63 13.652 7.039.49 1.094 1.004 2.935 1.258 3.253s.353-.727.518-1.392.399-.949.778-1.473z" transform="translate(5.402 3.648)scale(.82524)"/><path fill="#eff0f1" d="m22.448 26.356 1.402 2.897 2.898-1.402-1.403-2.898zm4.346-2.104 1.402 2.897 2.897-1.402-1.402-2.897zm-3.27 2.477 1.448-.7.7 1.448-1.448.7zm4.345-2.103 1.448-.701.701 1.449-1.448.7zm-3.317 6.075 1.402 2.897 2.897-1.402-1.402-2.897zm4.345-2.103.701 1.448 1.449-.7-.701-1.45zm-3.27 2.477 1.448-.701.701 1.448-1.448.701z" color="#232629"/><path fill="#da4453" d="M18 14c-2.216 0-4 1.784-4 4v5h3v-5c0-.554.446-1 1-1h5v-3zm23 0v3h5c.554 0 1 .446 1 1v5h3v-5c0-2.216-1.784-4-4-4zM14 41v5c0 2.216 1.784 4 4 4h5v-3h-5c-.554 0-1-.446-1-1v-5zm33 0v5c0 .554-.446 1-1 1h-5v3h5c2.216 0 4-1.784 4-4v-5z"/></svg>