<?xml version="1.0" encoding="UTF-8"?>
<svg id="svg908" width="64" height="64" version="1.1" viewBox="0 0 16.933 16.933" xmlns="http://www.w3.org/2000/svg">
 <circle id="circle2391" cx="8.5024" cy="8.4665" r="7.1436" fill="#3e4247" stroke-width=".26458" style="paint-order:stroke fill markers"/>
 <path id="path408" d="m4.8845 9.8301h7.164v0.32563l-3.582 1.791-3.582-1.791z" fill="#725136" stroke-width=".32564"/>
 <path id="path410" d="m5.5358 7.5507h5.8614v0.9769l-0.32563 0.16282 0.32563 0.16282v3.2563h-5.8614v-3.2563l0.32563-0.16282-0.32563-0.16282z" fill="#e4bc71" stroke-width=".32564"/>
 <path id="path412" d="m6.8383 3.9687c-0.17984 0-0.2383 0.16842-0.32563 0.32563l-1.6282 2.9307 3.582 0.32564 3.582-0.32564-1.6282-2.9307c-0.087337-0.15721-0.14579-0.32563-0.32563-0.32563-0.08992 0-0.17131 0.036468-0.23023 0.095397l-1.1677 1.1117c-0.058927 0.058929-0.14031 0.095397-0.23023 0.095397-0.089921 0-0.17131-0.036468-0.23023-0.095397l-1.1677-1.1117c-0.058927-0.058929-0.14031-0.095397-0.23023-0.095397z" fill="#a6744a" stroke-width=".32564"/>
 <path id="rect414" d="m4.5589 7.225h7.8152c0.1804 0 0.32564 0.14523 0.32564 0.32564 0 0.1804-0.14523 0.32563-0.32564 0.32563h-7.8152c-0.1804 0-0.32563-0.14523-0.32563-0.32563 0-0.1804 0.14523-0.32564 0.32563-0.32564z" fill="#bb8e67" stroke-width=".32564"/>
 <path id="path418" d="m5.5358 8.5276v0.32563h0.65127a0.9769 0.9769 0 0 0 0.9769 0.9769 0.9769 0.9769 0 0 0 0.9769-0.9769h0.65127a0.9769 0.9769 0 0 0 0.9769 0.9769 0.9769 0.9769 0 0 0 0.9769-0.9769h0.65127v-0.32563z" fill="#403e47" stroke-width=".32564"/>
 <path id="path420" d="m12.048 10.156-3.2563 0.9769-0.32563 0.65127v0.32563l0.32563 0.32564h3.2563z" fill="#ac784e" stroke-width=".32564"/>
 <path id="path422" d="m4.8845 10.156 3.2563 0.9769 0.65127 1.3025h-3.9076z" fill="#bb8d68" stroke-width=".32564"/>
</svg>
