<svg width="64" height="64" version="1.1" viewBox="0 0 64 64" xmlns="http://www.w3.org/2000/svg">
 <rect x="5" y="5" width="54" height="54" rx="27" ry="27" fill="#d40000"/>
 <g transform="matrix(.85756 0 0 .85756 12.567 3.6219)" fill="#f9f9f9">
  <g transform="matrix(.71829 0 0 .71829 2.7912 12.923)">
   <rect x=".41469" y="14.445" width="16.695" height="12.328" ry="2.6356"/>
   <rect x="19.542" y="14.445" width="16.695" height="12.328" ry="2.6356"/>
   <rect x=".41469" y="29.384" width="16.695" height="12.328" ry="2.6356"/>
   <rect x="19.542" y="29.384" width="16.695" height="12.328" ry="2.6356"/>
  </g>
  <path d="m22.644 14.434a18.658 18.658 0 0 0-12.471 4.8459h6.0381a15.27 15.27 0 0 1 6.436-1.4584 15.27 15.27 0 0 1 15.284 15.253v0.01745a15.27 15.27 0 0 1-15.266 15.27 15.27 15.27 0 0 1-6.4721-1.4591h-6.0433a18.658 18.658 0 0 0 12.516 4.8462 18.658 18.658 0 0 0 18.653-18.657v-0.02116a18.658 18.658 0 0 0-18.674-18.637z"/>
 </g>
</svg>
