<svg width="64" height="64" version="1.1" xmlns="http://www.w3.org/2000/svg">
 <circle cx="32" cy="32" r="27" fill="#4bae4f" stroke-width="3.7796" style="paint-order:stroke fill markers"/>
 <path d="m14.882 14.004 1.245 0.93462c-3.9492 1.8206 6.1929 10.133 6.1929 10.133s1.9738-1.7767 4.8657-1.9637c2.8684-2.9394 14.806-0.70222 14.359 1.7101-4.0128 0.06267-5.2838-0.45004-5.2838-0.45004s0.19809 0.22848 0.27989 1.0126c-0.29327 0.24154-4.443-0.68826-5.3106-0.62203-2.4685 0.18866-4.1346 0.251-5.9053 0.44698 1.2183 0.40177 10.927 2.1307 14.031 5.1314-0.82805 0.31922-1.1902 0.18801-1.4667 0.28984-0.24314 0.08943-0.48912 0.58498-1.0227 0.58736-0.38228 0.0013-0.25162-0.33848-1.0411-0.71172-4.9124 0.19519-6.5052-2.8019-6.9899-3.1694-2.1686-0.51758-5.8221-1.6879-5.8221-1.6879s3.0933 2.4684 4.7893 3.8385c0.14104 0.11392 2.4662 0.54611 5.4219 1.9878 1.5888-1.3007 5.8723 0.90639 5.0762 2.9274-0.70895 1.8002-5.4656-0.05484-5.2907-2.5037-1.0859-0.33815-3.0918-1.3079-4.3751-1.7705 1.2304 0.95953 6.0642 4.9871 7.0353 6.1263 4.255-0.52257 10.679 0.53935 14.663 3.0931-0.90874 0.23991-5.2326 1.0611-6.0988 0.83001-1.6094-0.60868-4.0079-2.5805-4.2635-2.8015-0.92444-0.15602-2.9993-0.45403-3.7964-0.54467 0.8084 0.82028 3.4782 3.9048 4.3164 5.2022 0.34726-0.07344 2.1181 0.35226 2.6089 0.68577 1.8181-1.8551 4.7661 1.4 6.5783 2.9721-0.47606 0.96654-7.9531-0.52104-6.954-2.687-0.53436-0.07115-1.6038-0.65839-1.9981-0.68956 0.40311 0.52792 1.2822 1.2445 2.4408 2.4598 1.1144-0.31694 5.3152 4.2292 5.4278 5.2238-3.1435-0.76587-4.696-1.4323-5.1826-2.0007-0.9606-1.122-0.59693-2.7331-0.5054-3.0259-1.2362-1.1047-1.4664-1.4332-1.8707-1.6524-0.01044 0.01306 0.0013 0.34031 0.02023 0.50012 2.0306 1.497 1.0495 5.6402-0.118 5.7871-0.50808 0.06398-1.6792-5.8456-0.21683-6.0659 0.03366-0.11718 0.05297-0.46607 0.05481-0.47984-0.77175-0.84016-5.0517-5.3909-5.3302-5.5825 0.13862 0.35911 0.3659 0.94964 0.5745 1.6786 2.5274 1.6518 2.9456 4.2948 2.7551 7.3989-0.60607-1.0609-6.5437-5.8945-3.9469-8.0374 0.01827-0.33045-0.08016-1.0805 0.13852-1.5021-0.82355-0.82303-3.3877-3.3544-3.6179-3.3522 0.28639 0.58707 0.46421 0.92222 0.60626 1.557 1.9546 0.97552 1.3868 3.4955 0.49652 3.549-0.93795 0.05646-3.0166-2.8355-1.0615-3.4488-0.15795-0.72811-0.44521-1.7177-0.56102-2.1476-0.84594-0.64696-3.6476-2.8862-4.2942-3.4083 0.79496 1.3228 1.5715 3.3819 1.9598 4.5621 2.342 2.6533 1.6942 6.7575 1.4574 10.991-2.7478-2.04-4.4538-9.0022-2.7059-10.735-0.58348-2.0131-1.4654-5.4196-1.4654-5.4196-3.7781-2.9323-5.8681-5.1301-5.8681-5.1301s2.5172 3.264 2.8039 5.0139c2.2046 0.42742 4.0464 4.2677 2.2934 4.9231-2.5622 0.95793-5.3125-3.107-3.1267-4.6209 0 0-1.9354-3.565-3.4334-6.6919-5.9092-6.4863-5.3413-8.4336-3.5689-8.6507z" fill="#ffffff" stroke-width="3.264"/>
</svg>
