<svg xmlns="http://www.w3.org/2000/svg" width="64" height="64" viewBox="0 0 64 64"><g transform="translate(-6.76 -6.76)scale(1.2113)"><circle cx="32" cy="32" r="22.291" fill="#7f7f7f"/><path fill="#f5f5f5" d="M32 16.739c-1.467 0-2.348 9.391-3.228 9.391-1.17-.019-1.468-2.348-1.468-5.87-1.174 0-4.695 5.87-5.87 5.87-2.347 0-3.228-1.174-4.402-1.174-.176 0-.293.118-.293.294 0 1.174 3.522 3.228 4.696 6.75-.587 0-1.174 0-1.174.587 0 1.76 5.87 3.522 5.87 8.217 0 .587-1.174.587-1.174 1.761s1.667 2.336 3.521 2.348c0 1.174.587 2.348 1.174 2.348 1.174 0 1.174-1.174 2.348-1.174s1.174 1.174 2.348 1.174c.587 0 1.174-1.174 1.174-2.348 1.854-.008 3.521-1.174 3.521-2.348s-1.174-1.174-1.174-1.76c0-4.696 5.87-6.457 5.87-8.218 0-.587-.587-.587-1.174-.587 1.174-3.522 4.696-5.576 4.696-6.75 0-.176-.118-.294-.294-.294-1.174 0-2.054 1.174-4.402 1.174-1.174 0-4.696-5.87-5.87-5.87 0 3.522-.296 5.847-1.467 5.87-.88 0-1.76-9.391-3.228-9.391z"/><path fill="#5c5c5c" d="M25.543 30.826c-.587 0-.587.587-.587 1.76s2.348 1.762 4.696 2.936c-1.174-2.348-2.935-4.696-4.109-4.696m12.913 0c-1.174 0-2.935 2.348-4.109 4.696 2.348-1.174 4.696-1.761 4.696-2.935s0-1.761-.587-1.761M32 39.043c-1.726 0-2.266 1.95-3.193 2.407a.588.588 0 0 0 .522 1.05c1.397-.698 1.596-2.289 2.676-2.289.782 0 1.362 1.632 2.677 2.29a.587.587 0 1 0 .522-1.051c-1.02-.51-1.655-2.407-3.193-2.407z"/></g></svg>