<?xml version="1.0" encoding="UTF-8"?>
<svg width="64" height="64" version="1.1" xmlns="http://www.w3.org/2000/svg" xmlns:cc="http://creativecommons.org/ns#" xmlns:dc="http://purl.org/dc/elements/1.1/" xmlns:rdf="http://www.w3.org/1999/02/22-rdf-syntax-ns#">
 <metadata>
  <rdf:RDF>
   <cc:Work rdf:about="">
    <dc:format>image/svg+xml</dc:format>
    <dc:type rdf:resource="http://purl.org/dc/dcmitype/StillImage"/>
   </cc:Work>
  </rdf:RDF>
 </metadata>
 <circle cx="32" cy="32" r="27" fill="#ccc" style="paint-order:stroke fill markers"/>
 <g stroke-linecap="round" stroke-linejoin="round">
  <path d="m18 30.8v-14.7c0-1.1634 0.9366-2.1 2.1-2.1h23.8c1.1634 0 2.1 0.9366 2.1 2.1v14.7z" fill="#fff" stroke-width="6.0246" style="paint-order:stroke fill markers"/>
  <rect x="12" y="22" width="40" height="20" rx="4.2857" ry="4.2857" fill="#4d4d4d" stroke-width="7.2743" style="paint-order:stroke fill markers"/>
  <path d="m18 33v14.9c0 1.1634 0.9366 2.1 2.1 2.1h23.8c1.1634 0 2.1-0.9366 2.1-2.1v-14.9z" fill="#fff" stroke-width="6.0246" style="paint-order:stroke fill markers"/>
  <rect x="15" y="25" width="2" height="2" rx="2" ry="2" fill="#f0f0f0" stroke-width="6.6667" style="paint-order:stroke fill markers"/>
  <rect x="15" y="30" width="34" height="3" rx="1.4783" ry="1.5" fill="#fff" opacity=".35" stroke-width="2.5973" style="paint-order:stroke fill markers"/>
 </g>
 <path d="m24.228 41.287s3.7056 5.05 11.074-0.28316c5.1677-3.7403 10.786 0.97898 10.786 0.97898" fill="none" opacity=".15" stroke="#000" stroke-width="1px"/>
 <path d="m38.273 23.435c0.65 0.517 0.798 1.406 0.332 1.993l-11.794 14.822c-0.466 0.586-2.467 1.494-2.858 1.183s0.044-2.465 0.51-3.051l11.794-14.822c0.467-0.587 1.366-0.643 2.016-0.125z" fill="#666"/>
</svg>
