<?xml version="1.0" encoding="UTF-8" standalone="no"?>
<svg
   height="128px"
   viewBox="0 0 128 128"
   width="128px"
   version="1.1"
   id="svg114"
   sodipodi:docname="org.deskflow.deskflow.svg"
   xml:space="preserve"
   inkscape:version="1.4.2 (ebf0e940d0, 2025-05-08)"
   xmlns:inkscape="http://www.inkscape.org/namespaces/inkscape"
   xmlns:sodipodi="http://sodipodi.sourceforge.net/DTD/sodipodi-0.dtd"
   xmlns:xlink="http://www.w3.org/1999/xlink"
   xmlns="http://www.w3.org/2000/svg"
   xmlns:svg="http://www.w3.org/2000/svg"><defs
     id="defs114"><clipPath
       clipPathUnits="userSpaceOnUse"
       id="clipPath118"><path
         d="M 76.956283,74.036746 H 95.124356 V 100.8939 H 76.956283 Z m 0,0"
         id="path119"
         style="stroke-width:0.789916" /></clipPath></defs><sodipodi:namedview
     id="namedview114"
     pagecolor="#505050"
     bordercolor="#eeeeee"
     borderopacity="1"
     inkscape:showpageshadow="0"
     inkscape:pageopacity="0"
     inkscape:pagecheckerboard="0"
     inkscape:deskcolor="#505050"
     inkscape:zoom="4.609375"
     inkscape:cx="56.40678"
     inkscape:cy="63.349153"
     inkscape:window-width="1536"
     inkscape:window-height="808"
     inkscape:window-x="0"
     inkscape:window-y="0"
     inkscape:window-maximized="1"
     inkscape:current-layer="svg114" /><linearGradient
     id="a"
     gradientUnits="userSpaceOnUse"
     x1="12.000015"
     x2="116.000015"
     y1="124.035328"
     y2="124.035328"
     gradientTransform="matrix(0.67912424,0,0,0.67912424,18.386103,19.659987)"><stop
       offset="0"
       stop-color="#1a5fb4"
       id="stop1" /><stop
       offset="0.04"
       stop-color="#5f9ce8"
       id="stop2" /><stop
       offset="0.08"
       stop-color="#3582e3"
       id="stop3" /><stop
       offset="0.92"
       stop-color="#3483e3"
       id="stop4" /><stop
       offset="0.96"
       stop-color="#609ee8"
       id="stop5" /><stop
       offset="1"
       stop-color="#1a5fb5"
       id="stop6" /></linearGradient><linearGradient
     id="b"
     gradientUnits="userSpaceOnUse"
     x1="18.000023"
     x2="110.000031"
     y1="50.035328"
     y2="50.035328"
     gradientTransform="matrix(0.67912424,0,0,0.67912424,18.386103,19.659987)"><stop
       offset="0"
       stop-color="#1a5fb4"
       id="stop7" /><stop
       offset="0.0834497"
       stop-color="#3584e4"
       id="stop8" /><stop
       offset="0.338668"
       stop-color="#468de6"
       id="stop9" /><stop
       offset="0.661298"
       stop-color="#468de6"
       id="stop10" /><stop
       offset="0.919584"
       stop-color="#3584e4"
       id="stop11" /><stop
       offset="1"
       stop-color="#3584e4"
       id="stop12" /></linearGradient><linearGradient
     id="c"
     gradientUnits="userSpaceOnUse"><stop
       offset="0"
       stop-color="#c01c28"
       id="stop13" /><stop
       offset="0.5"
       stop-color="#ed333b"
       id="stop14" /><stop
       offset="1"
       stop-color="#e01b24"
       id="stop15" /></linearGradient><linearGradient
     id="d"
     gradientTransform="matrix(0.94562293,-0.63651055,0.63651055,0.94562293,-109.29197,-111.28737)"
     x1="23"
     x2="23"
     xlink:href="#c"
     y1="238"
     y2="222" /><radialGradient
     id="e"
     cx="28"
     cy="229.944962"
     gradientTransform="matrix(-0.49506341,-0.73548469,0.73548469,-0.49506341,-84.741776,218.14687)"
     gradientUnits="userSpaceOnUse"
     r="12"><stop
       offset="0"
       stop-color="#a51d2d"
       id="stop16" /><stop
       offset="0.7"
       stop-color="#b21c2a"
       stop-opacity="0.72549"
       id="stop17" /><stop
       offset="1"
       stop-color="#c01c28"
       stop-opacity="0"
       id="stop18" /></radialGradient><linearGradient
     id="f"
     gradientTransform="matrix(-0.31825488,-0.47281147,0.47281147,-0.31825488,-27.111624,168.66814)"
     x1="16"
     x2="40"
     xlink:href="#c"
     y1="232"
     y2="232" /><linearGradient
     id="g"
     gradientTransform="matrix(-0.74861862,0.50390415,0.84868047,1.2608311,-67.626481,-244.67798)"
     gradientUnits="userSpaceOnUse"
     x1="46"
     x2="46"
     y1="232"
     y2="228"><stop
       offset="0"
       stop-color="#9a9996"
       id="stop19" /><stop
       offset="0.5"
       stop-color="#ffffff"
       id="stop20" /><stop
       offset="1"
       stop-color="#c0bfbc"
       id="stop21" /></linearGradient><clipPath
     id="i"><path
       d="m 48.300781 92.210938 c 3.558594 5.289062 10.730469 6.691406 16.023438 3.132812 l 17.554687 -11.820312 c 1.765625 -1.1875 2.230469 -3.578126 1.042969 -5.339844 c -0.589844 -0.882813 -0.359375 -2.078125 0.523437 -2.671875 l 5.585938 -3.757813 c 0.882812 -0.59375 2.078125 -0.363281 2.671875 0.519532 c 1.1875 1.761718 3.578125 2.230468 5.339844 1.042968 l 1.597656 -1.074218 l -12.894531 -19.152344 l -1.59375 1.074218 c -1.765625 1.1875 -2.230469 3.578126 -1.046875 5.339844 c 0.59375 0.882813 0.363281 2.078125 -0.519531 2.671875 l -5.585938 3.761719 c -0.882812 0.589844 -2.078125 0.359375 -2.671875 -0.523438 c -1.1875 -1.761718 -3.578125 -2.230468 -5.339844 -1.042968 l -17.558593 11.816406 c -5.289063 3.5625 -6.691407 10.734375 -3.128907 16.023438 z m 0 0"
       id="path22" /></clipPath><path
     fill="#383838"
     d="m 64.142374,0.412532 c 35.221527,0 63.772886,28.548994 63.772886,63.77052 0,35.221527 -28.551359,63.772878 -63.772886,63.772878 -35.221526,0 -63.772882,-28.551351 -63.772882,-63.772878 0,-35.221526 28.551356,-63.77288196 63.772882,-63.77288196 z"
     id="path1"
     style="stroke-width:2.01239" /><g
     id="g1"
     transform="matrix(0.18658067,0,0,0.18658067,15.315408,16.705545)"><path
       style="fill:#3366cc;fill-opacity:1;stroke:none"
       d="m 150.66101,319.93703 c -35.52699,4.836 -67.478084,25.42938 -89.483021,53.57483 -10.307117,13.18335 -14.056343,40.26303 4.483796,49.08026 14.479133,6.8859 25.44944,-7.8472 34.284719,-16.91052 14.021146,-14.383 33.973046,-28.62653 54.714506,-30.08023 25.09019,-1.75849 45.73071,7.30569 68,17.60263 45.09415,20.85077 91.95096,54.57849 144,43.29321 32.62271,-7.07327 60.07935,-31.88248 78.25076,-58.98535 8.57636,-12.79175 9.16007,-37.28116 -7.25461,-44.86035 -15.18539,-7.01157 -25.44226,9.58154 -34.08566,18.86035 -16.03268,17.21133 -32.82962,29.97177 -56.91049,31.48611 -22.29553,1.40207 -44.68161,-10.58001 -64,-20.23919 -39.73172,-19.86588 -85.49652,-49.15195 -132,-42.82175 z"
       id="path3" /><path
       style="fill:#33b2cc;fill-opacity:1;stroke:none"
       d="m 152.0606,185.87843 c -35.52699,4.836 -67.478082,25.42938 -89.483019,53.57483 -10.307117,13.18335 -14.056343,40.26303 4.483796,49.08026 14.479133,6.8859 25.44944,-7.8472 34.284723,-16.91052 14.02114,-14.383 33.97304,-28.62653 54.7145,-30.08023 25.09019,-1.75849 45.73071,7.30569 68,17.60263 45.09415,20.85077 91.95096,54.57849 144,43.29321 32.62271,-7.07327 60.07935,-31.88248 78.25076,-58.98535 8.57636,-12.79175 9.16007,-37.28116 -7.25461,-44.86035 -15.18539,-7.01157 -25.44226,9.58154 -34.08566,18.86035 -16.03268,17.21133 -32.82962,29.97177 -56.91049,31.48611 -22.29553,1.40207 -44.68161,-10.58001 -64,-20.23919 -39.73172,-19.86588 -85.49652,-49.15195 -132,-42.82175 z"
       id="path3-5" /><path
       style="fill:#33cc99;stroke:none"
       d="m 152.0606,51.87843 c -35.52699,4.836 -67.478082,25.42938 -89.483019,53.57483 -10.307117,13.18335 -14.056343,40.26303 4.483796,49.08026 14.479133,6.8859 25.44944,-7.8472 34.284723,-16.91052 14.02114,-14.383 33.97304,-28.62653 54.7145,-30.08023 25.09019,-1.75849 45.73071,7.30569 68,17.60263 45.09415,20.85077 91.95096,54.57849 144,43.29321 32.62271,-7.07327 60.07935,-31.88248 78.25076,-58.98535 8.57636,-12.79175 9.16007,-37.28116 -7.25461,-44.86035 -15.18539,-7.01157 -25.44226,9.58154 -34.08566,18.86035 -16.03268,17.21133 -32.82962,29.97177 -56.91049,31.48611 -22.29553,1.40207 -44.68161,-10.58001 -64,-20.23919 -39.73172,-19.86588 -85.49652,-49.15195 -132,-42.82175 z"
       id="path3-5-2" /></g></svg>
