<?xml version="1.0" encoding="UTF-8"?>
<svg id="svg2" width="64" height="64" version="1.1" xmlns="http://www.w3.org/2000/svg"><circle id="circle1" cx="32" cy="32" r="27" fill="#6ccba0"/><g id="g2" transform="matrix(.35858 0 0 .35858 18.53 20.525)"><path id="path7" d="m36.043-20-13.98 24h-26.75l-16.312 28 16.312 28h26.75l13.98 24h32.621l1.1602-1.9922 15.148-26.008-13.98-24 13.98-24-16.309-28z" fill="#26a269"/><path id="path10" d="m-0.050781 11.965h23.344l11.668 20.035-11.668 20.035h-23.344l-11.668-20.035z" fill="#57e389"/><path id="path13" d="m64.023-12.035h-23.34l-11.672 20.035 11.672 20.035h23.34l11.672-20.035z" fill="#57e389"/><path id="path16" d="m64.023 35.965h-23.34l-11.672 20.035 11.672 20.035h23.34l11.672-20.035z" fill="#57e389"/></g></svg>
