<?xml version="1.0" encoding="UTF-8"?>
<svg width="64" height="64" version="1.1" xmlns="http://www.w3.org/2000/svg">
 <circle cx="32" cy="32" r="27" fill="#f0f0f0" style="paint-order:stroke fill markers"/>
 <path d="m23 10c-1.662 0-3 1.338-3 3v13h24v-13c0-1.662-1.338-3-3-3z" fill="#b7b7b7"/>
 <path d="m16 26c-1.662 0-3 1.338-3 3v8c0 10.526 8.474 19 19 19s19-8.474 19-19v-8c0-1.662-1.338-3-3-3z" fill="#4d4d4d"/>
 <rect x="21" y="42" width="22" height="2" rx="1" ry="1" opacity=".4"/>
 <rect x="23" y="46" width="18" height="2" rx="1" ry="1" opacity=".4"/>
 <rect x="25" y="50" width="14" height="2" rx="1" ry="1" opacity=".4"/>
 <path d="m23 14h7v3h-7zm11 0h7v3h-7z" opacity=".35"/>
 <path d="m25 14h3v3h-3zm11 0h3v3h-3z" fill="#fb5"/>
 <circle cx="48" cy="48" r="14" fill="#51a2da"/>
 <path d="m51.878 39.002c2.317 0 4.505 1.777 4.505 4.223 0 0.227-3e-3 0.453-0.04 0.71a1.15 1.15 0 1 1-2.273-0.324c0.01-0.072 0.015-0.188 0.015-0.386 0-1.387-1.133-1.923-2.207-1.923-1.073 0-2.041 0.9-2.045 1.92v3.532l1.992-0.014c1.554-0.033 1.57 2.31 0.016 2.3l-2.008 0.01-0.014 3.296c-0.24 2.584-2.442 4.654-5.087 4.654-2.803 0-5.115-2.294-5.115-5.104 0.084-2.89 2.394-5.164 5.296-5.137l1.616-0.01v2.296l-1.63 0.014c-1.595 0.048-2.959 1.13-2.985 2.837a2.803 2.803 0 0 0 2.82 2.804c1.558 0 2.803-1.134 2.803-2.8v-8.687c0-0.161 8e-3 -0.29 0.027-0.468 0.262-2.126 2.162-3.745 4.314-3.745z" fill="#fff"/>
</svg>
