<svg xmlns="http://www.w3.org/2000/svg" width="64" height="64"><circle cx="32" cy="32" r="27" fill="#ececec"/><path fill="#d3d3cf" d="m23.199 13.162 25.988 6.964a2.446 2.446 0 0 1 1.73 2.995l-6.964 25.988a2.446 2.446 0 0 1-2.996 1.73L14.97 43.875a2.446 2.446 0 0 1-1.73-2.995l6.965-25.989a2.447 2.447 0 0 1 2.995-1.73"/><path fill="#f6f5f4" d="M18.626 16.102H45.53a2.446 2.446 0 0 1 2.446 2.446v26.904a2.446 2.446 0 0 1-2.446 2.446H18.626a2.446 2.446 0 0 1-2.446-2.446V18.548a2.446 2.446 0 0 1 2.446-2.446"/><path fill="#8467d0" d="M44.919 18.548H19.238a.61.61 0 0 0-.612.611v19.567c0 .338.274.612.612.612h25.68a.61.61 0 0 0 .612-.612V19.16a.61.61 0 0 0-.611-.611"/><path fill="#fff" d="M24.13 27.8c-.627 0-1.253.238-1.73.716l-3.774 3.773v6.437a.61.61 0 0 0 .611.611H36.68L25.86 28.516a2.44 2.44 0 0 0-1.73-.716" opacity=".2"/><path fill="#fff" d="M32.995 30.567a2.44 2.44 0 0 0-1.73.717l-8.053 8.053h19.566l-8.053-8.053a2.44 2.44 0 0 0-1.73-.717" opacity=".1"/><path fill="#fff" d="M38.498 28.026a3.057 3.057 0 1 1 0-6.115 3.057 3.057 0 0 1 0 6.115" opacity=".15"/><path fill="none" stroke="#fff" stroke-linecap="round" stroke-width="1.638" d="m11.891 268.55 15.457-15.457" clip-path="url(#clipPath552)" mask="url(#mask544)" transform="translate(10.677 -34.612)scale(.30573)"/><path fill="none" stroke="#3d3846" stroke-width="1.957" d="m21.683 41.207-2.446 2.446"/><path fill="none" stroke="#77767b" stroke-linecap="round" stroke-width="3.913" d="m19.237 43.653-4.28 4.28"/><path fill="#fff" d="M19.256 34.5a9.153 9.153 0 1 0 9.153-9.152 9.15 9.15 0 0 0-9.153 9.153" opacity=".25"/><path fill="none" stroke="#5e5c64" stroke-linejoin="round" stroke-width="1.304" d="M37.617 34.482a9.208 9.208 0 1 1-18.415 0 9.208 9.208 0 0 1 18.415 0z"/></svg>