<svg width="64" height="64" xmlns="http://www.w3.org/2000/svg"><circle cx="32" cy="32" r="27" fill="#ccc" style="paint-order:stroke fill markers"/><g stroke-linecap="round" stroke-linejoin="round"><path d="M18 30.8V16.1c0-1.163.937-2.1 2.1-2.1h23.8c1.163 0 2.1.937 2.1 2.1v14.7z" fill="#fff" style="paint-order:stroke fill markers"/><rect x="12" y="22" width="40" height="20" rx="4.286" ry="4.286" fill="#4d4d4d" style="paint-order:stroke fill markers"/><path d="M18 33v14.9c0 1.163.937 2.1 2.1 2.1h23.8c1.163 0 2.1-.937 2.1-2.1V33z" fill="#fff" style="paint-order:stroke fill markers"/><rect x="15" y="25" width="2" height="2" rx="2" ry="2" fill="#f0f0f0" style="paint-order:stroke fill markers"/><rect x="15" y="30" width="34" height="3" rx="1.478" ry="1.5" fill="#fff" opacity=".35" style="paint-order:stroke fill markers"/></g><path d="M24.228 41.287s3.706 5.05 11.074-.283c5.168-3.74 10.786.979 10.786.979" fill="none" opacity=".15" stroke="#000"/><path d="M38.273 23.435c.65.517.798 1.406.332 1.993L26.811 40.25c-.466.586-2.467 1.494-2.858 1.183s.044-2.465.51-3.051L36.257 23.56c.467-.587 1.366-.643 2.016-.125z" fill="#666"/></svg>