<svg xmlns="http://www.w3.org/2000/svg" width="64" height="64"><circle cx="31.998" cy="31.998" r="27.001" fill="#4d4d4d" style="paint-order:stroke fill markers"/><path fill="#333" d="M47.944 42.127h2.333c.646 0 1.167.52 1.167 1.166v2.334c0 .645-.521 1.166-1.167 1.166h-2.333a1.165 1.165 0 0 1-1.167-1.166v-2.334c0-.645.521-1.166 1.167-1.166m-16.333 0h13.222c.646 0 1.167.52 1.167 1.166v2.334c0 .645-.521 1.166-1.167 1.166H31.611a1.164 1.164 0 0 1-1.167-1.166v-2.334c0-.645.52-1.166 1.167-1.166m-5.445 0H28.5c.645 0 1.166.52 1.166 1.166v2.334c0 .645-.52 1.166-1.166 1.166h-2.334A1.165 1.165 0 0 1 25 45.627v-2.334c0-.645.52-1.166 1.166-1.166m-5.444 0h2.333c.646 0 1.167.52 1.167 1.166v2.334c0 .645-.521 1.166-1.167 1.166h-2.333a1.165 1.165 0 0 1-1.167-1.166v-2.334c0-.645.521-1.166 1.167-1.166m-8.555 0h5.444c.647 0 1.167.52 1.167 1.166v2.334c0 .645-.52 1.166-1.167 1.166h-5.444A1.164 1.164 0 0 1 11 45.627v-2.334c0-.645.52-1.166 1.167-1.166m38.095-8.914h.016c.645 0 1.166.52 1.166 1.167v6.161c0 .646-.52 1.167-1.166 1.167h-.016a1.164 1.164 0 0 1-1.166-1.167V34.38c0-.646.52-1.167 1.166-1.167m-2.318-1.975h2.334c.645 0 1.166.521 1.166 1.167v2.333c0 .646-.52 1.167-1.166 1.167h-2.334a1.165 1.165 0 0 1-1.166-1.167v-2.333c0-.646.52-1.167 1.166-1.167m-3.11 5.444h2.333c.645 0 1.166.522 1.166 1.167v2.333c0 .646-.52 1.167-1.166 1.167h-2.334a1.165 1.165 0 0 1-1.166-1.167V37.85c0-.645.52-1.167 1.166-1.167m-5.445 0h2.333c.646 0 1.167.522 1.167 1.167v2.333c0 .646-.521 1.167-1.167 1.167H39.39a1.165 1.165 0 0 1-1.167-1.167V37.85c0-.645.521-1.167 1.167-1.167m-27.222 0H14.5c.646 0 1.167.522 1.167 1.167v2.333c0 .646-.521 1.167-1.167 1.167h-2.333A1.165 1.165 0 0 1 11 40.182V37.85c0-.645.521-1.167 1.167-1.167m21.777 0h2.334c.645 0 1.166.522 1.166 1.167v2.333c0 .646-.52 1.167-1.166 1.167h-2.334a1.165 1.165 0 0 1-1.166-1.167V37.85c0-.645.52-1.167 1.166-1.167m-5.444 0h2.333c.646 0 1.167.522 1.167 1.167v2.333c0 .646-.521 1.167-1.167 1.167H28.5a1.165 1.165 0 0 1-1.167-1.167V37.85c0-.645.521-1.167 1.167-1.167m-5.444 0h2.333c.646 0 1.167.522 1.167 1.167v2.333c0 .646-.521 1.167-1.167 1.167h-2.333a1.165 1.165 0 0 1-1.167-1.167V37.85c0-.645.521-1.167 1.167-1.167m-5.445 0h2.334c.645 0 1.166.522 1.166 1.167v2.333c0 .646-.52 1.167-1.166 1.167H17.61a1.165 1.165 0 0 1-1.166-1.167V37.85c0-.645.52-1.167 1.166-1.167m24.89-5.445h2.333c.646 0 1.167.521 1.167 1.167v2.333c0 .646-.521 1.167-1.167 1.167H42.5a1.165 1.165 0 0 1-1.167-1.167v-2.333c0-.646.521-1.167 1.167-1.167m-5.445 0h2.334c.645 0 1.166.521 1.166 1.167v2.333c0 .646-.52 1.167-1.166 1.167h-2.334a1.165 1.165 0 0 1-1.166-1.167v-2.333c0-.646.52-1.167 1.166-1.167m-5.444 0h2.333c.646 0 1.167.521 1.167 1.167v2.333c0 .646-.521 1.167-1.167 1.167h-2.333a1.165 1.165 0 0 1-1.167-1.167v-2.333c0-.646.521-1.167 1.167-1.167m-5.445 0H28.5c.645 0 1.166.521 1.166 1.167v2.333c0 .646-.52 1.167-1.166 1.167h-2.334A1.165 1.165 0 0 1 25 34.738v-2.333c0-.646.52-1.167 1.166-1.167m-5.444 0h2.333c.646 0 1.167.521 1.167 1.167v2.333c0 .646-.521 1.167-1.167 1.167h-2.333a1.165 1.165 0 0 1-1.167-1.167v-2.333c0-.646.521-1.167 1.167-1.167m-8.555 0h5.444c.647 0 1.167.521 1.167 1.167v2.333c0 .646-.52 1.167-1.167 1.167h-5.444A1.164 1.164 0 0 1 11 34.738v-2.333c0-.646.52-1.167 1.167-1.167m32.666-5.467h5.445c.647 0 1.166.52 1.166 1.167v2.333c0 .645-.52 1.167-1.166 1.167h-5.445a1.165 1.165 0 0 1-1.166-1.167v-2.333c0-.646.52-1.167 1.166-1.167m-5.444 0h2.333c.646 0 1.167.52 1.167 1.167v2.333c0 .645-.521 1.167-1.167 1.167H39.39a1.165 1.165 0 0 1-1.167-1.167v-2.333c0-.646.521-1.167 1.167-1.167m-27.222 0H14.5c.646 0 1.167.52 1.167 1.167v2.333c0 .645-.521 1.167-1.167 1.167h-2.333A1.165 1.165 0 0 1 11 29.27v-2.333c0-.646.521-1.167 1.167-1.167m21.777 0h2.334c.645 0 1.166.52 1.166 1.167v2.333c0 .645-.52 1.167-1.166 1.167h-2.334a1.165 1.165 0 0 1-1.166-1.167v-2.333c0-.646.52-1.167 1.166-1.167m-5.444 0h2.333c.646 0 1.167.52 1.167 1.167v2.333c0 .645-.521 1.167-1.167 1.167H28.5a1.165 1.165 0 0 1-1.167-1.167v-2.333c0-.646.521-1.167 1.167-1.167m-5.444 0h2.333c.646 0 1.167.52 1.167 1.167v2.333c0 .645-.521 1.167-1.167 1.167h-2.333a1.165 1.165 0 0 1-1.167-1.167v-2.333c0-.646.521-1.167 1.167-1.167m-5.445 0h2.334c.645 0 1.166.52 1.166 1.167v2.333c0 .645-.52 1.167-1.166 1.167H17.61a1.165 1.165 0 0 1-1.166-1.167v-2.333c0-.646.52-1.167 1.166-1.167m30.333-3.866h2.333c.646 0 1.167.52 1.167 1.166s-.521 1.167-1.167 1.167h-2.333a1.165 1.165 0 0 1-1.167-1.167c0-.645.521-1.166 1.167-1.166m-5.444 0h2.333c.646 0 1.167.52 1.167 1.166s-.521 1.167-1.167 1.167H42.5a1.165 1.165 0 0 1-1.167-1.167c0-.645.521-1.166 1.167-1.166m-8.556 0h2.334c.645 0 1.166.52 1.166 1.166s-.52 1.167-1.166 1.167h-2.334a1.165 1.165 0 0 1-1.166-1.167c0-.645.52-1.166 1.166-1.166m-5.444 0h2.333c.646 0 1.167.52 1.167 1.166s-.521 1.167-1.167 1.167H28.5a1.165 1.165 0 0 1-1.167-1.167c0-.645.521-1.166 1.167-1.166m-5.444 0h2.333c.646 0 1.167.52 1.167 1.166s-.521 1.167-1.167 1.167h-2.333a1.165 1.165 0 0 1-1.167-1.167c0-.645.521-1.166 1.167-1.166m-5.445 0h2.334c.645 0 1.166.52 1.166 1.166s-.52 1.167-1.166 1.167H17.61a1.165 1.165 0 0 1-1.166-1.167c0-.645.52-1.166 1.166-1.166m-5.397 0h2.24c.672 0 1.213.52 1.213 1.166s-.54 1.167-1.214 1.167h-2.239c-.673 0-1.214-.52-1.214-1.167 0-.645.541-1.166 1.214-1.166"/><path fill="#666" d="M47.944 42.127h2.333c.646 0 1.167.52 1.167 1.166v1.945c0 .645-.521 1.166-1.167 1.166h-2.333a1.165 1.165 0 0 1-1.167-1.166v-1.945c0-.645.521-1.166 1.167-1.166m-16.333 0h13.222c.646 0 1.167.52 1.167 1.166v1.945c0 .645-.521 1.166-1.167 1.166H31.611a1.164 1.164 0 0 1-1.167-1.166v-1.945c0-.645.52-1.166 1.167-1.166m-5.445 0H28.5c.645 0 1.166.52 1.166 1.166v1.945c0 .645-.52 1.166-1.166 1.166h-2.334A1.165 1.165 0 0 1 25 45.238v-1.945c0-.645.52-1.166 1.166-1.166m-5.444 0h2.333c.646 0 1.167.52 1.167 1.166v1.945c0 .645-.521 1.166-1.167 1.166h-2.333a1.165 1.165 0 0 1-1.167-1.166v-1.945c0-.645.521-1.166 1.167-1.166m-8.555 0h5.444c.646 0 1.167.52 1.167 1.166v1.945c0 .645-.521 1.166-1.167 1.166h-5.444A1.164 1.164 0 0 1 11 45.238v-1.945c0-.645.52-1.166 1.167-1.166m38.095-9.273h.016c.645 0 1.166.521 1.166 1.167v6.161c0 .646-.52 1.167-1.166 1.167h-.016a1.164 1.164 0 0 1-1.166-1.167v-6.161c0-.646.52-1.167 1.166-1.167m-2.318-1.616h2.334c.645 0 1.166.521 1.166 1.167v1.944c0 .646-.52 1.167-1.166 1.167h-2.334a1.165 1.165 0 0 1-1.166-1.167v-1.944c0-.646.52-1.167 1.166-1.167m-3.11 5.444h2.333c.645 0 1.166.521 1.166 1.167v1.944c0 .646-.52 1.167-1.166 1.167h-2.334a1.165 1.165 0 0 1-1.166-1.167V37.85c0-.646.52-1.167 1.166-1.167m-5.445 0h2.333c.646 0 1.167.521 1.167 1.167v1.944c0 .646-.521 1.167-1.167 1.167H39.39a1.165 1.165 0 0 1-1.167-1.167V37.85c0-.646.521-1.167 1.167-1.167m-27.222 0H14.5c.646 0 1.167.521 1.167 1.167v1.944c0 .646-.521 1.167-1.167 1.167h-2.333A1.165 1.165 0 0 1 11 39.793V37.85c0-.646.521-1.167 1.167-1.167m21.777 0h2.334c.645 0 1.166.521 1.166 1.167v1.944c0 .646-.52 1.167-1.166 1.167h-2.334a1.165 1.165 0 0 1-1.166-1.167V37.85c0-.646.52-1.167 1.166-1.167m-5.444 0h2.333c.646 0 1.167.521 1.167 1.167v1.944c0 .646-.521 1.167-1.167 1.167H28.5a1.165 1.165 0 0 1-1.167-1.167V37.85c0-.646.521-1.167 1.167-1.167m-5.444 0h2.333c.646 0 1.167.521 1.167 1.167v1.944c0 .646-.521 1.167-1.167 1.167h-2.333a1.165 1.165 0 0 1-1.167-1.167V37.85c0-.646.521-1.167 1.167-1.167m-5.445 0h2.334c.645 0 1.166.521 1.166 1.167v1.944c0 .646-.52 1.167-1.166 1.167H17.61a1.165 1.165 0 0 1-1.166-1.167V37.85c0-.646.52-1.167 1.166-1.167m24.89-5.445h2.333c.646 0 1.167.521 1.167 1.167v1.944c0 .646-.521 1.167-1.167 1.167H42.5a1.165 1.165 0 0 1-1.167-1.167v-1.944c0-.646.521-1.167 1.167-1.167m-5.445 0h2.334c.645 0 1.166.521 1.166 1.167v1.944c0 .646-.52 1.167-1.166 1.167h-2.334a1.165 1.165 0 0 1-1.166-1.167v-1.944c0-.646.52-1.167 1.166-1.167m-5.444 0h2.333c.646 0 1.167.521 1.167 1.167v1.944c0 .646-.521 1.167-1.167 1.167h-2.333a1.165 1.165 0 0 1-1.167-1.167v-1.944c0-.646.521-1.167 1.167-1.167m-5.445 0H28.5c.645 0 1.166.521 1.166 1.167v1.944c0 .646-.52 1.167-1.166 1.167h-2.334A1.165 1.165 0 0 1 25 34.349v-1.944c0-.646.52-1.167 1.166-1.167m-5.444 0h2.333c.646 0 1.167.521 1.167 1.167v1.944c0 .646-.521 1.167-1.167 1.167h-2.333a1.165 1.165 0 0 1-1.167-1.167v-1.944c0-.646.521-1.167 1.167-1.167m-8.555 0h5.444c.646 0 1.167.521 1.167 1.167v1.944c0 .646-.521 1.167-1.167 1.167h-5.444A1.164 1.164 0 0 1 11 34.349v-1.944c0-.646.52-1.167 1.167-1.167m32.666-5.467h5.445c.645 0 1.166.52 1.166 1.166v1.945c0 .645-.52 1.166-1.166 1.166h-5.445a1.165 1.165 0 0 1-1.166-1.166v-1.945c0-.645.52-1.166 1.166-1.166m-5.444 0h2.333c.646 0 1.167.52 1.167 1.166v1.945c0 .645-.521 1.166-1.167 1.166H39.39a1.165 1.165 0 0 1-1.167-1.166v-1.945c0-.645.521-1.166 1.167-1.166m-27.222 0H14.5c.646 0 1.167.52 1.167 1.166v1.945c0 .645-.521 1.166-1.167 1.166h-2.333A1.165 1.165 0 0 1 11 28.882v-1.945c0-.645.521-1.166 1.167-1.166m21.777 0h2.334c.645 0 1.166.52 1.166 1.166v1.945c0 .645-.52 1.166-1.166 1.166h-2.334a1.165 1.165 0 0 1-1.166-1.166v-1.945c0-.645.52-1.166 1.166-1.166m-5.444 0h2.333c.646 0 1.167.52 1.167 1.166v1.945c0 .645-.521 1.166-1.167 1.166H28.5a1.165 1.165 0 0 1-1.167-1.166v-1.945c0-.645.521-1.166 1.167-1.166m-5.444 0h2.333c.646 0 1.167.52 1.167 1.166v1.945c0 .645-.521 1.166-1.167 1.166h-2.333a1.165 1.165 0 0 1-1.167-1.166v-1.945c0-.645.521-1.166 1.167-1.166m-5.445 0h2.334c.645 0 1.166.52 1.166 1.166v1.945c0 .645-.52 1.166-1.166 1.166H17.61a1.165 1.165 0 0 1-1.166-1.166v-1.945c0-.645.52-1.166 1.166-1.166m30.333-3.866h2.333c.646 0 1.167.433 1.167.972 0 .54-.521.972-1.167.972h-2.333c-.646 0-1.167-.433-1.167-.972 0-.54.521-.972 1.167-.972m-5.444 0h2.333c.646 0 1.167.433 1.167.972 0 .54-.521.972-1.167.972H42.5c-.646 0-1.167-.433-1.167-.972 0-.54.521-.972 1.167-.972m-8.556 0h2.334c.645 0 1.166.433 1.166.972 0 .54-.52.972-1.166.972h-2.334c-.645 0-1.166-.433-1.166-.972 0-.54.52-.972 1.166-.972m-5.444 0h2.333c.646 0 1.167.433 1.167.972 0 .54-.521.972-1.167.972H28.5c-.646 0-1.167-.433-1.167-.972 0-.54.521-.972 1.167-.972m-5.444 0h2.333c.646 0 1.167.433 1.167.972 0 .54-.521.972-1.167.972h-2.333c-.646 0-1.167-.433-1.167-.972 0-.54.521-.972 1.167-.972m-5.445 0h2.334c.645 0 1.166.433 1.166.972 0 .54-.52.972-1.166.972H17.61c-.645 0-1.166-.433-1.166-.972 0-.54.52-.972 1.166-.972m-5.444 0H14.5c.646 0 1.167.433 1.167.972 0 .54-.521.972-1.167.972h-2.333c-.646 0-1.167-.433-1.167-.972 0-.54.521-.972 1.167-.972"/><path fill="#f9f06b" d="M45.984 17.206a.794.794 0 1 1-.001 1.588.794.794 0 0 1 .001-1.588m3.126.032a.777.777 0 1 1 .002 1.555.777.777 0 0 1-.001-1.555"/><g stroke="#deddda" stroke-linecap="round" stroke-linejoin="round" style="paint-order:normal"><path fill="none" d="M96.965 77.023V47.019a8.007 8.007 0 0 0-8-8.008L68.988 39c-2.121 0-4.152.84-5.652 2.34s-2.34 3.535-2.336 5.653l.012 12" style="paint-order:normal" transform="translate(6.333 4.794)scale(.38889)"/><path fill="#666" stroke-width="2" d="M78.125 65.262h33.797c3.91 0 7.078 2.785 7.078 6.219v29.285c0 3.433-3.168 6.219-7.078 6.219H78.125c-3.91 0-7.082-2.786-7.082-6.22V71.482c0-3.434 3.172-6.219 7.082-6.219" style="paint-order:normal" transform="translate(6.333 4.794)scale(.38889)"/><path fill="#666" fill-rule="evenodd" d="M56.797 53.348h6.406a2.384 2.384 0 0 1 2.387 2.387v5.379a2.384 2.384 0 0 1-2.387 2.386h-6.406a2.384 2.384 0 0 1-2.387-2.386v-5.38a2.384 2.384 0 0 1 2.387-2.386" style="paint-order:normal" transform="translate(6.333 4.794)scale(.38889)"/></g><path fill="#fff" d="M43.28 42.905c1.947 0 3.156-1.135 3.215-2.852h-2.061c-.082.737-.524 1.14-1.129 1.14-.775 0-1.28-.657-1.28-1.89 0-1.225.51-1.88 1.28-1.88.632 0 1.042.43 1.129 1.139h2.061c-.05-1.708-1.294-2.82-3.22-2.82-2.18 0-3.497 1.455-3.497 3.584 0 2.119 1.308 3.579 3.501 3.579m-.89-9.987h-1.85v.06L42.494 35h1.583l1.949-2.024v-.059h-1.844l-.898 1.048z"/></svg>