<svg width="64" height="64" version="1.1" xmlns="http://www.w3.org/2000/svg">
 <circle cx="32" cy="32" r="27" fill="#3f3f3f" stroke-width="2.5664"/>
 <path d="m31.975 13c-1.0946 0.014006-1.9746 0.90532-1.9746 2v16c8.9e-5 0.74086 0.40967 1.421 1.0645 1.7676l17 9c1.3319 0.70464 2.9352-0.26074 2.9355-1.7676v-16c-8.9e-5 -0.74086-0.40967-1.421-1.0645-1.7676l-17-9c-0.29582-0.15666-0.62622-0.23658-0.96094-0.23242z" fill="#5891d9"/>
 <path d="m22.975 18c-1.0946 0.014006-1.9746 0.90532-1.9746 2v16c8.9e-5 0.74086 0.40967 1.421 1.0645 1.7676l17 9c1.3319 0.70464 2.9352-0.26074 2.9355-1.7676v-16c-8.9e-5 -0.74086-0.40967-1.421-1.0645-1.7676l-17-9c-0.29582-0.15666-0.62622-0.23658-0.96094-0.23242z" fill="#8ed599"/>
 <path d="m38 34-17 1.0625v0.9375c8.9e-5 0.74086 0.40967 1.421 1.0645 1.7676l17 9c1.3319 0.70464 2.9352-0.26074 2.9355-1.7676v-7l-4-4z" fill="#ffffff"/>
 <path d="m14.975 22c-1.0946 0.014006-1.9746 0.90532-1.9746 2v16c8.9e-5 0.74086 0.40967 1.421 1.0645 1.7676l17 9c1.3319 0.70464 2.9352-0.26074 2.9355-1.7676v-16c-8.9e-5 -0.74086-0.40967-1.421-1.0645-1.7676l-17-9c-0.29582-0.15666-0.62622-0.23658-0.96094-0.23242z" fill="#d75a86"/>
 <path d="m44 27c0 1 1 3 2 3s2-1 2-1-1.5924-1.1498-2-2c-0.47939-1 0-3 0-3s-2 1-2 3z" fill="#ffffff"/>
 <path d="m18 34-5 0.33398v5.666c8.9e-5 0.74086 0.40967 1.421 1.0645 1.7676l15.252 8.0742-11.316-15.842z" fill="#ffffff"/>
</svg>
