<?xml version="1.0" encoding="UTF-8" standalone="no"?>
<svg
   width="64"
   height="64"
   viewBox="0 0 16.933 16.933"
   version="1.1"
   id="svg2"
   sodipodi:docname="org.vinegarhq.sober.svg"
   inkscape:version="1.4.2 (ebf0e940d0, 2025-05-08)"
   xmlns:inkscape="http://www.inkscape.org/namespaces/inkscape"
   xmlns:sodipodi="http://sodipodi.sourceforge.net/DTD/sodipodi-0.dtd"
   xmlns="http://www.w3.org/2000/svg"
   xmlns:svg="http://www.w3.org/2000/svg">
  <defs
     id="defs2">
    <linearGradient
       id="a"
       gradientUnits="userSpaceOnUse"
       x1="52.518135"
       x2="93.957085"
       y1="20.635178"
       y2="31.823769"
       gradientTransform="matrix(0.19026216,0,0,0.19026216,-5.4473772,3.3540829)">
      <stop
         offset="0"
         stop-color="#518630"
         id="stop1" />
      <stop
         offset="1"
         stop-color="#b6db3f"
         id="stop2" />
    </linearGradient>
  </defs>
  <sodipodi:namedview
     id="namedview2"
     pagecolor="#505050"
     bordercolor="#ffffff"
     borderopacity="1"
     inkscape:showpageshadow="0"
     inkscape:pageopacity="0"
     inkscape:pagecheckerboard="1"
     inkscape:deskcolor="#505050"
     inkscape:zoom="12.828125"
     inkscape:cx="44.043849"
     inkscape:cy="27.790499"
     inkscape:window-width="1920"
     inkscape:window-height="1012"
     inkscape:window-x="0"
     inkscape:window-y="0"
     inkscape:window-maximized="1"
     inkscape:current-layer="svg2" />
  <circle
     cx="8.466"
     cy="8.466"
     r="7.144"
     fill="#f0f0f0"
     style="paint-order:stroke fill markers"
     id="circle1" />
  <path
     d="M 13.211296,5.4151319 5.8793508,3.4524549 a 0.38043983,0.38043983 0 0 0 -0.465898,0.269206 l -0.790232,2.954686 a 0.38070144,0.38070144 0 0 0 0.269243,0.46609 l 2.176823,0.583279 a 0.38080884,0.38080884 0 0 0 0.46632,-0.268997 l 0.0083,-0.03076 a 0.38080884,0.38080884 0 0 1 0.46632,-0.268998 l 1.515681,0.406126 a 0.38052429,0.38052429 0 0 1 0.269071,0.466045 l -0.0082,0.03077 a 0.3805243,0.3805243 0 0 0 0.2690712,0.466045 l 2.168157,0.580957 a 0.38034736,0.38034736 0 0 0 0.465874,-0.269118 l 0.790757,-2.956653 a 0.3806088,0.3806088 0 0 0 -0.269267,-0.466 z m -8.9680992,2.681835 -0.790758,2.9566471 a 0.38060878,0.38060878 0 0 0 0.269267,0.466002 l 7.3319442,1.962677 a 0.38043983,0.38043983 0 0 0 0.465899,-0.269206 L 12.309781,10.2584 A 0.38070149,0.38070149 0 0 0 12.040538,9.7923099 L 9.8721358,9.2112879 a 0.38052439,0.38052439 0 0 0 -0.466045,0.269072 l -0.0173,0.06454 a 0.38059348,0.38059348 0 0 1 -0.466064,0.269138 l -1.517552,-0.406332 a 0.38014435,0.38014435 0 0 1 -0.268789,-0.465898 l 0.01745,-0.06493 a 0.38021336,0.38021336 0 0 0 -0.268759,-0.46597 l -2.176006,-0.583059 a 0.38034737,0.38034737 0 0 0 -0.465874,0.269118 z"
     fill="url(#a)"
     id="path2-1"
     style="fill:#83b037;stroke-width:0.190262;fill-opacity:1" />
</svg>
