<?xml version="1.0" encoding="UTF-8" standalone="no"?>
<svg
   width="64"
   height="64"
   viewBox="0 0 16.933 16.933"
   version="1.1"
   id="svg3"
   sodipodi:docname="turbowarp.svg"
   inkscape:version="1.3.2 (091e20ef0f, 2023-11-25)"
   xmlns:inkscape="http://www.inkscape.org/namespaces/inkscape"
   xmlns:sodipodi="http://sodipodi.sourceforge.net/DTD/sodipodi-0.dtd"
   xmlns="http://www.w3.org/2000/svg"
   xmlns:svg="http://www.w3.org/2000/svg">
  <sodipodi:namedview
     id="namedview3"
     pagecolor="#858585"
     bordercolor="#000000"
     borderopacity="0.25"
     inkscape:showpageshadow="2"
     inkscape:pageopacity="0.0"
     inkscape:pagecheckerboard="0"
     inkscape:deskcolor="#d1d1d1"
     inkscape:zoom="8"
     inkscape:cx="2.375"
     inkscape:cy="40.9375"
     inkscape:window-width="1920"
     inkscape:window-height="1036"
     inkscape:window-x="0"
     inkscape:window-y="20"
     inkscape:window-maximized="1"
     inkscape:current-layer="svg3"
     showguides="false" />
  <defs
     id="defs2">
    <linearGradient
       id="a"
       x1="43"
       x2="49"
       y1="44"
       y2="50"
       gradientTransform="scale(.26458)"
       gradientUnits="userSpaceOnUse">
      <stop
         offset="0"
         id="stop1" />
      <stop
         offset="1"
         stop-opacity="0"
         id="stop2" />
    </linearGradient>
  </defs>
  <circle
     cx="8.466"
     cy="8.466"
     r="7.144"
     fill="#4d4d4d"
     style="paint-order:normal;fill:#ff4c4c;fill-opacity:1;stroke:none;stroke-opacity:1;stroke-width:1.00010531;stroke-dasharray:none"
     id="circle2" />
  <g
     id="g1"
     inkscape:label="T"
     transform="matrix(0.05154189,0,0,0.05154189,7.9070419,8.3782912)">
    <path
       d="m 56.813799,-38.222047 c -0.881079,3.854753 -1.541895,8.03991 -1.982439,12.555473 -0.110088,1.211493 0,2.753396 0.330403,4.625701 0.330402,2.202714 0.495607,3.744617 0.495607,4.625702 0,2.863529 -1.872308,4.295293 -5.616911,4.295293 -2.422996,0 -4.01996,-0.715882 -4.790909,-2.147647 -0.110144,-2.422988 -0.05507,-5.727058 0.165205,-9.912215 0.220269,-4.956109 0.330403,-8.260179 0.330403,-9.912216 -0.110131,0 -0.275334,-0.11013 -0.495608,-0.330407 -10.242623,0.440543 -19.879498,1.101359 -28.910623,1.982444 -0.220275,1.431764 -0.220275,3.193934 0,5.286514 l 0.660805,5.94733 c -0.440536,3.414206 -0.660805,8.480451 -0.660805,15.1987296 0.330405,2.863529 0.49561,15.1436631 0.49561,36.8404054 v 12.059873 c 0,1.872308 0.275336,3.193942 0.826013,3.964888 h 10.242629 c 4.185152,-0.550685 6.277729,1.211493 6.277729,5.286511 0,2.422994 -1.156423,4.130097 -3.469267,5.121315 -1.431772,0.550685 -3.964896,0.660815 -7.599374,0.330413 -2.202716,-0.220272 -4.790904,-0.275347 -7.764572,-0.165205 -4.075021,0.550674 -9.0311277,0.991218 -14.86832163,1.32162 -5.94732457,0.330416 -9.58179977,-0.495597 -10.90343137,-2.478046 -0.881087,-1.321624 -0.881087,-2.698321 0,-4.130097 1.5418981,-2.422982 5.5618531,-3.634475 12.0598574,-3.634475 3.4142113,0 5.1213143,-0.936154 5.1213143,-2.808462 0,-0.991218 -0.055064,-1.927372 -0.1652053,-2.808462 0,-2.753407 0.055064,-5.1764 0.1652053,-7.268975 0.3304078,-5.94733 0.3304078,-14.317645 0,-25.110945 C 6.3165699,-5.126258 6.4817725,-19.168564 7.2527241,-31.613901 l -0.4956104,-0.495611 c -3.4142087,0.22027 -9.8020796,0.165203 -19.1636157,-0.165205 -0.440544,0 -3.799683,0.220272 -10.077418,0.660816 1.541898,10.573028 2.422985,18.117325 2.643257,22.6328906 l -0.330408,4.4604988 c -0.11013,1.6520363 -1.486831,2.4780519 -4.130091,2.4780519 -2.09258,0 -3.854749,-3.9648857 -5.286514,-11.8946573 -0.660815,-4.735837 -1.321628,-9.526741 -1.982444,-14.372714 0,-0.770949 -0.385474,-2.092578 -1.156423,-3.964886 -0.660816,-1.982441 -2.118133,-5.272333 -2.118133,-6.263556 0,-3.485886 3.219489,-2.657436 7.404647,-3.318251 0.330408,0 0.881085,0.05507 1.652036,0.165202 0.770949,0.110131 1.321629,0.165205 1.652034,0.165205 h 40.970496 c 10.132482,-0.440543 19.934559,-1.321628 29.406231,-2.643257 0.660821,-0.330408 1.652044,-0.660815 2.973668,-0.991223 2.312852,-0.220272 4.29529,0.330408 5.947327,1.652036 1.652036,1.211493 2.202721,2.973665 1.652036,5.286514 z"
       fill="none"
       stroke="#ffffff"
       stroke-width="62.5997"
       id="path4" />
    <path
       d="m 56.702801,-38.203317 q -1.321621,5.782127 -1.982437,12.555473 -0.165207,1.817241 0.330403,4.625701 0.495608,3.304073 0.495608,4.625701 0,4.295294 -5.616917,4.295294 -3.634481,0 -4.790904,-2.14765 -0.165208,-3.634478 0.165205,-9.912213 0.330403,-7.434161 0.330403,-9.912215 -0.165195,0 -0.495608,-0.330408 -15.363932,0.660816 -28.91062,1.982444 -0.330416,2.147647 0,5.286514 l 0.660805,5.94733 q -0.660805,5.121309 -0.660805,15.1987301 0.495607,4.2952935 0.495607,36.8404029 v 12.059859 q 0,2.80846 0.826013,3.964883 h 10.242629 q 6.27773,-0.826021 6.27773,5.286517 0,3.634481 -3.469268,5.121317 -2.147657,0.826024 -7.599374,0.330413 -3.30407,-0.330413 -7.764569,-0.165205 -6.1125322,0.82601 -14.8683218,1.321621 -8.9209842,0.495618 -10.9034332,-2.478047 -1.321626,-1.982447 0,-4.130099 2.3128515,-3.634472 12.0598592,-3.634472 5.1213143,0 5.1213143,-2.808468 0,-1.486829 -0.1652079,-2.80846 0,-4.130093 0.1652079,-7.268958 0.4956104,-8.920998 0,-25.110946 -0.6608156,-23.458909 0.4956104,-42.126914 l -0.4956104,-0.49561 q -5.1213143,0.330405 -19.1636155,-0.165205 -0.660816,0 -10.077418,0.660815 2.312849,15.859543 2.643257,22.6328911 0,0 -0.330408,4.4604961 -0.165202,2.4780545 -4.130091,2.4780545 -3.138867,0 -5.286514,-11.8946597 -0.991221,-7.103753 -1.982441,-14.372712 0,-1.156423 -1.156426,-3.964885 -0.991224,-2.973665 -0.991224,-4.460496 0,-4.130091 6.277738,-5.121312 0.49561,0 1.652036,0.165203 1.156424,0.165205 1.652037,0.165205 h 17.1811735 q 23.7893165,0 23.7893165,0 15.198727,-0.660816 29.406229,-2.643257 0.991228,-0.495611 2.973667,-0.991221 3.469283,-0.330411 5.94733,1.652034 2.478054,1.817239 1.652034,5.286514 z"
       fill="none"
       stroke="#ff4c4c"
       stroke-width="31.2999"
       id="path5" />
    <path
       d="m 56.580417,-38.184159 q -1.321623,5.782125 -1.982438,12.555473 -0.165208,1.817239 0.330402,4.625698 0.495608,3.304073 0.495608,4.625702 0,4.295293 -5.616912,4.295293 -3.634483,0 -4.790909,-2.147647 -0.165208,-3.634478 0.165205,-9.912215 0.330403,-7.434161 0.330403,-9.912216 -0.165195,0 -0.495608,-0.330405 -15.363932,0.660813 -28.910623,1.982442 -0.330413,2.147646 0,5.286514 l 0.660805,5.94733 q -0.660805,5.121311 -0.660805,15.1987322 0.49561,4.2952935 0.49561,36.8404028 v 12.059859 q 0,2.808463 0.826013,3.964889 h 10.242629 q 6.27773,-0.826024 6.27773,5.286511 0,3.634486 -3.469268,5.121315 -2.147657,0.826023 -7.599374,0.330413 Q 19.574812,57.303519 15.114314,57.468726 9.0017812,58.294737 0.24599166,58.790347 -8.6749925,59.285968 -10.657439,56.3123 q -1.321632,-1.982438 0,-4.130096 2.312849,-3.634475 12.0598566,-3.634475 5.1213144,0 5.1213144,-2.808462 0,-1.486829 -0.1652053,-2.808463 0,-4.130093 0.1652053,-7.268958 0.4956103,-8.920998 0,-25.110945 -0.6608156,-23.458912 0.4956103,-42.126917 L 6.523732,-32.071627 q -5.1213144,0.330408 -19.163616,-0.165202 -0.660815,0 -10.077418,0.660813 2.31285,15.859545 2.643257,22.6328906 0,0 -0.330407,4.4604987 -0.165203,2.4780546 -4.130091,2.4780546 -3.138868,0 -5.286514,-11.8946599 -0.991221,-7.103756 -1.982445,-14.372711 0,-1.156426 -1.156423,-3.964886 -0.991223,-2.973665 -0.991223,-4.460499 0,-4.130088 6.277737,-5.121312 0.495611,0 1.652037,0.165206 1.156423,0.165202 1.652033,0.165202 h 17.181177 q 23.789319,0 23.789319,0 15.198725,-0.660813 29.406231,-2.643257 0.991232,-0.49561 2.973668,-0.991221 3.469278,-0.330407 5.947327,1.652037 2.47806,1.817239 1.652036,5.286514 z"
       fill="#ffffff"
       id="path6"
       style="stroke-width:1.10974" />
  </g>
</svg>
