<svg width="64" height="64" version="1.1" viewBox="0 0 16.933 16.933" xmlns="http://www.w3.org/2000/svg" xmlns:xlink="http://www.w3.org/1999/xlink">
 <circle cx="8.4665" cy="8.4665" r="7.1436" fill="#2fb96c" style="paint-order:stroke fill markers"/>
 <circle cx="8.4665" cy="8.4665" r="6.3499" fill="#f2f2f2" stroke-width=".88889" style="paint-order:stroke fill markers"/>
 <path d="m4.7541 3.4395a0.26416 0.26485 0 0 0-0.01912 5.167e-4 7.1436 7.1436 0 0 0-0.2129 0.13436 0.26416 0.26485 0 0 0 0.23202 0.3948 0.26416 0.26485 0 0 0 0-0.52967zm1.0552 0a0.26416 0.26485 0 0 0-0.037206 0.52709 0.26416 0.26485 0 0 0 0.026355 0.00258 0.26416 0.26485 0 0 0 0.010852 0 0.26416 0.26485 0 0 0 0-0.52967zm1.0557 0a0.26416 0.26485 0 0 0-0.037206 0.52709 0.26416 0.26485 0 0 0 0.026354 0.00258 0.26416 0.26485 0 0 0 0.010852 0 0.26416 0.26485 0 0 0 0-0.52967zm1.0557 0a0.26416 0.26485 0 0 0-0.037206 0.52709 0.26416 0.26485 0 0 0 0.025838 0.00258 0.26416 0.26485 0 0 0 0.011369 0 0.26416 0.26485 0 0 0 0-0.52967zm1.0557 0a0.26416 0.26485 0 0 0-0.037723 0.52709 0.26416 0.26485 0 0 0 0.026355 0.00258 0.26416 0.26485 0 0 0 0.011368 0 0.26416 0.26485 0 0 0 0-0.52967zm1.0552 0a0.26416 0.26485 0 0 0-0.037206 0.52709 0.26416 0.26485 0 0 0 0.026354 0.00258 0.26416 0.26485 0 0 0 0.01085 0 0.26416 0.26485 0 0 0 0-0.52967zm1.0557 0a0.26416 0.26485 0 0 0-0.03721 0.52709 0.26416 0.26485 0 0 0 0.02635 0.00258 0.26416 0.26485 0 0 0 0.01085 0 0.26416 0.26485 0 0 0 0-0.52967zm1.0557 0a0.26416 0.26485 0 1 0 0 0.52967 0.26416 0.26485 0 0 0 0.19688-0.43821 7.1436 7.1436 0 0 0-0.13642-0.083714 0.26416 0.26485 0 0 0-0.06046-0.00775z" fill="#d5d3cf" stroke-width=".9997"/>
 <g transform="matrix(.72833 0 0 .72577 2.4856 2.2322)">
  <g transform="scale(1.0245 .9761)" fill="#4d4d4d" stroke-width=".29262" aria-label="A">
   <path d="m5.9631 12.58h-1.5535l-0.24515 0.70189h-0.99865l1.427-3.8527h1.1844l1.427 3.8527h-0.99865zm-1.3057-0.7148h1.0554l-0.52642-1.5328z" stroke-width=".29262"/>
  </g>
  <g transform="scale(.97074 1.0301)" fill="#4d4d4d" stroke-width=".29262" aria-label="ð›€">
   <path d="m12.334 7.5764h0.86188v-0.32256h0.35353v0.79737h-1.8915v-0.49803q0.40256-0.082575 0.60899-0.47481 0.20644-0.39223 0.20644-1.0786 0-0.76124-0.25805-1.1586-0.25805-0.39997-0.7535-0.39997t-0.7535 0.39997q-0.25547 0.39739-0.25547 1.1638 0 0.67351 0.20902 1.0709 0.20902 0.39481 0.60641 0.47739v0.49803h-1.8941v-0.79737h0.35095v0.32256h0.86446q-0.61157-0.2374-0.92639-0.65028-0.31482-0.41546-0.31482-0.98316 0-0.81543 0.57803-1.3135 0.58061-0.50061 1.5354-0.50061t1.5354 0.50061q0.58061 0.49803 0.58061 1.3135 0 0.56771-0.31482 0.98316-0.31482 0.41288-0.92897 0.65028z" stroke-width=".29262"/>
  </g>
  <path d="m6.941 5.8554 0.208 0.63918 1.455-1.6058-2.1143-0.67358 0.12376 0.59121c-2.0852 1.0531-2.3036 1.9759-2.5896 2.9039l1.1253 0.19916c0.26624-1.1261 0.9672-1.7006 1.7919-2.0541zm2.5293 5.324-0.208-0.63918-1.455 1.6058 2.1143 0.67358-0.12376-0.59121c2.0852-1.0531 2.3036-1.9759 2.5896-2.9039l-1.1253-0.19916c-0.26624 1.1261-0.9672 1.7006-1.7919 2.0541z" fill="#33d17a" stroke-width=".9997"/>
 </g>
</svg>
