<svg xmlns="http://www.w3.org/2000/svg" width="64" height="64" image-rendering="optimizeSpeed"><circle cx="32" cy="32" r="27" fill="#f2f2f2" fill-rule="evenodd" style="paint-order:normal"/><path fill="#666" d="M22.323 42c5.863 0 9.761-4.067 9.761-10.155 0-5.89-3.787-9.845-9.453-9.845-5.806 0-9.65 4.067-9.65 10.155 0 5.918 3.731 9.845 9.341 9.845zm.309-3.17c-3.535 0-5.863-2.777-5.863-6.984 0-4.011 2.216-6.648 5.554-6.648 3.618 0 5.975 2.749 5.975 6.956 0 4.012-2.244 6.676-5.667 6.676zm24.039 2.918h4.347l-7.124-10.266 6.367-9.2h-4.18l-4.067 6.367-4.04-6.368h-4.29l6.367 9.34-6.873 10.127h4.18l4.572-7.322z"/></svg>