<svg width="64" height="64" viewBox="0 0 64 64" fill="none" xmlns="http://www.w3.org/2000/svg">
<circle cx="32" cy="32" r="27" fill="#F29100"/>
<path d="M32 59C46.9117 59 59 46.9117 59 32H32V59Z" fill="#C0C0C0"/>
<path fill-rule="evenodd" clip-rule="evenodd" d="M33 5H31V31H5V33H31V59H33V33H59V31H33V5Z" fill="#FCFCFC"/>
<path fill-rule="evenodd" clip-rule="evenodd" d="M20 20V17H23V20H26V23H23V26H20V23H17V20H20ZM47 23H38V20H47V23ZM38 41.5H47V38.5H38V41.5ZM47 46.5H38V43.5H47V46.5ZM17.1213 40.2426L19.2426 42.364L17.1213 44.4853L19.2426 46.6066L21.364 44.4853L23.4853 46.6066L25.6066 44.4853L23.4853 42.364L25.6066 40.2426L23.4853 38.1213L21.364 40.2426L19.2426 38.1213L17.1213 40.2426Z" fill="#545454"/>
</svg>
