<svg xmlns="http://www.w3.org/2000/svg" width="64" height="64"><circle cx="32" cy="32" r="27" fill="#006442"/><path fill="#fff" d="M32 5c-1.533 0-3.037.128-4.5.373V18.5l9 9H50V23H38.75L32 16.25zm5.625.586V14L41 17.375h3.197a10.1 10.1 0 0 1 6.365-2.25c.983 0 1.932.14 2.83.4a27 27 0 0 0-15.767-9.94zM23 6.537q-1.15.406-2.25.91v13.865l9 9v15.75l-9 6.75v3.74q1.1.505 2.25.91v-3.525l9-6.75v-18l-9-9zm-4.5 2.074a27 27 0 0 0-2.25 1.455v13.496l9 9v11.25l-9 6.75v3.372a27 27 0 0 0 2.25 1.455v-3.702l9-6.75v-13.5l-9-9zM14 11.875a27 27 0 0 0-2.25 2.266v11.672l9 9v6.75l-9 6.75v1.547A27 27 0 0 0 14 52.125v-2.687l9-6.75v-9l-9-9zM36.5 32l-1.125 1.125V47.75l-9 6.75v3.914A27 27 0 0 0 32 59c3.156 0 6.185-.542 9-1.537V54.5a2.25 2.25 0 0 1 2.25-2.25h6.61a27 27 0 0 0 3.218-3.375h-1.953v-4.5h4.879A26.9 26.9 0 0 0 59 32h-.89c-1.855 2.071-4.549 3.375-7.547 3.375S44.87 34.071 43.016 32zM5.209 35.375c.193 1.544.515 3.048.957 4.5h6.709v-4.5zM43 37.625h3.625v4.5H41v-2.5a2 2 0 0 1 2-2m8.125 0h3.625a2 2 0 0 1 2 2v2.5h-5.625zM41 44.375h5.625v4.5H43a2 2 0 0 1-2-2z" opacity=".35"/><path fill="#ffd42a" fill-rule="evenodd" d="M45.25 39.875a2 2 0 0 0-2 2v2.75a2 2 0 0 0 2 2h7.25a2 2 0 0 0 2-2v-2.75a2 2 0 0 0-2-2zM45.5 54.5h1.43a27 27 0 0 1-3.671 2.048A2.25 2.25 0 0 1 45.5 54.5m5.062-24.75a4.5 4.5 0 1 0 0-9 4.5 4.5 0 0 0 0 9M12.874 42.125a4.5 4.5 0 1 0 0-9 4.5 4.5 0 0 0 0 9" clip-rule="evenodd"/><path fill="#fff" fill-rule="evenodd" d="M50.562 26.938a1.687 1.687 0 1 0 0-3.375 1.687 1.687 0 0 0 0 3.375M12.874 39.313a1.687 1.687 0 1 0 0-3.375 1.687 1.687 0 0 0 0 3.375" clip-rule="evenodd"/><path fill="#fff" fill-rule="evenodd" d="M50.562 26.938a1.687 1.687 0 1 0 0-3.375 1.687 1.687 0 0 0 0 3.375M12.874 39.313a1.687 1.687 0 1 0 0-3.375 1.687 1.687 0 0 0 0 3.375" clip-rule="evenodd"/></svg>