<svg width="64" height="64" version="1.1" xmlns="http://www.w3.org/2000/svg">
 <path d="m32 5a27 27 0 0 0-27 27 27 27 0 0 0 0.85156 6.6445 33.56 33.56 0 0 1 2.25-0.3418c0.103-4.502 3.7888-8.0995 8.2988-8.1035 7e-3 2e-3 0.013531 0.001953 0.019531 0.001953 0.072-6.493 5.3632-11.719 11.867-11.721a11.887 11.887 0 0 1 4.541 0.90625c2.301-1.553 5.014-2.3847 7.791-2.3887v-0.001953c7.704 1e-3 13.951 6.2396 13.951 13.932a13.906 13.906 0 0 1-1.1602 5.5215 36.567 36.567 0 0 1 4.7715 2.0273 27 27 0 0 0 0.81836-6.4766 27 27 0 0 0-27-27zm26.129 33.742a27 27 0 0 1-0.98242 2.998 27 27 0 0 0 0.98242-2.998zm-52.248 0.052734a27 27 0 0 0 1.1934 3.5781 27 27 0 0 1-1.1934-3.5781zm51.07 3.5195a27 27 0 0 1-1.6719 3.3418 27 27 0 0 0 1.6719-3.3418zm-49.674 0.46875a27 27 0 0 0 1.5 2.957 27 27 0 0 1-1.5-2.957zm47.285 3.9434a27 27 0 0 1-1.4277 2.0371 27 27 0 0 0 1.4277-2.0371zm-45.111 0.021485a27 27 0 0 0 1.4746 2.084 27 27 0 0 1-1.4746-2.084zm42.688 3.1504a27 27 0 0 1-1.5605 1.6445 27 27 0 0 0 1.5605-1.6445zm-40.266 0.013671a27 27 0 0 0 1.6094 1.6836 27 27 0 0 1-1.6094-1.6836zm37.516 2.6738a27 27 0 0 1-1.7363 1.3594 27 27 0 0 0 1.7363-1.3594zm-34.76 0.015624a27 27 0 0 0 1.7832 1.3848 27 27 0 0 1-1.7832-1.3848zm31.688 2.2344a27 27 0 0 1-1.918 1.0898 27 27 0 0 0 1.918-1.0898zm-28.623 0.007812a27 27 0 0 0 1.9629 1.1094 27 27 0 0 1-1.9629-1.1094zm25.291 1.7793a27 27 0 0 1-2.125 0.82226 27 27 0 0 0 2.125-0.82226zm-21.953 0.007812a27 27 0 0 0 2.1543 0.83008 27 27 0 0 1-2.1543-0.83008zm18.406 1.2969a27 27 0 0 1-2.4414 0.54883 27 27 0 0 0 2.4414-0.54883zm-14.863 0.003907a27 27 0 0 0 2.4824 0.55469 27 27 0 0 1-2.4824-0.55469zm3.6699 0.79102a27 27 0 0 0 3.7559 0.27734 27 27 0 0 1-3.7559-0.27734zm3.7559 0.27734a27 27 0 0 0 3.7598-0.27734 27 27 0 0 1-3.7598 0.27734z" fill="#03c7dd"/>
 <path d="m21.5 15.402.002.002A12.313 12.313 0 0 0 9.205 27.357a12.313 12.313 0 0 0-4.111 2.398A27 27 0 0 0 5 32a27 27 0 0 0 .832 6.647 33.56 33.56 0 0 1 2.27-.344c.103-4.502 3.788-8.098 8.298-8.101.007 0 .013 0 .02.002.072-6.494 5.363-11.721 11.867-11.723.486 0 .968.041 1.449.101a12.313 12.313 0 0 0-8.236-3.18zm32.883 13.354c.112.71.187 1.431.188 2.172-.006 1.9-.4 3.78-1.16 5.523a36.56 36.56 0 0 1 4.798 2.043A27 27 0 0 0 59 32a27 27 0 0 0-.074-1.99 8.975 8.975 0 0 0-4.543-1.254z" fill="#fff" opacity=".35"/>
 <path d="M40.619 16.998c-2.777.004-5.49.836-7.791 2.389a11.887 11.887 0 0 0-4.541-.907c-6.504.002-11.795 5.228-11.867 11.721-.006 0-.013 0-.02-.002-4.51.004-8.195 3.602-8.298 8.104a33.56 33.56 0 0 0-2.27.344A27 27 0 0 0 32 59a27 27 0 0 0 26.21-20.508v-.002a36.567 36.567 0 0 0-4.8-2.041 13.906 13.906 0 0 0 1.16-5.522c0-7.692-6.246-13.929-13.95-13.93z" fill="#f9f9f9"/>
 <path d="M31.999 23.672c-8.192 0-14.856 6.664-14.856 14.856s6.664 14.856 14.856 14.856 14.856-6.664 14.856-14.856-6.664-14.856-14.856-14.856zm0 2.475c6.827 0 12.381 5.555 12.381 12.382s-5.555 12.38-12.381 12.38-12.381-5.554-12.381-12.38 5.554-12.382 12.381-12.382zM27.667 31.1a1.857 1.857 0 0 0-1.858 1.857v12.381a1.857 1.857 0 1 0 3.715 0v-3.095h4.332c3.072 0 5.571-2.5 5.571-5.572s-2.5-5.57-5.57-5.57zm1.857 3.714h4.332c1.024 0 1.857.834 1.857 1.857s-.833 1.858-1.857 1.858h-4.332z" fill="#00bcd4"/>
</svg>
