<svg width="64" height="64" xmlns="http://www.w3.org/2000/svg"><circle cx="32" cy="32" r="27" fill="#03c7dd"/><path d="m21.5 15.402.002.002A12.313 12.313 0 0 0 9.205 27.357a12.313 12.313 0 0 0-4.111 2.398A27 27 0 0 0 5 32a27 27 0 0 0 .832 6.647 33.56 33.56 0 0 1 2.27-.344c.103-4.502 3.788-8.098 8.298-8.101.007 0 .013 0 .02.002.072-6.494 5.363-11.721 11.867-11.723.486 0 .968.041 1.449.101a12.313 12.313 0 0 0-8.236-3.18zm32.883 13.354c.112.71.187 1.431.188 2.172-.006 1.9-.4 3.78-1.16 5.523a36.56 36.56 0 0 1 4.798 2.043A27 27 0 0 0 59 32a27 27 0 0 0-.074-1.99 8.975 8.975 0 0 0-4.543-1.254z" fill="#fff" opacity=".35"/><path d="M40.619 16.998c-2.777.004-5.49.836-7.791 2.389a11.887 11.887 0 0 0-4.541-.907c-6.504.002-11.795 5.228-11.867 11.721-.006 0-.013 0-.02-.002-4.51.004-8.195 3.602-8.298 8.104a33.56 33.56 0 0 0-2.27.344A27 27 0 0 0 32 59a27 27 0 0 0 26.21-20.508v-.002a36.567 36.567 0 0 0-4.8-2.041 13.906 13.906 0 0 0 1.16-5.522c0-7.692-6.246-13.929-13.95-13.93z" fill="#fff"/><path d="M31.999 23.672c-8.192 0-14.856 6.664-14.856 14.856s6.664 14.856 14.856 14.856 14.856-6.664 14.856-14.856-6.664-14.856-14.856-14.856zm0 2.475c6.827 0 12.381 5.555 12.381 12.382s-5.555 12.38-12.381 12.38-12.381-5.554-12.381-12.38 5.554-12.382 12.381-12.382zM27.667 31.1a1.857 1.857 0 0 0-1.858 1.857v12.381a1.857 1.857 0 1 0 3.715 0v-3.095h4.332c3.072 0 5.571-2.5 5.571-5.572s-2.5-5.57-5.57-5.57zm1.857 3.714h4.332c1.024 0 1.857.834 1.857 1.857s-.833 1.858-1.857 1.858h-4.332z" fill="#00bcd4"/></svg>