<svg width="64" height="64" version="1.1" xmlns="http://www.w3.org/2000/svg">
 <circle cx="32" cy="32" r="27" fill="#03c7dd" stroke-width="2.689"/>
 <path d="m21.5 15.402 0.001953 0.001953a12.313 12.313 0 0 0-12.297 11.953 12.313 12.313 0 0 0-4.1113 2.3984 27 27 0 0 0-0.09375 2.2441 27 27 0 0 0 0.83203 6.6465c0.75241-0.13632 1.5086-0.25909 2.2695-0.34375 0.10336-4.5023 3.7881-8.0979 8.2988-8.1016 0.0063 6.84e-4 0.013181 0.001253 0.019531 0.001953 0.07239-6.4931 5.3635-11.721 11.867-11.723 0.4866 4.89e-4 0.96827 0.041887 1.4492 0.10156a12.313 12.313 0 0 0-8.2363-3.1797zm32.883 13.354c0.1116 0.70946 0.18744 1.4311 0.1875 2.1719-0.0054 1.9007-0.40007 3.7809-1.1602 5.5234 1.6489 0.56271 3.2488 1.2525 4.7988 2.043a27 27 0 0 0 0.79102-6.4941 27 27 0 0 0-0.074219-1.9902 8.9748 8.9748 0 0 0-4.543-1.2539z" fill="#ffffff" opacity=".35"/>
 <path d="m40.619 16.998c-2.7773 0.0045-5.49 0.83582-7.791 2.3887-1.4396-0.59688-2.9823-0.90468-4.541-0.90625-6.5042 0.0018-11.795 5.2277-11.867 11.721-0.0063-6.59e-4 -0.013161-0.001253-0.019531-0.001953-4.5109 0.0036-8.1955 3.6012-8.2988 8.1035-0.76094 0.08466-1.5171 0.20744-2.2695 0.34375a27 27 0 0 0 26.168 20.354 27 27 0 0 0 26.209-20.508c-2.69e-4 -1.38e-4 2.7e-4 -0.001816 0-0.001954-1.5497-0.79026-3.1502-1.4784-4.7988-2.041 0.76009-1.7426 1.1548-3.6209 1.1602-5.5215-5.39e-4 -7.6926-6.2464-13.929-13.951-13.93z" fill="#ffffff"/>
 <path d="m31.999 23.672c-8.1921 0-14.856 6.6643-14.856 14.856s6.6643 14.856 14.856 14.856 14.856-6.6643 14.856-14.856-6.6643-14.856-14.856-14.856zm0 2.4755c6.8266 0 12.381 5.5545 12.381 12.381s-5.5545 12.381-12.381 12.381-12.381-5.5545-12.381-12.381 5.5545-12.381 12.381-12.381zm-4.3325 4.9528c-1.0263 0-1.8571 0.83196-1.8571 1.8571v12.381c0 1.0251 0.83073 1.8571 1.8571 1.8571 1.0263 0 1.8571-0.83196 1.8571-1.8571v-3.0957h4.3325c3.0716 0 5.5712-2.4996 5.5712-5.5712s-2.4996-5.5712-5.5712-5.5712zm1.8571 3.7141h4.3325c1.0239 0 1.8571 0.8332 1.8571 1.8571s-0.8332 1.8571-1.8571 1.8571h-4.3325z" fill="#00bcd4" stroke-width=".49521"/>
</svg>
