<?xml version="1.0" encoding="UTF-8" standalone="no"?>
<svg
   width="64"
   height="64"
   version="1.1"
   id="svg2"
   sodipodi:docname="perplexity.svg"
   xml:space="preserve"
   inkscape:version="1.4.2 (ebf0e940d0, 2025-05-08)"
   xmlns:inkscape="http://www.inkscape.org/namespaces/inkscape"
   xmlns:sodipodi="http://sodipodi.sourceforge.net/DTD/sodipodi-0.dtd"
   xmlns="http://www.w3.org/2000/svg"
   xmlns:svg="http://www.w3.org/2000/svg"><defs
     id="defs2" /><sodipodi:namedview
     id="namedview2"
     pagecolor="#ffffff"
     bordercolor="#000000"
     borderopacity="0.25"
     inkscape:showpageshadow="2"
     inkscape:pageopacity="0.0"
     inkscape:pagecheckerboard="0"
     inkscape:deskcolor="#d1d1d1"
     inkscape:zoom="7.1093752"
     inkscape:cx="-24.052747"
     inkscape:cy="19.762637"
     inkscape:window-width="2752"
     inkscape:window-height="1083"
     inkscape:window-x="0"
     inkscape:window-y="0"
     inkscape:window-maximized="1"
     inkscape:current-layer="svg2" /><circle
     cx="32"
     cy="32"
     r="27"
     fill="#3de365"
     id="circle1"
     style="fill:#44475a;fill-opacity:1" /><circle
     cx="32.035"
     cy="32.067"
     r="30.001"
     fill="none"
     id="circle2" /><path
     fill-rule="evenodd"
     clip-rule="evenodd"
     d="m 22.132794,16.251059 8.969117,8.263704 v -0.0016 -8.242744 h 1.745939 v 8.281621 l 9.009286,-8.300732 v 9.421852 h 3.698911 v 13.590135 h -3.687546 v 8.389693 L 32.84785,39.727687 v 8.016306 h -1.745939 v -7.885864 l -8.958954,7.890812 V 39.263048 H 18.443953 V 25.672911 h 3.688841 z m 7.652884,11.146462 h -9.595799 v 10.140914 h 1.950889 V 34.339607 Z M 23.8888,35.104827 v 8.795783 l 7.213111,-6.353102 v -8.994237 z m 9.009289,2.358654 V 28.5448 l 7.215204,6.551953 v 4.166294 h 0.0092 V 43.8108 Z m 8.970412,0.07495 h 1.941603 v -10.14091 h -9.524315 l 7.582712,6.870223 z m -1.757302,-11.86552 v -5.454883 l -5.920603,5.454883 z m -10.311964,0 h -5.920503 v -5.454883 z"
     fill="#000000"
     id="path1-5"
     style="fill:#ffffff;fill-opacity:1;stroke-width:0.0996765" /></svg>
