<svg xmlns="http://www.w3.org/2000/svg" width="64" height="64"><circle cx="32" cy="32" r="27" fill="#f3d4d7"/><path fill="#f68048" d="M32.5 10.842V53.16a4.8 4.8 0 0 0 1.91-.613l14.18-8.188A4.82 4.82 0 0 0 51 40.187V23.812a4.82 4.82 0 0 0-2.41-4.174l-14.18-8.187a4.8 4.8 0 0 0-1.91-.61zm-1 .162c-.57.37-1.035 1.17-1.61 1.502l-12.827 9.168c-1.492.861-1.735 1.321-1.735 3.043l-.451 15.47c0 1.722.019 2.331 1.51 3.192l13.203 8.64c.596.345 1.247.872 1.91 1.08V11.005z"/><path fill="#8d259c" d="M31.5 10.877a4.8 4.8 0 0 0-1.91.574L15.41 19.64A4.82 4.82 0 0 0 13 23.813v16.375a4.82 4.82 0 0 0 2.41 4.172l14.18 8.187a4.8 4.8 0 0 0 1.91.576z"/><path fill="#b66bc2" d="m25.456 22.993-5.043 2.468-2.736 14.93 4.818-1.24 4.056 2.916 2.737-14.93zm-.999 5.272a1.584 1.584 0 0 1-1.25-1.85 1.564 1.564 0 0 1 1.822-1.269c.848.16 1.408.989 1.25 1.85a1.564 1.564 0 0 1-1.822 1.269"/><path fill="#fff" d="M39.738 18.933a1.69 1.69 0 0 0-1.68 1.735v.002c.006.16.035.321.084.474v.002q.076.231.217.434a3.3 3.3 0 0 1-.39.377l-.002.002a3.5 3.5 0 0 1-.408.285l-.002.004c-.829.492-1.674.666-1.928.662-.76-.332-1.716-.5-2.358-.582a21 21 0 0 0-.77-.076v1.09c.396.052.81.114 1.286.189.407.092 1.06.23 1.498.43l.004.004q.355.16.682.36.324.205.619.448c.395.325.822 1.09 1.135 1.52a1.7 1.7 0 0 0-.342.773v.002a1.7 1.7 0 0 0-.022.322v.004a1.7 1.7 0 0 0 .143.627 1.68 1.68 0 0 0 1.535 1.008 1.676 1.676 0 0 0 1.66-1.41 1.7 1.7 0 0 0-.119-.955 1.68 1.68 0 0 0-.941-.897 1.7 1.7 0 0 0-.32-.082h-.005a1.7 1.7 0 0 0-.658.024c-.422-.594-.984-1.497-1.539-1.924.172-.053.352-.267.533-.348.09-.04.182-.096.274-.144.092-.049.183-.087.275-.145a4.4 4.4 0 0 0 1.05-.916 1.7 1.7 0 0 0 .911.022 1.67 1.67 0 0 0 1.146-1.027 1.68 1.68 0 0 0-.195-1.577 1.7 1.7 0 0 0-.476-.455 1.7 1.7 0 0 0-.43-.195h-.002a1.7 1.7 0 0 0-.465-.067m0 1.104a.585.585 0 0 1 .567.457v.006a.57.57 0 0 1-.438.683.58.58 0 0 1-.44-.072l-.025-.018a.576.576 0 0 1-.152-.785.57.57 0 0 1 .488-.27zm-9.455 2.101a23 23 0 0 0-1.102.01c-1.361.084-2.877.696-4.117 2.729a2.077 2.077 0 0 0-2.402 1.67 2.08 2.08 0 0 0 2.043 2.466c.999 0 1.858-.715 2.04-1.703a2.09 2.09 0 0 0-.685-1.955c.969-1.53 2.1-2.024 3.168-2.101.912-.07 1.604-.069 2.274-.02v-1.05a32 32 0 0 0-1.22-.046zm15.1.336c-.58 0-1.11.294-1.418.785a1.68 1.68 0 0 0 .28 2.137c.007.004.014.014.02.018-.37 1.244-.818 3.366-.513 4.494q-.062.052-.117.111a1.7 1.7 0 0 0-.37.662c-.925.135-1.208.361-1.654.653-.558.364-1.087.706-2.644.732-.54-.063-1.61-.048-2.086-.031a14 14 0 0 1-1.33.002c-.367-.02-.578-.244-.95-.668-.432-.495-1.014-1.105-2.1-1.319v1.133c.582.172.934.525 1.274.914.408.467.872.995 1.717 1.041.581.032 1.032.016 1.43 0 .683-.023 1.855-.043 2.789.19.715.177 3.1 2.737 3.834 4.017a1.686 1.686 0 0 0 .36 2.393c.019.016.04.028.075.053a1.675 1.675 0 0 0 2.317-.524c.24-.378.32-.83.222-1.27a1.68 1.68 0 0 0-2.064-1.263c-.703-1.153-2.155-2.954-3.4-3.873.497-.173.837-.396 1.156-.604.392-.255.5-.365 1.115-.468.117.285.311.54.578.73.02.016.042.028.078.053a1.67 1.67 0 0 0 2.316-.523c.24-.38.319-.831.221-1.27a1.68 1.68 0 0 0-1.638-1.319q-.053.001-.104.004c-.195-.87.25-2.663.512-3.627q.046.006.094.008c.58 0 1.112-.292 1.42-.783.24-.379.318-.83.22-1.27a1.68 1.68 0 0 0-1.64-1.318m0 1.104a.58.58 0 0 1 .566.457.57.57 0 0 1-.076.435.59.59 0 0 1-.8.18l-.026-.016a.58.58 0 0 1-.153-.785.57.57 0 0 1 .489-.271M24.72 25.92c.037-.007.117.032.162.04.53.1.881.614.783 1.147a.99.99 0 0 1-1.142.787.98.98 0 0 1-.784-1.144.98.98 0 0 1 .961-.807q.001-.021.02-.023m14.32.841c.11 0 .22.03.31.088a.6.6 0 0 1 .256.365.585.585 0 0 1-.568.711.58.58 0 0 1-.57-.68.6.6 0 0 1 .08-.216.6.6 0 0 1 .185-.18.6.6 0 0 1 .307-.088m5.84 3.805a.58.58 0 0 1 .488.89.586.586 0 0 1-.799.18l-.025-.015a.581.581 0 0 1 .336-1.055m-7.262 4.367a1.687 1.687 0 0 0-.996 3.045c-1.112 2.54-2.873 3.969-3.79 4.41a.5.5 0 0 0-.099.047c-.087.04-.155.058-.232.084v1.155c.193-.048.423-.118.695-.243 1.468-.373 1.877-.097 2.307.196.28.19.629.429 1.17.457h.086c.579 0 2.694-.67 3.201-.863a1.673 1.673 0 0 0 2.268.074c.34-.293.547-.702.582-1.15a1.68 1.68 0 0 0-.4-1.227 1.675 1.675 0 0 0-2.37-.182c-.442.38-.638.944-.572 1.486-.535.193-2.443.77-2.736.76-.226-.012-.357-.097-.61-.27-.322-.218-.244-.417-.719-.51.806-.76 1.57-2.245 2.276-3.9a1.68 1.68 0 0 0 1.383-.818 1.694 1.694 0 0 0-.582-2.312 1.7 1.7 0 0 0-.862-.239m0 1.106a.583.583 0 0 1 0 1.164.57.57 0 0 1-.297-.084.584.584 0 0 1 .297-1.08m7.262 1.748a.58.58 0 0 1 .488.89.59.59 0 0 1-.8.18l-.026-.015a.58.58 0 0 1 .338-1.055m-3.746 3.646a.58.58 0 0 1 .44.203.582.582 0 0 1-.88.758.584.584 0 0 1 .44-.96z"/></svg>