<svg width="64" height="64" version="1.1" viewBox="0 0 64 64" xmlns="http://www.w3.org/2000/svg">
 <g transform="matrix(1.1304 0 0 1.1304 4.8696 4.8696)">
  <path d="m24 1c12.703 0 23 10.297 23 23s-10.297 23-23 23-23-10.297-23-23 10.297-23 23-23z" fill="#6172a7"/>
  <path d="m22.785 25.05 2.449 2.285c4.336-4.25 10.719-14.43 10.719-14.43 0.258-0.734-0.652-1.199-1.113-0.703 0 0-8.25 8.484-12.05 12.848" fill="#f39c2d"/>
  <path d="m18.199 31.21 1.355 1.164 5.117-4.434 0.168-0.426 0.66-0.012c-0.266-0.941-1.773-2.645-2.902-2.645l0.047 0.656-0.402 0.23-4.04 5.457" fill="#ffffff"/>
  <path d="m12 35.969c3.98 0 7 0.477 7.574-2.418 0.461-2.332-2.746-3.449-4.34-1.367-1.531 2-3.234 3.781-3.234 3.781" fill="#333333"/>
 </g>
</svg>
