<svg xmlns="http://www.w3.org/2000/svg" width="64" height="64"><path fill="#6172a7" d="M32 6c14.359 0 25.998 11.64 25.998 26S46.358 57.997 32 57.997 6 46.358 6 32 17.64 6 32 6"/><path fill="#f39c2d" d="m30.626 33.186 2.768 2.583c4.902-4.804 12.117-16.312 12.117-16.312.292-.83-.737-1.355-1.258-.794 0 0-9.326 9.59-13.622 14.523"/><path fill="#fff" d="m25.442 40.15 1.531 1.315 5.785-5.012.19-.482.746-.013c-.301-1.064-2.005-2.99-3.28-2.99l.052.741-.454.26-4.567 6.17"/><path fill="#333" d="M18.434 45.529c4.5 0 7.913.54 8.562-2.733.521-2.636-3.104-3.9-4.906-1.546a59 59 0 0 1-3.656 4.274"/></svg>