<svg width="64" height="64" xmlns="http://www.w3.org/2000/svg"><g transform="matrix(1.35 0 0 1.35 -.4 -22)" stroke-width=".741"><circle cx="24" cy="40" r="20" fill="#cbd2d5"/><circle transform="scale(1 -1)" cx="24" cy="-40" r="14" fill="#a4b0b6"/><path d="M24.001 46.998a1 1 0 0 1-1-1 1 1 0 0 1 1-1 1 1 0 0 1 1 1 1 1 0 0 1-1 1m-4.229-1.758a1 1 0 0 1-.72-.293 1 1 0 0 1 0-1.414 1 1 0 0 1 1.414 0 1 1 0 0 1 0 1.414 1 1 0 0 1-.693.293m8.457 0a1 1 0 0 1-.694-.293 1 1 0 0 1 0-1.414 1 1 0 0 1 1.414 0 1 1 0 0 1 0 1.414 1 1 0 0 1-.72.293M24 41.998a2 2 0 0 1-2-2 2 2 0 0 1 2-2 2 2 0 0 1 2 2 2 2 0 0 1-2 2m-6-1a1 1 0 0 1-1-1 1 1 0 0 1 1-1 1 1 0 0 1 1 1 1 1 0 0 1-1 1m12 0a1 1 0 0 1-1-1 1 1 0 0 1 1-1 1 1 0 0 1 1 1 1 1 0 0 1-1 1m-10.258-4.242a1 1 0 0 1-.691-.293 1 1 0 0 1 0-1.414 1 1 0 0 1 1.414 0 1 1 0 0 1 0 1.414 1 1 0 0 1-.723.293m8.516 0a1 1 0 0 1-.723-.293 1 1 0 0 1 0-1.414 1 1 0 0 1 1.414 0 1 1 0 0 1 0 1.414 1 1 0 0 1-.691.293M24 34.998a1 1 0 0 1-1-1 1 1 0 0 1 1-1 1 1 0 0 1 1 1 1 1 0 0 1-1 1" fill="#303334"/></g></svg>