<svg width="64" height="64" viewBox="0 0 16.933 16.933" xmlns="http://www.w3.org/2000/svg"><defs><linearGradient id="a" x1="10.583" x2="10.583" y1="283.51" y2="294.62" gradientTransform="translate(2.267 -187.51) scale(.6792)" gradientUnits="userSpaceOnUse"><stop stop-color="#69e17c" offset="0"/><stop stop-color="#5eda82" offset="1"/></linearGradient></defs><circle cx="8.466" cy="8.466" r="7.144" fill="#e6e6e6" style="paint-order:stroke fill markers"/><g stroke-width=".679"><path d="M7.658 3.967A3.774 3.774 0 0 0 3.884 7.74v3.774h3.774a3.774 3.774 0 0 0 3.774-3.774 3.774 3.774 0 0 0-3.774-3.774z" fill="#fff" style="paint-order:stroke markers fill"/><path d="M9.455 5.047A3.774 3.774 0 0 1 13.23 8.82v3.774H9.455A3.774 3.774 0 0 1 5.681 8.82a3.774 3.774 0 0 1 3.774-3.774z" fill="url(#a)" opacity=".65" style="paint-order:stroke markers fill"/><rect x="8.017" y="8.28" width="3.234" height=".359" ry=".18" fill="#fff" style="paint-order:stroke markers fill"/><rect x="8.017" y="9.36" width="2.696" height=".359" ry=".18" fill="#fff" style="paint-order:stroke markers fill"/></g></svg>