<?xml version="1.0" encoding="UTF-8"?>
<svg width="64" height="64" version="1.1" viewBox="0 0 16.933 16.933" xmlns="http://www.w3.org/2000/svg" xmlns:cc="http://creativecommons.org/ns#" xmlns:dc="http://purl.org/dc/elements/1.1/" xmlns:rdf="http://www.w3.org/1999/02/22-rdf-syntax-ns#">
 <metadata>
  <rdf:RDF>
   <cc:Work rdf:about="">
    <dc:format>image/svg+xml</dc:format>
    <dc:type rdf:resource="http://purl.org/dc/dcmitype/StillImage"/>
   </cc:Work>
  </rdf:RDF>
 </metadata>
 <defs>
  <linearGradient id="c" x1="10.583" x2="10.583" y1="283.51" y2="294.62" gradientTransform="matrix(.6792 0 0 .6792 2.2666 -187.51)" gradientUnits="userSpaceOnUse">
   <stop stop-color="#69e17c" offset="0"/>
   <stop stop-color="#5eda82" offset="1"/>
  </linearGradient>
 </defs>
 <circle cx="8.4665" cy="8.4665" r="7.1436" fill="#e6e6e6" style="paint-order:stroke fill markers"/>
 <g stroke-width=".6792">
  <path d="m7.6581 3.9667a3.7736 3.7736 0 0 0-3.7743 3.7743v3.7736h3.7743a3.7736 3.7736 0 0 0 3.7736-3.7736 3.7736 3.7736 0 0 0-3.7736-3.7743z" fill="#fff" style="paint-order:stroke markers fill"/>
  <path d="m9.4553 5.0466a3.7736 3.7736 0 0 1 3.7736 3.7743v3.7736h-3.7736a3.7736 3.7736 0 0 1-3.7743-3.7736 3.7736 3.7736 0 0 1 3.7743-3.7736z" fill="url(#c)" opacity=".65" style="paint-order:stroke markers fill"/>
  <rect x="8.0174" y="8.2796" width="3.2344" height=".3593" ry=".17999" fill="#fff" style="paint-order:stroke markers fill"/>
  <rect x="8.0174" y="9.3595" width="2.6957" height=".3593" ry=".17999" fill="#fff" style="paint-order:stroke markers fill"/>
 </g>
</svg>
