<?xml version="1.0" encoding="UTF-8" standalone="no"?>
<svg
   width="64"
   height="64"
   viewBox="0 0 16.934 16.934"
   version="1.1"
   id="svg6"
   sodipodi:docname="portal.svg"
   inkscape:version="1.1.2 (0a00cf5339, 2022-02-04)"
   xmlns:inkscape="http://www.inkscape.org/namespaces/inkscape"
   xmlns:sodipodi="http://sodipodi.sourceforge.net/DTD/sodipodi-0.dtd"
   xmlns="http://www.w3.org/2000/svg"
   xmlns:svg="http://www.w3.org/2000/svg">
  <defs
     id="defs10" />
  <sodipodi:namedview
     id="namedview8"
     pagecolor="#505050"
     bordercolor="#ffffff"
     borderopacity="1"
     inkscape:pageshadow="0"
     inkscape:pageopacity="0"
     inkscape:pagecheckerboard="1"
     showgrid="false"
     inkscape:zoom="7.9107571"
     inkscape:cx="24.144339"
     inkscape:cy="38.555096"
     inkscape:window-width="1920"
     inkscape:window-height="1000"
     inkscape:window-x="0"
     inkscape:window-y="44"
     inkscape:window-maximized="1"
     inkscape:current-layer="svg6" />
  <circle
     cx="8.467"
     cy="8.467"
     r="7.144"
     fill="#333"
     style="paint-order:markers stroke fill"
     id="circle2" />
  <path
     style="fill:#3893d4;stroke-width:0.0135848;fill-opacity:1"
     d="m 7.9242217,13.870329 c -0.5041653,-0.0499 -1.0002337,-0.161561 -1.3281165,-0.298931 -0.079562,-0.03333 -0.1464615,-0.0624 -0.1486647,-0.06462 -0.00217,-0.0022 -0.0288,-0.144251 -0.059106,-0.315659 -0.030307,-0.17141 -0.07597,-0.424747 -0.1014784,-0.562972 -0.1574831,-0.853329 -0.3283056,-1.870476 -0.3161709,-1.882611 0.00637,-0.0064 0.9786452,0.644155 2.1022452,1.406709 1.0286591,0.69812 1.2285994,0.833273 1.6980927,1.147851 0.4708129,0.315464 0.4419169,0.294248 0.4185689,0.307314 -0.04512,0.02526 -0.357858,0.126184 -0.4837338,0.156116 -0.1875965,0.04461 -0.5160868,0.09684 -0.7159578,0.113853 -0.2236769,0.01903 -0.8436105,0.01492 -1.0656789,-0.007 z M 10.395621,13.330574 C 10.078473,13.126995 9.9328482,13.026691 9.3528625,12.612335 9.0508469,12.396568 8.7508749,12.18882 8.6862586,12.150675 8.5286887,12.057659 8.4612834,12.011204 8.3683989,11.931635 c -0.068723,-0.05887 -0.098614,-0.105051 -0.067923,-0.104943 0.018007,6.8e-5 0.9202163,-0.167712 1.5792257,-0.293674 0.7650034,-0.146221 2.1716864,-0.421793 3.1214664,-0.6115 0.173919,-0.03474 0.320468,-0.05891 0.325662,-0.05371 0.01077,0.01077 -0.06819,0.162892 -0.197986,0.381504 -0.346901,0.584271 -0.770421,1.06681 -1.30135,1.482697 -0.161745,0.126697 -0.5048,0.357379 -0.680306,0.457459 -0.154763,0.08826 -0.514148,0.267364 -0.536459,0.267364 -0.01014,0 -0.106933,-0.05682 -0.215108,-0.126249 z M 5.8549087,13.215169 C 5.3935497,12.979185 5.0327217,12.713807 4.6420978,12.323183 4.308688,11.989773 4.0383157,11.642232 3.7802452,11.215341 3.6976745,11.078755 3.4948731,10.701994 3.4948731,10.685181 c 0,-0.01495 0.4266357,-0.654768 0.7878466,-1.1815158 0.299215,-0.436341 0.5980214,-0.883401 0.7567249,-1.132177 0.018313,-0.0287 0.036557,-0.04892 0.040549,-0.04493 0.020152,0.02016 0.2762116,1.260414 0.4912296,2.3793608 0.1898168,0.987795 0.2281622,1.185555 0.3016043,1.555451 0.085049,0.42835 0.1945253,0.960862 0.2101616,1.022252 0.00618,0.02435 0.00414,0.03735 -0.00584,0.03735 -0.00844,0 -0.1084553,-0.04762 -0.222225,-0.105801 z m 4.8451133,-2.195963 c -0.0054,-0.01374 0.01004,-0.04277 0.04173,-0.07919 0.02754,-0.03162 0.185997,-0.262286 0.35215,-0.512585 0.268515,-0.4045 0.45897,-0.6808838 0.87059,-1.2633798 0.700394,-0.99115 1.294196,-1.856309 1.52196,-2.217469 0.05978,-0.09478 0.112453,-0.17258 0.117071,-0.172887 0.0173,-0.0012 0.111977,0.271644 0.162452,0.468115 0.09756,0.379739 0.128203,0.665585 0.126704,1.181873 -0.0022,0.744198 -0.113199,1.402861 -0.333648,1.9791508 l -0.03996,0.104463 -0.07065,0.01416 c -0.03886,0.0079 -0.165403,0.03215 -0.281213,0.05411 -0.495294,0.09396 -0.962513,0.183309 -1.215834,0.23252 -0.37366,0.07259 -0.973091,0.185387 -1.079987,0.203226 -0.04857,0.0081 -0.105116,0.01808 -0.12567,0.02216 -0.02657,0.0054 -0.03978,0.0012 -0.04569,-0.01427 z M 3.2880918,10.077619 C 3.1146892,9.6390532 3.0415356,9.1730102 3.0412701,8.5051872 c -2.143e-4,-0.540592 0.033768,-0.863433 0.142271,-1.351682 0.043494,-0.19572 0.1682005,-0.588503 0.1955176,-0.615821 0.00904,-0.009 0.1320312,-0.03642 0.2732989,-0.06084 0.2546687,-0.04401 0.7327401,-0.131997 1.2689131,-0.233534 0.8984693,-0.170146 1.2944402,-0.237554 1.3254829,-0.225641 0.010667,0.0041 0.019406,0.01901 0.019406,0.03315 0,0.02893 0.00509,0.02121 -0.2517893,0.382694 -0.1035316,0.145697 -0.2440328,0.344374 -0.3122255,0.441504 -0.068193,0.09713 -0.2645358,0.375278 -0.4363173,0.618105 -0.8393379,1.186472 -1.2767594,1.816173 -1.6726443,2.407895 -0.12372,0.1849228 -0.2287783,0.3362218 -0.233463,0.3362218 -0.00468,0 -0.036917,-0.07183 -0.071628,-0.159621 z M 11.803093,8.6444302 c -0.005,-0.03923 -0.02771,-0.172186 -0.05041,-0.295468 -0.02269,-0.123281 -0.06524,-0.36475 -0.09454,-0.536597 -0.08594,-0.504112 -0.338608,-1.999736 -0.360306,-2.132804 -0.05776,-0.3542317 -0.246884,-1.4261245 -0.31253,-1.7713674 -0.02613,-0.1374324 -0.04234,-0.2550531 -0.03601,-0.2613776 0.01603,-0.016031 0.295864,0.141603 0.546996,0.3081334 0.615144,0.4079111 1.131756,0.9324893 1.531193,1.5548022 0.160354,0.2498264 0.367858,0.6356244 0.439132,0.8164514 l 0.02662,0.06755 -0.08393,0.131957 c -0.09165,0.144098 -0.218,0.32271 -0.589555,0.83341 -0.133915,0.184065 -0.326006,0.4561 -0.426872,0.604521 -0.254673,0.374748 -0.54137,0.752115 -0.571403,0.752115 -0.0051,0 -0.01335,-0.03209 -0.01838,-0.07132 z m -0.86401,-2.378901 C 10.91306,6.2403822 10.674748,6.0742982 10.409505,5.8964562 10.144263,5.7186132 9.8600033,5.5272552 9.7778155,5.4712154 8.6493129,4.7017595 7.236975,3.7225699 7.0036301,3.5478429 6.8751173,3.4516123 6.7163839,3.3195206 6.7152382,3.3078532 c -0.00102,-0.010557 0.2882975,-0.099935 0.4339302,-0.1340225 0.1458561,-0.034143 0.4662068,-0.089237 0.6520678,-0.112133 0.094192,-0.011602 0.315668,-0.017447 0.652067,-0.017207 0.447157,3.265e-4 0.5359966,0.00403 0.7267839,0.030061 0.3396646,0.046398 0.5792447,0.093873 0.8150841,0.1614923 0.2089438,0.059904 0.5501818,0.1889652 0.5501818,0.2080761 0,0.00511 0.02456,0.1488899 0.05457,0.319605 0.03002,0.1707152 0.100497,0.5921452 0.15664,0.9365087 0.100674,0.6175806 0.162087,0.9789814 0.23248,1.3682474 0.0334,0.184626 0.03535,0.242764 0.0082,0.242764 -0.006,0 -0.03213,-0.02057 -0.05816,-0.04572 z M 3.5768785,6.1129672 c 0.00776,-0.02041 0.042673,-0.09265 0.077592,-0.16054 C 4.122158,5.043093 4.7898308,4.3334253 5.6747726,3.8050531 5.9018948,3.6694458 6.2672569,3.4856265 6.3096707,3.4856265 c 0.032084,0 0.1092904,0.052493 1.1111923,0.7555474 0.5918429,0.4153088 0.76509,0.5340504 0.9645172,0.6610714 0.1714497,0.1092008 0.3396183,0.2418552 0.3396183,0.2678959 0,0.00631 -0.016813,0.014737 -0.037359,0.018785 -0.131994,0.026045 -0.7958421,0.1534229 -1.0630058,0.2039762 -0.400744,0.075828 -1.6120575,0.3015048 -1.6845074,0.3138348 -0.018679,0.0032 -0.1806774,0.033 -0.3599958,0.06626 -0.1793189,0.03326 -0.475806,0.08819 -0.6588603,0.122051 -0.1830543,0.03386 -0.4978807,0.09226 -0.6996136,0.129772 -0.2017335,0.03752 -0.4218063,0.07794 -0.4890507,0.08985 -0.067244,0.0119 -0.1329666,0.02474 -0.1460496,0.02852 -0.020769,0.006 -0.021999,0.0022 -0.00968,-0.03022 z"
     id="path834" />
</svg>
