<svg width="64" height="64" version="1.1" xmlns="http://www.w3.org/2000/svg" xmlns:xlink="http://www.w3.org/1999/xlink">
 <circle cx="32" cy="32" r="27" fill="#f9f9f9" stroke-width="3.7796" style="paint-order:stroke fill markers"/>
 <g transform="scale(3.7796)">
  <path transform="scale(.26458)" d="m53.574 45.312c-1.5337 0-3.067 0.58846-4.2422 1.7637l-11.18 11.18a27 27 0 0 0 17.152-12.674c-0.56425-0.17303-1.1458-0.26953-1.7305-0.26953z" fill="#ff522c" opacity=".75" style="paint-order:stroke fill markers"/>
  <path transform="scale(.26458)" d="m43.354 43.113c-1.5337 0-3.0689 0.58846-4.2441 1.7637l-13.359 13.359a27 27 0 0 0 6.25 0.76367 27 27 0 0 0 13.768-3.8105l1.8281-1.8281c2.3504-2.3504 2.3504-6.134 0-8.4844-1.1752-1.1752-2.7085-1.7637-4.2422-1.7637z" fill="#71ffb2" opacity=".75" style="paint-order:stroke fill markers"/>
  <path transform="scale(.26458)" d="m40.639 34.496c-1.5337 0-3.067 0.58846-4.2422 1.7637l-18.639 18.639a27 27 0 0 0 12.934 4.0371l14.191-14.191c2.3504-2.3504 2.3504-6.134 0-8.4844-1.1752-1.1752-2.7104-1.7637-4.2441-1.7637z" fill="#4997ff" opacity=".75" style="paint-order:stroke fill markers"/>
  <path transform="scale(.26458)" d="m24.916 39.32c-1.5337 0-3.0689 0.58651-4.2441 1.7617l-8.8301 8.8301a27 27 0 0 0 9.916 7.0566l7.4004-7.4004c2.3504-2.3504 2.3504-6.1359 0-8.4863-1.1752-1.1752-2.7085-1.7617-4.2422-1.7617z" fill="#ff4b20" opacity=".75" style="paint-order:stroke fill markers"/>
  <path transform="scale(.26458)" d="m13.932 40.268c-1.5337 0-3.067 0.58846-4.2422 1.7637l-1.8965 1.8965a27 27 0 0 0 7.627 9.3418l2.7539-2.7539c2.3504-2.3504 2.3504-6.134 0-8.4844-1.1752-1.1752-2.7085-1.7637-4.2422-1.7637z" fill="#ffef4d" opacity=".75" style="paint-order:stroke fill markers"/>
 </g>
 <path d="m40.452 23.008a2.25 10.125 44.998 0 0-8.3756 5.735 2.25 10.125 44.998 0 0-3.9857 4.6275c1.2105 0.38547 2.1545 1.3295 2.5399 2.5401a2.25 10.125 44.998 0 0 4.6272-3.986 2.25 10.125 44.998 0 0 5.5676-8.7497 2.25 10.125 44.998 0 0-0.37351-0.16701m-12.952 11.989c-4.4998 1.2058-1.125 4.0545-4.4998 6.0031 4.5036 0 6.7497-2.251 6.7497-3.753 0-0.74802 0.07599-2.1257-2.2499-2.2501z" fill="#808080" stroke="#fff" stroke-linecap="round" stroke-linejoin="round" stroke-width="2"/>
 <path d="m40.452 23.008a2.25 10.125 44.998 0 0-8.3756 5.735 2.25 10.125 44.998 0 0-3.9857 4.6275c1.2105 0.38547 2.1545 1.3295 2.5399 2.5401a2.25 10.125 44.998 0 0 4.6272-3.986 2.25 10.125 44.998 0 0 5.5676-8.7497 2.25 10.125 44.998 0 0-0.37351-0.16701m-12.952 11.989c-4.4998 1.2058-1.125 4.0545-4.4998 6.0031 4.5036 0 6.7497-2.251 6.7497-3.753 0-0.74802 0.07599-2.1257-2.2499-2.2501z" fill="#808080"/>
</svg>
