<svg width="64" height="64" version="1.1" xmlns="http://www.w3.org/2000/svg">
 <rect x="4" y="4" width="55.999" height="55.999" ry="28" fill="#86aeff" stroke-width="3.9198" style="paint-order:stroke markers fill"/>
 <path d="m32 4c-5.9602 0-11.47 1.8495-16 5h32c-4.5305-3.1505-10.04-5-16-5z" opacity=".35" stroke-width="6.8086" style="paint-order:stroke markers fill"/>
 <rect x="27" y="5.9718" width="10" height="2" ry="1.0019" opacity=".35" stroke-width="3.7796" style="paint-order:stroke markers fill"/>
 <path d="m22.571 20-0.91072 1.6607-1.6607 0.91072 1.6607 0.91072 0.91072 1.6607 0.91072-1.6607 1.6607-0.91072-1.6607-0.91072zm6.8572 0-0.91072 1.6607-1.6607 0.91072 1.6607 0.91072 0.91072 1.6607 0.91072-1.6607 1.6607-0.91072-1.6607-0.91072zm9.693 0-19.121 19.121 4.8784 4.8784 19.121-19.121zm0 2.4375 2.4375 2.4408-5.702 5.7087-2.4408-2.4408zm-13.122 2.7053-0.91072 1.6607-1.6607 0.91072 1.6607 0.91072 0.91072 1.6607 0.91072-1.6607 1.6607-0.91072-1.6607-0.91072z" fill="#fff" stroke-width="1.3333"/>
</svg>
