<svg xmlns="http://www.w3.org/2000/svg" width="64" height="64"><rect width="54" height="54" x="5" y="5" fill="#3e4245" rx="27" ry="27" style="paint-order:stroke markers fill"/><path fill="#fff" d="M16 15h19v2H16z"/><circle cx="40" cy="16" r="2" fill="#72d406"/><circle cx="47" cy="16" r="2" fill="#72d406"/><path fill="#fff" d="M11 31h24v2H11z"/><circle cx="40" cy="32" r="2" fill="#72d406"/><circle cx="47" cy="32" r="2" fill="#72d406"/><path fill="#fff" d="M16 47h19v2H16z"/><path d="M6.906 22c-.386.974-.72 1.974-.992 3h52.172a27 27 0 0 0-.992-3zM5.672 38q.345 1.536.86 3h50.937q.514-1.464.86-3z" opacity=".25" style="paint-order:fill markers stroke"/><circle cx="40" cy="48" r="2" fill="#72d406"/><circle cx="47" cy="48" r="2" fill="#72d406"/><circle cx="46" cy="46" r="18" fill="#5687e3" fill-rule="evenodd" style="paint-order:fill markers stroke"/><path fill="#fff" fill-rule="evenodd" d="M33.975 34A17 17 0 0 0 32 36.36v19.25A17 17 0 0 0 33.973 58h24.053a17 17 0 0 0 1.975-2.36V36.389A17 17 0 0 0 58.028 34zm1.44 2h21.172L46 46.586zM34 37.414l7.868 7.867L34 54.461zm24 0v17.051l-7.867-9.184zM43.285 46.7 46 49.414l2.715-2.715L56.684 56H35.313l7.973-9.3z" style="paint-order:fill markers stroke"/></svg>