<svg width="64" height="64" version="1.1" xmlns="http://www.w3.org/2000/svg">
 <g transform="scale(3.7796)" stroke-width="3.7796">
  <path transform="scale(.26458)" d="m51.062 12.941-2.7988 2.8008c8.9822 8.9818 8.9822 23.545 0 32.527l2.8066 2.8066a27 27 0 0 0 0.85938-37.277 27 27 0 0 0-0.86719-0.85742zm7.8281 16.674c6e-3 0.07732 0.01229 0.15506 0.01758 0.23242-6e-3 -0.0773-0.01077-0.15519-0.01758-0.23242zm0.10352 2.6738c-0.0023 0.08932-0.0046 0.17829-0.0078 0.26758 0.0019-0.08932 7e-3 -0.17822 0.0078-0.26758zm-0.16211 2.6738c-0.01058 0.09213-0.02149 0.18338-0.0332 0.27539 0.01134-0.09201 0.023-0.18328 0.0332-0.27539zm-0.43945 2.7207c-0.01058 0.04651-0.02067 0.09222-0.03125 0.13867 0.0102-0.04652 0.02142-0.09207 0.03125-0.13867zm-0.70508 2.6309c-0.0087 0.02808-0.01865 0.05602-0.02734 0.08398 0.0091-0.02797 0.01827-0.05602 0.02734-0.08398zm-3.582 7.1895c-0.02797 0.0401-0.05759 0.08114-0.08594 0.12109 0.02831-0.03991 0.05759-0.08111 0.08594-0.12109zm-1.627 2.0859c-0.06316 0.074-0.12554 0.14933-0.18945 0.22266 0.06441-0.07321 0.12599-0.14888 0.18945-0.22266z" fill="#5ad85d" style="paint-order:stroke fill markers"/>
  <path transform="scale(.26458)" d="m51.061 12.943-2.7969 2.7988c6.456 6.4557 8.2718 15.795 5.4473 23.873 0.07123-0.20485 0.14698-0.40717 0.21289-0.61523l3.8125 1.207a27 27 0 0 0 1.0742-5.0645 27 27 0 0 0 0.18359-2.8223c2.79e-4 -0.01042-2.65e-4 -0.02083 0-0.03125a27 27 0 0 0-7.9336-19.346zm2.6504 26.672c-1.1052 3.1608-2.921 6.128-5.4473 8.6543l0.02148 0.02148c2.3732-2.3763 4.254-5.3061 5.4258-8.6758zm5.1797-10c6e-3 0.07732 0.01229 0.15506 0.01758 0.23242-6e-3 -0.0773-0.01078-0.15519-0.01758-0.23242zm-1.2031 10.699c-0.0087 0.02808-0.01865 0.05602-0.02734 0.08398 0.0091-0.02797 0.01827-0.05602 0.02734-0.08398zm-3.582 7.1895c-0.02797 0.0401-0.05759 0.08114-0.08594 0.12109 0.02831-0.03991 0.05759-0.08111 0.08594-0.12109zm-1.627 2.0859c-0.06316 0.074-0.12554 0.14933-0.18945 0.22266 0.06441-0.07321 0.12599-0.14888 0.18945-0.22266z" fill="#ffce3d" style="paint-order:stroke fill markers"/>
  <path transform="scale(.26458)" d="m51.072 12.932-2.8086 2.8105c2.9629 2.9628 4.943 6.5338 5.9512 10.311l3.8633-1.0352a27 27 0 0 0-7.0059-12.086zm3.4043 14.209c8e-3 0.03717 0.01757 0.07412 0.02539 0.11133-0.0079-0.03719-0.01731-0.07414-0.02539-0.11133zm0.21094 1.1074c0.0093 0.05667 0.01843 0.1132 0.02734 0.16992-9e-3 -0.05656-0.01791-0.11335-0.02734-0.16992zm0.13867 0.97656c0.01656 0.1367 0.03668 0.27323 0.05078 0.41016-0.01433-0.13678-0.03394-0.27324-0.05078-0.41016zm4.0645 0.39062c6e-3 0.07732 0.01229 0.15506 0.01758 0.23242-6e-3 -0.0773-0.01078-0.15519-0.01758-0.23242zm-3.9648 0.60352c0.01548 0.19977 0.03269 0.39956 0.04297 0.59961-0.0105-0.19953-0.02717-0.39963-0.04297-0.59961zm0.05469 0.96094c0.0094 0.26358 0.01913 0.5273 0.01953 0.79102-5.67e-4 -0.26281-0.0098-0.52716-0.01953-0.79102zm0.01563 1.0059c-0.0023 0.29234-0.0062 0.58485-0.01953 0.87695 0.01332-0.29131 0.0174-0.58402 0.01953-0.87695zm3.998 0.10352c-0.0023 0.08932-0.0046 0.17829-0.0078 0.26758 0.0019-0.08932 7e-3 -0.17822 0.0078-0.26758zm-4.0391 1.1055c-0.01527 0.25403-0.03103 0.50821-0.05469 0.76172 0.0238-0.25308 0.03931-0.50711 0.05469-0.76172zm-0.09766 1.1387c-0.02726 0.24798-0.05453 0.49504-0.08984 0.74219 0.03549-0.24627 0.06235-0.49418 0.08984-0.74219zm3.9746 0.42969c-0.01058 0.09213-0.02149 0.18338-0.0332 0.27539 0.01134-0.09201 0.023-0.18328 0.0332-0.27539zm-4.1309 0.7207c-0.03402 0.21108-0.0675 0.42257-0.10742 0.63281 0.04018-0.20975 0.07307-0.42158 0.10742-0.63281zm3.6914 2c-0.01058 0.04651-0.02067 0.09222-0.03125 0.13867 0.01021-0.04652 0.02142-0.09207 0.03125-0.13867zm-0.70508 2.6309c-0.0087 0.02808-0.01865 0.05601-0.02734 0.08398 0.0091-0.02797 0.01827-0.05602 0.02734-0.08398zm-1.209 3.0684c-0.03288 0.0703-0.06815 0.13902-0.10156 0.20898a27 27 0 0 0 0.10156-0.20898zm-1.2461 2.3672c-0.04543 0.07695-0.09432 0.15014-0.14062 0.22656a27 27 0 0 0 0.14062-0.22656zm-5.0645 0.35352c-0.05538 0.07118-0.10969 0.14221-0.16602 0.21289 0.05596-0.07052 0.1109-0.14174 0.16602-0.21289zm-0.60156 0.74023c-0.11676 0.13792-0.23299 0.27633-0.35352 0.41211 0.11994-0.13565 0.2369-0.27379 0.35352-0.41211zm4.5391 0.66016c-0.02797 0.0401-0.05759 0.08114-0.08594 0.12109 0.02831-0.03991 0.05759-0.08111 0.08594-0.12109zm-5.25 0.14258c-0.14554 0.15665-0.29264 0.31328-0.44336 0.4668 0.15033-0.15348 0.29758-0.30937 0.44336-0.4668zm4.8984 0.33594c-0.05488 0.07469-0.11019 0.14865-0.16602 0.22266a27 27 0 0 0 0.16602-0.22266zm-1.2754 1.6074c-0.06316 0.074-0.12554 0.14933-0.18945 0.22266 0.06441-0.07321 0.12599-0.14888 0.18945-0.22266zm-0.46484 0.5293c-0.03175 0.03553-0.06557 0.07028-0.09766 0.10547a27 27 0 0 0 0.09766-0.10547z" fill="#ff584c" style="paint-order:stroke fill markers"/>
 </g>
 <path d="m51.093 12.912a27 27 0 0 0-38.185 0 27 27 0 0 0-1e-6 38.185 27 27 0 0 0 38.185 0l-2.8284-2.8284c8.9822-8.9822 8.9822-23.545 0-32.527zm7.7988 16.704c0.0068 0.07723 0.01058 0.15471 0.01663 0.23202a27 27 0 0 0-0.01663-0.23202zm0.10356 2.6724c-8.58e-4 0.08935-0.0064 0.17861-0.0083 0.26793a27 27 0 0 0 0.0083-0.26793zm-0.16298 2.6738c-0.0102 0.09211-0.02192 0.1842-0.03326 0.27621a27 27 0 0 0 0.03326-0.27621zm-0.43919 2.7207c-0.0098 0.0466-0.02154 0.09293-0.03175 0.13945a27 27 0 0 0 0.03175-0.13945zm-0.70573 2.6309c-0.0091 0.02797-0.01701 0.05628-0.02608 0.08425a27 27 0 0 0 0.02608-0.08425zm-3.5825 7.1899c-0.02835 0.03999-0.05594 0.0802-0.08425 0.12012a27 27 0 0 0 0.08425-0.12012zm-1.6255 2.0868c-0.06346 0.07378-0.1262 0.14774-0.19061 0.22096a27 27 0 0 0 0.19061-0.22096z" fill="#387fe7" stroke-width="3.7796" style="paint-order:stroke fill markers"/>
 <path d="m40.002 30.002a4 4 0 0 0-4 4v4h-2v8h12v-8h-2v-4a4 4 0 0 0-4-4zm0 2a2 2 0 0 1 2 2v4h-4v-4a2 2 0 0 1 2-2zm-10 0c-7.756 0-14 6.244-14 14h16v-2h-13.82a11.96 11.96 0 0 1 11.82-10c0.686 0 1.352 0.074 2 0.196v-2.024a13.308 13.308 0 0 0-2-0.172zm0-14c-3.324 0-6 2.676-6 6s2.676 6 6 6 6-2.676 6-6-2.676-6-6-6zm0 2c2.216 0 4 1.784 4 4s-1.784 4-4 4-4-1.784-4-4 1.784-4 4-4z" fill="#fff"/>
</svg>
