<svg width="64" height="64" xmlns="http://www.w3.org/2000/svg"><rect x="4" y="4" width="55.999" height="55.999" ry="28" fill="#86aeff" style="paint-order:stroke markers fill"/><path d="M32 4c-5.96 0-11.47 1.85-16 5h32c-4.53-3.15-10.04-5-16-5z" opacity=".35" style="paint-order:stroke markers fill"/><rect x="27" y="5.972" width="10" height="2" ry="1.002" opacity=".35" style="paint-order:stroke markers fill"/><g transform="matrix(1.5 0 0 1.5 -569.54 -768.7)" stroke-width=".667"><path d="M388.57 526.8v6h7v-5h-3l-1-1z" fill="#fff"/><path d="M388.57 534.8v6h7v-5h-3l-1-1z" fill="#fff" opacity=".75"/><path d="M398.57 526.8v6h5v-4l-2-2z" fill="#ffa86d"/><path d="m401.57 526.8 2 2h-2z" fill="#ff7214" fill-rule="evenodd"/><path d="M398.57 534.8v6h5v-4l-2-2z" fill="#94d669"/><path d="m401.57 534.8 2 2h-2z" fill="#67b632" fill-rule="evenodd"/><rect x="406.57" y="526.8" width="6" height="6" rx="0" fill="#fff"/><rect x="407.57" y="528.8" width="4" height="2" rx="1" opacity=".15"/><rect x="409.57" y="528.8" width="2" height="2" rx="1" fill="#3daee9"/></g></svg>