<svg width="64" height="64" version="1.1" xmlns="http://www.w3.org/2000/svg">
 <rect x="4" y="4" width="55.999" height="55.999" ry="28" fill="#86aeff" stroke-width="3.9198" style="paint-order:stroke markers fill"/>
 <path d="m32 4c-5.9602 0-11.47 1.8495-16 5h32c-4.5305-3.1505-10.04-5-16-5z" opacity=".35" stroke-width="6.8086" style="paint-order:stroke markers fill"/>
 <rect x="27" y="5.9718" width="10" height="2" ry="1.0019" opacity=".35" stroke-width="3.7796" style="paint-order:stroke markers fill"/>
 <g transform="matrix(1.5 0 0 1.5 -569.54 -768.7)" stroke-width=".66667">
  <path transform="translate(384.57,515.8)" d="m4 11v6h7v-5h-3l-1-1z" fill="#fff"/>
  <path d="m388.57 534.8v6h7v-5h-3l-1-1z" fill="#fff" opacity=".75"/>
  <path d="m398.57 526.8v6h5v-4l-2-2z" fill="#ffa86d"/>
  <path d="m401.57 526.8 2 2h-2z" fill="#ff7214" fill-rule="evenodd"/>
  <path d="m398.57 534.8v6h5v-4l-2-2z" fill="#94d669"/>
  <path d="m401.57 534.8 2 2h-2z" fill="#67b632" fill-rule="evenodd"/>
  <rect x="406.57" y="526.8" width="6" height="6" rx="2.6e-5" fill="#fff"/>
  <rect x="407.57" y="528.8" width="4" height="2" rx="1" opacity=".15"/>
  <rect x="409.57" y="528.8" width="2" height="2" rx="1" fill="#3daee9"/>
 </g>
</svg>
