<svg width="64" height="64" version="1.1" xmlns="http://www.w3.org/2000/svg">
 <rect x="5" y="5" width="54" height="54" rx="27" ry="27" fill="#3e4245" stroke-width="1.0385" style="paint-order:stroke markers fill"/>
 <path d="m16 15h19v2h-19z" fill="#ffffff" stroke-width=".88976"/>
 <circle cx="40" cy="16" r="2" fill="#72d406"/>
 <circle cx="47" cy="16" r="2" fill="#72d406"/>
 <path d="m11 31h24v2h-24z" fill="#ffffff"/>
 <circle cx="40" cy="32" r="2" fill="#72d406"/>
 <circle cx="47" cy="32" r="2" fill="#72d406"/>
 <path d="m16 47h19v2h-19z" fill="#ffffff" stroke-width=".88976"/>
 <path d="m6.9062 22c-0.38634 0.97362-0.71934 1.9738-0.99219 3h52.172c-0.27285-1.0262-0.60584-2.0264-0.99219-3zm-1.2344 16c0.23061 1.0234 0.51676 2.0249 0.85938 3h50.938c0.34261-0.97508 0.62876-1.9766 0.85938-3z" opacity=".25" stroke-width="1.1094" style="paint-order:fill markers stroke"/>
 <circle cx="40" cy="48" r="2" fill="#72d406"/>
 <circle cx="47" cy="48" r="2" fill="#72d406"/>
 <circle cx="46" cy="46" r="18" fill="#ff7f2a" fill-rule="evenodd" style="paint-order:fill markers stroke"/>
 <path d="M36 34v4h-2v4h2v8h-2v4h2v4h22V34zm2 2h2v20h-2zm4 0h14v20H42z" fill="#fff"/>
</svg>
