<svg width="64" height="64" xmlns="http://www.w3.org/2000/svg"><rect x="5" y="4.989" width="53.999" height="53.999" ry="27" fill="#8daaff" style="paint-order:stroke markers fill"/><path d="M32 5a26.942 26.942 0 0 0-14.18 4h28.359a26.94 26.94 0 0 0-14.18-4z" opacity=".35" style="paint-order:stroke markers fill"/><rect x="27" y="5.972" width="10" height="2" ry="1.002" opacity=".35" style="paint-order:stroke markers fill"/><rect x="13" y="18.001" width="37.991" height="27.819" ry="1.309" fill="#fff" opacity=".35"/><g transform="matrix(.46937 0 0 .4555 -209.41 -153.63)" fill="#fff" opacity=".75"><ellipse cx="498.35" cy="384.49" rx="3.196" ry="3.293"/><ellipse cx="489.83" cy="384.49" rx="3.196" ry="3.293"/><ellipse cx="481.31" cy="384.49" rx="3.196" ry="3.293"/></g><path d="M49.691 18.002c.725 0 1.309.583 1.309 1.309v25.2c0 .726-.584 1.31-1.309 1.31H32v-27.82z" fill="#fff" opacity=".35"/></svg>