<svg width="64" height="64" version="1.1" viewBox="0 0 16.933 16.933" xmlns="http://www.w3.org/2000/svg">
 <rect x="1.3229" y="1.3229" width="14.287" height="14.287" rx="7.1436" ry="7.1436" fill="#666666" stroke-width="1.1619" paint-order="markers stroke fill"/>
 <rect x="2.91" y="5.29" width="1.587" height="1.323" ry=".265" fill="#fff" paint-order="markers stroke fill"/>
 <path d="M5.556 5.02a.537.537 0 0 0-.531.531v.793c0 .289.242.53.531.53h1.057a.534.534 0 0 0 .529-.53v-.793a.536.536 0 0 0-.53-.531zm0 .53h1.057v.794H5.554v-.793l.002-.002z" fill="#ff8080" style="font-feature-settings:normal;font-variant-alternates:normal;font-variant-caps:normal;font-variant-ligatures:normal;font-variant-numeric:normal;font-variant-position:normal;isolation:auto;mix-blend-mode:normal;paint-order:markers stroke fill;shape-padding:0;text-decoration-color:#000;text-decoration-line:none;text-decoration-style:solid;text-indent:0;text-orientation:mixed;text-transform:none;white-space:normal"/>
 <rect x="5.292" y="5.29" width="1.587" height="1.323" ry=".265" fill="#fff" paint-order="markers stroke fill"/>
 <rect x="7.673" y="5.29" width="1.587" height="1.323" ry=".265" fill="#fff" paint-order="markers stroke fill"/>
 <rect x="10.054" y="5.29" width="1.587" height="1.323" ry=".265" fill="#fff" paint-order="markers stroke fill"/>
 <rect x="12.435" y="5.29" width="1.587" height="1.323" ry=".265" fill="#fff" paint-order="markers stroke fill"/>
 <path d="M3.176 7.4a.537.537 0 0 0-.531.531v.793c0 .289.242.53.53.53h1.057c.29 0 .53-.241.53-.53v-.793a.536.536 0 0 0-.53-.531zm0 .53h1.056v.794H3.174v-.793z" fill="#ff8080" style="font-feature-settings:normal;font-variant-alternates:normal;font-variant-caps:normal;font-variant-ligatures:normal;font-variant-numeric:normal;font-variant-position:normal;isolation:auto;mix-blend-mode:normal;paint-order:markers stroke fill;shape-padding:0;text-decoration-color:#000;text-decoration-line:none;text-decoration-style:solid;text-indent:0;text-orientation:mixed;text-transform:none;white-space:normal"/>
 <rect x="2.91" y="7.67" width="1.587" height="1.323" ry=".265" fill="#fff" paint-order="markers stroke fill"/>
 <path d="M5.556 7.4a.537.537 0 0 0-.531.531v.793c0 .289.242.53.531.53h1.057a.534.534 0 0 0 .529-.53v-.793a.536.536 0 0 0-.53-.531zm0 .53h1.057v.794H5.554v-.793z" fill="#ff8080" style="font-feature-settings:normal;font-variant-alternates:normal;font-variant-caps:normal;font-variant-ligatures:normal;font-variant-numeric:normal;font-variant-position:normal;isolation:auto;mix-blend-mode:normal;paint-order:markers stroke fill;shape-padding:0;text-decoration-color:#000;text-decoration-line:none;text-decoration-style:solid;text-indent:0;text-orientation:mixed;text-transform:none;white-space:normal"/>
 <rect x="5.292" y="7.67" width="1.587" height="1.323" ry=".265" fill="#fff" paint-order="markers stroke fill"/>
 <rect x="7.673" y="7.67" width="1.587" height="1.323" ry=".265" fill="#fff" paint-order="markers stroke fill"/>
 <rect x="10.054" y="7.67" width="1.587" height="1.323" ry=".265" fill="#fff" paint-order="markers stroke fill"/>
 <rect x="5.292" y="10.04" width="6.35" height="1.323" ry=".271" fill="#fff" paint-order="markers stroke fill"/>
 <rect x="12.435" y="7.673" width="1.587" height="1.323" ry=".265" fill="#fff" paint-order="markers stroke fill"/>
 <circle cx="12.435" cy="12.435" r="3.175" fill="#999999"/>
 <path d="m11.959 10.53-0.042 0.502a1.5 1.5 0 0 0-0.438 0.253l-0.456-0.215-0.476 0.825 0.414 0.287a1.5 1.5 0 0 0-0.023 0.253 1.5 1.5 0 0 0 0.022 0.254l-0.413 0.286 0.476 0.825 0.455-0.214a1.5 1.5 0 0 0 0.439 0.25l0.042 0.504h0.952l0.042-0.502a1.5 1.5 0 0 0 0.438-0.253l0.456 0.215 0.476-0.825-0.414-0.288a1.5 1.5 0 0 0 0.023-0.252 1.5 1.5 0 0 0-0.022-0.254l0.413-0.286-0.476-0.825-0.455 0.214a1.5 1.5 0 0 0-0.439-0.251l-0.042-0.503zm0.476 1.27a0.635 0.635 0 0 1 0.635 0.635 0.635 0.635 0 0 1-0.635 0.635 0.635 0.635 0 0 1-0.635-0.635 0.635 0.635 0 0 1 0.635-0.635" fill="#ffffff"/>
</svg>
