<svg width="64" height="64" xmlns="http://www.w3.org/2000/svg"><rect x="6" y="6" width="52" height="52" rx="2" ry="2" fill="#3e4245" style="paint-order:stroke markers fill"/><path d="M12 15h24v2H12z" fill="#fff"/><circle cx="43" cy="16" r="2" fill="#72d406"/><circle cx="51" cy="16" r="2" fill="#72d406"/><g fill="#fff"><path d="M12 31h24v2H12z"/><circle cx="43" cy="32" r="2"/><circle cx="51" cy="32" r="2"/><path d="M12 47h24v2H12z"/></g><g fill-rule="evenodd"><rect x="6" y="22" width="52" height="3" rx="0" ry="0" fill="#00000f" opacity=".5" style="paint-order:fill markers stroke"/><rect x="6" y="38" width="52" height="3" rx="0" ry="0" fill="#00000f" opacity=".5" style="paint-order:fill markers stroke"/><circle cx="46" cy="46" r="18" fill="#4fcf71" style="paint-order:fill markers stroke"/></g><path d="M42 33v8h2v-6h4v6h2v-8zm-4.586 8L36 42.414l10 10 10-10L54.586 41 46 49.586l-2-2zM34 53v4h24v-4h-2v2H36v-2z" fill="#fff"/></svg>