<svg width="64" height="64" version="1.1" xmlns="http://www.w3.org/2000/svg">
 <circle cx="32" cy="32" r="27" fill="#f9f9f9" stroke-width="3.7796" style="paint-order:stroke fill markers"/>
 <g transform="scale(3.7796)">
  <path transform="scale(.26458)" d="m53.574 45.312c-1.5337 0-3.067 0.58846-4.2422 1.7637l-11.18 11.18a27 27 0 0 0 17.152-12.674c-0.56425-0.17303-1.1458-0.26953-1.7305-0.26953z" fill="#ff522c" opacity=".75" style="paint-order:stroke fill markers"/>
  <path transform="scale(.26458)" d="m43.354 43.113c-1.5337 0-3.0689 0.58846-4.2441 1.7637l-13.359 13.359a27 27 0 0 0 6.25 0.76367 27 27 0 0 0 13.768-3.8105l1.8281-1.8281c2.3504-2.3504 2.3504-6.134 0-8.4844-1.1752-1.1752-2.7085-1.7637-4.2422-1.7637z" fill="#71ffb2" opacity=".75" style="paint-order:stroke fill markers"/>
  <path transform="scale(.26458)" d="m40.639 34.496c-1.5337 0-3.067 0.58846-4.2422 1.7637l-18.639 18.639a27 27 0 0 0 12.934 4.0371l14.191-14.191c2.3504-2.3504 2.3504-6.134 0-8.4844-1.1752-1.1752-2.7104-1.7637-4.2441-1.7637z" fill="#4997ff" opacity=".75" style="paint-order:stroke fill markers"/>
  <path transform="scale(.26458)" d="m24.916 39.32c-1.5337 0-3.0689 0.58651-4.2441 1.7617l-8.8301 8.8301a27 27 0 0 0 9.916 7.0566l7.4004-7.4004c2.3504-2.3504 2.3504-6.1359 0-8.4863-1.1752-1.1752-2.7085-1.7617-4.2422-1.7617z" fill="#ff4b20" opacity=".75" style="paint-order:stroke fill markers"/>
  <path transform="scale(.26458)" d="m13.932 40.268c-1.5337 0-3.067 0.58846-4.2422 1.7637l-1.8965 1.8965a27 27 0 0 0 7.627 9.3418l2.7539-2.7539c2.3504-2.3504 2.3504-6.134 0-8.4844-1.1752-1.1752-2.7085-1.7637-4.2422-1.7637z" fill="#ffef4d" opacity=".75" style="paint-order:stroke fill markers"/>
 </g>
 <path d="m26 20c-0.831 0-1.5 0.669-1.5 1.5s0.669 1.5 1.5 1.5 1.5-0.669 1.5-1.5-0.669-1.5-1.5-1.5zm9.4286 0-3.4286 3.4286 5.1429 5.1429-5.1429 5.1428 3.4286 3.4286 8.5714-8.5714-3.4286-3.4286zm-13.179 9c-1.2465 0-2.25 1.0035-2.25 2.25s1.0035 2.25 2.25 2.25 2.25-1.0035 2.25-2.25-1.0035-2.25-2.25-2.25zm6.75 9c-1.662 0-3 1.338-3 3s1.338 3 3 3 3-1.338 3-3-1.338-3-3-3z" fill="#808080" stroke="#fff" stroke-width="2"/>
 <path d="m26 20c-0.831 0-1.5 0.669-1.5 1.5s0.669 1.5 1.5 1.5 1.5-0.669 1.5-1.5-0.669-1.5-1.5-1.5zm9.4286 0-3.4286 3.4286 5.1429 5.1429-5.1429 5.1428 3.4286 3.4286 8.5714-8.5714-3.4286-3.4286zm-13.179 9c-1.2465 0-2.25 1.0035-2.25 2.25s1.0035 2.25 2.25 2.25 2.25-1.0035 2.25-2.25-1.0035-2.25-2.25-2.25zm6.75 9c-1.662 0-3 1.338-3 3s1.338 3 3 3 3-1.338 3-3-1.338-3-3-3z" fill="#808080"/>
</svg>
