<svg xmlns="http://www.w3.org/2000/svg" width="64" height="64"><circle cx="32" cy="32" r="27" fill="#ececec" style="paint-order:stroke fill markers"/><path d="M25.996 9.998v2h19.197a24 24 0 0 0-3.71-2zM22 10.227A24 24 0 0 0 18.83 12h1.166v2h-2v2h2v2h-2v-2h-2v2h-2v-1.8A24 24 0 0 0 12 18.83V20h10zM17.996 14v-1.375a24 24 0 0 0-1.8 1.375zm8 1.998v2h25.445a24 24 0 0 0-1.606-2zm-13.996 6v2h16v-2zm20 0v20h20v-20zm1.998 2h16v16h-16zm-21.998 4v2h16v-2zm0 6v2h16v-2zm0 6v2h16v-2zM12.621 46a24 24 0 0 0 1.574 2h35.61a24 24 0 0 0 1.573-2H12.62zm6.21 6a24 24 0 0 0 3.753 2h18.832a24 24 0 0 0 3.754-2H18.83z" opacity=".25"/><path fill="#7cd1cc" fill-rule="evenodd" d="M35.996 25.998H48v12.004H35.996z"/></svg>