<svg width="64" height="64" xmlns="http://www.w3.org/2000/svg"><g stroke-width="3.78"><path d="M2.003 18.002v35.997a.995.995 0 0 0 .998 1.002h58.002a.998.998 0 0 0 .998-1.002V17.998H2.004z" fill="#fff" style="paint-order:markers stroke fill"/><path d="M2.003 18.002v35.997a.995.995 0 0 0 .998 1.002h58.002a.998.998 0 0 0 .998-1.002V17.998h-.998v35.044c0 .53-.435.956-.968.956H3.968a.96.96 0 0 1-.967-.956V17.998H1.999z" opacity=".1" style="paint-order:markers stroke fill"/><path d="M3.001 9a.998.998 0 0 0-1.002 1v7.998H62v-7.997a.998.998 0 0 0-.997-1.002z" fill="#666" style="paint-order:stroke markers fill"/><rect x="56.002" y="12" width="3.001" height="3.001" ry="1.5" opacity=".35" style="paint-order:stroke markers fill"/><rect x="50" y="12" width="3.001" height="3.001" ry="1.5" opacity=".35" style="paint-order:stroke markers fill"/><rect x="44.002" y="12" width="3.001" height="3.001" ry="1.5" opacity=".35" style="paint-order:stroke markers fill"/><path d="M62.001 42.294a36.303 36.303 0 0 1-12.828 12.707h11.83a.998.998 0 0 0 .998-1.002z" opacity=".05" style="paint-order:markers stroke fill"/></g><g stroke-width=".58"><path d="M12 27h3.529l4.118 11.429 4.117-11.43h3.53L21.41 43h-3.529z" fill="#ef4a5b"/><path d="m24.942 43 5.882-16h3.53L28.47 43zm11.765 0 5.882-16h3.53l-5.883 16z" fill="#3e4143"/><path d="m21.412 43 5.882-16h3.53L24.94 43zm11.765 0 5.882-16h3.53l-5.883 16z" fill="#949b9d"/><path d="M36.706 43h-3.53l-5.882-16h3.53zm11.765 0h-3.53L39.06 27h3.53z" fill="#babfc2"/><path d="m30.824 27 5.882 16h3.53l-5.883-16zm11.765 0 5.882 16h3.53l-5.883-16z" fill="#535353"/></g></svg>