<svg width="64" height="64" version="1.1" xmlns="http://www.w3.org/2000/svg">
 <path d="m8.9531 17.998a27 27 0 0 0-3.953 14.002 27 27 0 0 0 27 27 27 27 0 0 0 27-27 27 27 0 0 0-3.943-14.002 27 27 0 0 0-2e-3 0z" fill="#f0f0f0" style="paint-order:stroke fill markers"/>
 <path d="m32.002 5.0004a27.001 27.001 0 0 0-23.048 12.998h46.104a27.001 27.001 0 0 0-23.056-13.002z" fill="#666666" stroke-width="3.7796" style="paint-order:stroke markers fill"/>
 <rect x="44.002" y="12" width="3.001" height="3.001" ry="1.5005" opacity=".35" stroke-width="3.7796" style="paint-order:stroke markers fill"/>
 <rect x="38" y="12" width="3.001" height="3.001" ry="1.5005" opacity=".35" stroke-width="3.7796" style="paint-order:stroke markers fill"/>
 <rect x="31.998" y="12" width="3.001" height="3.001" ry="1.5005" opacity=".35" stroke-width="3.7796" style="paint-order:stroke markers fill"/>
 <path d="m10 22v2h37v-2zm-2 6v2h13v-2zm-1 6v2h24v-2zm2 6v2h16v-2zm4 6v2h18v-2z" color="#000000" fill="#cccccc"/>
 <circle cx="47" cy="47" r="14" fill="#ff8080" fill-rule="evenodd" stop-color="#000000" stroke-linecap="round" stroke-linejoin="round" stroke-width="1.931" style="paint-order:stroke fill markers"/>
 <path d="m47 35c-6.627 0-12 5.373-12 12s5.373 12 12 12 12-5.373 12-12-5.373-12-12-12zm0 2c5.523 0 10 4.477 10 10 0 2.41-0.888 4.59-2.309 6.316l-14.008-14.008c1.727-1.42 3.907-2.308 6.317-2.308zm-7.691 3.684 14.008 14.008c-1.727 1.42-3.907 2.308-6.317 2.308-5.523 0-10-4.477-10-10 0-2.41 0.889-4.59 2.309-6.316z" color="#000000" fill="#ffffff"/>
</svg>
