<svg width="64" height="64" version="1.1" xmlns="http://www.w3.org/2000/svg">
 <circle cx="32" cy="33" r="27" fill="#f0f0f0" stop-color="#000000" stroke-linecap="round" stroke-linejoin="round" stroke-width="2.0359" style="paint-order:stroke fill markers"/>
 <path d="m31.376 15.22-10 8-0.376 0.78v11.52l-9.626 7.7 1.25 1.56 9.376-7.5 9.376 7.5 1.248-1.56-9.624-7.7v-11.04l9-7.2 9 7.2v11.52l0.376 0.78 10 8 1.25-1.56-9.626-7.7v-11.52l-0.376-0.78-10-8z" fill="#474f50"/>
 <circle cx="15" cy="43" r="5" fill="#58b072" stop-color="#000000" stroke-linecap="round" stroke-linejoin="round" stroke-width="1.8182" style="paint-order:stroke fill markers"/>
 <circle cx="29" cy="43" r="5" fill="#58b072" stop-color="#000000" stroke-linecap="round" stroke-linejoin="round" stroke-width="1.8182" style="paint-order:stroke fill markers"/>
 <circle cx="49" cy="43" r="5" fill="#58b072" stop-color="#000000" stroke-linecap="round" stroke-linejoin="round" stroke-width="1.8182" style="paint-order:stroke fill markers"/>
 <circle cx="22" cy="27" r="5" fill="#a779be" stop-color="#000000" stroke-linecap="round" stroke-linejoin="round" stroke-width="1.8182" style="paint-order:stroke fill markers"/>
 <circle cx="42" cy="27" r="5" fill="#a779be" stop-color="#000000" stroke-linecap="round" stroke-linejoin="round" stroke-width="1.8182" style="paint-order:stroke fill markers"/>
 <circle cx="32" cy="14" r="5" fill="#e16e7b" stop-color="#000000" stroke-linecap="round" stroke-linejoin="round" stroke-width="1.8182" style="paint-order:stroke fill markers"/>
</svg>
