<svg width="64" height="64" xmlns="http://www.w3.org/2000/svg"><rect x="6" y="6" width="52" height="52" rx="2" ry="2" fill="#3e4245" style="paint-order:stroke markers fill"/><path d="M12 15h24v2H12z" fill="#fff"/><circle cx="43" cy="16" r="2" fill="#72d406"/><circle cx="51" cy="16" r="2" fill="#72d406"/><g fill="#fff"><path d="M12 31h24v2H12z"/><circle cx="43" cy="32" r="2"/><circle cx="51" cy="32" r="2"/><path d="M12 47h24v2H12z"/></g><g fill-rule="evenodd"><rect x="6" y="22" width="52" height="3" rx="0" ry="0" fill="#00000f" opacity=".5" style="paint-order:fill markers stroke"/><rect x="6" y="38" width="52" height="3" rx="0" ry="0" fill="#00000f" opacity=".5" style="paint-order:fill markers stroke"/><circle cx="46" cy="46" r="18" fill="#f4d44a" style="paint-order:fill markers stroke"/></g><path d="M34 50h24v4H34zm2-2a10 10 0 0 1 10-10 10 10 0 0 1 10 10H46zm10-14a2 2 0 0 0-2 2h4a2 2 0 0 0-2-2z" fill="#fff"/></svg>