<svg width="64" height="64" version="1.1" xmlns="http://www.w3.org/2000/svg">
 <circle cx="32" cy="32" r="27" fill="#f0f0f0" style="paint-order:stroke fill markers"/>
 <rect x="22" y="33" width="20" height="15" rx="2.5838" ry="2.5838" fill="#6d7680" fill-rule="evenodd" stop-color="#000000" style="paint-order:stroke fill markers"/>
 <rect x="13" y="17" width="38" height="28" rx="6" ry="6" fill="#2f3337" stroke-width="1.1927"/>
 <rect x="15" y="19" width="34" height="24" rx="4" ry="4" fill="#191b1e" stroke-width="1.0445"/>
 <g transform="matrix(.49997 0 0 .49997 14.001 16.501)" opacity=".5">
  <path d="m15.998 10.999h20.001v2h-20.001zm0 12.001h16.001v2h-16.001zm0 4h16.001v2h-16.001zm0 4h12.001v2h-12.001zm0-16h16.001v2h-16.001zm0 4h12.001v2h-12.001zm0 16h20.001v2.001h-20.001zm0 4.001h12.001v2h-12.001z" fill="#ffffff"/>
  <path d="m7.999 10.999h6v2h-6zm0 4h6v2h-6zm0 4h6v2h-6zm0 4h6v2.001h-6zm0 4.001h6v2h-6zm0 4h6v2h-6zm0 4h6v2h-6zm0 4.001h6v2h-6z" fill="#41f045"/>
 </g>
</svg>
