<svg width="64" height="64" version="1.1" viewBox="0 0 16.933 16.933" xmlns="http://www.w3.org/2000/svg" xmlns:xlink="http://www.w3.org/1999/xlink">
 <circle cx="8.4665" cy="8.4665" r="7.1436" fill="#4d4d4d" stroke-width=".26458" style="paint-order:stroke fill markers"/>
 <g transform="matrix(.26458 0 0 .26458 0 .53577)" fill="#fff">
  <rect x="20" y="37.975" width="24" height="5" ry="1.025" paint-order="markers stroke fill"/>
  <circle cx="16" cy="20" r="2" style="paint-order:stroke fill markers"/>
  <circle cx="22" cy="20" r="2" style="paint-order:stroke fill markers"/>
  <circle cx="28" cy="20" r="2" style="paint-order:stroke fill markers"/>
  <circle cx="34" cy="20" r="2" style="paint-order:stroke fill markers"/>
  <circle cx="40" cy="20" r="2" style="paint-order:stroke fill markers"/>
  <circle cx="46" cy="20" r="2" style="paint-order:stroke fill markers"/>
  <circle cx="13" cy="26" r="2" style="paint-order:stroke fill markers"/>
  <circle cx="19" cy="26" r="2" style="paint-order:stroke fill markers"/>
  <circle cx="25" cy="26" r="2" style="paint-order:stroke fill markers"/>
  <circle cx="31" cy="26" r="2" style="paint-order:stroke fill markers"/>
  <circle cx="37" cy="26" r="2" style="paint-order:stroke fill markers"/>
  <circle cx="43" cy="26" r="2" style="paint-order:stroke fill markers"/>
  <circle cx="49" cy="26" r="2" style="paint-order:stroke fill markers"/>
  <circle cx="15" cy="32" r="2" style="paint-order:stroke fill markers"/>
  <circle cx="21" cy="32" r="2" style="paint-order:stroke fill markers"/>
  <circle cx="27" cy="32" r="2" style="paint-order:stroke fill markers"/>
  <circle cx="33" cy="32" r="2" style="paint-order:stroke fill markers"/>
  <circle cx="39" cy="32" r="2" style="paint-order:stroke fill markers"/>
  <circle cx="45" cy="32" r="2" style="paint-order:stroke fill markers"/>
  <circle cx="51" cy="32" r="2" style="paint-order:stroke fill markers"/>
 </g>
 <circle cx="13.229" cy="13.229" r="3.175" fill="#999"/>
 <path d="m12.753 11.324-0.042 0.502a1.497 1.497 0 0 0-0.438 0.253l-0.456-0.215-0.476 0.825 0.414 0.287a1.497 1.497 0 0 0-0.023 0.253 1.497 1.497 0 0 0 0.022 0.254l-0.413 0.286 0.476 0.825 0.455-0.214a1.497 1.497 0 0 0 0.439 0.251l0.042 0.503h0.952l0.042-0.502a1.497 1.497 0 0 0 0.438-0.253l0.456 0.215 0.476-0.825-0.414-0.288a1.497 1.497 0 0 0 0.023-0.252 1.497 1.497 0 0 0-0.022-0.254l0.413-0.286-0.476-0.825-0.455 0.214a1.497 1.497 0 0 0-0.439-0.251l-0.042-0.503zm0.476 1.27a0.635 0.635 0 0 1 0.635 0.635 0.635 0.635 0 0 1-0.635 0.635 0.635 0.635 0 0 1-0.635-0.635 0.635 0.635 0 0 1 0.635-0.635z" fill="#fff"/>
</svg>
