<svg width="64" height="64" version="1.1" xmlns="http://www.w3.org/2000/svg">
 <circle cx="31.998" cy="32.013" r="27.001" fill="#f4e3d7" stroke-width="3.7796" style="paint-order:stroke markers fill"/>
 <g transform="matrix(.64286 0 0 .64286 11.429 8.2857)" stroke-width=".5">
  <path d="m12 38a1.944 1.944 0 0 0-1.242 0.434 2 2 0 0 0-0.72 1.168 2.012 2.012 0 0 0-0.038 0.398 3.986 3.986 0 0 1-2.55 3.724 4.002 4.002 0 0 1-0.77 0.216 4.002 4.002 0 0 1-0.68 0.06 1.014 1.014 0 0 0-0.34 0.056 1.218 1.218 0 0 0-0.386 0.216 1.832 1.832 0 0 0-0.356 0.36 3.43 3.43 0 0 0-0.45 0.79 4.96 4.96 0 0 0-0.222 0.66 6.266 6.266 0 0 0-0.234 1.518 8.12 8.12 0 0 0-0.012 0.4v2h56v-2a8 8 0 0 0-0.246-1.918 5.744 5.744 0 0 0-0.222-0.66 4.194 4.194 0 0 0-0.29-0.554 2.274 2.274 0 0 0-0.516-0.594 1.218 1.218 0 0 0-0.726-0.274 4 4 0 0 1-0.68-0.06 4.002 4.002 0 0 1-1.132-0.374 4 4 0 0 1-2.188-3.566 2.01 2.01 0 0 0-0.09-0.59 1.994 1.994 0 0 0-0.38-0.7 2 2 0 0 0-0.624-0.492 1.994 1.994 0 0 0-0.906-0.218h-20z" fill="#8b6c52"/>
  <path d="m44 38-2-2h-2l2 2zm-24 0 2-2h2l-2 2z" fill="#4d4d4d"/>
  <path d="m51.574 34h-39.168c-0.27 1.316-0.406 0.656-0.406 2h40c-8e-3 -1.344-0.15-0.684-0.426-2z" fill="#b3b3b3" opacity=".998"/>
  <path d="m30 14v6h4v-6z" fill="#cccccc"/>
  <path d="m32 18a20 20 0 0 0-19.594 16h39.168a20 20 0 0 0-19.574-16z" fill="#ffffff" opacity=".998"/>
  <path d="m32 10a4 4 0 0 0-4 4 4 2 0 0 0 2 1.73 4 2 0 0 0 4 0 4 2 0 0 0 2-1.73 4 4 0 0 0-4-4z" fill="#ffffff"/>
  <path d="m4 50h56v4h-56z" fill="#5c5049"/>
 </g>
</svg>
