<svg width="64" height="64" xmlns="http://www.w3.org/2000/svg" xmlns:xlink="http://www.w3.org/1999/xlink"><linearGradient id="c" x1="32" x2="32" y1="54" y2="9" gradientUnits="userSpaceOnUse" xlink:href="#a"/><linearGradient id="b" x1="28.385" x2="28.385" y1="27.846" y2="3.615" gradientUnits="userSpaceOnUse" xlink:href="#a"/><linearGradient id="a"><stop stop-color="#eff0f1" offset="0"/><stop stop-color="#fcfcfc" offset="1"/></linearGradient><circle cx="32" cy="32" r="27" fill="#f0f0f0" style="paint-order:stroke fill markers"/><path d="M32 11.473c-5 2.648-10 3.73-15 4.736V35.95c0 5.528 8.103 13.077 15 16.58 6.898-3.503 15-11.052 15-16.58V16.21c-5-1.007-10-2.089-15-4.737z" fill="#2a4f5d"/><g stroke-width=".269"><path d="m38.968 16.486-13.91 27.822c2.16 2.013 4.585 3.865 6.942 5.063 5.836-2.963 12.633-9.535 12.633-14.211V17.79a89.588 89.588 0 0 1-5.665-1.304z" fill="#d55443"/><path d="M16 3.615c-2.886 1.529-5.73 2.112-8.615 2.693v11.846c0 1.9 1.707 4.215 3.88 6.24l9.487-18.975c-1.58-.426-3.16-.96-4.752-1.804z" fill="url(#b)" transform="translate(8.54 8.54) scale(1.4663)"/></g><g stroke-width=".928"><path transform="translate(6.736 6.737) scale(.78954)" d="m24 14 16 32 8-16h-4l-1 2h-6l-9-18zm14 20h4l-2 4z" fill="url(#c)"/><path d="M25.685 17.79 19.37 30.424h3.158l.79-1.579h4.737l6.71 13.423h3.159zm0 6.317 1.58 3.158h-3.159z" fill="#d55443"/></g></svg>