<svg width="64" height="64" viewBox="0 0 16.933 16.933" xmlns="http://www.w3.org/2000/svg"><g transform="scale(.26458)"><rect x="4" y="4" width="55.999" height="55.999" ry="28" fill="#86aeff" style="paint-order:stroke markers fill"/><path d="M32 4c-5.96 0-11.47 1.85-16 5h32c-4.53-3.15-10.04-5-16-5z" opacity=".35" style="paint-order:stroke markers fill"/><rect x="27" y="5.972" width="10" height="2" ry="1.002" opacity=".35" style="paint-order:stroke markers fill"/></g><path d="M8.467 4.8A2.11 2.11 0 0 0 6.35 6.915v.758h-.655a.4.4 0 0 0-.403.398v4.04a.4.4 0 0 0 .403.399h5.543a.4.4 0 0 0 .403-.399v-4.04a.4.4 0 0 0-.403-.398h-.655v-.758A2.111 2.111 0 0 0 8.467 4.8zm0 .756c.732 0 1.36.627 1.36 1.36v.757h-2.72v-.758c0-.732.627-1.36 1.36-1.36z" fill="#fff"/></svg>