<svg width="64" height="64" version="1.1" xmlns="http://www.w3.org/2000/svg">
 <rect x="4" y="4" width="55.999" height="55.999" ry="28" fill="#86aeff" stroke-width="3.9198" style="paint-order:stroke markers fill"/>
 <path d="m32 4c-5.9602 0-11.47 1.8495-16 5h32c-4.5305-3.1505-10.04-5-16-5z" opacity=".35" stroke-width="6.8086" style="paint-order:stroke markers fill"/>
 <rect x="27" y="5.9718" width="10" height="2" ry="1.0019" opacity=".35" stroke-width="3.7796" style="paint-order:stroke markers fill"/>
 <path d="m13.643 15c-0.59007 0.63721-1.1503 1.3035-1.6719 2h12.029v-2h-10.357zm-4.1133 6c-0.31777 0.65064-0.60569 1.3188-0.86719 2h5.3379v-2h-4.4707zm8.4707 0v2h24v-2h-24zm-10.008 4c-0.18983 0.65637-0.36152 1.3223-0.49805 2h6.5059v-2h-6.0078zm10.008 0v2h36v-2h-36zm-10.818 4c-0.078164 0.65902-0.13192 1.3259-0.1582 2h6.9766v-2h-6.8184zm10.818 0v2h32v-2h-32zm-10.977 4c0.026332 0.6742 0.079971 1.3408 0.1582 2h6.8184v-2h-6.9766zm10.977 0v2h20v-2h-20zm-10.506 4c0.13665 0.67834 0.308 1.3431 0.49805 2h6.0078v-2h-6.5059zm10.506 0v2h28v-2h-28zm-9.3379 4c0.26147 0.68107 0.54947 1.3495 0.86719 2h4.4707v-2h-5.3379zm9.3379 0v2h24v-2h-24zm-7.3809 4c0.41871 0.68921 0.87011 1.357 1.3516 2h2.0293v-2h-3.3809zm7.3809 0v2h28v-2h-28zm-4.3555 4c0.11678 0.12609 0.23612 0.24941 0.35547 0.37305v-0.37305h-0.35547zm4.3555 0v2h24v-2h-24z" fill="#fff" opacity=".5" stroke-width="3.5" style="paint-order:stroke markers fill"/>
</svg>
