<svg xmlns="http://www.w3.org/2000/svg" width="64" height="64"><rect width="54" height="54" x="5" y="5" fill="#343739" rx="27" ry="27"/><path fill="#38aaeb" d="M30 10.094A21.94 21.94 0 0 0 10.094 30H30zm4 0V30h19.906A21.94 21.94 0 0 0 34 10.094M10.094 34A21.94 21.94 0 0 0 30 53.906V34zM34 34v19.906A21.94 21.94 0 0 0 53.906 34z"/><path fill="#fff" d="M40 14v2H20a3.98 3.98 0 0 0-3.132 1.512A4 4 0 0 0 16 20v10q0 .342.06.68A4 4 0 0 0 20 34h22a2 2 0 0 1 1.368.544c.403.377.632.904.632 1.456v6a2 2 0 0 1-2 2H24v-2l-6 4 6 4v-2h20a4.004 4.004 0 0 0 4-4V34q0-.342-.06-.68A4 4 0 0 0 44 30H22a2 2 0 0 1-1.368-.544A2 2 0 0 1 20 28v-6a2 2 0 0 1 2-2h18v2l6-4z"/></svg>