<svg xmlns="http://www.w3.org/2000/svg" width="64" height="64"><g stroke-width="3.78"><path fill="#5ad85d" d="m51.062 12.941-2.799 2.8c8.982 8.983 8.982 23.546 0 32.528l2.807 2.806a27 27 0 0 0 .86-37.277 27 27 0 0 0-.868-.857m7.828 16.674.018.232zm.104 2.674-.008.267zm-.162 2.674-.034.275zm-.44 2.72-.031.139zm-.705 2.631-.027.084zm-3.582 7.19-.086.12zm-1.627 2.086q-.094.112-.19.222z" style="paint-order:stroke fill markers"/><path fill="#ffce3d" d="m51.061 12.943-2.797 2.799c6.456 6.455 8.272 15.795 5.447 23.873.072-.205.147-.407.213-.615l3.813 1.207a27 27 0 0 0 1.074-5.065 27 27 0 0 0 .184-2.822v-.031a27 27 0 0 0-7.934-19.346m2.65 26.672a22.9 22.9 0 0 1-5.447 8.654l.022.022a22.9 22.9 0 0 0 5.425-8.676m5.18-10 .018.232zm-1.203 10.699-.027.084zm-3.582 7.19-.086.12zm-1.627 2.085q-.094.112-.19.223.097-.11.19-.223" style="paint-order:stroke fill markers"/><path fill="#ff584c" d="m51.072 12.932-2.809 2.81a22.9 22.9 0 0 1 5.952 10.311l3.863-1.035a27 27 0 0 0-7.006-12.086m3.404 14.209.026.111zm.211 1.107.028.17zm.139.977c.016.137.037.273.05.41q-.023-.205-.05-.41m4.064.39.018.233q-.007-.116-.018-.232zm-3.964.604q.025.3.043.6c-.01-.2-.028-.4-.043-.6m.054.961c.01.264.02.527.02.791 0-.263-.01-.527-.02-.791m4.014 1.109-.008.268zm-.162 2.675-.033.275.033-.276zm-4.131.72q-.05.317-.108.633.058-.316.108-.633m3.691 2-.031.139zm-.705 2.631-.027.084zm-1.209 3.068-.101.21zm-1.246 2.368-.14.226zm-5.064.353-.166.213zm-.602.74q-.174.208-.353.412.179-.203.353-.412m4.54.66-.087.122zm-.352.479-.166.223zm-1.276 1.607q-.094.112-.19.223.096-.11.19-.223m-.465.53-.097.105z" style="paint-order:stroke fill markers"/></g><path fill="#387fe7" d="M51.093 12.912a27 27 0 0 0-38.185 0 27 27 0 0 0 0 38.185 27 27 0 0 0 38.185 0l-2.828-2.828c8.982-8.983 8.982-23.545 0-32.527zm7.799 16.704.016.232zm.103 2.672c0 .09-.006.179-.008.268zm-.163 2.674-.033.276zm-.439 2.72-.032.14zm-.706 2.632-.026.084zm-3.582 7.19-.084.12zm-1.626 2.087-.19.22z" style="paint-order:stroke fill markers"/><path fill="#fff" d="M40.002 30.002a4 4 0 0 0-4 4v4h-2v8h12v-8h-2v-4a4 4 0 0 0-4-4m0 2a2 2 0 0 1 2 2v4h-4v-4a2 2 0 0 1 2-2m-10 0c-7.756 0-14 6.244-14 14h16v-2h-13.82a11.96 11.96 0 0 1 11.82-10c.686 0 1.352.074 2 .196v-2.024a13 13 0 0 0-2-.172m0-14c-3.324 0-6 2.676-6 6s2.676 6 6 6 6-2.676 6-6-2.676-6-6-6m0 2c2.216 0 4 1.784 4 4s-1.784 4-4 4-4-1.784-4-4 1.784-4 4-4"/></svg>