<svg width="64" height="64" version="1.1" xmlns="http://www.w3.org/2000/svg">
 <rect x="5" y="5" width="54" height="54" rx="27" ry="27" fill="#3e4245" stroke-width="1.0385" style="paint-order:stroke markers fill"/>
 <path d="m16 15h19v2h-19z" fill="#ffffff" stroke-width=".88976"/>
 <circle cx="40" cy="16" r="2" fill="#72d406"/>
 <circle cx="47" cy="16" r="2" fill="#72d406"/>
 <path d="m11 31h24v2h-24z" fill="#ffffff"/>
 <circle cx="40" cy="32" r="2" fill="#72d406"/>
 <circle cx="47" cy="32" r="2" fill="#72d406"/>
 <path d="m16 47h19v2h-19z" fill="#ffffff" stroke-width=".88976"/>
 <path d="m6.9062 22c-0.38634 0.97362-0.71934 1.9738-0.99219 3h52.172c-0.27285-1.0262-0.60584-2.0264-0.99219-3zm-1.2344 16c0.23061 1.0234 0.51676 2.0249 0.85938 3h50.938c0.34261-0.97508 0.62876-1.9766 0.85938-3z" opacity=".25" stroke-width="1.1094" style="paint-order:fill markers stroke"/>
 <circle cx="40" cy="48" r="2" fill="#72d406"/>
 <circle cx="47" cy="48" r="2" fill="#72d406"/>
 <circle cx="46" cy="46" r="18" fill="#5687e3" fill-rule="evenodd" style="paint-order:fill markers stroke"/>
 <path d="m48 32.156v5.844h6v2h-6v4h11.842a14 14 0 0 0-1.842-5.172v-0.01a14 14 0 0 0-0.03-0.043 14 14 0 0 0-5e-3 -0.012 14 14 0 0 0-0.156-0.23 14 14 0 0 0-0.616-0.914 14 14 0 0 0-0.322-0.389 14 14 0 0 0-0.564-0.68 14 14 0 0 0-0.457-0.453 14 14 0 0 0-0.541-0.53 14 14 0 0 0-0.436-0.352 14 14 0 0 0-0.66-0.532 14 14 0 0 0-0.2-0.13 14 14 0 0 0-0.833-0.553h-0.016a14 14 0 0 0-5.164-1.844zm-4 8e-3a14 14 0 0 0-5.156 1.836h-0.026a14 14 0 0 0-4.818 4.82v0.027a14 14 0 0 0-1.838 5.153h5.968a4 4 0 0 1-0.13-1v-1a4 4 0 0 1 4-4h2zm-2 7.836a2.014 2.014 0 0 0-0.59 0.09 1.994 1.994 0 0 0-0.7 0.38 2 2 0 0 0-0.491 0.623 1.994 1.994 0 0 0-0.219 0.907v1a2 2 0 0 0 0.273 1h3.727v-4zm-9.842 8a14 14 0 0 0 1.842 5.172v0.01a14 14 0 0 0 0.03 0.042 14 14 0 0 0 0.161 0.243 14 14 0 0 0 0.616 0.914 14 14 0 0 0 0.322 0.388 14 14 0 0 0 0.564 0.68 14 14 0 0 0 0.457 0.453 14 14 0 0 0 0.541 0.531 14 14 0 0 0 0.436 0.352 14 14 0 0 0 0.66 0.531 14 14 0 0 0 0.2 0.131 14 14 0 0 0 0.833 0.553h0.016a14 14 0 0 0 5.164 1.844v-5.844h-6v-2h6v-4zm15.842 0v4h2a2.014 2.014 0 0 0 0.59-0.09 1.994 1.994 0 0 0 0.7-0.381 2 2 0 0 0 0.491-0.623 1.994 1.994 0 0 0 0.22-0.906v-1a2 2 0 0 0-0.274-1zm5.871 0a4 4 0 0 1 0.13 1v1a4 4 0 0 1-4 4h-2v5.836a14 14 0 0 0 5.154-1.836h0.026a14 14 0 0 0 4.819-4.82v-0.028a14 14 0 0 0 1.838-5.152z" fill="#ffffff" fill-rule="evenodd" style="paint-order:fill markers stroke"/>
</svg>
