<svg xmlns="http://www.w3.org/2000/svg" width="64" height="64"><rect width="55.999" height="55.999" x="4" y="4" fill="#86aeff" ry="28" style="paint-order:stroke markers fill"/><path d="M32 4c-5.96 0-11.47 1.85-16 5h32c-4.53-3.15-10.04-5-16-5" opacity=".35" style="paint-order:stroke markers fill"/><rect width="10" height="2" x="27" y="5.972" opacity=".35" ry="1.002" style="paint-order:stroke markers fill"/><g transform="translate(18.583 16.977)"><path fill="currentColor" d="M18.426 6.77c-1.593.86-3.66 2.088-5.66 3.892-2.013 1.815-3.91 4.173-5.201 7.236a20.7 20.7 0 0 0-1.207 3.942q-.126-.48-.254-.924c-.576-1.98-1.245-3.48-2.4-4.627a1 1 0 1 0-1.407 1.422c.812.804 1.35 1.922 1.887 3.764.525 1.804 1.027 4.255 1.795 7.548.039 1.34 2.039 1.316 2.045-.025.326-4.103 1.558-7.064 3.082-9.17a13.2 13.2 0 0 1 5.113-4.234c1.749-.821 3.445-1.158 4.664-1.203" style="color:#fcfcfc"/><circle cx="22" cy="10" r="8" fill="#f55" style="paint-order:markers stroke fill"/></g></svg>