<svg width="64" height="64" xmlns="http://www.w3.org/2000/svg"><rect x="5" y="5" width="54" height="54" ry="27" fill="#ececec"/><path d="M32 8c13.296 0 24 10.704 24 24S45.296 56 32 56 8 45.296 8 32 18.704 8 32 8z" opacity=".15"/><path d="M36 36 18 46l10-18z" fill="#3a3c3d"/><path d="m28 28 18-10-10 18z" fill="#d52337"/><path d="M33 12h-2V8h2z" fill="#4d4d4d"/><path d="M34 32a2 2 0 0 1-2 2 2 2 0 0 1-2-2 2 2 0 0 1 2-2 2 2 0 0 1 2 2z" fill="#bdc3c7"/><path d="M33 32a1 1 0 0 1-1 1 1 1 0 0 1-1-1 1 1 0 0 1 1-1 1 1 0 0 1 1 1z" fill="#9fa5a8"/><path d="M12 31v2H8v-2zm44 0v2h-4v-2zM33 56h-2v-4h2z" fill="#4d4d4d"/></svg>