<svg width="64" height="64" xmlns="http://www.w3.org/2000/svg"><rect x="6" y="6" width="52" height="52" rx="2" ry="2" fill="#3e4245" style="paint-order:stroke markers fill"/><path d="M12 15h24v2H12z" fill="#fff"/><circle cx="43" cy="16" r="2" fill="#72d406"/><circle cx="51" cy="16" r="2" fill="#72d406"/><g fill="#fff"><path d="M12 31h24v2H12z"/><circle cx="43" cy="32" r="2"/><circle cx="51" cy="32" r="2"/><path d="M12 47h24v2H12z"/></g><g fill-rule="evenodd"><rect x="6" y="22" width="52" height="3" rx="0" ry="0" fill="#00000f" opacity=".5" style="paint-order:fill markers stroke"/><rect x="6" y="38" width="52" height="3" rx="0" ry="0" fill="#00000f" opacity=".5" style="paint-order:fill markers stroke"/><circle cx="46" cy="46" r="18" fill="#3f9cd3" style="paint-order:fill markers stroke"/></g><path d="m52 33-4 4-4 2-2 2-10 2v4l2 2v2l2 2v2l2 2h14l2 2 6-6-2-2-2-10-4 4-4 2-2 2-9.308 1.864-.692-.692V48.64l8.988-1.8 2.2-2.2 4-2 3.284-3.284L54 37l-4 4-4 2-2 2-9.308 1.864-.692-.692V44.64l8.988-1.8 2.2-2.2 4-2 3.284-3.284z" fill="#fff"/></svg>