<svg width="64" height="64" version="1.1" xmlns="http://www.w3.org/2000/svg">
 <path d="m8.9531 17.998a27 27 0 0 0-3.953 14.002 27 27 0 0 0 27 27 27 27 0 0 0 27-27 27 27 0 0 0-3.943-14.002 27 27 0 0 0-2e-3 0z" fill="#f0f0f0" style="paint-order:stroke fill markers"/>
 <path d="m32.002 5.0004a27.001 27.001 0 0 0-23.048 12.998h46.104a27.001 27.001 0 0 0-23.056-13.002z" fill="#666666" stroke-width="3.7796" style="paint-order:stroke markers fill"/>
 <rect x="44.002" y="12" width="3.001" height="3.001" ry="1.5005" opacity=".35" stroke-width="3.7796" style="paint-order:stroke markers fill"/>
 <rect x="38" y="12" width="3.001" height="3.001" ry="1.5005" opacity=".35" stroke-width="3.7796" style="paint-order:stroke markers fill"/>
 <rect x="31.998" y="12" width="3.001" height="3.001" ry="1.5005" opacity=".35" stroke-width="3.7796" style="paint-order:stroke markers fill"/>
 <g stroke-width=".58">
  <path d="M12 27h3.529l4.118 11.429 4.117-11.43h3.53L21.41 43h-3.529z" fill="#ef4a5b"/>
  <path d="m24.942 43 5.882-16h3.53L28.47 43zm11.765 0 5.882-16h3.53l-5.883 16z" fill="#3e4143"/>
  <path d="m21.412 43 5.882-16h3.53L24.94 43zm11.765 0 5.882-16h3.53l-5.883 16z" fill="#949b9d"/>
  <path d="M36.706 43h-3.53l-5.882-16h3.53zm11.765 0h-3.53L39.06 27h3.53z" fill="#babfc2"/>
  <path d="m30.824 27 5.882 16h3.53l-5.883-16zm11.765 0 5.882 16h3.53l-5.883-16z" fill="#535353"/>
 </g>
</svg>
