<svg width="64" height="64" xmlns="http://www.w3.org/2000/svg"><defs><linearGradient id="a" x1="39.154" x2="59" y1="26" y2="26" gradientUnits="userSpaceOnUse"><stop offset="0"/><stop stop-opacity="0" offset="1"/></linearGradient></defs><g transform="translate(270.4 69.763)"><path d="M-244.5-25.929c-.52 0-.9.378-.9.834v10.955l-4.078.377h-.022c-.52 0-.9.378-.9.834v1.166h24v-1.166c0-.456-.381-.834-.9-.834h-.024l-4.076-.377v-10.955c0-.456-.38-.834-.9-.834z" fill="#c4c7cc"/><rect x="-268.4" y="-63.763" width="60" height="40" rx="2" ry="2" fill="#2f3337"/><path d="M-265.4-60.763h54v34h-54z" fill="#1a1c1f" fill-rule="evenodd"/><path transform="translate(-270.4 -69.763)" d="M55.117 9a46.405 46.405 0 0 1-15.963 34H59V9h-3.883z" fill="url(#a)" opacity=".15"/></g><g opacity=".5"><path d="M15.998 10.999h20.001v2H15.998zm0 12.001h16.001v2H15.998zm0 4h16.001v2H15.998zm0 4h12.001v2H15.998zm0-16h16.001v2H15.998zm0 4h12.001v2H15.998zm0 16h20.001v2.001H15.998zm0 4.001h12.001v2H15.998z" fill="#fff"/><path d="M7.999 10.999h6v2h-6zm0 4h6v2h-6zm0 4h6v2h-6zm0 4h6V25h-6zm0 4.001h6v2h-6zm0 4h6v2h-6zm0 4h6v2h-6zm0 4.001h6v2h-6z" fill="#41f045"/></g></svg>