<svg width="64" height="64" version="1.1" xmlns="http://www.w3.org/2000/svg">
 <rect x="5" y="5" width="54" height="54" rx="27" ry="27" fill="#3e4245" stroke-width="1.0385" style="paint-order:stroke markers fill"/>
 <path d="m16 15h19v2h-19z" fill="#ffffff" stroke-width=".88976"/>
 <circle cx="40" cy="16" r="2" fill="#72d406"/>
 <circle cx="47" cy="16" r="2" fill="#72d406"/>
 <path d="m11 31h24v2h-24z" fill="#ffffff"/>
 <circle cx="40" cy="32" r="2" fill="#72d406"/>
 <circle cx="47" cy="32" r="2" fill="#72d406"/>
 <path d="m16 47h19v2h-19z" fill="#ffffff" stroke-width=".88976"/>
 <path d="m6.9062 22c-0.38634 0.97362-0.71934 1.9738-0.99219 3h52.172c-0.27285-1.0262-0.60584-2.0264-0.99219-3zm-1.2344 16c0.23061 1.0234 0.51676 2.0249 0.85938 3h50.938c0.34261-0.97508 0.62876-1.9766 0.85938-3z" opacity=".25" stroke-width="1.1094" style="paint-order:fill markers stroke"/>
 <circle cx="40" cy="48" r="2" fill="#72d406"/>
 <circle cx="47" cy="48" r="2" fill="#72d406"/>
 <circle cx="46" cy="46" r="18" fill="#5687e3" fill-rule="evenodd" style="paint-order:fill markers stroke"/>
 <path d="m33.975 34a17 17 0 0 0-1.975 2.36v19.25a17 17 0 0 0 1.973 2.39h24.053a17 17 0 0 0 1.975-2.36v-19.251a17 17 0 0 0-1.973-2.389zm1.44 2h21.172l-10.587 10.586-10.584-10.586zm-1.415 1.414 7.868 7.867-7.868 9.18zm24 0v17.051l-7.867-9.184zm-14.715 9.286 2.715 2.714 2.715-2.715 7.969 9.301h-21.371l7.973-9.3z" fill="#ffffff" fill-rule="evenodd" style="paint-order:fill markers stroke"/>
</svg>
