<svg width="64" height="64" version="1.1" xmlns="http://www.w3.org/2000/svg">
 <rect x="5" y="5" width="54" height="54" rx="27" ry="27" fill="#343739" stroke-width="1.0385"/>
 <path d="m30 10.094c-10.584 0.94594-18.96 9.3221-19.906 19.906h19.906v-19.906zm4 0v19.906h19.906c-0.94594-10.584-9.3221-18.96-19.906-19.906zm-23.906 23.906c0.94594 10.584 9.3221 18.96 19.906 19.906v-19.906h-19.906zm23.906 0v19.906c10.584-0.94594 18.96-9.3221 19.906-19.906h-19.906z" fill="#38aaeb"/>
 <path d="m40 14v2h-20c-1.2206-0.0029-2.3751 0.55439-3.132 1.512-0.56232 0.70734-0.8683 1.5844-0.868 2.488v10c6.06e-4 0.22796 0.02068 0.45546 0.06 0.68 0.06745 0.39389 0.19351 0.77546 0.374 1.132 0.6821 1.3424 2.0603 2.188 3.566 2.188h22c0.34354 0.0013 0.68099 0.09085 0.98 0.26 0.14026 0.07875 0.27053 0.1741 0.388 0.284 0.40328 0.37682 0.63214 0.90407 0.632 1.456v6c0 1.1046-0.89543 2-2 2h-18v-2l-6 4 6 4v-2h20c1.0826 0.0028 2.1196-0.43557 2.872-1.214 0.46636-0.4807 0.80468-1.0707 0.984-1.716 0.096111-0.34852 0.14455-0.70847 0.144-1.07v-10c-6.06e-4 -0.22796-0.02068-0.45546-0.06-0.68-0.06745-0.39389-0.19351-0.77546-0.374-1.132-0.6821-1.3424-2.0603-2.188-3.566-2.188h-22c-0.34354-0.0013-0.68099-0.09085-0.98-0.26-0.14026-0.07875-0.27053-0.1741-0.388-0.284-0.40328-0.37682-0.63214-0.90407-0.632-1.456v-6c0-1.1046 0.89543-2 2-2h18v2l6-4z" fill="#ffffff"/>
</svg>
