<svg xmlns="http://www.w3.org/2000/svg" width="64" height="64"><rect width="55.999" height="55.999" x="4" y="4" fill="#86aeff" ry="28" style="paint-order:stroke markers fill"/><path d="M32 4c-5.96 0-11.47 1.85-16 5h32c-4.53-3.15-10.04-5-16-5" opacity=".35" style="paint-order:stroke markers fill"/><rect width="10" height="2" x="27" y="5.972" opacity=".35" ry="1.002" style="paint-order:stroke markers fill"/><path fill="#fff" d="M13.643 15a25 25 0 0 0-1.672 2h12.03v-2H13.642zM9.53 21a25 25 0 0 0-.867 2H14v-2zM18 21v2h24v-2zM7.992 25c-.19.656-.361 1.322-.498 2H14v-2zM18 25v2h36v-2zM7.182 29a25 25 0 0 0-.158 2h6.977v-2zM18 29v2h32v-2zM7.023 33q.04 1.01.159 2H14v-2zM18 33v2h20v-2zM7.494 37c.137.678.308 1.343.498 2H14v-2zM18 37v2h28v-2zm-9.337 4q.39 1.023.867 2H14v-2zM18 41v2h24v-2zm-7.38 4q.628 1.035 1.351 2h2.03v-2zM18 45v2h28v-2zm-4.355 4q.176.189.355.373V49zM18 49v2h24v-2z" opacity=".5" style="paint-order:stroke markers fill"/></svg>