<svg width="64" height="64" version="1.1" xmlns="http://www.w3.org/2000/svg">
 <circle cx="32" cy="32" r="27" fill="#7bbbeb" style="paint-order:stroke fill markers"/>
 <path d="M36 38h15v4H36zm-23 0h15v4H13zm0-16h15v4H13zm23 0h15v4H36zm0 8h15v4H36zm-23 0h15v4H13z" fill="#39719b"/>
 <path d="m32 8a24 24 0 0 0-24 24 24 24 0 0 0 24 24 24 24 0 0 0 24-24 24 24 0 0 0-24-24zm0 2a22 22 0 0 1 22 22 22 22 0 0 1-22 22 22 22 0 0 1-22-22 22 22 0 0 1 22-22z" fill="#333333" stroke-width=".88889" style="paint-order:stroke fill markers"/>
 <path d="M19 11a1 .875 0 0 0-1 .875v40.25a1 .875 0 0 0 2 0v-40.25A1 .875 0 0 0 19 11zm6 0a1 .875 0 0 0-1 .875v40.25a1 .875 0 0 0 2 0v-40.25A1 .875 0 0 0 25 11zm14 0a1 .875 0 0 0-1 .875v40.25a1 .875 0 0 0 2 0v-40.25A1 .875 0 0 0 39 11zm6 0a1 .875 0 0 0-1 .875v40.25a1 .875 0 0 0 2 0v-40.25A1 .875 0 0 0 45 11z" fill="#fff"/>
 <rect x="31" y="9" width="2" height="46" rx="0" ry="0" fill="#333333" fill-rule="evenodd" stop-color="#000000" stroke-linecap="round" stroke-linejoin="round" stroke-width="2" style="paint-order:stroke fill markers"/>
</svg>
