<svg width="64" height="64" version="1.1" xmlns="http://www.w3.org/2000/svg">
 <rect x="5" y="5" width="54" height="54" rx="27" ry="27" fill="#3e4245" stroke-width="1.0385" style="paint-order:stroke markers fill"/>
 <path d="m16 15h19v2h-19z" fill="#ffffff" stroke-width=".88976"/>
 <circle cx="40" cy="16" r="2" fill="#72d406"/>
 <circle cx="47" cy="16" r="2" fill="#72d406"/>
 <path d="m11 31h24v2h-24z" fill="#ffffff"/>
 <circle cx="40" cy="32" r="2" fill="#72d406"/>
 <circle cx="47" cy="32" r="2" fill="#72d406"/>
 <path d="m16 47h19v2h-19z" fill="#ffffff" stroke-width=".88976"/>
 <path d="m6.9062 22c-0.38634 0.97362-0.71934 1.9738-0.99219 3h52.172c-0.27285-1.0262-0.60584-2.0264-0.99219-3zm-1.2344 16c0.23061 1.0234 0.51676 2.0249 0.85938 3h50.938c0.34261-0.97508 0.62876-1.9766 0.85938-3z" opacity=".25" stroke-width="1.1094" style="paint-order:fill markers stroke"/>
 <circle cx="40" cy="48" r="2" fill="#72d406"/>
 <circle cx="47" cy="48" r="2" fill="#72d406"/>
 <circle cx="46" cy="46" r="18" fill="#5687e3" fill-rule="evenodd" style="paint-order:fill markers stroke"/>
 <path d="M36 34c-1.108 0-2 .892-2 2v20c0 1.108.892 2 2 2h20c1.108 0 2-.892 2-2V38h-9.984l-4-4-.016.016V34h-8zm1 2h6.184l2.003 2H44v.016L43.984 38l-4 4H36v-5c0-.554.446-1 1-1zm-1 8h20v11c0 .554-.446 1-1 1H37c-.554 0-1-.446-1-1V44z" fill="#fff"/>
</svg>
