<svg width="64" height="64" version="1.1" xmlns="http://www.w3.org/2000/svg">
 <circle cx="32" cy="32" r="27" fill="#ececec" stroke-width="3.7796" style="paint-order:stroke fill markers"/>
 <path d="m25.996 9.998v2h19.197a23.964 23.964 0 0 0-3.7109-2h-15.486zm-3.9961 0.22852a23.964 23.964 0 0 0-3.1699 1.7734h1.166v2h-2v2h2v2h-2v-2h-2v2h-2v-1.8008a23.964 23.964 0 0 0-1.9961 2.6309v1.1699h10v-9.7734zm-4.0039 3.7734v-1.375a23.964 23.964 0 0 0-1.8008 1.375h1.8008zm8 1.998v2h25.445a23.964 23.964 0 0 0-1.6055-2h-23.84zm-13.996 6v2h16v-2h-16zm20 0v20h20v-20h-20zm1.998 2h16v16h-16v-16zm-21.998 4v2h16v-2h-16zm0 6v2h16v-2h-16zm0 6v2h16v-2h-16zm0.62109 6.002a23.964 23.964 0 0 0 1.5742 2h35.609a23.964 23.964 0 0 0 1.5742-2h-38.758zm6.209 6a23.964 23.964 0 0 0 3.7539 2h18.832a23.964 23.964 0 0 0 3.7539-2h-26.34z" fill="#000000" opacity=".25"/>
 <path d="m35.996 25.998h12.004v12.004h-12.004z" fill="#7cd1cc" fill-rule="evenodd"/>
</svg>
