<svg width="64" height="64" version="1.1" xmlns="http://www.w3.org/2000/svg" xmlns:xlink="http://www.w3.org/1999/xlink">
 <rect x="4" y="4" width="55.999" height="55.999" ry="28" fill="#f0f0f0" stroke-width="3.9198" style="paint-order:stroke markers fill"/>
 <path d="m32 4c-5.9602 0-11.47 1.8495-16 5h32c-4.5305-3.1505-10.04-5-16-5z" opacity=".35" stroke-width="6.8086" style="paint-order:stroke markers fill"/>
 <rect x="27" y="5.9718" width="10" height="2" ry="1.0019" opacity=".35" stroke-width="3.7796" style="paint-order:stroke markers fill"/>
 <g transform="matrix(.57143 0 0 .57142 -206.04 -262.74)">
  <path d="m403.57 487.8c-1.662 0-3 1.338-3 3v50c0 1.662 1.338 3 3 3h38c1.662 0 3-1.338 3-3v-39l-14-14z" fill="#59bc04"/>
  <path d="m444.57 501.8-14-14v14z" fill="#313437" fill-rule="evenodd" opacity=".35"/>
  <path d="m391.57 487.8c-1.662 0-3 1.338-3 3v50c0 1.662 1.338 3 3 3h38c1.662 0 3-1.338 3-3v-39l-14-14z" fill="#1da7f7"/>
  <path d="m432.57 501.8-14-14v14z" fill="#313437" fill-rule="evenodd" opacity=".35"/>
  <path d="m404.57 503.8c-1.108 0-2 0.892-2 2s0.892 2 2 2 2-0.892 2-2-0.892-2-2-2zm10 0-4 4 4 4-4 4 4 4 8-8-4-4zm-14 12c-1.108 0-2 0.892-2 2s0.89201 2 2 2 2-0.892 2-2-0.892-2-2-2zm8 8c-1.108 0-2 0.892-2 2s0.892 2 2 2 2-0.892 2-2-0.892-2-2-2z" fill="#fff"/>
 </g>
</svg>
