<svg width="64" height="64" version="1.1" xmlns="http://www.w3.org/2000/svg">
 <circle cx="32" cy="32" r="27" fill="#ececec" style="paint-order:stroke fill markers"/>
 <path d="m38.08 8.8145-12.367 0.03125c-0.17609 0.047941-0.35732 0.11021-0.53516 0.16211a24 24 0 0 0-6.1777 2.8203v4.168l-2 0.003906v5h30v-5h-2v-4.1465a24 24 0 0 0-5.3086-2.5625c-0.54021-0.17464-1.0809-0.33753-1.6113-0.47656z" fill="#2a2a2a" style="isolation:auto;mix-blend-mode:normal"/>
 <path d="m32 7c-3.9851 0.00231-7.4589 0.95725-11 2.7852v10.215h22v-10.197c-3.5402-1.8343-7.0128-2.7953-11-2.8027z" color="#000000" fill="#fff" style="isolation:auto;mix-blend-mode:normal;paint-order:markers stroke fill"/>
 <path d="m16 40-2.7286 3.5099c0.88838 1.4488 1.9416 2.7898 3.1387 3.9961h31.174c1.3409-1.3503 2.501-2.8688 3.4512-4.5176l-2.0353-2.9884z" fill="#333" style="isolation:auto;mix-blend-mode:normal"/>
 <path d="m17 41-2.8401 7.0121c4.5438 5.0735 11.029 7.9775 17.84 7.9883 6.9039-0.0077 13.47-2.9881 18.021-8.1797l-3.0209-6.8207z" color="#000000" fill="#fff" style="isolation:auto;mix-blend-mode:normal;paint-order:markers stroke fill"/>
 <path d="m11.271 20c-2.1261 3.643-3.2544 7.782-3.2715 12 0.00381 3.8682 0.94257 7.6783 2.7363 11.105l3.2637-4.1055h36l3.2578 4.1035c1.7955-3.4261 2.7363-7.2354 2.7422-11.104-0.009925-4.2158-1.1302-8.3547-3.248-12z" fill="#333" style="isolation:auto;mix-blend-mode:normal"/>
 <path d="m15.456 37.727h33.09c0.742 0 1.272 0.53 1.272 1.273h-35.635c0-0.743 0.53-1.273 1.273-1.273z" color="#000000" display="block" fill-opacity=".417" overflow="visible" style="isolation:auto;mix-blend-mode:normal;paint-order:fill markers stroke"/>
 <rect x="37" y="27" width="12" height="4" ry="2" fill="#31a6da" opacity=".5" stroke-width="2" style="paint-order:markers stroke fill"/>
 <circle cx="47" cy="29" r="4" fill="#31a6da" stroke-width="2" style="paint-order:markers stroke fill"/>
 <g>
  <rect x="14" y="23" width="2" height="12" opacity=".35" style="paint-order:stroke fill markers"/>
  <rect x="18" y="23" width="2" height="12" opacity=".35" style="paint-order:stroke fill markers"/>
  <rect x="22" y="23" width="2" height="12" opacity=".35" style="paint-order:stroke fill markers"/>
 </g>
</svg>
