<svg xmlns="http://www.w3.org/2000/svg" width="64" height="64"><defs><radialGradient id="a" cx="0" cy="0" r="1" gradientTransform="rotate(-58.142 58.033 2.988)scale(30.051 46.994)" gradientUnits="userSpaceOnUse"><stop offset="0" stop-color="#ffd580"/><stop offset=".094" stop-color="#f6c592"/><stop offset=".205" stop-color="#ebb6a2"/><stop offset=".324" stop-color="#dfa5af"/><stop offset=".429" stop-color="#d397be"/><stop offset=".534" stop-color="#c486cb"/><stop offset=".649" stop-color="#b578d9"/><stop offset=".771" stop-color="#a166e5"/><stop offset=".891" stop-color="#8b57f2"/><stop offset="1" stop-color="#704cff"/></radialGradient></defs><rect width="54" height="54" x="5" y="5" fill="#f4f2f8" fill-rule="evenodd" rx="27" ry="27" style="paint-order:stroke fill markers"/><path fill="url(#a)" d="M24.826 18.548c2.511-2.511 3.767-3.767 5.215-4.237a6.34 6.34 0 0 1 3.92 0c1.447.47 2.703 1.726 5.214 4.237l6.278 6.278c2.511 2.511 3.767 3.767 4.237 5.215a6.34 6.34 0 0 1 0 3.919c-.47 1.448-1.726 2.703-4.237 5.215l-6.278 6.277c-2.511 2.512-3.767 3.767-5.215 4.238a6.34 6.34 0 0 1-3.92 0c-1.447-.47-2.703-1.726-5.214-4.238l-1.18-1.323c-.715-.8-1.072-1.2-1.326-1.656a4.8 4.8 0 0 1-.492-1.29c-.113-.51-.113-1.046-.113-2.12V24.938c0-1.073 0-1.61.113-2.119.1-.452.266-.886.492-1.29.254-.455.611-.856 1.326-1.656z"/><path fill="#dec2e4" d="M24.826 18.548c2.511-2.511 3.767-3.767 5.215-4.237a6.34 6.34 0 0 1 3.92 0c1.447.47 2.703 1.726 5.214 4.237l6.278 6.278c2.511 2.511 3.767 3.767 4.237 5.215a6.34 6.34 0 0 1 0 3.919c-.47 1.448-1.726 2.703-4.237 5.215l-6.278 6.277c-2.511 2.512-3.767 3.767-5.215 4.238a6.34 6.34 0 0 1-3.92 0c-1.447-.47-2.703-1.726-5.214-4.238l-1.18-1.323c-.715-.8-1.072-1.2-1.326-1.656a4.8 4.8 0 0 1-.492-1.29c-.113-.51-.113-1.046-.113-2.12V24.938c0-1.073 0-1.61.113-2.119.1-.452.266-.886.492-1.29.254-.455.611-.856 1.326-1.656z"/><path fill="#c486cb" d="M24.377 18.996c1.256-1.256 1.884-1.883 2.607-2.119a3.17 3.17 0 0 1 1.96 0c.724.236 1.352.863 2.608 2.119l9.416 9.417c1.256 1.255 1.884 1.883 2.119 2.607a3.17 3.17 0 0 1 0 1.96c-.235.724-.863 1.351-2.119 2.607l-9.416 9.417c-1.256 1.255-1.884 1.883-2.608 2.118a3.17 3.17 0 0 1-1.96 0c-.724-.235-1.351-.863-2.607-2.118l-5.83-5.83c-2.51-2.511-3.766-3.767-4.237-5.215a6.34 6.34 0 0 1 0-3.919c.47-1.448 1.726-2.703 4.238-5.215z"/><path fill="#a188fc" d="M32 14c-.661 0-1.322.104-1.959.31-1.448.471-2.703 1.726-5.215 4.237l-1.181 1.324c-.715.8-1.072 1.201-1.327 1.656-.225.404-.39.84-.49 1.291-.113.51-.113 1.044-.113 2.117V32H50c0-.661-.104-1.322-.31-1.96-.471-1.447-1.726-2.703-4.237-5.214l-6.28-6.28c-2.51-2.51-3.766-3.765-5.214-4.235a6.3 6.3 0 0 0-1.96-.311"/><path fill="#704cff" d="M27.965 16.723c-.33 0-.662.05-.98.154-.724.236-1.352.864-2.608 2.12l-5.83 5.827c-2.511 2.512-3.766 3.767-4.236 5.215-.207.637-.31 1.3-.31 1.961h29.241c0-.33-.053-.662-.156-.98-.235-.724-.862-1.352-2.117-2.608l-9.418-9.416c-1.256-1.255-1.884-1.884-2.608-2.119a3.2 3.2 0 0 0-.978-.154z"/></svg>