<svg width="64" height="64" version="1.1" viewBox="0 0 16.933 16.933" xmlns="http://www.w3.org/2000/svg" xmlns:xlink="http://www.w3.org/1999/xlink">
 <circle cx="8.4665" cy="8.4665" r="7.1436" fill="#b3b3b3" style="paint-order:stroke fill markers"/>
 <path d="m8.467 3.439a1.32 1.32 0 0 0-1.323 1.323v3.798a2.646 2.646 0 0 0-1.323 2.288 2.646 2.646 0 0 0 2.646 2.645 2.646 2.646 0 0 0 2.645-2.645 2.646 2.646 0 0 0-1.322-2.29v-3.796a1.32 1.32 0 0 0-1.323-1.323zm0 0.794c0.307 0 0.529 0.222 0.529 0.53v4.254l0.397 0.23c0.573 0.33 0.925 0.939 0.926 1.601a1.84 1.84 0 0 1-1.852 1.852 1.84 1.84 0 0 1-1.852-1.851c0-0.663 0.353-1.27 0.926-1.601l0.396-0.23v-4.256c0-0.307 0.223-0.529 0.53-0.529z" opacity=".5"/>
 <path d="m7.937 6.614v2.405l-0.396 0.229c-0.573 0.33-0.925 0.938-0.926 1.6a1.84 1.84 0 0 0 1.852 1.852 1.84 1.84 0 0 0 1.852-1.852 1.85 1.85 0 0 0-0.926-1.602l-0.397-0.229v-2.403z" fill="#f55"/>
 <path d="m11.377 3.968h2.117v0.529h-2.117zm0 1.059h2.117v0.529h-2.117zm0 1.058h2.117v0.529h-2.117zm0 1.058h2.117v0.529h-2.117zm0 1.059h2.117v0.529h-2.117z" opacity=".5" style="paint-order:stroke fill markers"/>
 <circle cx="4.4982" cy="4.4982" r=".529" opacity=".5" style="paint-order:stroke fill markers"/>
 <circle cx="4.4982" cy="4.4982" r=".265" fill="#f55" style="paint-order:stroke fill markers"/>
</svg>
