<svg width="64" height="64" version="1.1" viewBox="0 0 16.933 16.933" xmlns="http://www.w3.org/2000/svg" xmlns:xlink="http://www.w3.org/1999/xlink">
 <circle cx="8.4665" cy="8.4665" r="7.1436" fill="#f9f9f9" style="paint-order:stroke fill markers"/>
 <g transform="matrix(.91011 0 0 .91011 .57631 -254.83)" color="#000000">
  <path d="m8.306 283.78c-1.411 0-2.547 0.811-2.547 1.82v0.793h-0.794c-1.007 0-1.819 1.136-1.819 2.546v0.728c0 1.41 0.812 2.547 1.82 2.547h6.614v-6.615c0-1.008-1.136-1.819-2.547-1.819z" fill="#3776ab" overflow="visible"/>
  <path d="m9.033 294.82c1.411 0 2.547-0.81 2.547-1.819v-0.793h0.794c1.007 0 1.819-1.136 1.819-2.547v-0.728c0-1.41-0.812-2.546-1.82-2.546h-0.793v1.455c0 0.806-0.65 1.455-1.455 1.455h-2.91s-1.456 0-1.456 1.456v2.248c0 1.008 1.136 1.82 2.547 1.82z" fill="#ffd343" overflow="visible"/>
  <circle cx="7.611" cy="285.33" r=".529" fill="#fff" overflow="visible"/>
  <circle cx="9.744" cy="293.52" r=".546" fill="#fff" overflow="visible"/>
 </g>
</svg>
