<svg xmlns="http://www.w3.org/2000/svg" width="64" height="64" viewBox="0 0 16.933 16.933"><circle cx="8.467" cy="8.467" r="7.144" fill="#e6e6e6"/><circle cx="8.467" cy="8.467" r="6.085" fill="#f0f0f0"/><path fill="silver" fill-opacity=".812" d="M4.925 4.557c-.129.141-.299.286-.402.425.11.206.205.035.318-.078.081-.107.322-.222.107-.329zm-.286.552c-.09-.216-.212-.06-.31.055-.191.054-.072.322.05.21zm.585-.857c-.078.107-.27.221-.276.323.11.216.213-.024.324-.112.142-.086.024-.125-.048-.211"/><path fill-opacity=".2" d="M4.639 5.11c-.088-.217-.212-.062-.31.054-.191.054-.072.322.05.21.086-.087.173-.18.26-.264"/><path fill-opacity=".1" d="M4.925 4.557c-.129.141-.299.286-.402.425.11.206.205.035.318-.078.081-.107.322-.222.107-.329z"/><path fill="#333" d="M5.48 4.32c-.236.105-.378.346-.57.514l-.594.606c-.236.228.3.307.08.506.096.238.336.384.498.58l2.52 2.569c.216-.06.335.056.48.228.122.196.373.262.506.041.319-.332.653-.651.962-.99.065-.211-.19-.319-.297-.467-.228-.111.035-.336-.199-.464L5.977 4.498c-.162-.045-.28.058-.384-.131z"/><path fill="silver" fill-opacity=".753" d="M12.467 12.785c-.17-.352-.506-.715-.925-.705-.19.012.221.185.037.355.023.345.627.392.888.35"/><path fill="silver" fill-opacity=".753" d="m8.908 8.845-.485.495 2.815 2.871c.248-.226.62-.13.845.078.162.134.299.303.384.496.223-.157.156-.616-.104-.682-1.166-.612-2.167-1.515-2.99-2.536a4.4 4.4 0 0 1-.465-.722"/><path fill="silver" fill-opacity=".753" d="M8.908 8.845c.527.977 1.355 1.755 2.208 2.448.437.34.898.66 1.407.883-.013-.317-.236-.47-.53-.387-.218-.177.147-.408-.172-.55l-2.63-2.681z"/><path fill="#fff" fill-opacity=".326" d="M8.908 8.845c.527.977 1.355 1.755 2.208 2.448.437.34.898.66 1.407.883-.013-.317-.236-.47-.53-.387-.218-.177.147-.408-.172-.55l-2.63-2.681z"/><path fill="#333" d="m10.343 11.298.767-.783c.197.106.062.212-.057.318l-.583.595zm.639.652.768-.783c.197.106.062.212-.057.318l-.583.595z"/><path fill-opacity=".074" d="M12.467 12.785c-.17-.352-.506-.715-.925-.705-.19.012.221.185.037.355.023.345.627.392.888.35"/><path fill="#fff" fill-opacity=".31" d="M5.48 4.32c-.224.095-.356.323-.537.48 1.416.806 2.61 1.97 3.571 3.277.196.135.32.747.52.64.113-.148.325-.249.345-.445-.1-.197-.3-.329-.444-.497.177-.195-.11-.347-.22-.486L5.977 4.498c-.162-.046-.28.058-.384-.131z"/><path fill-opacity=".4" d="M7.726 9.151c.113-.52-.189-1.023-.449-1.451-.544-.793-1.265-1.524-2.179-1.871-.205-.061-.465-.123-.654.001-.134.232.164.363.283.524l2.687 2.74c.124.153.23-.115.312.057"/></svg>