<svg xmlns="http://www.w3.org/2000/svg" width="64" height="64" viewBox="0 0 16.933 16.933"><circle cx="8.466" cy="8.466" r="7.144" fill="#df3c3c" style="paint-order:stroke fill markers"/><g fill="#fff" stroke-width=".875"><path d="M8.643 4.824s.235 2.194-1.434 5.092-2.16 2.51-2.335 2.407c-.176-.1-.4-.422.34-1.077.74-.652 1.029-.64 1.029-.64s-.677.414-.942.814c-.263.403-.477.654-.414.766s.82-.463 1.133-.952c.498-.777 1.44-2.222 1.879-3.6s.742-2.808.742-2.808"/><path d="M12.943 9.83s-.037.101-.495.062-2.228-.588-3.18-1.715S8.239 5.503 8.17 4.695c-.064-.806.297-.583.348-.48.082.067.122.288.122.288s-.028-.33-.172-.471c-.143-.14-.271-.143-.414.1s-.21.921-.091 1.574c.116.654.599 2.15 1.199 2.841.599.693 1.799 1.297 2.685 1.475s1.095-.191 1.095-.191"/><path d="M7.335 9.932s1.692-.539 3.294-.688c1.602-.15 2.153.012 2.295.125.14.113.14.238.14.238s.18-.175.061-.352c-.1-.184-.254-.337-1.522-.299s-1.36.087-2.526.301c-1.166.213-1.743.678-1.743.678"/></g></svg>