<?xml version="1.0" encoding="UTF-8" standalone="no"?>
<svg
   width="64"
   height="64"
   version="1.1"
   id="svg1"
   xmlns:xlink="http://www.w3.org/1999/xlink"
   xmlns="http://www.w3.org/2000/svg"
   xmlns:svg="http://www.w3.org/2000/svg">
  <defs
     id="defs1">
    <linearGradient
       id="LinearGradient1">
      <stop
         stop-opacity=".8"
         offset="0"
         id="stop1" />
      <stop
         stop-opacity=".2"
         offset="1"
         id="stop2" />
    </linearGradient>
    <linearGradient
       id="linearGradient2059"
       x1="30"
       x2="2"
       y1="30"
       y2="2"
       gradientUnits="userSpaceOnUse"
       xlink:href="#LinearGradient1" />
    <linearGradient
       id="linearGradient3261"
       x1="30"
       x2="10"
       y1="30"
       y2="10"
       gradientUnits="userSpaceOnUse"
       xlink:href="#LinearGradient1" />
    <linearGradient
       xlink:href="#LinearGradient1"
       id="linearGradient3"
       gradientUnits="userSpaceOnUse"
       x1="30"
       y1="30"
       x2="2"
       y2="2" />
    <linearGradient
       xlink:href="#LinearGradient1"
       id="linearGradient4"
       gradientUnits="userSpaceOnUse"
       x1="30"
       y1="30"
       x2="2"
       y2="2" />
    <linearGradient
       xlink:href="#LinearGradient1"
       id="linearGradient5"
       gradientUnits="userSpaceOnUse"
       x1="30"
       y1="30"
       x2="2"
       y2="2" />
  </defs>
  <circle
     cx="32"
     cy="32"
     r="27"
     fill="#ffc831"
     color="#000000"
     id="circle1"
     style="display:inline;fill:#525252;fill-opacity:1" />
  <g
     transform="matrix(0.11732188,0,0,0.11732188,13.216767,-20.630594)"
     stroke-linecap="round"
     stroke-linejoin="bevel"
     id="g33">
    <g
       transform="matrix(10,0,0,10,0,-2596.8)"
       stroke-opacity="0.2"
       id="g9"
       style="display:inline">
      <path
         transform="translate(0,288.53)"
         d="M 5.5,5 C 5.5,5 4,5 4,6.5 4,8 5.5,8 5.5,8 h 4 C 14,14 13,14.5 13,14.5 H 5.5 c 0,0 -1.5,0 -1.5,1.5 0,2 1.5,1.5 1.5,1.5 H 13 c 0,0 1,0.5 -3.5,6.5 h -4 C 5.5,24 4,24 4,25.5 4,27 5.5,27 5.5,27 h 5 C 20,16 12,16 21.5,27 h 5 c 0,0 1.5,0 1.5,-1.5 C 28,24 26.5,24 26.5,24 h -4 C 18,18 19,17.5 19,17.5 h 7.5 c 0,0 1.5,0 1.5,-1.5 0,-1.5 -1.5,-1.5 -1.5,-1.5 H 19 c 0,0 -1,-0.5 3.5,-6.5 h 4 C 26.5,8 28,8 28,6.5 28,5 26.5,5 26.5,5 h -5 C 12,16 20,16 10.5,5 Z"
         fill="#ffffff"
         fill-rule="evenodd"
         stroke="#000000"
         stroke-width="0.8"
         style="display:inline;fill:#ffffff;fill-opacity:1;stroke-width:1.62225;stroke-dasharray:none;paint-order:stroke fill markers"
         id="path4" />
      <g
         fill="none"
         id="g8">
        <g
           stroke="url(#linearGradient2059)"
           id="g7"
           style="display:none;stroke:url(#linearGradient2059)">
          <path
             transform="translate(0,288.53)"
             d="M 5.5,5 C 5.5,5 4,5 4,6.5 4,8 5.5,8 5.5,8 h 4 C 14,14 13,14.5 13,14.5 H 5.5 c 0,0 -1.5,0 -1.5,1.5 0,2 1.5,1.5 1.5,1.5 H 13 c 0,0 1,0.5 -3.5,6.5 h -4 C 5.5,24 4,24 4,25.5 4,27 5.5,27 5.5,27 h 5 C 20,16 12,16 21.5,27 h 5 c 0,0 1.5,0 1.5,-1.5 C 28,24 26.5,24 26.5,24 h -4 C 18,18 19,17.5 19,17.5 h 7.5 c 0,0 1.5,0 1.5,-1.5 0,-1.5 -1.5,-1.5 -1.5,-1.5 H 19 c 0,0 -1,-0.5 3.5,-6.5 h 4 C 26.5,8 28,8 28,6.5 28,5 26.5,5 26.5,5 h -5 C 12,16 20,16 10.5,5 Z"
             stroke-width="0.6"
             style="stroke:url(#linearGradient3);paint-order:stroke fill markers"
             id="path5" />
          <path
             transform="translate(0,288.53)"
             d="M 5.5,5 C 5.5,5 4,5 4,6.5 4,8 5.5,8 5.5,8 h 4 C 14,14 13,14.5 13,14.5 H 5.5 c 0,0 -1.5,0 -1.5,1.5 0,2 1.5,1.5 1.5,1.5 H 13 c 0,0 1,0.5 -3.5,6.5 h -4 C 5.5,24 4,24 4,25.5 4,27 5.5,27 5.5,27 h 5 C 20,16 12,16 21.5,27 h 5 c 0,0 1.5,0 1.5,-1.5 C 28,24 26.5,24 26.5,24 h -4 C 18,18 19,17.5 19,17.5 h 7.5 c 0,0 1.5,0 1.5,-1.5 0,-1.5 -1.5,-1.5 -1.5,-1.5 H 19 c 0,0 -1,-0.5 3.5,-6.5 h 4 C 26.5,8 28,8 28,6.5 28,5 26.5,5 26.5,5 h -5 C 12,16 20,16 10.5,5 Z"
             style="stroke:url(#linearGradient4);paint-order:stroke fill markers"
             id="path6" />
          <path
             transform="translate(0,288.53)"
             d="M 5.5,5 C 5.5,5 4,5 4,6.5 4,8 5.5,8 5.5,8 h 4 C 14,14 13,14.5 13,14.5 H 5.5 c 0,0 -1.5,0 -1.5,1.5 0,2 1.5,1.5 1.5,1.5 H 13 c 0,0 1,0.5 -3.5,6.5 h -4 C 5.5,24 4,24 4,25.5 4,27 5.5,27 5.5,27 h 5 C 20,16 12,16 21.5,27 h 5 c 0,0 1.5,0 1.5,-1.5 C 28,24 26.5,24 26.5,24 h -4 C 18,18 19,17.5 19,17.5 h 7.5 c 0,0 1.5,0 1.5,-1.5 0,-1.5 -1.5,-1.5 -1.5,-1.5 H 19 c 0,0 -1,-0.5 3.5,-6.5 h 4 C 26.5,8 28,8 28,6.5 28,5 26.5,5 26.5,5 h -5 C 12,16 20,16 10.5,5 Z"
             stroke-width="1.4"
             style="stroke:url(#linearGradient5);paint-order:stroke fill markers"
             id="path7" />
        </g>
        <path
           transform="translate(0,288.53)"
           d="M 5.5,5 C 5.5,5 4,5 4,6.5 4,8 5.5,8 5.5,8 h 4 C 14,14 13,14.5 13,14.5 H 5.5 c 0,0 -1.5,0 -1.5,1.5 0,2 1.5,1.5 1.5,1.5 H 13 c 0,0 1,0.5 -3.5,6.5 h -4 C 5.5,24 4,24 4,25.5 4,27 5.5,27 5.5,27 h 5 C 20,16 12,16 21.5,27 h 5 c 0,0 1.5,0 1.5,-1.5 C 28,24 26.5,24 26.5,24 h -4 C 18,18 19,17.5 19,17.5 h 7.5 c 0,0 1.5,0 1.5,-1.5 0,-1.5 -1.5,-1.5 -1.5,-1.5 H 19 c 0,0 -1,-0.5 3.5,-6.5 h 4 C 26.5,8 28,8 28,6.5 28,5 26.5,5 26.5,5 h -5 C 12,16 20,16 10.5,5 Z"
           stroke="url(#linearGradient3261)"
           stroke-width="1.8"
           style="display:none;stroke:url(#linearGradient3261);paint-order:stroke fill markers"
           id="path8" />
      </g>
    </g>
    <g
       transform="matrix(10,0,0,10,0.1,-2596.7)"
       stroke="#000000"
       stroke-opacity="0.2"
       id="g21"
       style="display:inline">
      <g
         stroke-width="2.8"
         id="g14"
         style="display:inline">
        <circle
           cx="5"
           cy="295.03"
           fill="url(#linearGradient4867)"
           style="fill:#000000;fill-opacity:1;stroke:#000000;stroke-width:2.7189;stroke-dasharray:none;stroke-opacity:0.357955;paint-order:stroke fill markers"
           id="ellipse14"
           r="1.5" />
        <circle
           cx="5"
           cy="304.53"
           fill="url(#linearGradient4867)"
           style="fill:#000000;fill-opacity:1;stroke:#000000;stroke-width:2.7189;stroke-dasharray:none;stroke-opacity:0.357955;paint-order:stroke fill markers"
           id="circle5"
           r="1.5" />
        <circle
           cx="5"
           cy="314.03"
           fill="url(#linearGradient4867)"
           style="fill:#000000;fill-opacity:1;stroke:#000000;stroke-width:2.7189;stroke-dasharray:none;stroke-opacity:0.357955;paint-order:stroke fill markers"
           id="circle6"
           r="1.5" />
        <circle
           cx="27"
           cy="295.03"
           fill="url(#linearGradient4867)"
           style="fill:#000000;fill-opacity:1;stroke:#000000;stroke-width:2.7189;stroke-dasharray:none;stroke-opacity:0.357955;paint-order:stroke fill markers"
           id="circle7"
           r="1.5" />
        <circle
           cx="27"
           cy="304.53"
           fill="url(#linearGradient4867)"
           style="fill:#000000;fill-opacity:1;stroke:#000000;stroke-width:2.7189;stroke-dasharray:none;stroke-opacity:0.357955;paint-order:stroke fill markers"
           id="circle8"
           r="1.5" />
        <circle
           cx="27"
           cy="314.03"
           fill="url(#linearGradient4867)"
           style="fill:#000000;fill-opacity:1;stroke:#000000;stroke-width:2.7189;stroke-dasharray:none;stroke-opacity:0.357955;paint-order:stroke fill markers"
           id="circle9"
           r="1.5" />
      </g>
    </g>
    <g
       transform="matrix(10,0,0,10,0,-2596.8)"
       fill="none"
       stroke="#ffffff"
       stroke-width="1.2"
       id="g32"
       style="display:inline">
      <circle
         cx="27"
         cy="314.03"
         style="paint-order:stroke fill markers"
         id="ellipse27"
         r="1.5" />
      <circle
         cx="27"
         cy="304.53"
         style="paint-order:stroke fill markers"
         id="ellipse28"
         r="1.5" />
      <circle
         cx="27"
         cy="295.03"
         style="paint-order:stroke fill markers"
         id="ellipse29"
         r="1.5" />
      <circle
         cx="5"
         cy="314.03"
         style="paint-order:stroke fill markers"
         id="ellipse30"
         r="1.5" />
      <circle
         cx="5"
         cy="304.53"
         style="paint-order:stroke fill markers"
         id="ellipse31"
         r="1.5" />
      <circle
         cx="5"
         cy="295.03"
         style="paint-order:stroke fill markers"
         id="ellipse32"
         r="1.5" />
    </g>
  </g>
</svg>
