<svg width="64" height="64" version="1.1" xmlns="http://www.w3.org/2000/svg">
 <circle cx="32" cy="32" r="27" fill="#525252"/>
 <path d="m19.084 18.379c-1.3524 0-2.4648 1.1125-2.4648 2.4648s1.1125 2.4629 2.4648 2.4629c1.3524 0 2.4629-1.1105 2.4629-2.4629s-1.1105-2.4648-2.4629-2.4648zm25.811 0c-1.3524 0-2.4648 1.1125-2.4648 2.4648 0 1.3524 1.1125 2.4629 2.4648 2.4629 1.3524 0 2.4629-1.1105 2.4629-2.4629s-1.1105-2.4648-2.4629-2.4648zm-22.965 0.70508c0.32656 0.51664 0.51953 1.1235 0.51953 1.7715 0 0.63861-0.18791 1.2366-0.50586 1.748h2.4199c5.2795 7.0393 4.1055 7.625 4.1055 7.625h-6.5391c0.32675 0.51643 0.51953 1.1233 0.51953 1.7715 0 0.63799-0.18652 1.2366-0.50391 1.748h6.5234s1.174 0.58763-4.1055 7.627h-2.4336c0.32656 0.51664 0.51953 1.1235 0.51953 1.7715 0 0.63799-0.18652 1.2366-0.50391 1.748h3.5898c11.146-12.905 1.7607-12.905 12.906 0h3.6133c-0.31708-0.51148-0.50391-1.1101-0.50391-1.748 0-0.64796 0.19328-1.2548 0.51953-1.7715h-2.4551c-5.2795-7.0393-4.1074-7.627-4.1074-7.627h6.5469c-0.31708-0.51148-0.50391-1.1101-0.50391-1.748 0-0.64817 0.19309-1.2551 0.51953-1.7715h-6.5625s-1.1721-0.58568 4.1074-7.625h2.4414c-0.31764-0.51149-0.50586-1.1094-0.50586-1.748 0-0.64796 0.19328-1.2548 0.51953-1.7715h-3.6289c-11.146 12.905-1.7607 12.905-12.906 0h-3.6055zm-2.8457 0.70312c0.5915 0 1.0547 0.46515 1.0547 1.0566s-0.46319 1.0547-1.0547 1.0547c-0.5915 0-1.0566-0.46319-1.0566-1.0547s0.46514-1.0566 1.0566-1.0566zm25.811 0c0.5915 0 1.0547 0.46515 1.0547 1.0566s-0.46319 1.0547-1.0547 1.0547-1.0566-0.46319-1.0566-1.0547 0.46514-1.0566 1.0566-1.0566zm-25.811 9.7383c-1.3524 0-2.4648 1.1105-2.4648 2.4629 0 1.3524 1.1125 2.4648 2.4648 2.4648 1.3524 0 2.4629-1.1125 2.4629-2.4648 0-1.3524-1.1105-2.4629-2.4629-2.4629zm25.811 0c-1.3524 0-2.4648 1.1105-2.4648 2.4629 0 1.3524 1.1125 2.4648 2.4648 2.4648 1.3524 0 2.4629-1.1125 2.4629-2.4648 0-1.3524-1.1105-2.4629-2.4629-2.4629zm-25.811 1.4082c0.5915 0 1.0547 0.46319 1.0547 1.0547s-0.46319 1.0566-1.0547 1.0566c-0.5915 0-1.0566-0.46515-1.0566-1.0566s0.46514-1.0547 1.0566-1.0547zm25.811 0c0.5915 0 1.0547 0.46319 1.0547 1.0547s-0.46319 1.0566-1.0547 1.0566-1.0566-0.46515-1.0566-1.0566 0.46514-1.0547 1.0566-1.0547zm-25.811 9.7363c-1.3524 0-2.4648 1.1125-2.4648 2.4648 0 1.3524 1.1125 2.4629 2.4648 2.4629 1.3524 0 2.4629-1.1105 2.4629-2.4629 0-1.3524-1.1105-2.4648-2.4629-2.4648zm25.811 0c-1.3524 0-2.4648 1.1125-2.4648 2.4648 0 1.3524 1.1125 2.4629 2.4648 2.4629 1.3524 0 2.4629-1.1105 2.4629-2.4629 0-1.3524-1.1105-2.4648-2.4629-2.4648zm-25.811 1.4082c0.5915 0 1.0547 0.46514 1.0547 1.0566 0 0.5915-0.46319 1.0547-1.0547 1.0547-0.5915 0-1.0566-0.46319-1.0566-1.0547 0-0.5915 0.46514-1.0566 1.0566-1.0566zm25.811 0c0.5915 0 1.0547 0.46514 1.0547 1.0566 0 0.5915-0.46319 1.0547-1.0547 1.0547s-1.0566-0.46319-1.0566-1.0547c0-0.5915 0.46514-1.0566 1.0566-1.0566z" fill="#ffffff"/>
</svg>
