<svg width="64" height="64" xmlns="http://www.w3.org/2000/svg"><circle cx="32" cy="32" r="27" fill="#38d23a" style="paint-order:stroke fill markers"/><path d="M22 18.938c-3.324 0-6 2.676-6 6v10c0 3.324 2.676 6 6 6h2.941l2.805 4.125 3.309-2.25-1.899-2.79C30.86 38.967 32 37.098 32 34.938v-10c0-3.324-2.676-6-6-6zm16 0v4h-2v4h2v8c0 3.324 2.676 6 6 6l4-1v-3h-4c-1.108 0-2-.892-2-2v-8h6v-4h-6v-4zm-16 4h4c1.108 0 2 .892 2 2v10c0 1.108-.892 2-2 2h-4c-1.108 0-2-.892-2-2v-10c0-1.108.892-2 2-2z" fill="#fafafa"/><g transform="translate(2 2)"><circle cx="49" cy="11" r="9" fill="#37474f"/><path d="M44 5h6v1h-6z" fill="#78909c"/><path d="M52 5h2v1h-2z" fill="#ff7043"/><path d="M46 7h6v1h-6z" fill="#26c6da"/><path d="M44 9h7v1h-7z" fill="#78909c"/><path d="M46 11h7v1h-7zm1 2h8v1h-8z" fill="#9ccc65"/><path d="M46 15h6v1h-6z" fill="#26c6da"/><path d="M48 17h4v1h-4z" fill="#ff7043"/></g></svg>