<svg width="64" height="64" xmlns="http://www.w3.org/2000/svg"><circle cx="32" cy="32" r="27" fill="#38d23a" style="paint-order:stroke fill markers"/><path d="M22 18.938c-3.324 0-6 2.676-6 6v10c0 3.324 2.676 6 6 6h2.941l2.805 4.125 3.309-2.25-1.899-2.79C30.86 38.967 32 37.098 32 34.938v-10c0-3.324-2.676-6-6-6zm16 0v4h-2v4h2v8c0 3.324 2.676 6 6 6l4-1v-3h-4c-1.108 0-2-.892-2-2v-8h6v-4h-6v-4zm-16 4h4c1.108 0 2 .892 2 2v10c0 1.108-.892 2-2 2h-4c-1.108 0-2-.892-2-2v-10c0-1.108.892-2 2-2z" fill="#fafafa"/><g transform="translate(-3 -4)"><rect x="47" y="9" width="15" height="15" ry="0" fill="#64b5f6"/><g transform="translate(0 -1061.5)" fill="#1e88e5"><rect x="60" y="1069.5" width="3" height="3" rx="1" ry="1"/><rect x="46" y="1069.5" width="3" height="3" rx="1" ry="1.001"/><rect x="60" y="1083.5" width="3" height="3" rx="1" ry="1.001"/><rect x="46" y="1083.5" width="3" height="3" rx="1" ry="1"/></g></g></svg>