<svg xmlns="http://www.w3.org/2000/svg" width="64" height="64"><circle cx="32" cy="32" r="27" fill="#f2f2f2"/><path fill="#ccc" d="M25.529 19.243c-1.01 0-2.016.867-1.823 1.9l2.825 15.2-5.063 10.554c-.36.724-.428 1.166-.164 1.796.252.601.903.95 1.58.95h18.233c.677 0 1.328-.349 1.58-.95.265-.63.197-1.072-.163-1.796L37.47 36.343l2.826-15.2c.192-1.033-.813-1.9-1.823-1.9H32z"/><path fill="#e4e4e4" d="M13 40.143v2.172c0 1.052.848 1.9 1.9 1.9h34.2c1.053 0 1.9-.848 1.9-1.9v-2.172z"/><path fill="#077063" d="M14.9 14.357c-1.052 0-1.9.848-1.9 1.9v23.886h38V16.257c0-1.052-.847-1.9-1.9-1.9z"/><path fill="none" stroke="#30dd81" stroke-linecap="round" stroke-width="2.85" d="m23.64 29.015-3.786-5.09m20.506 5.09 3.787-5.09"/><path fill="#30dd81" d="M32.002 25.215c-7.796 0-14.202 5.921-14.928 13.492-.069 1.437 1.448 1.436 1.448 1.436h26.92s1.56 0 1.484-1.509c-.76-7.536-7.152-13.42-14.924-13.42z"/><path fill="#fff" d="M24.536 32a2.036 2.036 0 0 1 2.036 2.036 2.036 2.036 0 0 1-2.036 2.036 2.036 2.036 0 0 1-2.036-2.036A2.036 2.036 0 0 1 24.536 32m14.929 0a2.036 2.036 0 0 1 2.035 2.036 2.036 2.036 0 0 1-2.035 2.036 2.036 2.036 0 0 1-2.036-2.036A2.036 2.036 0 0 1 39.465 32"/></svg>