<svg width="64" height="64" viewBox="0 0 16.933 16.933" xmlns="http://www.w3.org/2000/svg"><circle cx="8.466" cy="8.466" r="7.144" fill="#4d4d4d" style="paint-order:stroke fill markers"/><g stroke-width=".833" paint-order="markers stroke fill"><g fill="#ff3b53" transform="matrix(1.2 0 0 1.2 -1.693 -336.19)"><rect x="7.673" y="283.24" width="1.587" height="1.587" rx=".265" ry=".265"/><rect x="9.26" y="283.24" width="1.587" height="1.587" rx=".265" ry=".265"/><rect x="10.848" y="283.24" width="1.587" height="1.587" rx=".265" ry=".265"/><rect x="10.848" y="284.83" width="1.587" height="1.587" rx=".265" ry=".265"/></g><g fill="#1cbedd" transform="matrix(1.2 0 0 1.2 -1.693 -336.19)"><rect x="7.673" y="286.42" width="1.587" height="1.587" rx=".265" ry=".265"/><rect x="7.673" y="288" width="1.587" height="1.587" rx=".265" ry=".265"/><rect x="9.26" y="288" width="1.587" height="1.587" rx=".265" ry=".265"/><rect x="9.26" y="289.59" width="1.587" height="1.587" rx=".265" ry=".265"/></g><g fill="#f5ab00" transform="matrix(1.2 0 0 1.2 -1.693 -336.19)"><rect x="7.673" y="289.59" width="1.587" height="1.587" rx=".265" ry=".265"/><rect x="6.085" y="289.59" width="1.587" height="1.587" rx=".265" ry=".265"/><rect x="6.085" y="288" width="1.587" height="1.587" rx=".265" ry=".265"/><rect x="4.498" y="289.59" width="1.587" height="1.587" rx=".265" ry=".265"/></g></g></svg>