<svg width="64" height="64" version="1.1" xmlns="http://www.w3.org/2000/svg">
 <circle cx="32" cy="32" r="27" fill="#86b848" stroke-width="3.7796" style="paint-order:stroke fill markers"/>
 <g transform="matrix(1.3 0 0 1.3 -499.14 -648.94)" stroke-width=".76923">
  <path d="m418.04 516.44 2.8523 1.978-0.75461-3.6264 2.5177-2.5275h-3.3185l-1.2969-3.0769-1.2969 3.0769h-3.3185l2.5177 2.5275-0.75462 3.6264z" fill="#fbde78" stroke-width=".59172"/>
  <g transform="translate(382.57 499.8)">
   <circle cx="15" cy="34" r="3" fill="#f0f0f0"/>
   <path d="m12 22v5h2.5c4.142 0 7.5 3.358 7.5 7.5v2.5h5v-2.5c0-6.904-5.596-12.5-12.5-12.5" fill="#f0f0f0"/>
   <path d="m12 12v5h3a17 17 0 0 1 17 17v3h5v-3a22 22 0 0 0-22-22z" fill="#fff"/>
  </g>
 </g>
</svg>
