<svg width="64" height="64" xmlns="http://www.w3.org/2000/svg"><circle cx="32" cy="32" r="27" fill="#86b848" style="paint-order:stroke fill markers"/><g stroke-width=".769"><path d="m44.312 22.432 3.708 2.571-.981-4.714 3.273-3.286h-4.314l-1.686-4-1.686 4h-4.314l3.273 3.286-.981 4.714z" fill="#fbde78"/><g transform="matrix(1.3 0 0 1.3 -1.799 .8)"><circle cx="15" cy="34" r="3" fill="#f0f0f0"/><path d="M12 22v5h2.5a7.5 7.5 0 0 1 7.5 7.5V37h5v-2.5C27 27.596 21.404 22 14.5 22" fill="#f0f0f0"/><path d="M12 12v5h3a17 17 0 0 1 17 17v3h5v-3a22 22 0 0 0-22-22z" fill="#fff"/></g></g></svg>