<svg xmlns="http://www.w3.org/2000/svg" width="64" height="64"><rect width="54" height="54" x="5" y="5" fill="#f2f2f2" rx="27" ry="27" style="stroke-width:1.03846"/><path fill="#2cd4ed" d="M21.5 28A10.5 10.5 0 0 0 11 38.5 10.5 10.5 0 0 0 21.5 49H32V38.5A10.5 10.5 0 0 0 21.5 28"/><path fill="#3169ff" d="M42.5 28C36.701 28 32 32.701 32 38.5V49h10.5C48.299 49 53 44.299 53 38.5S48.299 28 42.5 28"/><path fill="#1988e0" d="M41.899 19.302a14 14 0 0 0-19.799 0 14 14 0 0 0 0 19.799l9.9 9.9 9.899-9.9a14 14 0 0 0 0-19.799"/><path fill="#3153ff" d="M42.5 28C36.701 28 32 32.701 32 38.5V49l9.9-9.9a14 14 0 0 0 4.086-10.504A10.5 10.5 0 0 0 42.5 28"/><path fill="#0db4e2" d="M21.5 28C27.299 28 32 32.701 32 38.5V49l-9.9-9.9a14 14 0 0 1-4.086-10.504A10.5 10.5 0 0 1 21.5 28"/></svg>