<svg width="64" height="64" version="1.1" xmlns="http://www.w3.org/2000/svg">
 <circle cx="32" cy="32" r="27" fill="#00abb3" style="paint-order:markers stroke fill"/>
 <path d="m27.852 14c-5.5652 2e-6 -9.8516 4.1532-9.8516 9.7188v2.2422c0 4.1107 2.4665 7.647 6 9.2188v-4.0664c-1.454-1.2072-2-3.0668-2-5.1523v-2.2422c0-3.6319 2.2197-5.7188 5.8516-5.7188h8.293c3.6319 0 5.8555 2.0869 5.8555 5.7188v2.2422c0 3.6319-2.2236 6.0497-5.8555 6.0391h-6.1445c0-1.1046-0.89543-2-2-2s-2 0.89543-2 2v12.117c0 0.87186-0.64854 1.8828-2 1.8828s-2-0.65361-2-1.8281v-6.3633c0-1.0287-0.98692-1.8086-2.0156-1.8086-1.0284 0-1.9844 0.77989-1.9844 1.8086v6.582c0 3.0858 2.9142 5.6094 6 5.6094 3.0858 0 6-2.3242 6-5.6094v-8.3906h4v8.3906c0 3.0858 2.9142 5.6094 6 5.6094 3.0858 0 6.0776-2.5245 6-5.6094v-6.582c0-1.0287-0.9713-1.8086-2-1.8086-1.0284 0-2 0.77989-2 1.8086v6.3633c0 1.1745-0.99691 1.8281-2 1.8281s-2.0555-0.8135-2-1.6836v-8.5195c4.4831-1.0273 8-5.0455 8-9.8359v-2.2422c0-5.5655-4.2902-9.7188-9.8555-9.7188zm-13.852 14c-1.1001 0-2 0.91342-2 2.0117v7.0234c0 2.5951 1.6758 4.8176 4 5.6445v-12.668c0-1.0983-0.90022-2.0117-2-2.0117zm36 0c-1.1001 0-2 0.91342-2 2.0117v12.668c2.3242-0.82696 4-3.0495 4-5.6445v-7.0234c0-1.0983-0.90022-2.0117-2-2.0117z" fill="#fff"/>
</svg>
