<svg width="64" height="64" viewBox="0 0 16.933 16.933" xmlns="http://www.w3.org/2000/svg"><circle cx="8.4659996" cy="8.4659996" r="7.1440001" fill="#123547" style="paint-order:stroke markers fill" /><path d="m 12.625447,8.9023042 c -0.64473,0.7967664 -1.341012,1.7073568 -2.7335761,1.7073568 -1.2438485,0 -1.7072995,-1.0761416 -1.7398615,-1.9503245 0.272559,0.5652161 0.805387,1.0229575 1.6367555,1.0018124 1.5988341,-0.050621 2.6948391,-1.4670684 2.6948391,-2.7570516 0,-1.5428887 -1.173363,-2.65581 -3.2106576,-2.65581 -1.456991,0 -3.262193,0.5438142 -4.448459,1.4037951 -0.01289,0.8852797 0.489978,2.0361405 0.6705,1.9096763 1.02841,-0.7252451 1.843887,-1.192103 2.634886,-1.4261933 -1.170858,1.2806223 -3.980074,4.2541366 -4.324021,4.7775866 0.03869,0.480576 0.644706,1.77056 0.941271,1.77056 0.09026,0 0.167625,-0.05056 0.257886,-0.139105 0.84691,-0.933309 1.537302,-1.770094 2.151362,-2.5766466 0.08627,1.1821016 0.678924,2.6272086 2.335776,2.6272086 1.4828546,0 2.9527776,-1.049637 3.6233126,-3.4145965 C 13.19282,8.8896637 12.831774,8.6620162 12.625447,8.9023042 Z M 10.936323,6.9926397 c 0,0.7461457 -0.747893,1.1128982 -1.4312436,1.1128982 -0.365297,0 -0.645895,-0.094076 -0.867834,-0.2162884 0.408345,-0.6064582 0.812553,-1.2283123 1.2468195,-1.8940122 0.7657181,0.1271224 1.0522581,0.544589 1.0522581,0.9974024 z" fill="#ff4438" /></svg>
