<svg width="64" height="64" version="1.1" viewBox="0 0 64 64" xmlns="http://www.w3.org/2000/svg">
 <linearGradient id="b" x1="82.547" x2="75.456" y1="85.636" y2="52.909" gradientUnits="userSpaceOnUse">
  <stop stop-color="#b0b0b0" offset="0"/>
  <stop stop-color="#e4e4e4" offset="1"/>
 </linearGradient>
 <radialGradient id="c" cx="0" cy="0" r="1" gradientTransform="matrix(-271.82 -38.182 10.344 -73.636 114.18 64.364)" gradientUnits="userSpaceOnUse">
  <stop stop-color="#ffffff" stop-opacity=".10196" offset="0"/>
  <stop stop-color="#ffffff" stop-opacity=".007843" offset="1"/>
 </radialGradient>
 <circle cx="32" cy="32" r="27" fill="#cccccc" stroke-linecap="round" stroke-linejoin="round" stroke-width=".75716"/>
 <g transform="matrix(.41667 0 0 .41667 5.3333 2)">
  <path d="m111.78 106.91c0.64454 0 1.25-0.3086 1.6172-0.83985 6.6875-9.6797 10.605-21.418 10.605-34.07 0-33.137-26.863-60-60-60s-60 26.863-60 60c0 12.652 3.918 24.391 10.605 34.07 0.36328 0.53125 0.97266 0.83985 1.6172 0.83985z" fill="#f9f9f9" fill-rule="evenodd"/>
  <path d="m113.53 91.637c0.82422 0 1.5703-0.50781 1.8477-1.2852 2.0508-5.7344 3.1641-11.914 3.1641-18.352 0-30.125-24.418-54.547-54.543-54.547s-54.547 24.422-54.547 54.547c0 6.4375 1.1172 12.617 3.1641 18.352 0.27734 0.77734 1.0234 1.2852 1.8477 1.2852z" fill="#303030" fill-rule="evenodd"/>
  <path d="m113.53 91.637c0.82422 0 1.5703-0.50781 1.8477-1.2852 2.0508-5.7344 3.1641-11.914 3.1641-18.352 0-30.125-24.418-54.547-54.543-54.547s-54.547 24.422-54.547 54.547c0 6.4375 1.1172 12.617 3.1641 18.352 0.27734 0.77734 1.0234 1.2852 1.8477 1.2852z" fill="#241f31" fill-rule="evenodd"/>
  <path d="m105 79.23c1.0898 0.19141 2.1328-0.53516 2.2734-1.6289 0.73828-5.6914 0.34375-11.48-1.1641-17.031-1.6797-6.1953-4.707-11.941-8.8672-16.836-4.1562-4.8906-9.3438-8.8008-15.188-11.457-5.8438-2.6602-12.199-3.9922-18.621-3.9102-6.418 0.08203-12.738 1.582-18.512 4.3867-5.7734 2.8047-10.855 6.8516-14.887 11.848-4.0312 4.9961-6.9102 10.82-8.4297 17.059-1.3633 5.5859-1.6094 11.383-0.72266 17.055 0.16797 1.0898 1.2266 1.7891 2.3125 1.5703l13.184-2.6797c1.082-0.21875 1.7734-1.2734 1.6367-2.3711-0.39062-3.1484-0.20703-6.3477 0.54688-9.4375 0.91016-3.7422 2.6406-7.2383 5.0586-10.234 2.418-3 5.4688-5.4258 8.9297-7.1094 3.4648-1.6836 7.2578-2.582 11.109-2.6328 3.8516-0.05078 7.668 0.75 11.172 2.3438 3.5078 1.5938 6.6172 3.9414 9.1133 6.8789 2.4961 2.9336 4.3125 6.3828 5.3203 10.098 0.83203 3.0742 1.0977 6.2656 0.78906 9.4258-0.10938 1.0977 0.60937 2.1367 1.6953 2.3281z" fill="#3584e4"/>
  <path d="m105 79.23c1.0898 0.19141 2.1328-0.53516 2.2734-1.6289 0.82812-6.3984 0.22656-12.906-1.7656-19.059-1.9961-6.1523-5.3281-11.773-9.75-16.469-0.75781-0.80469-2.0273-0.78125-2.7969 0.015625l-9.3594 9.6641c-0.76953 0.79297-0.74219 2.0547-0.0078 2.8828 2.3867 2.6914 4.1953 5.8516 5.3086 9.2891 1.1133 3.4375 1.5039 7.0586 1.1523 10.641-0.10938 1.0977 0.60937 2.1367 1.6953 2.3281z" fill="#ed333b"/>
  <g fill="#ffffff">
   <path d="m33.914 41.914c0.42969-0.42578 1.1172-0.42578 1.543 0l3.0859 3.0859c0.42578 0.42578 0.42578 1.1172 0 1.543s-1.1172 0.42578-1.543 0l-3.0859-3.0859c-0.42578-0.42578-0.42578-1.1172 0-1.543z"/>
   <path d="m89.457 46.543c-0.42578-0.42578-0.42578-1.1172 0-1.543l3.0859-3.0859c0.42578-0.42578 1.1172-0.42578 1.543 0 0.42578 0.42969 0.42578 1.1172 0 1.543l-3.0859 3.0859c-0.42578 0.42578-1.1172 0.42578-1.543 0z"/>
   <path d="m47.723 32.691c0.55469-0.23047 1.1914 0.03516 1.4219 0.59375l1.6719 4.0312c0.23047 0.55469-0.03516 1.1914-0.58984 1.4219-0.55859 0.23047-1.1953-0.03125-1.4258-0.58984l-1.6719-4.0312c-0.23047-0.55469 0.03516-1.1953 0.59375-1.4258z"/>
   <path d="m97.262 58.223c-0.23047-0.55469 0.03516-1.1953 0.58984-1.4258l4.0312-1.668c0.5586-0.23047 1.1953 0.03125 1.4258 0.58984 0.23047 0.55469-0.0312 1.1953-0.58984 1.4258l-4.0312 1.668c-0.55469 0.23047-1.1953-0.03125-1.4258-0.58984z"/>
   <path d="m80.285 32.691c0.55469 0.23047 0.82031 0.87109 0.58984 1.4258l-1.6719 4.0312c-0.23047 0.55859-0.86719 0.82031-1.4258 0.58984-0.55469-0.23047-0.82031-0.86719-0.58984-1.4219l1.6719-4.0312c0.23047-0.55859 0.86719-0.82422 1.4258-0.59375z"/>
   <path d="m24.695 55.719c0.23047-0.55859 0.87109-0.82031 1.4258-0.58984l4.0312 1.668c0.55859 0.23047 0.82031 0.87109 0.58984 1.4258-0.23047 0.55859-0.86719 0.82031-1.4219 0.58984l-4.0312-1.668c-0.55859-0.23047-0.82422-0.87109-0.59375-1.4258z"/>
   <path d="m64 29.453c0.60547 0 1.0938 0.48828 1.0938 1.0938v4.3633c0 0.60156-0.48828 1.0898-1.0938 1.0898-0.60156 0-1.0898-0.48828-1.0898-1.0898v-4.3633c0-0.60547 0.48828-1.0938 1.0898-1.0938z"/>
  </g>
  <path d="m68.574 74.977c-0.97266 1.4922-2.6602 2.4766-4.5742 2.4766-3.0117 0-5.4531-2.4414-5.4531-5.4531 0-1.7734 0.84766-3.3516 2.1602-4.3477 0.16797-0.19531 0.35938-0.38281 0.5625-0.5625l34.527-29.695c0.64453-0.55469 1.6133-0.51953 2.2148 0.08203 0.59766 0.59766 0.64062 1.5508 0.09766 2.1992l-29.207 34.941c-0.10547 0.125-0.21484 0.24609-0.32812 0.35937z" fill="url(#b)" fill-rule="evenodd"/>
  <path d="m99.996 72c0-0.60156 0.49219-1.0898 1.0937-1.0898h4.3633c0.60156 0 1.0898 0.48828 1.0898 1.0898s-0.48828 1.0898-1.0898 1.0898h-4.3633c-0.60156 0-1.0937-0.48828-1.0937-1.0898z" fill="#ffffff"/>
  <path d="m21.453 72c0-0.60156 0.48828-1.0898 1.0898-1.0898h4.3633c0.60547 0 1.0938 0.48828 1.0938 1.0898s-0.48828 1.0898-1.0938 1.0898h-4.3633c-0.60156 0-1.0898-0.48828-1.0898-1.0898z" fill="#ffffff"/>
  <path d="m109.48 87.273c0.81641 0 1.5547-0.49609 1.8359-1.2617 1.8555-5.0234 2.8672-10.43 2.8672-16.066 0-26.578-22.469-48.129-50.184-48.129s-50.18 21.551-50.18 48.129c0 5.6367 1.0078 11.043 2.8633 16.066 0.28125 0.76562 1.0195 1.2617 1.8359 1.2617z" fill="url(#c)" fill-rule="evenodd"/>
  <path d="m29.09 99.102c0 2.4102-1.9531 4.3633-4.3633 4.3633-2.4102 0-4.3633-1.9531-4.3633-4.3633 0-2.4102 1.9531-4.3672 4.3633-4.3672 2.4102 0 4.3633 1.957 4.3633 4.3672z" fill="#d5d3cf"/>
  <path d="m40 99.102c0 2.4102-1.9531 4.3633-4.3633 4.3633-2.4102 0-4.3633-1.9531-4.3633-4.3633 0-2.4102 1.9531-4.3672 4.3633-4.3672 2.4102 0 4.3633 1.957 4.3633 4.3672z" fill="#d5d3cf"/>
  <path d="m64 69.816c-1.207 0-2.1836 0.98047-2.1836 2.1836s0.97656 2.1836 2.1836 2.1836c1.2031 0 2.1797-0.98047 2.1797-2.1836s-0.97656-2.1836-2.1797-2.1836z" fill="#68676b"/>
 </g>
</svg>
