<svg xmlns="http://www.w3.org/2000/svg" width="64" height="64"><linearGradient id="a" x1="82.547" x2="75.456" y1="85.636" y2="52.909" gradientUnits="userSpaceOnUse"><stop offset="0" stop-color="#b0b0b0"/><stop offset="1" stop-color="#e4e4e4"/></linearGradient><radialGradient id="b" cx="0" cy="0" r="1" gradientTransform="matrix(-271.82 -38.182 10.344 -73.636 114.18 64.364)" gradientUnits="userSpaceOnUse"><stop offset="0" stop-color="#fff" stop-opacity=".102"/><stop offset="1" stop-color="#fff" stop-opacity=".008"/></radialGradient><circle cx="32" cy="32" r="27" fill="#ccc"/><path fill="#f9f9f9" fill-rule="evenodd" d="M51.909 46.546c.268 0 .52-.128.674-.35A24.9 24.9 0 0 0 57 32C57 18.193 45.807 7 32 7S7 18.193 7 32a24.9 24.9 0 0 0 4.419 14.196c.151.222.405.35.674.35z"/><path fill="#303030" fill-rule="evenodd" d="M52.638 40.182a.815.815 0 0 0 .77-.535A22.7 22.7 0 0 0 54.726 32C54.726 19.448 44.552 9.272 32 9.272S9.272 19.448 9.272 32c0 2.682.465 5.257 1.318 7.647a.81.81 0 0 0 .77.535z"/><path fill="#241f31" fill-rule="evenodd" d="M52.638 40.182a.815.815 0 0 0 .77-.535A22.7 22.7 0 0 0 54.726 32C54.726 19.448 44.552 9.272 32 9.272S9.272 19.448 9.272 32c0 2.682.465 5.257 1.318 7.647a.81.81 0 0 0 .77.535z"/><path fill="#3584e4" d="M49.084 35.013a.805.805 0 0 0 .947-.679A18.175 18.175 0 0 0 39.523 15.45a18.186 18.186 0 0 0-21.675 5.135 18.2 18.2 0 0 0-3.513 7.108 18.2 18.2 0 0 0-.3 7.106c.07.455.51.746.963.655l5.493-1.117c.45-.091.739-.53.682-.988a10.92 10.92 0 0 1 2.336-8.196 10.906 10.906 0 0 1 16.801-.217 10.9 10.9 0 0 1 2.546 8.135c-.046.458.254.89.706.97z"/><path fill="#ed333b" d="M49.084 35.013a.805.805 0 0 0 .947-.679 18.2 18.2 0 0 0-4.798-14.803.804.804 0 0 0-1.166.006l-3.9 4.027c-.32.33-.309.856-.003 1.201a10.92 10.92 0 0 1 2.692 8.304c-.045.458.254.89.707.97z"/><path fill="#fff" d="M19.464 19.464a.455.455 0 0 1 .643 0l1.286 1.286a.455.455 0 0 1-.643.643l-1.286-1.286a.455.455 0 0 1 0-.643m23.143 1.929a.455.455 0 0 1 0-.643l1.286-1.286a.455.455 0 0 1 .643.643l-1.286 1.286a.455.455 0 0 1-.643 0m-17.389-5.772a.453.453 0 0 1 .593.248l.696 1.68a.454.454 0 1 1-.84.346l-.696-1.68a.455.455 0 0 1 .247-.594M45.86 26.26a.456.456 0 0 1 .245-.594l1.68-.695a.454.454 0 1 1 .348.84l-1.68.695a.454.454 0 0 1-.594-.246m-7.073-10.639a.456.456 0 0 1 .245.594l-.696 1.68a.454.454 0 1 1-.84-.347l.697-1.68a.454.454 0 0 1 .594-.247m-23.163 9.595a.454.454 0 0 1 .594-.245l1.68.695a.454.454 0 0 1-.347.84l-1.68-.695a.455.455 0 0 1-.247-.595M32 14.272c.252 0 .456.204.456.456v1.818a.455.455 0 0 1-.91 0v-1.818c0-.252.204-.456.454-.456"/><path fill="url(#a)" fill-rule="evenodd" d="M68.574 74.977A5.45 5.45 0 0 1 64 77.454a5.453 5.453 0 0 1-3.293-9.801 6 6 0 0 1 .562-.563l34.527-29.695a1.629 1.629 0 0 1 2.312 2.281L68.903 74.619a6 6 0 0 1-.328.359z" transform="translate(5.333 2)scale(.41667)"/><path fill="#fff" d="M46.999 32c0-.25.205-.454.455-.454h1.818a.454.454 0 0 1 0 .908h-1.818A.456.456 0 0 1 47 32m-32.728 0c0-.25.204-.454.454-.454h1.818a.455.455 0 1 1 0 .908h-1.818a.454.454 0 0 1-.454-.454"/><path fill="url(#b)" fill-rule="evenodd" d="M109.48 87.273c.816 0 1.555-.496 1.836-1.262a46.3 46.3 0 0 0 2.867-16.066c0-26.578-22.469-48.129-50.184-48.129s-50.18 21.551-50.18 48.13a46.3 46.3 0 0 0 2.863 16.065 1.95 1.95 0 0 0 1.836 1.262z" transform="translate(5.333 2)scale(.41667)"/><path fill="#d5d3cf" d="M17.454 43.293a1.818 1.818 0 1 1-3.635 0 1.818 1.818 0 0 1 3.635 0m4.546 0a1.818 1.818 0 1 1-3.636 0 1.818 1.818 0 0 1 3.636 0"/><path fill="#68676b" d="M32 31.09a.91.91 0 0 0 0 1.82.91.91 0 0 0 0-1.82"/></svg>