<svg width="64" height="64" xmlns="http://www.w3.org/2000/svg"><rect x="5" y="5" width="54" height="54" rx="27" ry="27" fill="#3d3846"/><rect x="9" y="9" width="46" height="46" rx="23" ry="23" fill="#f6f5f4" opacity=".06"/><path d="M21.549 45.551a6.84 6.84 0 0 0 1.5-.144c1.536-.316 2.84-.973 3.842-2.138.61-.71 1.122-1.48 1.564-2.29.52-.955.953-1.948 1.332-2.955.462-1.217.855-2.46 1.157-3.717.168-.705-.021-1.146-.849-1.388a40.408 40.408 0 0 0-3.19-.81c-1.787-.369-3.588-.605-5.426-.547-.519.02-1.037.072-1.55.158-1.486.243-2.747.888-3.778 1.908-1.76 1.737-2.46 3.81-2.026 6.172.624 3.376 3.807 5.778 7.424 5.751z" fill="#e9ff61"/><path d="M25.003 19.935c0 .515.072 1.077.223 1.64.29 1.07.768 2.05 1.332 2.977 1.286 2.107 2.906 3.91 4.665 5.585.144.138.315.254.499.343a.617.617 0 0 0 .557.013c.184-.081.348-.198.486-.35a59.79 59.79 0 0 0 1.79-1.914 31.039 31.039 0 0 0 2.29-2.902c.637-.926 1.208-1.9 1.627-2.957.42-1.05.623-2.134.486-3.273-.23-1.879-.997-3.471-2.369-4.72-1.621-1.474-3.51-2.064-5.636-1.735-3.457.535-5.95 3.719-5.95 7.293z" fill="#00d1f8"/><path d="M42.451 45.551a6.84 6.84 0 0 1-1.5-.144c-1.536-.316-2.84-.973-3.843-2.138-.609-.71-1.121-1.48-1.563-2.29a23.376 23.376 0 0 1-1.332-2.955 30.692 30.692 0 0 1-1.157-3.717c-.168-.705.021-1.146.849-1.388 1.05-.31 2.11-.586 3.19-.81 1.787-.369 3.588-.605 5.426-.547.519.02 1.037.072 1.55.158 1.486.243 2.747.888 3.778 1.908 1.76 1.737 2.46 3.81 2.026 6.172-.624 3.376-3.807 5.778-7.424 5.751z" fill="#ff4b4b"/></svg>