<svg width="64" height="64" viewBox="0 0 16.933 16.933" xmlns="http://www.w3.org/2000/svg"><g transform="matrix(1.0384 0 0 1.0385 -.325 -.325)" stroke-width=".963"><circle cx="8.467" cy="8.466" r="6.879" fill="#ebeeef" style="paint-order:markers stroke fill"/><path d="M3.606 3.604a6.88 6.88 0 0 0-2.019 4.862A6.88 6.88 0 0 0 1.7 9.692a4.233 4.23 0 0 0 2.533-3.871 4.233 4.23 0 0 0-.627-2.217zm9.724.003a4.233 4.23 0 0 0-.63 2.214 4.233 4.23 0 0 0 2.53 3.873 6.88 6.88 0 0 0 .116-1.228 6.88 6.88 0 0 0-2.016-4.86z" fill="#334d5c" opacity=".25"/></g><path d="M12.7 10.053a4.234 4.23 0 1 1-8.467 0 4.234 4.23 0 1 1 8.467 0z" fill="#334d5c"/><path d="M11.642 10.053a3.175 3.174 0 1 1-6.35 0 3.175 3.174 0 1 1 6.35 0z" fill="#efc84a"/><path d="M10.054 10.053a1.587 1.587 0 1 1-3.175 0 1.587 1.587 0 1 1 3.175 0z" fill="#334d5c"/><path d="M10.054 3.703a1.587 1.587 0 1 1-3.175 0 1.587 1.587 0 1 1 3.175 0z" fill="#fff"/><path d="M9.525 3.703a1.058 1.058 0 1 1-2.117 0 1.058 1.058 0 1 1 2.117 0z" fill="#334d5c"/><path d="M8.996 3.704a.53.529 0 1 1-1.059 0 .53.529 0 1 1 1.059 0z" fill="#efc84a"/><path d="M5.82 3.968a.265.264 0 1 1-.528 0 .265.264 0 1 1 .529 0zm5.822 0a.265.264 0 1 1-.53 0 .265.264 0 1 1 .53 0zm2.645 6.351a.265.264 0 1 1-.529 0 .265.264 0 1 1 .53 0zm-10.847 0a.265.264 0 1 1-.53 0 .265.264 0 1 1 .53 0z" fill="#334d5c"/></svg>