<svg width="64" height="64" xmlns="http://www.w3.org/2000/svg"><rect x="5" y="5" width="54" height="54" rx="27" ry="27" fill="#f0f0f0"/><path d="M31.964 22.312a2.242 1.542 0 0 0-1.548.451l-18.76 12.894a2.242 1.542 0 0 0 0 2.18l18.76 12.9a2.242 1.542 0 0 0 3.168 0l18.76-12.9a2.242 1.542 0 0 0 0-2.18l-18.76-12.894a2.242 1.542 0 0 0-1.62-.451zm.036 5.25 13.366 9.188L32 45.937 18.634 36.75z" fill="#4b6488"/><path d="M31.964 17.511a2.242 1.542 0 0 0-1.548.451l-18.76 12.894a2.242 1.542 0 0 0 0 2.18l18.76 12.9a2.242 1.542 0 0 0 3.168 0l18.76-12.9a2.242 1.542 0 0 0 0-2.18l-18.76-12.894a2.242 1.542 0 0 0-1.62-.451zm.036 5.25 13.366 9.188L32 41.136 18.634 31.95z" fill="#ffb559"/><path d="M31.964 12.813a2.242 1.542 0 0 0-1.548.451l-18.76 12.894a2.242 1.542 0 0 0 0 2.18l18.76 12.9a2.242 1.542 0 0 0 3.168 0l18.76-12.9a2.242 1.542 0 0 0 0-2.18l-18.76-12.894a2.242 1.542 0 0 0-1.62-.451zm.036 5.25 13.366 9.188L32 36.438l-13.366-9.187z" fill="#6aaddd"/></svg>