<?xml version="1.0" encoding="UTF-8" standalone="no"?>
<svg
   width="64"
   height="64"
   viewBox="0 0 16.933 16.933"
   version="1.1"
   id="svg2"
   sodipodi:docname="riseup-vpn.svg"
   inkscape:version="1.4.1 (93de688d07, 2025-03-30)"
   xmlns:inkscape="http://www.inkscape.org/namespaces/inkscape"
   xmlns:sodipodi="http://sodipodi.sourceforge.net/DTD/sodipodi-0.dtd"
   xmlns="http://www.w3.org/2000/svg"
   xmlns:svg="http://www.w3.org/2000/svg">
  <defs
     id="defs2">
    <mask
       maskUnits="userSpaceOnUse"
       id="mask1">
      <circle
         fill="#f0f0f0"
         style="stroke-width:0.999999;paint-order:stroke fill markers"
         id="circle2"
         r="7.1440001"
         cy="8.4659996"
         cx="8.4659996" />
    </mask>
  </defs>
  <sodipodi:namedview
     id="namedview2"
     pagecolor="#505050"
     bordercolor="#ffffff"
     borderopacity="1"
     inkscape:showpageshadow="0"
     inkscape:pageopacity="0"
     inkscape:pagecheckerboard="1"
     inkscape:deskcolor="#505050"
     inkscape:zoom="9.0708542"
     inkscape:cx="29.765664"
     inkscape:cy="28.497867"
     inkscape:window-width="1920"
     inkscape:window-height="1012"
     inkscape:window-x="0"
     inkscape:window-y="0"
     inkscape:window-maximized="1"
     inkscape:current-layer="svg2" />
  <g
     id="g3"
     inkscape:label="g1"
     mask="url(#mask1)">
    <rect
       style="fill:#4765d9;fill-opacity:1;stroke-width:0.529155"
       id="rect3-6-5"
       width="16.933001"
       height="16.933001"
       x="-4.0389023e-07"
       y="-1.7881393e-07"
       inkscape:label="rect2" />
    <rect
       style="fill:#5677fc;fill-opacity:1;stroke-width:0.374169"
       id="rect3-6"
       width="8.4665003"
       height="16.933001"
       x="0"
       y="1.7763568e-15"
       inkscape:label="rect1" />
  </g>
  <path
     style="fill:#000000;fill-opacity:1;stroke-width:0.0192471"
     d="m 5.3088482,13.161304 c 0,-0.03178 -0.00831,-0.06314 -0.018465,-0.06968 -0.028654,-0.01845 -0.17434,0.03126 -0.2249259,0.07676 -0.040682,0.0366 -0.044135,0.03711 -0.032992,0.0048 0.00684,-0.0198 0.012445,-0.04841 0.012445,-0.06359 0,-0.01518 0.034139,-0.05113 0.075866,-0.07991 0.074074,-0.05109 0.080689,-0.05203 0.2800353,-0.0394 0.1866458,0.01181 0.208301,0.0095 0.2523161,-0.02656 0.02868,-0.02351 0.077436,-0.03976 0.1205844,-0.04017 0.03984,-3.78e-4 0.093647,-0.01333 0.119569,-0.02878 0.027997,-0.01668 0.1007068,-0.02843 0.1791005,-0.02894 0.1311198,-8.58e-4 0.1330347,-0.0016 0.297625,-0.123507 L 6.5356623,12.619719 6.8175714,12.141671 7.0994806,11.663622 7.0153099,11.270805 6.9311393,10.877983 6.6847056,10.609193 6.4382719,10.340402 6.23343,9.9166673 C 6.1207671,9.6836127 6.0187132,9.4537103 6.0066437,9.4057733 5.9348867,9.1207696 5.9353232,9.1216405 5.8146897,9.0228582 5.6471793,8.8856905 5.5185121,8.6685649 5.4543144,8.4147255 5.4003083,8.2011833 5.3648827,7.7039798 5.3652327,7.1644442 L 5.3654063,6.8966509 5.4491177,6.7389125 C 5.4951599,6.6521562 5.6011795,6.485285 5.6847175,6.368088 5.806573,6.1971341 5.8366281,6.141404 5.8367243,6.0862279 5.8371596,5.8400854 5.9629782,5.3970813 6.1185685,5.0939145 6.1684873,4.9966481 6.2195154,4.8684334 6.2319641,4.8089928 6.3007617,4.4804983 6.3056534,4.4721357 6.6255876,4.1360793 L 6.9201375,3.8266861 7.0995461,3.7640382 c 0.1763936,-0.061595 0.1847941,-0.062579 0.4999042,-0.058591 0.3880364,0.00492 0.6369218,0.03358 0.8037408,0.092575 0.1172296,0.041459 0.1325456,0.042545 0.2450848,0.017393 0.1433734,-0.032045 0.6179449,-0.036653 0.8796052,-0.00855 0.3663598,0.039359 0.5149079,0.087495 0.5775589,0.1871554 0.03108,0.049438 0.031,0.053173 -0.0019,0.079067 C 10.0846,4.0880366 9.8739638,4.1681996 9.6354771,4.2512296 9.2332434,4.3912972 9.1894557,4.4112284 9.0293016,4.5271812 8.8607854,4.6491885 8.7833073,4.7393599 8.5735092,5.0576488 c -0.051075,0.077487 -0.050894,0.09295 0.00408,0.3464365 0.032576,0.1502212 0.066964,0.2475606 0.1250545,0.3539771 l 0.08012,0.146779 0.666662,0.4292555 c 0.5319857,0.3425387 0.6590633,0.4321846 0.6290523,0.443756 -0.02068,0.00798 -0.03761,0.018782 -0.03761,0.024015 0,0.00523 0.03989,0.038676 0.08865,0.07432 0.04876,0.035643 0.09754,0.071437 0.108404,0.079543 0.0132,0.00984 0.01133,0.020403 -0.0056,0.031797 -0.01977,0.013292 -0.0054,0.048326 0.06493,0.1585951 0.07371,0.115523 0.0853,0.144836 0.06307,0.1594885 -0.01497,0.00987 -0.03783,0.018086 -0.05079,0.018252 -0.01296,1.657e-4 -0.02357,0.0043 -0.02357,0.00918 0,0.00489 0.05508,0.0911 0.122394,0.1915854 l 0.122394,0.1827008 -0.065,0.029475 -0.065,0.029475 0.102796,0.1670228 0.102795,0.1670232 -0.0565,0.015298 c -0.03108,0.00841 -0.0565,0.01956 -0.0565,0.024768 0,0.00521 0.07771,0.1707503 0.172688,0.3678711 0.15288,0.3172899 0.177689,0.3837798 0.216277,0.579642 l 0.04359,0.2212402 -0.0541,0.1464415 -0.05411,0.1464413 0.08549,0.1432126 c 0.04702,0.078764 0.122507,0.2307038 0.167747,0.3376386 0.07864,0.1859 0.08224,0.202705 0.08183,0.38317 -3.87e-4,0.170375 0.0074,0.213316 0.08013,0.441226 l 0.08056,0.252483 0.350752,0.331168 c 0.192914,0.182143 0.424872,0.420385 0.515464,0.529427 l 0.164712,0.198258 -0.02902,0.0756 c -0.02837,0.0739 -0.02736,0.08017 0.04541,0.279127 0.04094,0.111941 0.07442,0.2103 0.07442,0.218577 0,0.0082 -0.04411,0.08118 -0.09802,0.162005 -0.111172,0.166673 -0.122654,0.171924 -0.382723,0.174974 -0.125771,0.0015 -0.18683,-0.01041 -0.367627,-0.07156 -0.205017,-0.06935 -0.235362,-0.08698 -0.558084,-0.324221 -0.294101,-0.216209 -0.376194,-0.288919 -0.593856,-0.525988 -0.138918,-0.151303 -0.258943,-0.278043 -0.266721,-0.281646 -0.0077,-0.0036 -0.01411,0.142297 -0.01408,0.324222 6.3e-5,0.300011 0.0037,0.336984 0.03916,0.3976 0.0215,0.03676 0.03494,0.08339 0.02986,0.103635 -0.0068,0.02724 0.0087,0.04643 0.05982,0.07379 0.0557,0.02983 0.07725,0.05932 0.111471,0.152585 0.02333,0.06359 0.04205,0.146207 0.04159,0.183606 l -8.22e-4,0.06799 -0.03732,-0.07369 c -0.04089,-0.08072 -0.0576,-0.08866 -0.09299,-0.0442 -0.02758,0.03464 -0.144385,0.03825 -0.3133547,0.0097 -0.091455,-0.01547 -0.1320439,-0.0134 -0.1956101,0.01 -0.044116,0.01623 -0.1385291,0.0295 -0.2098082,0.0295 -0.1176977,0 -0.1295986,-0.0036 -0.1295986,-0.03992 0,-0.06146 -0.05372,-0.06936 -0.1704522,-0.02505 -0.1161265,0.04408 -0.1688963,0.03319 -0.1688963,-0.03488 0,-0.0921 -0.1300967,-0.03847 -0.1621689,0.06686 -0.010411,0.03419 -0.014202,0.03528 -0.028704,0.0082 -0.020506,-0.03819 0.00898,-0.125919 0.062247,-0.185187 0.052144,-0.05802 0.23288,-0.07755 0.4268038,-0.0461 0.1209534,0.01961 0.1628385,0.01891 0.2399591,-0.004 0.079372,-0.02359 0.098787,-0.03937 0.1290481,-0.104936 0.019592,-0.04244 0.067204,-0.130287 0.1058065,-0.195211 0.038603,-0.06493 0.074291,-0.153348 0.079307,-0.196497 0.00504,-0.04315 -0.00299,-0.232566 -0.017761,-0.420926 l -0.02688,-0.342472 -0.066516,-0.08461 C 9.8110239,11.495393 9.641499,11.371023 9.2738116,11.126681 8.9889565,10.937385 8.7437761,10.782506 8.7289662,10.782506 c -0.01481,0 -0.3039448,-0.06195 -0.6425228,-0.137664 -0.338578,-0.07571 -0.619051,-0.134062 -0.6232732,-0.129662 -0.01579,0.01646 0.051862,0.213277 0.1192506,0.346941 l 0.069806,0.138457 -0.012419,0.226643 c -0.014498,0.264608 -0.025085,0.286411 -0.2724652,0.561206 -0.080825,0.08978 -0.2051391,0.251663 -0.2762538,0.359737 -0.071115,0.108074 -0.1673788,0.245131 -0.2139199,0.304572 -0.066939,0.0855 -0.1732171,0.283455 -0.1732171,0.322651 0,0.0039 0.019754,0.0123 0.043899,0.01862 0.024146,0.0063 0.053294,0.03298 0.064777,0.05924 0.026295,0.06016 0.1138699,0.08213 0.1991791,0.04997 0.04701,-0.01773 0.078966,-0.01848 0.1218245,-0.0029 0.040016,0.01454 0.07754,0.01492 0.1205651,0.0012 0.038594,-0.01229 0.1053955,-0.01361 0.1747972,-0.0034 0.1059431,0.0155 0.1163889,0.02203 0.1837187,0.114681 0.039264,0.05404 0.071432,0.114133 0.071484,0.133555 7.98e-5,0.02974 -0.011071,0.02598 -0.070603,-0.02378 -0.055944,-0.04676 -0.2037776,-0.119604 -0.2427422,-0.119604 -0.00388,0 -0.00719,0.03316 -0.00735,0.07369 -1.587e-4,0.04053 -0.00698,0.08467 -0.015164,0.0981 -0.024803,0.04071 -0.1812038,0.05298 -0.2616665,0.02053 -0.056361,-0.02273 -0.1825952,-0.02931 -0.591353,-0.03086 -0.2858329,-10e-4 -0.6039721,-0.0077 -0.7069759,-0.0147 -0.1599295,-0.01087 -0.2051765,-0.0067 -0.3098227,0.02808 -0.1600163,0.05329 -0.169674,0.05235 -0.169674,-0.01647 z"
     id="path3"
     inkscape:label="path1" />
</svg>
