<?xml version="1.0" encoding="UTF-8" standalone="no"?>
<svg
   width="64"
   height="64"
   version="1"
   id="svg3"
   sodipodi:docname="riseup-vpn.svg"
   xml:space="preserve"
   inkscape:version="1.4.1 (93de688d07, 2025-03-30)"
   xmlns:inkscape="http://www.inkscape.org/namespaces/inkscape"
   xmlns:sodipodi="http://sodipodi.sourceforge.net/DTD/sodipodi-0.dtd"
   xmlns="http://www.w3.org/2000/svg"
   xmlns:svg="http://www.w3.org/2000/svg"><sodipodi:namedview
     id="namedview3"
     pagecolor="#505050"
     bordercolor="#ffffff"
     borderopacity="1"
     inkscape:showpageshadow="0"
     inkscape:pageopacity="0"
     inkscape:pagecheckerboard="1"
     inkscape:deskcolor="#505050"
     inkscape:zoom="4.8761522"
     inkscape:cx="43.476904"
     inkscape:cy="39.17023"
     inkscape:window-width="1366"
     inkscape:window-height="844"
     inkscape:window-x="0"
     inkscape:window-y="0"
     inkscape:window-maximized="1"
     inkscape:current-layer="g3" /><defs
     id="defs2"><linearGradient
       id="a"><stop
         offset="0"
         stop-color="#2d2d2d"
         id="stop1" /><stop
         offset="1"
         stop-color="#3f3f3f"
         id="stop2" /></linearGradient></defs><circle
     cx="32"
     cy="32"
     r="26"
     fill="#f7c42a"
     paint-order="markers stroke fill"
     id="circle2"
     style="fill:#5476f7;fill-opacity:1" /><g
     stroke-width=".857"
     color="#000"
     fill="#fff"
     id="g3"
     inkscape:label="g2"><path
       d="m 32,15.084 -14,4.58 c 0,9.64 -0.043,14.925 1.652,18.75 C 21.348,42.242 24.828,44.761 32,48.916 39.172,44.761 42.652,42.242 44.348,38.414 46.043,34.59 46,29.304 46,19.664 Z"
       style="isolation:auto;mix-blend-mode:normal;solid-color:#000000;solid-opacity:1;fill:#ffffff;fill-opacity:1;marker:none"
       overflow="visible"
       opacity="0.5"
       id="path2"
       sodipodi:nodetypes="ccccccc" /><path
       d="M 32,18 20.336,22.083 C 20.336,37.797 19.883,39.003 32,46 44.017,39.054 43.664,37.803 43.664,22.083 Z"
       style="display:inline;isolation:auto;mix-blend-mode:normal;solid-color:#000000;solid-opacity:1;marker:none"
       overflow="visible"
       id="path3"
       sodipodi:nodetypes="ccccc" /><path
       style="display:inline;fill:#5476f7;fill-opacity:1;stroke:none;stroke-width:0.226419"
       d="m 32.625851,26.179167 c 0,0 -0.271409,-0.521031 -0.289509,-0.592891 -0.0181,-0.0719 -0.162852,-0.808476 -0.162852,-0.808476 l 0.180952,-0.323386 0.398074,-0.592883 0.579026,-0.449151 0.144751,-0.05392 1.39328,-0.521021 0.126659,-0.125767 -0.144759,-0.215585 -0.199037,-0.107799 -0.365263,-0.09291 -0.915056,-0.09291 -0.710073,0.0059 -0.488554,0.107792 -0.434266,-0.161688 -0.542832,-0.0719 -0.796156,-0.01797 -0.398082,-0.01797 -0.669489,0.251524 -1.013293,1.1678 -0.126665,0.449151 -0.07237,0.395255 -0.343796,0.736614 -0.217137,0.700675 -0.108565,0.75458 v 0.161698 L 26.9261,27.45443 26.636591,28.047322 v 0.844397 l 0.09046,1.742709 0.162851,0.628839 0.325702,0.574909 0.416173,0.377298 0.180945,0.736589 0.68759,1.509083 0.814256,0.97013 0.05425,0.05393 0.289509,1.455246 -0.995193,1.796631 -0.312417,0.239955 -0.234201,0.187867 -0.401627,-0.011 -0.224037,0.114589 -0.271766,0.01142 -0.164194,0.162251 -0.351582,-0.05247 -0.347664,-0.0167 -0.268206,0.209605 -0.03862,0.3114 0.178269,-0.199944 0.299914,-0.08653 0.03142,0.285809 0.473916,-0.159515 0.271766,-0.01141 0.479466,0.05682 c 0,0 0.415674,-0.02691 0.487628,-0.03467 0.07195,-0.0076 0.513471,0.03501 0.513471,0.03501 l 0.323794,-0.03493 0.1717,0.0719 0.229928,-0.061 0.249537,0.117708 0.359768,-0.03875 0.04643,-0.239955 -0.01372,-0.125034 0.245622,0.08195 0.199488,0.159227 0.129505,0.184859 -0.0076,-0.234215 -0.157282,-0.27213 c 0,0 -0.107598,-0.15109 -0.179552,-0.143313 -0.07195,0.0076 -0.351586,-0.05247 -0.351586,-0.05247 l -0.191987,0.07496 -0.20964,-0.0859 -0.206048,0.112665 -0.189703,-0.07002 -0.09155,-0.170785 -0.131808,-0.04012 0.141644,-0.365968 0.325701,-0.450276 0.434268,-0.71865 0.379981,-0.449176 0.144759,-0.179637 c 0,0 0.180945,-0.269463 0.180945,-0.341341 0,-0.0719 0.03621,-0.826425 0.03621,-0.826425 l -0.235229,-0.4851 -0.108567,-0.395271 2.098964,0.503089 h 0.126659 l 1.791355,1.275585 0.253323,0.323351 0.09046,1.275456 -0.03621,0.287462 -0.126664,0.233567 -0.09058,0.143749 -0.07824,0.201674 -0.05343,0.134847 -0.33245,0.102116 -0.337931,-0.06039 -0.204785,-0.02504 -0.376051,0.05393 -0.158284,0.167924 -0.0609,0.208489 0.04911,0.21078 0.07885,-0.210993 0.107152,-0.142463 0.104864,-0.03305 0.008,0.18037 0.140952,0.08864 0.291429,-0.132573 0.143264,-0.02061 0.04649,0.19301 0.437579,-0.0085 0.296622,-0.09706 0.243194,0.03774 0.353238,0.04004 0.122784,-0.03552 0.09704,-0.08651 0.156843,0.322345 0.002,-0.363345 -0.151926,-0.413834 -0.220388,-0.131719 0.03717,-0.108288 -0.162845,-0.305377 0.01811,-1.167697 0.904727,1.060032 1.194236,0.934251 c 0,0 0.814249,0.287489 0.886621,0.287489 0.07238,0 0.633311,-0.0719 0.633311,-0.0719 l 0.361888,-0.592866 -0.271416,-0.808467 0.108566,-0.26954 -0.579026,-0.754511 -1.226596,-1.23755 -0.293336,-0.972302 0.01811,-0.664753 -0.27141,-0.7007 -0.307609,-0.556901 0.180944,-0.556909 -0.144752,-0.808434 -0.617069,-1.376306 0.227947,-0.03816 -0.382548,-0.656209 0.248537,-0.0782 -0.436909,-0.705726 0.183771,-0.09817 -0.327492,-0.532769 0.106779,-0.05929 -0.39629,-0.318052 0.144758,-0.07454 -1.031386,-0.715983 z"
       id="path5892"
       inkscape:connector-curvature="0"
       sodipodi:nodetypes="csccccccccccccccccccccccccccccccccccccccccccccccccccccccscccccccccccccsccccccccccccscccccccccccccccccccccccccccccccccccccccccccscccccccccccccccccccccccc" /></g></svg>
