<svg xmlns="http://www.w3.org/2000/svg" width="64" height="64"><circle cx="32" cy="32" r="27" fill="#f9f9f9"/><path fill="#263238" d="M15.036 48.557V16.8h25.261c3.349.907 3.038 1.993 3.239 3.054v28.703c-.596 2.181-2.27 2.254-3.887 2.443H18.274c-1.33-.06-2.825-.586-3.238-2.443"/><path fill="#e6e6e6" d="M20.465 15.52v32.766h25.26c3.35-.936 3.038-2.056 3.24-3.15V15.52c-.596-2.25-2.271-2.326-3.887-2.52H23.703c-1.33.061-2.826.604-3.239 2.52z"/><path fill="#ccc" d="M20.465 19.786v.34h28.5v-.34zm0 5.429v.339h28.5v-.34zm0 5.428v.34h28.5v-.34zm0 5.429v.339h28.5v-.34zm0 5.428v.34h28.5v-.34z"/><path fill="#df574d" d="M23.179 13h.678v35.286h-.678z"/><path fill="#37474f" d="M20.465 15.534v32.933c0-1.237-.481-2.896-2.715-2.896s-2.714 1.599-2.714 2.896V15.534C15.036 13 17.75 13 17.75 13s2.715 0 2.715 2.534"/><path fill="#3f3f3f" d="M42.12 23.065c-.047-.375.24-.968.202-1.775-.04-.809-.432-1.936-2.04-2.753l-.088-.044c-1.046-.51-2.572-.875-4.35-.697a10.1 10.1 0 0 0-4.173 1.415 11.2 11.2 0 0 0-3.251 2.965 11 11 0 0 0-1.335 2.606q-.218.617-.354 1.269a7.7 7.7 0 0 0-.154 1.831c.066 1.032.357 2.16 1.008 3.176a5.5 5.5 0 0 0 1.131 1.282c.44.364.942.658 1.49.852.88.303 1.745.303 2.46.189.38-.06.728-.154 1.036-.258.38-.127.728-.275 1.003-.4.6-.277 1.162-.61 1.61-.878s.887-.537 1.309-.756c.25-.126.55-.267.844-.373q.118-.043.236-.076c.293-.086.583-.124.84-.096.22.022.407.098.533.192.054.035.1.085.138.138.034.048.056.094.069.12.013.03.02.095-.003.189a1 1 0 0 1-.145.313 1.8 1.8 0 0 1-.329.347 3.5 3.5 0 0 1-.507.338c-.432.22-.861.366-1.465.604-.547.216-1.2.495-1.813.937-.32.239-.642.537-.918.899a3.7 3.7 0 0 0-.647 1.31c-.12.51-.126 1.079.035 1.625.08.277.205.54.364.774.162.237.365.451.605.622.427.3.897.41 1.304.422h.138c.345-.01.673-.084.973-.19.314-.102.597-.239.841-.36.249-.125.44-.226.641-.31a2 2 0 0 1 .486-.164.75.75 0 0 1 .33.012.36.36 0 0 1 .146.085c.013.007.026.017.035.02.01 0 .018.005.03.002.012-.002 0 .04-.044.095a2 2 0 0 1-.245.225c-.113.09-.268.21-.408.358a1.8 1.8 0 0 0-.4.62c-.094.257-.11.52-.07.75a1.3 1.3 0 0 0 .3.648.95.95 0 0 0 .555.328 1 1 0 0 0 .109.007c.28-.01.394-.238.444-.305-.07-.07-.14-.248-.197-.401l-.017-.05a.6.6 0 0 1-.037-.206.3.3 0 0 1 .034-.13.16.16 0 0 1 .065-.061c.022-.01.06-.042.127-.085.083-.053.142-.083.29-.167.116-.065.287-.165.452-.3s.353-.333.487-.608c.12-.246.178-.518.178-.786a1.9 1.9 0 0 0-.155-.761 2 2 0 0 0-.413-.598 2.1 2.1 0 0 0-.55-.396 2.4 2.4 0 0 0-1.175-.237 3.7 3.7 0 0 0-1.008.199c-.281.1-.572.231-.779.32-.237.1-.42.17-.593.212a.9.9 0 0 1-.376.007l-.034-.01c-.09-.03-.14-.082-.126-.109q.009-.013.01-.046.003-.032.016-.065c.015-.045.04-.123.09-.195.038-.08.1-.17.202-.273.105-.106.241-.212.406-.307.33-.21.725-.367 1.236-.536.473-.158 1.122-.351 1.718-.613a6.3 6.3 0 0 0 .977-.506c.331-.212.659-.472.957-.794a4.4 4.4 0 0 0 .777-1.178c.203-.458.334-.977.347-1.533a4 4 0 0 0-.27-1.524 4.1 4.1 0 0 0-.763-1.257 4.37 4.37 0 0 0-2.278-1.343c-.882-.206-1.71-.13-2.345.012q-.266.06-.5.134a7.5 7.5 0 0 0-1.417.62c-.556.303-1.11.673-1.486.916-.438.283-.83.527-1.224.715a3 3 0 0 1-.566.214q-.238.063-.468.077c-.292.015-.538-.04-.705-.141a1.1 1.1 0 0 1-.288-.24 1.3 1.3 0 0 1-.22-.362 1.9 1.9 0 0 1-.104-.981q.021-.315.125-.629.08-.243.22-.491a4 4 0 0 1 .909-1.074 5.7 5.7 0 0 1 1.942-1.236 6 6 0 0 1 2.138-.401c.821-.006 1.556.143 2.132.214l.049.005c.91.107 1.609-.118 2.228-.431.601-.303 1.139-.711 1.475-.714z"/></svg>