<?xml version="1.0" encoding="UTF-8"?>
<svg width="64" height="64" version="1.1" viewBox="0 0 64 64" xmlns="http://www.w3.org/2000/svg" xmlns:cc="http://creativecommons.org/ns#" xmlns:dc="http://purl.org/dc/elements/1.1/" xmlns:rdf="http://www.w3.org/1999/02/22-rdf-syntax-ns#">
 <metadata>
  <rdf:RDF>
   <cc:Work rdf:about="">
    <dc:format>image/svg+xml</dc:format>
    <dc:type rdf:resource="http://purl.org/dc/dcmitype/StillImage"/>
    <dc:title/>
   </cc:Work>
  </rdf:RDF>
 </metadata>
 <rect x="5" y="5" width="54" height="54" rx="27" ry="27" fill="#8e0404" stroke-width="2.614"/>
 <path d="m26.066 5.6562c-0.84876 0.189-1.6819 0.41718-2.498 0.68359l3.1445 11.742c0.28789 1.0745 0.45054 1.6635-0.80664 3.1621-0.2135 0.2545-0.42199 0.50952-0.58789 0.79688-0.66362 1.1495-0.89018 2.5521-0.51953 3.9355 0.74132 2.7667 3.587 4.4074 6.3535 3.666 2.7667-0.74132 4.4092-3.5831 3.668-6.3496-0.37065-1.3832-1.2686-2.4867-2.418-3.1504-0.28736-0.1659-0.59605-0.28088-0.9082-0.39453-1.8381-0.66921-1.9895-1.2615-2.2773-2.3359l-3.1504-11.756zm31.693 18.201-11.871 3.1816c-1.0745 0.28789-1.6616 0.4525-3.1602-0.80469-0.2545-0.2135-0.51148-0.42394-0.79883-0.58984-1.1495-0.66362-2.5502-0.88823-3.9336-0.51758-2.7667 0.74132-4.4093 3.5831-3.668 6.3496 0.74132 2.7667 3.5851 4.4093 6.3516 3.668 1.3832-0.37065 2.483-1.2665 3.1465-2.416 0.1659-0.28736 0.28479-0.59606 0.39844-0.9082 0.66921-1.8381 1.2596-1.9894 2.334-2.2773l11.854-3.1758c-0.17948-0.85194-0.39504-1.69-0.65234-2.5098zm-33.756 5.127c-0.34336 0.020739-0.69192 0.075475-1.0371 0.16797-1.3832 0.37066-2.485 1.2665-3.1484 2.416-0.1659 0.28736-0.28283 0.59801-0.39648 0.91016-0.6692 1.8381-1.2615 1.9874-2.3359 2.2754l-11.453 3.0703c0.1858 0.85104 0.40831 1.6874 0.67188 2.5059l11.453-3.0703c1.0745-0.28789 1.6616-0.45249 3.1602 0.80469 0.2545 0.2135 0.50951 0.42394 0.79688 0.58984 1.1495 0.66363 2.5521 0.88628 3.9355 0.51562 2.7667-0.74132 4.4074-3.5831 3.666-6.3496-0.64848-2.4201-2.9034-3.9795-5.3105-3.8359h-0.001953zm9.5273 5.498c-0.34398 0.02065-0.69324 0.077262-1.0391 0.16992-2.7667 0.74132-4.4074 3.5851-3.666 6.3516 0.37065 1.3832 1.2686 2.4848 2.418 3.1484 0.28736 0.1659 0.5941 0.28283 0.90625 0.39648 1.8381 0.6692 1.9914 1.2634 2.2793 2.3379l3.0957 11.551c0.85268-0.17598 1.691-0.39065 2.5117-0.64453l-3.1016-11.578c-0.28789-1.0745-0.4525-1.6635 0.80469-3.1621 0.2135-0.2545 0.42199-0.50951 0.58789-0.79688 0.66362-1.1495 0.88824-2.5521 0.51758-3.9355-0.64865-2.4208-2.9066-3.9824-5.3145-3.8379z" fill="#fff" style="paint-order:normal"/>
</svg>
