<?xml version="1.0" encoding="UTF-8" standalone="no"?>
<svg
   width="64"
   height="64"
   viewBox="0 0 16.933 16.933"
   version="1.1"
   id="svg10"
   xml:space="preserve"
   xmlns="http://www.w3.org/2000/svg"
   xmlns:svg="http://www.w3.org/2000/svg"><defs
     id="defs14" /><circle
     cx="8.466"
     cy="8.466"
     r="7.144"
     fill="#c83737"
     style="paint-order:stroke fill markers"
     id="circle2" /><path
     style="fill:#ffffff;stroke-width:0.0140302"
     d="m 6.5652978,12.479908 c -0.085594,-0.06248 -0.316684,-0.172349 -0.4726441,-0.224722 -0.3135728,-0.1053 -0.58051,-0.147469 -0.9971807,-0.157531 -0.2476031,-0.0059 -0.3492892,-0.0027 -0.484346,0.01537 -0.3335486,0.04476 -0.7047584,0.139575 -0.9504887,0.2428 -0.1631593,0.06853 -0.2205755,0.07894 -0.2776707,0.0503 -0.09588,-0.0481 -0.089543,0.113215 -0.089543,-2.27966 V 7.963568 L 3.3925266,7.899659 C 3.5721288,7.7838375 3.8252925,7.6817891 4.0911701,7.6180366 4.726474,7.4657022 5.5481179,7.4963726 6.1170427,7.6936576 6.2449441,7.7380094 6.4990183,7.8624183 6.5805591,7.9206214 l 0.060545,0.043215 v 1.9861417 1.9861449 l 0.1764306,-0.08478 c 0.3992065,-0.191859 0.9464836,-0.327215 1.4048125,-0.347451 0.3185191,-0.01407 0.8014166,0.03946 1.0648462,0.11801 l 0.089034,0.02656 V 9.6598619 c 0,-1.0937224 0.00347,-1.9885878 0.00766,-1.9885878 0.017572,0 0.2637538,0.096615 0.3352029,0.1315553 0.042553,0.020812 0.1207268,0.064941 0.1737088,0.098065 l 0.09634,0.060229 -0.0038,2.1731176 c -0.0041,2.365081 0.0018,2.205764 -0.08312,2.254424 -0.0584,0.03347 -0.09663,0.02786 -0.2355934,-0.03449 -0.5800981,-0.26033 -1.3371793,-0.331724 -2.0135966,-0.189883 -0.3154742,0.06615 -0.6603202,0.181875 -0.881827,0.295923 -0.065523,0.03373 -0.1264221,0.06091 -0.1353314,0.06039 -0.00891,-5.26e-4 -0.040699,-0.01881 -0.070634,-0.04068 z M 7.2536559,9.5772871 V 7.954439 L 8.0086635,7.222159 8.7636714,6.4898797 V 8.185726 9.8815742 L 8.0478379,10.505838 C 7.65413,10.849184 7.3143768,11.14586 7.2928301,11.165118 l -0.039176,0.03502 z m 3.3232871,-0.6036396 -0.06995,-0.079455 0.01708,-0.3109155 c 0.0094,-0.1710033 0.03511,-0.6521066 0.05712,-1.0691168 l 0.04004,-0.758204 0.228655,0.00894 c 0.125761,0.00494 0.268413,0.012568 0.317004,0.016998 l 0.08835,0.00805 -0.0067,0.084826 c -0.0037,0.046654 -0.01945,0.3335589 -0.03506,0.6375649 -0.0156,0.3040046 -0.03472,0.6642096 -0.0425,0.8004525 -0.0078,0.1362436 -0.01412,0.2619415 -0.01412,0.2793283 0,0.023403 -0.06371,0.087382 -0.245244,0.2462945 -0.134887,0.1180759 -0.249641,0.2146806 -0.255009,0.2146806 -0.0055,0 -0.04124,-0.035759 -0.0797,-0.079455 z M 12.668124,7.0963586 C 12.422429,7.0442392 12.182269,6.8582581 12.0704,6.6334834 l -0.05915,-0.1188483 -0.167193,-0.00902 c -0.09196,-0.00494 -0.417198,-0.021409 -0.722764,-0.036543 -0.305567,-0.015137 -1.108521,-0.055152 -1.7843445,-0.088912 L 8.1081761,6.3187708 8.0375935,6.2453685 c -0.038823,-0.04037 -0.070326,-0.079623 -0.070011,-0.087223 5.548e-4,-0.012382 0.351292,-0.3258851 0.4526978,-0.404592 l 0.040581,-0.031495 0.4185081,0.021173 c 1.3540776,0.068506 1.7845396,0.089334 1.7872456,0.086475 0.0049,-0.0053 0.03445,-0.5567201 0.03429,-0.6423018 l -1.39e-4,-0.079461 -0.08763,-0.048366 c -0.279469,-0.1542385 -0.45442,-0.4729155 -0.435303,-0.7929091 0.0246,-0.4117226 0.321992,-0.7355237 0.743099,-0.8090825 0.376288,-0.065729 0.781084,0.1355291 0.94521,0.4699474 0.07357,0.1498991 0.09384,0.2378176 0.09218,0.3996678 -0.0024,0.2346382 -0.08541,0.4246153 -0.259987,0.5950914 -0.08115,0.079249 -0.136207,0.118696 -0.227606,0.163071 -0.06631,0.032192 -0.123067,0.060964 -0.126128,0.063931 -0.0071,0.00682 -0.04463,0.7031213 -0.03829,0.7092643 0.0038,0.00374 0.646585,0.042654 0.719585,0.043599 0.01177,1.343e-4 0.04046,-0.035465 0.0638,-0.079147 0.095,-0.1778277 0.330833,-0.355028 0.548757,-0.4123315 0.124144,-0.032647 0.34834,-0.032639 0.462125,1.2e-5 0.243495,0.069871 0.465697,0.2471324 0.567835,0.452995 0.182012,0.3668454 0.09332,0.7852095 -0.22156,1.0449983 -0.214379,0.1768791 -0.502389,0.2462931 -0.778709,0.1876761 z M 12.95469,6.6749589 c 0.209201,-0.042099 0.358979,-0.2202533 0.358979,-0.4270004 0,-0.1602637 -0.09279,-0.3093659 -0.238996,-0.3840485 -0.06439,-0.032892 -0.08893,-0.037291 -0.208315,-0.037345 -0.1235,-5.37e-5 -0.142013,0.00348 -0.211748,0.040991 -0.07776,0.041774 -0.147939,0.1136587 -0.196036,0.2007673 -0.04122,0.074662 -0.03804,0.2901903 0.0056,0.3692599 0.06993,0.1271007 0.184399,0.2118088 0.321891,0.2382066 0.08349,0.016027 0.08503,0.016021 0.168748,-7.834e-4 z M 11.042579,6.2344926 c 0.06267,-0.060797 0.04383,-0.1508256 -0.03787,-0.1809608 -0.04471,-0.016487 -0.08177,-0.00643 -0.118944,0.03229 -0.08953,0.093223 0.06396,0.2387434 0.156822,0.1486692 z m 0.226918,-1.5357175 c 0.264721,-0.1283173 0.326731,-0.477876 0.121166,-0.6830468 -0.169025,-0.1687006 -0.440177,-0.1798837 -0.617244,-0.025457 -0.103694,0.090437 -0.150482,0.1913072 -0.149827,0.3230247 5.53e-4,0.1220568 0.03174,0.201122 0.113953,0.2893986 0.09201,0.098798 0.183652,0.136529 0.335168,0.1380028 0.09374,9.641e-4 0.119928,-0.00464 0.196779,-0.041925 z"
     id="path864" /></svg>
