<svg width="64" height="64" viewBox="0 0 16.933 16.933" xmlns="http://www.w3.org/2000/svg" xmlns:xlink="http://www.w3.org/1999/xlink"><defs><linearGradient id="c" x1="30" x2="57" y1="44" y2="44" gradientTransform="scale(.26458)" gradientUnits="userSpaceOnUse" xlink:href="#a"/><linearGradient id="a"><stop offset="0"/><stop stop-opacity="0" offset="1"/></linearGradient><linearGradient id="b" x1="32" x2="32" y1="13" y2="9" gradientTransform="scale(.26458)" gradientUnits="userSpaceOnUse" xlink:href="#a"/></defs><circle cx="8.466" cy="8.466" r="6.614" fill="#3578c7" style="paint-order:stroke markers fill"/><path d="M5.132 3.704a5.82 5.82 0 0 0-2.486 4.763 5.82 5.82 0 0 0 5.82 5.82 5.82 5.82 0 0 0 5.821-5.82 5.82 5.82 0 0 0-2.48-4.763z" fill="#fff" style="paint-order:stroke markers fill"/><path d="M8.466 1.852a6.614 6.614 0 0 0-3.944 1.323h7.898a6.614 6.614 0 0 0-3.954-1.323z" fill="url(#b)" opacity=".15" style="paint-order:stroke markers fill"/><path d="M8.466 4.233c-.292 0-.381.276-.53.53l-.307.528H2.076a7.144 7.144 0 0 0-.753 3.175 7.144 7.144 0 0 0 7.144 7.144 7.144 7.144 0 0 0 7.143-7.144 7.144 7.144 0 0 0-1.4-4.233H8.467z" fill="#5294e2" style="paint-order:stroke markers fill"/><rect x="9.26" y="4.762" width="3.969" height=".529" ry=".265" opacity=".25" style="paint-order:stroke markers fill"/><path d="M15.61 8.467 8.466 15.61a7.144 7.144 0 0 0 7.144-7.143z" fill="url(#c)" opacity=".15" style="paint-order:stroke markers fill"/><path d="M6.35 6.35v1.058a4.233 4.233 0 0 1 4.233 4.233h1.058A5.29 5.29 0 0 0 6.35 6.35m0 2.117v1.058c1.169 0 2.117.948 2.117 2.116h1.058A3.175 3.175 0 0 0 6.35 8.467m0 2.116a1.058 1.058 0 1 0 0 2.117 1.058 1.058 0 0 0 0-2.117" opacity=".15"/><g transform="translate(-1.058)"><circle cx="13.493" cy="12.435" r="3.439" fill="#4d4d4d" style="paint-order:stroke fill markers"/><path d="M13.493 10.451a1.323 1.323 0 0 0-1.323 1.323h-.22a.309.309 0 0 0-.31.309v2.028a.31.31 0 0 0 .31.309h3.087a.308.308 0 0 0 .308-.309v-2.028a.308.308 0 0 0-.308-.31h-.221a1.323 1.323 0 0 0-1.323-1.322zm0 .265a.926.926 0 0 1 .926.926.926.926 0 0 1-.01.132h-1.832a.926.926 0 0 1-.01-.132.926.926 0 0 1 .926-.926z" fill="#fff"/><circle cx="13.493" cy="13.097" r="1.058" fill="gray"/><path fill="#1a1a1a" d="M13.229 13.097h.529v.794h-.529z"/><circle cx="13.493" cy="12.832" r=".529" fill="#1a1a1a"/></g></svg>