<svg width="64" height="64" version="1.1" viewBox="0 0 16.933 16.933" xmlns="http://www.w3.org/2000/svg" xmlns:xlink="http://www.w3.org/1999/xlink">
 <defs>
  <linearGradient id="a-9" x1="42" x2="44" y1="51" y2="55" gradientTransform="scale(.26458)" gradientUnits="userSpaceOnUse">
   <stop offset="0"/>
   <stop stop-opacity="0" offset="1"/>
  </linearGradient>
 </defs>
 <circle cx="8.466" cy="8.466" r="7.408" fill="#5294e2" style="paint-order:stroke fill markers"/>
 <path d="m15.164 11.613-7.327 4.2306a7.4082 7.4082 0 0 0 0.6297 0.03175 7.4082 7.4082 0 0 0 6.6973-4.2624z" fill="url(#a-9)" opacity=".1" stroke-width=".26458" style="paint-order:stroke fill markers"/>
 <path id="shadow" d="m8.466 1.0578a7.408 7.408 0 0 0-6.692 4.2343h5.0518l0.31832-0.52916c0.15-0.252 0.4427-0.52967 0.7927-0.52967h6.6083a7.408 7.408 0 0 0-6.0791-3.1755z" fill="#000000" opacity=".2"/>
 <path d="m4.2782 3.7041a6.3499 6.3499 0 0 0-1.2898 1.588h3.8374l0.31832-0.52916c0.15-0.252 0.4427-0.52967 0.7927-0.52967h5.244a6.3499 6.3499 0 0 0-0.52296-0.52916z" fill="#ffffff" stroke-width=".26458" style="paint-order:stroke fill markers"/>
 <path d="m8.4666 1.0583a7.4082 7.4082 0 0 0-4.886 1.8521h9.7765a7.4082 7.4082 0 0 0-4.8905-1.8521z" opacity=".15" stroke-width=".26458" style="paint-order:stroke fill markers"/>
 <rect x="9.26" y="4.762" width="3.969" height=".529" ry=".265" opacity=".25" style="paint-order:stroke markers fill"/>
 <path d="M6.35 6.35v1.058a4.233 4.233 0 0 1 4.233 4.233h1.058A5.29 5.29 0 0 0 6.35 6.35m0 2.117v1.058c1.169 0 2.117.948 2.117 2.116h1.058A3.175 3.175 0 0 0 6.35 8.467m0 2.116a1.058 1.058 0 1 0 0 2.117 1.058 1.058 0 0 0 0-2.117" opacity=".15"/>
 <g transform="translate(-1.058)">
  <circle cx="13.493" cy="12.435" r="3.439" fill="#4d4d4d" style="paint-order:stroke fill markers"/>
  <path d="M13.493 10.451a1.323 1.323 0 0 0-1.323 1.323h-.22a.309.309 0 0 0-.31.309v2.028a.31.31 0 0 0 .31.309h3.087a.308.308 0 0 0 .308-.309v-2.028a.308.308 0 0 0-.308-.31h-.221a1.323 1.323 0 0 0-1.323-1.322zm0 .265a.926.926 0 0 1 .926.926.926.926 0 0 1-.01.132h-1.832a.926.926 0 0 1-.01-.132.926.926 0 0 1 .926-.926z" fill="#fff"/>
  <circle cx="13.493" cy="13.097" r="1.058" fill="gray"/>
  <path d="M13.229 13.097h.529v.794h-.529z" fill="#1a1a1a"/>
  <circle cx="13.493" cy="12.832" r=".529" fill="#1a1a1a"/>
 </g>
</svg>
