<svg xmlns="http://www.w3.org/2000/svg" width="64" height="64"><circle cx="32" cy="32" r="27" fill="#3f3f3f"/><path fill="#00f782" d="M24.808 15c-2.662 0-4.85 1.176-6.293 2.812s-2.207 3.705-2.207 5.688c0 3.618 1.563 6.82 4.646 8.362l5.506 2.753H23.5c-3.966 0-7.192 3.226-7.192 7.193S19.359 49 22.846 49h16.346c2.662 0 4.85-1.176 6.294-2.812s2.206-3.705 2.206-5.688c0-3.618-1.562-6.82-4.645-8.362l-5.507-2.753h2.96a7.2 7.2 0 0 0 7.192-7.193c0-1.891-.791-3.64-1.969-4.952S42.937 15 41.154 15zm0 2.615h16.346c.832 0 1.84.499 2.623 1.372s1.3 2.066 1.3 3.205c0 2.572-2.005 4.577-4.577 4.577H32c-.722 0-1.308.586-1.308 1.308v5.731l-8.568-4.285c-2.148-1.074-3.2-3.102-3.2-6.023 0-1.286.544-2.814 1.552-3.956 1.008-1.143 2.417-1.929 4.332-1.929zm8.5 12.576 8.569 4.286c2.147 1.074 3.2 3.102 3.2 6.023 0 1.286-.544 2.813-1.553 3.956s-2.417 1.928-4.331 1.928H22.847c-1.744 0-3.924-2.005-3.924-4.577S20.93 37.23 23.5 37.23H32c.723 0 1.308-.585 1.308-1.307z"/></svg>