<svg xmlns="http://www.w3.org/2000/svg" width="64" height="64" viewBox="0 0 64 64"><circle cx="32" cy="32" r="27" fill="#3584e4"/><path fill="none" stroke="#fff" stroke-linecap="round" stroke-width="2.793" d="M13.379 26.413v11.173M13.379 32.465h5.537"/><path fill="none" stroke="#fff" stroke-linecap="round" stroke-linejoin="round" stroke-width="3.724" d="M18.965 28.275v10.241h4.655l2.688 4.655h9.416l3.724-3.724h2.793v2.793h4.21l1.747-6.517-1.747-6.517h-4.21v3.136H40.27v-3.136h-2.753l-3.655-3.656H22.689l-1.573 2.724zm0 0"/><path fill="none" stroke="#fff" stroke-linecap="round" stroke-width="2.793" d="M36.597 19.43H25.424"/><path fill="#3584e4" d="M38.27 17.457c-.904 0-1.74.478-2.197 1.257l-4.168 7.091.204-.3c-.236.299-.564.748-.736 1.408-.173.662-.09 1.31 0 1.693.083.364.301.64.501.924l-.08.149c-.067.002-.12-.002-.207.005-.173.011-.282-.1-1.038.257a2.54 2.54 0 0 0-1.395 1.716l-.933 3.917a2.55 2.55 0 0 0 3.837 2.748l6.228-3.917a2.55 2.55 0 0 0 .853-3.211l3.444-3.53a2.55 2.55 0 0 0-.027-3.435l2.551-2.348a2.548 2.548 0 0 0-1.726-4.424z"/><path fill="none" stroke="#fff" stroke-linecap="round" stroke-width="2.793" d="M30.545 19.43v5.537"/><path fill="#fff" d="m38.71 20.007-4.166 7.09c-.285.357-.336.551-.245.94.069.31.416.33.416.33l1.1.027-2.062 3.853c-.11.082-1.504-.082-1.678 0l-.933 3.917 6.23-3.917h-2.379l6.207-6.363-3.756-.005 6.378-5.874z"/></svg>