<?xml version="1.0" encoding="UTF-8" standalone="no"?>
<svg
   width="64"
   height="64"
   viewBox="0 0 16.933 16.933"
   version="1.1"
   id="svg2"
   sodipodi:docname="shadps4.svg"
   xml:space="preserve"
   inkscape:version="1.4.1 (93de688d07, 2025-03-30)"
   xmlns:inkscape="http://www.inkscape.org/namespaces/inkscape"
   xmlns:sodipodi="http://sodipodi.sourceforge.net/DTD/sodipodi-0.dtd"
   xmlns:xlink="http://www.w3.org/1999/xlink"
   xmlns="http://www.w3.org/2000/svg"
   xmlns:svg="http://www.w3.org/2000/svg"><defs
     id="defs2"><linearGradient
       id="linearGradient1"><stop
         stop-color="#0b034f"
         offset="0"
         id="stop1" /><stop
         stop-color="#4461f2"
         offset="1"
         id="stop2" /></linearGradient><linearGradient
       id="linearGradient2"
       x1="100"
       x2="100"
       y1="185.84"
       y2="14.157"
       gradientUnits="userSpaceOnUse"
       xlink:href="#linearGradient1"
       gradientTransform="matrix(1.4489308,0,0,1.4489308,-16.890188,-16.890188)" /><clipPath
       clipPathUnits="userSpaceOnUse"
       id="clipPath4"><circle
         cx="98.375381"
         cy="92.40995"
         r="97.659439"
         fill="#f0f0f0"
         style="fill:#3a54b4;fill-opacity:1;stroke-width:13.6701;paint-order:stroke fill markers"
         id="circle4"
         inkscape:label="circle2" /></clipPath></defs><sodipodi:namedview
     id="namedview2"
     pagecolor="#505050"
     bordercolor="#ffffff"
     borderopacity="1"
     inkscape:showpageshadow="0"
     inkscape:pageopacity="0"
     inkscape:pagecheckerboard="1"
     inkscape:deskcolor="#505050"
     inkscape:zoom="4.5354271"
     inkscape:cx="-51.263088"
     inkscape:cy="71.106865"
     inkscape:window-width="1920"
     inkscape:window-height="1012"
     inkscape:window-x="0"
     inkscape:window-y="0"
     inkscape:window-maximized="1"
     inkscape:current-layer="svg2" /><circle
     cx="8.466"
     cy="8.466"
     r="7.144"
     fill="#f0f0f0"
     style="paint-order:stroke fill markers;fill:#3a54b4;fill-opacity:1"
     id="circle1" /><g
     id="g4"
     transform="matrix(0.07315217,0,0,0.07315217,1.2696266,1.7060111)"
     inkscape:label="g2"
     clip-path="url(#clipPath4)"><path
       d="M -22.917306,157.60455 71.703671,190.6025 41.422466,277.43112 -53.198511,244.43317 Z"
       fill="none"
       stroke="#149ffb"
       stroke-linecap="square"
       stroke-width="15.9382"
       style="paint-order:markers fill stroke"
       id="path2-3"
       transform="matrix(0.69016409,0,0,0.69016409,11.657001,11.657002)" /><path
       d="m 242.16415,59.103334 -65.78726,28.088972 8.56826,-71.017894 z"
       fill="none"
       stroke="#149ffb"
       stroke-linecap="square"
       stroke-width="9.78028"
       style="paint-order:markers fill stroke"
       id="path3"
       transform="matrix(0.69016409,0,0,0.69016409,11.657001,11.657002)" /><path
       transform="matrix(0.91041,0.0063593,-0.0063593,0.91041,28.548,42.178)"
       d="m 166.13,88.68 -23.677,14.288 13.949,23.879 -14.288,-23.677 -23.879,13.949 23.677,-14.288 -13.949,-23.879 14.288,23.677 z"
       stroke="#139ffb"
       stroke-linecap="square"
       stroke-width="12.43"
       style="paint-order:markers fill stroke"
       id="path8" /><path
       d="M 117.98,135.88 V 47.598 l -65.093,69.568 h 83.807"
       stroke="#ffffff"
       stroke-linecap="square"
       stroke-linejoin="round"
       stroke-width="10"
       style="font-variation-settings:normal;fill:#3a54b4;fill-opacity:0;paint-order:markers fill stroke"
       id="path9" /><path
       d="M 69.923,56.468 A 20.994,21.009 0 0 1 49.012,77.477 20.994,21.009 0 0 1 27.936,56.634 20.994,21.009 0 0 1 48.68,35.46 20.994,21.009 0 0 1 69.92,56.135"
       stop-color="#000000"
       stroke="#139ffb"
       stroke-linecap="round"
       stroke-width="9.4488"
       style="fill:#3a54b4;fill-opacity:0;paint-order:markers fill stroke"
       id="path10" /></g></svg>
