<svg xmlns="http://www.w3.org/2000/svg" width="64" height="64" viewBox="0 0 16.933 16.933"><path fill="#24b29d" d="M15.61 8.466q0-.181-.008-.356-.12-2.73-2.084-4.695-2.092-2.092-5.052-2.092t-5.05 2.092Q1.322 5.507 1.322 8.466t2.092 5.052q1.96 1.96 4.685 2.085.18.006.366.007 2.96 0 5.052-2.092t2.092-5.052z"/><path fill="#fff" d="m4.498 4.499 2.644.002-.002 2.644-2.644-.002zm2.91-.001 2.644.002-.002 2.644-2.644-.002zM4.5 7.406l2.644.002-.002 2.644-2.644-.002zm2.908.002 5.287.004-.004 5.287-5.287-.004z"/></svg>