<svg xmlns="http://www.w3.org/2000/svg" width="64" height="64" viewBox="0 0 64 64"><g stroke-width="1.174" transform="translate(4 4)"><circle cx="28" cy="28" r="27" fill="#f2f2f2"/><path fill="#2952a3" d="m13.913 19.783-2.348 2.348 5.87 5.87-5.87 5.869 2.348 2.348 5.87-5.87 7.043 7.044 2.348-2.348L22.13 28l7.044-7.043-2.348-2.348-7.043 7.044z"/><path fill="#1aa2e6" d="m22.13 11.565-2.348 2.348L33.87 28 19.782 42.087l2.348 2.348 5.87-5.87 5.87 5.87 2.347-2.348-5.87-5.87 5.87-5.87 5.87 5.87 2.347-2.348-5.87-5.87 5.87-5.869-2.347-2.348-5.87 5.87-5.87-5.87 5.87-5.87-2.348-2.347-5.87 5.87z"/></g></svg>