<?xml version="1.0" encoding="UTF-8"?>
<svg id="svg2" width="64" height="64" version="1.1" xmlns="http://www.w3.org/2000/svg">
 <path id="path1" d="m32 5c14.912 0 27 12.087 27 26.999s-12.088 27-27 27-27-12.088-27-27 12.088-27 27-27z" fill="#2e5d89"/>
 <path id="path6" transform="matrix(.87912 0 0 .87912 4.4136 7.4873)" d="m18.779 9.6821h25.2c0.7756 0 1.4 0.6244 1.4 1.4v33.6c0 0.7756-0.6244 1.4-1.4 1.4h-2.8l-2.1-0.7-2.1 0.7h-1.4l-2.1-0.7-2.1 0.7h-12.6c-0.7756 0-1.4-0.6244-1.4-1.4v-33.6c0-0.7756 0.6244-1.4 1.4-1.4z" fill="#d6d6d6" stroke-width="1.4"/>
 <path id="path7" transform="matrix(.87912 0 0 .87912 4.4136 7.4873)" d="m20.879 12.482h21c0.3878 0 0.7 0.3122 0.7 0.7v13.3l-1.4 1.4 1.4 1.4v13.3c0 0.3878-0.3122 0.7-0.7 0.7h-21c-0.3878 0-0.7-0.3122-0.7-0.7v-13.3l1.4-1.4-1.4-1.4v-13.3c0-0.3878 0.3122-0.7 0.7-0.7z" fill="#4a555a" stroke-width="1.4"/>
 <path id="path8" transform="matrix(.87912 0 0 .87912 4.4136 7.4873)" d="m37.679 44.682c-0.3878 0-0.7 0.3122-0.7 0.7v0.7h4.2v-0.7c0-0.3878-0.3122-0.7-0.7-0.7z" fill="#f46262" stroke-width="1.4"/>
 <path id="path9" transform="matrix(.87912 0 0 .87912 4.4136 7.4873)" d="m32.079 44.682c-0.3878 0-0.7 0.3122-0.7 0.7v0.7h4.2v-0.7c0-0.3878-0.3122-0.7-0.7-0.7z" fill="#6081d2" stroke-width="1.4"/>
 <path id="path10" transform="matrix(.87912 0 0 .87912 4.4136 7.4873)" d="m24.379 15.282h14c0.7756 0 1.4 0.6244 1.4 1.4v16.8l-7 7h-8.4c-0.7756 0-1.4-0.6244-1.4-1.4v-22.4c0-0.7756 0.6244-1.4 1.4-1.4z" fill="#e2e2d5" stroke-width="1.4"/>
 <path id="path12" transform="matrix(.87912 0 0 .87912 4.4136 7.4873)" d="m24.38 15.282c-0.77559 0-1.4 0.62006-1.4 1.3903v11.122h16.8v-11.122c0-0.77022-0.62439-1.3903-1.4-1.3903z" fill="#0b0c0d" opacity=".2" stroke-width="1.3951"/>
 <path id="path11" transform="matrix(.87912 0 0 .87912 4.4136 7.4873)" d="m34.179 33.482c-0.7756 0-1.4 0.6244-1.4 1.4v5.6l7-7z" opacity=".15" stroke-width="1.4"/>
 <path id="rect12" transform="matrix(.87912 0 0 .87912 4.4136 7.4873)" d="m20.179 26.482h22.4v2.8h-22.4z" fill="#e3ebf2" stroke-width="1.4"/>
</svg>
