<svg xmlns="http://www.w3.org/2000/svg" width="64" height="64"><path fill="#2e5d89" d="M32 5c14.912 0 27 12.087 27 26.999s-12.088 27-27 27-27-12.088-27-27 12.088-27 27-27z"/><path fill="#d6d6d6" d="M20.923 15.999h22.153c.682 0 1.231.549 1.231 1.23v29.54c0 .681-.549 1.23-1.23 1.23h-2.462l-1.846-.615-1.846.615h-1.231l-1.846-.615-1.846.615H20.923c-.682 0-1.231-.549-1.231-1.23v-29.54c0-.681.549-1.23 1.23-1.23"/><path fill="#4a555a" d="M22.769 18.46H41.23c.341 0 .616.275.616.616v11.692l-1.231 1.23 1.23 1.232v11.692c0 .34-.274.615-.615.615H22.77a.614.614 0 0 1-.616-.615V33.23l1.231-1.231-1.23-1.23V19.075c0-.341.274-.616.615-.616"/><path fill="#f46262" d="M37.538 46.768a.614.614 0 0 0-.615.616v.615h3.692v-.615a.614.614 0 0 0-.616-.616z"/><path fill="#6081d2" d="M32.615 46.768a.614.614 0 0 0-.615.616v.615h3.692v-.615a.614.614 0 0 0-.616-.616z"/><path fill="#e2e2d5" d="M25.846 20.922h12.307c.682 0 1.231.549 1.231 1.23v14.77l-6.154 6.154h-7.384c-.682 0-1.231-.55-1.231-1.23V22.152c0-.682.549-1.231 1.23-1.231"/><path fill="#0b0c0d" d="M25.847 20.922c-.682 0-1.231.545-1.231 1.222v9.778h14.769v-9.778c0-.677-.549-1.222-1.23-1.222z" opacity=".2"/><path d="M34.461 36.922c-.682 0-1.23.549-1.23 1.23v4.924l6.153-6.154z" opacity=".15"/><path fill="#e3ebf2" d="M22.153 30.768h19.693v2.462H22.153z"/></svg>