<svg width="64" height="64" xmlns="http://www.w3.org/2000/svg"><rect x="5" y="5" width="54" height="54" ry="27" fill="#f0f0f0"/><g stroke-width="1.304"><path d="M36.565 15.043a3.26 3.26 0 0 0-3.26 3.26v9.131a3.26 3.26 0 0 0 3.26 3.261 3.26 3.26 0 0 0 3.26-3.26v-9.131a3.26 3.26 0 0 0-3.26-3.261zm9.13 9.13a3.26 3.26 0 0 0-3.26 3.261v3.261h3.26a3.26 3.26 0 0 0 3.261-3.26 3.26 3.26 0 0 0-3.26-3.262z" fill="#2eb67d"/><path d="M48.957 36.565a3.26 3.26 0 0 0-3.26-3.26h-9.131a3.26 3.26 0 0 0-3.261 3.26 3.26 3.26 0 0 0 3.26 3.26h9.131a3.26 3.26 0 0 0 3.261-3.26zm-9.13 9.13a3.26 3.26 0 0 0-3.261-3.26h-3.261v3.26a3.26 3.26 0 0 0 3.26 3.261 3.26 3.26 0 0 0 3.262-3.26z" fill="#ecb22e"/><path d="M27.435 48.957a3.26 3.26 0 0 0 3.26-3.26v-9.131a3.26 3.26 0 0 0-3.26-3.261 3.26 3.26 0 0 0-3.26 3.26v9.131a3.26 3.26 0 0 0 3.26 3.261zm-9.13-9.13a3.26 3.26 0 0 0 3.26-3.261v-3.261h-3.26a3.26 3.26 0 0 0-3.261 3.26 3.26 3.26 0 0 0 3.26 3.262z" fill="#d6285e"/><path d="M15.043 27.435a3.26 3.26 0 0 0 3.26 3.26h9.131a3.26 3.26 0 0 0 3.261-3.26 3.26 3.26 0 0 0-3.26-3.26h-9.131a3.26 3.26 0 0 0-3.261 3.26zm9.13-9.13a3.26 3.26 0 0 0 3.261 3.26h3.261v-3.26a3.26 3.26 0 0 0-3.26-3.261 3.26 3.26 0 0 0-3.262 3.26z" fill="#36c5f0"/></g></svg>