<svg width="64" height="64" xmlns="http://www.w3.org/2000/svg"><g transform="matrix(.05882 0 0 .05882 1.882 .22)" stroke-width="17"><circle cx="512" cy="540.36" r="459" color="#000" fill="#e6e6e6"/><path d="M785.45 251.25c-218.22 0-370.92 201.29-370.92 201.29-157.66 20.882-252.32 129.47-252.32 129.47 43.854-1.045 87.49-9.45 156.4-9.45s11.34 63.788 11.34 63.788c20.882 41.764 80.799 88.83 80.799 88.83 28.187-30.278 60.481-19.844 60.481-19.844v158.76c110.68-95.013 113.87-236.25 113.87-236.25 202.56-132.6 200.34-376.59 200.34-376.59zM606.84 376.46c35.176 0 63.787 28.613 63.787 63.788s-28.612 63.788-63.787 63.788c-35.176 0-63.787-28.613-63.787-63.788s28.612-63.788 63.787-63.788zM299.71 679.34s-67.567 64.656-67.569 125.21c61.603 0 88.572-8.527 126.16-68.041 0 0-21.651 17.955-62.371 17.955 0 0-10.838-23.967 3.78-75.128z" fill="#44494c"/></g></svg>