<svg width="64" height="64" xmlns="http://www.w3.org/2000/svg"><g transform="translate(3.014 -3)"><rect x="1.986" y="8" width="54" height="54" ry="27" fill="#373738"/><g opacity=".5" stroke-width=".667"><path opacity="1" d="M7.38 20.15h4.05v2.7H7.38zm0 5.4h4.05v2.7H7.38zm0 5.4h4.05v2.7H7.38zm0 5.4h4.05v2.7H7.38zm0 5.4h4.05v2.7H7.38zm0 5.4h4.05v2.7H7.38z" fill="#fff"/></g><g opacity=".5" stroke-width=".667"><path opacity="1" d="M46.53 20.15h4.05v2.7h-4.05zm0 5.4h4.05v2.7h-4.05zm0 5.4h4.05v2.7h-4.05zm0 5.4h4.05v2.7h-4.05zm0 5.4h4.05v2.7h-4.05zm0 5.4h4.05v2.7h-4.05z" fill="#fff"/></g><rect x="15.485" y="24.2" width="26.998" height="21.6" rx="4.085" ry="3.549" fill="#db3447"/><path d="M25.124 28.25a1.512 1.512 0 0 0-1.542 1.51v10.477a1.512 1.512 0 0 0 2.264 1.313l9.125-5.24a1.512 1.512 0 0 0 0-2.623l-9.125-5.236a1.512 1.512 0 0 0-.722-.2z" color="#000" fill="#fff" style="isolation:auto;mix-blend-mode:normal;text-decoration-color:#000;text-decoration-line:none;text-decoration-style:solid;text-indent:0;text-transform:none;white-space:normal"/></g></svg>