<svg xmlns="http://www.w3.org/2000/svg" width="64" height="64" viewBox="0 0 16.933 16.933"><circle cx="8.466" cy="8.466" r="7.144" fill="#4c8cff" style="paint-order:stroke fill markers"/><path fill="#457eff" d="M8.467 1.323a7.144 7.144 0 0 0-7.144 7.144A7.14 7.14 0 0 0 6.27 15.26a10.14 10.14 0 0 0 9.283-7.62 7.144 7.144 0 0 0-7.086-6.317" style="paint-order:stroke fill markers"/><path fill="#00f" d="M8.467 1.323A7.14 7.14 0 0 0 1.97 5.512a8.767 8.767 0 0 0 8.694 7.725 8.8 8.8 0 0 0 3.776-.864 7.14 7.14 0 0 0 1.17-3.907 7.144 7.144 0 0 0-7.144-7.143z" opacity=".1" style="paint-order:stroke fill markers"/><path fill="#fff" d="M5.292 5.292a3.175 3.175 0 0 0 3.175 3.175 3.175 3.175 0 0 0 3.175-3.176h-.794a2.38 2.38 0 0 1-2.381 2.381 2.38 2.38 0 0 1-2.382-2.38z" style="paint-order:stroke markers fill"/><g paint-order="stroke markers fill" transform="translate(8.937 -115.54)scale(.44445)"><circle cx="8.466" cy="288.54" r="7.144" fill="#b5bbc0"/><circle cx="8.467" cy="288.53" r="3.44" opacity=".15"/><g fill="#fff"><path d="M8.467 285.62a2.91 2.91 0 0 0-2.91 2.91 2.91 2.91 0 0 0 2.91 2.91 2.91 2.91 0 0 0 2.91-2.91 2.91 2.91 0 0 0-2.91-2.91m0 1.323a1.587 1.587 0 0 1 1.587 1.587 1.587 1.587 0 0 1-1.587 1.588 1.587 1.587 0 0 1-1.588-1.588 1.587 1.587 0 0 1 1.588-1.587"/><path d="M7.938 284.43h1.058v1.852H7.938zm0 6.35h1.058v1.852H7.938zm4.63-2.778v1.058h-1.852v-1.058zm-6.35 0v1.058H4.366v-1.058zm5.522 3.056-.747.747-1.31-1.31.748-.747zm-4.49-4.49-.747.747-1.31-1.31.748-.747zm-1.309 5.237-.748-.748 1.31-1.31.748.749zm4.49-4.49-.748-.748 1.31-1.31.748.749z"/></g></g></svg>