<svg width="64" height="64" version="1" xmlns="http://www.w3.org/2000/svg">
 <rect x="5" y="5" width="54" height="54" rx="27" ry="27" fill="#029499" stroke-width=".96429"/>
 <path d="m24.598 13.18-5.1953 3 4.7148 8.1641a11 11 0 0 0-2.6895 4.6562h-9.4277v6h9.4199a11 11 0 0 0 2.6914 4.666l-4.709 8.1543 5.1953 3 4.7168-8.168a11 11 0 0 0 2.6855 0.34766 11 11 0 0 0 2.6895-0.34375l4.7129 8.1641 5.1953-3-4.7148-8.1641a11 11 0 0 0 2.6895-4.6562h9.4277v-6h-9.4199a11 11 0 0 0-2.6914-4.666l4.709-8.1543-5.1953-3-4.7168 8.168a11 11 0 0 0-2.6855-0.34766 11 11 0 0 0-2.6895 0.34375l-4.7129-8.1641zm7.4023 11.82a7 7 0 0 1 7 7 7 7 0 0 1-7 7 7 7 0 0 1-7-7 7 7 0 0 1 7-7z" fill="#fff"/>
</svg>
