<svg xmlns="http://www.w3.org/2000/svg" width="64" height="64"><rect width="54" height="54" x="5" y="5" fill="#f0f0f0" ry="27" style="fill:#333;fill-opacity:1"/><path fill="#5fa1e9" d="M47.127 33.13H52l-8.58-8.58-8.58 8.58h4.49v6.93h7.797z" style="stroke-width:.866277"/><path fill="#1964c2" d="M29.802 40.926h-4.21l8.58 8.58 8.58-8.58h-4.288v-6.93H29.8Z" style="stroke-width:.866277"/><path fill="#b4d100" d="M42.378 18.364v-2.841c0-.61-.528-1.086-1.135-1.022l-11.304 1.195a1.03 1.03 0 0 0-.919 1.022v20.184c-1.594-.269-3.512-.205-5.51.264-4.693 1.102-8.026 4.005-7.444 6.485s4.88 3.869 9.553 2.679c7.302-1.86 7.51-6.02 7.51-6.02V20.734c0-.263.2-.484.46-.511l7.87-.835a1.027 1.027 0 0 0 .918-1.022z" style="stroke-width:.866277"/></svg>