<?xml version="1.0" encoding="UTF-8" standalone="no"?>
<svg
   width="64"
   height="64"
   version="1.1"
   id="svg10"
   sodipodi:docname="space-engine.svg"
   inkscape:version="1.2.2 (b0a8486541, 2022-12-01)"
   xml:space="preserve"
   xmlns:inkscape="http://www.inkscape.org/namespaces/inkscape"
   xmlns:sodipodi="http://sodipodi.sourceforge.net/DTD/sodipodi-0.dtd"
   xmlns:xlink="http://www.w3.org/1999/xlink"
   xmlns="http://www.w3.org/2000/svg"
   xmlns:svg="http://www.w3.org/2000/svg"><defs
     id="defs14"><linearGradient
       inkscape:collect="always"
       id="linearGradient1887"><stop
         style="stop-color:#5999ff;stop-opacity:1;"
         offset="0"
         id="stop1883" /><stop
         style="stop-color:#ffffff;stop-opacity:1;"
         offset="1"
         id="stop1885" /></linearGradient><linearGradient
       id="linearGradient84653"
       inkscape:swatch="solid"><stop
         style="stop-color:#a72712;stop-opacity:1;"
         offset="0"
         id="stop84651" /></linearGradient><linearGradient
       inkscape:collect="always"
       xlink:href="#linearGradient1887"
       id="linearGradient1889"
       x1="24.446817"
       y1="31.484968"
       x2="45.816669"
       y2="7.7385411"
       gradientUnits="userSpaceOnUse" /></defs><sodipodi:namedview
     id="namedview12"
     pagecolor="#ffffff"
     bordercolor="#111111"
     borderopacity="1"
     inkscape:showpageshadow="0"
     inkscape:pageopacity="0"
     inkscape:pagecheckerboard="1"
     inkscape:deskcolor="#d1d1d1"
     showgrid="false"
     inkscape:zoom="5.6568543"
     inkscape:cx="26.604892"
     inkscape:cy="45.785164"
     inkscape:window-width="1920"
     inkscape:window-height="1011"
     inkscape:window-x="0"
     inkscape:window-y="0"
     inkscape:window-maximized="1"
     inkscape:current-layer="svg10"><inkscape:grid
       type="xygrid"
       id="grid870" /></sodipodi:namedview><g
     stroke-width=".75"
     id="g8" /><path
     id="rect2"
     style="fill:#000000;fill-opacity:1;stroke:none;stroke-opacity:1"
     d="M 32,5.0965019 C 17.042015,5.0965019 5,17.042015 5,32 5,46.957985 17.042015,59 32,59 46.957985,59 58.815627,46.957985 58.815627,32 58.815627,17.042015 46.957985,5.0965019 32,5.0965019 Z"
     sodipodi:nodetypes="sssss" /><path
     id="path1144"
     style="fill:url(#linearGradient1889);fill-opacity:1;stroke:none;stroke-width:0.1;stroke-linecap:butt;stroke-linejoin:miter;stroke-miterlimit:4;stroke-dasharray:none;stroke-opacity:1;paint-order:normal"
     d="m 32,4.9685382 c -6.415763,0 -12.064678,2.0685587 -16.914062,5.9611498 4.298725,-2.8863515 9.481313,-4.5664068 15.070312,-4.5664068 14.95797,0 27,12.0420298 27,26.9999998 0,8.542208 -3.931054,16.127848 -10.085938,21.06836 C 54.436596,49.485599 59.029877,41.364958 59.029877,31.995987 59.029877,16.887565 47.116448,4.9685382 32,4.9685382 Z"
     sodipodi:nodetypes="scsscss" /><g
     id="g3885"
     style="fill:#ffffff;fill-opacity:1"
     transform="matrix(0.17443171,0,0,0.17443171,63.653568,23.299856)"><path
       style="fill:#ffffff;fill-opacity:1;stroke:none;stroke-width:1px;stroke-linecap:butt;stroke-linejoin:miter;stroke-opacity:1"
       d="m -191.63672,31.748047 -0.0342,-27.2373048 c 0,0 -46.27001,0.3330078 -81.43164,0.3330078 -11.3501,0 -21.4082,14.959472 -21.6748,26.260742 37.72483,0 103.14064,0.643555 103.14064,0.643555 z"
       id="path3692"
       sodipodi:nodetypes="ccccc" /><path
       style="fill:#ffffff;fill-opacity:1;stroke:none;stroke-width:1px;stroke-linecap:butt;stroke-linejoin:miter;stroke-opacity:1"
       d="m -294.71971,73.356594 -0.0494,27.439216 c 0,0 49.89048,-0.33301 85.05211,-0.33301 11.3501,0 21.4082,-14.959473 21.6748,-26.260742 -37.72483,0 -106.67751,-0.845464 -106.67751,-0.845464 z"
       id="path3692-5"
       sodipodi:nodetypes="ccccc" /><path
       style="fill:#ffffff;fill-opacity:1;stroke:none;stroke-width:1px;stroke-linecap:butt;stroke-linejoin:miter;stroke-opacity:1"
       d="m -294.95122,38.917804 c 35.18129,0 53.88555,0.546212 85.13593,0.546212 13.98099,0 21.64617,15.658034 21.64617,26.531696 -25.67663,0 -43.82732,-0.807234 -82.1038,-0.807234 -17.77708,0 -24.68439,-19.057749 -24.6783,-26.270674 z"
       id="path3747"
       sodipodi:nodetypes="ccccc" /><path
       style="fill:#ffffff;fill-opacity:1;stroke:none;stroke-width:1px;stroke-linecap:butt;stroke-linejoin:miter;stroke-opacity:1"
       d="M -172.09668,4.7128906 H -67.982422 V 31.386719 H -172.125 Z"
       id="path3803" /><path
       style="fill:#ffffff;fill-opacity:1;stroke:none;stroke-width:1px;stroke-linecap:butt;stroke-linejoin:miter;stroke-opacity:1"
       d="M -172.28223,73.426757 H -68.167969 V 100.10059 H -172.31055 Z"
       id="path3803-3" /><path
       style="fill:#ffffff;fill-opacity:1;stroke:none;stroke-width:1px;stroke-linecap:butt;stroke-linejoin:miter;stroke-opacity:1"
       d="m -172.77637,38.996091 h 78.596685 v 26.673833 h -78.625005 z"
       id="path3803-3-5"
       sodipodi:nodetypes="ccccc" /></g><path
     id="path1081"
     style="fill:url(#linearGradient1889);fill-opacity:1;stroke:none;stroke-width:0.1;stroke-linecap:butt;stroke-linejoin:miter;stroke-miterlimit:4;stroke-dasharray:none;stroke-opacity:1;paint-order:normal"
     d="m 32,4.9685382 c -6.415763,0 -12.088242,2.074903 -16.937626,5.9674938 4.298725,-2.8863512 9.504877,-4.5727508 15.093876,-4.5727508 14.95797,0 27,12.0420298 27,26.9999998 0,8.542208 -3.931054,16.127848 -10.085938,21.06836 C 54.436596,49.485599 59.029877,41.364958 59.029877,31.995987 59.029877,16.887565 47.116448,4.9685382 32,4.9685382 Z"
     sodipodi:nodetypes="scsscss" /></svg>
