<svg xmlns="http://www.w3.org/2000/svg" width="64" height="64"><circle cx="32" cy="32" r="27" fill="#3de365" style="fill:#f9f9f9"/><path d="M29.828 11.342s3.222-.05 6.534 2.207 5.236 4.414 5.862 5.819 2.685 3.863 2.64 8.377-.984 7.525-2.595 10.033a9.89 9.89 0 0 1-8.01 4.515c-3.491.1-5.729-2.408-6.49-3.813-.76-1.404-1.074-4.414-.134-6.571s2.417-2.157 2.909-1.957c.492.201.626.502.895 1.054.268.552.447.451.85.15.403-.3.537-.652.448-1.103-.09-.452-.627-1.004-1.074-1.154s-1.074-.602-1.97-.452c-.894.151-2.64.653-4.117 2.86s-1.297 5.618-.402 7.223 2.595 4.615 6.354 5.669 9.846-2.057 11.95-6.873c2.103-4.815 2.147-7.073 2.058-11.036-.09-3.962-3.267-9.882-6.803-12.039s-6.175-3.41-8.905-2.91" style="fill:#ffc344;fill-opacity:1;stroke:none;stroke-width:.0938084px;stroke-linecap:butt;stroke-linejoin:miter;stroke-opacity:1" transform="translate(.493 .008)"/><path d="M31.698 31.381s-.886-.922-1.677.71c-.79 1.631-1.17 3.085-.38 4.859.792 1.774 2.437 2.838 4.969 2.802 2.531-.035 4.398-.71 5.506-2.731 1.107-2.022 1.962-3.512 2.057-4.257s.601.107.443.745c-.158.639-.127 1.88.316 1.632s.791-.638.855-.461-.507 1.277-.776 1.827-1.107 1.88-1.598 2.394c-.49.514-1.17 1.241-1.978 1.773-.806.533-2.056 1.153-2.753 1.295-.696.142-2.088.444-2.88.408a6.5 6.5 0 0 1-2.926-.816c-1.124-.62-2.342-1.578-2.817-2.536-.474-.958-1.202-1.827-1.044-4.239s.87-3.653 1.408-4.22c.538-.568 1.33-.817 1.851-.692.523.124.855.46.981.709.127.248.333.71.443.798" style="fill:#f06767;fill-opacity:1;stroke:none;stroke-width:.0938084px;stroke-linecap:butt;stroke-linejoin:miter;stroke-opacity:1" transform="translate(.493 .008)"/><path d="M39.736 44.15s3.797-2.447 5.57-6.313c1.772-3.866 2.531-6.35 2.31-10.145s-.76-1.915-.159-3.547c.602-1.632-.38-4.86.032-5.072.412-.213 1.298 1.419 1.55 2.731.254 1.312 1.361 5.356.475 10.5-.886 5.143-2.974 7.2-4.367 8.583s-4.556 3.796-5.031 3.76c-.475-.035-.538-.035-.38-.496z" style="fill:#3f62eb;fill-opacity:1;stroke:none;stroke-width:.0938084px;stroke-linecap:butt;stroke-linejoin:miter;stroke-opacity:1" transform="translate(.493 .008)"/><path d="M32.9 36.702s2.026.496 3.577-.568c1.55-1.064 2.753-2.802 2.943-3.476s.221.603.443-.035c.221-.639 1.107-1.916.664-4.895-.443-2.98-.474-3.122-1.297-4.718s-2.785-3.795-3.987-4.505c-1.203-.71-2.88-1.773-5.19-1.702s-1.55-.107-3.766.319c-2.215.426-4.208 1.596-4.873 2.235s-2.437 2.376-3.07 3.334c-.632.958-2.373 3.121-3.29 6.136-.918 3.015-1.298 3.335-1.361 5.32-.064 1.987.158 2.52-.222 2.697s-.316-1.49-.285-2.66.032-4.222 1.424-7.627c1.393-3.405 3.861-6.243 5.253-7.271 1.393-1.029 3.007-2.412 5.507-3.086s5-.568 6.55-.249c1.55.32 3.956 1.42 5.253 2.519s2.721 2.447 3.797 4.646c1.076 2.2 1.361 5.002 1.33 6.172-.032 1.17-.57 3.867-1.393 5.18s-1.93 2.872-3.07 3.44c-1.139.567-2.531.745-3.67.177-1.14-.567-1.076-.78-1.266-1.383" style="fill:#fce102;fill-opacity:1;stroke:none;stroke-width:.0938084px;stroke-linecap:butt;stroke-linejoin:miter;stroke-opacity:1" transform="translate(.493 .008)"/><path d="M32.9 36.702s1.605.499 2.958-.178 1.857-1.33 2.182-1.718c.324-.39.94-1.116 1.108-1.455.167-.339.346-.54.346-.665s-.313-.426-.01-1.153c.301-.728.57-2.396.435-3.148s-.447-4.929-3.132-7.713-5.348-3.11-5.348-3.11 4.251 1.48 6.243 5.97 1.342 7.373.067 9.13c-1.275 1.755-3.088 1.956-3.58 1.504s-1.507 2.062-1.268 2.536" style="fill:#5ed938;fill-opacity:1;stroke:none;stroke-width:.0938084px;stroke-linecap:butt;stroke-linejoin:miter;stroke-opacity:1" transform="translate(.493 .008)"/><path d="M27.725 20.597s-2.865-.025-5.035 1.555-3.222 2.86-3.826 3.863-1.298 2.382-1.209 2.357c.09-.025 2.618-3.913 4.587-4.916 1.97-1.003 3.939-2.408 6.646-1.38 2.708 1.03 3.983 2.459 4.565 2.108.582-.352.694-.778.358-1.254-.336-.477-2.708-2.81-6.086-2.333" style="fill:#8fdbe9;fill-opacity:1;stroke:none;stroke-width:.0938084px;stroke-linecap:butt;stroke-linejoin:miter;stroke-opacity:1" transform="translate(.493 .008)"/><path d="M23.44 40.639c.189.106 1.613 2.838 2.752 3.299 1.14.46 1.899.496 2.026.71.126.212.095 1.276 1.107 1.737s5.76 1.916 7.12 2.058.222 1.028 1.044 1.347c.823.32 4.336.497 5.19.107s.854.354-.633.993c-1.487.638-5.411 2.164-7.974 1.809s-5.601-.958-7.31-2.306-2.437-1.95-1.804-2.057 2.31 1.88 3.038 2.093 1.33.213.886-.284c-.443-.497-3.323-2.696-3.607-2.59s-.886.178-1.393-.567c-.506-.745-3.164-4.86-3.006-7.058.158-2.2.665-1.632 1.266-.816a16 16 0 0 0 1.297 1.525" style="fill:#fd7aff;fill-opacity:1;stroke:none;stroke-width:.0938084px;stroke-linecap:butt;stroke-linejoin:miter;stroke-opacity:1" transform="translate(.493 .008)"/></svg>