<?xml version="1.0" encoding="UTF-8" standalone="no"?>
<svg
   width="64"
   height="64"
   version="1.1"
   id="svg489"
   sodipodi:docname="spark-store.svg"
   inkscape:version="1.2.2 (b0a8486541, 2022-12-01)"
   xmlns:inkscape="http://www.inkscape.org/namespaces/inkscape"
   xmlns:sodipodi="http://sodipodi.sourceforge.net/DTD/sodipodi-0.dtd"
   xmlns="http://www.w3.org/2000/svg"
   xmlns:svg="http://www.w3.org/2000/svg">
  <defs
     id="defs493" />
  <sodipodi:namedview
     id="namedview491"
     pagecolor="#ffffff"
     bordercolor="#000000"
     borderopacity="0.25"
     inkscape:showpageshadow="2"
     inkscape:pageopacity="0.0"
     inkscape:pagecheckerboard="0"
     inkscape:deskcolor="#d1d1d1"
     showgrid="false"
     inkscape:zoom="11.346854"
     inkscape:cx="29.787992"
     inkscape:cy="23.530751"
     inkscape:window-width="1920"
     inkscape:window-height="964"
     inkscape:window-x="0"
     inkscape:window-y="32"
     inkscape:window-maximized="1"
     inkscape:current-layer="svg489" />
  <circle
     cx="32"
     cy="32"
     r="27"
     fill="#3de365"
     id="circle483"
     style="fill:#f9f9f9" />
  <g
     id="g11226"
     inkscape:label="spark"
     transform="translate(0.49293575,0.00824114)">
    <path
       inkscape:connector-curvature="0"
       id="path1002"
       d="m 29.827922,11.341847 c 0,0 3.222156,-0.05015 6.533804,2.207176 3.311648,2.257339 5.235976,4.414354 5.862506,5.818921 0.626522,1.40457 2.685126,3.862563 2.640372,8.377246 -0.04468,4.514674 -0.984537,7.52447 -2.595626,10.032622 -1.611067,2.508167 -4.519954,4.414335 -8.010595,4.514691 -3.49067,0.100132 -5.728259,-2.40784 -6.489035,-3.81241 -0.760798,-1.404564 -1.074059,-4.414354 -0.134351,-6.57136 0.939783,-2.157024 2.416581,-2.157024 2.908857,-1.956366 0.492284,0.200658 0.62653,0.501626 0.895045,1.053421 0.268432,0.551796 0.447537,0.451472 0.850291,0.150508 0.402761,-0.300982 0.537037,-0.652125 0.447537,-1.103591 -0.08938,-0.451472 -0.626552,-1.003265 -1.07406,-1.153756 -0.447537,-0.15048 -1.074059,-0.601957 -1.969103,-0.451458 -0.895037,0.150479 -2.64035,0.652116 -4.117171,2.859288 -1.47682,2.207173 -1.297798,5.618267 -0.402753,7.223485 0.895014,1.605207 2.595596,4.614994 6.354751,5.668435 3.759186,1.053412 9.84543,-2.056674 11.94878,-6.872345 2.103343,-4.815658 2.148089,-7.072997 2.058597,-11.035878 -0.08938,-3.962893 -3.266902,-9.88214 -6.802297,-12.039152 -3.535387,-2.157015 -6.175759,-3.411095 -8.905631,-2.909463 z"
       style="fill:#ffc344;fill-opacity:1;stroke:none;stroke-width:0.0938084px;stroke-linecap:butt;stroke-linejoin:miter;stroke-opacity:1" />
    <path
       inkscape:connector-curvature="0"
       id="path1012"
       d="m 31.698418,31.381147 c 0,0 -0.886041,-0.922244 -1.677164,0.709411 -0.791094,1.631644 -1.170827,3.08594 -0.379733,4.859482 0.791115,1.773533 2.43663,2.83766 4.968194,2.80219 2.531534,-0.03564 4.39858,-0.709423 5.506108,-2.731256 1.107579,-2.021824 1.961971,-3.51159 2.056897,-4.256475 0.09504,-0.744886 0.601242,0.106411 0.44304,0.744885 -0.15812,0.638466 -0.126441,1.879947 0.316434,1.631644 0.443032,-0.248291 0.791115,-0.638465 0.854392,-0.461115 0.06339,0.177351 -0.506316,1.276951 -0.77528,1.826736 -0.268994,0.549795 -1.10758,1.879957 -1.598052,2.394272 -0.490472,0.514342 -1.170856,1.24148 -1.977785,1.773532 -0.806937,0.532053 -2.056875,1.152809 -2.753065,1.29469 -0.696168,0.141993 -2.088525,0.443377 -2.879648,0.407906 -0.791093,-0.03535 -1.803717,-0.19517 -2.92711,-0.815842 -1.123364,-0.620727 -2.341675,-1.578421 -2.816342,-2.536141 -0.474659,-0.957705 -1.202475,-1.826735 -1.044273,-4.238745 0.15812,-2.412002 0.870235,-3.65348 1.40817,-4.221002 0.537966,-0.567537 1.329081,-0.81583 1.85121,-0.691679 0.522122,0.124145 0.854392,0.461123 0.980968,0.709409 0.126725,0.248291 0.332277,0.709414 0.443039,0.798098 z"
       style="fill:#f06767;fill-opacity:1;stroke:none;stroke-width:0.0938084px;stroke-linecap:butt;stroke-linejoin:miter;stroke-opacity:1" />
    <path
       inkscape:connector-curvature="0"
       id="path1014"
       d="m 39.736112,44.150585 c 0,0 3.797316,-2.447497 5.569414,-6.313783 1.77209,-3.866301 2.531556,-6.349248 2.310055,-10.144616 -0.221478,-3.795357 -0.759496,-1.915416 -0.15812,-3.547069 0.601272,-1.631653 -0.379703,-4.859484 0.03166,-5.072305 0.41139,-0.212821 1.297409,1.418826 1.55056,2.731244 0.253157,1.312412 1.360707,5.356063 0.474666,10.499321 -0.886019,5.143245 -2.974544,7.200533 -4.366901,8.583898 -1.392364,1.383364 -4.556812,3.795362 -5.031478,3.759892 -0.474659,-0.03564 -0.537935,-0.03564 -0.379733,-0.496582 z"
       style="fill:#3f62eb;fill-opacity:1;stroke:none;stroke-width:0.0938084px;stroke-linecap:butt;stroke-linejoin:miter;stroke-opacity:1" />
    <path
       inkscape:connector-curvature="0"
       id="path1016"
       d="m 32.900901,36.70174 c 0,0 2.025248,0.496591 3.575838,-0.567528 1.550559,-1.064127 2.753065,-2.802187 2.942916,-3.476131 0.189799,-0.673941 0.221479,0.603004 0.44304,-0.03544 0.221471,-0.638483 1.10755,-1.915422 0.66451,-4.894963 -0.443009,-2.979536 -0.474659,-3.121424 -1.297401,-4.717604 -0.822773,-1.596182 -2.784722,-3.79536 -3.987228,-4.504774 -1.202475,-0.709415 -2.879618,-1.773534 -5.189673,-1.702593 -2.310055,0.07094 -1.550589,-0.106411 -3.765689,0.319237 -2.2151,0.425648 -4.208699,1.59618 -4.873246,2.234654 -0.664511,0.638471 -2.436601,2.376536 -3.069492,3.334242 -0.632891,0.957708 -2.373332,3.121421 -3.29103,6.136432 -0.917676,3.015005 -1.297409,3.33424 -1.360708,5.3206 -0.06339,1.986361 0.158112,2.518414 -0.221479,2.695773 -0.379733,0.177351 -0.316434,-1.489769 -0.284807,-2.660309 0.03166,-1.170524 0.03166,-4.221005 1.424007,-7.626191 1.392364,-3.405185 3.860622,-6.242842 5.252979,-7.271491 1.392357,-1.028649 3.006223,-2.412007 5.50613,-3.085951 2.499915,-0.673941 4.999822,-0.567528 6.550381,-0.248291 1.550589,0.319234 3.955578,1.418826 5.25298,2.518418 1.297431,1.099591 2.721445,2.447477 3.797345,4.646657 1.075901,2.19918 1.360708,5.001365 1.329051,6.171897 -0.03166,1.170538 -0.569584,3.866312 -1.392357,5.178722 -0.822742,1.31242 -1.930292,2.873133 -3.069499,3.440658 -1.139199,0.567525 -2.531557,0.744884 -3.670763,0.177351 -1.1392,-0.567537 -1.075901,-0.780355 -1.265752,-1.383353 z"
       style="fill:#fce102;fill-opacity:1;stroke:none;stroke-width:0.0938084px;stroke-linecap:butt;stroke-linejoin:miter;stroke-opacity:1" />
    <path
       inkscape:connector-curvature="0"
       id="path1018"
       d="m 32.900901,36.70174 c 0,0 1.60362,0.499193 2.957368,-0.178001 1.353725,-0.677212 1.857205,-1.329327 2.181669,-1.718087 0.324435,-0.38877 0.939791,-1.116134 1.10761,-1.454735 0.167737,-0.338596 0.346812,-0.539251 0.346812,-0.664655 0,-0.125419 -0.313269,-0.426395 -0.0113,-1.153756 0.302087,-0.727361 0.570602,-2.395291 0.436334,-3.147732 -0.134359,-0.752446 -0.447508,-4.92853 -3.132634,-7.712586 -2.685126,-2.784054 -5.347875,-3.110113 -5.347875,-3.110113 0,0 4.251469,1.479812 6.24292,5.969411 1.991473,4.489605 1.342544,7.373979 0.06728,9.129689 -1.275429,1.755707 -3.08788,1.956363 -3.580163,1.50489 -0.492254,-0.451469 -1.506636,2.061564 -1.26796,2.535678 z"
       style="fill:#5ed938;fill-opacity:1;stroke:none;stroke-width:0.0938084px;stroke-linecap:butt;stroke-linejoin:miter;stroke-opacity:1" />
    <path
       inkscape:connector-curvature="0"
       id="path1020"
       d="m 27.724572,20.596942 c 0,0 -2.864111,-0.02517 -5.034577,1.555052 -2.170473,1.580142 -3.222156,2.859302 -3.826309,3.862564 -0.604122,1.003265 -1.297805,2.382749 -1.208275,2.357668 0.08938,-0.02518 2.617973,-3.912726 4.587077,-4.915985 1.969074,-1.003265 3.938148,-2.407832 6.645643,-1.379492 2.707496,1.028348 3.982924,2.457994 4.5647,2.106856 0.581784,-0.35114 0.693683,-0.777528 0.358045,-1.254079 -0.335638,-0.47655 -2.707503,-2.809137 -6.086304,-2.332584 z"
       style="fill:#8fdbe9;fill-opacity:1;stroke:none;stroke-width:0.0938084px;stroke-linecap:butt;stroke-linejoin:miter;stroke-opacity:1" />
    <path
       inkscape:connector-curvature="0"
       id="path1022"
       d="m 23.439223,40.638984 c 0.189792,0.106353 1.613858,2.837668 2.753065,3.29878 1.139199,0.461112 1.898673,0.496582 2.025248,0.709403 0.126718,0.212708 0.09504,1.276954 1.10755,1.738066 1.012624,0.461141 5.759288,1.915417 7.119996,2.057297 1.360708,0.141994 0.221478,1.028663 1.044251,1.347894 0.822772,0.319232 4.335303,0.496582 5.189703,0.106354 0.854392,-0.390171 0.854392,0.354701 -0.632891,0.993164 -1.48729,0.638491 -5.411204,2.163736 -7.974395,1.809035 -2.563213,-0.35473 -5.601056,-0.957723 -7.309877,-2.305617 -1.708792,-1.347894 -2.436608,-1.950887 -1.803717,-2.057297 0.632891,-0.106354 2.310033,1.879946 3.037849,2.092768 0.727847,0.212707 1.329081,0.212707 0.886042,-0.283761 -0.44301,-0.496583 -3.32265,-2.69576 -3.607457,-2.58935 -0.284777,0.106354 -0.886049,0.177351 -1.392357,-0.567551 -0.506316,-0.744873 -3.164425,-4.859467 -3.006223,-7.058645 0.158112,-2.199183 0.66454,-1.631658 1.265774,-0.81583 0.601272,0.81583 1.297439,1.525233 1.297439,1.525233 z"
       style="fill:#fd7aff;fill-opacity:1;stroke:none;stroke-width:0.0938084px;stroke-linecap:butt;stroke-linejoin:miter;stroke-opacity:1" />
  </g>
</svg>
