<svg xmlns="http://www.w3.org/2000/svg" width="64" height="64" viewBox="0 0 16.933 16.933"><circle cx="8.466" cy="8.466" r="7.144" fill="#4c8cff" style="paint-order:stroke fill markers"/><path fill="#457eff" d="M8.467 1.323a7.144 7.144 0 0 0-7.144 7.144A7.14 7.14 0 0 0 6.27 15.26a10.14 10.14 0 0 0 9.283-7.62 7.144 7.144 0 0 0-7.086-6.317" style="stroke-width:.26458;paint-order:stroke fill markers"/><path fill="#00f" d="M8.467 1.323A7.14 7.14 0 0 0 1.97 5.512a8.767 8.767 0 0 0 8.694 7.725 8.8 8.8 0 0 0 3.776-.864 7.14 7.14 0 0 0 1.17-3.907 7.144 7.144 0 0 0-7.144-7.143Z" opacity=".1" style="paint-order:stroke fill markers"/><path fill="#fff" d="M5.292 5.292a3.175 3.175 0 0 0 3.175 3.175 3.175 3.175 0 0 0 3.175-3.176h-.794a2.38 2.38 0 0 1-2.381 2.381 2.38 2.38 0 0 1-2.382-2.38Z" style="paint-order:stroke markers fill"/><path fill="#fff" d="M7.673 13.516v-2.647H6.35l2.117-2.116 2.115 2.116H9.26v2.646z" style="display:inline;paint-order:stroke markers fill"/><circle cx="12.298" cy="12.348" r="4.233" fill="#7ba3f4" style="fill:#f9f9f9;fill-opacity:1"/><path d="M11.356 8.902s.514-.008 1.042.352c.529.36.836.704.936.929.1.224.429.616.421 1.337-.007.72-.157 1.2-.414 1.601a1.58 1.58 0 0 1-1.278.72c-.557.017-.915-.384-1.036-.608s-.172-.704-.022-1.049c.15-.344.386-.344.465-.312.078.032.1.08.143.168s.071.072.135.024.086-.104.072-.176c-.015-.072-.1-.16-.172-.184-.07-.024-.171-.096-.314-.072s-.421.104-.657.456-.207.897-.064 1.153.414.737 1.014.905 1.571-.328 1.907-1.097.343-1.13.329-1.762-.522-1.577-1.086-1.921-.986-.544-1.421-.465" style="fill:#ffc344;fill-opacity:1;stroke:none;stroke-width:.0149728px;stroke-linecap:butt;stroke-linejoin:miter;stroke-opacity:1" transform="translate(.675 .15)"/><path d="M11.654 12.1s-.141-.147-.268.113c-.126.26-.186.493-.06.776s.389.453.793.447.702-.113.879-.436c.176-.323.313-.56.328-.68.015-.118.096.018.07.12s-.02.3.051.26.126-.102.137-.073c.01.028-.081.203-.124.291a2 2 0 0 1-.255.382c-.079.082-.187.198-.316.283a1.6 1.6 0 0 1-.44.207c-.11.023-.333.07-.46.065a1.04 1.04 0 0 1-.466-.13c-.18-.1-.374-.252-.45-.405-.075-.153-.192-.292-.166-.677s.138-.583.224-.673.213-.13.296-.11.136.073.156.113.053.113.071.127" style="fill:#f06767;fill-opacity:1;stroke:none;stroke-width:.0149728px;stroke-linecap:butt;stroke-linejoin:miter;stroke-opacity:1" transform="translate(.675 .15)"/><path d="M12.937 14.138s.606-.39.889-1.008c.283-.617.404-1.013.369-1.619s-.122-.305-.026-.566-.06-.776.005-.81c.066-.034.207.227.248.436.04.21.217.855.075 1.676-.14.821-.474 1.15-.697 1.37s-.727.606-.803.6c-.075-.005-.085-.005-.06-.079z" style="fill:#3f62eb;fill-opacity:1;stroke:none;stroke-width:.0149728px;stroke-linecap:butt;stroke-linejoin:miter;stroke-opacity:1" transform="translate(.675 .15)"/><path d="M11.846 12.95s.323.078.57-.091c.248-.17.44-.448.47-.555s.036.096.071-.006.177-.306.106-.781-.075-.498-.207-.753c-.131-.255-.444-.606-.636-.72-.192-.112-.46-.282-.829-.27-.368.01-.247-.018-.6.05-.354.068-.672.255-.778.357-.107.102-.39.38-.49.532-.101.153-.38.498-.526.98-.146.48-.207.532-.217.848-.01.318.025.403-.035.43-.06.03-.05-.237-.046-.424.005-.186.005-.674.228-1.217.222-.543.616-.996.838-1.16.222-.165.48-.385.879-.493a2.4 2.4 0 0 1 1.045-.04c.248.051.632.227.839.402s.434.39.606.742c.172.35.217.798.212.985s-.09.617-.222.827-.308.458-.49.549c-.182.09-.404.119-.586.028-.182-.09-.172-.124-.202-.22" style="fill:#fce102;fill-opacity:1;stroke:none;stroke-width:.0149728px;stroke-linecap:butt;stroke-linejoin:miter;stroke-opacity:1" transform="translate(.675 .15)"/><path d="M11.846 12.95s.256.079.472-.03c.216-.107.296-.211.348-.273s.15-.178.177-.233c.027-.054.055-.086.055-.106s-.05-.068-.001-.184c.048-.116.09-.382.069-.502-.022-.12-.071-.787-.5-1.231-.428-.445-.853-.497-.853-.497s.678.237.996.953c.318.717.214 1.177.01 1.457s-.492.313-.57.24c-.08-.072-.241.33-.203.405" style="fill:#5ed938;fill-opacity:1;stroke:none;stroke-width:.0149728px;stroke-linecap:butt;stroke-linejoin:miter;stroke-opacity:1" transform="translate(.675 .15)"/><path d="M11.02 10.379s-.457-.004-.804.248c-.346.252-.514.456-.61.617-.097.16-.208.38-.193.376s.417-.625.732-.785c.314-.16.628-.384 1.06-.22s.636.392.73.336q.138-.085.056-.2c-.053-.076-.432-.448-.971-.372" style="fill:#8fdbe9;fill-opacity:1;stroke:none;stroke-width:.0149728px;stroke-linecap:butt;stroke-linejoin:miter;stroke-opacity:1" transform="translate(.675 .15)"/><path d="M10.336 13.578c.03.017.257.453.44.526.181.074.302.08.323.114.02.033.015.203.176.277.162.073.92.306 1.137.328s.035.164.166.215c.132.051.692.08.829.017.136-.062.136.057-.101.159s-.864.345-1.273.289c-.41-.057-.894-.153-1.167-.369-.273-.215-.389-.31-.288-.328.101-.017.369.3.485.334s.212.034.142-.045c-.071-.08-.53-.43-.576-.413-.046.016-.142.028-.223-.091-.08-.119-.505-.776-.48-1.127.026-.35.107-.26.203-.13a3 3 0 0 0 .207.244" style="fill:#fd7aff;fill-opacity:1;stroke:none;stroke-width:.0149728px;stroke-linecap:butt;stroke-linejoin:miter;stroke-opacity:1" transform="translate(.675 .15)"/></svg>