<?xml version="1.0" encoding="UTF-8" standalone="no"?>
<svg
   width="64"
   height="64"
   viewBox="0 0 16.934 16.934"
   version="1.1"
   id="svg6"
   sodipodi:docname="spitfire.svg"
   inkscape:version="1.1.2 (0a00cf5339, 2022-02-04)"
   xmlns:inkscape="http://www.inkscape.org/namespaces/inkscape"
   xmlns:sodipodi="http://sodipodi.sourceforge.net/DTD/sodipodi-0.dtd"
   xmlns="http://www.w3.org/2000/svg"
   xmlns:svg="http://www.w3.org/2000/svg">
  <defs
     id="defs10" />
  <sodipodi:namedview
     id="namedview8"
     pagecolor="#505050"
     bordercolor="#ffffff"
     borderopacity="1"
     inkscape:pageshadow="0"
     inkscape:pageopacity="0"
     inkscape:pagecheckerboard="1"
     showgrid="false"
     inkscape:zoom="5.59375"
     inkscape:cx="22.882682"
     inkscape:cy="-3.0391061"
     inkscape:window-width="1920"
     inkscape:window-height="1000"
     inkscape:window-x="0"
     inkscape:window-y="44"
     inkscape:window-maximized="1"
     inkscape:current-layer="svg6" />
  <circle
     cx="8.467"
     cy="8.467"
     r="7.144"
     fill="#333"
     style="paint-order:markers stroke fill"
     id="circle2" />
  <path
     style="fill:#ffffff;fill-opacity:1;stroke-width:0.00701095"
     d="m 8.6892458,13.514485 c -0.024529,-0.120912 -0.125316,-0.720191 -0.1282736,-0.762717 -0.0026,-0.03734 -1.543e-4,-0.07601 0.00731,-0.115681 0.038684,-0.205653 0.2071059,-0.340488 0.4777501,-0.382477 0.219278,-0.03402 0.3991462,0.02806 0.5008471,0.172886 0.062117,0.08845 0.07095,0.121294 0.1444537,0.537069 0.036542,0.206704 0.064577,0.377692 0.062292,0.379971 -0.00685,0.0069 -0.2164764,0.04167 -0.2210148,0.03675 -0.0023,-0.0025 -0.03185,-0.162292 -0.065659,-0.355094 -0.033811,-0.192801 -0.067456,-0.369975 -0.074768,-0.393719 -0.044989,-0.146078 -0.1927455,-0.215277 -0.3653914,-0.171121 -0.1334241,0.03412 -0.2095466,0.105997 -0.2294969,0.216686 -0.01034,0.05736 -0.00964,0.06274 0.060446,0.462988 0.032666,0.186553 0.058,0.342813 0.0563,0.347245 -0.0017,0.0045 -0.04684,0.0153 -0.1003085,0.02416 -0.053469,0.0089 -0.1024592,0.01757 -0.1088675,0.01936 -0.00831,0.0023 -0.012788,-0.0024 -0.015619,-0.01629 z M 6.8200526,13.288898 C 6.6793077,13.235858 6.5499556,13.185185 6.5326035,13.17629 6.4684012,13.143381 6.4053394,13.095671 6.3522699,13.039853 6.2441623,12.926148 6.1964716,12.808569 6.1961994,12.655071 c -2.951e-4,-0.16654 0.062924,-0.321605 0.1780562,-0.436738 0.093126,-0.09312 0.1929291,-0.141265 0.3265524,-0.157512 0.080215,-0.0098 0.1491779,-0.0045 0.2419364,0.01834 0.079796,0.01967 0.5544963,0.194821 0.5526634,0.203918 -9.53e-4,0.0047 -0.3874712,1.044153 -0.4056649,1.090911 -0.00262,0.0068 -0.00681,0.01206 -0.00928,0.01181 -0.00248,-2.53e-4 -0.1196631,-0.04386 -0.2604079,-0.0969 z m 0.2571834,-0.54012 c 0.078285,-0.209851 0.1415714,-0.382195 0.1406361,-0.382983 -0.01018,-0.0086 -0.2789812,-0.102209 -0.3117119,-0.108573 -0.059929,-0.01164 -0.1566234,-0.0055 -0.2087993,0.01325 -0.1171609,0.04214 -0.2010578,0.135545 -0.2496673,0.277977 -0.014303,0.0419 -0.016749,0.06247 -0.016749,0.140759 v 0.09169 l 0.030659,0.06186 c 0.038158,0.07699 0.095521,0.136205 0.1700243,0.17551 0.057762,0.03048 0.2774651,0.115446 0.2931721,0.113388 0.00657,-8.66e-4 0.059824,-0.134614 0.1524361,-0.382872 z M 10.9132,12.1256 c -0.314953,-0.156892 -0.572701,-0.286834 -0.572772,-0.288762 -1.23e-4,-0.0033 0.148259,-0.126906 0.173975,-0.144919 0.01004,-0.0071 0.03401,0.0029 0.148174,0.06124 0.0749,0.03829 0.138846,0.06875 0.142091,0.06768 0.0032,-0.0011 0.09496,-0.07584 0.203819,-0.166152 l 0.197923,-0.164196 -0.04757,-0.14749 c -0.02615,-0.08111 -0.04532,-0.14949 -0.04257,-0.151934 0.04194,-0.03729 0.178155,-0.147404 0.180005,-0.145512 0.0013,0.0014 0.08337,0.262829 0.182239,0.58095 0.09886,0.318123 0.184117,0.591743 0.189458,0.608045 l 0.0097,0.02965 -0.08863,0.07377 c -0.04874,0.04058 -0.09192,0.07357 -0.09592,0.07332 -0.004,-2.45e-4 -0.264981,-0.128807 -0.579935,-0.285697 z m 0.504317,0.004 c -0.0031,-0.0083 -0.143571,-0.433722 -0.149445,-0.452457 -0.0016,-0.0053 -0.06097,0.03953 -0.147082,0.111417 -0.07934,0.06624 -0.141707,0.122833 -0.13859,0.125768 0.008,0.0075 0.425041,0.223362 0.432331,0.223731 0.0033,1.68e-4 0.0045,-0.0036 0.0028,-0.0084 z M 4.7804474,12.04431 4.7005404,11.96417 5.1134412,11.546482 c 0.2270954,-0.229732 0.416152,-0.41769 0.4201259,-0.41769 0.00922,0 0.1577216,0.148644 0.1577216,0.157882 0,0.0038 -0.1869602,0.193859 -0.4154673,0.422343 L 4.8603539,12.124422 Z M 4.0482316,10.613215 C 3.8210623,10.570191 3.6416705,10.398468 3.5614072,10.147199 3.4964031,9.9436978 3.5190346,9.7511273 3.6270285,9.5888233 3.7486891,9.4059788 3.9737418,9.3013999 4.1899977,9.3272208 c 0.142444,0.017006 0.2573617,0.072863 0.3589855,0.1744877 0.083858,0.083855 0.1505001,0.2030677 0.1866649,0.3339053 0.017136,0.06199 0.019285,0.08173 0.019427,0.1783762 1.228e-4,0.08308 -0.00286,0.120225 -0.012652,0.157746 -0.017648,0.0676 -0.073809,0.180845 -0.114619,0.231117 -0.073972,0.09111 -0.1914574,0.166823 -0.3106632,0.200174 -0.070089,0.01961 -0.1943167,0.02432 -0.2689099,0.01018 z m 0.174262,-0.231258 C 4.3807969,10.348473 4.5105954,10.228208 4.5447351,10.083376 4.5782374,9.9412498 4.529945,9.7780658 4.422433,9.6701044 4.2969408,9.5440876 4.1234278,9.5185397 3.9561972,9.6014566 3.7404754,9.7084151 3.6706779,9.9368998 3.7831372,10.167972 c 0.032543,0.06687 0.1187805,0.15717 0.1764457,0.184765 0.082588,0.03951 0.1688731,0.04911 0.2629107,0.02922 z M 13.221917,9.4209428 c -0.04002,-0.00518 -0.07364,-0.010252 -0.07473,-0.011372 -0.0011,-0.00111 0.0116,-0.1203404 0.02817,-0.2649408 0.01657,-0.1446011 0.0296,-0.2635243 0.02896,-0.2642741 -0.0023,-0.00264 -0.302256,-0.03603 -0.30441,-0.033878 -0.0012,0.0012 -0.01498,0.1153125 -0.03059,0.2535801 -0.01562,0.1382671 -0.02903,0.252103 -0.02978,0.2529681 -0.0015,0.00176 -0.174721,-0.019107 -0.176782,-0.021262 -7.04e-4,-7.384e-4 0.01154,-0.1141682 0.0272,-0.252067 0.01566,-0.1378992 0.02719,-0.2520155 0.02562,-0.2535921 -0.0045,-0.00438 -0.322971,-0.040206 -0.326475,-0.036702 -0.0016,0.00169 -0.01664,0.1218033 -0.03322,0.2669175 -0.01658,0.1451139 -0.03214,0.2658411 -0.03457,0.2682819 -0.0024,0.00241 -0.04235,3.331e-4 -0.08868,-0.00472 -0.07318,-0.00796 -0.08423,-0.010789 -0.08423,-0.02178 0,-0.015461 0.08441,-0.7592404 0.08629,-0.7604639 0.002,-0.00133 1.171891,0.1318819 1.17412,0.1336926 0.0011,8.666e-4 -0.0124,0.127428 -0.02992,0.2812429 -0.06072,0.532963 -0.05297,0.479591 -0.06953,0.4785779 -0.008,-4.931e-4 -0.04741,-0.00509 -0.08742,-0.010242 z m -1.09378,-1.8894527 c -0.04286,-0.1196987 -0.04289,-0.119822 -0.02955,-0.1367671 0.0073,-0.00933 0.06002,-0.069041 0.117076,-0.132696 0.213786,-0.2385174 0.237939,-0.2899604 0.195697,-0.4168006 -0.01548,-0.046485 -0.02123,-0.05636 -0.0306,-0.052655 -0.05761,0.022772 -0.458379,0.1652317 -0.459832,0.1634541 -0.0065,-0.00793 -0.07525,-0.2102504 -0.07243,-0.2130722 0.0043,-0.00426 1.108451,-0.4029145 1.109973,-0.4007458 0.0075,0.010786 0.159201,0.4464596 0.16511,0.4743901 0.0045,0.021681 0.0067,0.067935 0.0047,0.1070944 -0.0031,0.063442 -0.0056,0.07361 -0.03245,0.1277244 -0.03299,0.066578 -0.07618,0.1108509 -0.137311,0.1407599 -0.130366,0.063782 -0.254356,0.046785 -0.360904,-0.049474 l -0.02694,-0.024341 -0.0081,0.0324 c -0.01981,0.078669 -0.0615,0.1371361 -0.222596,0.3121698 -0.05455,0.059258 -0.114035,0.1258824 -0.132214,0.1480545 -0.01818,0.022172 -0.03388,0.040313 -0.03489,0.040313 -0.001,0 -0.02114,-0.053914 -0.04474,-0.1198069 z m 0.709166,-0.5462168 c 0.101253,-0.037884 0.121025,-0.1173785 0.06746,-0.2712314 -0.01586,-0.045561 -0.03145,-0.085642 -0.03463,-0.089071 -0.0048,-0.0052 -0.308114,0.097997 -0.308114,0.1048402 0,0.00119 0.01416,0.040661 0.03146,0.087715 0.04005,0.1088909 0.06266,0.1407432 0.119273,0.1679597 0.03617,0.017391 0.07768,0.017321 0.124541,-2.137e-4 z M 4.3750809,7.4315364 c -0.054894,-0.019876 -0.099852,-0.037837 -0.099906,-0.03991 -5.62e-5,-0.00207 0.021197,-0.017593 0.047225,-0.034485 0.026029,-0.016893 0.074458,-0.057932 0.1076205,-0.091197 0.074646,-0.074877 0.1162794,-0.1510687 0.1230784,-0.2252419 0.0089,-0.09706 -0.041511,-0.1606217 -0.1272869,-0.1605018 -0.044654,6.3e-5 -0.088785,0.030468 -0.2033178,0.1400866 C 4.0901354,7.1469641 4.0583008,7.1720035 3.9858801,7.2063925 3.8899584,7.2519411 3.7929419,7.2478513 3.6913991,7.1939784 3.4781258,7.0808276 3.494341,6.7317459 3.7241372,6.4891928 l 0.043455,-0.045867 0.095995,0.034312 c 0.052797,0.018872 0.095842,0.035905 0.095655,0.037851 -1.873e-4,0.00195 -0.017753,0.017736 -0.039035,0.035088 -0.079885,0.065134 -0.151199,0.1658374 -0.1780168,0.2513807 -0.035105,0.1119772 0.00446,0.1972232 0.091572,0.1972947 0.055306,4.2e-5 0.09503,-0.026488 0.2160196,-0.1442927 0.129952,-0.1265308 0.1587459,-0.1495456 0.2286005,-0.1827194 0.1193729,-0.05669 0.2683622,-0.030175 0.3692034,0.065704 0.098607,0.093755 0.1235797,0.2433684 0.067811,0.4062544 -0.03741,0.109264 -0.075051,0.1697585 -0.1573954,0.2529515 -0.03912,0.039525 -0.073824,0.071561 -0.07712,0.071195 -0.00329,-3.682e-4 -0.050906,-0.016932 -0.1058006,-0.036809 z M 4.9181153,5.5705805 4.4990543,5.1514758 4.6902889,4.9620959 c 0.2029149,-0.2009474 0.226149,-0.2189142 0.3170137,-0.2451472 0.031305,-0.00904 0.057906,-0.011173 0.107119,-0.0086 0.057844,0.00303 0.071692,0.00649 0.1188655,0.029813 0.1109761,0.054848 0.1890017,0.163738 0.1965605,0.274315 0.0049,0.071515 -0.00606,0.1224354 -0.04156,0.1933722 -0.024358,0.048666 -0.043635,0.072379 -0.1339766,0.1648182 l -0.1055253,0.1079785 0.174806,0.174911 0.174806,0.1749111 -0.08061,0.08061 -0.08061,0.08061 z M 5.1070758,5.2588086 c 0.070858,-0.072293 0.086151,-0.09183 0.096643,-0.1234632 0.00778,-0.023471 0.011057,-0.048083 0.00871,-0.065557 -0.00531,-0.039583 -0.037623,-0.088022 -0.078133,-0.1171205 -0.030506,-0.021912 -0.039756,-0.024913 -0.077114,-0.025012 -0.06163,-1.647e-4 -0.096242,0.019926 -0.1905951,0.1106315 l -0.080611,0.077495 0.1142982,0.114456 c 0.062864,0.062951 0.1161716,0.114456 0.1184612,0.114456 0.00229,0 0.042043,-0.038649 0.088341,-0.085884 z m 6.0913172,0.5827676 c -0.03855,-0.04284 -0.07011,-0.081404 -0.07011,-0.085697 0,-0.00749 0.816766,-0.7636157 0.850998,-0.7878086 0.01646,-0.011622 0.01718,-0.011258 0.04908,0.024309 0.01781,0.019859 0.05195,0.057825 0.07589,0.084368 l 0.04351,0.048262 -0.431176,0.3955375 c -0.237147,0.2175457 -0.434975,0.3962984 -0.439621,0.3972283 -0.0046,9.252e-4 -0.03999,-0.03336 -0.07856,-0.0762 z M 6.4882355,4.3999666 C 6.3618622,4.1040166 6.2591647,3.8587208 6.2600188,3.8548648 c 0.00134,-0.00599 0.2035306,-0.096739 0.206387,-0.09262 5.636e-4,8.113e-4 0.05882,0.1371396 0.1294572,0.3029486 0.070638,0.1658091 0.1747609,0.4096607 0.2313847,0.5418923 0.092801,0.2167157 0.1017334,0.2410737 0.09059,0.2470376 -0.018819,0.010071 -0.191071,0.083934 -0.1957393,0.083934 -0.00225,0 -0.1074892,-0.2421408 -0.2338629,-0.5380907 z M 9.847033,4.8815535 c -0.05302,-0.026817 -0.096401,-0.049819 -0.096401,-0.051113 0,-0.0028 0.1681683,-0.3462772 0.360937,-0.7372022 0.07606,-0.1542411 0.142645,-0.2904751 0.147973,-0.3027424 l 0.0097,-0.022304 0.320859,0.1579035 c 0.176471,0.086846 0.3221,0.1591214 0.323617,0.1606098 0.0049,0.00478 -0.06554,0.1516064 -0.07442,0.1551757 -0.0047,0.00189 -0.105366,-0.044224 -0.223679,-0.1024835 -0.118313,-0.058259 -0.216249,-0.1047906 -0.217636,-0.1034042 -0.0014,0.00138 -0.03212,0.062516 -0.06828,0.1358417 l -0.06576,0.1333205 0.218354,0.1074186 c 0.120096,0.05908 0.219231,0.1079743 0.220301,0.1086534 0.0011,6.793e-4 -0.01527,0.037858 -0.0363,0.082619 l -0.03824,0.081383 -0.07237,-0.033906 c -0.03983,-0.018647 -0.139604,-0.067542 -0.221733,-0.108656 L 10.184628,4.4679158 10.071043,4.6992629 C 10.008573,4.8265036 9.9543041,4.9305428 9.950449,4.930461 9.946539,4.930379 9.90006,4.908371 9.8470377,4.881554 Z M 8.2222437,4.0863307 V 3.5851518 l -0.2085759,-0.00186 -0.2085759,-0.00186 -0.00197,-0.08939 -0.00197,-0.08939 h 0.5365478 0.5365475 v 0.087642 0.087636 H 8.6639246 8.4535959 V 4.0827171 4.5875058 H 8.3379151 8.2222344 Z"
     id="path1011" />
</svg>
