<?xml version="1.0" encoding="UTF-8" standalone="no"?>
<svg
   width="64"
   height="64"
   viewBox="0 0 16.934 16.934"
   version="1.1"
   id="svg6"
   sodipodi:docname="spitfire.svg"
   inkscape:version="1.1.2 (0a00cf5339, 2022-02-04)"
   xmlns:inkscape="http://www.inkscape.org/namespaces/inkscape"
   xmlns:sodipodi="http://sodipodi.sourceforge.net/DTD/sodipodi-0.dtd"
   xmlns="http://www.w3.org/2000/svg"
   xmlns:svg="http://www.w3.org/2000/svg">
  <defs
     id="defs10" />
  <sodipodi:namedview
     id="namedview8"
     pagecolor="#505050"
     bordercolor="#ffffff"
     borderopacity="1"
     inkscape:pageshadow="0"
     inkscape:pageopacity="0"
     inkscape:pagecheckerboard="1"
     showgrid="false"
     inkscape:zoom="11.1875"
     inkscape:cx="35.128492"
     inkscape:cy="38.167598"
     inkscape:window-width="1920"
     inkscape:window-height="1000"
     inkscape:window-x="0"
     inkscape:window-y="44"
     inkscape:window-maximized="1"
     inkscape:current-layer="svg6" />
  <circle
     cx="8.467"
     cy="8.467"
     r="7.144"
     fill="#333"
     style="paint-order:markers stroke fill"
     id="circle2" />
  <path
     style="fill:#ffffff;stroke-width:0.00890044;fill-opacity:1"
     d="m 8.748346,14.873446 c -0.03114,-0.153498 -0.1590895,-0.914287 -0.1628441,-0.968274 -0.0033,-0.04741 -1.959e-4,-0.09649 0.00928,-0.146857 0.049109,-0.261078 0.262922,-0.432252 0.6065062,-0.485556 0.2783746,-0.04319 0.5067183,0.03563 0.6358281,0.219479 0.078857,0.112289 0.090071,0.153983 0.1833848,0.681812 0.04639,0.262412 0.08198,0.479481 0.07908,0.482376 -0.0087,0.0087 -0.274818,0.05291 -0.2805795,0.04666 -0.00292,-0.0032 -0.040433,-0.206032 -0.083355,-0.450794 -0.042922,-0.244762 -0.085636,-0.469685 -0.094919,-0.499829 -0.057114,-0.185447 -0.2446915,-0.273295 -0.4638664,-0.217239 -0.1693825,0.04332 -0.2660204,0.134564 -0.2913474,0.275084 -0.013126,0.07283 -0.012235,0.07965 0.076737,0.587766 0.041469,0.236829 0.073631,0.435202 0.071472,0.440829 -0.00216,0.0056 -0.059463,0.01943 -0.1273422,0.03067 -0.067879,0.01124 -0.1300724,0.0223 -0.1382077,0.02457 -0.010556,0.0029 -0.016234,-0.003 -0.019828,-0.02069 z M 6.3753952,14.587061 C 6.1967188,14.519727 6.0325056,14.455397 6.010477,14.444106 5.9289718,14.402328 5.8489146,14.341759 5.7815426,14.270898 5.6442992,14.126549 5.5837557,13.977283 5.5834101,13.782415 c -3.747e-4,-0.211423 0.079883,-0.40828 0.2260435,-0.554441 0.1182226,-0.118222 0.2449244,-0.179336 0.4145599,-0.199962 0.101834,-0.01238 0.1893821,-0.0057 0.3071395,0.02328 0.1013013,0.02497 0.7039361,0.247328 0.7016093,0.258876 -0.00121,0.006 -0.4918968,1.325558 -0.514994,1.384917 -0.00333,0.0086 -0.00864,0.01531 -0.011784,0.01499 -0.00315,-3.21e-4 -0.1519129,-0.05568 -0.3305891,-0.123014 z m 0.3264956,-0.685684 c 0.099383,-0.266408 0.1797257,-0.485198 0.1785384,-0.4862 -0.012923,-0.01089 -0.3541681,-0.129755 -0.3957201,-0.137833 -0.07608,-0.01479 -0.1988341,-0.007 -0.2650717,0.01682 -0.1487364,0.05349 -0.2552439,0.172075 -0.316954,0.352893 -0.018157,0.0532 -0.021263,0.07931 -0.021263,0.178695 v 0.116391 l 0.038922,0.07853 c 0.048442,0.09774 0.1212637,0.172913 0.2158467,0.222812 0.073329,0.03869 0.3522434,0.14656 0.3721836,0.143947 0.00834,-0.0011 0.075946,-0.170894 0.1935184,-0.486059 z m 4.8697772,-0.791129 c -0.399835,-0.199174 -0.727047,-0.364137 -0.727138,-0.366584 -1.56e-4,-0.0042 0.188215,-0.161107 0.220864,-0.183976 0.01275,-0.0089 0.04317,0.0036 0.188107,0.07775 0.09509,0.04862 0.176266,0.08728 0.180384,0.08592 0.0041,-0.0014 0.120555,-0.09628 0.25875,-0.21093 L 11.9439,12.30398 11.883516,12.11674 c -0.03321,-0.102982 -0.05753,-0.189778 -0.05404,-0.192881 0.05324,-0.04734 0.226168,-0.18713 0.228518,-0.184728 0.0017,0.0018 0.105848,0.333662 0.231353,0.737519 0.125506,0.403858 0.233738,0.751221 0.240518,0.771918 l 0.01233,0.03763 -0.112517,0.09365 c -0.06188,0.05151 -0.116682,0.0934 -0.121774,0.09309 -0.0051,-3.11e-4 -0.336395,-0.16352 -0.736231,-0.362693 z m 0.640233,0.005 c -0.0039,-0.01062 -0.182263,-0.550611 -0.189721,-0.574396 -0.0021,-0.0068 -0.07741,0.05018 -0.186721,0.141445 -0.100724,0.08409 -0.179898,0.155937 -0.175941,0.159663 0.01018,0.0096 0.539592,0.283559 0.548846,0.284028 0.0042,2.13e-4 0.0058,-0.0046 0.0035,-0.01074 z M 3.7861054,13.006969 3.6846633,12.905238 4.208843,12.374979 c 0.2882988,-0.291644 0.5283072,-0.53026 0.5333521,-0.53026 0.011715,0 0.2002284,0.188706 0.2002284,0.200433 0,0.0048 -0.2373471,0.246106 -0.527438,0.536166 L 3.8875475,13.1087 Z M 2.8565536,11.190268 C 2.5681609,11.135651 2.340422,10.917645 2.2385274,10.598657 2.1560049,10.340314 2.1847356,10.095844 2.3218341,9.8897978 2.4762829,9.6576755 2.7619884,9.524913 3.0365266,9.5576924 c 0.1808333,0.021591 0.3267221,0.092502 0.455734,0.2215136 0.1064577,0.1064576 0.1910606,0.257795 0.236972,0.423895 0.021754,0.0787 0.024482,0.103749 0.024663,0.226447 1.558e-4,0.10547 -0.00363,0.152628 -0.016062,0.20026 -0.022405,0.08582 -0.093701,0.229584 -0.1455094,0.293404 -0.093907,0.11568 -0.2430562,0.211784 -0.3943886,0.254122 -0.088979,0.02489 -0.2466862,0.03087 -0.3413826,0.01293 z M 3.0777802,10.896686 C 3.2787469,10.854181 3.4435268,10.7015 3.4868675,10.517635 3.5293983,10.337206 3.4680912,10.130043 3.3316042,9.9929853 3.1722912,9.8330065 2.9520156,9.8005731 2.7397154,9.9058357 2.4658555,10.041621 2.3772472,10.331682 2.5200148,10.62503 c 0.041313,0.08489 0.1507926,0.199528 0.2239987,0.234559 0.1048461,0.05017 0.2143853,0.06235 0.3337667,0.0371 z M 14.502596,9.6766732 c -0.0508,-0.00652 -0.09348,-0.013018 -0.09486,-0.014436 -0.0014,-0.00142 0.01472,-0.1527725 0.03576,-0.3363442 0.02104,-0.1835716 0.03758,-0.3345453 0.03676,-0.3354971 -0.0029,-0.00336 -0.383716,-0.045742 -0.38645,-0.043008 -0.0015,0.00153 -0.019,0.1463899 -0.03883,0.321921 -0.01983,0.1755311 -0.03685,0.3200461 -0.03781,0.3211443 -0.0019,0.0022 -0.221809,-0.024252 -0.224426,-0.026995 -8.94e-4,-9.366e-4 0.01465,-0.1449367 0.03453,-0.3200001 0.01989,-0.1750633 0.03452,-0.3199346 0.03252,-0.3219362 -0.0056,-0.00557 -0.410013,-0.051041 -0.414461,-0.046593 -0.0021,0.00215 -0.02112,0.15463 -0.04217,0.3388531 -0.02105,0.1842231 -0.0408,0.3374864 -0.0439,0.3405853 -0.0031,0.0031 -0.05376,4.227e-4 -0.112575,-0.00595 -0.0929,-0.010061 -0.10694,-0.013693 -0.10694,-0.027655 0,-0.019626 0.107142,-0.9638589 0.109546,-0.965412 0.0026,-0.00168 1.487722,0.1674246 1.490551,0.1697235 0.0014,0.0011 -0.01574,0.1617705 -0.03799,0.3570393 -0.07709,0.6765985 -0.06725,0.6088434 -0.08827,0.6075569 -0.01024,-6.266e-4 -0.06018,-0.00648 -0.11098,-0.012998 z m -1.38856,-2.3986705 c -0.05441,-0.1519582 -0.05444,-0.1521148 -0.03752,-0.1736265 0.0093,-0.011842 0.0762,-0.087648 0.148628,-0.1684584 0.271402,-0.3027991 0.302065,-0.3681062 0.248439,-0.5291306 -0.01965,-0.059013 -0.02694,-0.071549 -0.03884,-0.066846 -0.07314,0.028909 -0.581915,0.2097625 -0.583759,0.2075058 -0.0082,-0.01007 -0.09553,-0.266914 -0.09195,-0.2704962 0.0054,-0.0054 1.407183,-0.5115022 1.409115,-0.5087491 0.0096,0.013692 0.202107,0.566783 0.209608,0.6022408 0.0058,0.027525 0.0084,0.086244 0.006,0.1359569 -0.0039,0.080541 -0.0072,0.093448 -0.0412,0.162147 -0.04188,0.084521 -0.09671,0.1407256 -0.174317,0.1786954 -0.165499,0.080971 -0.322906,0.059393 -0.458169,-0.062809 l -0.0342,-0.030901 -0.01036,0.041131 c -0.02515,0.099871 -0.07807,0.1740951 -0.282586,0.3963014 -0.06924,0.075228 -0.144768,0.1598082 -0.167847,0.1879559 -0.02308,0.028148 -0.04301,0.051178 -0.04429,0.051178 -0.0013,0 -0.02684,-0.068443 -0.05679,-0.1520955 z m 0.900291,-0.6934252 c 0.128541,-0.048094 0.153642,-0.1490127 0.08564,-0.3443297 -0.02014,-0.05784 -0.03992,-0.1087244 -0.04396,-0.1130755 -0.0061,-0.0066 -0.391153,0.1244083 -0.391153,0.1330951 0,0.00151 0.01797,0.051619 0.03994,0.1113554 0.05084,0.1382375 0.07955,0.1786743 0.151417,0.2132258 0.04592,0.022079 0.09861,0.021988 0.158107,-2.714e-4 z M 3.2714904,7.1511108 c -0.069688,-0.025233 -0.1267623,-0.048033 -0.1268313,-0.050666 -7.13e-5,-0.00263 0.02691,-0.022334 0.059952,-0.04378 C 3.2376541,7.0352188 3.2991351,6.9831198 3.341236,6.9408893 3.4359993,6.8458335 3.4888532,6.749107 3.4974845,6.6549438 3.508779,6.5317252 3.4447862,6.4510336 3.3358931,6.4511858 3.2792049,6.4512659 3.2231807,6.4898658 3.0777802,6.6290265 2.9097508,6.7898449 2.8693365,6.8216325 2.777398,6.8652895 2.6556249,6.9231137 2.532462,6.9179216 2.4035528,6.8495297 2.1328012,6.7058842 2.1533865,6.2627231 2.445114,5.9548007 l 0.055166,-0.058229 0.1218668,0.043559 c 0.067027,0.023958 0.1216722,0.045581 0.1214346,0.048052 -2.377e-4,0.00247 -0.022538,0.022516 -0.049556,0.044545 C 2.5926116,6.1154147 2.5020773,6.2432592 2.468032,6.3518568 2.4234662,6.4940125 2.4736953,6.6022327 2.5842831,6.6023235 2.6544953,6.6023769 2.7049236,6.568697 2.858521,6.4191431 3.0234959,6.2585112 3.0600498,6.2292937 3.1487306,6.1871794 3.3002751,6.1152113 3.4894179,6.1488716 3.6174362,6.2705916 3.7426182,6.3896147 3.7743214,6.5795491 3.7035222,6.7863337 3.65603,6.925045 3.6082436,7.0018431 3.5037079,7.107457 3.454044,7.1576333 3.4099868,7.1983048 3.405803,7.1978381 3.4016193,7.1973717 3.3411787,7.1763442 3.2714904,7.1511108 Z M 3.9608756,4.7886175 3.4288754,4.2565619 3.6716487,4.0161429 C 3.9292504,3.7610392 3.9587462,3.7382302 4.0740994,3.7049273 c 0.039742,-0.011474 0.073513,-0.014185 0.1359881,-0.010917 0.073434,0.00384 0.091013,0.00825 0.1509004,0.037848 0.1408847,0.069629 0.2399386,0.2078663 0.2495345,0.3482444 0.00621,0.090789 -0.00769,0.1554324 -0.052761,0.245487 -0.030923,0.061782 -0.055394,0.091886 -0.170084,0.2092376 L 4.2537128,4.671901 4.47563,4.8939514 4.6975472,5.1160019 4.5952115,5.2183375 4.4928759,5.3206732 Z M 4.200762,4.3928213 c 0.089953,-0.091777 0.1093681,-0.11658 0.1226882,-0.1567371 0.00988,-0.029796 0.014036,-0.061042 0.01106,-0.083226 C 4.3277702,4.1026074 4.2867462,4.0411144 4.2353175,4.0041731 4.1965909,3.9763558 4.1848467,3.9725465 4.1374211,3.9724196 4.0591822,3.9722104 4.0152408,3.997716 3.8954597,4.1128668 l -0.1023361,0.09838 0.1451023,0.1453025 c 0.079806,0.079916 0.1474805,0.1453025 0.1503872,0.1453025 0.00291,0 0.053374,-0.049064 0.1121489,-0.1090305 z m 7.732961,0.7398266 c -0.04895,-0.054385 -0.089,-0.1033422 -0.089,-0.1087926 0,-0.00952 1.036888,-0.9694143 1.080347,-1.0001272 0.02088,-0.014754 0.02181,-0.014293 0.0623,0.03086 0.02261,0.025211 0.06596,0.073409 0.09634,0.1071069 l 0.05523,0.061269 -0.54738,0.502137 c -0.301059,0.2761754 -0.552204,0.5031029 -0.558101,0.5042834 -0.0059,0.00118 -0.05077,-0.042351 -0.09973,-0.096736 z M 5.9541516,3.3025168 C 5.79372,2.9268068 5.663345,2.6154024 5.6644293,2.6105072 c 0.00169,-0.00761 0.2583831,-0.1228109 0.2620092,-0.1175817 7.156e-4,0.00103 0.074672,0.1740995 0.1643467,0.3845951 0.089675,0.2104955 0.2218599,0.5200663 0.2937441,0.6879351 0.1178117,0.2751217 0.1291511,0.3060442 0.1150038,0.3136155 -0.02389,0.012785 -0.2425655,0.1065548 -0.248492,0.1065548 -0.00286,0 -0.136458,-0.3073992 -0.2968895,-0.6831092 z m 4.2640114,0.6113771 c -0.06731,-0.034045 -0.122382,-0.063245 -0.122382,-0.064889 0,-0.00355 0.213491,-0.4396008 0.458211,-0.9358822 0.09656,-0.1958098 0.181089,-0.3687596 0.187853,-0.384333 l 0.0123,-0.028315 0.407332,0.2004594 c 0.224032,0.1102526 0.408908,0.2020054 0.410835,0.203895 0.0062,0.00607 -0.08321,0.1924651 -0.09448,0.1969964 -0.006,0.0024 -0.133764,-0.056143 -0.283963,-0.1301033 -0.150198,-0.07396 -0.274528,-0.1330324 -0.276288,-0.1312722 -0.0018,0.00176 -0.04077,0.079364 -0.08669,0.1724516 l -0.08349,0.1692512 0.277202,0.1363684 c 0.152461,0.075003 0.278314,0.1370739 0.279674,0.1379361 0.0014,8.624e-4 -0.01938,0.048061 -0.04608,0.1048852 L 11.209647,3.66466 11.117767,3.621617 C 11.067225,3.5979433 10.940571,3.53587 10.836307,3.4836763 L 10.646736,3.3887784 10.50254,3.6824747 c -0.07931,0.1615329 -0.148201,0.2936111 -0.153096,0.2935073 -0.0049,-1.042e-4 -0.06397,-0.028044 -0.131281,-0.062088 z M 8.1554843,2.9043543 V 2.268105 L 7.8906961,2.265745 7.6259078,2.263385 7.6234178,2.1499044 7.6209278,2.0364237 h 0.6811499 0.68115 V 2.1476841 2.2589396 H 8.7162124 8.449199 v 0.6408321 0.640832 H 8.3023417 8.1554843 Z"
     id="path1011" />
</svg>
