<svg xmlns="http://www.w3.org/2000/svg" width="64" height="64"><g transform="translate(3.826 3.826)scale(1.1739)"><circle cx="24" cy="24" r="23" fill="#79e4ba"/><path fill="#20a239" d="M24 10c-5.54 0-10 4.46-10 10v3l1.5.999L17 23v-3c0-3.88 3.12-7 7-7s7 3.12 7 7v3l1.5.999L34 23v-3c0-5.54-4.46-10-10-10"/><path fill="#13867f" d="M14 23c-1.66 0-3 1.34-3 3v5c0 1.66 1.34 3 3 3l3-.002v-11zm5 0c-.554 0-1 .446-1 1v9c0 .554.446 1 1 1s1-.446 1-1v-9c0-.554-.446-1-1-1m10 0c-.554 0-1 .446-1 1v9c0 .554.446 1 1 1s1-.446 1-1v-9c0-.554-.446-1-1-1m2 0v11l3 .002c1.66 0 3-1.34 3-3v-5c0-1.66-1.34-3-3-3z"/></g></svg>