<?xml version="1.0" encoding="UTF-8"?>
<svg width="64" height="64" version="1.1" viewBox="0 0 64 64" xmlns="http://www.w3.org/2000/svg">
 <g transform="matrix(1.1739 0 0 1.1739 3.8261 3.8261)">
  <circle cx="24" cy="24" r="23" fill="#79e4ba"/>
  <path d="m24 10c-5.54 0-10 4.46-10 10v3l1.5 0.999 1.5-0.999v-3c0-3.88 3.12-7 7-7s7 3.12 7 7v3l1.5 0.999 1.5-0.999v-3c0-5.54-4.46-10-10-10z" fill="#20a239"/>
  <path d="m14 23c-1.66 0-3 1.34-3 3v5c0 1.66 1.34 3 3 3l3-2e-3v-11zm5 0c-0.554 0-1 0.446-1 1v9c0 0.554 0.446 1 1 1s1-0.446 1-1v-9c0-0.554-0.446-1-1-1zm10 0c-0.554 0-1 0.446-1 1v9c0 0.554 0.446 1 1 1s1-0.446 1-1v-9c0-0.554-0.446-1-1-1zm2 0v11l3 2e-3c1.66 0 3-1.34 3-3v-5c0-1.66-1.34-3-3-3z" fill="#13867f"/>
 </g>
</svg>
