<?xml version="1.0" encoding="UTF-8" standalone="no"?>
<svg
   width="64"
   height="64"
   version="1.1"
   id="svg5"
   sodipodi:docname="jmeter.svg"
   inkscape:version="1.3.2 (091e20ef0f, 2023-11-25)"
   xmlns:inkscape="http://www.inkscape.org/namespaces/inkscape"
   xmlns:sodipodi="http://sodipodi.sourceforge.net/DTD/sodipodi-0.dtd"
   xmlns="http://www.w3.org/2000/svg"
   xmlns:svg="http://www.w3.org/2000/svg">
  <defs
     id="defs5" />
  <sodipodi:namedview
     id="namedview5"
     pagecolor="#505050"
     bordercolor="#eeeeee"
     borderopacity="1"
     inkscape:showpageshadow="0"
     inkscape:pageopacity="0"
     inkscape:pagecheckerboard="0"
     inkscape:deskcolor="#505050"
     inkscape:zoom="6.7862352"
     inkscape:cx="27.997851"
     inkscape:cy="43.544025"
     inkscape:window-width="1600"
     inkscape:window-height="846"
     inkscape:window-x="0"
     inkscape:window-y="0"
     inkscape:window-maximized="1"
     inkscape:current-layer="svg5" />
  <path
     fill="#f0f0f0"
     d="M32 5c14.912 0 27 12.088 27 27S46.911 59 32 59 5 46.911 5 32 17.088 5 32 5z"
     id="path1"
     style="fill:#8c0000;fill-opacity:1" />
  <path
     class="a"
     d="M 45.198166,17.343221 A 5.3420811,5.3420811 0 0 0 41.819804,16.141736 H 21.39458 a 5.3227024,5.3227024 0 0 0 -2.499867,0.620121 5.4163664,5.4163664 0 0 0 -2.170422,2.102597 4.7639478,4.7639478 0 0 0 -0.264838,0.529686 c -0.04525,0.122733 -0.100128,0.242235 -0.142113,0.361737 a 4.9480461,4.9480461 0 0 0 -0.193791,0.752543 5.1676722,5.1676722 0 0 0 -0.09689,1.004466 V 41.93811 a 5.2871746,5.2871746 0 0 0 0.529686,2.325452 5.3679195,5.3679195 0 0 0 4.844693,3.036008 h 10.894098 a 0.28745177,0.28745177 0 0 0 0.290682,-0.287452 V 45.7202 a 0.29068156,0.29068156 0 0 0 -0.290682,-0.290682 h -1.414653 l -4.221336,-8.565416 9.640937,-12.76738 a 1.0787515,1.0787515 0 0 0 0.177632,-0.374656 l 8.827034,1.350054 v 1.986324 a 0.29391136,0.29391136 0 0 0 0.290682,0.290682 h 1.311297 a 0.29068156,0.29068156 0 0 0 0.287454,-0.290682 v -5.548788 a 5.3388513,5.3388513 0 0 0 -1.996017,-4.166435 z m -11.116953,0.684716 0.455401,3.636749 -7.134621,-1.091671 -0.322973,-2.545078 z m -12.686633,0 h 3.924198 l 0.280989,2.260856 -5.203195,-0.78161 -1.6472,-0.255154 a 3.4623404,3.4623404 0 0 1 2.645208,-1.224092 z m 3.972648,3.998486 -3.639981,4.844693 -2.868062,-5.845929 z m -7.454366,1.030305 2.331912,4.725191 -2.331912,0.287451 z m 0,6.78257 3.142587,-0.397265 3.255636,6.592012 -6.398223,0.804219 z m 11.029747,15.59022 h -7.257347 a 3.7820901,3.7820901 0 0 1 -3.7724,-3.798238 v -3.065076 l 7.205669,-0.904342 z m -3.142595,-10.296586 -3.229792,-6.517727 4.731652,-6.265802 c 0,0 0,0 0,0 l 7.292875,1.117509 z M 45.298293,23.324801 36.319462,21.929529 35.831761,18.018247 h 5.697361 a 3.7820901,3.7820901 0 0 1 3.769171,3.78209 z"
     id="path86"
     style="fill:#e6e6e6;stroke-width:0.322979" />
  <path
     class="b"
     d="m 46.764616,29.845757 a 0.47800968,0.47800968 0 0 1 0.452173,0.516767 v 1.388812 a 0.42956275,0.42956275 0 0 1 -0.484472,0.484469 h -6.01065 c -1.488929,0 -2.360975,0.516768 -2.360975,1.679494 v 0.423103 c 0,0.904343 0.419873,1.679494 2.005702,2.260857 l 4.295629,1.711791 c 2.974639,1.130429 3.229793,2.780854 3.229793,4.557242 v 0.355277 c 0,3.6206 -2.167193,4.331155 -6.527414,4.331155 -2.813156,0 -5.364694,-0.226086 -5.913758,-0.290682 -0.387573,-0.0323 -0.484472,-0.226085 -0.484472,-0.484468 v -1.42434 a 0.42956275,0.42956275 0 0 1 0.484472,-0.48447 h 5.97835 c 2.583837,0 3.391284,-0.290681 3.391284,-1.679493 v -0.387576 c 0,-0.93664 -0.387574,-1.550301 -1.873275,-2.163963 l -4.589539,-1.747319 c -2.486947,-0.968938 -3.10061,-2.842219 -3.10061,-4.618607 V 33.59232 c 0,-3.552775 3.10061,-4.037244 6.559721,-4.037244 a 40.934423,40.934423 0 0 1 4.948041,0.290681 z"
     id="path88"
     style="fill:#e6e6e6;stroke-width:0.322979" />
</svg>
