<svg xmlns="http://www.w3.org/2000/svg" width="64" height="64" viewBox="0 0 64 64"><rect width="54" height="54" x="5" y="5" fill="#f9f9f9" rx="27" ry="27"/><path d="M53 37.188 33.817 48.272l-3.622-2.09-.015-.014-15.544-8.98a7.96 7.96 0 0 1-2.54-2.702A8.17 8.17 0 0 1 11 30.387c0-1.316.66-2.404 1.621-3.05.13-.08.258-.154.394-.225a3.6 3.6 0 0 1 3.477.104l4.187 2.323 2.816 1.657.729.456 9.59 5.533 9.566-5.527 9.617 5.527z"/><path fill="#b3b3b3" d="M35.823 16.224c-2.445-1.41-5.5.356-5.5 3.177s1.363 5.266 3.598 6.775l9.462 5.485.024-.009 9.59-5.542z" class="cls-1"/><path fill="#666" d="M33.92 26.176a8.19 8.19 0 0 1-3.597-6.775c0-1.343.702-2.463 1.7-3.097-.047.027.048-.027 0 0l-14.968 8.41-2.404 1.453-1.639.942a3.6 3.6 0 0 1 3.477.104l4.122 2.347 3.613 2.09 9.59 5.532 9.566-5.527-9.462-5.485v.006z" class="cls-2"/></svg>