<?xml version="1.0" encoding="UTF-8" standalone="no"?>
<svg
   width="64"
   height="64"
   version="1.1"
   viewBox="0 0 16.933 16.933"
   id="svg27"
   sodipodi:docname="stack.svg"
   inkscape:version="1.1.1 (3bf5ae0d25, 2021-09-20)"
   xmlns:inkscape="http://www.inkscape.org/namespaces/inkscape"
   xmlns:sodipodi="http://sodipodi.sourceforge.net/DTD/sodipodi-0.dtd"
   xmlns:xlink="http://www.w3.org/1999/xlink"
   xmlns="http://www.w3.org/2000/svg"
   xmlns:svg="http://www.w3.org/2000/svg">
  <sodipodi:namedview
     id="namedview29"
     pagecolor="#ffffff"
     bordercolor="#666666"
     borderopacity="1.0"
     inkscape:pageshadow="2"
     inkscape:pageopacity="0.0"
     inkscape:pagecheckerboard="0"
     showgrid="false"
     showguides="false"
     inkscape:zoom="4.4857086"
     inkscape:cx="-30.652905"
     inkscape:cy="40.350369"
     inkscape:window-width="1920"
     inkscape:window-height="1000"
     inkscape:window-x="0"
     inkscape:window-y="44"
     inkscape:window-maximized="1"
     inkscape:current-layer="svg27" />
  <defs
     id="defs9">
    <linearGradient
       id="a-3"
       x1="30"
       x2="57"
       y1="44"
       y2="44"
       gradientTransform="scale(.26458)"
       gradientUnits="userSpaceOnUse"
       xlink:href="#b" />
    <linearGradient
       id="b">
      <stop
         offset="0"
         id="stop3" />
      <stop
         stop-opacity="0"
         offset="1"
         id="stop5" />
    </linearGradient>
    <linearGradient
       id="c"
       x1="32"
       x2="32"
       y1="13"
       y2="9"
       gradientTransform="scale(.26458)"
       gradientUnits="userSpaceOnUse"
       xlink:href="#b" />
  </defs>
  <circle
     cx="8.4665"
     cy="8.4665"
     r="6.6145"
     fill="#3578c7"
     style="paint-order:stroke markers fill;fill:#4135c7;fill-opacity:1"
     id="circle11" />
  <path
     d="m5.1323 3.7041a5.8208 5.8208 0 0 0-2.4866 4.7624 5.8208 5.8208 0 0 0 5.8208 5.8208 5.8208 5.8208 0 0 0 5.8208-5.8208 5.8208 5.8208 0 0 0-2.4794-4.7624z"
     fill="#fff"
     style="paint-order:stroke markers fill"
     id="path13" />
  <g
     id="g21">
    <path
       d="m8.4665 1.852a6.6145 6.6145 0 0 0-3.9444 1.3229h7.8976a6.6145 6.6145 0 0 0-3.9532-1.3229z"
       fill="url(#c)"
       opacity=".15"
       style="paint-order:stroke markers fill"
       id="path15" />
    <path
       d="m8.466 4.2332c-0.29211 6.879e-4 -0.38134 0.27599-0.52916 0.52967l-0.30799 0.52812-5.5525 5.292e-4a7.1436 7.1436 0 0 0-0.75343 3.1749 7.1436 7.1436 0 0 0 7.1436 7.1436 7.1436 7.1436 0 0 0 7.1436-7.1436 7.1436 7.1436 0 0 0-1.3999-4.2332h-5.7432z"
       fill="#5294e2"
       style="paint-order:stroke markers fill;fill:#5e52e2;fill-opacity:1"
       id="path17" />
    <rect
       x="9.2599"
       y="4.762"
       width="3.969"
       height=".529"
       ry=".265"
       opacity=".25"
       style="paint-order:stroke markers fill"
       id="rect19" />
  </g>
  <path
     d="m15.61 8.4666-7.1437 7.1437a7.1437 7.1437 0 0 0 7.1437-7.1437z"
     fill="url(#a-3)"
     opacity=".15"
     style="paint-order:stroke markers fill"
     id="path23" />
  <path
     style="fill:#fefefe;stroke-width:0.0258105;fill-opacity:1"
     d="M 7.5150733,11.091311 C 7.0130712,10.963957 6.5920369,10.853389 6.5794414,10.845605 c -0.031582,-0.01952 -0.029353,-0.449886 0.00233,-0.449886 0.013877,0 0.4124921,0.09872 0.8858112,0.219389 0.473319,0.120664 0.9091048,0.21939 0.9684128,0.21939 0.059308,0 0.4984383,-0.09849 0.9758449,-0.218875 0.4774069,-0.120381 0.8781437,-0.212614 0.8905257,-0.204961 0.03042,0.0188 0.02884,0.41688 -0.0017,0.435771 -0.01735,0.01073 -1.8728327,0.483553 -1.8728327,0.47725 0,-4.51e-4 -0.4107289,-0.105018 -0.912731,-0.232372 z M 7.4850417,9.9866889 C 7.0091097,9.8638582 6.6054974,9.7539639 6.5881256,9.7424792 6.5676238,9.7289253 6.5565405,9.6496764 6.5565405,9.516637 c 0,-0.1823379 0.00528,-0.204961 0.047829,-0.204961 0.026306,0 0.4386418,0.098725 0.9163014,0.2193895 0.4776597,0.1206643 0.8970606,0.2193896 0.9320022,0.2193896 0.034942,0 0.4531579,-0.098725 0.9293695,-0.2193896 C 9.8582545,9.4104013 10.265659,9.311676 10.287386,9.311676 c 0.03301,0 0.03828,0.036962 0.03205,0.2249614 l -0.0075,0.2249615 -0.9033688,0.2263641 c -0.4968528,0.1245 -0.9382129,0.225394 -0.9808003,0.224209 -0.042587,-0.0012 -0.4668306,-0.102652 -0.9427626,-0.2254831 z m 0.00492,-1.0881053 C 7.0025337,8.7741317 6.5926149,8.6611901 6.579027,8.6476022 6.5654392,8.6340144 6.5577247,8.5258502 6.5618838,8.4072375 l 0.00756,-0.2156594 0.9362952,-0.2334335 0.9362952,-0.2334335 0.805916,0.201628 c 0.4432537,0.1108954 0.8668928,0.21857 0.9414208,0.2392769 l 0.135506,0.037649 v 0.2177605 c 0,0.1811527 -0.0076,0.2217458 -0.04517,0.2414673 -0.05874,0.030829 -1.8176013,0.469464 -1.8663417,0.4654383 C 8.3929164,9.1262416 7.9773818,9.0230354 7.4899578,8.8985836 Z"
     id="path1438" />
</svg>
