<svg width="64" height="64" version="1.1" xmlns="http://www.w3.org/2000/svg">
 <g transform="matrix(3.7796 0 0 3.7795 -.00011741 -1.0002)">
  <circle cx="8.4665" cy="8.4665" r="6.6145" fill="#4135c7" style="paint-order:stroke markers fill"/>
  <path d="m5.1323 3.7041a5.8208 5.8208 0 0 0-2.4866 4.7624 5.8208 5.8208 0 0 0 5.8208 5.8208 5.8208 5.8208 0 0 0 5.8208-5.8208 5.8208 5.8208 0 0 0-2.4794-4.7624z" fill="#ffffff" style="paint-order:stroke markers fill"/>
  <path d="m8.4665 1.852a6.6145 6.6145 0 0 0-3.9444 1.3229h7.8976a6.6145 6.6145 0 0 0-3.9532-1.3229z" fill="url(#c)" opacity=".15" style="paint-order:stroke markers fill"/>
  <path d="m8.466 4.2332c-0.29211 6.879e-4 -0.38134 0.27599-0.52916 0.52967l-0.30799 0.52812-5.5525 5.292e-4a7.1436 7.1436 0 0 0-0.75343 3.1749 7.1436 7.1436 0 0 0 7.1436 7.1436 7.1436 7.1436 0 0 0 7.1436-7.1436 7.1436 7.1436 0 0 0-1.3999-4.2332h-5.7432z" fill="#5e52e2" style="paint-order:stroke markers fill"/>
  <rect x="9.2599" y="4.762" width="3.969" height=".529" ry=".265" opacity=".25" style="paint-order:stroke markers fill"/>
  <path d="m15.61 8.4666-7.1437 7.1437a7.1437 7.1437 0 0 0 7.1437-7.1437z" fill="url(#a-3)" opacity=".15" style="paint-order:stroke markers fill"/>
  <path d="m7.5151 11.091c-0.502-0.12735-0.92304-0.23792-0.93563-0.24571-0.031582-0.01952-0.029353-0.44989 0.00233-0.44989 0.013877 0 0.41249 0.09872 0.88581 0.21939 0.47332 0.12066 0.9091 0.21939 0.96841 0.21939s0.49844-0.09849 0.97584-0.21888c0.47741-0.12038 0.87814-0.21261 0.89053-0.20496 0.03042 0.0188 0.02884 0.41688-0.0017 0.43577-0.01735 0.01073-1.8728 0.48355-1.8728 0.47725 0-4.51e-4 -0.41073-0.10502-0.91273-0.23237zm-0.030032-1.1046c-0.47593-0.12283-0.87954-0.23272-0.89692-0.24421-0.020502-0.013554-0.031585-0.092803-0.031585-0.22584 0-0.18234 0.00528-0.20496 0.047829-0.20496 0.026306 0 0.43864 0.098725 0.9163 0.21939 0.47766 0.12066 0.89706 0.21939 0.932 0.21939 0.034942 0 0.45316-0.098725 0.92937-0.21939 0.47621-0.12066 0.88362-0.21939 0.90534-0.21939 0.03301 0 0.03828 0.036962 0.03205 0.22496l-0.0075 0.22496-0.90337 0.22636c-0.49685 0.1245-0.93821 0.22539-0.9808 0.22421-0.042587-0.0012-0.46683-0.10265-0.94276-0.22548zm0.00492-1.0881c-0.48743-0.12445-0.89735-0.23739-0.91093-0.25098-0.013588-0.013588-0.021302-0.12175-0.017143-0.24036l0.00756-0.21566 1.8726-0.46687 0.80592 0.20163c0.44325 0.1109 0.86689 0.21857 0.94142 0.23928l0.13551 0.037649v0.21776c0 0.18115-0.0076 0.22175-0.04517 0.24147-0.05874 0.030829-1.8176 0.46946-1.8663 0.46544-0.020449-0.00169-0.43598-0.1049-0.92341-0.22935z" fill="#fefefe" stroke-width=".02581"/>
 </g>
</svg>
