<svg width="64" height="64" version="1.1" xmlns="http://www.w3.org/2000/svg" xmlns:xlink="http://www.w3.org/1999/xlink">
 <defs>
  <linearGradient id="linearGradient897" x1="31.999" x2="58.999" y1="44.499" y2="44.499" gradientUnits="userSpaceOnUse">
   <stop stop-color="#000000" offset="0"/>
   <stop stop-color="#000000" stop-opacity="0" offset="1"/>
  </linearGradient>
  <linearGradient id="linearGradient1087" x1="31.713" x2="31.713" y1="11.004" y2="4.9116" gradientUnits="userSpaceOnUse">
   <stop stop-color="#000000" offset="0"/>
   <stop stop-color="#000000" stop-opacity="0" offset="1"/>
  </linearGradient>
 </defs>
 <ellipse cx="32" cy="30.999" rx="25" ry="25" fill="#4135c7"/>
 <path d="m19.398 12.999a22 22 0 0 0-9.3984 17.999 22 22 0 0 0 22 22 22 22 0 0 0 22-22 22 22 0 0 0-9.3711-17.999z" fill="#ffffff"/>
 <path d="m32 5.9994a25 25 0 0 0-14.908 4.9999h29.85a25 25 0 0 0-14.942-4.9999z" fill="url(#linearGradient1087)" opacity=".15"/>
 <path d="m31.998 14.999c-1.1041 0.0026-1.4413 1.0431-2 2.0019l-1.1641 1.996-20.986 2e-3a27 26.999 0 0 0-2.8477 12 27 26.999 0 0 0 27 26.999 27 26.999 0 0 0 27-26.999 27 26.999 0 0 0-5.2911-15.999h-21.707z" fill="#5e52e2"/>
 <rect x="34.999" y="16.998" width="15.001" height="1.9994" ry="1.0016" opacity=".25"/>
 <path d="m58.999 30.999-27 27a27 27 0 0 0 27-27z" fill="url(#linearGradient897)" opacity=".15"/>
 <path d="m28.404 40.918c-1.8974-0.48132-3.4887-0.89922-3.5363-0.92866-0.11937-0.07378-0.11094-1.7004 0.0088-1.7004 0.05245 0 1.559 0.37311 3.348 0.82918 1.789 0.45603 3.436 0.82918 3.6602 0.82918s1.8839-0.37224 3.6883-0.82726c1.8044-0.45498 3.319-0.80356 3.3658-0.77465 0.11498 0.07106 0.109 1.5756-0.0064 1.647-0.06558 0.04055-7.0784 1.8276-7.0784 1.8038 0-0.0017-1.5524-0.39692-3.4498-0.87824zm-0.11351-4.1748c-1.7988-0.46424-3.3243-0.87956-3.39-0.92299-0.07749-0.05123-0.11938-0.35075-0.11938-0.85356 0-0.68915 0.01996-0.77465 0.18078-0.77465 0.09943 0 1.6579 0.37313 3.4632 0.82918 1.8054 0.45603 3.3905 0.82918 3.5226 0.82918 0.13207 0 1.7128-0.37313 3.5126-0.82918 1.7999-0.45603 3.3397-0.82918 3.4218-0.82918 0.12476 0 0.14468 0.1397 0.12114 0.85024l-0.02835 0.85024-3.4144 0.85553c-1.8779 0.47055-3.5461 0.85186-3.707 0.8474-0.16096-0.0045-1.7644-0.38796-3.5633-0.8522zm0.0186-4.1125c-1.8423-0.47036-3.3916-0.89722-3.443-0.94858-0.05136-0.05136-0.08051-0.46015-0.06479-0.90844l0.02857-0.81509 7.0777-1.7645 3.0461 0.76206c1.6753 0.41915 3.2765 0.82608 3.5582 0.90436l0.51217 0.14229v0.82302c0 0.68466-0.02873 0.8381-0.17072 0.91264-0.22201 0.11652-6.8698 1.7743-7.0539 1.7591-0.07729-0.0064-1.6478-0.39647-3.4901-0.86683z" fill="#fefefe"/>
</svg>
