<svg width="64" height="64" xmlns="http://www.w3.org/2000/svg"><defs><linearGradient id="b" x1="31.999" x2="58.999" y1="44.499" y2="44.499" gradientUnits="userSpaceOnUse"><stop offset="0"/><stop stop-opacity="0" offset="1"/></linearGradient><linearGradient id="a" x1="31.713" x2="31.713" y1="11.004" y2="4.912" gradientUnits="userSpaceOnUse"><stop offset="0"/><stop stop-opacity="0" offset="1"/></linearGradient></defs><circle cx="32" cy="30.999" fill="#4135c7" r="25"/><path d="M19.398 12.999A22 22 0 0 0 10 30.998a22 22 0 0 0 22 22 22 22 0 0 0 22-22 22 22 0 0 0-9.371-17.999z" fill="#fff"/><path d="M32 6a25 25 0 0 0-14.908 5h29.85A25 25 0 0 0 32 6z" fill="url(#a)" opacity=".15"/><path d="M31.998 14.999c-1.104.003-1.441 1.043-2 2.002l-1.164 1.996-20.986.002a27 26.999 0 0 0-2.848 12 27 26.999 0 0 0 27 26.999 27 26.999 0 0 0 27-27A27 26.999 0 0 0 53.71 15H32.001z" fill="#5e52e2"/><rect x="34.999" y="16.998" width="15.001" height="1.999" ry="1.002" opacity=".25"/><path d="m58.999 30.999-27 27a27 27 0 0 0 27-27z" fill="url(#b)" opacity=".15"/><path d="M28.404 40.918c-1.897-.481-3.489-.9-3.536-.929-.12-.073-.111-1.7.009-1.7.052 0 1.559.373 3.348.83 1.788.455 3.435.828 3.66.828s1.884-.372 3.688-.827c1.804-.455 3.319-.804 3.366-.775.115.071.109 1.576-.007 1.647-.065.04-7.078 1.828-7.078 1.804 0-.002-1.552-.397-3.45-.878zm-.114-4.175c-1.798-.464-3.324-.88-3.39-.923-.077-.051-.119-.35-.119-.853 0-.69.02-.775.18-.775.1 0 1.659.373 3.464.83 1.805.455 3.39.828 3.523.828.132 0 1.712-.373 3.512-.829 1.8-.456 3.34-.829 3.422-.829.125 0 .145.14.121.85l-.028.85-3.415.856c-1.877.47-3.546.852-3.707.847-.16-.004-1.764-.388-3.563-.852zm.02-4.112c-1.843-.47-3.393-.898-3.444-.949-.051-.051-.08-.46-.065-.908l.029-.815 7.078-1.765 3.046.762c1.675.42 3.276.826 3.558.905l.512.142v.823c0 .684-.029.838-.17.912-.223.117-6.87 1.775-7.055 1.76-.077-.007-1.647-.397-3.49-.867z" fill="#fefefe"/></svg>