<?xml version="1.0" encoding="UTF-8" standalone="no"?>
<svg
   width="64"
   height="64"
   version="1.1"
   viewBox="0 0 16.933 16.933"
   id="svg22"
   sodipodi:docname="stadia.svg"
   inkscape:version="1.1.1 (3bf5ae0d25, 2021-09-20)"
   xmlns:inkscape="http://www.inkscape.org/namespaces/inkscape"
   xmlns:sodipodi="http://sodipodi.sourceforge.net/DTD/sodipodi-0.dtd"
   xmlns="http://www.w3.org/2000/svg"
   xmlns:svg="http://www.w3.org/2000/svg">
  <defs
     id="defs26" />
  <sodipodi:namedview
     id="namedview24"
     pagecolor="#ffffff"
     bordercolor="#666666"
     borderopacity="1.0"
     inkscape:pageshadow="2"
     inkscape:pageopacity="0.0"
     inkscape:pagecheckerboard="0"
     showgrid="false"
     inkscape:zoom="6.15625"
     inkscape:cx="21.847716"
     inkscape:cy="34.598985"
     inkscape:window-width="1366"
     inkscape:window-height="688"
     inkscape:window-x="0"
     inkscape:window-y="0"
     inkscape:window-maximized="1"
     inkscape:current-layer="g20" />
  <g
     transform="translate(0 -280.07)"
     id="g20">
    <circle
       cx="8.4665"
       cy="288.53"
       r="7.1436"
       fill="#f88e45"
       style="paint-order:stroke markers fill;fill:#f86945;fill-opacity:1"
       id="circle2" />
    <circle
       cx="6.085"
       cy="286.95"
       r=".794"
       fill="#f88e45"
       paint-order="stroke markers fill"
       id="circle16" />
    <path
       style="fill:#ffffff;stroke:none;stroke-width:0.00529161;fill-opacity:1"
       d="m 8.9056486,289.15298 v 0.006 c -0.2157382,1.4e-4 -0.4416795,0.0597 -0.6508687,0.1077 -0.5580375,0.12811 -1.1069573,0.34485 -1.5980685,0.63951 -0.1487415,0.0892 -0.292674,0.18398 -0.4339124,0.28469 -0.064336,0.0459 -0.1511326,0.0957 -0.193313,0.16404 -0.082516,0.13366 0.01944,0.28358 0.075286,0.40745 0.1424714,0.31603 0.2808314,0.63421 0.4181696,0.9525 0.032655,0.0756 0.064485,0.15171 0.096737,0.22754 0.02856,0.0672 0.059895,0.1317 0.1428765,0.1323 0.098311,7.5e-4 0.1373557,-0.0904 0.1899,-0.15875 0.090931,-0.11805 0.2016637,-0.21991 0.3180952,-0.31219 0.3763283,-0.29824 0.8588288,-0.4771 1.3070288,-0.63664 0.7262205,-0.25846 1.4679469,-0.37942 2.2330619,-0.4318 0.218861,-0.015 0.448464,-0.005 0.666743,0.0105 0.108377,0.007 0.235743,0.0426 0.328081,-0.0339 0.09785,-0.081 0.121921,-0.2725 0.157268,-0.38983 0.09324,-0.30947 0.190709,-0.61817 0.289028,-0.92604 0.039,-0.12195 0.130815,-0.29391 0.06217,-0.41804 -0.05001,-0.0904 -0.170709,-0.1464 -0.254475,-0.20107 -0.235478,-0.15351 -0.488576,-0.28758 -0.746119,-0.39993 -1.18204,-0.51563 -2.4675337,-0.72698 -3.7517557,-0.69552 -0.459345,0.012 -0.932901,0.027 -1.3864039,0.11115 0.3978867,-0.23223 0.8680902,-0.37632 1.3123212,-0.48882 1.166166,-0.29529 2.3872079,-0.30801 3.5612584,-0.0487 0.565303,0.1248 1.110076,0.31437 1.640402,0.54505 0.08366,0.0365 0.167108,0.0747 0.248706,0.1155 0.106516,0.0532 0.230025,0.11881 0.338663,0.0287 0.06868,-0.0568 0.08514,-0.14985 0.109636,-0.23109 0.04318,-0.14325 0.08947,-0.28571 0.133936,-0.42862 0.06027,-0.19405 0.119747,-0.38852 0.181556,-0.58208 0.02905,-0.0907 0.0797,-0.19525 0.04535,-0.29104 -0.03059,-0.0853 -0.104925,-0.12 -0.179437,-0.16039 -0.113237,-0.0614 -0.228809,-0.1167 -0.343955,-0.17429 -0.549906,-0.27492 -1.154313,-0.47156 -1.751525,-0.61313 -0.79803,-0.1892 -1.6345805,-0.29443 -2.4553122,-0.25847 -0.5060902,0.0222 -1.0093582,0.0719 -1.508109,0.16807 -1.0257705,0.19788 -2.0138159,0.56988 -2.9315567,1.06629 -0.3546757,0.19186 -0.6964827,0.40447 -1.0318652,0.62808 -0.074956,0.05 -0.1490115,0.1017 -0.2222467,0.1542 -0.059356,0.0425 -0.1150663,0.0799 -0.1389015,0.15272 -0.027165,0.0829 0.0084,0.15827 0.042046,0.23284 0.048316,0.1071 0.095356,0.21499 0.1422464,0.32278 0.2113612,0.4859 0.4231454,0.97214 0.6409116,1.4552 0.054676,0.1212 0.1073561,0.24346 0.1611092,0.36513 0.033075,0.0748 0.061066,0.15102 0.1421264,0.18583 0.1090511,0.0468 0.2255498,-0.0186 0.3280804,-0.0536 0.2325924,-0.0792 0.4674933,-0.15183 0.7037847,-0.21919 0.8832241,-0.25183 1.8085309,-0.44361 2.7304736,-0.42103 0.184857,0.005 0.3730808,0.0225 0.5556203,0.0541 0.090751,0.0158 0.1838302,0.0494 0.275163,0.0568 z"
       id="path827" />
  </g>
</svg>
