<svg width="64" height="64" xmlns="http://www.w3.org/2000/svg"><defs><style id="current-color-scheme" type="text/css">.ColorScheme-Text{color:#f0f0f0}</style></defs><circle cx="32" cy="32" r="27" fill="#0c96df" stroke-width="3.78" style="paint-order:stroke fill markers"/><g transform="translate(2.148 .222) scale(.96296)"><path d="M12.102 12.329A28.04 28.04 0 0 0 8.14 16.8H9.4v2.7H6.7v-.442A28.04 28.04 0 0 0 4 25.55v15a28.04 28.04 0 0 0 4.16 8.65H9.4v1.643a28.04 28.04 0 0 0 2.703 2.824V49.2H49.9v4.473a28.04 28.04 0 0 0 2.7-2.811V49.2h1.261a28.04 28.04 0 0 0 4.14-8.75V25.452a28.04 28.04 0 0 0-2.7-6.367v.416H52.6v-2.7h1.243a28.04 28.04 0 0 0-3.943-4.466V16.8H12.1v-4.47zm0 7.172H49.9v27H12.1v-27zM6.7 22.2h2.7v2.7H6.7v-2.7zm45.9 0h2.703v2.7H52.6v-2.7zM6.7 27.602h2.7v2.7H6.7v-2.7zm45.9 0h2.703v2.7H52.6v-2.7zm-45.9 5.4h2.7v2.7H6.7v-2.7zm45.9 0h2.703v2.7H52.6v-2.7zM6.7 38.4h2.7v2.702H6.7V38.4zm45.9 0h2.703v2.702H52.6V38.4zM6.7 43.802h2.7v2.7H6.7v-2.7zm45.9 0h2.703v2.7H52.6v-2.7z" opacity=".5" stroke-linejoin="round" stroke-width=".5"/><path d="M36.4 19.5 20.211 35.689h-.005v5.413h5.413v-.005l16.19-16.189-.004-.003.003-.002-5.4-5.4-.003.002zm-2.697 4.606 3.496 3.497-10.244 10.244V35.7h-2.7v-2.146zM22.906 34.903v2.147h2.7v2.146l-.554.554h-2.146l-1.35-1.35v-2.147zm6.75 4.847-1.35 1.35h13.5v-1.35z" color="#000" fill="#fff" fill-rule="evenodd" stroke-width="1.038" style="isolation:auto;mix-blend-mode:normal"/><rect x="22.9" y="42.45" width="16.2" height="1.35" rx="0" ry="1.35" color="#000" fill="#fff" fill-rule="evenodd" stroke-width="1.078" style="isolation:auto;mix-blend-mode:normal"/></g></svg>