<?xml version="1.0" encoding="UTF-8" standalone="no"?>
<svg
   width="64"
   height="64"
   version="1.1"
   id="svg10"
   sodipodi:docname="supreme-commander-forged-alliance.svg"
   inkscape:version="1.2.2 (b0a8486541, 2022-12-01)"
   xml:space="preserve"
   xmlns:inkscape="http://www.inkscape.org/namespaces/inkscape"
   xmlns:sodipodi="http://sodipodi.sourceforge.net/DTD/sodipodi-0.dtd"
   xmlns="http://www.w3.org/2000/svg"
   xmlns:svg="http://www.w3.org/2000/svg"><defs
     id="defs14"><linearGradient
       id="linearGradient84653"
       inkscape:swatch="solid"><stop
         style="stop-color:#a72712;stop-opacity:1;"
         offset="0"
         id="stop84651" /></linearGradient></defs><sodipodi:namedview
     id="namedview12"
     pagecolor="#ffffff"
     bordercolor="#111111"
     borderopacity="1"
     inkscape:showpageshadow="0"
     inkscape:pageopacity="0"
     inkscape:pagecheckerboard="1"
     inkscape:deskcolor="#d1d1d1"
     showgrid="false"
     inkscape:zoom="5.6568543"
     inkscape:cx="19.975766"
     inkscape:cy="21.036427"
     inkscape:window-width="1920"
     inkscape:window-height="1011"
     inkscape:window-x="0"
     inkscape:window-y="0"
     inkscape:window-maximized="1"
     inkscape:current-layer="svg10"><inkscape:grid
       type="xygrid"
       id="grid870" /></sodipodi:namedview><g
     stroke-width=".75"
     id="g8" /><path
     id="rect2"
     style="fill:#eaa400;fill-opacity:1;stroke:none;stroke-opacity:1"
     d="M 32,4.9999998 C 17.042015,4.9999998 5,17.042015 5,32 5,46.957985 17.042015,59 32,59 46.957985,59 59,46.957985 59,32 59,17.042015 46.957985,4.9999998 32,4.9999998 Z"
     sodipodi:nodetypes="sssss" /><g
     id="g1294"
     transform="matrix(1.3758101,0,0,1.3758101,-74.539981,-54.988907)"
     style="fill:#1f1f1f;fill-opacity:1"><path
       style="fill:#1f1f1f;fill-opacity:1;stroke:none;stroke-width:0.4;stroke-linecap:butt;stroke-linejoin:miter;stroke-dasharray:none;stroke-opacity:0.52695"
       d="m 72.063924,47.373701 c -2.78788,11.428107 2.11589,14.085991 2.96948,14.542236 -2.68972,3.07626 -2.43449,5.971433 -2.22521,6.504593 -0.94205,3.032738 0.58418,6.160859 1.48034,6.970871 0.2712,1.546852 0.2998,2.066023 0.94275,3.462158 C 63.572548,74.835754 64.606283,62.464033 64.606283,62.464033 c 0,0 3.626791,9.519551 5.493411,8.3031 1.1017,-0.717962 1.10931,-6.506053 -2.94733,-5.894775 0.027,-1.721837 -0.665763,-9.603921 4.91156,-17.498657 z"
       id="path413"
       sodipodi:nodetypes="ccccccscc" /><path
       style="fill:#1f1f1f;fill-opacity:1;stroke:none;stroke-width:0.4;stroke-linecap:butt;stroke-linejoin:miter;stroke-dasharray:none;stroke-opacity:0.52695"
       d="m 83.988704,52.103535 c 2.4976,9.99427 -2.20889,11.208531 -3.06248,11.664776 1.25283,2.344448 1.20276,3.847228 1.07038,4.664751 0.94205,3.032738 -0.35392,5.301501 -1.40145,6.814638 -0.2712,1.546852 -0.2998,2.066023 -0.94275,3.462158 11.5109,-4.398176 10.625,-16.389526 10.625,-16.389526 0,0 -3.70793,9.643329 -5.57455,8.426878 -1.1017,-0.717962 -1.31586,-6.44848 2.74078,-5.837202 -0.027,-1.721837 2.12239,-4.911737 -3.45493,-12.806473 z"
       id="path413-3"
       sodipodi:nodetypes="ccccccscc" /><path
       style="fill:#1f1f1f;fill-opacity:1;stroke:none;stroke-width:0.4;stroke-linecap:butt;stroke-linejoin:miter;stroke-dasharray:none;stroke-opacity:0.481603"
       d="m 73.716304,66.518428 c 2.65315,-2.775374 5.11508,-2.619975 7.21013,0.02218 -0.67967,-2.476279 -1.69766,-4.356979 -3.63213,-4.335949 -1.8914,0.02056 -3.13826,2.393874 -3.578,4.313769 z"
       id="path1242"
       sodipodi:nodetypes="ccsc" /><path
       style="fill:#1f1f1f;fill-opacity:1;stroke:none;stroke-width:0.4;stroke-linecap:butt;stroke-linejoin:miter;stroke-dasharray:none;stroke-opacity:0.481603"
       d="m 73.779424,71.058919 c 0,2.901865 2.15132,4.421336 3.5617,4.421336 1.83994,0 3.68019,-1.787577 3.68019,-4.693064 0,-2.905487 -2.01085,-4.877752 -3.92379,-4.856957 -1.91294,0.02079 -3.3181,2.226821 -3.3181,5.128685 z"
       id="path1242-6"
       sodipodi:nodetypes="zszzz" /></g></svg>
