<svg width="64" height="64" version="1.1" xmlns="http://www.w3.org/2000/svg">
 <path d="M32 5A26.94 26.94 0 0 0 5 32a26.94 26.94 0 0 0 27 27 26.94 26.94 0 0 0 27-27A26.94 26.94 0 0 0 32 5Z" fill="#0073d6"/>
 <path d="M31.986 5A26.941 26.941 0 0 0 5 32a26.941 26.941 0 0 0 26.986 27V5z" opacity=".11355" stroke-linecap="round" stroke-width=".3"/>
 <path d="M32 27.969 9.207 46.504C13.99 54.025 22.39 59 32 59s18.01-4.975 22.793-12.496L32 27.969z" fill="#ff9e43" stroke-linecap="round" stroke-width=".36594"/>
 <path transform="matrix(1.0606 0 0 1.0606 -49.77 -21.06)" d="m77.116 32.42 15.6 8.803V58.83l-15.6 8.803-15.6-8.803V41.223z" fill="#f13f3f" stroke-width="1.4841"/>
 <path transform="matrix(1.0606 0 0 1.0606 -49.77 -21.06)" d="m92.716 41.223-15.6 8.804v17.606l15.6-8.803z" opacity=".22522"/>
 <path transform="matrix(1.0606 0 0 1.0606 -49.77 -21.06)" d="M61.516 41.223V58.83l15.6 8.803V50.027Z" opacity=".09624"/>
</svg>
