<svg xmlns="http://www.w3.org/2000/svg" width="64" height="64"><path fill="#0073d6" d="M32 5A26.94 26.94 0 0 0 5 32a26.94 26.94 0 0 0 27 27 26.94 26.94 0 0 0 27-27A26.94 26.94 0 0 0 32 5"/><path d="M31.986 5A26.94 26.94 0 0 0 5 32a26.94 26.94 0 0 0 26.986 27z" opacity=".114"/><path fill="#ff9e43" d="M32 27.969 9.207 46.504C13.99 54.025 22.39 59 32 59s18.01-4.975 22.793-12.496z"/><path fill="#f13f3f" d="m32.02 13.325 16.545 9.336v18.674l-16.546 9.337-16.545-9.337V22.661z"/><path d="M48.565 22.661 32.019 32v18.673l16.546-9.337z" opacity=".225"/><path d="M15.474 22.661v18.674l16.545 9.337V31.999Z" opacity=".096"/></svg>