<svg width="64" height="64" viewBox="0 0 16.933 16.933" xmlns="http://www.w3.org/2000/svg"><circle cx="8.466" cy="8.466" r="7.144" fill="#4c8cff" style="paint-order:stroke fill markers"/><path d="M8.467 1.323a7.144 7.144 0 0 0-7.144 7.144A7.144 7.144 0 0 0 6.27 15.26a10.139 10.139 0 0 0 9.283-7.62 7.144 7.144 0 0 0-7.086-6.317z" fill="#457eff" style="paint-order:stroke fill markers"/><path d="M8.467 1.323A7.144 7.144 0 0 0 1.97 5.512a8.767 8.767 0 0 0 8.694 7.725 8.767 8.767 0 0 0 3.776-.864 7.144 7.144 0 0 0 1.17-3.907 7.144 7.144 0 0 0-7.144-7.143z" fill="#00f" opacity=".1" style="paint-order:stroke fill markers"/><path d="M5.292 3.969a3.175 3.175 0 0 0 3.175 3.175 3.175 3.175 0 0 0 3.175-3.175h-.794A2.381 2.381 0 0 1 8.467 6.35a2.381 2.381 0 0 1-2.382-2.381z" fill="#fff" style="paint-order:stroke markers fill"/><path d="M7.408 13.23h2.117l-.265-2.647h1.323L8.467 8.731 6.35 10.583h1.323" fill="#fff"/></svg>