<?xml version="1.0" encoding="UTF-8" standalone="no"?>
<svg
   width="64"
   height="64"
   viewBox="0 0 16.933 16.933"
   version="1.1"
   id="svg3"
   sodipodi:docname="tabby.svg"
   inkscape:version="1.3.2 (091e20ef0f, 2023-11-25)"
   xmlns:inkscape="http://www.inkscape.org/namespaces/inkscape"
   xmlns:sodipodi="http://sodipodi.sourceforge.net/DTD/sodipodi-0.dtd"
   xmlns="http://www.w3.org/2000/svg"
   xmlns:svg="http://www.w3.org/2000/svg">
  <sodipodi:namedview
     id="namedview3"
     pagecolor="#ffffff"
     bordercolor="#000000"
     borderopacity="0.25"
     inkscape:showpageshadow="2"
     inkscape:pageopacity="0.0"
     inkscape:pagecheckerboard="0"
     inkscape:deskcolor="#d1d1d1"
     inkscape:zoom="13.484375"
     inkscape:cx="26.549247"
     inkscape:cy="28.366165"
     inkscape:window-width="1920"
     inkscape:window-height="1036"
     inkscape:window-x="0"
     inkscape:window-y="20"
     inkscape:window-maximized="1"
     inkscape:current-layer="svg3"
     showguides="false" />
  <defs
     id="defs2">
    <linearGradient
       id="a"
       x1="43"
       x2="49"
       y1="44"
       y2="50"
       gradientTransform="scale(.26458)"
       gradientUnits="userSpaceOnUse">
      <stop
         offset="0"
         id="stop1" />
      <stop
         offset="1"
         stop-opacity="0"
         id="stop2" />
    </linearGradient>
  </defs>
  <circle
     cx="8.466"
     cy="8.466"
     r="7.144"
     fill="#4d4d4d"
     style="paint-order:stroke fill markers;fill:#000d15;fill-opacity:1"
     id="circle2" />
  <g
     id="g3">
    <rect
       width="4.233"
       height=".529"
       x="5.821"
       y="9.525"
       fill="#3faec7"
       ry=".265"
       style="paint-order:stroke markers fill;fill:#6996b4;fill-opacity:1"
       id="rect2" />
    <path
       fill="#3faec7"
       d="M4.502 4.725a.26.26 0 0 0-.262.13.264.264 0 0 0 .097.362l2.842 1.64-2.842 1.641a.264.264 0 0 0-.097.362c.074.127.235.17.362.097l3.207-1.852a.26.26 0 0 0 .127-.225l.002-.022-.002-.023a.26.26 0 0 0-.127-.224L4.602 4.758a.3.3 0 0 0-.1-.033"
       style="paint-order:stroke markers fill;fill:#6996b4;fill-opacity:1"
       id="path2" />
  </g>
  <path
     fill="url(#a)"
     d="m15.582 9.024-6.563 6.562a7.144 7.144 0 0 0 6.563-6.562"
     opacity=".25"
     style="paint-order:stroke fill markers"
     id="path3" />
</svg>
