<?xml version="1.0" encoding="UTF-8"?>
<svg width="64" height="64" version="1.1" xmlns="http://www.w3.org/2000/svg">
 <g transform="matrix(1.125 0 0 1.125 -.62498 -.62363)" stroke-width="1.304">
  <g>
   <path d="m29 4.999a24 24.001 0 0 0-0.012153 0.0017362 24 24.001 0 0 0-18.205 8.3875l24.215 37.611 13.535-35.934a24 24.001 0 0 0-19.498-10.066 24 24.001 0 0 0-0.034722 0z" fill="#33d17a"/>
   <path d="m12.071 12.074a24 24.001 0 0 0-7.0712 16.926 24 24.001 0 0 0 14.599 22.044l21.547-1.4011a24 24.001 0 0 0 5.5868-4.521l-17.733-16.119-16.929-16.93z" fill="#5799e9"/>
   <path d="m45.97 12.029-4.9722 4.9742 4 8.0003 8 4.0002v-0.07292a24 24.001 0 0 0-7.0278-16.902z" fill="#837f8a"/>
  </g>
  <path transform="matrix(1.5334,0,0,1.5334,-20.068,-20.067)" d="m31.999 31.999 7.826-7.826 7.825 7.827-6.522 11.739z" fill="#f8db51" style="paint-order:normal"/>
  <path d="m52.998 29-23.998 24.001a24 24.001 0 0 0 23.998-23.977v-0.024306z" fill="#b78860"/>
  <path d="m41 41h-24.001l12-12z" fill="#ff9536"/>
  <path d="m16.998 41.001-4.9254 4.9273a24 24.001 0 0 0 16.903 7.0715h0.024306l12-11.999h-24.002z" fill="#f65960"/>
 </g>
</svg>
