<svg width="64" height="64" version="1.1" xmlns="http://www.w3.org/2000/svg">
 <circle cx="32" cy="32" r="27" fill="#f2f2f2" stroke-linecap="round" stroke-linejoin="round" stroke-width="1.9961"/>
 <g transform="matrix(.94514 0 0 .94514 1.7554 1.7209)" stroke-width=".65671">
  <path d="m44.806 17.552a4.2686 4.2686 0 0 0-4.2686 4.2686 4.2686 4.2686 0 0 0 4.2686 4.2686 4.2686 4.2686 0 0 0 4.2686-4.2686 4.2686 4.2686 0 0 0-4.2686-4.2686zm-4.9022 10.507c-0.74064 0-1.3365 0.59588-1.3365 1.3365v9.1622h0.0077a6.2388 6.2388 0 0 0 6.2311 5.9194 6.2388 6.2388 0 0 0 6.2311-5.9194h0.0077v-9.1622c0-0.74064-0.59588-1.3365-1.3365-1.3365h-9.8047z" fill="#5059c9"/>
  <path d="m32.985 13.612a6.2388 6.2388 0 0 0-6.2388 6.2388 6.2388 6.2388 0 0 0 6.2388 6.2388 6.2388 6.2388 0 0 0 6.2388-6.2388 6.2388 6.2388 0 0 0-6.2388-6.2388zm-7.3585 14.448c-1.199 0-2.1638 0.96484-2.1638 2.1638v10.642a9.5224 9.5224 0 0 0 0 0.02822v0.15135h0.0013a9.5224 9.5224 0 0 0 9.521 9.3431 9.5224 9.5224 0 0 0 9.5197-9.3431h0.0026v-0.17957a9.5224 9.5224 0 0 0 0-0.02822v-10.614c0-1.199-0.96484-2.1638-2.1638-2.1638h-14.717z" fill="#7b83eb"/>
  <rect x="12.955" y="22.806" width="19.045" height="19.045" rx="1.2983" ry="1.2983" fill="#5059c9"/>
  <path d="m17.552 26.746v3.2836h3.2836v8.5373h3.2836v-8.5373h3.2836v-3.2836z" fill="#fff"/>
 </g>
</svg>
