<svg xmlns="http://www.w3.org/2000/svg" width="64" height="64"><circle cx="32" cy="32" r="27" fill="#f0f0f0"/><g stroke-width=".657" transform="translate(1.755 1.72)scale(.94514)"><path fill="#5059c9" d="M44.806 17.552a4.27 4.27 0 0 0-4.269 4.269 4.27 4.27 0 0 0 4.269 4.268 4.27 4.27 0 0 0 4.269-4.268 4.27 4.27 0 0 0-4.269-4.269m-4.902 10.507c-.74 0-1.337.596-1.337 1.336v9.163h.008a6.24 6.24 0 0 0 6.231 5.92 6.24 6.24 0 0 0 6.231-5.92h.008v-9.163c0-.74-.596-1.336-1.337-1.336z"/><path fill="#7b83eb" d="M32.985 13.612a6.24 6.24 0 0 0-6.239 6.239 6.24 6.24 0 0 0 6.239 6.239 6.24 6.24 0 0 0 6.239-6.24 6.24 6.24 0 0 0-6.239-6.238M25.626 28.06a2.16 2.16 0 0 0-2.163 2.164v10.821h.001a9.52 9.52 0 0 0 9.521 9.343 9.52 9.52 0 0 0 9.52-9.343h.002V30.224a2.16 2.16 0 0 0-2.163-2.164H25.625z"/><rect width="19.045" height="19.045" x="12.955" y="22.806" fill="#5059c9" rx="1.298" ry="1.298"/><path fill="#fff" d="M17.552 26.746v3.284h3.284v8.537h3.283V30.03h3.284v-3.284z"/></g></svg>