<svg width="64" height="64" xmlns="http://www.w3.org/2000/svg"><circle cx="32" cy="32" r="27" fill="#f0f0f0"/><g transform="translate(1.755 1.72) scale(.94514)" stroke-width=".657"><path d="M44.806 17.552a4.269 4.269 0 0 0-4.269 4.269 4.269 4.269 0 0 0 4.269 4.268 4.269 4.269 0 0 0 4.269-4.268 4.269 4.269 0 0 0-4.269-4.269zm-4.902 10.507c-.74 0-1.337.596-1.337 1.336v9.163h.008a6.239 6.239 0 0 0 6.231 5.92 6.239 6.239 0 0 0 6.231-5.92h.008v-9.163c0-.74-.596-1.336-1.337-1.336h-9.804z" fill="#5059c9"/><path d="M32.985 13.612a6.239 6.239 0 0 0-6.239 6.239 6.239 6.239 0 0 0 6.239 6.239 6.239 6.239 0 0 0 6.239-6.24 6.239 6.239 0 0 0-6.239-6.238zM25.626 28.06a2.159 2.159 0 0 0-2.163 2.164v10.642a9.522 9.522 0 0 0 0 .028v.151h.001a9.522 9.522 0 0 0 9.521 9.343 9.522 9.522 0 0 0 9.52-9.343h.002v-.18a9.522 9.522 0 0 0 0-.027V30.224a2.159 2.159 0 0 0-2.163-2.164H25.625z" fill="#7b83eb"/><rect x="12.955" y="22.806" width="19.045" height="19.045" rx="1.298" ry="1.298" fill="#5059c9"/><path d="M17.552 26.746v3.284h3.284v8.537h3.283V30.03h3.284v-3.284z" fill="#fff"/></g></svg>