<svg width="64" height="64" version="1.1" viewBox="0 0 16.933 16.933" xmlns="http://www.w3.org/2000/svg">
 <circle cx="8.4665" cy="8.4665" r="7.1436" fill="#333" style="paint-order:stroke fill markers"/>
 <g fill="#fff">
  <path transform="scale(.26458)" d="m32 5a27 27 0 0 0-27 27 27 27 0 0 0 27 27 27 27 0 0 0 27-27 27 27 0 0 0-27-27z" opacity=".1" stroke-width="5.3645"/>
  <path transform="scale(.26458)" d="m31.998 5v54a27 27 0 0 0 0.001953 0 27 27 0 0 0 27-27 27 27 0 0 0-27-27 27 27 0 0 0-0.001953 0z" opacity=".1" stroke-width="5.3645"/>
  <g transform="translate(0 1.0648)" style="paint-order:stroke markers fill">
   <g transform="matrix(.50244 0 0 .50244 -.222 -138.93)">
    <rect transform="translate(4.082 .6)" x="5.292" y="289.06" width="4.233" height=".529" ry=".265"/>
    <path d="m8.055 284.86a0.264 0.264 0 0 0-0.262 0.13 0.264 0.264 0 0 0 0.097 0.362l2.842 1.64-2.842 1.641a0.264 0.264 0 0 0-0.097 0.362c0.074 0.127 0.235 0.17 0.362 0.097l3.208-1.852a0.26 0.26 0 0 0 0.127-0.225c2e-3 -8e-3 1e-3 -0.015 2e-3 -0.022 0-8e-3 0-0.015-2e-3 -0.023a0.26 0.26 0 0 0-0.127-0.224l-3.208-1.852a0.266 0.266 0 0 0-0.1-0.034z"/>
   </g>
   <g transform="matrix(.50244 0 0 .50244 -.222 -138.93)">
    <rect transform="translate(4.082 .6)" x="5.292" y="289.06" width="4.233" height=".529" ry=".265"/>
    <path d="m8.055 284.86a0.264 0.264 0 0 0-0.262 0.13 0.264 0.264 0 0 0 0.097 0.362l2.842 1.64-2.842 1.641a0.264 0.264 0 0 0-0.097 0.362c0.074 0.127 0.235 0.17 0.362 0.097l3.208-1.852a0.26 0.26 0 0 0 0.127-0.225c2e-3 -8e-3 1e-3 -0.015 2e-3 -0.022 0-8e-3 0-0.015-2e-3 -0.023a0.26 0.26 0 0 0-0.127-0.224l-3.208-1.852a0.266 0.266 0 0 0-0.1-0.034z"/>
   </g>
  </g>
  <g transform="translate(0 1.0648)" style="paint-order:stroke markers fill">
   <g transform="matrix(.50244 0 0 .50244 6.514 -138.93)">
    <rect transform="translate(4.082 .6)" x="5.292" y="289.06" width="4.233" height=".529" ry=".265"/>
    <path d="m8.055 284.86a0.264 0.264 0 0 0-0.262 0.13 0.264 0.264 0 0 0 0.097 0.362l2.842 1.64-2.842 1.641a0.264 0.264 0 0 0-0.097 0.362c0.074 0.127 0.235 0.17 0.362 0.097l3.208-1.852a0.26 0.26 0 0 0 0.127-0.225c2e-3 -8e-3 1e-3 -0.015 2e-3 -0.022 0-8e-3 0-0.015-2e-3 -0.023a0.26 0.26 0 0 0-0.127-0.224l-3.208-1.852a0.266 0.266 0 0 0-0.1-0.034z"/>
   </g>
   <g transform="matrix(.50244 0 0 .50244 6.514 -138.93)">
    <rect transform="translate(4.082 .6)" x="5.292" y="289.06" width="4.233" height=".529" ry=".265"/>
    <path d="m8.055 284.86a0.264 0.264 0 0 0-0.262 0.13 0.264 0.264 0 0 0 0.097 0.362l2.842 1.64-2.842 1.641a0.264 0.264 0 0 0-0.097 0.362c0.074 0.127 0.235 0.17 0.362 0.097l3.208-1.852a0.26 0.26 0 0 0 0.127-0.225c2e-3 -8e-3 1e-3 -0.015 2e-3 -0.022 0-8e-3 0-0.015-2e-3 -0.023a0.26 0.26 0 0 0-0.127-0.224l-3.208-1.852a0.266 0.266 0 0 0-0.1-0.034z"/>
   </g>
  </g>
 </g>
</svg>
