<?xml version="1.0" encoding="UTF-8"?>
<svg id="svg565" width="64" height="64" version="1.1" viewBox="0 0 16.933 16.933" xmlns="http://www.w3.org/2000/svg">
 <circle id="circle529" cx="8.466" cy="8.466" r="7.144" fill="#c61919" style="paint-order:stroke fill markers"/>
 <path id="path531" d="m15.61 8.467a7.144 7.144 0 0 0-7.144-7.144 7.144 7.144 0 0 0-7.143 7.144 7.144 7.144 0 0 0 7.143 7.143 7.144 7.144 0 0 0 7.144-7.143z" fill="#fff" opacity=".1"/>
 <path id="path533" d="m15.61 8.466h-14.287a7.144 7.144 0 0 0 7.143 7.144 7.144 7.144 0 0 0 7.144-7.143 7.144 7.144 0 0 0 0-1e-3z" fill="#fff" opacity=".1"/>
 <rect id="rect541" x="6.104" y="6.7527" width="2.1268" height=".26579" ry=".13315" fill="#fff" stroke-width=".50244" style="paint-order:stroke markers fill"/>
 <path id="path543" d="m5.4413 4.341a0.13264 0.13264 0 0 0-0.13164 0.065317 0.13264 0.13264 0 0 0 0.048737 0.18188l1.4279 0.824-1.4279 0.8245a0.13264 0.13264 0 0 0-0.048737 0.18188c0.037181 0.06381 0.11807 0.085415 0.18188 0.048737l1.6118-0.93052a0.13063 0.13063 0 0 0 0.06381-0.11305c1e-3 -0.00402 5.024e-4 -0.00754 1e-3 -0.011054 0-0.00402 0-0.00754-1e-3 -0.011556a0.13063 0.13063 0 0 0-0.06381-0.11255l-1.6118-0.93052a0.13365 0.13365 0 0 0-0.050244-0.017083z" fill="#fff" stroke-width=".50244" style="paint-order:stroke markers fill"/>
 <rect id="rect555" x="6.104" y="12.43" width="2.1268" height=".26579" ry=".13315" fill="#fff" stroke-width=".50244" style="paint-order:stroke markers fill"/>
 <path id="path557" d="m5.4413 10.019a0.13264 0.13264 0 0 0-0.13164 0.06532 0.13264 0.13264 0 0 0 0.048737 0.18188l1.4279 0.824-1.4279 0.8245a0.13264 0.13264 0 0 0-0.048737 0.18188c0.037181 0.06381 0.11807 0.08541 0.18188 0.04874l1.6118-0.93052a0.13063 0.13063 0 0 0 0.06381-0.11305c1e-3 -4e-3 5.024e-4 -0.0075 1e-3 -0.01105 0-4e-3 0-0.0075-1e-3 -0.01156a0.13063 0.13063 0 0 0-0.06381-0.11255l-1.6118-0.93052a0.13365 0.13365 0 0 0-0.050244-0.01708z" fill="#fff" stroke-width=".50244" style="paint-order:stroke markers fill"/>
</svg>
