<svg width="64" height="64" version="1" xmlns="http://www.w3.org/2000/svg">
 <path d="m55.9 19.278c-0.13442-0.24883-0.28316-0.51483-0.43761-0.77797-1.1613-1.9735-2.6199-3.8441-4.3675-5.5916-4.153-4.153-8.9895-6.6728-14.51-7.5537-0.92952-0.14873-1.8762-0.2517-2.863-0.30604-0.55487-0.031462-1.1355-0.048623-1.7218-0.048623-0.53486 0-1.064 0.014301-1.596 0.042902-6.77 0.34894-12.602 2.9717-17.496 7.8655-1.1727 1.1727-2.2166 2.3997-3.129 3.6839-0.87807 1.2327-1.6331 2.517-2.2652 3.8441l-0.00143-0.0014q-2.5126 5.2626-2.5126 11.565c0 7.4564 2.6371 13.823 7.9084 19.094 3.2434 3.2406 6.8959 5.4858 10.931 6.7243 2.1022 0.64354 4.2788 1.0211 6.5641 1.1412h0.02288c0.48623 0.02574 0.94959 0.04004 1.4015 0.04004h0.17161c0.5892 0 1.1727-0.01716 1.7218-0.04576 0.14301-0.0086 0.27172-0.01716 0.39757-0.02574 1.1555-0.08294 2.2824-0.23168 3.3578-0.44047 0.45477-0.08867 0.90378-0.18878 1.3386-0.2946 4.6221-1.1613 8.7035-3.5237 12.279-7.099 2.7801-2.7801 4.828-5.8633 6.1408-9.2556 1.0554-2.7258 1.6389-5.6518 1.7475-8.7807 0.01144-0.34608 0.01716-0.70074 0.01716-1.0582v-0.17162c-0.01144-2.3253-0.28316-4.5477-0.81801-6.6928-0.06292-0.24883-0.13442-0.51483-0.20879-0.77797-0.0572-0.19449-0.11441-0.39184-0.18019-0.60064-0.09153-0.2946-0.19449-0.60064-0.30318-0.90666-0.28888-0.81515-0.62066-1.616-0.9982-2.4111-0.10582-0.21737-0.21452-0.43761-0.32606-0.65784-0.08294-0.16303-0.16875-0.32606-0.266-0.50339z" fill="#f2f2f2" stroke-width=".89712"/>
 <path d="m51.917 21.398c-0.11202-0.20736-0.23596-0.42903-0.36467-0.64831-0.96768-1.6446-2.1832-3.2034-3.6396-4.6597-3.4608-3.4608-7.4913-5.5607-12.092-6.2948-0.77463-0.12394-1.5636-0.20975-2.3859-0.25504-0.4624-0.02622-0.94626-0.04052-1.4349-0.04052-0.44571 0-0.88666 0.01192-1.33 0.03575-5.6417 0.29078-10.501 2.4765-14.58 6.5546-0.97722 0.97722-1.8472 1.9997-2.6075 3.0699-0.73173 1.0273-1.361 2.0975-1.8878 3.2034l-0.0012-0.0012q-2.0939 4.3855-2.0939 9.6381c0 6.2137 2.1975 11.519 6.5904 15.912 2.7029 2.7005 5.7466 4.5715 9.1098 5.6036 1.7519 0.53628 3.5657 0.85091 5.4701 0.95103h0.01906c0.40519 0.02145 0.79132 0.03337 1.1679 0.03337h0.14301c0.491 0 0.97722-0.0143 1.4349-0.03814 0.11918-0.0071 0.22643-0.0143 0.3313-0.02145 0.96292-0.06912 1.902-0.19306 2.7982-0.36706 0.37897-0.07389 0.75318-0.15731 1.1155-0.2455 3.8517-0.96768 7.253-2.9364 10.232-5.9158 2.3168-2.3168 4.0233-4.8861 5.1173-7.7129 0.8795-2.2714 1.3658-4.7098 1.4563-7.3173 0.0095-0.2884 0.0143-0.58395 0.0143-0.88189v-0.14298c-0.0095-1.9378-0.23596-3.7897-0.68168-5.5773-0.05243-0.20736-0.11202-0.42903-0.174-0.64831-0.04767-0.16207-0.09534-0.32654-0.15016-0.50053-0.07628-0.2455-0.16207-0.50053-0.25265-0.75556-0.24073-0.6793-0.51721-1.3467-0.83184-2.0093-0.08819-0.18114-0.17876-0.36467-0.27172-0.5482-0.06912-0.13586-0.14063-0.27172-0.22166-0.41949z" fill="#f9f9f9" stroke-width=".89712"/>
 <g transform="matrix(1.0019 0 0 1.0019 -.060471 .75913)">
  <path d="m31.421 29c-0.7011 0.39996-1.4995 0.61171-2.3104 0.61328-0.0847 0-0.16469-0.01725-0.24782-0.02196v8.7443l-1.9967-2.2272a2.0913 2.0913 0 0 1-1.6642 0.82345 2.0913 2.0913 0 0 1-0.05176 0.45015l3.7126 4.0592v6.633c-2.5786 0.82659-3.137 2.7825-3.137 5.0662h12.548c0-2.2837-0.55838-4.2396-3.137-5.0662v-2.1629l3.7894-3.6608a2.0913 2.2407 0 0 1-0.12862-0.7607 2.0913 2.2407 0 0 1 0.28233-1.1246 2.0913 2.2407 0 0 1-0.01255-0.01725 2.0913 2.2407 0 0 1-0.26978 0.02039 2.0913 2.2407 0 0 1-0.88305-0.21018l-2.7778 2.646v-13.426c-0.45015 0.14116-0.91599 0.23527-1.4038 0.23527-0.81247-0.001568-1.6093-0.21331-2.3119-0.61328z" fill="#a57959"/>
  <path d="m31.421 9.2234c-1.2266 0.00141-2.4029 0.48121-3.2687 1.3326-0.43917-0.13191-0.8956-0.19904-1.3536-0.19904-2.5535 0-4.6234 2.0282-4.6234 4.5307 0.0016 1.0677 0.38804 2.1007 1.0912 2.9164-1.3922 0.81765-2.244 2.2911-2.2461 3.8814 0.0025 2.1107 1.491 3.9395 3.5902 4.4117 0.48152 2.0563 2.348 3.5134 4.5 3.5165 0.8109-0.0016 1.6093-0.21331 2.3104-0.61328 0.70267 0.39996 1.4995 0.61171 2.3119 0.61328 1.6673-0.0016 3.2044-0.88148 4.0231-2.3041 2.3198-0.27448 4.0655-2.2037 4.0686-4.4937-0.0016-0.12862-0.0094-0.25723-0.02196-0.38585 0.756-0.82863 1.1748-1.9004 1.1764-3.0115-0.0031-2.111-1.4916-3.9403-3.5902-4.4113-0.43604-1.8588-2.0155-3.2519-3.9494-3.482-0.81875-1.4199-2.3543-2.2984-4.0184-2.3006zm-8.3082 23.527a2.0913 2.0913 0 0 0-2.0924 2.0924 2.0913 2.0913 0 0 0 0.28154 1.0446 2.0913 2.0913 0 0 0-0.28154 1.0446 2.0913 2.0913 0 0 0 2.0924 2.0924 2.0913 2.0913 0 0 0 2.0892-2.0924 2.0913 2.0913 0 0 0 2.0924-2.0892 2.0913 2.0913 0 0 0-2.0924-2.0924 2.0913 2.0913 0 0 0-1.0446 0.28233 2.0913 2.0913 0 0 0-1.0446-0.28233zm15.685 3.137a2.0913 2.2407 0 0 0-2.0924 2.2398 2.0913 2.2407 0 0 0 2.0924 2.2414 2.0913 2.2407 0 0 0 0.26978-0.02039 2.0913 2.2407 0 0 0 0.01255 0.01725 2.0913 2.2407 0 0 0-0.28233 1.1246 2.0913 2.2407 0 0 0 2.0892 2.2398 2.0913 2.2407 0 0 0 2.0924-2.2398 2.0913 2.2407 0 0 0-0.28233-1.1215 2.0913 2.2407 0 0 0 0.28233-1.1199 2.0913 2.2407 0 0 0-2.0924-2.2398 2.0913 2.2407 0 0 0-0.26978 0.02196 2.0913 2.2407 0 0 0-1.8194-1.1434z" fill="#1c8d43"/>
 </g>
</svg>
