<svg xmlns="http://www.w3.org/2000/svg" width="64" height="64" version="1"><path fill="#f0f0f0" d="M55.9 19.278a25 25 0 0 0-.438-.778c-1.16-1.973-2.62-3.844-4.367-5.592q-6.23-6.23-14.51-7.553a28 28 0 0 0-2.863-.306 31 31 0 0 0-3.318-.006q-10.155.524-17.496 7.865a29 29 0 0 0-3.129 3.684 25.6 25.6 0 0 0-2.265 3.844h-.002Q5 25.697 5 32q0 11.186 7.908 19.094c3.244 3.24 6.896 5.486 10.931 6.724a27.2 27.2 0 0 0 6.564 1.142h.023c.486.025.95.04 1.402.04h.171c.59 0 1.173-.018 1.722-.046l.398-.026a28 28 0 0 0 3.358-.44c.454-.089.903-.19 1.338-.295 4.622-1.161 8.704-3.524 12.28-7.099q4.17-4.168 6.14-9.256 1.584-4.087 1.747-8.78Q59 32.538 59 32v-.172a28 28 0 0 0-.818-6.693 29 29 0 0 0-.21-.778 24 24 0 0 0-.483-1.507 25.4 25.4 0 0 0-1.59-3.572z"/><path fill="#f0f0f0" d="M51.917 21.398a21 21 0 0 0-.365-.648c-.967-1.645-2.183-3.204-3.64-4.66q-5.19-5.191-12.091-6.295a23 23 0 0 0-2.386-.255 26 26 0 0 0-2.765-.005q-8.462.437-14.58 6.555-1.466 1.465-2.608 3.07a21.3 21.3 0 0 0-1.887 3.203h-.002Q9.5 26.747 9.5 32q0 9.322 6.59 15.912c2.703 2.7 5.747 4.572 9.11 5.604 1.752.536 3.565.85 5.47.95h.019c.405.022.791.034 1.168.034H32a28 28 0 0 0 1.766-.06 23.6 23.6 0 0 0 3.914-.612c3.851-.968 7.253-2.936 10.232-5.916q3.476-3.474 5.117-7.713 1.32-3.407 1.456-7.317.015-.433.015-.882v-.143a23.4 23.4 0 0 0-.682-5.577 25 25 0 0 0-.174-.648c-.048-.163-.095-.327-.15-.501a21 21 0 0 0-1.578-3.733z"/><path fill="#a57959" d="M31.42 29.814c-.702.4-1.502.613-2.315.615-.084 0-.165-.018-.248-.022v8.76l-2-2.23a2.1 2.1 0 0 1-1.668.824 2 2 0 0 1-.052.451l3.72 4.067v6.646c-2.583.828-3.143 2.787-3.143 5.076h12.572c0-2.289-.56-4.248-3.143-5.076v-2.167l3.797-3.668a2.095 2.245 0 0 1-.13-.762 2.095 2.245 0 0 1 .284-1.127 2.095 2.245 0 0 1-.013-.017 2.095 2.245 0 0 1-.27.02 2.095 2.245 0 0 1-.885-.21l-2.783 2.65v-13.45a4.7 4.7 0 0 1-1.407.235 4.7 4.7 0 0 1-2.316-.615"/><path fill="#1c8d43" d="M31.42 10a4.68 4.68 0 0 0-3.275 1.335 4.7 4.7 0 0 0-1.356-.2c-2.558 0-4.632 2.033-4.632 4.54a4.48 4.48 0 0 0 1.093 2.922A4.52 4.52 0 0 0 21 22.486c.002 2.115 1.494 3.947 3.597 4.42.482 2.06 2.352 3.52 4.508 3.523a4.7 4.7 0 0 0 2.315-.614c.704.4 1.503.612 2.317.614a4.65 4.65 0 0 0 4.03-2.308c2.324-.275 4.073-2.208 4.077-4.503a5 5 0 0 0-.022-.386A4.5 4.5 0 0 0 43 20.215c-.003-2.115-1.494-3.948-3.597-4.42-.437-1.862-2.02-3.258-3.957-3.489a4.65 4.65 0 0 0-4.026-2.305zm-8.324 23.572A2.095 2.095 0 0 0 21 35.668a2.1 2.1 0 0 0 .282 1.047A2.1 2.1 0 0 0 21 37.76a2.095 2.095 0 0 0 2.096 2.097 2.095 2.095 0 0 0 2.093-2.097 2.095 2.095 0 0 0 2.097-2.093 2.095 2.095 0 0 0-2.097-2.096 2.1 2.1 0 0 0-1.046.283 2.1 2.1 0 0 0-1.047-.283zm15.715 3.143a2.095 2.245 0 0 0-2.096 2.244 2.095 2.245 0 0 0 2.096 2.245 2.095 2.245 0 0 0 .27-.02 2.095 2.245 0 0 0 .013.017 2.095 2.245 0 0 0-.283 1.127 2.095 2.245 0 0 0 2.093 2.244 2.095 2.245 0 0 0 2.097-2.244 2.095 2.245 0 0 0-.283-1.124A2.095 2.245 0 0 0 43 40.082a2.095 2.245 0 0 0-2.097-2.244 2.095 2.245 0 0 0-.27.022 2.095 2.245 0 0 0-1.823-1.145z"/></svg>