<svg width="64" height="64" version="1.1" viewBox="0 0 16.933 16.933" xmlns="http://www.w3.org/2000/svg">
 <circle cx="8.4665" cy="8.4665" r="7.1436" fill="#aa55b9" style="paint-order:stroke fill markers"/>
 <path d="m5.8946 2.3802a6.6145 6.6145 0 0 0-0.55551 0.26458h6.2637a6.6145 6.6145 0 0 0-0.54726-0.26458zm-1.9254 1.2438a6.6145 6.6145 0 0 0-0.3426 0.34623h0.077514v1.0568h-0.87745a6.6145 6.6145 0 0 0-0.16278 0.26511h1.0402v1.0578h-1.4976a6.6145 6.6145 0 0 0-0.085266 0.26511h1.5828v1.0578h-1.7988a6.6145 6.6145 0 0 0-0.026871 0.26511h1.8257v1.0583h-1.8278a6.6145 6.6145 0 0 0 0.031522 0.26406h1.7963v1.0588h-1.5834a6.6145 6.6145 0 0 0 0.087848 0.26406h1.4955v1.0588h-1.032a6.6145 6.6145 0 0 0 0.15141 0.26406h0.88055v1.0588h-0.079064a6.6145 6.6145 0 0 0 0.34417 0.34054v-0.07648h9.0857a6.6145 6.6145 0 0 0 0.24959-0.26406h-9.3352v-1.0588h10.137a6.6145 6.6145 0 0 0 0.16226-0.26406h-10.3v-1.0588h10.757a6.6145 6.6145 0 0 0 0.08527-0.26406h-10.842v-1.0588h11.059a6.6145 6.6145 0 0 0 0.02687-0.26406h-11.085v-1.0583h11.088a6.6145 6.6145 0 0 0-0.032038-0.26511h-11.056v-1.0578h10.844a6.6145 6.6145 0 0 0-0.088364-0.26511h-10.755v-1.0588h10.292a6.6145 6.6145 0 0 0-0.15193-0.26511h-10.14v-1.0578h9.3389a6.6145 6.6145 0 0 0-0.26303-0.26511h-9.0759v-0.079064zm1.3611 10.664a6.6145 6.6145 0 0 0 0.54517 0.26354h5.1654a6.6145 6.6145 0 0 0 0.55292-0.26354h-6.2637z" fill="#fff" fill-opacity=".3" fill-rule="evenodd"/>
 <path d="m13.493 11.906c0 0.388-0.08 0.697-0.24 0.928s-0.407 0.38-0.74 0.45v-0.42c0.13008-0.06632 0.22125-0.19011 0.246-0.334h-0.245v-1.146h0.98zm-1.309 0c0 0.388-0.08 0.697-0.24 0.928-0.161 0.231-0.408 0.38-0.74 0.45v-0.42c0.06797-0.03273 0.12828-0.07941 0.177-0.137 0.03878-0.05895 0.06216-0.12668 0.068-0.197h-0.245v-1.146h0.98z" fill="#aa55b9" fill-rule="evenodd" stroke="#aa55b9" stroke-width=".52916" style="paint-order:stroke markers fill"/>
 <g fill="#fff">
  <g stroke="#32a3d7" stroke-width=".52916">
   <g aria-label="T">
    <path d="m5.3988 8.4968h0.64105v-2.6725h0.9096v-0.53277h-2.4516v0.53277h0.90094z" fill="#aa55b9" stroke="#aa55b9" stroke-width=".52916"/>
   </g>
   <g aria-label="E">
    <path d="m7.1436 10.084h2.0141v-0.5371h-1.3731v-0.85762h1.1262v-0.5371h-1.1262v-0.74067h1.3254v-0.53277h-1.9665z" fill="#aa55b9" stroke="#aa55b9" stroke-width=".52916"/>
   </g>
   <g aria-label="X">
    <path d="m9.7894 9.026h0.68003l0.34218-0.71035c0.07797-0.16459 0.1516-0.33352 0.2339-0.52843h0.01733c0.09529 0.19491 0.16892 0.36384 0.25122 0.52843l0.35951 0.71035h0.71036l-0.90094-1.6243 0.84463-1.581h-0.6757l-0.3032 0.65838c-0.0693 0.1516-0.13427 0.30753-0.21224 0.50678h-0.02166c-0.095289-0.19925-0.16459-0.35518-0.23823-0.50678l-0.32053-0.65838h-0.71035l0.84463 1.5507z" fill="#aa55b9" stroke="#aa55b9" stroke-width=".52916"/>
    <path d="m9.7894 9.026h0.68003l0.34218-0.71035c0.07797-0.16459 0.1516-0.33352 0.2339-0.52843h0.01733c0.09529 0.19491 0.16892 0.36384 0.25122 0.52843l0.35951 0.71035h0.71036l-0.90094-1.6243 0.84463-1.581h-0.6757l-0.3032 0.65838c-0.0693 0.1516-0.13427 0.30753-0.21224 0.50678h-0.02166c-0.095289-0.19925-0.16459-0.35518-0.23823-0.50678l-0.32053-0.65838h-0.71035l0.84463 1.5507z" stroke="none"/>
   </g>
  </g>
  <path d="m13.493 11.906c0 0.388-0.08 0.697-0.24 0.928s-0.407 0.38-0.74 0.45v-0.42c0.13008-0.06632 0.22125-0.19011 0.246-0.334h-0.245v-1.146h0.98zm-1.309 0c0 0.388-0.08 0.697-0.24 0.928-0.161 0.231-0.408 0.38-0.74 0.45v-0.42c0.06797-0.03273 0.12828-0.07941 0.177-0.137 0.03878-0.05895 0.06216-0.12668 0.068-0.197h-0.245v-1.146h0.98z" fill-rule="evenodd" style="paint-order:stroke markers fill"/>
  <g aria-label="T">
   <path d="m5.3988 8.4968h0.64105v-2.6725h0.9096v-0.53277h-2.4516v0.53277h0.90094z" fill="#fff"/>
  </g>
  <g aria-label="E">
   <path d="m7.1436 10.084h2.0141v-0.5371h-1.3731v-0.85762h1.1262v-0.5371h-1.1262v-0.74067h1.3254v-0.53277h-1.9665z" fill="#fff"/>
  </g>
 </g>
</svg>
