<?xml version="1.0" encoding="UTF-8"?>
<svg width="64" height="64" version="1.1" xmlns="http://www.w3.org/2000/svg">
 <circle cx="32" cy="32" r="27" fill="#b3b3b3" stroke-linecap="round" stroke-linejoin="round" stroke-width="2.0192"/>
 <g transform="matrix(.70274 0 0 .70274 9.5874 9.5122)">
  <path d="m9 26v2c0 4.432 3.568 8 8 8h2v-6h6c1.108 0 2 0.892 2 2s-0.892 2-2 2h-2v2h22c2.77 0 5-2.23 5-5a4.99 4.99 0 0 0-3.25-4.688l0.25-0.312z" fill="#e6e6e6"/>
  <path d="m15.428 3c0 10.357 4.144 16.571 12.43 22.785l0.389 0.258c0.156 0.133 0.32 0.258 0.494 0.377l12.617 8.617a5.863 5.863 0 0 0 8.166-1.54 5.86 5.86 0 0 0-0.955-7.708l4e-3 -4e-3 -0.037-0.025a5.985 5.985 0 0 0-0.551-0.428l-11.207-7.654z" fill="#f9f9f9"/>
  <path d="m47.536 21.643c-1.92 2e-3 -3.824 0.71-5.179 2.071l-24.857 24.857c-1.36 1.355-2.069 3.259-2.071 5.179a7.244 7.244 0 0 0 7.25 7.25c1.92-2e-3 3.824-0.71 5.179-2.071l24.857-24.857c1.36-1.355 2.069-3.259 2.071-5.179a7.244 7.244 0 0 0-7.25-7.25z" fill="#e74b52"/>
  <path d="m23.714 46.5-1.036 1.036 1.554 1.553-1.036 1.036-1.553-1.554-1.036 1.036 1.554 1.554-1.554 1.553 1.036 1.036 1.553-1.554 1.036 1.036-1.554 1.554 1.036 1.035 1.554-1.553 1.553 1.553 1.036-1.035-1.554-1.554 1.036-1.036 1.554 1.554 1.035-1.036-1.553-1.553 1.553-1.554-1.035-1.036-1.554 1.554-1.036-1.036 1.554-1.553-1.037-1.036-1.553 1.554zm1.554 3.625 1.035 1.036-1.035 1.035-1.036-1.035z" fill="#f9f9f9"/>
  <path d="m21.643 9.343v2.071l12.429 8.545v-2.072z" fill="#878787"/>
 </g>
</svg>
