<svg xmlns="http://www.w3.org/2000/svg" xml:space="preserve" width="64" height="64" viewBox="0 0 16.933 16.933"><circle cx="8.466" cy="8.466" r="7.144" fill="#f0f0f0" style="paint-order:stroke fill markers;fill:#85bdfd;fill-opacity:1"/><path fill="#248afd" d="M7.569 5.452c.276-1.025 1.707-1.616 3.052-1.616.971 0 1.916.388 2.513.898-.357.018-.786.18-1.077.36.539.06.95.18 1.257.538a2.1 2.1 0 0 0-.718 0c.578.876.9 2.169.897 3.231 0 2.9-2.154 5.027-5.027 5.027-2.872 0-5.026-2.154-5.026-5.027 0-.452.073-1.133.206-1.58.029-.091.07-.174.124-.206a.05.05 0 0 1 .029-.009c.055 0 .098.093.107.127.074.288.128.68.252.95 0-.596.244-1.264.581-1.736.225-.314.648-.574.745-1.416 0 0 .01-.08.11-.08.732.25.718 1.796.718 2.873.404.061.424-.666.424-.666a1 1 0 0 1-.065-.411c0-.36.277-.986.898-1.257"/><path fill="#0271ef" d="M13.23 7.068c.02.06.084.332.084.539 0 2.764-2.174 5.206-4.848 5.206-1.044 0-1.856-.248-2.693-.898-1.289-1.003-2.154-2.19-2.154-3.77 0-.359.08-.836.128-1.018.012-.048.028-.059.052-.059a.05.05 0 0 0-.03.009c-.055.036-.089.11-.123.206-.057.146-.136.627-.144.683a8 8 0 0 0-.062.897c0 2.873 2.154 5.027 5.026 5.027 2.873 0 5.027-2.127 5.027-5.027 0-.718-.12-1.343-.263-1.795"/><path fill="#0259bb" d="M3.747 7.127c-.076.318-.128.66-.128 1.018 0 1.122.433 2.214 1.526 3.234a2.98 2.98 0 0 1-.628-1.797c0-.584.134-1.218.617-1.758.027-.029.054-.038.1-.038.057 0 .118.058.12.133.093 2.612 2.035 3.996 4.549 3.996-.805 0-3.119-1.025-1.345-1.371.926-.18 2.422-.603 2.422-1.68 0-2.209-1.257-2.873-2.514-2.873-.77 0-1.58.57-1.73 1.13.07.24-.234.694-.424.665 0-1.077.014-2.623-.718-2.872-.097 0-.11.079-.11.079-.097.842-.52 1.1-.745 1.416-.337.472-.581 1.077-.581 1.736-.124-.27-.178-.662-.252-.95-.009-.032-.054-.127-.107-.127-.03 0-.045.027-.052.06"/><path fill="#d9d9d9" d="M8.466 10.838c1.257 0 2.514-.897 2.514-1.975 0-.45-.115-.894-.36-1.256-.435-.649-1.232-1.078-2.154-1.078-.937 0-1.723.41-2.154 1.078-.23.355-.359.82-.359 1.256 0 2.081 1.795 3.052 3.95 3.052-.135-.016-.957-.046-1.524-.718-.053-.06-.092-.113-.092-.18 0-.105.099-.179.18-.179"/><path fill="#f2f2f2" d="M8.826 9.402c-.115.115-.223.181-.36.18-.132-.002-.25-.07-.359-.18L6.312 7.607c.539-.835 1.436-1.078 2.154-1.078.719 0 1.616.284 2.155 1.078z"/><path fill="#e4e4e4" d="M8.928 5.607c.28-.097.255-.403.255-.403s-.14-.18-.418-.08c-.26.095-.3.298-.3.298s.142.296.461.185z"/></svg>