<svg width="64" height="64" version="1.1" viewBox="0 0 64 64" xmlns="http://www.w3.org/2000/svg">
 <path d="m32 5c14.912 0 27 12.088 27 27s-12.088 27-27 27-27-12.088-27-27 12.088-27 27-27z" fill="#ff8d3d" stroke-width="1.1739"/>
 <g transform="matrix(1.1739 0 0 1.1739 5 5)"></g>
 <path d="m21.135 7.2812c-1.235 0.54352-2.4191 1.173-3.5449 1.8926 0.25709 0.95204 0.52819 1.954 0.71484 2.5937 0.45783 1.4557 1.7958 5.5292 2.418 5.5996 0.41087 0.046956-0.32831-5.5281-0.22266-7.3711 0.049304-0.83465 0.28767-1.7781 0.63867-2.7148zm8.3281 1.2188c-0.53652-0.038078-1.0356 0.55813-1.0664 2.0938-0.0587 2.9935-1.9134 5.693-3.3926 8.1465-1.4674 2.43-0.02458 3.1809 1.7598 1.373 1.9252-1.9487 3.8395-6.2335 4.0273-8.9688 0.11226-1.4989-0.63832-2.5956-1.3281-2.6445zm-17.971 5.9512c-0.78849 0.92001-1.5171 1.8932-2.1777 2.9141 1.2326 1.647 2.1955 3.4713 2.0957 5.8379-0.15261 4.0383-3.3228 8.7804-0.75195 12.654 1.62 2.4417 13.205 8.6174 22.162 8.5 0.16435 0 0.0708-0.07206-0.21094-0.18945-2.3596-0.98609-18.207-5.6333-19.1-8.7441-0.2113-0.71609-0.14016-1.3165 1.8438-1.2812 5.8343 0.10565 3.9339 4.9204 13.865 4.6504 2.1717-0.09274 4.4047-0.91073 5.7383-2.3828 1.6083-1.6435 2.3966-3.6627 3.4648-4.4375 5.3765-3.9091 4.9886-3.1347 7.0664-4.2734 4.0852-2.2304 1.5143-5.413 0-3.7461-1.8078 1.9957-4.9088 0.47276-9.0645 0.41406-3.0757-0.30522-8.8735 1.6431-11.973 3.5918-4.9657 3.1226-4.272-0.39906-5.1172-3.416-0.0587 0.41087-0.54 3.6156 0 5.6816-2.3243 0.81-2.7466 0.86922-4.6953 0.82227-0.68087 0-2.1719 0.13994-2.1367-1.7148 0.03522-1.7374 0.39801-3.0874 0.64453-4.5195 0.15261-0.89217 0.27155-1.8321 0.23633-2.9238-0.081-2.5321-1.0348-4.9641-1.8906-7.4375zm32.52 2.918c-6.385-0.04609-15.279 1.8321-14.125 3.9062 0.34044 0.61043 0.90499 0.8691 1.6328 0.89258 2.0778 0.0587 5.4577-1.7839 8.4395-2.5234 2.1717-0.54 5.459-0.26961 7.6895-0.22266 1.6787 0.04696 2.7585-0.02433 2.3359-0.63477-0.686-0.97948-3.0704-1.397-5.9727-1.418zm14.787 17.871c-0.76656 0.77478-1.4893 1.5602-2.041 2.1895-6.6913 7.7243-11.387 17.164-37.189 10.426-6.8087-1.7843-9.4851-2.2421-3.416 1.0801 18.297 10.03 31.315 5.0762 37.801-1.2207 2.5814-3.5992 4.2928-7.8564 4.8457-12.475z" fill="#000000" opacity=".65" stroke-width="1.1739"/>
 <path d="m43.781 19.312c-1.3721-0.005966-2.7364 0.062031-3.8223 0.33203-1.9841 0.49212-4.1369 1.4631-5.9727 2.0469-0.003399 0.006964-0.010361 0.012538-0.013672 0.019532-0.034921 0.006265-0.072392 0.011386-0.10742 0.017578-0.8751 0.27182-1.6813 0.45822-2.3457 0.43945-0.1301-0.004197-0.24787-0.026982-0.36719-0.046875-4.2941 0.52818-9.1451 0.71187-13.896 1.1621-2.5391 0.23423-3.8433 1.4978-4.4258 3.2109-0.1638 0.8753-0.30672 1.7818-0.32812 2.8379-0.035217 1.8548 1.4558 1.7148 2.1367 1.7148 1.9487 0.046957 2.371-0.012266 4.6953-0.82227-0.54-2.0661-0.0587-5.2708 0-5.6816 0.84522 3.017 0.15154 6.5386 5.1172 3.416 3.0991-1.9487 8.897-3.897 11.973-3.5918 4.1557 0.058695 7.2566 1.5816 9.0645-0.41406 1.5143-1.667 4.0852 1.5157 0 3.7461-2.0778 1.1387-1.6899 0.36431-7.0664 4.2734-1.0683 0.77478-1.8566 2.794-3.4648 4.4375-1.3336 1.4721-3.5665 2.2901-5.7383 2.3828-9.9313 0.27-8.0309-4.5447-13.865-4.6504-1.961-0.03481-2.0499 0.55271-1.8477 1.2578 0.001944 0.006805 0.003916 0.01469 0.00586 0.021484 0.004289 0.015106 0.011095 0.029864 0.015625 0.044922 0.97249 2.9617 15.132 7.2439 18.525 8.498 0.043973 0.015725 0.11618 0.035236 0.1582 0.050781 4.8952 1.8078 9.9908-3.7337 11.928-7.502 1.0448-2.0309 1.9601-4.1787 3.5449-5.8574 2.0543-2.1835 5.2469-2.9469 7.0195-5.4355 2.2187-3.1343-2.3945-4.7431-4.6836-5.3184-0.8108-0.20107-1.6857-0.35767-2.5859-0.48633-1.0802-0.027659-2.3565-0.097881-3.6523-0.10352z" fill="#ffffff" stroke-width="1.1739"/>
 <path d="m35.064 33.52c0.0587-0.35217 0.09391-0.70435 0.09391-1.0683 0-2.6883-1.7491-4.9774-4.1674-5.7874-2.6883 0.8687-5.0713 2.207-7.2665 3.9796-0.22304 0.17609-0.43435 0.34044-0.63391 0.46957-0.09391 0.43435-0.15261 0.88043-0.15261 1.3383 0 1.3852 0.45783 2.6648 1.2326 3.6861 2.7 1.0448 7.5835 0.42261 10.894-2.6178zm-6.0104-2.5943c0.84522 0 1.5261 0.68087 1.5261 1.5261 0 0.84522-0.68087 1.5261-1.5261 1.5261-0.84522 0-1.5261-0.68087-1.5261-1.5261 0-0.84522 0.69261-1.5261 1.5261-1.5261z" fill="#94c94a" stroke-width="1.1739"/>
</svg>
