<?xml version="1.0" encoding="UTF-8"?>
<svg id="svg1" width="64" height="64" version="1.1" viewBox="0 0 16.933 16.933" xml:space="preserve" xmlns="http://www.w3.org/2000/svg"><rect id="rect1" x="1.323" y="1.323" width="14.287" height="14.287" rx="7.144" ry="7.144" fill="#1a1a1a"/><path id="path2" d="m1.6549 10.602c0.74257 1.8559 4.0646 4.0913 6.5633-0.75848l2.03 0.30994 0.82717 1.8936c-3.6985 2.2965-9.1998 4.085-9.593-2.0632z" fill="#a80"/><path id="path1" d="m11.635 12.698a0.53 0.53 0 0 0 0.481-0.296l1.081-2.188 2.414-0.351a0.53 0.53 0 0 0 0.293-0.905l-1.748-1.702 0.412-2.405a0.53 0.53 0 0 0-0.768-0.558l-2.16 1.136-2.16-1.135a0.53 0.53 0 0 0-0.769 0.56l0.414 2.403-1.748 1.704a0.53 0.53 0 0 0 0.294 0.904l2.415 0.35 1.08 2.188a0.53 0.53 0 0 0 0.469 0.295" color="#000000" fill="#fd5" style="font-feature-settings:normal;font-variant-alternates:normal;font-variant-caps:normal;font-variant-ligatures:normal;font-variant-numeric:normal;font-variant-position:normal;isolation:auto;mix-blend-mode:normal;shape-padding:0;text-decoration-color:#000000;text-decoration-line:none;text-decoration-style:solid;text-indent:0;text-orientation:mixed;text-transform:none;white-space:normal"/></svg>
