<svg width="64" height="64" style="isolation:isolate" version="1.1" viewBox="0 0 64 64" xmlns="http://www.w3.org/2000/svg">
 <g transform="matrix(1.0385 0 0 1.0385 -1.2308 -1.2308)">
  <rect x="6" y="6" width="52" height="52" rx="26" ry="26" fill="#f35852" stroke-width="0" style="paint-order:stroke fill markers"/>
  <path d="m37.812 14.514c-0.28212-0.0011-0.56525 0.06009-0.78125 0.18359l-19.232 11.014c-0.527 0.302-1.3822 0.30105-1.9082-2e-3l-7.6113-4.3847c-0.56012 1.2482-1.0266 2.5478-1.3867 3.8926l8.8281 5.1309c0.62 0.36 1.628 0.36095 2.25 2e-3l22.428-12.94c0.789-0.455 0.79091-1.1963 0.0039-1.6543l-1.8125-1.0527c-0.2145-0.125-0.49522-0.18833-0.77734-0.18945zm0 9.4043c-0.28212-1e-3 -0.56525 0.06009-0.78125 0.18359l-19.232 11.014c-0.527 0.302-1.3822 0.30105-1.9082-2e-3l-9.7695-5.6289c-0.078795 0.8278-0.12109 1.6665-0.12109 2.5156 0 0.72695 0.035807 1.4447 0.09375 2.1562l9.627 5.5957c0.62 0.36 1.628 0.36095 2.25 2e-3l22.428-12.94c0.789-0.455 0.79091-1.1963 0.0039-1.6543l-1.8125-1.0547c-0.2145-0.1245-0.49522-0.1865-0.77734-0.1875zm0 9.375c-0.28212-1e-3 -0.56525 0.06009-0.78125 0.18359l-19.232 11.014c-0.527 0.302-1.3822 0.30105-1.9082-2e-3l-8.8223-5.0839c0.66632 2.2611 1.6288 4.3917 2.8457 6.3477l5.8066 3.375c0.62 0.36 1.628 0.36095 2.25 2e-3l22.428-12.94c0.789-0.455 0.79091-1.1963 0.0039-1.6543l-1.8125-1.0547c-0.2145-0.1245-0.49522-0.1865-0.77734-0.1875z" fill="#ffffff"/>
 </g>
</svg>
