<?xml version="1.0" encoding="UTF-8"?>
<svg width="64" height="64" version="1.1" viewBox="0 0 64 64" xmlns="http://www.w3.org/2000/svg">
 <g transform="matrix(1.1739 0 0 1.1739 3.8261 3.8261)">
  <circle cx="24" cy="24" r="23" fill="#9ad1ea"/>
  <path d="m20 21-3 1c-1 3-2.11 4.93-6 7 4.83 0 6-1 8-4zm6 0 1 4c2 3 3.17 4 8 4-3.89-2.07-5-4-6-7z" fill="#f4f4e1"/>
  <path d="m13 12c-1.11 0-2 0.892-2 2v3c0.0574 3.05 2.27 5 5 5h3v7c0 5 4 9 8 9 3 0 4.5-2 5.5-2 0.5 4.12e-4 0.7 1 1.5 1 0.5-2.57e-4 1-0.2 1-1 0-0.5-1-0.949-1-1.2 0-1 0-1.8-1-1.8-1 4.12e-4 0 2-2 2-2.5 0-4-1.83-4-5v-8h6c1.11 0 2-0.892 2-2v-3c0.065-3.01-2.27-5-5-5z" fill="#545454"/>
  <path d="m19 15c-0.5 0-1.01 0.395-1 1.5 0.0076 1.32 1.17 2.5 2 2.5 0.5 0 1-0.395 1-1.5 0-1.5-1.17-2.5-2-2.5zm8 0c-0.828 3e-6 -2 1-2 2.5 0 1.1 0.5 1.5 1 1.5 0.828 0 1.99-1.18 2-2.5 6e-3 -1.1-0.5-1.5-1-1.5z" fill="#f6f6ee"/>
 </g>
</svg>
