<svg xmlns="http://www.w3.org/2000/svg" width="64" height="64"><g transform="translate(3.826 3.826)scale(1.1739)"><circle cx="24" cy="24" r="23" fill="#9ad1ea"/><path fill="#f4f4e1" d="m20 21-3 1c-1 3-2.11 4.93-6 7 4.83 0 6-1 8-4zm6 0 1 4c2 3 3.17 4 8 4-3.89-2.07-5-4-6-7z"/><path fill="#545454" d="M13 12c-1.11 0-2 .892-2 2v3c.057 3.05 2.27 5 5 5h3v7c0 5 4 9 8 9 3 0 4.5-2 5.5-2 .5 0 .7 1 1.5 1 .5 0 1-.2 1-1 0-.5-1-.949-1-1.2 0-1 0-1.8-1-1.8s0 2-2 2c-2.5 0-4-1.83-4-5v-8h6c1.11 0 2-.892 2-2v-3c.065-3.01-2.27-5-5-5z"/><path fill="#f6f6ee" d="M19 15c-.5 0-1.01.395-1 1.5.008 1.32 1.17 2.5 2 2.5.5 0 1-.395 1-1.5 0-1.5-1.17-2.5-2-2.5m8 0c-.828 0-2 1-2 2.5 0 1.1.5 1.5 1 1.5.828 0 1.99-1.18 2-2.5.006-1.1-.5-1.5-1-1.5"/></g></svg>