<svg xmlns="http://www.w3.org/2000/svg" width="64" height="64"><rect width="54" height="54" x="5" y="5" fill="#222" fill-opacity=".996" rx="27" ry="27"/><path fill="#46aef6" d="M41.011 36.064c4.91-7.649 8.947-13.962 8.97-14.03.03-.093-16.49-7.543-17.751-8.005-.153-.055-3.176 1.225-9.216 3.903-4.943 2.191-8.99 4.023-8.991 4.07-.002.046 1.803 2.887 4.01 6.312s6.244 9.7 8.97 13.944 4.982 7.715 5.017 7.714c.034 0 4.08-6.26 8.99-13.908z"/><path fill="#3989bd" d="M22.991 36.036c-4.887-7.603-8.838-13.804-8.779-13.781.06.022 4.08 1.808 8.935 3.967l8.828 3.927v9.854c0 5.42-.022 9.855-.049 9.855s-4.048-6.22-8.935-13.822z"/><path fill="#296389" d="M31.971 40.088V30.15l17.947-7.98-.455.687c-.25.378-4.268 6.622-8.927 13.875s-8.493 13.21-8.518 13.24-.047-4.42-.047-9.885z"/></svg>