<svg width="64" height="64" version="1.1" viewBox="0 0 16.933 16.933" xmlns="http://www.w3.org/2000/svg">
 <path transform="scale(.26458)" d="m9.5684 16.996a27 27 0 0 0-4.5684 15.004 27 27 0 0 0 27 27 27 27 0 0 0 27-27 27 27 0 0 0-4.5781-15.004h-44.854z" fill="#74c9d0" stroke-width="3.7796" style="paint-order:stroke fill markers"/>
 <g transform="translate(0 -.79411)" stroke-width="3.7796" style="paint-order:stroke markers fill">
  <path transform="matrix(.26458 0 0 .26458 0 .79411)" d="m32 5a27 27 0 0 0-8.5957 1.4355 27 27 0 0 1 2.5723-0.7207l3.5234 5.2832-3.998 5.998h12.5l4-5.998-3.4355-5.1504a27 27 0 0 0-6.5664-0.84766zm6.6074 0.85742a27 27 0 0 1 10.371 5.1758l-3.9766 5.9629h9.4199a27 27 0 0 0-15.814-11.139zm-15.311 0.61719a27 27 0 0 0-2.3496 0.92188 27 27 0 0 1 2.3496-0.92188zm-2.9902 1.2324a27 27 0 0 0-10.738 9.2891h8.9355l3.9961-5.998-2.1934-3.291z" fill="#333" stroke-width="3.7796"/>
  <path transform="matrix(.26458 0 0 .26458 0 .79411)" d="m25.977 5.7148a27 27 0 0 0-5.6797 1.9785l2.2031 3.3047-3.998 6.002h6.998l4-6.002-3.5234-5.2832zm12.588 0.13086 3.4375 5.1523-4.002 6.002h7l3.9785-5.9668a27 27 0 0 0-10.414-5.1875z" fill="#fff"/>
 </g>
</svg>
