<svg xmlns="http://www.w3.org/2000/svg" width="64" height="64" fill="none" viewBox="0 0 64 64"><circle cx="32" cy="32" r="27" style="fill:#000;stroke-width:1.01114;stroke-linecap:round;stroke-linejoin:round"/><path fill="#fff" d="M38.238 26.944a3.852 3.852 0 1 1-7.703 0 3.852 3.852 0 0 1 7.703 0m-9.55-2.675a1 1 0 0 0-1-1H14.283a1 1 0 0 0-1 1v5.704a1 1 0 0 0 1 1h5.703a1 1 0 0 1 1 1v9.299a1 1 0 0 0 1 1h5.704a1 1 0 0 0 1-1zm13.25-.387a1 1 0 0 1 .922-.613h6.666a1 1 0 0 1 .923 1.387l-7.123 17.002a1 1 0 0 1-.922.614h-6.69a1 1 0 0 1-.921-1.388z"/></svg>