<svg width="64" height="64" version="1.1" viewBox="0 0 64 64" xmlns="http://www.w3.org/2000/svg">
 <g transform="matrix(1.0385 0 0 1.0385 -1.2308 -1.2308)">
  <rect x="6" y="6" width="52" height="52" rx="26" ry="26" fill="#e2434b" stroke-width="0" style="paint-order:stroke fill markers"/>
  <path d="m36.008 24.191c0.06731 0.01106 3.6867 0.61237 3.6758 2.1211 0 0.0548 0.0011 0.09949-0.0098 0.1543-0.2172 1.3599-3.9332 1.5632-6.5098 1.7051-0.537 0.0295-1.0238 0.0578-1.4199 0.0918-0.3341 0.0286-0.75112 0.04962-1.2246 0.07422h-0.0039c-2.7819 0.1448-7.5119 0.39106-8.8574 2.7402-0.0765 0.1424-0.11914 0.28452-0.11914 0.41602-0.0045 1.0303 2.1976 1.9252 4.8457 3 3.8001 1.5423 8.5187 3.4573 8.957 6.6855 0.0219 0.1753 0.0332 0.36181 0.0332 0.53711-0.0085 4.2928-7.1364 8.2103-17.025 12.436 3.9631 2.44 8.6359 3.8477 13.65 3.8477 10.585 0 19.646-6.2673 23.711-15.305-1.3444-1.7178-3.0703-3.2345-5.3086-4.3965-4.965-2.5851-11.5-3.9849-16.379-5.0293-3.8056-0.8146-6.6045-1.4137-6.8633-2.1914-0.0219-0.0767-0.0332-0.15305-0.0332-0.21875 0.0109-1.2161 3.784-1.5006 6.2559-1.6211 2.6141-0.1314 6.5754-0.48278 7.0566-2.3672 0.0148-0.0592 0.0245-0.11854 0.0293-0.17774 0.0023-0.0284 2e-3 -0.05558 2e-3 -0.08398 0.01091-1.7384-4.3895-2.4069-4.4629-2.418z" fill="#ffffff"/>
 </g>
</svg>
