<?xml version="1.0" encoding="UTF-8"?>
<svg width="64" height="64" version="1.1" xmlns="http://www.w3.org/2000/svg">
 <circle cx="32" cy="32" r="27" fill="#f0f0f0" stroke-width="3.7796" style="paint-order:stroke fill markers"/>
 <path d="m23 10c-1.662 0-3 1.338-3 3v13h24v-13c0-1.662-1.338-3-3-3h-18z" fill="#b7b7b7"/>
 <path d="m16 26c-1.662 0-3 1.338-3 3v8c0 10.526 8.474 19 19 19s19-8.474 19-19v-8c0-1.662-1.338-3-3-3h-32z" fill="#4d4d4d"/>
 <rect x="21" y="42" width="22" height="2" rx="1" ry="1" opacity=".4" stroke-width=".5863"/>
 <rect x="23" y="46" width="18" height="2" rx="1" ry="1" opacity=".4" stroke-width=".61237"/>
 <rect x="25" y="50" width="14" height="2" rx="1" ry="1" opacity=".4" stroke-width=".66144"/>
 <path d="m23 14h7v3h-7z" opacity=".35" stroke-width=".59161"/>
 <path d="m34 14h7v3h-7z" opacity=".35" stroke-width=".59161"/>
 <path d="m34.065 31-1.8036 1.8036-4.3564 0.7965 1.7793 1.7793-1.6956 1.6956 2.025 2.025 1.6956-1.6956 1.6942 1.6956 0.83565-4.2255 1.8495-1.8495z" fill="#f0f0f0" fill-rule="evenodd" opacity=".2"/>
 <path d="m25 14h3v3h-3z" fill="#fb5" stroke-width=".3873"/>
 <path d="m36 14h3v3h-3z" fill="#fb5" stroke-width=".3873"/>
</svg>
