<svg width="64" height="64" xmlns="http://www.w3.org/2000/svg"><circle cx="32" cy="32" r="27" fill="#f0f0f0" style="paint-order:stroke fill markers"/><path d="M23 10c-1.662 0-3 1.338-3 3v13h24V13c0-1.662-1.338-3-3-3H23z" fill="#b7b7b7"/><path d="M16 26c-1.662 0-3 1.338-3 3v8c0 10.526 8.474 19 19 19s19-8.474 19-19v-8c0-1.662-1.338-3-3-3H16z" fill="#4d4d4d"/><rect x="21" y="42" width="22" height="2" rx="1" ry="1" opacity=".4"/><rect x="23" y="46" width="18" height="2" rx="1" ry="1" opacity=".4"/><rect x="25" y="50" width="14" height="2" rx="1" ry="1" opacity=".4"/><path d="M23 14h7v3h-7zm11 0h7v3h-7z" opacity=".35"/><path d="m34.065 31-1.804 1.804-4.356.796 1.78 1.78-1.696 1.695 2.025 2.025 1.695-1.696 1.694 1.696.836-4.226 1.85-1.849z" fill="#f0f0f0" fill-rule="evenodd" opacity=".2"/><path d="M25 14h3v3h-3zm11 0h3v3h-3z" fill="#fb5"/></svg>