<svg width="64" height="64" version="1.1" xmlns="http://www.w3.org/2000/svg">
 <rect x="5" y="5" width="54" height="54" rx="27" ry="27" fill="#e4e4e4" stroke-width=".96428"/>
 <g transform="matrix(.79167 0 0 .79167 7.8808 7.1831)">
  <path transform="matrix(1.2632 0 0 1.2632 -9.9547 -9.0734)" d="m30.654 13-15.438 8.8672 16.861 9.7363 16.705-9.7363-15.279-8.8672v6.8086l6.0176 3.4824c0.2375 0.07917 0.2375 0.47643 0 0.63476l-7.125 4.1152c-0.2375 0.07917-0.47643 0.07917-0.63476 0l-7.125-4.1152c-0.2375-0.07917-0.2375-0.47643 0-0.63476l6.0176-3.4824zm18.129 8.8672-16.705 9.7383-16.861-9.7383v17.654l5.8574-3.4043v-6.8867c0-0.2375 0.31628-0.39753 0.47461-0.31836l7.127 4.1172c0.2375 0.07917 0.31641 0.31614 0.31641 0.63281v8.2344c0.15833 0.2375-0.15898 0.39557-0.39648 0.31641l-6.0176-3.4824-5.8574 3.4023 15.357 8.8672 15.279-8.8672-5.8574-3.4023-6.0176 3.5625c-0.2375 0.15833-0.47461-0.08086-0.47461-0.31836v-8.2324c0-0.2375 0.15807-0.47448 0.31641-0.63281l7.125-4.1172c0.2375-0.15833 0.47656 0.07891 0.47656 0.31641v6.8867l5.8574 3.4043z" fill="#333333" stroke-width=".79167"/>
  <path class="st1" d="m26.166 44.248-7.6-4.4-7.4 4.3 19.4 11.2 1e-6 -24.5-21.3-12.3v22.3-0.1 0.1l7.4-4.3v-8.7c0-0.3 0.4-0.5 0.6-0.4l9 5.2c0.3 0.1 0.4 0.4 0.4 0.8v10.4c0.2 0.3-0.2 0.5-0.5 0.4z" fill="#ffffff" opacity=".1"/>
  <path class="st0" d="m32.366 7.3477v8.6l7.6 4.4c0.3 0.1 0.3 0.6 0 0.8l-9 5.2c-0.3 0.1-0.6 0.1-0.8 0l-9-5.2c-0.3-0.1-0.3-0.6 0-0.8l7.6-4.4v-8.6l-19.5 11.2 21.3 12.3 21.1-12.3z" fill="#ffffff" opacity=".2"/>
 </g>
</svg>
