<?xml version="1.0" encoding="UTF-8" standalone="no"?>
<svg
   width="64"
   height="64"
   version="1.1"
   id="svg6"
   sodipodi:docname="unity-editor-icon.svg"
   inkscape:version="1.1.1 (3bf5ae0d25, 2021-09-20)"
   xmlns:inkscape="http://www.inkscape.org/namespaces/inkscape"
   xmlns:sodipodi="http://sodipodi.sourceforge.net/DTD/sodipodi-0.dtd"
   xmlns="http://www.w3.org/2000/svg"
   xmlns:svg="http://www.w3.org/2000/svg">
  <defs
     id="defs10" />
  <sodipodi:namedview
     id="namedview8"
     pagecolor="#ffffff"
     bordercolor="#666666"
     borderopacity="1.0"
     inkscape:pageshadow="2"
     inkscape:pageopacity="0.0"
     inkscape:pagecheckerboard="0"
     showgrid="false"
     inkscape:zoom="5.12"
     inkscape:cx="0.48828125"
     inkscape:cy="48.632813"
     inkscape:window-width="1920"
     inkscape:window-height="1000"
     inkscape:window-x="0"
     inkscape:window-y="44"
     inkscape:window-maximized="1"
     inkscape:current-layer="svg6" />
  <rect
     x="5"
     y="5"
     width="54"
     height="54"
     rx="27"
     ry="27"
     fill="#e4e4e4"
     stroke-width=".96428"
     id="rect2"
     style="fill:#4c5969;fill-opacity:1" />
  <path
     style="fill:#ffffff;fill-opacity:1;stroke-width:0.0260512"
     d="m 32.100654,50.960412 c 0.05198,-0.02441 0.221493,-0.111081 0.376717,-0.192666 0.430333,-0.226196 0.684774,-0.357507 0.82351,-0.424995 0.05266,-0.02555 0.134365,-0.07175 0.181657,-0.102471 0.04727,-0.0308 0.09407,-0.05591 0.103944,-0.05591 0.01653,0 0.387826,-0.197767 0.801007,-0.426675 0.09474,-0.0525 0.187596,-0.09539 0.206418,-0.09539 0.01883,0 0.06063,-0.0224 0.09282,-0.0497 0.03219,-0.0273 0.076,-0.0497 0.09735,-0.0497 0.02133,0 0.0515,-0.014 0.06716,-0.03115 0.01566,-0.01715 0.108922,-0.06877 0.20736,-0.114738 0.09843,-0.04594 0.193091,-0.09909 0.210338,-0.118011 0.0172,-0.01899 0.05256,-0.03439 0.07841,-0.03439 0.02585,0 0.06928,-0.0224 0.09644,-0.0497 0.02719,-0.02739 0.06601,-0.0497 0.08638,-0.0497 0.02037,0 0.09522,-0.03684 0.166389,-0.0819 0.0712,-0.04506 0.196954,-0.113601 0.279538,-0.152302 0.08254,-0.03868 0.182753,-0.09135 0.222608,-0.116961 0.03987,-0.02564 0.0809,-0.04655 0.09138,-0.04655 0.01038,0 0.05323,-0.02231 0.09522,-0.04953 0.08033,-0.05206 0.654613,-0.358705 0.88755,-0.473881 0.20614,-0.101937 0.537333,-0.274268 0.614229,-0.31961 0.03757,-0.02214 0.105107,-0.05679 0.150151,-0.07691 0.04506,-0.02021 0.143319,-0.07149 0.21839,-0.113968 0.07504,-0.04252 0.191775,-0.10535 0.259341,-0.139667 0.06755,-0.0343 0.167235,-0.08531 0.221484,-0.113295 0.05419,-0.028 0.127956,-0.06598 0.163795,-0.08435 0.03584,-0.01837 0.08359,-0.04629 0.106106,-0.06213 0.02248,-0.01584 0.116262,-0.06335 0.208311,-0.105743 0.09205,-0.04235 0.182608,-0.09377 0.201258,-0.11424 0.01864,-0.02047 0.05621,-0.03719 0.08359,-0.03719 0.02729,0 0.05621,-0.0096 0.06418,-0.02135 0.02037,-0.03001 0.494171,-0.276954 0.531394,-0.276954 0.01681,0 0.03065,-0.009 0.03065,-0.02013 0,-0.01103 0.07677,-0.0574 0.170617,-0.103049 0.09388,-0.04559 0.219755,-0.112612 0.279817,-0.148863 0.06005,-0.03623 0.189046,-0.103337 0.286639,-0.149082 0.0976,-0.04576 0.195877,-0.09705 0.218399,-0.11403 0.02248,-0.01698 0.09013,-0.05521 0.150142,-0.08505 0.06005,-0.02984 0.158337,-0.0798 0.2184,-0.111151 0.06005,-0.03132 0.170616,-0.08802 0.245697,-0.125955 0.07504,-0.03798 0.154917,-0.08321 0.177439,-0.100581 0.02248,-0.01732 0.08398,-0.04926 0.136497,-0.07088 0.05256,-0.02161 0.134662,-0.06011 0.182483,-0.08549 0.453096,-0.24072 1.152494,-0.610057 1.196135,-0.631652 0.02998,-0.01487 0.06812,-0.03369 0.08465,-0.04174 0.01653,-0.0079 0.07821,-0.04401 0.136997,-0.0798 0.0588,-0.03579 0.176882,-0.09902 0.262349,-0.140551 0.08552,-0.04156 0.191563,-0.09897 0.235762,-0.127636 0.0442,-0.0287 0.08638,-0.05215 0.09368,-0.05215 0.0077,0 0.165141,-0.08024 0.350679,-0.17822 0.18553,-0.09802 0.423319,-0.222634 0.528426,-0.276919 0.105097,-0.05425 0.24023,-0.124967 0.300292,-0.15708 0.06005,-0.03211 0.139909,-0.07184 0.177439,-0.08837 0.03757,-0.01645 0.08667,-0.04349 0.1092,-0.06011 0.02248,-0.01654 0.114657,-0.06536 0.204746,-0.108421 0.09013,-0.04305 0.225212,-0.112586 0.300292,-0.15449 0.07504,-0.04191 0.195138,-0.105629 0.266817,-0.141592 0.07168,-0.03596 0.172164,-0.08777 0.223319,-0.115123 0.05112,-0.0273 0.29349,-0.155347 0.538514,-0.284444 0.245035,-0.129106 0.491107,-0.261765 0.546845,-0.294796 0.112803,-0.06685 0.226817,-0.125903 0.390055,-0.202028 0.06005,-0.028 0.133759,-0.06492 0.163795,-0.08199 0.02998,-0.01706 0.116021,-0.06615 0.191092,-0.108903 0.07504,-0.04279 0.164141,-0.08566 0.197915,-0.0952 0.06678,-0.0189 0.08215,-0.09278 0.02729,-0.131486 -0.01874,-0.01321 -0.126053,-0.06772 -0.238395,-0.121126 -0.112352,-0.05338 -0.228306,-0.116611 -0.25767,-0.140542 -0.0294,-0.02389 -0.07033,-0.04349 -0.09109,-0.04349 -0.02075,0 -0.08907,-0.03159 -0.151822,-0.07026 -0.06274,-0.03868 -0.230814,-0.130016 -0.373451,-0.203052 -0.142647,-0.07306 -0.29006,-0.15197 -0.32759,-0.17542 -0.06005,-0.03754 -0.139111,-0.08006 -0.341244,-0.183697 -0.232341,-0.119087 -0.509602,-0.274014 -0.521344,-0.291304 -0.0077,-0.01155 -0.03613,-0.021 -0.06293,-0.021 -0.02681,0 -0.07101,-0.0224 -0.09817,-0.0497 -0.02719,-0.0273 -0.07139,-0.0497 -0.09816,-0.0497 -0.02681,0 -0.05544,-0.0098 -0.06361,-0.02179 -0.01518,-0.0224 -0.494633,-0.27649 -0.521671,-0.27649 -0.0086,0 -0.04141,-0.0224 -0.0736,-0.0497 -0.03219,-0.0273 -0.07591,-0.0497 -0.09702,-0.0497 -0.02114,0 -0.07101,-0.02082 -0.110871,-0.04637 -0.06515,-0.04165 -0.246082,-0.137681 -0.604794,-0.320993 -0.06755,-0.03456 -0.152149,-0.08347 -0.18796,-0.108753 -0.03584,-0.02529 -0.07764,-0.04594 -0.09291,-0.04594 -0.01537,0 -0.06812,-0.028 -0.117348,-0.06212 -0.04919,-0.03421 -0.104684,-0.06212 -0.123276,-0.06212 -0.01854,0 -0.05323,-0.01531 -0.07687,-0.03404 -0.02373,-0.01872 -0.10452,-0.06536 -0.179591,-0.103626 -0.07504,-0.03824 -0.181071,-0.09285 -0.23556,-0.121309 -0.397059,-0.207445 -0.533326,-0.277943 -0.569377,-0.29456 -0.02277,-0.0105 -0.09662,-0.05136 -0.164189,-0.09077 -0.06755,-0.03946 -0.216449,-0.117092 -0.330857,-0.172567 l -0.208022,-0.10087 -0.100351,0.04655 c -0.05515,0.02564 -0.115137,0.05757 -0.133221,0.07105 -0.01806,0.01347 -0.108181,0.05915 -0.20023,0.101631 -0.09205,0.04244 -0.182618,0.0939 -0.201268,0.114362 -0.01864,0.02047 -0.04958,0.03719 -0.0688,0.03719 -0.01912,0 -0.09678,0.03631 -0.172442,0.08076 -0.07571,0.04445 -0.190536,0.110608 -0.255258,0.147043 -0.162075,0.09124 -0.980646,0.517973 -0.993589,0.517973 -0.0058,0 -0.07514,0.03631 -0.154235,0.08067 -0.158347,0.08886 -0.214027,0.117644 -0.454968,0.235191 -0.249003,0.121476 -0.284948,0.140778 -0.343944,0.184703 -0.02998,0.0224 -0.08532,0.04883 -0.122844,0.05889 -0.03757,0.01006 -0.08667,0.03176 -0.1092,0.0483 -0.02248,0.01654 -0.163795,0.09633 -0.313936,0.177292 -0.150151,0.08094 -0.297563,0.160755 -0.32759,0.17731 -0.03007,0.01654 -0.08532,0.04401 -0.122853,0.06107 -0.03757,0.01706 -0.117665,0.06099 -0.178064,0.09773 -0.06044,0.03666 -0.152534,0.08496 -0.204746,0.10717 -0.111477,0.04751 -0.252951,0.120566 -0.27237,0.140726 -0.01201,0.01243 -0.110228,0.06353 -0.423146,0.220167 -0.04506,0.02257 -0.116781,0.06213 -0.159423,0.08788 -0.09022,0.0546 -0.137314,0.07962 -0.483852,0.257406 -0.141676,0.07271 -0.312879,0.163756 -0.380446,0.202396 -0.327984,0.187547 -0.434657,0.224822 -0.643381,0.224822 -0.196454,0 -0.199961,-8.75e-4 -0.282805,-0.09268 l -0.08388,-0.09267 v -4.329103 c 0,-4.108587 0.0029,-4.332114 0.04852,-4.388376 0.02671,-0.03264 0.06649,-0.09153 0.0884,-0.130935 0.05054,-0.09073 0.121028,-0.13747 0.51825,-0.343847 0.112611,-0.05854 0.225347,-0.117609 0.25053,-0.131338 0.02517,-0.01374 0.129599,-0.0686 0.232044,-0.121965 0.102436,-0.05337 0.216968,-0.116366 0.254508,-0.140035 0.03757,-0.02363 0.114312,-0.06668 0.170617,-0.09566 0.249224,-0.128125 0.29668,-0.153334 0.492019,-0.261318 0.113668,-0.06282 0.235272,-0.125273 0.270228,-0.138757 0.03497,-0.01347 0.124977,-0.05836 0.200057,-0.09978 0.13939,-0.07691 0.229632,-0.123331 0.582953,-0.300195 0.11042,-0.0553 0.298736,-0.155828 0.418476,-0.223457 0.119741,-0.06764 0.233255,-0.122963 0.25227,-0.122963 0.01902,0 0.05679,-0.0224 0.08398,-0.0497 0.02719,-0.0273 0.06591,-0.0497 0.08609,-0.0497 0.02018,0 0.09503,-0.0378 0.166389,-0.084 0.07139,-0.0462 0.155753,-0.09124 0.187557,-0.100074 0.0318,-0.0088 0.07975,-0.03815 0.106605,-0.06519 0.02681,-0.02704 0.06467,-0.04909 0.08407,-0.04909 0.01941,0 0.08821,-0.03176 0.152745,-0.07061 0.06457,-0.03885 0.415018,-0.226204 0.778783,-0.416411 0.363766,-0.190199 0.732307,-0.383512 0.818975,-0.42958 0.351803,-0.186979 0.554685,-0.292407 0.721968,-0.375182 0.118655,-0.05871 0.804303,-0.421714 0.896131,-0.47445 0.02248,-0.01295 0.129637,-0.06834 0.238029,-0.123068 0.338919,-0.171185 0.575238,-0.129649 0.718644,0.126332 0.05227,0.09327 0.05342,0.170327 0.05342,3.566779 v 3.471448 l 0.07792,0.06589 c 0.0686,0.05801 0.205169,0.133209 0.685514,0.377439 0.06803,0.03465 0.225904,0.118509 0.350746,0.186453 0.124842,0.0679 0.269872,0.143491 0.322286,0.167877 0.05246,0.02441 0.145597,0.07753 0.207071,0.118089 0.06149,0.0406 0.126447,0.07376 0.144396,0.07376 0.01797,0 0.05486,0.0224 0.08206,0.0497 0.02719,0.0273 0.06899,0.04996 0.09291,0.05031 0.02392,2.01e-4 0.07427,0.0224 0.111794,0.04917 0.03757,0.02678 0.07696,0.04883 0.08763,0.04917 0.01066,2.01e-4 0.09665,0.04515 0.191092,0.09976 0.09445,0.0546 0.185174,0.09931 0.201614,0.09943 0.01643,1.31e-4 0.05217,0.02258 0.07927,0.04996 0.02719,0.0273 0.06707,0.0497 0.08878,0.0497 0.02162,0 0.07197,0.02083 0.111795,0.04637 0.08004,0.05119 0.405514,0.221541 0.831936,0.435451 0.06486,0.03255 0.201258,0.105263 0.303089,0.161595 0.10182,0.05635 0.191006,0.102427 0.198183,0.102427 0.0067,0 0.07658,0.03649 0.154187,0.08111 0.07764,0.04462 0.165687,0.09516 0.195723,0.112367 0.02998,0.01724 0.09759,0.04891 0.150142,0.07053 0.05256,0.02161 0.113975,0.05346 0.136497,0.07087 0.02248,0.01741 0.09623,0.05959 0.163795,0.09379 0.06755,0.03421 0.328676,0.172699 0.580253,0.307763 0.251568,0.135056 0.491116,0.261353 0.532336,0.280647 0.1259,0.05897 0.133173,0.06282 0.209003,0.111553 0.04727,0.03036 0.08292,0.03868 0.09986,0.02319 0.01691,-0.0154 0.02623,-3.200304 0.02594,-8.845124 -4.42e-4,-7.02617 -0.0077,-8.828735 -0.03459,-8.858625 -0.01874,-0.02065 -0.07716,-0.05373 -0.129714,-0.07341 -0.05256,-0.01977 -0.114917,-0.05154 -0.138592,-0.0707 -0.02364,-0.01908 -0.09737,-0.06072 -0.163795,-0.09249 -0.102051,-0.04874 -0.85983,-0.449189 -1.194117,-0.63097 -0.05525,-0.0301 -0.127485,-0.06589 -0.160451,-0.07963 -0.03296,-0.01374 -0.121902,-0.06466 -0.197636,-0.113146 -0.07571,-0.04847 -0.15435,-0.08814 -0.1747,-0.08814 -0.02037,0 -0.05919,-0.0224 -0.08638,-0.0497 -0.02719,-0.0273 -0.06899,-0.04996 -0.09291,-0.05031 -0.02393,-2.1e-4 -0.07427,-0.0224 -0.111794,-0.04917 -0.03757,-0.02678 -0.07696,-0.04883 -0.08763,-0.04918 -0.01067,-2.01e-4 -0.09665,-0.04515 -0.191102,-0.09976 -0.09445,-0.0546 -0.186048,-0.0993 -0.203564,-0.09943 -0.01749,-1.23e-4 -0.03594,-0.01 -0.04093,-0.02188 -0.0048,-0.0119 -0.05823,-0.04393 -0.11829,-0.07114 -0.06005,-0.02721 -0.219764,-0.108491 -0.354897,-0.180652 -0.135133,-0.07219 -0.300974,-0.159197 -0.368541,-0.193392 -0.06755,-0.03421 -0.178121,-0.09057 -0.245687,-0.12529 -0.06755,-0.03474 -0.161211,-0.08155 -0.2081,-0.104108 -0.04689,-0.02257 -0.119183,-0.06527 -0.160653,-0.095 -0.04151,-0.02975 -0.08619,-0.05399 -0.09944,-0.05399 -0.01326,0 -0.0883,-0.03675 -0.166937,-0.08164 -0.0786,-0.04489 -0.167475,-0.09458 -0.197502,-0.110398 -0.112601,-0.05932 -0.766013,-0.407985 -0.805331,-0.42972 -0.02248,-0.01243 -0.176084,-0.09239 -0.341243,-0.177642 -0.165159,-0.08522 -0.329589,-0.17521 -0.36539,-0.199876 -0.03584,-0.02468 -0.08129,-0.04489 -0.101013,-0.04489 -0.0197,0 -0.09051,-0.0336 -0.157242,-0.07455 -0.06678,-0.04104 -0.129954,-0.07455 -0.140475,-0.07455 -0.01047,0 -0.05717,-0.02468 -0.103771,-0.05486 -0.0466,-0.03019 -0.122162,-0.07306 -0.168013,-0.09521 -0.169388,-0.0819 -0.41177,-0.205659 -0.438251,-0.223746 -0.04881,-0.03334 -0.701521,-0.371961 -0.716943,-0.371961 -0.0086,0 -0.05525,-0.028 -0.104462,-0.06212 -0.0492,-0.03421 -0.09709,-0.06212 -0.106395,-0.06212 -0.0096,0 -0.133951,-0.06151 -0.276982,-0.136736 -0.143031,-0.07516 -0.269862,-0.136727 -0.281854,-0.136727 -0.01201,0 -0.03863,-0.01855 -0.05928,-0.04112 -0.02066,-0.02266 -0.07437,-0.05653 -0.119365,-0.07534 -0.04506,-0.01881 -0.1249,-0.05793 -0.177449,-0.08698 -0.05256,-0.02905 -0.120115,-0.06527 -0.150141,-0.0805 -0.03008,-0.01522 -0.08532,-0.04506 -0.122854,-0.06641 -0.108344,-0.06151 -0.384644,-0.209133 -0.518682,-0.277155 -0.111141,-0.05644 -0.338015,-0.173976 -0.619437,-0.320976 -0.05717,-0.02992 -0.146989,-0.0756 -0.199538,-0.101631 -0.246927,-0.122246 -0.387105,-0.194634 -0.614238,-0.317195 -0.135133,-0.07289 -0.307115,-0.16485 -0.382185,-0.204295 -0.07504,-0.03946 -0.173356,-0.09196 -0.2184,-0.116716 -0.321268,-0.176513 -0.753714,-0.399943 -0.774103,-0.399943 -0.01345,0 -0.03978,-0.01671 -0.05842,-0.03719 -0.01864,-0.02048 -0.109219,-0.07184 -0.201258,-0.11424 -0.09205,-0.04235 -0.185789,-0.09059 -0.208301,-0.107152 -0.02248,-0.01654 -0.07168,-0.04366 -0.1092,-0.06029 -0.03757,-0.01654 -0.117386,-0.05731 -0.177449,-0.09055 -0.06005,-0.03325 -0.138438,-0.07245 -0.174181,-0.08715 -0.03574,-0.0147 -0.103137,-0.05162 -0.149767,-0.08207 -0.09128,-0.05959 -0.110314,-0.06974 -0.358529,-0.190619 -0.09013,-0.04392 -0.272409,-0.137681 -0.405149,-0.208424 -0.13275,-0.0707 -0.306749,-0.162181 -0.386672,-0.203201 -0.553955,-0.284304 -0.810597,-0.419124 -1.145239,-0.601596 -0.20955,-0.114257 -0.396886,-0.202194 -0.416314,-0.195404 -0.05035,0.01759 -0.05064,6.644417 -2.21e-4,6.702158 0.03507,0.04025 0.08206,0.06694 0.517817,0.293982 0.04881,0.02546 0.240519,0.126113 0.426048,0.223746 0.185539,0.09763 0.346653,0.17751 0.358039,0.17751 0.01134,0 0.05467,0.02432 0.0961,0.05399 0.04151,0.02975 0.113763,0.07289 0.160653,0.096 0.106913,0.05267 0.373489,0.192945 0.504519,0.265518 0.05467,0.03027 0.136267,0.07254 0.181311,0.09391 0.04506,0.02135 0.13104,0.06676 0.191093,0.100844 0.06005,0.03412 0.127629,0.06904 0.150151,0.0777 0.02248,0.0087 0.05938,0.0294 0.08186,0.0462 0.02248,0.0168 0.126937,0.07227 0.232043,0.12341 0.105097,0.0511 0.223694,0.114003 0.26355,0.139763 0.03987,0.02573 0.081,0.04681 0.09138,0.04681 0.01038,0 0.05361,0.02249 0.09599,0.05005 0.04247,0.02748 0.142599,0.08172 0.222618,0.120461 0.08004,0.03876 0.194609,0.09643 0.254672,0.128204 0.06005,0.03176 0.152188,0.07927 0.204736,0.105472 0.286015,0.142818 0.732096,0.376416 0.98278,0.514648 0.112611,0.06212 0.238529,0.128773 0.279816,0.148181 0.04132,0.01943 0.07504,0.0434 0.07504,0.0532 0,0.0099 0.03142,0.02511 0.06985,0.03395 0.03843,0.0087 0.128167,0.05329 0.199461,0.09893 0.07129,0.04567 0.155465,0.09045 0.187047,0.09957 0.03161,0.0091 0.07235,0.03299 0.09051,0.05294 0.01826,0.01995 0.05467,0.03631 0.081,0.03631 0.02633,0 0.06342,0.01697 0.08225,0.03762 0.01883,0.02074 0.09714,0.06641 0.173922,0.101518 0.35827,0.163869 0.480912,0.281276 0.480912,0.460388 0,0.06002 -0.02306,0.136999 -0.05506,0.184231 -0.06515,0.09601 -0.120192,0.132055 -0.463607,0.303703 -0.05256,0.02625 -0.156973,0.07998 -0.232044,0.119288 -0.07504,0.03937 -0.193283,0.09995 -0.262685,0.134671 -0.115214,0.05766 -0.490078,0.251352 -0.603083,0.311639 -0.02575,0.01374 -0.213537,0.11445 -0.417352,0.223834 -0.203814,0.109392 -0.40388,0.215669 -0.444601,0.236179 -0.04074,0.02047 -0.08013,0.04366 -0.08772,0.05145 -0.01211,0.0126 -0.179534,0.09943 -0.424597,0.220289 -0.04583,0.02257 -0.12146,0.0658 -0.168013,0.096 -0.0465,0.03019 -0.0908,0.05486 -0.09837,0.05486 -0.0077,0 -0.165351,0.07971 -0.350679,0.177125 -0.185327,0.09742 -0.392235,0.205004 -0.459792,0.239058 -0.114196,0.05757 -0.294431,0.152976 -0.423146,0.224 -0.02998,0.01654 -0.117175,0.05828 -0.193658,0.09271 -0.07648,0.03439 -0.161306,0.08496 -0.188498,0.112323 -0.02719,0.02739 -0.07043,0.04979 -0.09612,0.04979 -0.02565,0 -0.076,0.02039 -0.111794,0.04541 -0.03584,0.02494 -0.132673,0.0798 -0.215258,0.121896 -0.08254,0.04209 -0.196204,0.09999 -0.252509,0.128651 -0.15386,0.07831 -0.259015,0.133901 -0.484563,0.25605 -0.112611,0.06099 -0.260033,0.139046 -0.32759,0.173478 -0.172798,0.08803 -0.595867,0.315532 -0.709785,0.381673 -0.08811,0.05119 -0.295036,0.160064 -0.600585,0.316102 -0.06755,0.03448 -0.226864,0.116917 -0.353993,0.183146 -0.200797,0.104597 -0.255172,0.121633 -0.414153,0.129815 -0.18574,0.0095 -0.184011,0.01 -0.473974,-0.127575 -0.19753,-0.09373 -0.371001,-0.183732 -0.473081,-0.245428 -0.06495,-0.03929 -0.157136,-0.08859 -0.204736,-0.109567 -0.121672,-0.05364 -0.234283,-0.11235 -0.392015,-0.204531 -0.07485,-0.04375 -0.146356,-0.07954 -0.158875,-0.07954 -0.01249,0 -0.04218,-0.01566 -0.06582,-0.03474 -0.02373,-0.01916 -0.09224,-0.05941 -0.152294,-0.08948 -0.09407,-0.04707 -0.270804,-0.140341 -0.683534,-0.360534 -0.05121,-0.0273 -0.151842,-0.07919 -0.223521,-0.115115 -0.07168,-0.03596 -0.191746,-0.100143 -0.266817,-0.142607 -0.07504,-0.04244 -0.167206,-0.09085 -0.204746,-0.107546 -0.03757,-0.01671 -0.117665,-0.06038 -0.178054,-0.09709 -0.06044,-0.03675 -0.152534,-0.08304 -0.204746,-0.102882 -0.05217,-0.01986 -0.111794,-0.0546 -0.132404,-0.07726 -0.02056,-0.02266 -0.05803,-0.04112 -0.08321,-0.04112 -0.02517,0 -0.05746,-0.0105 -0.07178,-0.02345 -0.01422,-0.01286 -0.111919,-0.06694 -0.217026,-0.120102 -0.105106,-0.0532 -0.342896,-0.176855 -0.528425,-0.274881 -0.185529,-0.09802 -0.343338,-0.17821 -0.350679,-0.17821 -0.0077,0 -0.04948,-0.02345 -0.09368,-0.05215 -0.0442,-0.0287 -0.150295,-0.0861 -0.235762,-0.127627 -0.08551,-0.04156 -0.203527,-0.104781 -0.26235,-0.140551 -0.0588,-0.03579 -0.123545,-0.07341 -0.143819,-0.08374 -0.02027,-0.01024 -0.05832,-0.03001 -0.08465,-0.04401 -0.02633,-0.01391 -0.0785,-0.0392 -0.116022,-0.05626 -0.03757,-0.01697 -0.117386,-0.05976 -0.177449,-0.09498 -0.06005,-0.03526 -0.142397,-0.07989 -0.182973,-0.09915 -0.04055,-0.01925 -0.241143,-0.124574 -0.445687,-0.233957 -0.204554,-0.109384 -0.429334,-0.22729 -0.499514,-0.262009 -0.124083,-0.06142 -0.258659,-0.130638 -0.482487,-0.248255 -0.06005,-0.03159 -0.164468,-0.08566 -0.232035,-0.120163 -0.237126,-0.121179 -0.394935,-0.244781 -0.46106,-0.361121 l -0.06524,-0.114729 0.06524,-0.11515 c 0.05919,-0.104492 0.220427,-0.241884 0.324563,-0.276543 0.02248,-0.0079 0.05938,-0.02765 0.08186,-0.0448 0.02248,-0.01715 0.116262,-0.0658 0.208311,-0.108176 0.09205,-0.04235 0.182608,-0.09377 0.201258,-0.114239 0.01864,-0.02048 0.05621,-0.03719 0.08359,-0.03719 0.02729,0 0.05698,-0.01076 0.06591,-0.02398 0.0086,-0.01321 0.140351,-0.0887 0.292001,-0.167807 0.151649,-0.0791 0.320114,-0.168752 0.374354,-0.199211 0.05429,-0.03045 0.153908,-0.08347 0.221474,-0.11787 0.06755,-0.03439 0.184271,-0.0964 0.259341,-0.137856 0.07504,-0.04147 0.154927,-0.0826 0.177439,-0.09141 0.02248,-0.0088 0.09042,-0.04655 0.150766,-0.08374 0.06044,-0.03727 0.152534,-0.08601 0.204746,-0.108368 0.05217,-0.02231 0.156358,-0.07368 0.231429,-0.114126 0.07504,-0.04043 0.185636,-0.09705 0.245698,-0.125877 0.06005,-0.02879 0.166092,-0.08216 0.235647,-0.118527 0.06957,-0.0364 0.223108,-0.11641 0.341234,-0.177879 0.118136,-0.06151 0.234628,-0.123007 0.258861,-0.136736 0.02421,-0.01374 0.09176,-0.0504 0.150151,-0.08155 0.05832,-0.03115 0.149065,-0.08024 0.201623,-0.10927 0.05256,-0.02896 0.163113,-0.08619 0.245688,-0.127146 0.08254,-0.04095 0.16858,-0.0882 0.191102,-0.105 0.05246,-0.03911 0.619475,-0.335386 0.64191,-0.335386 0.0096,0 0.05717,-0.028 0.106385,-0.06213 0.04919,-0.03421 0.09639,-0.06212 0.104847,-0.06212 0.0086,0 0.166985,-0.0798 0.352313,-0.177283 0.185318,-0.0975 0.404515,-0.211085 0.487099,-0.252393 0.178044,-0.08908 0.306259,-0.167029 0.333989,-0.203061 0.01105,-0.01435 0.02027,-1.522688 0.02047,-3.351897 4.52e-4,-3.001461 -0.0038,-3.327301 -0.04247,-3.340838 -0.02364,-0.0079 -0.07581,0.007 -0.116022,0.03386 -0.04026,0.02686 -0.306509,0.170179 -0.591793,0.3185 -0.285274,0.148312 -0.57003,0.301253 -0.632802,0.339858 -0.06274,0.03859 -0.131491,0.07017 -0.152735,0.07017 -0.02123,0 -0.06082,0.0224 -0.08801,0.0497 -0.02719,0.02739 -0.06313,0.0497 -0.07994,0.0497 -0.01681,0 -0.09349,0.0378 -0.170521,0.084 -0.07696,0.0462 -0.174998,0.100292 -0.217765,0.120242 -0.08792,0.04104 -0.214009,0.105866 -0.478375,0.246076 -0.100206,0.05311 -0.188018,0.09664 -0.195128,0.09664 -0.0067,0 -0.09378,0.04471 -0.192659,0.09943 -0.09886,0.05469 -0.18821,0.09944 -0.198568,0.09944 -0.01038,0 -0.03824,0.01566 -0.06188,0.03491 -0.02373,0.01925 -0.118405,0.06956 -0.210444,0.111956 -0.09205,0.04235 -0.182618,0.09377 -0.201268,0.11424 -0.01864,0.02047 -0.05092,0.03719 -0.07177,0.03719 -0.02085,0 -0.08994,0.03448 -0.15363,0.07665 -0.0637,0.04217 -0.15264,0.09227 -0.197684,0.111378 -0.04506,0.01908 -0.106471,0.04865 -0.136497,0.06571 -0.321806,0.182542 -1.018773,0.549822 -1.487809,0.784033 -0.05256,0.02625 -0.144683,0.0735 -0.204746,0.105104 -0.330463,0.173705 -0.459446,0.240843 -0.530952,0.276395 -0.04372,0.0217 -0.110238,0.05784 -0.147874,0.08032 -0.03766,0.02249 -0.109133,0.06221 -0.158885,0.08829 -0.04977,0.02607 -0.201028,0.106583 -0.336161,0.178849 -0.254316,0.13601 -0.468757,0.246041 -0.586931,0.301139 -0.03757,0.0175 -0.07437,0.03789 -0.08186,0.04524 -0.02565,0.02529 -0.46279,0.248621 -0.486523,0.248621 -0.01307,0 -0.04564,0.02205 -0.07245,0.04909 -0.02681,0.02704 -0.07485,0.05653 -0.106606,0.06554 -0.0318,0.0091 -0.106961,0.04646 -0.167023,0.08312 -0.06005,0.03666 -0.189046,0.103731 -0.286639,0.149047 -0.09759,0.04533 -0.21005,0.103285 -0.249906,0.128817 -0.03988,0.02555 -0.08446,0.04646 -0.09903,0.04646 -0.0146,0 -0.0418,0.01663 -0.06034,0.03701 -0.01854,0.02039 -0.121422,0.07761 -0.228556,0.12726 -0.107143,0.04961 -0.227412,0.111256 -0.267258,0.136972 -0.03988,0.02572 -0.0811,0.04673 -0.09157,0.04673 -0.01047,0 -0.0737,0.0336 -0.140484,0.07455 -0.06678,0.04104 -0.137497,0.07455 -0.157242,0.07455 -0.0197,0 -0.06524,0.02039 -0.101004,0.04541 -0.03584,0.02494 -0.132674,0.0798 -0.215248,0.121904 -0.08254,0.04209 -0.199289,0.101806 -0.259351,0.132702 -0.06005,0.03089 -0.139909,0.07184 -0.177439,0.09096 -0.03757,0.01916 -0.123536,0.06676 -0.191102,0.10591 -0.06755,0.03911 -0.184271,0.10122 -0.259342,0.13797 -0.07504,0.03675 -0.154916,0.08033 -0.177438,0.09685 -0.04891,0.03587 -0.382253,0.213779 -0.565457,0.301821 -0.07187,0.03456 -0.192101,0.09737 -0.267172,0.139615 -0.07504,0.04226 -0.188709,0.103232 -0.252519,0.13552 -0.290482,0.146964 -0.363141,0.184607 -0.593763,0.307614 -0.135133,0.0721 -0.294835,0.154638 -0.354887,0.183452 -0.06005,0.02879 -0.11534,0.05889 -0.122854,0.06685 -0.0077,0.0079 -0.07216,0.04077 -0.143588,0.07289 -0.07149,0.03211 -0.150151,0.07884 -0.174854,0.103661 -0.02469,0.02485 -0.06265,0.04515 -0.08427,0.04515 -0.02162,0 -0.07197,0.0196 -0.11191,0.04349 -0.1217,0.07298 -0.175949,0.102436 -0.318029,0.172882 -0.07504,0.03719 -0.161076,0.08181 -0.191102,0.099 -0.02998,0.01724 -0.09147,0.04839 -0.136498,0.0693 -0.04506,0.02083 -0.126927,0.06309 -0.181964,0.09389 -0.05506,0.0308 -0.257737,0.138644 -0.450444,0.239715 -0.192697,0.101062 -0.38107,0.203235 -0.41861,0.227044 -0.08638,0.05477 -0.255623,0.142992 -0.392812,0.204723 -0.05842,0.02625 -0.119817,0.05836 -0.136498,0.07131 -0.01672,0.01295 -0.09689,0.0595 -0.178246,0.103407 -0.08138,0.04393 -0.16735,0.1078 -0.191092,0.141986 -0.0392,0.05644 -0.04257,0.873772 -0.03622,8.856464 0.0067,8.394473 0.0086,8.794312 0.05525,8.794312 0.02662,0 0.113601,-0.03911 0.193399,-0.08698 0.07975,-0.04786 0.15679,-0.08697 0.171107,-0.08697 0.01432,0 0.05928,-0.02152 0.09999,-0.04786 0.07245,-0.0469 0.80095,-0.432625 1.097697,-0.581208 0.08254,-0.04139 0.156281,-0.08173 0.163785,-0.08973 0.0077,-0.0079 0.05669,-0.03404 0.1092,-0.05793 0.09904,-0.04498 0.111717,-0.0518 0.345875,-0.186313 0.07764,-0.04462 0.146989,-0.08111 0.154176,-0.08111 0.0067,0 0.0958,-0.04576 0.196925,-0.101727 0.227374,-0.125789 0.366447,-0.198309 0.804486,-0.419491 0.156963,-0.07928 0.211327,-0.108937 0.331692,-0.181081 0.03988,-0.02389 0.09032,-0.04349 0.11191,-0.04349 0.02162,0 0.06159,-0.0224 0.08878,-0.0497 0.02719,-0.0273 0.06284,-0.04996 0.07927,-0.05022 0.01643,-2.1e-4 0.15164,-0.06738 0.300456,-0.149161 0.148815,-0.08181 0.282978,-0.148671 0.29814,-0.148671 0.01518,0 0.0492,-0.01785 0.07562,-0.03964 0.02642,-0.02179 0.08561,-0.0581 0.131473,-0.08076 0.04593,-0.02266 0.246369,-0.129859 0.445504,-0.238201 0.199135,-0.108351 0.435762,-0.234744 0.52585,-0.280883 0.166563,-0.08531 0.317012,-0.163091 0.525515,-0.271722 l 0.116021,-0.06039 v -3.551481 -3.551484 l 0.09828,-0.08949 c 0.09166,-0.08347 0.109565,-0.08948 0.266173,-0.08914 0.09234,2.02e-4 0.195196,0.01417 0.228575,0.03106 0.03344,0.01689 0.285217,0.149843 0.559643,0.29546 0.274417,0.145617 0.548075,0.289441 0.608137,0.319619 0.06005,0.03019 0.121758,0.06414 0.137122,0.07543 0.01537,0.01129 0.09522,0.05311 0.177449,0.09294 0.08225,0.03981 0.198654,0.09838 0.258717,0.130148 0.06005,0.03176 0.152188,0.07927 0.204746,0.105472 0.204035,0.101885 0.267825,0.134977 0.518682,0.269105 0.142637,0.0763 0.351477,0.187941 0.464087,0.248176 0.112611,0.0602 0.232697,0.123138 0.266855,0.139807 0.03421,0.01662 0.0811,0.0476 0.104319,0.06877 0.02325,0.02117 0.05698,0.03841 0.07504,0.03841 0.01806,0 0.09397,0.0364 0.168667,0.08076 0.07475,0.04445 0.166591,0.09501 0.204121,0.112367 0.03757,0.01741 0.117386,0.05827 0.177449,0.09103 0.06005,0.03272 0.182906,0.09507 0.272994,0.138599 0.09013,0.04358 0.182224,0.09208 0.204737,0.107861 0.02258,0.01584 0.07024,0.04375 0.106115,0.06213 0.171607,0.088 0.246476,0.1274 0.385279,0.202763 0.23313,0.126586 0.331203,0.17759 0.464088,0.241334 0.06755,0.03246 0.19655,0.09899 0.286639,0.147935 0.235195,0.127785 0.336967,0.180854 0.491385,0.256191 0.26479,0.129185 1.011173,0.529155 1.096976,0.587841 0.04785,0.03273 0.104645,0.05941 0.126332,0.05941 0.02172,0 0.05477,0.0168 0.07341,0.03728 0.01874,0.02047 0.04535,0.03727 0.05928,0.03727 0.01393,0 0.09927,0.04471 0.18968,0.09944 0.09042,0.05469 0.175556,0.09943 0.18919,0.09943 0.01364,0 0.08446,0.05486 0.15731,0.121966 0.09769,0.0899 0.148075,0.16387 0.191678,0.281426 l 0.05919,0.159477 v 4.171009 c 0,4.587779 0.0122,4.250432 -0.159692,4.420908 -0.06351,0.06309 -0.08504,0.06834 -0.275868,0.06834 -0.175767,0 -0.222089,-0.0094 -0.307383,-0.06213 -0.05525,-0.03421 -0.105472,-0.06213 -0.111621,-0.06213 -0.01297,0 -0.483353,-0.244553 -0.524054,-0.272448 -0.01499,-0.01033 -0.09483,-0.05233 -0.177439,-0.09344 -0.08263,-0.04113 -0.334421,-0.172575 -0.559643,-0.292179 -0.225213,-0.119595 -0.458621,-0.242785 -0.518683,-0.27376 -0.125871,-0.06493 -0.406303,-0.212511 -0.473168,-0.249033 -0.211981,-0.115789 -0.716971,-0.386749 -0.782597,-0.419912 -0.04506,-0.02275 -0.12489,-0.06493 -0.177449,-0.09368 -0.05256,-0.02879 -0.166687,-0.08715 -0.253643,-0.129824 -0.224117,-0.109917 -0.293028,-0.145232 -0.401536,-0.205773 -0.05256,-0.02931 -0.141619,-0.07682 -0.197915,-0.105481 -0.05631,-0.0287 -0.148441,-0.07621 -0.204746,-0.105559 -0.05631,-0.02931 -0.169944,-0.08697 -0.252519,-0.128091 -0.08254,-0.04113 -0.18086,-0.09407 -0.2184,-0.117731 -0.07696,-0.04848 -0.216026,-0.121852 -0.43678,-0.230352 -0.08263,-0.0406 -0.179447,-0.09467 -0.215258,-0.120164 -0.03584,-0.02546 -0.08033,-0.04637 -0.09902,-0.04637 -0.01864,0 -0.05083,-0.01855 -0.07139,-0.04113 -0.02066,-0.02266 -0.07888,-0.05687 -0.129512,-0.07621 -0.05064,-0.01925 -0.142762,-0.06466 -0.204746,-0.100869 -0.122565,-0.07158 -0.214384,-0.119254 -0.390948,-0.202947 l -0.114446,-0.05425 -0.108566,0.05749 c -0.05967,0.03159 -0.272332,0.144821 -0.472495,0.251597 -0.200153,0.106776 -0.388478,0.207234 -0.418514,0.223247 -0.02998,0.01601 -0.114773,0.0623 -0.188316,0.102935 -0.0735,0.0406 -0.168657,0.09117 -0.211356,0.112358 -0.04266,0.02117 -0.197502,0.10171 -0.344011,0.178902 -0.146519,0.07718 -0.309382,0.162461 -0.361931,0.189481 -0.05256,0.02704 -0.20611,0.108255 -0.341243,0.180521 -0.135133,0.07227 -0.294835,0.153492 -0.354888,0.180494 -0.06005,0.02695 -0.115339,0.05661 -0.122853,0.0658 -0.0077,0.0092 -0.09349,0.05399 -0.191093,0.09961 -0.09759,0.04559 -0.228796,0.114913 -0.291558,0.154043 -0.06274,0.03911 -0.131501,0.07114 -0.152745,0.07114 -0.02123,0 -0.06082,0.0224 -0.08801,0.0497 -0.02719,0.02739 -0.06505,0.0497 -0.08417,0.0497 -0.01912,0 -0.106606,0.04191 -0.194398,0.09322 -0.241489,0.141059 -1.300867,0.705633 -1.559574,0.831161 -0.08004,0.03885 -0.163881,0.08732 -0.186221,0.107624 -0.02229,0.0203 -0.05256,0.03701 -0.06726,0.03701 -0.01461,0 -0.09051,0.0371 -0.168666,0.08242 -0.07812,0.04532 -0.206005,0.109638 -0.284208,0.142949 -0.08552,0.0364 -0.142656,0.07691 -0.143329,0.101613 -9.61e-4,0.03859 0.09763,0.106251 0.285524,0.195729 0.04506,0.02144 0.207917,0.105603 0.36194,0.187004 0.154014,0.08138 0.314965,0.165348 0.357655,0.18655 0.04266,0.02117 0.137814,0.07289 0.211357,0.114773 0.0735,0.04191 0.299562,0.163747 0.502261,0.270716 0.2027,0.106968 0.397837,0.214741 0.433648,0.239486 0.03584,0.02476 0.08648,0.04498 0.112678,0.04498 0.02614,0 0.06217,0.01601 0.07994,0.03552 0.01778,0.01951 0.09599,0.0658 0.173788,0.102839 0.07783,0.03701 0.219543,0.110564 0.315022,0.163388 0.09551,0.05285 0.185116,0.09603 0.199202,0.09603 0.01412,0 0.0589,0.02109 0.09958,0.04681 0.06351,0.04016 0.25937,0.145092 0.840815,0.450432 0.06505,0.03421 0.238587,0.125308 0.385538,0.202509 0.146942,0.07718 0.316319,0.165025 0.376372,0.195186 0.06005,0.03019 0.127629,0.06834 0.150151,0.08479 0.02248,0.01645 0.07168,0.04322 0.1092,0.05932 0.03757,0.01619 0.148095,0.07376 0.245688,0.12796 0.0976,0.05416 0.214306,0.115928 0.25935,0.137164 0.04506,0.02126 0.127668,0.0637 0.183618,0.09438 0.05592,0.03071 0.166514,0.08796 0.245697,0.127321 0.07917,0.03937 0.150112,0.07963 0.157617,0.08937 0.0077,0.0098 0.108998,0.06414 0.225538,0.120714 0.116541,0.05661 0.243315,0.121669 0.281729,0.144594 0.07581,0.04524 0.203737,0.111439 0.311707,0.161314 0.03757,0.01732 0.09896,0.05023 0.136498,0.07315 0.03757,0.02293 0.166523,0.08941 0.286639,0.147822 0.120124,0.05845 0.237789,0.121345 0.261493,0.139834 0.02373,0.01846 0.05198,0.0336 0.06274,0.0336 0.01086,0 0.230977,0.113094 0.489233,0.251317 0.258255,0.138224 0.511015,0.273061 0.56167,0.299634 0.05064,0.0266 0.109892,0.06449 0.131626,0.08426 0.02172,0.01978 0.05429,0.03596 0.07235,0.03596 0.01806,0 0.09666,0.03833 0.1747,0.08514 0.07802,0.04681 0.165726,0.09199 0.19484,0.100406 0.02911,0.0087 0.06784,0.03167 0.086,0.05163 0.01826,0.01995 0.05467,0.03631 0.081,0.03631 0.02633,0 0.06313,0.01671 0.08177,0.03719 0.01864,0.02048 0.109219,0.07184 0.201268,0.11424 0.09205,0.04235 0.18675,0.09274 0.210444,0.111956 0.02373,0.01916 0.04977,0.03491 0.05794,0.03491 0.02296,0 0.739571,0.372032 0.786027,0.408047 0.02258,0.0175 0.06428,0.03937 0.09253,0.04856 0.02825,0.0092 0.165774,0.07796 0.305596,0.152941 0.139832,0.0749 0.266183,0.136254 0.280779,0.136254 0.0146,0 0.03065,0.01024 0.03565,0.02266 0.0048,0.01251 0.07668,0.0553 0.15924,0.09519 0.08263,0.0399 0.408128,0.209404 0.723429,0.376704 0.31531,0.167299 0.597856,0.317134 0.627892,0.332954 0.02998,0.01584 0.12562,0.07105 0.212423,0.122675 0.08676,0.05162 0.173961,0.09392 0.193687,0.09392 0.0197,0 0.05813,0.0224 0.08532,0.0497 0.02719,0.0273 0.06678,0.0497 0.08801,0.0497 0.02124,0 0.08994,0.03167 0.152736,0.07044 0.06274,0.03876 0.193581,0.108657 0.290703,0.155382 0.09712,0.04673 0.200787,0.104518 0.230372,0.12845 0.02959,0.02398 0.0711,0.04349 0.09224,0.04349 0.02114,0 0.07101,0.02083 0.110871,0.04637 0.06342,0.04051 0.180648,0.102952 0.577496,0.307387 0.05256,0.02704 0.215421,0.112375 0.36193,0.189577 0.14651,0.07717 0.301321,0.1577 0.344021,0.178902 0.04266,0.02117 0.13888,0.07437 0.213739,0.11808 0.07485,0.04375 0.145068,0.07954 0.156022,0.07954 0.01095,0 0.06015,0.028 0.109382,0.06212 0.0492,0.03421 0.09645,0.06212 0.104982,0.06212 0.0086,0 0.100725,0.04471 0.20489,0.09943 0.215643,0.113216 0.232967,0.11585 0.36244,0.05512 z"
     id="path827" />
</svg>
