<svg width="64" height="64" viewBox="0 0 16.933 16.933" xmlns="http://www.w3.org/2000/svg"><circle cx="8.466" cy="8.466" r="7.144" fill="#ececec" style="paint-order:stroke fill markers"/><g transform="translate(-.163 -.542)" fill="#ff8a2c"><circle transform="rotate(-45)" cx="-.263" cy="12.466" r="3.175"/><rect transform="rotate(-45)" x="-6.084" y="9.291" width="6.35" height="1.323" rx=".661" ry=".661"/><rect transform="rotate(75)" x="5.606" y="-9.153" width="6.35" height="1.323" rx=".661" ry=".661"/><rect transform="rotate(195)" x="-16.516" y="-9.621" width="6.35" height="1.323" rx=".661" ry=".661"/></g><path d="M8.467 5.82A2.646 2.646 0 0 0 5.82 8.467a2.646 2.646 0 0 0 2.646 2.646 2.646 2.646 0 0 0 2.645-2.646A2.646 2.646 0 0 0 8.467 5.82zm0 1.612A1.035 1.035 0 0 1 9.5 8.466a1.035 1.035 0 0 1-1.034 1.035A1.035 1.035 0 0 1 7.43 8.467a1.035 1.035 0 0 1 1.036-1.035z" fill="#fff" fill-opacity=".099"/><path d="M8.467 6.35A2.117 2.117 0 0 0 6.35 8.466a2.117 2.117 0 0 0 2.117 2.117 2.117 2.117 0 0 0 2.116-2.117A2.117 2.117 0 0 0 8.467 6.35zm0 1.289a.828.828 0 0 1 .827.827.828.828 0 0 1-.827.828.828.828 0 0 1-.829-.828.828.828 0 0 1 .829-.827z" fill="#fff"/><circle cx="8.466" cy="8.466" r="1.058" color="#000" display="block" fill="#2e57b1" overflow="visible" style="isolation:auto;mix-blend-mode:normal;paint-order:fill markers stroke"/></svg>