<?xml version="1.0" encoding="UTF-8" standalone="no"?>
<svg
   width="64"
   height="64"
   version="1.1"
   viewBox="0 0 16.933 16.933"
   id="svg14"
   sodipodi:docname="upbge.svg"
   inkscape:version="1.1.1 (3bf5ae0d25, 2021-09-20)"
   inkscape:export-filename="/home/maeve/Downloads/upbge.png"
   inkscape:export-xdpi="3.94859"
   inkscape:export-ydpi="3.94859"
   xmlns:inkscape="http://www.inkscape.org/namespaces/inkscape"
   xmlns:sodipodi="http://sodipodi.sourceforge.net/DTD/sodipodi-0.dtd"
   xmlns="http://www.w3.org/2000/svg"
   xmlns:svg="http://www.w3.org/2000/svg">
  <defs
     id="defs18" />
  <sodipodi:namedview
     id="namedview16"
     pagecolor="#ffffff"
     bordercolor="#666666"
     borderopacity="1.0"
     inkscape:pageshadow="2"
     inkscape:pageopacity="0.0"
     inkscape:pagecheckerboard="0"
     showgrid="false"
     inkscape:zoom="6.328125"
     inkscape:cx="-22.360494"
     inkscape:cy="37.609877"
     inkscape:window-width="1920"
     inkscape:window-height="1000"
     inkscape:window-x="0"
     inkscape:window-y="44"
     inkscape:window-maximized="1"
     inkscape:current-layer="svg14" />
  <circle
     cx="8.4665"
     cy="8.4665"
     fill="#ececec"
     style="paint-order:stroke fill markers"
     id="circle2"
     r="7.1436" />
  <path
     style="fill:#ff892b;stroke:none;stroke-width:0.00405514"
     d="M 9.9607067,5.4219159 C 9.8248585,5.3653584 9.6943252,5.2998674 9.5551939,5.2503497 9.3208498,5.1669429 9.0759609,5.1128145 8.829329,5.0824372 8.0449464,4.9858232 7.2380585,5.1799272 6.5746818,5.6072048 6.2917713,5.7894279 6.0613232,6.0303984 5.8001535,6.2392397 5.3432222,6.6046187 4.882913,6.9665712 4.4214128,7.3261432 4.0235768,7.6360799 3.6308587,7.952586 3.2332627,8.2628877 3.1214061,8.3501547 2.9925407,8.4330427 2.8956919,8.5369768 2.7928652,8.647318 2.729177,8.7918443 2.7148952,8.9418045 2.6712357,9.4002416 3.1165031,9.7701134 3.5576716,9.6599754 3.7773539,9.6051494 3.9406778,9.4313042 4.1132237,9.295456 4.4192028,9.0545383 4.7400998,8.8244479 5.0337351,8.5687288 c 0,0.1856457 0.03479,0.366263 0.069739,0.5474481 0.2194143,1.1374751 1.0282732,2.1002531 2.1119196,2.5125021 0.2849124,0.108354 0.5847076,0.178468 0.8880708,0.207828 0.090429,0.0088 0.1807783,0.01285 0.2716941,0.01285 0.043999,0 0.1042157,-0.01058 0.1459842,0.0039 0.1532021,0.0532 0.3025122,0.138079 0.4501183,0.205678 0.3536876,0.161964 0.7070902,0.325022 1.0624399,0.483255 0.549386,0.244689 1.09549,0.49757 1.642323,0.747976 0.278262,0.127414 0.550118,0.292501 0.86374,0.184957 0.471814,-0.161802 0.598009,-0.796598 0.239293,-1.134759 -0.110583,-0.104258 -0.255594,-0.158354 -0.393387,-0.215897 -0.132683,-0.05543 -0.26261,-0.119222 -0.393347,-0.179077 -0.34428,-0.157665 -0.689937,-0.31241 -1.034055,-0.470399 -0.12425,-0.05702 -0.248782,-0.113383 -0.373071,-0.170318 -0.05819,-0.02664 -0.120154,-0.06504 -0.182481,-0.07985 v -0.0081 c 0.094,-0.04469 0.181467,-0.13374 0.259528,-0.201623 0.209812,-0.182483 0.392739,-0.390676 0.5532,-0.617522 0.486574,-0.6877566 0.699751,-1.579691 0.576434,-2.4128259 -0.02863,-0.1935619 -0.07004,-0.3855337 -0.130739,-0.5717471 -0.02088,-0.064112 -0.04282,-0.1279812 -0.06784,-0.1905931 -0.01561,-0.039092 -0.03808,-0.08009 -0.04526,-0.1216551 C 11.508423,6.8716396 11.4862,6.6378671 11.455909,6.4073225 11.400435,5.9855158 11.343339,5.5639239 11.287865,5.1421091 11.221929,4.6405898 11.15514,4.1391679 11.089164,3.6376405 11.054934,3.3774404 11.051414,3.1017776 10.851655,2.9053751 10.57607,2.6343887 10.109772,2.6488044 9.8564891,2.9442061 c -0.069869,0.081473 -0.1182875,0.1801753 -0.1448482,0.283862 -0.059449,0.2320896 0.02595,0.4938672 0.053769,0.7258757 0.039169,0.326202 0.086459,0.6515525 0.1292753,0.9772963 0.02117,0.1609862 0.02835,0.3328484 0.066019,0.4906757 z"
     id="path1369" />
  <g
     transform="matrix(0.73182,0,0,0.73182,2.270016,2.0069)"
     stroke-width="0.92327"
     id="g12">
    <path
       d="m 8.4676746,5.1835611 a 3.6432,3.6432 0 0 0 -3.6432,3.6432 3.6432,3.6432 0 0 0 3.6432,3.6431999 3.6432,3.6432 0 0 0 3.6423004,-3.6431999 3.6432,3.6432 0 0 0 -3.6423004,-3.6432 z m 0,2.2186 a 1.4246,1.4246 0 0 1 1.4246,1.4246 1.4246,1.4246 0 0 1 -1.4246,1.4245999 1.4246,1.4246 0 0 1 -1.4255,-1.4245999 1.4246,1.4246 0 0 1 1.4255,-1.4246 z"
       fill="#ffffff"
       fill-opacity="0.099"
       id="path6" />
    <path
       d="m 8.4676746,5.9817111 a 2.8455,2.8455 0 0 0 -2.8455,2.8446 2.8455,2.8455 0 0 0 2.8455,2.8454999 2.8455,2.8455 0 0 0 2.8446004,-2.8454999 2.8455,2.8455 0 0 0 -2.8446004,-2.8446 z m 0,1.7321 a 1.1125,1.1125 0 0 1 1.1125,1.1125 1.1125,1.1125 0 0 1 -1.1125,1.1125 1.1125,1.1125 0 0 1 -1.1135,-1.1125 1.1125,1.1125 0 0 1 1.1135,-1.1125 z"
       fill="#ffffff"
       id="path8" />
    <circle
       cx="8.4672241"
       cy="8.8267612"
       r="1.456"
       color="#000000"
       display="block"
       fill="#2e57b1"
       overflow="visible"
       style="isolation:auto;mix-blend-mode:normal;paint-order:fill markers stroke"
       id="circle10" />
  </g>
  <path
     style="fill:#000000;stroke-width:0.00405517"
     id="path1329"
     d="" />
</svg>
