<?xml version="1.0" encoding="UTF-8" standalone="no"?>
<svg
   width="64"
   height="64"
   viewBox="0 0 16.933 16.933"
   version="1.1"
   id="svg2"
   sodipodi:docname="upscaler.svg"
   inkscape:version="1.4.2 (ebf0e940d0, 2025-05-08)"
   xmlns:inkscape="http://www.inkscape.org/namespaces/inkscape"
   xmlns:sodipodi="http://sodipodi.sourceforge.net/DTD/sodipodi-0.dtd"
   xmlns:xlink="http://www.w3.org/1999/xlink"
   xmlns="http://www.w3.org/2000/svg"
   xmlns:svg="http://www.w3.org/2000/svg">
  <defs
     id="defs2">
    <linearGradient
       xlink:href="#a"
       id="e"
       x1="11.5"
       y1="120.5"
       x2="116.5"
       y2="120.5"
       gradientUnits="userSpaceOnUse"
       gradientTransform="translate(0,-5.84)" />
    <linearGradient
       id="a">
      <stop
         style="stop-color:gray;stop-opacity:1"
         offset="0"
         id="stop9" />
      <stop
         style="stop-color:#b3b3b3;stop-opacity:1"
         offset=".05"
         id="stop10" />
      <stop
         style="stop-color:gray;stop-opacity:1"
         offset=".1"
         id="stop11" />
      <stop
         style="stop-color:gray;stop-opacity:1"
         offset=".9"
         id="stop12" />
      <stop
         style="stop-color:#b3b3b3;stop-opacity:1"
         offset=".95"
         id="stop13" />
      <stop
         style="stop-color:gray;stop-opacity:1"
         offset="1"
         id="stop14" />
    </linearGradient>
    <linearGradient
       xlink:href="#b"
       id="f"
       x1="64"
       y1="7.5"
       x2="64"
       y2="112.5"
       gradientUnits="userSpaceOnUse"
       gradientTransform="translate(0,-1.84)" />
    <linearGradient
       id="b">
      <stop
         style="stop-color:#fff;stop-opacity:1"
         offset="0"
         id="stop7" />
      <stop
         style="stop-color:#e6e6e6;stop-opacity:1"
         offset="1"
         id="stop8" />
    </linearGradient>
    <linearGradient
       xlink:href="#d"
       id="g"
       gradientUnits="userSpaceOnUse"
       gradientTransform="translate(0,-5.4688798)"
       x1="11.5"
       y1="58.159"
       x2="87.432999"
       y2="58.159" />
    <linearGradient
       id="d">
      <stop
         style="stop-color:#48a6b7;stop-opacity:.40000001"
         offset="0"
         id="stop1" />
      <stop
         style="stop-color:#48a6b7;stop-opacity:.40000001"
         offset=".6"
         id="stop2" />
      <stop
         style="stop-color:#e6e6e6;stop-opacity:0"
         offset="1"
         id="stop3" />
    </linearGradient>
    <linearGradient
       xlink:href="#c"
       id="h"
       x1="57.224998"
       y1="58.159"
       x2="75.912003"
       y2="58.159"
       gradientUnits="userSpaceOnUse"
       gradientTransform="matrix(1.38685,0,0,1,-25.768,-3.6288798)" />
    <linearGradient
       id="c">
      <stop
         style="stop-color:#f8fcfc;stop-opacity:0"
         offset="0"
         id="stop4" />
      <stop
         style="stop-color:#fff;stop-opacity:.28729364"
         offset=".496"
         id="stop5" />
      <stop
         style="stop-color:#fff;stop-opacity:0"
         offset="1"
         id="stop6" />
    </linearGradient>
    <clipPath
       clipPathUnits="userSpaceOnUse"
       id="clipPath2">
      <ellipse
         cx="63.999954"
         cy="52.671535"
         fill="#f0f0f0"
         style="fill:#2a273f;fill-opacity:1;stroke-width:7.21756;paint-order:stroke fill markers"
         id="circle2"
         rx="52.499954"
         ry="50.641415" />
    </clipPath>
  </defs>
  <sodipodi:namedview
     id="namedview2"
     pagecolor="#505050"
     bordercolor="#ffffff"
     borderopacity="1"
     inkscape:showpageshadow="0"
     inkscape:pageopacity="0"
     inkscape:pagecheckerboard="1"
     inkscape:deskcolor="#505050"
     inkscape:zoom="4"
     inkscape:cx="47.25"
     inkscape:cy="54.75"
     inkscape:window-width="1920"
     inkscape:window-height="1012"
     inkscape:window-x="0"
     inkscape:window-y="0"
     inkscape:window-maximized="1"
     inkscape:current-layer="svg2" />
  <circle
     cx="8.466"
     cy="8.466"
     r="7.144"
     fill="#f0f0f0"
     style="paint-order:stroke fill markers;fill:#2a273f;fill-opacity:1"
     id="circle1" />
  <g
     transform="matrix(0.13607631,0,0,0.14107031,-0.24278067,1.0357072)"
     id="g23"
     clip-path="url(#clipPath2)">
    <rect
       style="fill:url(#g);fill-opacity:1"
       width="105"
       height="105"
       x="11.5"
       y="2.0301201"
       rx="8"
       ry="8"
       id="rect18" />
    <g
       transform="translate(0,1.092)"
       id="g21">
      <circle
         style="fill:#f6c177;fill-opacity:1;stroke-width:0.542636"
         cx="49.706001"
         cy="67.495003"
         r="5.9260001"
         transform="rotate(-15)"
         id="circle18" />
      <path
         style="fill:#eb6f92;fill-opacity:1;stroke-width:1.16141"
         d="m 62.855,66.488 a 11.807,8.77 75 0 0 4.322,16.129 l 8.151,6.46 3.83,-9.67 A 11.807,8.77 75 0 0 74.835,63.28 11.807,8.77 75 0 0 62.855,66.488 Z M 78.06,59.34 a 11.807,8.77 3.621 0 0 16.664,1.054 l 8.724,-5.661 -7.94,-6.717 A 11.807,8.77 3.621 0 0 78.845,46.963 11.807,8.77 3.621 0 0 78.059,59.339 Z M 75.348,41.843 a 8.77,11.807 17.744 0 0 5.089,-15.904 l -3.362,-9.842 -8.451,6.062 a 8.77,11.807 17.744 0 0 -5.088,15.902 8.77,11.807 17.744 0 0 11.811,3.782 z M 58.514,39.73 A 11.807,8.77 35.551 0 0 44.928,30.02 l -10.398,0.192 3.187,9.9 A 11.807,8.77 35.551 0 0 51.3,49.818 11.807,8.77 35.551 0 0 58.512,39.73 Z M 51.39,55.29 A 8.77,11.807 52.628 0 0 38.12,65.426 l -2.871,9.996 10.4,-0.14 A 8.77,11.807 52.628 0 0 58.916,65.148 8.77,11.807 52.628 0 0 51.39,55.291 Z"
         id="path18" />
      <path
         style="fill:#8c4257;fill-opacity:1;stroke-width:0.983178"
         d="m 226.936,18.156 v 7.658 h 7.66 v -7.658 z m 0,15.319 v 7.634 h -7.659 v 7.66 h 7.659 v 0.022 h 22.978 v 7.637 h 7.658 V 48.77 h -7.658 v -7.637 h -15.318 v -7.658 z m 22.978,22.953 h -7.66 v 7.658 h 7.66 z m -30.637,-0.024 v 7.66 h 7.659 v -7.66 z m 7.659,7.66 v 15.319 h -7.659 v 7.658 h 15.319 V 64.064 Z"
         transform="matrix(1.0591,0,0,1.0591,-164.695,-3.108)"
         id="path19" />
      <path
         style="fill:#eb6f92;fill-opacity:1;stroke-width:0.983178"
         d="m 219.277,18.133 v 22.976 h 7.659 v -7.634 h 7.66 v -7.66 h -7.66 v -7.682 z m 7.659,30.637 v 15.294 h -7.659 v 15.319 h 7.659 V 64.086 h 15.318 v -7.658 h 7.66 V 48.77 h -15.318 z"
         transform="matrix(1.0591,0,0,1.0591,-164.695,-3.108)"
         id="path20" />
      <path
         style="fill:#f6c177;fill-opacity:1;stroke-width:0.983178"
         d="m 219.277,48.769 h 7.659 v 7.659 h -7.659 z"
         transform="matrix(1.0591,0,0,1.0591,-164.695,-3.108)"
         id="path21" />
    </g>
    <path
       style="opacity:1;fill:url(#h);fill-opacity:1;stroke-width:13.522"
       d="M 53.595,2.0301202 H 79.51 V 107.03012 H 53.595 Z"
       id="path22" />
    <path
       style="opacity:1;fill:#ffffff;fill-opacity:1;stroke-width:3.70295"
       d="m 65.58,2.0301202 h 1.943 V 107.03012 H 65.58 Z"
       id="path23" />
  </g>
</svg>
