<svg width="64" height="64" xmlns="http://www.w3.org/2000/svg"><circle cx="32" cy="32" r="27" fill="#f0f0f0" style="paint-order:stroke fill markers"/><path d="M53.893 44h-7.298v-4.154l3.649-1.842z" fill="#2bac8f"/><path d="M50.243 38.003h-7.297l.73 3.227L46.595 44z" fill="#2e997c"/><path d="M46.596 44h-7.298l1.46-4.154 2.19-1.842z" fill="#278768"/><path d="m39.297 32.004-2.919-1.855-4.38 1.855L35.649 38z" fill="#21674f"/><path d="m42.948 38.003-3.648-.927-3.65.927L39.3 44z" fill="#2a8d70"/><path d="M42.948 37.998h-7.297l1.793-2.947 1.855-3.048z" fill="#2f9f81"/><path d="M53.893 20h-7.297v3.214l3.648 2.782z" fill="#96cfba"/><path d="M50.243 25.996h-7.298l.73-4.167L46.594 20z" fill="#85c8b1"/><path d="M46.596 20h-7.297v3.214l3.648 2.782z" fill="#6bbfa4"/><path d="M42.948 25.997 39.3 27.368l-3.65-1.371L39.3 20z" fill="#52b99b"/><path d="M42.948 26.002h-7.297l.73 2.756 2.919 3.24z" fill="#44b799"/><path d="M39.297 32h-7.298l3.65-5.997z" fill="#33b394"/><path d="m35.648 38-3.649 1.841L28.35 38l3.649-5.996z" fill="#2da4ad"/><path d="M35.649 38.003H28.35l.117 3.901L32 44z" fill="#2f98af"/><path d="M31.997 44H24.7l.001-4.154 3.648-1.842 1.8 2.955z" fill="#0d657a"/><path d="m28.35 38.003-3.648-.927-3.65.927L24.702 44" fill="#2a69b1"/><path d="M28.35 37.998h-7.297l.73-3.696 2.919-2.3z" fill="#2077bc"/><path d="m24.701 32.004-4.378-1.855-2.92 1.855L21.053 38" fill="#2886c7"/><path d="M24.702 32h-7.298v-4.626l3.65-1.372z" fill="#238dcd"/><path d="m21.074 25.984-3.67-1.398-3.65 1.398 3.66 6.014" fill="#1a9cd1"/><path d="M21.052 25.996h-7.297l.73-2.783L17.404 20z" fill="#0ea6d3"/><path d="M17.404 20h-7.297l3.649 5.996z" fill="#08abd8"/></svg>