<svg width="64" height="64" version="1.1" xmlns="http://www.w3.org/2000/svg">
 <circle cx="32" cy="32" r="28" color="#5294e2" fill="#fafafa"/>
 <g transform="translate(-152.44)" stroke-width="0">
  <path d="m164.95 12a28 28 0 0 0-6.582 10h52.223a28 28 0 0 0-6.5566-10h-39.084z" fill="#ed945e" style="paint-order:stroke fill markers"/>
  <path d="m158.37 22a28 28 0 0 0-1.9219 10h56a28 28 0 0 0-1.8555-10h-52.223z" fill="#e0c269" style="paint-order:stroke fill markers"/>
  <path d="m156.44 32a28 28 0 0 0 1.9219 10h52.156a28 28 0 0 0 1.9219-10h-56z" fill="#7fbf92" style="paint-order:stroke fill markers"/>
  <path d="m158.37 42a28 28 0 0 0 6.582 10h38.992a28 28 0 0 0 6.582-10h-52.156z" fill="#729ad6" style="paint-order:stroke fill markers"/>
  <path d="m164.95 52a28 28 0 0 0 19.496 8 28 28 0 0 0 19.496-8h-38.992z" fill="#a85cd1" style="paint-order:stroke fill markers"/>
  <path d="m184.44 4a28 28 0 0 0-19.496 8h39.084a28 28 0 0 0-19.588-8z" fill="#db606e" style="paint-order:stroke fill markers"/>
 </g>
 <path d="m31.218 27.182h12.8l0.78222 2.4178 2.4178 0.78222v3.2h-6.4v-3.2h-6.4v12.8h6.4v-3.2h6.4v3.2h-3.2v3.2h-12.8v-3.2h-3.2v-12.8h3.2z" fill="#eeb9c4" stroke-width="0" style="paint-order:stroke fill markers"/>
 <path d="m16.818 17.582h3.2v11.2h0.78222l3.2 3.2178 1.6-0.01778 3.2-3.2 0.81778-11.2h3.2v8.8178l-1.6 0.78222-0.81778 2.4178h-1.6l-0.78222 0.78222-0.81778 5.6178-0.78222 0.78222h-3.2l-6.4-6.4z" fill="#fafafa" stroke-width="0" style="paint-order:stroke fill markers"/>
 <path d="m34.418 24.409 0.39111-0.42667 0.39111-0.78222 0.81778-0.39111 1.2089-0.42667 0.39111-0.39111 0.39111-0.39111h0.39111l0.42667 0.78222h1.6v-0.78222l0.78222-0.81778h0.39111l0.42667 1.6h0.39111l0.39111 0.42667 0.81778 2.7733v1.2089l-0.42667 0.39111h-5.9733l-0.60444-0.39111h-1.8133l-0.39111-0.39111z" fill="#fafafa" stroke-width="0" style="paint-order:stroke fill markers"/>
 <path d="m31.218 46.791v-0.40889h-0.81778v-2.3822h-2.3822v-0.81778h-0.81778v-6.4h-0.78222v0.81778h-3.2v-0.81778h-0.81778v-0.78222h-0.78222v-0.81778h-0.81778v-0.78222h-0.78222v-0.81778h-0.81778v-0.78222h-0.78222v-0.81778h-0.81778v-0.78222h-0.78222v-0.81778h-0.81778v-12.8h0.81778v-0.78222h3.2v0.78222h0.78222v11.2h0.81778v0.81778h0.78222v0.78222h0.81778v0.81778h0.78222v0.78222h1.6v-0.78222h0.81778v-0.81778h0.78222v-0.78222h0.81778v-0.81778h0.78222v-11.2h0.81778v-0.78222h3.2v0.78222h0.78222v8.8178h0.42667v-1.9911h0.39111v-0.42667h0.39111v-0.78222h0.39111v-0.39111h0.81778v-0.42667h1.2089v-0.39111h0.39111v-0.39111h0.39111v-0.39111h0.39111v0.39111h0.42667v0.39111h1.1733v-0.39111h0.42667v-0.39111h0.39111v-0.42667h0.39111v-0.39111h0.39111v0.39111h0.42667v1.2089h0.39111v0.39111h0.39111v0.42667h0.39111v1.1733h0.42667v1.2089h0.39111v1.9911h0.78222v2.4178h2.4178v0.78222h0.78222v3.2h-0.78222v0.81778h-6.4v-0.81778h-0.81778v-2.3822h-4.8v11.2h4.8v-2.4178h0.81778v-0.78222h6.4v0.78222h0.78222v3.2h-0.78222v0.81778h-2.4178v2.3822h-0.78222v0.81778h-12.8zm12.8-2.0089v-1.6h3.2v-3.2h-6.4v3.2h-6.4v-12.8h6.4v3.2h6.4v-3.2h-3.2v-3.2h-0.39111v0.42667h-2.8089v-0.42667h-0.81778v0.42667h-3.2v-0.42667h-5.5822v-0.78222h1.6v-8.8178h-3.2v11.2h-0.81778v0.81778h1.6v-2.4178h0.81778v3.2h-3.2v12.8h3.2v3.2h12.8zm-17.6-8.3911v-0.39111h0.78222v-4.8h-0.78222v0.78222h-0.81778v0.81778h-1.6v-0.81778h-0.78222v-0.78222h-0.81778v-0.81778h-0.78222v-0.78222h-0.81778v-0.81778h-0.78222v-11.2h-3.2v12.8h0.78222v0.81778h0.81778v0.78222h0.78222v0.81778h0.81778v0.78222h0.78222v0.81778h0.81778v0.78222h0.78222v0.81778h0.81778v0.78222h3.2zm13.191-9.4044v-0.19556h-1.6v-0.39111h2.4178v-0.39111h0.39111v0.39111h0.39111v0.78222h0.81778v-0.78222h0.39111v-0.39111h0.39111v-0.42667h0.39111v0.81778h-0.39111v0.39111h-0.39111v0.39111h0.78222v-0.39111h0.42667v-1.2089h-0.42667v-1.1733h-0.39111v1.1733h-0.39111v-0.78222h-0.39111v-0.39111h0.39111v-1.2089h0.39111v-0.39111h-0.39111v-0.42667h-0.39111v0.42667h-0.42667v-2.0267h-0.39111v0.42667h-0.39111v0.39111h-0.39111v0.78222h-0.42667v0.81778h-0.78222v-0.39111h0.39111v-0.42667h-0.39111v0.42667h-0.39111v-0.42667h-0.42667v-0.78222h-0.39111v0.39111h-0.39111v0.39111h-0.39111v0.81778h-0.42667v-0.39111h-0.78222v0.39111h-0.81778v0.78222h-0.39111v0.42667h-0.39111v1.9911h0.39111v0.39111h2.4178v0.39111h2.3822zm-1.9911-0.78222v-0.19556h-0.39111v-0.42667h-0.42667v-0.78222h-0.39111v-1.6h0.39111v1.6h0.42667v0.78222h0.39111v0.42667h0.39111v0.39111h-0.39111zm3.5911 0v-0.19556h0.81778v-0.42667h0.39111v0.42667h-0.39111v0.39111h-0.81778zm-1.6-0.40889v-0.21333h-1.2089v-0.39111h-0.78222v-0.39111h0.78222v0.39111h1.2089v0.39111h0.39111v0.42667h-0.39111zm1.2089-0.40889v-0.19556h0.39111v-0.39111h0.81778v0.39111h-0.81778v0.39111h-0.39111zm1.2089-2.3822v-0.19556h0.39111v0.39111h-0.39111zm-4.0178-3.2v-0.19556h0.81778v-0.42667h0.39111v-0.39111h-1.2089v-0.39111h1.9911v0.39111h-0.39111v0.39111h-0.39111v0.42667h0.78222v0.39111h-1.9911zm-3.9822-0.40889v-0.21333h0.39111v-0.39111h0.39111v-0.39111h0.39111v-0.39111h-0.39111v-0.42667h0.39111v0.42667h0.42667v-0.42667h0.39111v-0.39111h-1.9911v-0.39111h2.7733v0.39111h-0.39111v0.39111h-0.39111v0.42667h-0.39111v0.39111h0.39111v0.39111h-0.39111v-0.39111h-0.42667v0.39111h-0.39111v0.39111h1.9911v0.42667h-2.7733z" fill="#000000" stroke-width="1.2"/>
</svg>
