<svg width="64" height="64" version="1.1" viewBox="0 0 16.933 16.933" xmlns="http://www.w3.org/2000/svg" xmlns:xlink="http://www.w3.org/1999/xlink">
 <circle cx="8.4665" cy="8.4665" r="7.1436" fill="#4caf50" style="paint-order:stroke fill markers"/>
 <g transform="matrix(.84211 0 0 .84211 1.3368 1.3169)" fill="#fff">
  <path d="m3.464 3.464c-0.313 0-0.313 0.312-0.313 0.312v1.251s0 0.315 0.313 0.313l0.312-2e-3v7.505c0 0.346 0.28 0.625 0.626 0.625h0.957c0.033-0.012 6.946-7.055 7.994-8.13l0.117 2e-3c0.312 6e-3 0.312-0.313 0.312-0.313v-1.25c0-0.313-0.312-0.313-0.312-0.313h-3.753s-0.312 0-0.312 0.312v1.251c0 0.313 0.312 0.313 0.312 0.313s0.313 0 0.294-2e-3l-3.108 3.129v-3.13l0.313 3e-3c0.313 2e-3 0.313-0.313 0.313-0.313v-1.25c0-0.347-0.313-0.313-0.313-0.313z" fill-rule="evenodd" style="paint-order:markers stroke fill"/>
  <g font-size="4.304" font-style="italic" font-weight="700" letter-spacing="0" stroke="#000" stroke-opacity=".098" stroke-width=".265" word-spacing="0" style="paint-order:markers stroke fill" aria-label="im">
   <path d="m8.607 13.517h0.629l0.482-2.41h-0.629zm0.878-2.797a0.446 0.446 0 0 0 0.444-0.345c0.043-0.206-0.09-0.344-0.306-0.344a0.443 0.443 0 0 0-0.448 0.344c-0.038 0.198 0.09 0.345 0.31 0.345zm0.434 2.797h0.628l0.332-1.657c0.206-0.18 0.383-0.27 0.52-0.27 0.228 0 0.306 0.133 0.233 0.503l-0.284 1.424h0.632l0.332-1.657c0.206-0.18 0.383-0.27 0.52-0.27 0.229 0 0.306 0.133 0.233 0.503l-0.284 1.424h0.633l0.301-1.502c0.12-0.607-0.043-0.968-0.555-0.968-0.314 0-0.586 0.19-0.852 0.422-0.06-0.267-0.233-0.422-0.577-0.422-0.314 0-0.573 0.172-0.818 0.383h-0.017l0.021-0.323h-0.516z" stroke="none"/>
  </g>
 </g>
</svg>
