<svg width="64" height="64" xmlns="http://www.w3.org/2000/svg"><g transform="matrix(1.35 0 0 1.35 -.4 -22)" stroke-width=".741"><circle cx="24" cy="40" r="20" fill="#e6e6e6"/><path d="M7 33h3l3.5 10L17 33h3l-5 14h-3z" fill="#f54c5d"/><path d="m18 47 5-14h3l-5 14zm10 0 5-14h3l-5 14z" fill="#3d4043"/><path d="m15 47 5-14h3l-5 14zm10 0 5-14h3l-5 14z" fill="#8a9495"/><path d="M28 47h-3l-5-14h3zm10 0h-3l-5-14h3z" fill="#b7babe"/><path d="m23 33 5 14h3l-5-14zm10 0 5 14h3l-5-14z" fill="#4f4f4f"/></g></svg>