<svg width="64" height="64" version="1.1" viewBox="0 0 16.933 16.933" xmlns="http://www.w3.org/2000/svg">
 <g transform="translate(0 -280.07)">
  <g transform="matrix(1.0385 0 0 1.0385 -.32619 -11.099)" stroke-width=".92729">
   <circle cx="8.467" cy="288.53" r="6.879" fill="#fc5555" style="paint-order:stroke markers fill"/>
  </g>
  <path d="m4.9005 286.41 2.9797 5.2637s0.16153 0.28214 0.5675 0.28214c0.4049 0 0.56643-0.28214 0.56643-0.28214s2.0708-3.1713 2.9161-4.8631c0.08507-0.17014 0.1766-0.34244 0.21537-0.52765a0.89917 0.89917 0 0 0 0.0075-0.38767 0.83133 0.83133 0 0 0-0.22291-0.41782 0.88625 0.88625 0 0 0-0.49966-0.21753 1.037 1.037 0 0 0-0.57612 0.1163 0.7538 0.7538 0 0 0-0.29829 0.2886 0.91533 0.91533 0 0 0-0.09369 0.40059 1.0919 1.0919 0 0 0 0.06138 0.37475c0.028 0.0765 0.06461 0.15076 0.09369 0.22614 0.02261 0.0646 0.056 0.12599 0.06246 0.19383a0.68919 0.68919 0 0 1-0.03015 0.32413c-0.19383 0.4932-0.52874 0.96594-0.97132 1.2556-0.18307 0.11953-0.41782 0.14968-0.63534 0.15937-0.24983 0.0108-0.53843-9e-3 -0.7398-0.11953-0.20245-0.10984-0.29721-0.30152-0.42428-0.46951-0.5815-0.7721-1.5324-2.4628-1.5324-2.4628s-0.41351-0.73118-1.1576-0.28859c-0.74303 0.44366-0.28967 1.1522-0.28967 1.1522z" fill="#fff" fill-rule="evenodd" stroke-width="1.0769"/>
 </g>
</svg>
