<?xml version="1.0" encoding="UTF-8" standalone="no"?>
<svg
   width="64"
   height="64"
   viewBox="0 0 16.933 16.933"
   version="1.1"
   id="svg2"
   sodipodi:docname="vlc.svg"
   xml:space="preserve"
   inkscape:version="1.3.2 (091e20ef0f, 2023-11-25, custom)"
   xmlns:inkscape="http://www.inkscape.org/namespaces/inkscape"
   xmlns:sodipodi="http://sodipodi.sourceforge.net/DTD/sodipodi-0.dtd"
   xmlns="http://www.w3.org/2000/svg"
   xmlns:svg="http://www.w3.org/2000/svg"><defs
     id="defs2" /><sodipodi:namedview
     id="namedview2"
     pagecolor="#505050"
     bordercolor="#ffffff"
     borderopacity="1"
     inkscape:showpageshadow="0"
     inkscape:pageopacity="0"
     inkscape:pagecheckerboard="1"
     inkscape:deskcolor="#505050"
     inkscape:zoom="9.453125"
     inkscape:cx="32"
     inkscape:cy="32"
     inkscape:window-width="1366"
     inkscape:window-height="844"
     inkscape:window-x="0"
     inkscape:window-y="0"
     inkscape:window-maximized="1"
     inkscape:current-layer="svg2" /><circle
     cx="8.466"
     cy="8.466"
     r="7.144"
     fill="#f0f0f0"
     style="paint-order:stroke fill markers;fill:#454545;fill-opacity:1"
     id="circle1" /><g
     id="g3"
     transform="matrix(0.15591232,0,0,0.155913,3.4773116,3.4772593)"><path
       style="fill:#ff8800;fill-rule:evenodd"
       d="m 13.801454,38.00012 c -1.129914,2.8e-4 -2.148988,0.678902 -2.583786,1.720703 L 4.2183064,56.127091 C 3.4499506,57.969165 4.8043832,59.9994 6.8020924,60 H 57.197819 C 59.195508,59.99938 60.55,57.969145 59.781605,56.127091 L 52.782243,39.720823 C 52.347425,38.679022 51.328411,38.0004 50.198457,38.00012 Z"
       id="path1-3" /><path
       style="fill:#ff8800;fill-rule:evenodd"
       d="m 32.001848,4.0009564 c -1.271753,-0.014 -2.568586,0.2017389 -3.849579,0.7164301 -0.793816,0.3192903 -1.398092,0.9840546 -1.640491,1.8047142 l -2.575586,8.7064403 c 4.073378,8.760846 12.262333,2.870677 16.120512,0 L 37.481118,6.5221007 C 37.22426,5.6534554 36.563163,4.9627492 35.706668,4.6681608 34.520194,4.259641 33.273681,4.0151763 32.001888,4.0009564 Z M 20.62391,26.429122 17.516727,36.930135 c 1.005834,8.913263 16.661109,7.050882 28.855843,-0.357494 L 43.371786,26.430262 c -7.699358,3.062497 -10.822141,-5.870968 -22.747876,0 z"
       id="path3" /><path
       style="fill:#ffffff;fill-rule:evenodd"
       d="m 23.93712,15.400254 -6.42021,21.579825 3.107998,-10.441787 c 8.574749,3.828987 15.048764,3.045803 22.749458,0 l 3.001192,10.087493 c -12.18678,7.342472 -25.841655,2.112626 -28.857848,0.354094 l -2.202741,7.400359 c -0.341482,1.149354 0.09473,2.387349 1.082869,3.073256 4.315276,2.992689 9.919435,4.198001 15.497993,4.144887 5.578557,-0.05312 11.174315,-1.372015 15.569197,-4.05517 1.078488,-0.658972 1.578541,-1.955811 1.219597,-3.162973 L 40.060074,15.400254 c -3.860849,2.784807 -12.261985,2.784807 -16.122834,0 z"
       id="path5" /></g></svg>
