<svg xmlns="http://www.w3.org/2000/svg" xml:space="preserve" width="64" height="64" viewBox="0 0 16.933 16.933"><circle cx="8.466" cy="8.466" r="7.144" fill="#f0f0f0" style="paint-order:stroke fill markers;fill:#454545;fill-opacity:1"/><path d="M13.801 38a2.8 2.8 0 0 0-2.583 1.72l-7 16.407C3.45 57.97 4.804 60 6.802 60h50.396c1.998 0 3.352-2.03 2.584-3.873l-7-16.406A2.8 2.8 0 0 0 50.198 38Z" style="fill:#f80;fill-rule:evenodd" transform="translate(3.477 3.477)scale(.15591)"/><path d="M32.002 4.001a10 10 0 0 0-3.85.716 2.8 2.8 0 0 0-1.64 1.805l-2.576 8.707c4.074 8.76 12.263 2.87 16.12 0l-2.575-8.707a2.8 2.8 0 0 0-1.774-1.854 11.8 11.8 0 0 0-3.705-.667M20.624 26.429 17.517 36.93c1.006 8.913 16.66 7.051 28.856-.357L43.372 26.43c-7.7 3.063-10.822-5.87-22.748 0z" style="fill:#f80;fill-rule:evenodd" transform="translate(3.477 3.477)scale(.15591)"/><path d="m23.937 15.4-6.42 21.58 3.108-10.442c8.575 3.83 15.049 3.046 22.75 0l3 10.088c-12.186 7.342-25.841 2.112-28.857.354l-2.203 7.4a2.78 2.78 0 0 0 1.083 3.073c4.315 2.993 9.92 4.198 15.498 4.145s11.174-1.372 15.569-4.055a2.78 2.78 0 0 0 1.22-3.163L40.06 15.4c-3.86 2.785-12.262 2.785-16.123 0z" style="fill:#fff;fill-rule:evenodd" transform="translate(3.477 3.477)scale(.15591)"/></svg>