<?xml version="1.0" encoding="UTF-8" standalone="no"?>
<svg
   width="64"
   height="64"
   version="1.1"
   viewBox="0 0 64 64"
   id="svg10"
   sodipodi:docname="clapper.svg"
   inkscape:version="1.1.1 (3bf5ae0d25, 2021-09-20)"
   xmlns:inkscape="http://www.inkscape.org/namespaces/inkscape"
   xmlns:sodipodi="http://sodipodi.sourceforge.net/DTD/sodipodi-0.dtd"
   xmlns="http://www.w3.org/2000/svg"
   xmlns:svg="http://www.w3.org/2000/svg">
  <defs
     id="defs14" />
  <sodipodi:namedview
     id="namedview12"
     pagecolor="#ffffff"
     bordercolor="#666666"
     borderopacity="1.0"
     inkscape:pageshadow="2"
     inkscape:pageopacity="0.0"
     inkscape:pagecheckerboard="0"
     showgrid="false"
     inkscape:zoom="6.4921875"
     inkscape:cx="-19.022864"
     inkscape:cy="14.632972"
     inkscape:window-width="2560"
     inkscape:window-height="1360"
     inkscape:window-x="0"
     inkscape:window-y="44"
     inkscape:window-maximized="1"
     inkscape:current-layer="svg10" />
  <path
     d="m32 5c14.912 0 27 12.088 27 27s-12.088 27-27 27-27-12.088-27-27 12.088-27 27-27z"
     fill="#c0c0e2"
     style="paint-order:stroke fill markers;fill:#5252d6;fill-opacity:1"
     id="path2" />
  <path
     style="fill:#ffffff;fill-opacity:1;stroke:none;stroke-width:0.068;stroke-miterlimit:4;stroke-dasharray:none"
     d="m 34.494761,26.721643 c -3.374971,-1.292269 -7.328307,0.304276 -8.380371,3.901858 -0.179828,0.61485 -0.34706,1.342719 -0.244791,1.985157 -0.898591,0.213917 -1.887746,0.19653 -2.8066,0.285452 -1.414184,0.136838 -2.827136,0.301264 -4.244128,0.405176 -0.804673,0.05894 -1.952023,0.430645 -2.735475,0.244929 -0.388133,-0.09194 -0.670914,-0.667629 -0.96109,-0.922893 -0.644972,-0.567344 -1.601954,-0.904547 -2.464265,-0.822471 -2.40683,0.229046 -4.1034512,2.80085 -2.9211882,5.053935 1.2723452,2.424558 5.8444352,2.706796 6.4123242,-0.479177 2.471795,-0.051 5.000269,-0.450014 7.461452,-0.696105 0.811723,-0.08118 2.080923,-0.457749 2.867866,-0.240477 0.279634,0.07722 0.419005,0.450835 0.585827,0.66277 0.376289,0.478146 0.791392,0.893319 1.269609,1.269609 1.600104,1.259067 3.786789,1.449163 5.681654,0.89188 3.107454,-0.913991 4.831665,-4.458865 3.960661,-7.500878 -0.232538,-0.811997 -0.601366,-1.799713 -1.290969,-2.327425 1.109498,-1.301713 2.035951,-2.837196 3.010251,-4.244124 0.354521,-0.511899 0.785301,-1.468469 1.314926,-1.800538 0.394362,-0.247255 1.535895,0.125683 2.041015,0.07756 1.695392,-0.161412 3.318085,-1.094299 4.184161,-2.5896 2.388212,-4.123103 -1.515017,-9.386026 -6.169317,-7.989914 -0.603831,0.181129 -1.204648,0.435709 -1.711342,0.81864 -1.960444,1.481814 -2.601239,3.910895 -1.886857,6.212921 0.134511,0.433518 0.381561,0.859847 0.639221,1.232168 0.132937,0.19208 0.410653,0.42756 0.378069,0.684535 -0.06585,0.519221 -0.787149,1.219776 -1.086565,1.642889 -0.918991,1.298976 -2.333653,2.761217 -2.904078,4.244126 m 8.009078,-11.888624 c 2.847261,-0.224869 3.033251,4.234408 0.205361,4.483713 -2.934197,0.258619 -3.124842,-4.253229 -0.205361,-4.483713 m -22.452802,1.37852 c -0.46829,0.08275 -0.906668,0.240272 -1.300619,0.509021 -2.82741,1.929024 -0.791187,6.290619 2.464332,5.66721 3.900627,-0.746898 2.706384,-6.860084 -1.163713,-6.176231 m 4.244129,5.102261 -1.369074,1.281042 -0.53346,0.635662 0.462337,0.616082 1.097927,1.232168 c 0.792626,-0.363078 1.509541,-1.235796 2.122065,-1.84825 v -0.06845 l -1.779795,-1.848249 m 0.20536,4.244129 c 0.3307,0.528665 0.812066,0.983817 1.238327,1.437458 0.133347,0.141972 0.324538,0.38998 0.541468,0.387105 0.358971,-0.0048 0.838763,-0.659552 1.09526,-0.885792 0.203238,-0.179209 0.800633,-0.584592 0.8083,-0.876409 0.01164,-0.442829 -0.931175,-1.197323 -1.225183,-1.49859 -0.139372,-0.142863 -0.320911,-0.33905 -0.541469,-0.263068 -0.664754,0.228977 -1.38427,1.234153 -1.916703,1.699296 M 12.79495,33.726443 c 1.970233,-0.169766 2.150885,2.925912 0.205361,3.114231 -2.06032,0.199336 -2.243296,-2.938649 -0.205361,-3.114231 m 25.875484,3.194802 -1.985157,1.848247 v 0.06845 l 1.711343,1.848249 h 0.06845 L 39.765689,39.465663 40.319,38.837875 39.959344,38.221859 38.67043,36.921241 m -11.842483,0.616082 -1.369073,2.122063 1.574433,1.07609 0.678171,0.359931 0.761068,-0.888393 0.622517,-1.082663 -0.555774,-0.501422 -1.711342,-1.085606 m 14.033001,1.779793 -1.985156,1.84825 v 0.06845 c 0.391349,0.408941 1.138999,1.636042 1.711341,1.717707 0.258481,0.0369 0.5184,-0.261562 0.684537,-0.419756 0.455832,-0.434273 0.923644,-0.852523 1.369073,-1.297951 v -0.06845 l -1.779797,-1.848252 m -15.88125,0.889898 -1.050079,1.50598 -0.238766,0.593838 1.151938,0.883119 1.014209,0.584733 0.698844,-0.829523 0.671393,-1.092519 -0.536198,-0.540715 -1.711341,-1.104913 m 20.399191,1.195477 c -0.81056,0.07099 -1.565603,0.251772 -2.25897,0.700622 -3.859965,2.498627 -1.473534,8.391459 2.943507,7.949523 0.560704,-0.05607 1.081021,-0.259165 1.574435,-0.518535 3.824985,-2.010896 2.17484,-8.51995 -2.258972,-8.13161 M 22.378458,43.17982 c -0.546397,0.07825 -1.074995,0.252183 -1.505911,0.609307 -2.0966,1.73742 -0.648941,5.383128 2.121994,5.023267 3.646869,-0.473699 2.978694,-6.147344 -0.616083,-5.632574 z"
     id="path1628" />
</svg>
