<?xml version="1.0" encoding="UTF-8" standalone="no"?>
<svg
   width="64"
   height="64"
   image-rendering="optimizeSpeed"
   version="1.1"
   id="svg3"
   sodipodi:docname="vmware-workstation.svg"
   inkscape:version="1.3.2 (091e20ef0f, 2023-11-25)"
   xmlns:inkscape="http://www.inkscape.org/namespaces/inkscape"
   xmlns:sodipodi="http://sodipodi.sourceforge.net/DTD/sodipodi-0.dtd"
   xmlns="http://www.w3.org/2000/svg"
   xmlns:svg="http://www.w3.org/2000/svg">
  <defs
     id="defs3">
    <linearGradient
       id="b"
       gradientUnits="userSpaceOnUse"
       x1="-925.30298"
       y1="1069.467"
       x2="-925.30298"
       y2="1089.969"
       gradientTransform="matrix(0.88036111,0,0,-0.88036111,836.47567,971.8608)">
      <stop
         offset="0"
         stop-color="#ffef3f"
         id="stop3" />
      <stop
         offset="1"
         stop-color="#ffc001"
         id="stop4" />
    </linearGradient>
    <linearGradient
       id="c"
       gradientUnits="userSpaceOnUse"
       x1="-1149.1949"
       y1="2328.906"
       x2="-1149.1949"
       y2="2348.6479"
       gradientTransform="matrix(0.7906,0,0,-0.7906,946.545,2865.39)">
      <stop
         offset="0"
         stop-color="#fff"
         id="stop5" />
      <stop
         offset="1"
         stop-color="#fff"
         stop-opacity=".755"
         id="stop6"
         style="stop-color:#ffffff;stop-opacity:0.91963083;" />
    </linearGradient>
  </defs>
  <sodipodi:namedview
     id="namedview3"
     pagecolor="#505050"
     bordercolor="#eeeeee"
     borderopacity="1"
     inkscape:showpageshadow="0"
     inkscape:pageopacity="0"
     inkscape:pagecheckerboard="0"
     inkscape:deskcolor="#505050"
     inkscape:zoom="4.5209703"
     inkscape:cx="37.381356"
     inkscape:cy="36.607186"
     inkscape:window-width="1600"
     inkscape:window-height="846"
     inkscape:window-x="0"
     inkscape:window-y="0"
     inkscape:window-maximized="1"
     inkscape:current-layer="svg3" />
  <path
     fill="#16baf7"
     d="M58.182 25.136a25.576 25.576 0 0 0-2.016-5.354 27.163 27.163 0 0 0-.704-1.282h-.001q-1.751-2.975-4.367-5.591C45.824 7.638 39.456 5 32 5s-13.82 2.638-19.092 7.91C7.638 18.18 5 24.544 5 32c0 7.456 2.637 13.823 7.908 19.094 3.893 3.893 8.38 6.347 13.437 7.359A28.66 28.66 0 0 0 32 59c7.457 0 13.823-2.634 19.094-7.905 2.78-2.78 4.828-5.863 6.14-9.256.973-2.514 1.545-5.194 1.714-8.051A30.78 30.78 0 0 0 59 32c0-2.388-.27-4.668-.818-6.864z"
     id="path1" />
  <g
     opacity="0.95"
     transform="matrix(0.88036118,0,0,0.88036118,0.3101404,-862.86728)"
     id="g6"
     style="opacity:1;stroke-width:0.99959;stroke-dasharray:none">
    <linearGradient
       id="linearGradient2"
       gradientUnits="userSpaceOnUse"
       x1="-1149.1949"
       y1="2328.906"
       x2="-1149.1949"
       y2="2348.6479"
       gradientTransform="matrix(0.7906,0,0,-0.7906,946.545,2865.39)">
      <stop
         offset="0"
         stop-color="#fff"
         id="stop1" />
      <stop
         offset="1"
         stop-color="#fff"
         stop-opacity=".755"
         id="stop2" />
    </linearGradient>
    <g
       id="g3"
       transform="matrix(-1,0,0,1,71.999257,0)">
      <path
         d="m 31.126745,25.950283 a 9.2434583,9.2434583 0 1 1 -9.243459,-9.243458 9.2434583,9.2434583 0 0 1 9.243459,9.243458 z"
         fill="url(#b)"
         id="path4"
         style="fill:url(#b);stroke-width:1.11353"
         transform="matrix(1.1358974,0,0,1.1358974,-1.3572909,981.37442)" />
      <path
         d="m 35,1004.362 c -6.628,0 -12,5.372 -12,12 v 0.156 c -3.418,0.699 -6,3.719 -6,7.345 a 7.5,7.5 0 0 0 7.5,7.499 c 0.166,0 0.337,-0.021 0.5,-0.031 v 0.031 h 24 v -0.031 c 5.562,-0.266 9.999,-4.841 9.999,-10.47 0,-5.798 -4.7,-10.5 -10.499,-10.5 -0.996,0 -1.962,0.147 -2.874,0.406 A 12.019,12.019 0 0 0 35,1004.362 Z"
         fill="url(#c)"
         id="path6"
         style="fill:url(#c);stroke-width:0.99959;stroke-dasharray:none" />
    </g>
  </g>
</svg>
