<svg width="64" height="64" version="1.1" viewBox="0 0 64 64" xmlns="http://www.w3.org/2000/svg">
 <g transform="matrix(1.1739 0 0 1.1739 3.8261 3.8261)">
  <g transform="rotate(-90,24,24)" fill="#4b576c">
   <path d="m24 1c12.703 0 23 10.297 23 23s-10.297 23-23 23-23-10.297-23-23 10.297-23 23-23z" fill="#4b576c"/>
  </g>
  <path d="m29 19c-5.5228 0-10 3.5817-10 8s4.4772 8 10 8c1.6252-0.0016 3.2254-0.32001 4.6621-0.92773l3.3379 1.9277-0.90234-3.3691c1.8577-1.4974 2.9008-3.5212 2.9023-5.6309 0-4.4183-4.4772-8-10-8zm-6 6c1.1046 0 2 0.89543 2 2s-0.89543 2-2 2-2-0.89543-2-2 0.89543-2 2-2zm6 0c1.1046 0 2 0.89543 2 2s-0.89543 2-2 2-2-0.89543-2-2 0.89543-2 2-2zm6 0c1.1046 0 2 0.89543 2 2s-0.89543 2-2 2-2-0.89543-2-2 0.89543-2 2-2z" fill="#ffffff"/>
  <path d="m20.5 12c-6.2962 0-11.5 4.1992-11.5 9.5 0.00204 2.7158 1.4454 5.2551 3.8457 7.0371l-1.8828 3.2578 5.4355-1.457c0.87054 0.27624 1.7744 0.46818 2.6934 0.57226-0.20196-0.34302-0.38291-0.69529-0.53125-1.0625-0.69853-0.10762-1.3833-0.26981-2.043-0.49023l-0.14258-0.04687-3.3379 0.89453 1.1152-1.9297-0.38477-0.26172c-2.4068-1.6298-3.7657-4.0156-3.7676-6.5137 0-4.6403 4.646-8.5 10.5-8.5 4.3057 0 7.9494 2.0921 9.5801 5.043 0.4047 0.03242 0.80125 0.08672 1.1934 0.1543-1.6315-3.6383-5.8635-6.1973-10.773-6.1973z" fill="#ffffff" opacity=".5"/>
 </g>
</svg>
