<?xml version="1.0" encoding="UTF-8"?>
<svg id="svg2782" width="64" height="64" version="1.1" xmlns="http://www.w3.org/2000/svg">
 <path id="path2774" d="m32 5c14.912 0 27 12.087 27 26.999s-12.088 27-27 27-27-12.088-27-27 12.088-27 27-27z" fill="#ffc688" stroke-width=".852"/>
 <path id="path195" d="m49 20.608-21.034 0.48915c-2.0681 0.04809-4.1488 0.8379-5.7883 2.1584-1.579 1.3028-2.5236 3.2242-3.0164 5.1788l7.5003-0.3261c0.06621-0.82535 0.53426-1.5744 1.1367-2.1215 0.54322-0.471 1.2365-0.78716 1.9612-0.81339l18.017-0.6522z" fill="#29b55d"/>
 <path id="path32" d="m18.428 30.555-3.1795 8.3971c-0.41983 1.1088-0.34757 2.5015 0.52425 3.3627 1.0283 1.0157 2.5893 1.1647 3.9596 1.0397l22.338-2.0381 4.973-14.675-6.359 0.24458-3.8317 10.843-3.4241 0.24458 3.8317-10.924-6.8481 0.3261-4.0763 11.25-2.2827 0.08153c-0.66098 0.02361-1.0189-0.89605-0.81526-1.4675l2.5273-7.0927z" fill="#384aaa"/>
</svg>
