<svg width="64" height="64" version="1.1" viewBox="0 0 64 64" xmlns="http://www.w3.org/2000/svg">
 <circle cx="32" cy="32" r="27" fill="#3b3a58" stroke-width=".96429"/>
 <path d="m23.384 19.693c-0.68181 0-1.2307 0.5489-1.2307 1.2307v1.2812c-1.7485 0.14711-3.1539 0.62168-4.2114 1.435-1.295 0.99607-1.9421 2.5143-1.9421 4.0527 0 1.6313 0.75893 3.1521 2.0841 4.1152 1.0654 0.77437 2.4413 1.219 4.0694 1.3653v6.1463c-1.2954-0.13712-2.2009-0.48173-2.7618-0.87015-0.72471-0.50173-0.93024-1.0136-0.93024-1.5264 0-0.6797-0.55101-1.2307-1.2307-1.2307s-1.2307 0.55101-1.2307 1.2307c0 1.3332 0.7175 2.6674 1.9927 3.5504 1.0394 0.71961 2.4246 1.1723 4.1609 1.3173v1.2859c0 0.68181 0.5489 1.2307 1.2307 1.2307 0.68181 0 1.2307-0.5489 1.2307-1.2307v-1.2812c1.7485-0.14711 3.1539-0.62168 4.2114-1.435 1.295-0.99607 1.9421-2.5143 1.9421-4.0527 0-1.6313-0.75893-3.1521-2.0841-4.1152-1.0654-0.77437-2.4413-1.219-4.0694-1.3653v-6.1463c1.2954 0.13712 2.2009 0.48173 2.7618 0.87015 0.72471 0.50173 0.93024 1.0136 0.93024 1.5264 0 0.6797 0.55101 1.2307 1.2307 1.2307s1.2307-0.55101 1.2307-1.2307c0-1.3332-0.7175-2.6674-1.9927-3.5504-1.0394-0.71961-2.4246-1.1723-4.1609-1.3173v-1.2859c0-0.68181-0.5489-1.2307-1.2307-1.2307zm10.903 2.4732c-0.67312 0.09547-1.1414 0.71866-1.0456 1.3919l2.4614 17.23c0.17311 1.2346 1.8612 1.459 2.3509 0.31249l2.56-5.9733 2.56 5.9733c0.48963 1.1466 2.1777 0.92217 2.3509-0.31249l2.4614-17.23c0.0957-0.6731-0.3725-1.2963-1.0456-1.3919-0.6731-0.0957-1.2963 0.3725-1.3919 1.0456l-1.8413 12.882-1.9615-4.5791c-0.42535-0.99726-1.8389-0.99726-2.2643 0l-1.9615 4.5791-1.8413-12.882c-0.09547-0.67312-0.71866-1.1414-1.3919-1.0456zm-12.134 2.5169v6.0166c-1.1802-0.13739-2.0535-0.46861-2.6225-0.88218-0.75172-0.54637-1.0697-1.1792-1.0697-2.1249 0-0.92303 0.27572-1.5586 0.98072-2.1008 0.54524-0.41941 1.4271-0.76953 2.7114-0.9086zm2.4614 8.6174c1.1803 0.13739 2.0535 0.46861 2.6225 0.88218 0.75172 0.54637 1.0697 1.1792 1.0697 2.1249 0 0.92303-0.27572 1.5586-0.98072 2.1008-0.54524 0.41941-1.4271 0.76953-2.7114 0.9086z" fill="#7c7ce4" stroke-width="1.2307"/>
</svg>
