<svg xmlns="http://www.w3.org/2000/svg" width="64" height="64"><circle cx="32" cy="32" r="27" fill="#3b3a58"/><path fill="#7c7ce4" d="M23.384 19.693c-.682 0-1.23.549-1.23 1.23v1.282c-1.75.147-3.155.622-4.212 1.435-1.295.996-1.942 2.514-1.942 4.053a5.06 5.06 0 0 0 2.084 4.115c1.065.774 2.441 1.219 4.07 1.365v6.146c-1.296-.137-2.202-.481-2.762-.87-.725-.501-.93-1.013-.93-1.526a1.23 1.23 0 0 0-2.462 0c0 1.333.717 2.667 1.993 3.55 1.039.72 2.424 1.173 4.16 1.318v1.285c0 .682.55 1.231 1.231 1.231.682 0 1.23-.549 1.23-1.23v-1.282c1.75-.147 3.155-.621 4.212-1.435 1.295-.996 1.942-2.514 1.942-4.052a5.06 5.06 0 0 0-2.084-4.116c-1.065-.774-2.441-1.219-4.07-1.365v-6.146c1.296.137 2.202.481 2.763.87.724.502.93 1.013.93 1.526a1.23 1.23 0 0 0 2.461 0c0-1.333-.717-2.667-1.992-3.55-1.04-.72-2.425-1.172-4.161-1.317v-1.286c0-.682-.55-1.231-1.231-1.231m10.903 2.473a1.23 1.23 0 0 0-1.046 1.392l2.462 17.23c.173 1.235 1.861 1.46 2.35.313l2.56-5.974 2.56 5.974c.49 1.146 2.178.922 2.352-.313l2.461-17.23a1.23 1.23 0 1 0-2.437-.346l-1.842 12.882-1.961-4.58c-.426-.997-1.84-.997-2.265 0l-1.961 4.58-1.841-12.882a1.23 1.23 0 0 0-1.392-1.046m-12.134 2.517V30.7c-1.18-.138-2.053-.469-2.622-.882-.752-.547-1.07-1.18-1.07-2.125 0-.923.276-1.559.98-2.101.546-.42 1.428-.77 2.712-.909m2.461 8.618c1.18.137 2.054.468 2.623.882.752.546 1.07 1.179 1.07 2.125 0 .923-.276 1.558-.981 2.1-.545.42-1.427.77-2.712.909z"/></svg>