<svg width="64" height="64" version="1.1" viewBox="0 0 64 64" xmlns="http://www.w3.org/2000/svg">
 <g transform="matrix(1.1739 0 0 1.1739 3.8261 3.8261)">
  <path d="m24 1c12.703 0 23 10.297 23 23s-10.297 23-23 23-23-10.297-23-23 10.297-23 23-23z" fill="#67ac5e"/>
  <path d="m22.796 17.504c-0.181-0.462-0.317-0.479-0.592-0.496-0.095-4e-3 -0.2-8e-3 -0.31-8e-3 -0.358 0-0.724 0.114-0.947 0.356-0.271 0.299-0.947 0.994-0.947 2.426s0.96654 2.8157 1.1028 3.0074c0.13628 0.19693 1.8954 3.174 4.6249 4.3901 2.1332 0.94905 2.7672 0.86734 3.2544 0.75316 0.70558-0.1676 1.5967-0.72802 1.82-1.4079 0.22617-0.67879 0.22617-1.2602 0.15851-1.3827-0.06766-0.11837-0.24937-0.19274-0.5171-0.33939-0.2716-0.14351-1.6006-0.84744-1.85-0.94486-0.24937-0.09847-0.47941-0.06599-0.66788 0.21684-0.26387 0.39282-0.5171 0.79402-0.72878 1.0308-0.16238 0.18855-0.42624 0.21684-0.65725 0.10999-0.29866-0.13513-1.1405-0.45462-2.1747-1.4445-0.80416-0.76888-1.3483-1.7232-1.5068-2.0133-0.15851-0.29016-0.01546-0.46195 0.10922-0.62222 0.13628-0.18017 0.26387-0.31111 0.40015-0.47871 0.13628-0.17179 0.21167-0.26188 0.30253-0.45881 0.09085-0.19274 0.02997-0.39282-0.03769-0.53633-0.06766-0.1477-0.61182-1.5797-0.83413-2.161" fill="#fff" fill-rule="evenodd" stroke-width="1.0062"/>
  <path d="m25.001 11c-6.6156 0-12.002 5.3844-12 12 5.91e-4 2.1633 0.65532 4.2538 1.7598 6.1055l-2.761 6.894 6.667-2.908c1.9041 1.1954 4.0772 1.9075 6.334 1.9082 6.6156 0.0019 12-5.3844 12-12s-5.3844-12-12-12zm0 2c5.5347 0 10 4.4653 10 10 0 5.534-4.4643 10.001-9.998 10-2.0573-3.59e-4 -4.0639-0.63978-5.7461-1.8242l-0.46094-0.32422-3.1133 1.3613 1.2852-3.248-0.29102-0.43555c-1.0909-1.6386-1.6736-3.5627-1.6758-5.5312 0.0011-5.5338 4.466-9.998 10-9.998z" color="#000000" color-rendering="auto" dominant-baseline="auto" fill="#f9f9f9" image-rendering="auto" shape-rendering="auto" solid-color="#000000" style="font-feature-settings:normal;font-variant-alternates:normal;font-variant-caps:normal;font-variant-ligatures:normal;font-variant-numeric:normal;font-variant-position:normal;isolation:auto;mix-blend-mode:normal;shape-padding:0;text-decoration-color:#000000;text-decoration-line:none;text-decoration-style:solid;text-indent:0;text-orientation:mixed;text-transform:none;white-space:normal"/>
 </g>
</svg>
