<?xml version="1.0" encoding="UTF-8" standalone="no"?>
<svg
   width="64"
   height="64"
   version="1.1"
   id="svg8"
   xmlns="http://www.w3.org/2000/svg"
   xmlns:svg="http://www.w3.org/2000/svg">
  <defs
     id="defs12" />
  <g
     transform="translate(3,-3)"
     id="g6">
    <circle
       cx="29"
       cy="35"
       r="27"
       fill="#4d4d4d"
       style="paint-order:stroke markers fill"
       id="circle2" />
    <path
       style="fill:#ffffff;stroke-width:0.0577193"
       d="m 27.958,51.152 -0.577,-0.083 c -1.916,-0.272 -3.896,-1.167 -5.425,-2.451 -2.367,-1.987 -3.762,-4.76 -3.959,-7.867 l -0.04,-0.632 0.513,0.026 c 3.616,0.185 6.8,2.011 8.794,5.041 0.917,1.394 1.597,3.319 1.715,4.854 0.02,0.251 0.054,0.456 0.076,0.456 0.022,0 0.056,-0.205 0.076,-0.456 0.084,-1.09 0.497,-2.539 1.046,-3.669 1.353,-2.788 3.813,-4.875 6.814,-5.781 0.645,-0.195 1.5,-0.36 2.063,-0.397 0.262,-0.017 0.617,-0.045 0.788,-0.06 l 0.312,-0.03 -0.041,0.652 c -0.24,3.807 -2.313,7.126 -5.638,9.03 a 10.962,10.962 0 0 1 -3.97,1.32 c -0.546,0.073 -2.167,0.103 -2.547,0.047 z m -1.553,-8.75 c -0.3,-0.157 -0.34,-0.29 -0.553,-1.833 -0.112,-0.81 -0.217,-1.53 -0.233,-1.602 -0.021,-0.095 -0.172,-0.202 -0.562,-0.397 a 10.22,10.22 0 0 1 -0.992,-0.582 l -0.46,-0.316 -1.558,0.62 c -1.554,0.618 -1.56,0.62 -1.786,0.539 -0.218,-0.078 -0.27,-0.157 -1.466,-2.216 -1.316,-2.268 -1.403,-2.467 -1.189,-2.73 0.059,-0.073 0.666,-0.568 1.348,-1.1 l 1.241,-0.967 -0.027,-0.458 a 7.362,7.362 0 0 1 0.013,-1.383 l 0.043,-0.52 -1.305,-1.01 C 18.131,27.838 17.591,27.38 17.558,27.293 a 0.633,0.633 0 0 1 -0.025,-0.296 c 0.047,-0.236 2.386,-4.273 2.579,-4.451 0.094,-0.088 0.237,-0.159 0.317,-0.159 0.08,0 0.828,0.275 1.661,0.61 l 1.516,0.61 0.547,-0.364 c 0.3,-0.201 0.747,-0.456 0.991,-0.567 0.245,-0.112 0.456,-0.241 0.47,-0.289 0.015,-0.048 0.125,-0.787 0.244,-1.642 0.205,-1.463 0.228,-1.567 0.375,-1.732 l 0.157,-0.176 2.53,-0.014 c 1.937,-0.011 2.563,0.002 2.669,0.057 0.3,0.157 0.34,0.29 0.554,1.833 0.112,0.81 0.216,1.53 0.232,1.602 0.022,0.095 0.173,0.201 0.563,0.396 0.293,0.147 0.74,0.41 0.993,0.583 l 0.46,0.317 1.555,-0.622 1.555,-0.62 0.23,0.08 c 0.221,0.08 0.268,0.15 1.468,2.218 1.316,2.268 1.403,2.467 1.19,2.73 -0.06,0.072 -0.666,0.568 -1.349,1.102 -1.048,0.82 -1.239,0.993 -1.227,1.11 0.031,0.328 0.023,1.954 -0.01,2.06 -0.031,0.097 0.167,0.276 1.266,1.138 0.716,0.562 1.327,1.07 1.358,1.127 a 0.686,0.686 0 0 1 0.056,0.269 c 0,0.205 -2.35,4.301 -2.6,4.533 -0.095,0.087 -0.237,0.159 -0.316,0.159 -0.079,0 -0.825,-0.275 -1.658,-0.611 l -1.515,-0.61 -0.55,0.365 c -0.303,0.2 -0.75,0.456 -0.995,0.567 -0.244,0.111 -0.455,0.241 -0.47,0.289 a 63.05,63.05 0 0 0 -0.243,1.642 c -0.205,1.462 -0.227,1.566 -0.375,1.732 l -0.157,0.175 -2.53,0.015 c -1.937,0.011 -2.562,-0.002 -2.669,-0.058 z m 3.343,-7.4 a 4.284,4.284 0 0 0 2.368,-1.242 c 0.725,-0.725 1.14,-1.569 1.277,-2.598 0.124,-0.929 -0.11,-1.997 -0.623,-2.845 -0.28,-0.462 -0.987,-1.169 -1.449,-1.448 -0.85,-0.515 -1.915,-0.748 -2.852,-0.623 -0.63,0.084 -1.386,0.356 -1.867,0.67 -0.464,0.304 -1.108,0.96 -1.376,1.401 -0.514,0.845 -0.748,1.915 -0.624,2.845 0.134,1.013 0.55,1.87 1.248,2.57 0.491,0.492 0.947,0.798 1.528,1.025 0.797,0.31 1.57,0.39 2.37,0.246 z"
       id="path4" />
  </g>
  <g
     transform="matrix(3.779602,0,0,3.779602,0.22458866,-1053.9904)"
     paint-order="stroke markers fill"
     id="g16">
    <circle
       cx="12.640656"
       cy="291.56287"
       fill="#ff5555"
       id="circle6"
       style="fill:#262626;fill-opacity:1"
       r="3.175" />
  </g>
  <g
     id="layer1">
    <path
       style="fill:#fefefe;fill-opacity:1;stroke-width:0.0201596"
       d="M 41.691506,54.003121 C 41.36706,53.971661 40.980051,53.829828 40.700287,53.639845 40.519738,53.517234 40.260583,53.26143 40.139558,53.086358 39.86615,52.690862 39.711804,52.166693 39.74225,51.737072 c 0.01608,-0.226832 0.952656,-6.811036 1.003224,-7.052712 0.136347,-0.651626 0.489214,-1.280353 0.983086,-1.751637 0.497949,-0.475173 1.106018,-0.781095 1.805874,-0.908541 l 0.243591,-0.04436 h 4.223436 4.223436 l 0.244943,0.04459 c 1.131424,0.205958 2.053908,0.906635 2.536699,1.926755 0.133247,0.281549 0.219847,0.550929 0.271747,0.845309 0.05977,0.339012 0.968405,6.751741 0.981787,6.929028 0.02323,0.307889 -0.0573,0.711994 -0.203726,1.022019 -0.11128,0.235628 -0.222747,0.398861 -0.399264,0.584688 -0.732506,0.771138 -1.888407,0.904147 -2.78952,0.320989 -0.151284,-0.0979 -0.341338,-0.2778 -1.22773,-1.16214 l -1.048737,-1.046304 h -2.589285 -2.589285 l -1.039006,1.034922 c -0.594471,0.592131 -1.096262,1.075214 -1.172829,1.129094 -0.179566,0.126372 -0.514998,0.283736 -0.71288,0.334441 -0.149396,0.03827 -0.491165,0.0844 -0.58463,0.0789 -0.02219,-0.0013 -0.117429,-0.0098 -0.211675,-0.01898 z m 0.418959,-1.742658 c 0.05213,-0.02157 0.458872,-0.414575 1.335301,-1.290215 l 1.26035,-1.259219 h 3.295345 3.295346 l 1.260349,1.259219 c 0.876427,0.87564 1.283184,1.268658 1.335302,1.290215 0.191249,0.07909 0.429072,0.01625 0.553234,-0.146138 0.128771,-0.168446 0.154106,0.07732 -0.377523,-3.66173 -0.299907,-2.109312 -0.497841,-3.441353 -0.524344,-3.528759 -0.180412,-0.594893 -0.690747,-1.063896 -1.293021,-1.188299 -0.13895,-0.0287 -0.584964,-0.03206 -4.249343,-0.03206 -4.493672,0 -4.224497,-0.0071 -4.537045,0.120069 -0.21504,0.08751 -0.350403,0.176076 -0.535862,0.350607 -0.253946,0.238985 -0.420452,0.515881 -0.500606,0.832508 -0.03329,0.131485 -0.978472,6.749588 -0.978161,6.848985 4.4e-4,0.146711 0.139839,0.341298 0.292119,0.407818 0.0828,0.03615 0.277681,0.03456 0.368559,-0.003 z m 2.457144,-3.409575 c -0.0074,-0.0074 -0.01344,-0.397481 -0.01344,-0.866863 V 47.130602 H 43.697384 42.8406 v -0.423351 -0.423352 h 0.856567 0.856566 l 0.0053,-0.861823 0.0053,-0.861823 0.42839,-0.0054 0.428393,-0.0054 v 0.867263 0.867264 h 0.856783 0.856783 v 0.423351 0.423352 h -0.856728 -0.856783 v 0.866864 0.866862 h -0.419992 c -0.230996,0 -0.426038,-0.0061 -0.433431,-0.01344 z m 7.58759,-0.0092 c -0.161011,-0.02726 -0.308815,-0.102471 -0.433893,-0.220761 -0.186364,-0.176255 -0.272553,-0.373439 -0.272553,-0.623543 0,-0.250103 0.08619,-0.447286 0.272553,-0.623542 0.335376,-0.317184 0.853458,-0.309544 1.180228,0.0174 0.591033,0.59135 0.07721,1.589913 -0.746335,1.450443 z m -1.708513,-2.57846 c -0.261079,-0.03758 -0.520431,-0.231009 -0.633379,-0.472376 -0.345004,-0.737257 0.405221,-1.487483 1.142479,-1.142478 0.412212,0.192897 0.595652,0.704588 0.403256,1.124838 -0.160656,0.350921 -0.523788,0.545954 -0.912356,0.490016 z"
       id="path1294" />
  </g>
</svg>
