<?xml version="1.0" encoding="UTF-8" standalone="no"?>
<svg
   width="64"
   height="64"
   version="1.1"
   id="svg8"
   sodipodi:docname="wicked.svg"
   inkscape:version="1.1.1 (3bf5ae0d25, 2021-09-20)"
   inkscape:export-filename="/home/maeve/Documents/wicked.png"
   inkscape:export-xdpi="768"
   inkscape:export-ydpi="768"
   xmlns:inkscape="http://www.inkscape.org/namespaces/inkscape"
   xmlns:sodipodi="http://sodipodi.sourceforge.net/DTD/sodipodi-0.dtd"
   xmlns="http://www.w3.org/2000/svg"
   xmlns:svg="http://www.w3.org/2000/svg">
  <defs
     id="defs12" />
  <sodipodi:namedview
     id="namedview10"
     pagecolor="#ffffff"
     bordercolor="#666666"
     borderopacity="1.0"
     inkscape:pageshadow="2"
     inkscape:pageopacity="0.0"
     inkscape:pagecheckerboard="0"
     showgrid="false"
     inkscape:zoom="6.4375"
     inkscape:cx="17.165049"
     inkscape:cy="25.475728"
     inkscape:window-width="1920"
     inkscape:window-height="1000"
     inkscape:window-x="0"
     inkscape:window-y="44"
     inkscape:window-maximized="1"
     inkscape:current-layer="g6" />
  <g
     transform="translate(3,-3)"
     id="g6">
    <circle
       cx="29"
       cy="35"
       r="27"
       fill="#4d4d4d"
       stroke-width=".9"
       style="paint-order:stroke markers fill"
       id="circle2" />
    <path
       style="fill:#ffffff;stroke-width:0.0577193"
       d="m 27.958322,51.152056 c -0.07937,-0.01167 -0.339101,-0.04887 -0.577195,-0.08275 -1.916117,-0.272527 -3.895674,-1.166998 -5.425625,-2.451583 -2.366742,-1.98717 -3.7617,-4.759612 -3.95833,-7.867074 l -0.03999,-0.632023 0.512886,0.02627 c 3.615825,0.18554 6.80041,2.011221 8.793472,5.041189 0.917181,1.394351 1.597251,3.31844 1.715671,4.854069 0.01935,0.250869 0.05344,0.456123 0.07578,0.456123 0.02234,0 0.05644,-0.205254 0.07578,-0.456123 0.08401,-1.089289 0.497204,-2.538842 1.045877,-3.669021 1.353431,-2.787852 3.813623,-4.874928 6.814761,-5.78124 0.644495,-0.194628 1.499257,-0.359058 2.062613,-0.396763 0.262375,-0.01754 0.617144,-0.04482 0.788377,-0.06059 l 0.311336,-0.02869 -0.04109,0.650827 c -0.240384,3.807104 -2.312696,7.126021 -5.638044,9.029639 -1.180238,0.675633 -2.55168,1.13199 -3.968752,1.320642 -0.546859,0.0728 -2.168175,0.102772 -2.547526,0.0471 z m -1.55286,-8.750782 c -0.300899,-0.156701 -0.340881,-0.288999 -0.553848,-1.832692 -0.111682,-0.809511 -0.216311,-1.530267 -0.232514,-1.601681 -0.02155,-0.09499 -0.172478,-0.201462 -0.56227,-0.396663 -0.293047,-0.14675 -0.739543,-0.408818 -0.992212,-0.58237 l -0.459397,-0.315548 -1.558579,0.619636 c -1.554126,0.617874 -1.559226,0.619409 -1.785208,0.539051 -0.218574,-0.07772 -0.270703,-0.156522 -1.466117,-2.216204 -1.316406,-2.268149 -1.402994,-2.46698 -1.189157,-2.730601 0.05882,-0.07253 0.665401,-0.566985 1.347933,-1.098796 l 1.240967,-0.966932 -0.02698,-0.458946 c -0.0373,-0.634588 -0.03583,-0.78803 0.01318,-1.382458 l 0.04288,-0.519474 -1.305519,-1.010089 c -0.787815,-0.60954 -1.327419,-1.067313 -1.360747,-1.154389 -0.03039,-0.07937 -0.04161,-0.212687 -0.02496,-0.296274 0.04697,-0.235888 2.385636,-4.272438 2.578865,-4.451147 0.0944,-0.0873 0.237174,-0.158729 0.317292,-0.158729 0.08012,0 0.827667,0.274655 1.661222,0.610343 l 1.51555,0.610345 0.546862,-0.365036 c 0.300773,-0.200771 0.7469,-0.455946 0.991391,-0.567055 0.244494,-0.111111 0.456228,-0.240979 0.470522,-0.288597 0.01429,-0.04761 0.123984,-0.786668 0.243763,-1.642328 0.204705,-1.462386 0.2272,-1.566302 0.37484,-1.731583 l 0.157067,-0.175833 2.53,-0.01454 c 1.937105,-0.0111 2.562512,0.0025 2.668735,0.05771 0.3009,0.156704 0.340882,0.289003 0.553847,1.832693 0.111682,0.809515 0.216312,1.530272 0.232514,1.601683 0.02155,0.09499 0.17248,0.20146 0.562271,0.396661 0.293047,0.146752 0.739928,0.409086 0.993067,0.582961 l 0.460255,0.316137 1.554989,-0.621168 1.554991,-0.62117 0.229362,0.08153 c 0.222142,0.07896 0.268396,0.148779 1.468849,2.217147 1.316239,2.267863 1.403142,2.467373 1.189157,2.730026 -0.05882,0.07222 -0.6654,0.568247 -1.347933,1.102303 -1.048384,0.820321 -1.238918,0.992423 -1.227758,1.108993 0.03145,0.328643 0.02386,1.954788 -0.0096,2.060291 -0.03104,0.09782 0.167408,0.276294 1.265682,1.138293 0.716374,0.562261 1.327742,1.069455 1.358593,1.127101 0.03085,0.05765 0.0561,0.178752 0.0561,0.269128 0,0.205175 -2.350052,4.301449 -2.60059,4.532973 -0.09447,0.0873 -0.236472,0.158726 -0.315562,0.158726 -0.07909,0 -0.825426,-0.274801 -1.658523,-0.610664 l -1.514723,-0.610662 -0.550483,0.365356 c -0.302767,0.200943 -0.750107,0.456265 -0.99409,0.567374 -0.243985,0.11111 -0.455305,0.240979 -0.469599,0.288596 -0.01429,0.04759 -0.123982,0.786664 -0.243763,1.642327 -0.204705,1.462383 -0.2272,1.566304 -0.374839,1.731586 l -0.157067,0.175831 -2.53,0.01456 c -1.937105,0.0111 -2.562511,-0.0022 -2.668735,-0.05769 z m 3.342161,-7.398441 c 0.938423,-0.169906 1.690417,-0.564455 2.3688,-1.242837 0.724754,-0.724753 1.139643,-1.569009 1.276612,-2.597764 0.123722,-0.929243 -0.110326,-1.99732 -0.623457,-2.845201 -0.279528,-0.461877 -0.986616,-1.168967 -1.448494,-1.448492 -0.850674,-0.514826 -1.915545,-0.747235 -2.852291,-0.622516 -0.628846,0.08373 -1.385965,0.355598 -1.866878,0.670375 -0.464121,0.303787 -1.107912,0.959095 -1.376322,1.400947 -0.513147,0.844731 -0.747908,1.914884 -0.624085,2.844887 0.134884,1.013123 0.550719,1.868901 1.24838,2.569157 0.491181,0.49301 0.94718,0.79902 1.528024,1.02542 0.796998,0.310656 1.569677,0.390874 2.369711,0.246024 z"
       id="path12" />
  </g>
</svg>
