<svg width="64" height="64" xmlns="http://www.w3.org/2000/svg"><path d="M8.953 17.998A27 27 0 0 0 5 32a27 27 0 0 0 27 27 27 27 0 0 0 27-27 27 27 0 0 0-3.943-14.002 27 27 0 0 0-.002 0z" fill="#ebebeb" style="paint-order:stroke fill markers"/><path d="M32.002 5A27.001 27.001 0 0 0 8.954 17.998h46.104A27.001 27.001 0 0 0 32.002 4.996z" fill="#666" style="paint-order:stroke markers fill"/><rect x="44.002" y="12" width="3.001" height="3.001" ry="1.5" opacity=".35" style="paint-order:stroke markers fill"/><rect x="38" y="12" width="3.001" height="3.001" ry="1.5" opacity=".35" style="paint-order:stroke markers fill"/><rect x="31.998" y="12" width="3.001" height="3.001" ry="1.5" opacity=".35" style="paint-order:stroke markers fill"/><rect x="20" y="22" width="30" height="27" rx="4" ry="4" fill="#fff"/><path d="M24 22c-2.216 0-4 1.784-4 4v4.998h29.998v-5.035A3.99 3.99 0 0 0 46 22H24z" fill="#666" style="paint-order:stroke markers fill"/><rect x="44" y="25" width="3.001" height="3.001" ry="1.5" opacity=".35" style="paint-order:stroke markers fill"/><rect x="38" y="25" width="3.001" height="3.001" ry="1.5" opacity=".35" style="paint-order:stroke markers fill"/><rect x="32" y="25" width="3.001" height="3.001" ry="1.5" opacity=".35" style="paint-order:stroke markers fill"/></svg>