<svg xmlns="http://www.w3.org/2000/svg" width="64" height="64"><circle cx="32" cy="32" r="27" fill="#535765"/><path fill="#3f3f3f" d="M31.377 8.6a2 2 0 0 0-.77.175l-14.958 6.651a2.02 2.02 0 0 0-1.067 1.125L8.709 31.826a2 2 0 0 0-.03.173 2.02 2.02 0 0 0 .071 1.376l6.652 14.951a2.02 2.02 0 0 0 1.125 1.067l15.281 5.87a2.02 2.02 0 0 0 1.55-.038l14.959-6.652a2.02 2.02 0 0 0 1.065-1.124l5.873-15.276a2 2 0 0 0 .057-.173 2.02 2.02 0 0 0-.096-1.376L48.56 15.671a2.02 2.02 0 0 0-1.124-1.064l-15.281-5.87a2 2 0 0 0-.78-.135z"/><path fill="#3f3f3f" d="M8.09 32a2.08 2.08 0 0 0 .073 1.41l6.823 15.336a2.08 2.08 0 0 0 1.153 1.094l15.674 6.02a2.08 2.08 0 0 0 1.59-.039L48.745 49a2.08 2.08 0 0 0 1.093-1.154l6.023-15.667A2 2 0 0 0 55.92 32z"/><path fill="#6a7081" d="M31.37 8a2.1 2.1 0 0 0-.79.178l-15.341 6.823a2.08 2.08 0 0 0-1.095 1.153L8.12 31.822a2 2 0 0 0-.03.178h47.83a2.08 2.08 0 0 0-.098-1.411l-6.826-15.337a2.08 2.08 0 0 0-1.153-1.092L32.169 8.14a2.1 2.1 0 0 0-.8-.14z"/><path fill="#fff" d="M20 21.714v20.571h4.8v-.037c.368-.086 1.386-.37 2.01-1.035l5.19-5.52 5.189 5.52c.625.665 1.643.949 2.01 1.035v.037H44V21.714h-5.142v14.05L32 28.108l-6.857 7.656v-14.05z"/><path fill="#3f3f3f" d="M31.461 11.43a1.78 1.779 0 0 0-.679.153L17.635 17.43a1.78 1.779 0 0 0-.939.988l-5.164 13.428a1.78 1.779 0 0 0-.026.154h2.412a2 2 0 0 1 .024-.135l4.553-11.85a1.57 1.57 0 0 1 .83-.872l11.602-5.159a1.6 1.6 0 0 1 .596-.135 1.6 1.6 0 0 1 .605.104l11.854 4.554a1.57 1.57 0 0 1 .873.828l5.161 11.6A1.57 1.57 0 0 1 50.09 32h2.413a1.78 1.779 0 0 0-.085-1.21L46.57 17.645a1.78 1.779 0 0 0-.99-.936l-13.435-5.162a1.78 1.779 0 0 0-.683-.118z"/><path fill="#6a7081" d="M11.506 32a1.78 1.779 0 0 0 .062 1.21l5.85 13.143a1.78 1.779 0 0 0 .987.938l13.434 5.162a1.78 1.779 0 0 0 1.362-.036l13.153-5.847a1.78 1.779 0 0 0 .936-.988l5.161-13.428a1.78 1.779 0 0 0 .052-.154H50.09a2 2 0 0 1-.042.135l-4.556 11.85a1.57 1.57 0 0 1-.825.872l-11.604 5.159a1.57 1.57 0 0 1-1.204.03l-11.852-4.554a1.57 1.57 0 0 1-.872-.827l-5.161-11.597A1.57 1.57 0 0 1 13.918 32z"/></svg>