<svg width="64" height="64" version="1.1" viewBox="0 0 16.933 16.933" xmlns="http://www.w3.org/2000/svg">
 <circle cx="8.4665" cy="8.4665" r="7.1436" fill="#4d4d4d" style="paint-order:stroke fill markers"/>
 <g fill="#fff">
  <path d="m5.4078 2.9098a6.3499 6.3499 0 0 0-2.498 2.4861v0.16019c0 0.29307 0.23609 0.52864 0.52916 0.52864h2.1171c0.29307 0 0.52864-0.23557 0.52864-0.52864v-2.1171c0-0.29307-0.23557-0.52916-0.52864-0.52916z" opacity=".75"/>
  <rect x="6.879" y="2.91" width="3.175" height="3.175" rx=".529" ry=".529" opacity=".75"/>
  <path d="m11.377 2.9098c-0.29307 0-0.52864 0.23609-0.52864 0.52916v2.1171c0 0.29307 0.23557 0.52864 0.52864 0.52864h2.1171c0.29307 0 0.52916-0.23557 0.52916-0.52864v-0.14831a6.3499 6.3499 0 0 0-2.4861-2.498z" opacity=".75"/>
  <rect x="2.91" y="6.88" width="3.175" height="3.175" rx=".529" ry=".529" opacity=".75"/>
  <rect x="6.879" y="6.88" width="3.175" height="3.175" rx=".529" ry=".529" opacity=".75"/>
  <rect x="10.848" y="6.88" width="3.175" height="3.175" rx=".529" ry=".529" opacity=".75"/>
  <path d="m3.439 10.85c-0.29307 0-0.52916 0.23609-0.52916 0.52916v0.14624a6.3499 6.3499 0 0 0 2.4897 2.5h0.15658c0.29307 0 0.52864-0.23609 0.52864-0.52915v-2.1171c0-0.29307-0.23557-0.52916-0.52864-0.52916z" opacity=".75"/>
  <rect x="6.879" y="10.85" width="3.175" height="3.175" rx=".529" ry=".529" opacity=".75"/>
  <path transform="scale(.26458)" d="m43 41.008c-1.1077 0-1.998 0.89233-1.998 2v8.002c0 1.1077 0.89037 2 1.998 2h0.54688a24 24 0 0 0 9.4551-9.4043v-0.59766c0-1.1077-0.89233-2-2-2h-8.002z" opacity=".75" stroke-width="3.7796"/>
 </g>
</svg>
