<svg width="64" height="64" version="1.1" xmlns="http://www.w3.org/2000/svg">
 <path d="m8.9531 17.998a27 27 0 0 0-3.953 14.002 27 27 0 0 0 27 27 27 27 0 0 0 27-27 27 27 0 0 0-3.943-14.002 27 27 0 0 0-2e-3 0z" fill="#ebebeb" style="paint-order:stroke fill markers"/>
 <path d="m32.002 5.0004a27.001 27.001 0 0 0-23.048 12.998h46.104a27.001 27.001 0 0 0-23.056-13.002z" fill="#666666" stroke-width="3.7796" style="paint-order:stroke markers fill"/>
 <rect x="44.002" y="12" width="3.001" height="3.001" ry="1.5005" opacity=".35" stroke-width="3.7796" style="paint-order:stroke markers fill"/>
 <rect x="38" y="12" width="3.001" height="3.001" ry="1.5005" opacity=".35" stroke-width="3.7796" style="paint-order:stroke markers fill"/>
 <rect x="31.998" y="12" width="3.001" height="3.001" ry="1.5005" opacity=".35" stroke-width="3.7796" style="paint-order:stroke markers fill"/>
 <rect x="20" y="22" width="30" height="27" rx="4" ry="4" fill="#ffffff" stroke-linecap="round" stroke-linejoin="round" stroke-width="2"/>
 <path d="m24 22c-2.216 0-4 1.784-4 4v4.998h29.998v-5.0352c-0.020019-2.1986-1.7946-3.9629-3.998-3.9629h-22z" fill="#666666" stroke-width="3.78" style="paint-order:stroke markers fill"/>
 <rect x="44" y="25" width="3.001" height="3.001" ry="1.5" opacity=".35" stroke-width="3.78" style="paint-order:stroke markers fill"/>
 <rect x="38" y="25" width="3.001" height="3.001" ry="1.5" opacity=".35" stroke-width="3.78" style="paint-order:stroke markers fill"/>
 <rect x="32" y="25" width="3.001" height="3.001" ry="1.5" opacity=".35" stroke-width="3.78" style="paint-order:stroke markers fill"/>
</svg>
