<svg width="64" height="64" viewBox="0 0 16.933 16.933" xmlns="http://www.w3.org/2000/svg" xmlns:xlink="http://www.w3.org/1999/xlink"><defs><linearGradient id="a"><stop offset="0"/><stop stop-opacity="0" offset="1"/></linearGradient><linearGradient id="b" x1="32" x2="32" y1="13" y2="9" gradientTransform="scale(.26458)" gradientUnits="userSpaceOnUse" xlink:href="#a"/><linearGradient id="c" x1="30" x2="57" y1="44" y2="44" gradientUnits="userSpaceOnUse" xlink:href="#a"/></defs><circle cx="8.466" cy="8.466" r="6.614" fill="#3578c7" style="paint-order:stroke markers fill"/><path transform="scale(.26458)" d="M19.398 14A22 22 0 0 0 10 32a22 22 0 0 0 22 22 22 22 0 0 0 22-22 22 22 0 0 0-9.371-18z" fill="#fff" style="paint-order:stroke markers fill"/><path d="M8.466 1.852a6.614 6.614 0 0 0-3.944 1.323h7.898a6.614 6.614 0 0 0-3.954-1.323z" fill="url(#b)" opacity=".15" style="paint-order:stroke markers fill"/><path d="M8.466 4.233c-.292 0-.381.276-.53.53l-.307.528H2.076a7.144 7.144 0 0 0-.753 3.175 7.144 7.144 0 0 0 7.144 7.144 7.144 7.144 0 0 0 7.143-7.144 7.144 7.144 0 0 0-1.4-4.233H8.467z" fill="#5294e2" style="paint-order:stroke markers fill"/><rect x="9.26" y="4.762" width="3.969" height=".529" ry=".265" opacity=".25" style="paint-order:stroke markers fill"/><path transform="scale(.26458)" d="M59 32 32 59a27 27 0 0 0 27-27z" fill="url(#c)" opacity=".15" style="paint-order:stroke markers fill"/><path d="m6.087 9.441-.002-1.699 1.905-.284v1.983zm2.22-2.033 2.54-.406v2.439h-2.54zm2.54 2.381v2.439l-2.54-.392V9.789zM7.99 11.791l-1.903-.286V9.789H7.99z" fill="#fff"/></svg>