<svg width="64" height="64" version="1.1" viewBox="0 0 16.933 16.933" xmlns="http://www.w3.org/2000/svg" xmlns:xlink="http://www.w3.org/1999/xlink">
 <circle cx="8.4665" cy="8.4665" r="7.1436" fill="#2196f3" style="paint-order:stroke fill markers"/>
 <path d="m4.852 8.202-3e-3 -2.58 2.894-0.432v3.012zm3.374-3.089 3.857-0.615v3.704h-3.857zm3.858 3.618-1e-3 3.704-3.857-0.595v-3.11zm-4.34 3.041-2.892-0.435v-2.606h2.891v3.041z" fill="#fff"/>
 <g transform="translate(.982 -279.17)" paint-order="stroke markers fill">
  <circle cx="11.718" cy="291.87" r="3.175" fill="#f55"/>
  <circle cx="11.718" cy="291.87" r="1.588" opacity=".15"/>
  <g fill="#fff">
   <path d="M11.718 290.522a1.343 1.343 0 0 0-1.343 1.344 1.343 1.343 0 0 0 1.343 1.343 1.343 1.343 0 0 0 1.343-1.343 1.343 1.343 0 0 0-1.343-1.344zm0 .61a.733.733 0 0 1 .733.734.733.733 0 0 1-.733.732.733.733 0 0 1-.733-.732.733.733 0 0 1 .733-.733z"/>
   <path d="M11.474 289.973h.488v.854h-.488zM11.474 292.903h.488v.855h-.488zM13.611 291.621v.489h-.855v-.489zM10.68 291.621v.489h-.855v-.489zM13.23 293.031l-.346.346-.604-.605.345-.345zM11.157 290.959l-.345.345-.605-.604.345-.345zM10.552 293.377l-.345-.346.605-.604.345.345zM12.625 291.304l-.345-.345.604-.604.345.345z"/>
  </g>
 </g>
</svg>
