<svg width="64" height="64" version="1.1" viewBox="0 0 16.933 16.933" xmlns="http://www.w3.org/2000/svg">
 <circle cx="8.4665" cy="8.4665" r="7.1436" fill="#069e61" stroke-width="0"/>
 <g stroke-linecap="round" stroke-linejoin="round">
  <path d="m8.4954 11.641q-0.78857 0-1.3459-0.24772-0.55737-0.25185-0.85463-0.72664-0.29726-0.4748-0.29726-1.1436h1.2262q0.00826 0.33855 0.16102 0.57801 0.15689 0.23946 0.44177 0.36745 0.28488 0.12799 0.6771 0.12799 0.35506 0 0.61517-0.09496 0.26423-0.09909 0.40874-0.27662 0.14863-0.17753 0.14863-0.417 0-0.19818-0.1156-0.34268-0.11147-0.14863-0.35506-0.2601-0.23946-0.11147-0.63169-0.19405l-0.6482-0.14037q-0.91656-0.19818-1.3625-0.62343-0.4459-0.42525-0.4459-1.0858 0-0.5615 0.29314-0.97849 0.29314-0.42112 0.81748-0.65646 0.52847-0.23533 1.2262-0.23533 0.706 0 1.2221 0.23946 0.51608 0.23946 0.80096 0.68536 0.28901 0.44177 0.30965 1.0611h-1.1891q-0.033029-0.43764-0.33855-0.68949-0.30552-0.25185-0.80096-0.25185-0.30965 0-0.55324 0.099088-0.23946 0.094959-0.37984 0.26836-0.13625 0.1734-0.13625 0.39635 0 0.18992 0.10735 0.33029 0.10735 0.13625 0.34268 0.23946 0.23533 0.10322 0.61104 0.18579l0.5904 0.12799q0.49131 0.10735 0.8505 0.26423 0.35919 0.15276 0.5904 0.36745 0.2312 0.21056 0.34268 0.48718 0.11147 0.27662 0.11147 0.62343 0 0.5904-0.29726 1.0239-0.29314 0.42938-0.84225 0.66058-0.54498 0.23121-1.3005 0.23121z" fill="#fff" stroke-width="0" aria-label="S"/>
  <path d="m13.574 4.6074a0.79374 0.79374 0 0 0-0.28906 1.084c1.539 2.6656 0.63045 6.0509-2.0352 7.5898a0.79374 0.79374 0 0 0-0.28906 1.084 0.79374 0.79374 0 0 0 1.084 0.29102c3.4086-1.968 4.5832-6.3492 2.6152-9.7578a0.79374 0.79374 0 0 0-1.0859-0.29102z" fill="#07b670" stop-color="#000000"/>
  <path d="m12.957 12.17a0.79374 0.79374 0 0 0-0.5625 0.23242c-2.1765 2.1765-5.681 2.1765-7.8574 0a0.79374 0.79374 0 0 0-1.1211 0 0.79374 0.79374 0 0 0 0 1.123c2.7831 2.7831 7.3185 2.7831 10.102 0a0.79374 0.79374 0 0 0 0-1.123 0.79374 0.79374 0 0 0-0.56055-0.23242z" fill="#008852" stop-color="#000000"/>
 </g>
</svg>
