<svg width="64" height="64" version="1.1" viewBox="0 0 16.933 16.933" xmlns="http://www.w3.org/2000/svg">
 <g>
  <circle cx="8.4665" cy="8.4665" r="7.1436" fill="#eb2f3b" stroke-width="0"/>
  <path d="m13.574 4.6074a0.79374 0.79374 0 0 0-0.28906 1.084c1.539 2.6656 0.63045 6.0509-2.0352 7.5898a0.79374 0.79374 0 0 0-0.28906 1.084 0.79374 0.79374 0 0 0 1.084 0.29102c3.4086-1.968 4.5832-6.3492 2.6152-9.7578a0.79374 0.79374 0 0 0-1.0859-0.29102z" fill="#ff4f5a" stop-color="#000000" stroke-linecap="round" stroke-linejoin="round"/>
  <path d="m12.957 12.17a0.79374 0.79374 0 0 0-0.5625 0.23242c-2.1765 2.1765-5.681 2.1765-7.8574 0a0.79374 0.79374 0 0 0-1.1211 0 0.79374 0.79374 0 0 0 0 1.123c2.7831 2.7831 7.3185 2.7831 10.102 0a0.79374 0.79374 0 0 0 0-1.123 0.79374 0.79374 0 0 0-0.56055-0.23242z" fill="#ce1e29" stop-color="#000000" stroke-linecap="round" stroke-linejoin="round"/>
 </g>
 <path d="m8.2892 5.1583v0.00155h-0.5643v2.9109h-0.84748c-1.026 0-1.852 0.82601-1.852 1.852 0 1.026 0.82601 1.852 1.852 1.852h1.08v-5.17e-4h0.82577v-2.6473h1.14c1.0993 0 1.9843-0.88501 1.9843-1.9843s-0.88501-1.9843-1.9843-1.9843h-1.634zm0.49402 1.0583h1.14c0.51302 0 0.92602 0.41301 0.92602 0.92602s-0.41301 0.92602-0.92602 0.92602h-1.14v-1.852zm-1.9058 2.9124h0.84748v1.5875h-0.84748c-0.43973 0-0.79373-0.35401-0.79373-0.79373 0-0.43973 0.35401-0.79373 0.79373-0.79373z" fill="#fff" stroke-width="0"/>
</svg>
