<svg width="64" height="64" version="1.1" viewBox="0 0 16.933 16.933" xmlns="http://www.w3.org/2000/svg">
 <g>
  <circle cx="8.4665" cy="8.4665" r="7.1436" fill="#1d70f5" stroke-width="0"/>
  <path d="m13.574 4.6074a0.79374 0.79374 0 0 0-0.28906 1.084c1.539 2.6656 0.63045 6.0509-2.0352 7.5898a0.79374 0.79374 0 0 0-0.28906 1.084 0.79374 0.79374 0 0 0 1.084 0.29102c3.4086-1.968 4.5832-6.3492 2.6152-9.7578a0.79374 0.79374 0 0 0-1.0859-0.29102z" fill="#3c87ff" stop-color="#000000" stroke-linecap="round" stroke-linejoin="round"/>
  <path d="m12.957 12.17a0.79374 0.79374 0 0 0-0.5625 0.23242c-2.1765 2.1765-5.681 2.1765-7.8574 0a0.79374 0.79374 0 0 0-1.1211 0 0.79374 0.79374 0 0 0 0 1.123c2.7831 2.7831 7.3185 2.7831 10.102 0a0.79374 0.79374 0 0 0 0-1.123 0.79374 0.79374 0 0 0-0.56055-0.23242z" fill="#0059e8" stop-color="#000000" stroke-linecap="round" stroke-linejoin="round"/>
 </g>
 <path d="m6.3788 10.781h1.2673l1.0539-4.0153h-0.5336l1.1606 4.0153h1.2339l1.3273-4.629h-1.1672l-0.97382 4.062 0.44689-0.16008-1.0605-3.8753h-1.2606l-0.99383 3.902h0.34684l-0.88044-3.9286h-1.3006z" fill="#fff" stroke-width="0" aria-label="W"/>
</svg>
