<svg width="64" height="64" version="1.1" viewBox="0 0 16.933 16.933" xmlns="http://www.w3.org/2000/svg">
 <g>
  <circle cx="8.4665" cy="8.4665" r="7.1436" fill="#f5670f" stroke-width="0"/>
  <path d="m13.574 4.6074a0.79374 0.79374 0 0 0-0.28906 1.084c1.539 2.6656 0.63045 6.0509-2.0352 7.5898a0.79374 0.79374 0 0 0-0.28906 1.084 0.79374 0.79374 0 0 0 1.084 0.29102c3.4086-1.968 4.5832-6.3492 2.6152-9.7578a0.79374 0.79374 0 0 0-1.0859-0.29102z" fill="#ff8940" stop-color="#000000" stroke-linecap="round" stroke-linejoin="round"/>
  <path d="m12.957 12.17a0.79374 0.79374 0 0 0-0.5625 0.23242c-2.1765 2.1765-5.681 2.1765-7.8574 0a0.79374 0.79374 0 0 0-1.1211 0 0.79374 0.79374 0 0 0 0 1.123c2.7831 2.7831 7.3185 2.7831 10.102 0a0.79374 0.79374 0 0 0 0-1.123 0.79374 0.79374 0 0 0-0.56055-0.23242z" fill="#df4d00" stop-color="#000000" stroke-linecap="round" stroke-linejoin="round"/>
 </g>
 <path d="m6.0523 11.641v-6.3499h2.5059q0.71596 0 1.2359 0.2557 0.51992 0.25144 0.80119 0.72022 0.28553 0.46452 0.28553 1.108 0 0.63925-0.28553 1.108-0.28553 0.46452-0.81398 0.72022-0.52419 0.2557-1.2401 0.2557h-1.7601v-1.0995h1.6919q0.34946 0 0.6009-0.11933 0.25144-0.12359 0.38781-0.3452 0.13637-0.22161 0.13637-0.51992 0-0.30684-0.13637-0.52419-0.13637-0.21735-0.38781-0.33667-0.25144-0.12359-0.6009-0.12359h-1.108v5.2504z" fill="#fff" stroke-width="0" aria-label="P"/>
</svg>
