<svg xmlns="http://www.w3.org/2000/svg" width="64" height="64"><circle cx="32" cy="32" r="27" fill="#ccc"/><g transform="matrix(1 0 0 1.0006 .001 -.02)"><rect width="42" height="41.975" x="11" y="11.012" fill="#4d4d4d" rx="9.749" ry="9.754"/><rect width="39" height="38.977" x="12.5" y="12.512" fill="#030000" rx="8.25" ry="8.254"/><rect width="34.5" height="34.479" x="14.75" y="14.76" fill="#20b4f7" rx="6" ry="5.996"/><path fill="#fff" d="M11 42.511v.727a9.73 9.73 0 0 0 9.75 9.75H43.25a9.73 9.73 0 0 0 9.75-9.751v-.726z"/><path fill="#0e5ea5" d="M21.036 50.901h1.541l-2.525-3.64 2.257-3.26h-1.482l-1.442 2.257L17.954 44h-1.522l2.257 3.311-2.436 3.59h1.482l1.62-2.595zm5.24 0h.915v-2.903c0-1.313-.746-2.029-2.178-2.029-.686 0-1.432.17-1.998.468l.298.884q.76-.297 1.432-.298c.775 0 1.193.298 1.193.875v.13c-2.088.03-3.013.507-3.013 1.53 0 .876.646 1.442 1.67 1.442.617 0 1.134-.198 1.502-.576zm-.338-1.243a1.35 1.35 0 0 1-.925.348c-.487 0-.815-.248-.815-.616 0-.438.497-.637 1.74-.657zm3.59 1.243h1.213l1.083-3.41 1.174 3.41h1.263l1.61-4.832h-1.243l-.974 3.44-1.104-3.42h-1.262l-1.084 3.52-.955-3.54h-1.392zm8.69 0h1.263v-5.777h2.227V44H36v1.124h2.217zm6.085 0h1.332l2.486-6.9H46.81l-1.78 5.379-1.71-5.38h-1.492z" aria-label="XawTV"/><path fill="#2e3133" d="M34.305 23.547c.347-1.374.013-2.835.06-4.252.107-3.094 1.824-3.796 3.585-3.887 2.02-.106 4.411 1.09 4.556 4.01.068 1.396-.178 2.838.182 4.19.84 3.151 4.443 5.427 4.495 8.686.048 3.098-1.378 6.749-4.01 8.384-1.358.844-3.202-.17-4.799-.061-1.776.121-3.752 1.699-5.284.79-2.782-1.65-3.549-5.884-3.34-9.113.211-3.28 3.75-5.559 4.555-8.747"/><ellipse cx="39.252" cy="20.974" fill="#fff" fill-opacity=".941" rx="1.428" ry="1.847"/><ellipse cx="35.87" cy="21.038" fill="#fff" fill-opacity=".941" rx="1.009" ry="1.504"/><ellipse cx="39.075" cy="21.274" fill="#2e3133" rx=".585" ry=".967"/><ellipse cx="35.874" cy="21.274" fill="#2e3133" rx=".445" ry=".72"/><path fill="#fff" d="M39.064 22.877a5 5 0 0 0-.525.004c-1.186.07-2.456.535-3.098 1.099-1.027.903-.418 1.78-.86 3.049-.443 1.268-1.556 2.928-1.89 4.51-.134.64-.306 1.279-.424 1.92l3.174 3.879c.624.761-1.003.479-2.516-.501 1.073 1.51 3.203 3.007 5.306 2.865 2.24-.15 4.885-2.492 5.731-4.407-.821-.14-1.62-1.375-.962-2.295.229-.32.72-.347 1.14-.28-.253-.98-.758-1.86-1.012-2.598-.44-1.288-.95-1.648-1.416-2.791-.468-1.143.026-3.258-1.29-4.081-.37-.231-.843-.347-1.358-.373"/><path fill="#fab23d" d="M29.203 35.029c.47-.376.69-1.14 1.275-1.276.459-.106.974.157 1.337.456.83.682.956 1.94 1.61 2.795.435.567 1.173.89 1.518 1.518.36.655.823 1.52.486 2.187-.455.897-1.758 1.175-2.764 1.214-.611.024-1.142-.443-1.731-.607-.858-.24-1.848-.092-2.612-.547-.605-.36-1.322-.907-1.367-1.61-.018-.277.388-.428.455-.698.18-.71-.508-1.532-.182-2.188.347-.695 1.367-.758 1.975-1.244M42.79 33.972a2.4 2.4 0 0 0-.477.61c-.519.94-.169 2.158-.46 3.192-.195.69-.76 1.263-.848 1.972-.092.742-.202 1.718.358 2.212.755.665 2.069.44 3.017.104.578-.204.897-.835 1.383-1.205.708-.54 1.682-.77 2.224-1.475.429-.56.893-1.332.674-2.001-.086-.264-.518-.255-.681-.48-.429-.594-.096-1.61-.64-2.098-.406-.362-1-.32-1.575-.336-.277.595-1.181 1-1.803.827-.526-.146-1.05-.745-1.172-1.322M37.297 21.33c.635-.034 1.22.378 1.793.652.554.267 1.5.347 1.578.958.09.693-.886 1.101-1.457 1.503-.51.36-1.078.78-1.701.775-.63-.007-1.186-.458-1.701-.82-.424-.299-1.092-.575-1.109-1.094-.018-.555.666-.909 1.109-1.245.44-.334.937-.7 1.488-.729"/></g></svg>