<?xml version="1.0" encoding="UTF-8" standalone="no"?>
<svg
   width="64"
   height="64"
   viewBox="0 0 16.933 16.933"
   version="1.1"
   id="svg2"
   sodipodi:docname="xemu.svg"
   xml:space="preserve"
   inkscape:version="1.4.1 (93de688d07, 2025-03-30)"
   xmlns:inkscape="http://www.inkscape.org/namespaces/inkscape"
   xmlns:sodipodi="http://sodipodi.sourceforge.net/DTD/sodipodi-0.dtd"
   xmlns="http://www.w3.org/2000/svg"
   xmlns:svg="http://www.w3.org/2000/svg"><defs
     id="defs2" /><sodipodi:namedview
     id="namedview2"
     pagecolor="#505050"
     bordercolor="#ffffff"
     borderopacity="1"
     inkscape:showpageshadow="0"
     inkscape:pageopacity="0"
     inkscape:pagecheckerboard="1"
     inkscape:deskcolor="#505050"
     inkscape:zoom="12.828125"
     inkscape:cx="9.3934227"
     inkscape:cy="34.338611"
     inkscape:window-width="1920"
     inkscape:window-height="1012"
     inkscape:window-x="0"
     inkscape:window-y="0"
     inkscape:window-maximized="1"
     inkscape:current-layer="svg2" /><circle
     cx="8.466"
     cy="8.466"
     r="7.144"
     fill="#f0f0f0"
     style="paint-order:stroke fill markers;fill:#0f3612;fill-opacity:1"
     id="circle1" /><ellipse
     style="fill:none;fill-opacity:1;stroke:#81dc8a;stroke-width:0.466962;stroke-miterlimit:4;stroke-dasharray:none;stroke-opacity:1"
     id="path2234-9"
     cx="8.4665003"
     cy="8.4664993"
     inkscape:label="path1"
     rx="5.9179606"
     ry="5.9179602" /><path
     style="fill:#81dc8a;fill-opacity:1;stroke-width:0.24743"
     d="M 10.40007,11.930415 C 9.8628712,10.917778 9.2035042,9.9733443 8.488896,9.0785725 7.7569339,9.9950494 7.0229846,10.916337 6.4284113,11.930415 c -0.4230461,0 -0.8460917,0 -1.2691379,0 C 5.8784827,10.617929 6.8330226,9.4573797 7.7572752,8.2872259 6.9261138,7.1922757 6.0949517,6.0973286 5.2637903,5.0023786 c 0.4628624,0 0.9257246,0 1.3885875,0 0.6221266,0.8062805 1.2442536,1.6125612 1.8663805,2.4188411 0.5723559,-0.8062799 1.1447133,-1.6125606 1.7170707,-2.4188411 0.437976,0 0.875954,0 1.31393,0 -0.76148,1.0700631 -1.522965,2.1401277 -2.2844494,3.2101909 0.8898464,1.2004958 1.8191764,2.3859565 2.5084174,3.7178455 -0.457886,0 -0.915772,0 -1.373657,0 z"
     id="path3" /></svg>
