<svg width="64" height="64" version="1.1" xmlns="http://www.w3.org/2000/svg">
 <g transform="translate(-2.2725e-4,-2.2725e-4)">
  <path d="m8.9532 46.002a27 27 0 0 1-3.9531-14.002 27 27 0 0 1 27-27 27 27 0 0 1 27 27 27 27 0 0 1-3.9434 14.002 27 27 0 0 1-2e-3 0z" fill="#f0f0f0" stroke-width="3.7796" style="paint-order:stroke fill markers"/>
  <path d="m32 59a27 27 0 0 1-23.047-12.998h46.104a27 27 0 0 1-23.055 12.998z" fill="#666666" stroke-width="5.3187" style="paint-order:stroke markers fill"/>
  <g transform="matrix(3.7796 0 0 -3.7796 0 64)" fill="#cccccc">
   <path d="m8.467 6.238a3.44 3.44 0 0 0-3.44 3.44 3.44 3.44 0 0 0 3.44 3.439 3.44 3.44 0 0 0 3.44-3.44 3.44 3.44 0 0 0-3.44-3.44zm0 1.393a2.046 2.046 0 0 1 2.046 2.046 2.046 2.046 0 0 1-2.046 2.045 2.046 2.046 0 0 1-2.046-2.045 2.046 2.046 0 0 1 2.046-2.046z" opacity=".15" style="paint-order:stroke markers fill"/>
   <path d="m8.467 6.766a2.91 2.91 0 0 0-2.91 2.91 2.91 2.91 0 0 0 2.91 2.911 2.91 2.91 0 0 0 2.91-2.91 2.91 2.91 0 0 0-2.91-2.91zm0 1.323a1.587 1.587 0 0 1 1.587 1.588 1.587 1.587 0 0 1-1.587 1.587 1.587 1.587 0 0 1-1.588-1.587 1.587 1.587 0 0 1 1.588-1.588z" style="paint-order:stroke markers fill"/>
   <path d="m7.938 5.576h1.058v1.852h-1.058zm0 6.35h1.058v1.852h-1.058zm4.63-2.778v1.058h-1.852v-1.058zm-6.35 0v1.058h-1.852v-1.058zm5.522 3.055-0.747 0.748-1.31-1.31 0.748-0.748zm-4.49-4.49-0.747 0.748-1.31-1.31 0.748-0.748zm-1.309 5.238-0.748-0.748 1.31-1.31 0.748 0.748zm4.49-4.49-0.748-0.748 1.31-1.31 0.748 0.748z" style="paint-order:stroke markers fill"/>
  </g>
  <path d="m20 48a3 3 0 0 0-3 3 3 3 0 0 0 3 3 3 3 0 0 0 3-3 3 3 0 0 0-3-3zm0 1a2 2 0 0 1 2 2 2 2 0 0 1-2 2 2 2 0 0 1-2-2 2 2 0 0 1 2-2z" opacity=".35" style="paint-order:fill markers stroke"/>
  <rect x="25" y="49" width="10" height="4" rx="1" ry="1" opacity=".35" stroke-width=".79057" style="paint-order:fill markers stroke"/>
  <rect x="36" y="49" width="10" height="4" rx="1" ry="1" opacity=".5" stroke-width=".79057" style="paint-order:fill markers stroke"/>
 </g>
</svg>
