<svg width="64" height="64" xmlns="http://www.w3.org/2000/svg"><g transform="translate(-29.516)"><path d="M38.469 46.002A27 27 0 0 1 34.516 32a27 27 0 0 1 27-27 27 27 0 0 1 27 27 27 27 0 0 1-3.944 14.002 27 27 0 0 1-.001 0z" fill="#f0f0f0"/><path d="M61.516 59a27 27 0 0 1-23.047-12.998h46.104A27 27 0 0 1 61.518 59z" fill="#666"/><path d="M51.516 48a3 3 0 0 0-3 3 3 3 0 0 0 3 3 3 3 0 0 0 3-3 3 3 0 0 0-3-3zm0 1a2 2 0 0 1 2 2 2 2 0 0 1-2 2 2 2 0 0 1-2-2 2 2 0 0 1 2-2z" opacity=".35"/><rect x="59.516" y="49" width="4" height="4" rx="1" ry="1" opacity=".35"/><rect x="65.516" y="49" width="4" height="4" rx="1" ry="1" opacity=".35"/><rect x="71.516" y="49" width="4" height="4" rx="1" ry="1" opacity=".35"/></g></svg>