<svg width="64" height="64" version="1.1" xmlns="http://www.w3.org/2000/svg">
 <g transform="translate(-29.516 -.0002275)">
  <path d="m38.469 46.002a27 27 0 0 1-3.9531-14.002 27 27 0 0 1 27-27 27 27 0 0 1 27 27 27 27 0 0 1-3.9434 14.002 27 27 0 0 1-2e-3 0z" fill="#f0f0f0"/>
  <path d="m61.516 59a27 27 0 0 1-23.047-12.998h46.104a27 27 0 0 1-23.055 12.998z" fill="#666666"/>
  <path d="m51.516 48a3 3 0 0 0-3 3 3 3 0 0 0 3 3 3 3 0 0 0 3-3 3 3 0 0 0-3-3zm0 1a2 2 0 0 1 2 2 2 2 0 0 1-2 2 2 2 0 0 1-2-2 2 2 0 0 1 2-2z" opacity=".35"/>
  <rect x="59.516" y="49" width="4" height="4" rx="1" ry="1" opacity=".35"/>
  <rect x="65.516" y="49" width="4" height="4" rx="1" ry="1" opacity=".35"/>
  <rect x="71.516" y="49" width="4" height="4" rx="1" ry="1" opacity=".35"/>
 </g>
</svg>
