<?xml version="1.0" encoding="UTF-8" standalone="no"?>
<svg
   xmlns:dc="http://purl.org/dc/elements/1.1/"
   xmlns:cc="http://creativecommons.org/ns#"
   xmlns:rdf="http://www.w3.org/1999/02/22-rdf-syntax-ns#"
   xmlns:svg="http://www.w3.org/2000/svg"
   xmlns="http://www.w3.org/2000/svg"
   xmlns:sodipodi="http://sodipodi.sourceforge.net/DTD/sodipodi-0.dtd"
   xmlns:inkscape="http://www.inkscape.org/namespaces/inkscape"
   width="64"
   height="64"
   version="1.1"
   id="svg14"
   sodipodi:docname="xfce4-taskbar.svg"
   inkscape:version="1.0.2 (e86c870879, 2021-01-15)">
  <metadata
     id="metadata20">
    <rdf:RDF>
      <cc:Work
         rdf:about="">
        <dc:format>image/svg+xml</dc:format>
        <dc:type
           rdf:resource="http://purl.org/dc/dcmitype/StillImage" />
        <dc:title></dc:title>
      </cc:Work>
    </rdf:RDF>
  </metadata>
  <defs
     id="defs18" />
  <sodipodi:namedview
     pagecolor="#ffffff"
     bordercolor="#666666"
     borderopacity="1"
     objecttolerance="10"
     gridtolerance="10"
     guidetolerance="10"
     inkscape:pageopacity="0"
     inkscape:pageshadow="2"
     inkscape:window-width="1366"
     inkscape:window-height="712"
     id="namedview16"
     showgrid="true"
     inkscape:zoom="11.468388"
     inkscape:cx="21.251986"
     inkscape:cy="43.167347"
     inkscape:window-x="0"
     inkscape:window-y="28"
     inkscape:window-maximized="1"
     inkscape:current-layer="svg14">
    <inkscape:grid
       type="xygrid"
       id="grid46" />
  </sodipodi:namedview>
  <path
     d="M 8.9531635,46.002327 A 27.000191,-27.000192 0 0 1 5.0000355,32.000228 27.000191,-27.000192 0 0 1 32.000228,5.0000355 27.000191,-27.000192 0 0 1 59.000419,32.000228 27.000191,-27.000192 0 0 1 55.05699,46.002327 a 27.000191,-27.000192 0 0 1 -0.002,0 z"
     fill="#f9f9f9"
     stroke-width="3.77964"
     style="paint-order:stroke fill markers"
     id="path2" />
  <path
     d="M 32.000379,59.000419 A 27.000342,-27.000343 0 0 1 8.9531212,46.002368 H 55.056706 A 27.000342,-27.000343 0 0 1 32.001512,59.000419 Z"
     fill="#666666"
     stroke-width="5.31866"
     style="paint-order:stroke markers fill"
     id="path4" />
  <g
     fill="#cccccc"
     id="g18"
     transform="matrix(3.779602,0,0,-3.779602,0,64.000455)">
    <path
       d="m 8.467,6.238 a 3.44,3.44 0 0 0 -3.44,3.44 3.44,3.44 0 0 0 3.44,3.439 3.44,3.44 0 0 0 3.44,-3.44 3.44,3.44 0 0 0 -3.44,-3.44 z m 0,1.393 A 2.046,2.046 0 0 1 10.513,9.677 2.046,2.046 0 0 1 8.467,11.722 2.046,2.046 0 0 1 6.421,9.677 2.046,2.046 0 0 1 8.467,7.631 Z"
       opacity="0.15"
       style="paint-order:stroke markers fill"
       id="path12" />
    <path
       d="m 8.467,6.766 a 2.91,2.91 0 0 0 -2.91,2.91 2.91,2.91 0 0 0 2.91,2.911 2.91,2.91 0 0 0 2.91,-2.91 2.91,2.91 0 0 0 -2.91,-2.91 z m 0,1.323 A 1.587,1.587 0 0 1 10.054,9.677 1.587,1.587 0 0 1 8.467,11.264 1.587,1.587 0 0 1 6.879,9.677 1.587,1.587 0 0 1 8.467,8.089 Z"
       style="paint-order:stroke markers fill"
       id="path14" />
    <path
       d="M 7.938,5.576 H 8.996 V 7.428 H 7.938 Z m 0,6.35 h 1.058 v 1.852 H 7.938 Z m 4.63,-2.778 v 1.058 H 10.716 V 9.148 Z m -6.35,0 v 1.058 H 4.366 V 9.148 Z m 5.522,3.055 -0.747,0.748 -1.31,-1.31 0.748,-0.748 z M 7.25,7.713 6.503,8.461 5.193,7.151 5.941,6.403 Z m -1.309,5.238 -0.748,-0.748 1.31,-1.31 0.748,0.748 z m 4.49,-4.49 -0.748,-0.748 1.31,-1.31 0.748,0.748 z"
       style="paint-order:stroke markers fill"
       id="path16" />
  </g>
  <path
     d="m 20,48 a 3,3 0 0 0 -3,3 3,3 0 0 0 3,3 3,3 0 0 0 3,-3 3,3 0 0 0 -3,-3 z m 0,1 a 2,2 0 0 1 2,2 2,2 0 0 1 -2,2 2,2 0 0 1 -2,-2 2,2 0 0 1 2,-2 z"
     opacity="0.35"
     style="paint-order:fill markers stroke"
     id="path8" />
  <rect
     x="25"
     y="49"
     width="10"
     height="4"
     rx="1"
     ry="1"
     opacity="0.35"
     style="stroke-width:0.790569;paint-order:fill markers stroke"
     id="rect12" />
  <rect
     x="36"
     y="49"
     width="10"
     height="4"
     rx="1"
     ry="1"
     opacity="0.35"
     style="stroke-width:0.790569;paint-order:fill markers stroke;opacity:0.5"
     id="rect48" />
</svg>
