<svg
   width="64"
   height="64"
   version="1.1">
  <path
     d="M 8.9531636,46.002327 A 27.000192,-27.000192 0 0 1 5.0000355,32.000228 27.000192,-27.000192 0 0 1 32.000227,5.000036 a 27.000192,-27.000192 0 0 1 27.000192,27.000192 27.000192,-27.000192 0 0 1 -3.943428,14.002099 27.000192,-27.000192 0 0 1 -0.002,0 z"
     fill="#f9f9f9"
     id="path2" />
  <path
     d="M 32.000378,59.000419 A 27.000343,-27.000343 0 0 1 8.9531212,46.002368 H 55.056706 A 27.000343,-27.000343 0 0 1 32.001512,59.000419 Z"
     fill="#666666"
     id="path4" />
  <path
     d="m 22,48 a 3,3 0 0 0 -3,3 3,3 0 0 0 3,3 3,3 0 0 0 3,-3 3,3 0 0 0 -3,-3 z m 0,1 a 2,2 0 0 1 2,2 2,2 0 0 1 -2,2 2,2 0 0 1 -2,-2 2,2 0 0 1 2,-2 z"
     opacity="0.35"
     id="path10" />
  <rect
     x="30"
     y="49"
     width="4"
     height="4"
     rx="1"
     ry="1"
     opacity="0.35"
     id="rect14" />
  <rect
     x="36"
     y="49"
     width="4"
     height="4"
     rx="1"
     ry="1"
     opacity="0.35"
     id="rect16" />
  <rect
     x="42"
     y="49"
     width="4"
     height="4"
     rx="1"
     ry="1"
     opacity="0.35"
     id="rect18" />
</svg>
