<svg width="64" height="64" version="1.1" xmlns="http://www.w3.org/2000/svg">
 <circle cx="32" cy="32" r="27" fill="#7fbc34" style="paint-order:stroke fill markers"/>
 <path d="M32 5A27 27 0 0 0 5 32a27 27 0 0 0 18.699 25.678 38.32 38.32 0 0 0 35.086-28.803A27 27 0 0 0 32 5" fill="#8cc348" style="paint-order:stroke fill markers"/>
 <path d="M32 5A27 27 0 0 0 7.447 20.832a33.136 33.136 0 0 0 32.859 29.199 33.1 33.1 0 0 0 14.271-3.266A27 27 0 0 0 58.999 32a27 27 0 0 0-27-27z" fill="green" opacity=".1" style="paint-order:stroke fill markers"/>
 <path d="M37 40v10h10V40zm2 2h2v2h2v-2h2v4h-2v2h-2v-2h-2z" fill="#fff"/>
 <path d="m20.002 20a12 12 0 0 0 12 12 12 12 0 0 0 12-12h-3.001a8.9955 8.9955 0 0 1-8.9992 8.9992 8.9955 8.9955 0 0 1-9.003-8.9992z" fill="#ffffff" stroke-width="3.7796" style="paint-order:stroke markers fill"/>
</svg>
