<svg width="64" height="64" version="1.1" xmlns="http://www.w3.org/2000/svg">
 <circle cx="32" cy="32" r="27" fill="#7fbc34" stroke-width="3.7796" style="paint-order:stroke fill markers"/>
 <path d="M 32,5 A 27,27 0 0 0 5,32 27,27 0 0 0 23.699,57.678 38.322,38.322 0 0 0 58.785,28.875 27,27 0 0 0 32,5 Z" fill="#8cc348" stroke-width="5.3645" style="paint-order:stroke fill markers"/>
 <path d="m32 5a27 27 0 0 0-24.553 15.832 33.136 33.136 0 0 0 32.859 29.199 33.136 33.136 0 0 0 14.271-3.2656 27 27 0 0 0 4.4218-14.766 27 27 0 0 0-27-27z" fill="#008000" opacity=".1" stroke-width="4.6387" style="paint-order:stroke fill markers"/>
 <path d="m20.002 15.001a12 12 0 0 0 12 12 12 12 0 0 0 12-12h-3.001a8.9992 8.9992 0 0 1-8.9992 8.9992 8.9992 8.9992 0 0 1-9.003-8.9992z" fill="#fff" stroke-width="3.7796" style="paint-order:stroke markers fill"/>
 <path d="m32 30a11.92 11.92 0 0 0-6.062 1.688l5.374 5.374 1.438-1.436-3.25-3.25c0.39-0.104 0.78-0.196 1.188-0.25 0.104-0.016 0.206-0.052 0.312-0.064 0.336-0.034 0.654-0.062 1-0.062a10 10 0 0 1 10 10c0 0.486-0.056 0.972-0.126 1.438-0.04 0.272-0.062 0.548-0.124 0.812a9.474 9.474 0 0 1-0.562 1.626c-0.028 0.06-0.036 0.126-0.064 0.186-0.08 0.184-0.216 0.328-0.312 0.5-8e-3 0.016 0.01 0.046 0 0.064l1.5 1.436a11.92 11.92 0 0 0 1.688-6.062 12 12 0 0 0-12-12zm-10.312 5.938a11.92 11.92 0 0 0-1.688 6.062 12 12 0 0 0 12 12 11.92 11.92 0 0 0 6.062-1.688l-1.5-1.5-3.874-3.812-1.376 1.376 3.188 3.25c-0.39 0.1-0.78 0.194-1.188 0.25-0.104 0.014-0.206 0.05-0.312 0.06-0.336 0.036-0.654 0.064-1 0.064s-0.664-0.028-1-0.062-0.674-0.06-1-0.126a10.034 10.034 0 0 1-8-9.812c0-0.496 0.056-0.96 0.126-1.438 0.04-0.272 0.062-0.548 0.124-0.812 0.134-0.574 0.334-1.096 0.562-1.626 0.026-0.06 0.036-0.126 0.064-0.186 0.08-0.18 0.216-0.33 0.312-0.5v-0.064z" fill="#fff"/>
</svg>
