<svg width="64" height="64" version="1.1" xmlns="http://www.w3.org/2000/svg">
 <circle cx="32" cy="32" r="27" fill="#999" style="paint-order:stroke fill markers"/>
 <path d="m32 6.0004a26 26 0 0 0-26 26 26 26 0 0 0 1.04 7.2352v-2.0352c0-1.7285 1.3915-3.12 3.12-3.12h1.2736a21.84 21.84 0 0 0 18.486 14.454v5.3056c0 1.7285-1.3915 3.12-3.12 3.12h-2.0069a26 26 0 0 0 7.2068 1.04 26 26 0 0 0 26-26 26 26 0 0 0-26-26z" fill="#cacbcf" stroke-width="1.04" style="paint-order:stroke fill markers"/>
 <g transform="translate(-2,2)">
  <path d="m53 13a2 2 0 1 1-4 0 2 2 0 0 1 4 0z" fill="#85858a"/>
  <path d="m52 13a1 1 0 1 0-2 0 1 1 0 0 0 2 0z" fill="#fff"/>
 </g>
 <g transform="translate(0,4)">
  <path d="m17 11a2 2 0 1 1-4 0 2 2 0 0 1 4 0z" fill="#85858a"/>
  <path d="m16 11a1 1 0 1 0-2 0 1 1 0 0 0 2 0z" fill="#fff"/>
 </g>
 <path d="m48 27.122c0 8.715-7.163 15.878-16 15.878s-16-7.163-16-15.878c0-8.958 7.163-16.122 16-16.122s16 7.164 16 16.122" fill="#fff" fill-rule="evenodd"/>
 <path d="m32 10c-9.388 0-17 7.61-17 17 0 9.388 7.612 17 17 17s17-7.612 17-17c0-9.39-7.612-17-17-17zm10.417 27.418a14.714 14.714 0 0 1-4.683 3.159 14.646 14.646 0 0 1-5.734 1.155c-1.99 0-3.92-0.388-5.734-1.155a14.714 14.714 0 0 1-4.683-3.16 14.67 14.67 0 0 1-4.317-10.417 14.676 14.676 0 0 1 4.316-10.417 14.658 14.658 0 0 1 4.684-3.16 14.632 14.632 0 0 1 5.734-1.155c1.99 0 3.92 0.39 5.734 1.157a14.655 14.655 0 0 1 4.683 3.158 14.676 14.676 0 0 1 4.317 10.417 14.673 14.673 0 0 1-4.316 10.418z" fill="#fff"/>
 <g transform="matrix(-1,0,0,1,44,46)" fill="#949496" fill-rule="evenodd">
  <rect width="1" height="7" rx=".5"/>
  <rect x="2" width="1" height="7" rx=".5"/>
  <rect x="4" width="1" height="7" rx=".5"/>
  <rect x="6" width="1" height="7" rx=".5"/>
  <rect x="8" width="1" height="7" rx=".5"/>
 </g>
 <g transform="translate(-3,-2)">
  <path d="m53 51a2 2 0 1 1-4 0 2 2 0 0 1 4 0z" fill="#85858a"/>
  <path d="m52 51a1 1 0 1 0-2 0 1 1 0 0 0 2 0z" fill="#fff"/>
 </g>
 <g transform="translate(0,-4)">
  <path d="m17 53a2 2 0 1 1-4 0 2 2 0 0 1 4 0z" fill="#6a6a6a"/>
  <path d="m16 53a1 1 0 1 0-2 0 1 1 0 0 0 2 0z" fill="#fff"/>
 </g>
 <g transform="matrix(2 0 0 2 76.638 -61.519)" stroke-width=".5">
  <path d="m-22.319 36.26a8 8 0 0 0-6.912 3.986l6.912 3.455 6.908-3.455a8 8 0 0 0-6.908-3.986z" fill="#8cd839"/>
  <path d="m-29.684 41.137a8 8 0 0 0-0.635 3.123 8 8 0 0 0 7.5 7.975v-7.666z" fill="#419bc8"/>
  <path d="m-14.962 41.139-6.857 3.43v7.673a8 8 0 0 0 7.5-7.982 8 8 0 0 0-0.643-3.121z" fill="#57cfc2"/>
 </g>
</svg>
