<svg width="64" height="64" xmlns="http://www.w3.org/2000/svg"><rect x="5" y="5" width="54" height="54" rx="27" ry="27" fill="#ec5056"/><path d="M31.91 14A18 18 0 0 0 14 32a18 18 0 0 0 18 18 18 18 0 0 0 18-18 18 18 0 0 0-18-18 18 18 0 0 0-.09 0zm-4.17 8.66c.348.018.674.133.977.344l11.213 7.727c.353.249.598.577.734.982a1.89 1.89 0 0 1 0 1.225 1.886 1.886 0 0 1-.738.978l-11.21 7.727a1.875 1.875 0 0 1-1.331.328c-.486-.06-.888-.273-1.213-.639s-.49-.793-.49-1.283V24.6c0-.49.165-.92.49-1.286a1.882 1.882 0 0 1 1.213-.639c.12-.015.24-.02.355-.013z" fill="#fff"/></svg>