<?xml version="1.0" encoding="UTF-8" standalone="no"?>
<svg
   width="64"
   height="64"
   version="1.1"
   id="svg10"
   sodipodi:docname="org.yuzu_emu.yuzu.svg"
   inkscape:version="1.2.2 (b0a8486541, 2022-12-01)"
   xml:space="preserve"
   xmlns:inkscape="http://www.inkscape.org/namespaces/inkscape"
   xmlns:sodipodi="http://sodipodi.sourceforge.net/DTD/sodipodi-0.dtd"
   xmlns="http://www.w3.org/2000/svg"
   xmlns:svg="http://www.w3.org/2000/svg"><defs
     id="defs14"><clipPath
       id="clip-path"><path
         id="rect4"
         fill="none"
         d="M -43,-46.67 H 656.6 V 730.66 H -43 Z" /></clipPath><clipPath
       id="clipPath552"><path
         id="path550"
         fill="none"
         d="M -43,-46.67 H 656.6 V 730.66 H -43 Z" /></clipPath></defs><sodipodi:namedview
     id="namedview12"
     pagecolor="#ffffff"
     bordercolor="#111111"
     borderopacity="1"
     inkscape:showpageshadow="0"
     inkscape:pageopacity="0"
     inkscape:pagecheckerboard="1"
     inkscape:deskcolor="#d1d1d1"
     showgrid="false"
     inkscape:zoom="5.6568539"
     inkscape:cx="16.263457"
     inkscape:cy="42.779963"
     inkscape:window-width="1920"
     inkscape:window-height="1011"
     inkscape:window-x="0"
     inkscape:window-y="0"
     inkscape:window-maximized="1"
     inkscape:current-layer="svg10"><inkscape:grid
       type="xygrid"
       id="grid870" /></sodipodi:namedview><rect
     width="54"
     height="54"
     x="5"
     y="5"
     fill="#f0f0f0"
     ry="27"
     id="rect2"
     style="fill:#333333;fill-opacity:1;stroke:none" /><g
     stroke-width=".75"
     id="g8" /><g
     id="g823"
     transform="matrix(0.06477958,0,0,0.06477958,12.125625,9.8453836)"><g
       id="right"><g
         class="cls-2"
         clip-path="url(#clip-path)"
         id="g14"><g
           id="g827"><g
             id="g833"><path
               id="path835"
               d="m 340.81,138 v 544.08 c 150.26,0 272.06,-121.81 272.06,-272.06 C 612.87,259.77 491.07,138 340.81,138 M 394,197.55 a 219.06,219.06 0 0 1 0,424.94 V 197.55"
               fill="#ff3c28" /></g></g></g></g><g
       id="left"><g
         class="cls-2"
         clip-path="url(#clip-path)"
         id="g20"><g
           id="g839"><g
             id="g845"><path
               id="path847"
               d="M 272.79,1.92 C 122.53,1.92 0.73,123.73 0.73,274 c 0,150.27 121.8,272.07 272.06,272.07 z m -53.14,59.59 v 425 A 219,219 0 0 1 118,119.18 217.51,217.51 0 0 1 219.65,61.51"
               fill="#0ab9e6" /></g></g></g></g></g></svg>
