<svg xmlns="http://www.w3.org/2000/svg" width="64" height="64" viewBox="0 0 16.933 16.933"><circle cx="8.466" cy="8.466" r="7.144" fill="#c83737" style="paint-order:stroke fill markers"/><path fill="#fff" d="M6.614 1.57a7.1 7.1 0 0 0-2.116.964v5.138l1.059-1.059 1.057 1.058z"/><path fill-rule="evenodd" d="M3.969 2.921a7.14 7.14 0 0 0-2.646 5.546 7.14 7.14 0 0 0 2.646 5.543z" opacity=".2" style="paint-order:fill markers stroke"/><path fill="#fff" d="M10.555 8.542c-.883 0-1.452.015-1.817.068a1.2 1.2 0 0 0-.418.122.34.34 0 0 0-.185.29c0 .08.039.139.102.173a.25.25 0 0 0 .132.027.8.8 0 0 0 .257-.065 2 2 0 0 1 .178-.037 6 6 0 0 1 .357-.048c.278-.03.626-.056.972-.071l.854-.038-.168.16c-.258.242-1.108.892-1.945 1.504-.42.306-.835.605-1.18.843-.347.238-.629.42-.742.48q-.22.112-.439.227c.024.084.042.177.06.252q.273.01.547.017c.108.003.417.038.798.095.38.058.841.135 1.289.218.95.177 1.665.281 2.202.31s.902-.012 1.16-.15c.195-.104.382-.31.538-.53.155-.22.288-.446.287-.66a.2.2 0 0 0-.023-.095.16.16 0 0 0-.06-.062.15.15 0 0 0-.082-.027.2.2 0 0 0-.102.027c-.1.074-.16.197-.218.276-.15.253-.29.39-.534.483-.242.092-.6.129-1.147.129-.486 0-1.24-.068-1.89-.156a13 13 0 0 1-.846-.14h-.004a4 4 0 0 1-.269-.065c.075-.082.23-.21.44-.384a122 122 0 0 1 4.23-3.173z" color="#000"/></svg>