<svg xmlns="http://www.w3.org/2000/svg" width="64" height="64" viewBox="0 0 16.933 16.933"><circle cx="8.466" cy="8.466" r="7.144" fill="#4d4d4d" style="paint-order:stroke fill markers;fill:#333;fill-opacity:1"/><path d="M4.95 4.533h7.33c.203 0 .367.163.367.366v7.33a.365.365 0 0 1-.366.367H4.95a.365.365 0 0 1-.366-.366V4.899c0-.203.163-.366.366-.366z" style="fill:none;stroke:#fff;stroke-width:.529156;stroke-dasharray:none" transform="matrix(.91672 0 0 .91672 .493 .666)"/><path d="M6.453 6.179h4.388c.119 0 .215.095.215.215V10.7c0 .119-.096.215-.215.215H6.453a.215.215 0 0 1-.215-.215V6.394c0-.12.096-.215.215-.215z" style="fill:none;stroke:#fff;stroke-width:.529156;stroke-dasharray:none" transform="matrix(.91672 0 0 .91672 .493 .666)"/><path d="M7.707 7.56h1.91c.052 0 .094.042.094.094v1.875a.093.093 0 0 1-.094.093h-1.91a.093.093 0 0 1-.094-.093V7.654c0-.052.042-.094.094-.094z" style="fill:none;stroke:#fff;stroke-width:.529156;stroke-dasharray:none" transform="matrix(.91672 0 0 .91672 .493 .666)"/><g style="fill:#333;fill-opacity:1;stroke:#333;stroke-opacity:1"><path d="M5.624 10.958H3.875v1.714l-.021.165z" style="fill:#333;fill-opacity:1;stroke:#333;stroke-width:.347948;stroke-dasharray:none;stroke-opacity:1" transform="matrix(.91672 0 0 .91672 .493 .666)"/><path d="M6.96 9.625H5.212v1.715l-.022.164z" style="fill:#333;fill-opacity:1;stroke:#333;stroke-width:.347948;stroke-dasharray:none;stroke-opacity:1" transform="matrix(.91672 0 0 .91672 .493 .666)"/><path d="M8.386 8.39H7.233v1.014l-.014.097z" style="fill:#333;fill-opacity:1;stroke:#333;stroke-width:.217267;stroke-dasharray:none;stroke-opacity:1" transform="matrix(.91672 0 0 .91672 .493 .666)"/></g><g style="fill:#333;fill-opacity:1;stroke:#333;stroke-opacity:1"><path d="M4.13 11.937H2.38v1.714l-.02.164z" style="fill:#333;fill-opacity:1;stroke:#333;stroke-width:.347948;stroke-dasharray:none;stroke-opacity:1" transform="rotate(179.881 7.537 8.55)scale(.91672)"/><path d="M5.466 10.604H3.717v1.714l-.022.164z" style="fill:#333;fill-opacity:1;stroke:#333;stroke-width:.347948;stroke-dasharray:none;stroke-opacity:1" transform="rotate(179.881 7.537 8.55)scale(.91672)"/><path d="M6.891 9.369H5.74v1.014l-.015.097z" style="fill:#333;fill-opacity:1;stroke:#333;stroke-width:.217267;stroke-dasharray:none;stroke-opacity:1" transform="rotate(179.881 7.537 8.55)scale(.91672)"/></g><path d="M4.629 12.396 12.585 4.7q.002-.003.005 0v.005L4.634 12.4h-.005z" style="fill:none;stroke:#fff;stroke-width:.531495;stroke-dasharray:none" transform="matrix(.91672 0 0 .91672 .493 .666)"/></svg>