<?xml version="1.0" encoding="UTF-8" standalone="no"?>
<svg
   width="64"
   height="64"
   viewBox="0 0 16.933 16.933"
   version="1.1"
   id="svg3"
   sodipodi:docname="zed.svg"
   inkscape:version="1.3.2 (091e20ef0f, 2023-11-25)"
   xmlns:inkscape="http://www.inkscape.org/namespaces/inkscape"
   xmlns:sodipodi="http://sodipodi.sourceforge.net/DTD/sodipodi-0.dtd"
   xmlns="http://www.w3.org/2000/svg"
   xmlns:svg="http://www.w3.org/2000/svg">
  <sodipodi:namedview
     id="namedview3"
     pagecolor="#cbcbcb"
     bordercolor="#eeeeee"
     borderopacity="1"
     inkscape:showpageshadow="false"
     inkscape:pageopacity="0"
     inkscape:pagecheckerboard="false"
     inkscape:deskcolor="#cbcbcb"
     labelstyle="default"
     inkscape:zoom="7.9598667"
     inkscape:cx="31.972897"
     inkscape:cy="28.832141"
     inkscape:window-width="1536"
     inkscape:window-height="807"
     inkscape:window-x="0"
     inkscape:window-y="0"
     inkscape:window-maximized="1"
     inkscape:current-layer="g11" />
  <defs
     id="defs2">
    <linearGradient
       id="a"
       x1="43"
       x2="49"
       y1="44"
       y2="50"
       gradientTransform="scale(.26458)"
       gradientUnits="userSpaceOnUse">
      <stop
         offset="0"
         id="stop1" />
      <stop
         offset="1"
         stop-opacity="0"
         id="stop2" />
    </linearGradient>
  </defs>
  <circle
     cx="8.466"
     cy="8.466"
     r="7.144"
     fill="#4d4d4d"
     style="paint-order:stroke fill markers;fill:#333333;fill-opacity:1"
     id="circle2" />
  <g
     id="g11"
     transform="translate(-0.22539768)">
    <g
       id="g1"
       transform="matrix(0.91671801,0,0,0.91671801,0.71884348,0.66562579)">
      <path
         id="rect3"
         style="fill:none;stroke:#ffffff;stroke-width:0.529156;stroke-dasharray:none"
         d="m 4.9497239,4.5327163 h 7.3308171 c 0.202853,0 0.366161,0.1633078 0.366161,0.366161 v 7.3308167 c 0,0.202853 -0.163308,0.366161 -0.366161,0.366161 H 4.9497239 c -0.2028532,0 -0.366161,-0.163308 -0.366161,-0.366161 V 4.8988773 c 0,-0.2028532 0.1633078,-0.366161 0.366161,-0.366161 z" />
      <path
         id="rect3-3"
         style="fill:none;stroke:#ffffff;stroke-width:0.529156;stroke-dasharray:none"
         d="m 6.4534199,6.1785647 h 4.3872241 c 0.119159,0 0.215089,0.09593 0.215089,0.2150886 v 4.3062347 c 0,0.119159 -0.09593,0.215088 -0.215089,0.215088 H 6.4534199 c -0.1191591,0 -0.2150886,-0.09593 -0.2150886,-0.215088 V 6.3936533 c 0,-0.119159 0.09593,-0.2150886 0.2150886,-0.2150886 z" />
      <path
         id="rect3-3-6"
         style="fill:none;stroke:#ffffff;stroke-width:0.529156;stroke-dasharray:none"
         d="m 7.7069757,7.5600913 h 1.9100809 c 0.051879,0 0.093644,0.041765 0.093644,0.093644 v 1.8748202 c 0,0.051879 -0.041765,0.093644 -0.093644,0.093644 H 7.7069757 c -0.051879,0 -0.093644,-0.041765 -0.093644,-0.093644 V 7.6537352 c 0,-0.051879 0.041765,-0.093644 0.093644,-0.093644 z" />
      <g
         id="g12"
         style="fill:#333333;fill-opacity:1;stroke:#333333;stroke-opacity:1">
        <path
           style="fill:#333333;fill-opacity:1;stroke:#333333;stroke-width:0.347948;stroke-dasharray:none;stroke-opacity:1"
           d="M 5.6240163,10.958365 H 3.8754079 v 1.714133 l -0.021549,0.164228 z"
           id="path10" />
        <path
           style="fill:#333333;fill-opacity:1;stroke:#333333;stroke-width:0.347948;stroke-dasharray:none;stroke-opacity:1"
           d="M 6.9603071,9.6254884 H 5.2116987 v 1.7141326 l -0.021549,0.164228 z"
           id="path10-7" />
        <path
           style="fill:#333333;fill-opacity:1;stroke:#333333;stroke-width:0.217267;stroke-dasharray:none;stroke-opacity:1"
           d="M 8.3862062,8.3906409 H 7.2333117 v 1.0136955 l -0.014209,0.09712 z"
           id="path10-7-5" />
      </g>
      <g
         id="g10"
         transform="rotate(180,7.9522564,8.9640705)"
         style="fill:#333333;fill-opacity:1;stroke:#333333;stroke-opacity:1">
        <path
           style="fill:#333333;fill-opacity:1;stroke:#333333;stroke-width:0.347948;stroke-dasharray:none;stroke-opacity:1"
           d="M 4.1292991,11.936592 H 2.3806907 v 1.714133 l -0.021549,0.164228 z"
           id="path10-3" />
        <path
           style="fill:#333333;fill-opacity:1;stroke:#333333;stroke-width:0.347948;stroke-dasharray:none;stroke-opacity:1"
           d="M 5.4655899,10.603715 H 3.7169815 v 1.714133 l -0.021549,0.164228 z"
           id="path10-7-56" />
        <path
           style="fill:#333333;fill-opacity:1;stroke:#333333;stroke-width:0.217267;stroke-dasharray:none;stroke-opacity:1"
           d="M 6.891489,9.3688677 H 5.7385945 v 1.0136953 l -0.014209,0.09712 z"
           id="path10-7-5-2" />
      </g>
      <path
         id="rect4"
         style="fill:none;stroke:#ffffff;stroke-width:0.531495;stroke-dasharray:none"
         d="M 4.6287931,12.395689 12.584882,4.7007301 c 0.0013,-0.00135 0.0036,-0.00132 0.005,1.025e-4 0.0013,0.00144 0.0013,0.00369 -7.6e-5,0.00503 L 4.6337513,12.400833 c -0.00142,0.0013 -0.00364,0.0013 -0.00503,-1.01e-4 -0.00138,-0.0014 -0.00133,-0.0037 7.59e-5,-0.005 z" />
    </g>
  </g>
</svg>
