<?xml version="1.0" encoding="UTF-8"?>
<svg width="64" height="64" version="1.1" viewBox="0 0 16.933 16.933" xml:space="preserve" xmlns="http://www.w3.org/2000/svg"><circle cx="8.466" cy="8.466" r="7.144" fill="#1348DC" style="paint-order:stroke fill markers"/><g transform="matrix(.093424 0 0 .093424 4.2527 4.2403)" fill="none"><path d="m8.4375 5.625c-1.5533 0-2.8125 1.2592-2.8125 2.8125v61.875h-5.625v-61.875c0-4.6599 3.7776-8.4375 8.4375-8.4375h75.355c3.7585 0 5.6408 4.5442 2.9831 7.2019l-46.411 46.411h13.073v-5.8008h5.625v7.207c0 2.33-1.8888 4.2188-4.2187 4.2188h-20.105l-9.668 9.6679h43.835v-35.156h5.625v35.156c0 3.1066-2.5184 5.625-5.625 5.625h-49.46l-9.8437 9.8438h71.96c1.5533 0 2.8125-1.2592 2.8125-2.8125v-61.875h5.625v61.875c0 4.6599-3.7776 8.4375-8.4375 8.4375h-75.355c-3.7585 0-5.6408-4.5442-2.9831-7.2019l46.236-46.236h-12.898v5.625h-5.625v-7.0313c0-2.3299 1.8888-4.2187 4.2187-4.2187h19.929l9.8438-9.8437h-43.835v35.156h-5.625v-35.156c0-3.1067 2.5183-5.625 5.625-5.625h49.46l9.8437-9.8438z" clip-rule="evenodd" fill="#fff" fill-rule="evenodd"/></g></svg>
