<?xml version="1.0" encoding="UTF-8"?>
<svg id="svg1" width="64" height="64" version="1.1" xml:space="preserve" xmlns="http://www.w3.org/2000/svg"><defs id="defs1"><style id="style1">.g{fill:#000;}.g,.h,.i{stroke-width:0px;}.h{fill:url(#e);}.i{fill:#fef9fe;}</style><linearGradient id="e" x1="40" x2="40" y1="80" gradientUnits="userSpaceOnUse"><stop id="stop1" stop-color="#fff" stop-opacity=".02" offset=".1"/><stop id="stop2" stop-color="#fff" stop-opacity=".1" offset=".9"/></linearGradient></defs><circle id="circle1" cx="32" cy="32" r="27" fill="#101010"/><path id="path3" class="i" transform="matrix(.59733 0 0 .59733 8.1068 8.1067)" d="m63.435 57.677c-0.0536 3.2125-2.7416 5.7589-5.9546 5.7589h-22.076c-1.1221 0-1.8295-1.2103-1.2751-2.1859 1.4628-2.5738 4.3202-6.7829 8.5529-9.1539 0.4406-0.2468 0.9366-0.3783 1.4416-0.3783h13.453c3.2692 0 5.9129 2.6774 5.8582 5.9591z"/><path id="path4" class="i" transform="matrix(.59733 0 0 .59733 8.1068 8.1067)" d="m45.871 18.75c-1.4628 2.5738-4.3202 6.7829-8.5529 9.1539-0.4406 0.2468-0.9366 0.3783-1.4416 0.3783h-13.357c-3.213 0-5.901-2.5464-5.9546-5.7589-0.0547-3.2817 2.589-5.9591 5.8582-5.9591h22.173c1.1221 0 1.8295 1.2103 1.2751 2.1859z"/><path id="path5" class="i" transform="matrix(.59733 0 0 .59733 8.1068 8.1067)" d="m22.421 63.438c-0.7473 0-1.5065-0.1438-2.2398-0.4475-2.9896-1.2383-4.4093-4.6657-3.171-7.6551 1.9045-4.5977 4.6342-8.7196 8.1136-12.251 3.6044-3.6585 7.8551-6.5172 12.634-8.4968 6.5691-2.7211 11.685-7.8373 14.406-14.406 1.2383-2.9896 4.6658-4.409 7.6551-3.171 2.9896 1.2383 4.4093 4.6657 3.171 7.6551-1.9045 4.5977-4.6342 8.7196-8.1136 12.251-3.6044 3.6585-7.8551 6.5172-12.634 8.4968-6.5691 2.7211-11.685 7.8373-14.406 14.406-0.9345 2.2562-3.1164 3.6185-5.4153 3.6185z"/></svg>
