<?xml version="1.0" encoding="UTF-8" standalone="no"?>
<svg
   width="64"
   height="64"
   version="1.1"
   id="svg6"
   sodipodi:docname="Zoom.svg"
   inkscape:version="1.1.2 (0a00cf5339, 2022-02-04)"
   xmlns:inkscape="http://www.inkscape.org/namespaces/inkscape"
   xmlns:sodipodi="http://sodipodi.sourceforge.net/DTD/sodipodi-0.dtd"
   xmlns="http://www.w3.org/2000/svg"
   xmlns:svg="http://www.w3.org/2000/svg">
  <defs
     id="defs10" />
  <sodipodi:namedview
     id="namedview8"
     pagecolor="#ffffff"
     bordercolor="#666666"
     borderopacity="1.0"
     inkscape:pageshadow="2"
     inkscape:pageopacity="0.0"
     inkscape:pagecheckerboard="0"
     showgrid="false"
     inkscape:zoom="6.5"
     inkscape:cx="32"
     inkscape:cy="32"
     inkscape:window-width="1358"
     inkscape:window-height="690"
     inkscape:window-x="56"
     inkscape:window-y="50"
     inkscape:window-maximized="0"
     inkscape:current-layer="svg6" />
  <rect
     x="5"
     y="5"
     width="54"
     height="54"
     rx="27"
     ry="27"
     fill="#4992fd"
     id="rect2"
     style="stroke-width:0.964286" />
  <path
     d="M 16.666069,22 A 2.1500683,2.15 0 0 0 14.5,24.143 V 36.286 C 14.5,39.45 17.076082,42 20.277183,42 h 18.057574 a 2.1500683,2.15 0 0 0 2.166068,-2.142 V 27.715 C 40.500825,24.549 37.924744,22 34.723642,22 H 20.278183 Z m 31.565002,0.004 c -0.425014,-0.032 -0.908029,0.176 -1.370044,0.635 -1.620051,1.614 -3.519111,2.976 -4.847154,4.906 -0.547017,0.794 -0.510016,1.846 -0.513016,2.836 -0.003,0.543 0.002,1.083 0,1.619 0.002,0.536 -0.003,1.076 0,1.619 0.004,0.99 -0.034,2.041 0.513016,2.836 1.328043,1.93 3.228103,3.292 4.848154,4.906 0.460015,0.46 0.94403,0.666 1.369044,0.635 0.708022,-0.053 1.25204,-0.771 1.25204,-2.104 0,-2.608 0.038,-5.248 0,-7.892 0.038,-2.645 0,-5.284 0,-7.893 0,-1.332 -0.544018,-2.051 -1.25204,-2.103 z"
     fill="#ffffff"
     id="path4"
     style="stroke-width:1.00002" />
</svg>
