<svg width="64" height="64" version="1.1" viewBox="0 0 16.933 16.933" xmlns="http://www.w3.org/2000/svg">
 <circle cx="8.466" cy="8.466" r="7.144" fill="#7b71ff" style="paint-order:stroke markers fill"/>
 <path d="m8.0315 7.924-2.561 2.287c-0.264 0.208-0.437 0.55-0.437 0.936 0 0.63 0.462 1.145 1.026 1.145h4.814c0.564 0 1.026-0.515 1.026-1.145s-0.462-1.143-1.026-1.143h-3.644c-0.054 0-0.089-0.064-0.062-0.117l0.94-1.881c0.034-0.055-0.028-0.12-0.076-0.08m2.842-3.285h-4.814c-0.564 0-1.026 0.515-1.026 1.145s0.462 1.144 1.026 1.144h3.644c0.054 0 0.088 0.065 0.062 0.118l-0.94 1.88c-0.034 0.056 0.028 0.121 0.075 0.08l2.562-2.287c0.264-0.208 0.437-0.55 0.437-0.936 0-0.63-0.462-1.144-1.026-1.144" fill="#ffffff"/>
</svg>
