<?xml version="1.0" encoding="UTF-8" standalone="no"?>
<svg
   width="64"
   height="64"
   viewBox="0 0 16.933 16.933"
   version="1.1"
   id="svg1"
   sodipodi:docname="zulip.svg"
   xml:space="preserve"
   inkscape:version="1.3.2 (091e20ef0f, 2023-11-25, custom)"
   xmlns:inkscape="http://www.inkscape.org/namespaces/inkscape"
   xmlns:sodipodi="http://sodipodi.sourceforge.net/DTD/sodipodi-0.dtd"
   xmlns="http://www.w3.org/2000/svg"
   xmlns:svg="http://www.w3.org/2000/svg"><defs
     id="defs1"><linearGradient
       x1="33.866"
       y1="0"
       x2="33.866"
       y2="67.732"
       id="linearGradient-1"
       gradientUnits="userSpaceOnUse"
       gradientTransform="matrix(0.05581254,0,0,0.05581254,1.3228905,1.3228904)"><stop
         stop-color="#24ADFF"
         offset="0%"
         id="stop1" /><stop
         stop-color="#7B71FF"
         offset="100%"
         id="stop2" /></linearGradient></defs><sodipodi:namedview
     id="namedview1"
     pagecolor="#505050"
     bordercolor="#eeeeee"
     borderopacity="1"
     inkscape:showpageshadow="0"
     inkscape:pageopacity="0"
     inkscape:pagecheckerboard="0"
     inkscape:deskcolor="#505050"
     inkscape:zoom="6.0469258"
     inkscape:cx="7.0283647"
     inkscape:cy="29.436445"
     inkscape:window-width="1440"
     inkscape:window-height="831"
     inkscape:window-x="0"
     inkscape:window-y="0"
     inkscape:window-maximized="1"
     inkscape:current-layer="svg1" /><circle
     cx="8.466"
     cy="8.466"
     r="7.144"
     fill="#b52cc1"
     style="paint-order:stroke markers fill;fill:#fefcfe;fill-opacity:1"
     id="circle1" /><path
     d="m 8.4668965,1.3228906 c 3.9455265,0 7.1440065,3.1984809 7.1440065,7.1440063 0,3.9455261 -3.19848,7.1440061 -7.1440065,7.1440061 -3.9455252,0 -7.1440059,-3.19848 -7.1440059,-7.1440061 0,-3.9455254 3.1984807,-7.1440063 7.1440059,-7.1440063 z M 8.114135,7.9211702 5.5527971,10.2083 c -0.2638474,0.20761 -0.4369705,0.550287 -0.4369705,0.935779 0,0.629462 0.4617747,1.144584 1.0261663,1.144584 h 4.8136361 c 0.564391,0 1.026167,-0.515122 1.026167,-1.144584 0,-0.62963 -0.461776,-1.144583 -1.026167,-1.144583 H 7.3115503 c -0.054025,0 -0.088176,-0.06473 -0.061842,-0.1173963 l 0.93952,-1.8810784 c 0.034316,-0.054873 -0.027525,-0.120626 -0.075092,-0.079848 z M 10.955629,4.6360793 H 6.1419929 c -0.5643916,0 -1.0261663,0.5149525 -1.0261663,1.1445829 0,0.6294615 0.4617747,1.1445838 1.0261663,1.1445838 v 0 h 3.6440792 c 0.054024,0 0.088177,0.064731 0.061841,0.1173971 v 0 L 8.9083928,8.9237206 c -0.034318,0.054872 0.027524,0.1206268 0.075094,0.079849 v 0 L 11.544824,6.7160998 c 0.263849,-0.207781 0.436972,-0.5502891 0.436972,-0.9357813 0,-0.6294616 -0.461776,-1.1445837 -1.026167,-1.1442438 z"
     fill="url(#linearGradient-1)"
     id="path2"
     style="fill:url(#linearGradient-1);stroke-width:0.0558126" /></svg>
