<?xml version="1.0" encoding="UTF-8"?>
<svg width="64" height="64" version="1.0" xmlns="http://www.w3.org/2000/svg" xmlns:cc="http://creativecommons.org/ns#" xmlns:dc="http://purl.org/dc/elements/1.1/" xmlns:rdf="http://www.w3.org/1999/02/22-rdf-syntax-ns#">
 <metadata>
  <rdf:RDF>
   <cc:Work rdf:about="">
    <dc:format>image/svg+xml</dc:format>
    <dc:type rdf:resource="http://purl.org/dc/dcmitype/StillImage"/>
    <dc:title/>
   </cc:Work>
  </rdf:RDF>
 </metadata>
 <circle cx="32" cy="32" r="27" fill="#666" style="paint-order:stroke fill markers"/>
 <circle cx="32" cy="32" r="21" fill="#fff" stroke-width="1.3125" style="paint-order:markers stroke fill"/>
 <circle cx="32" cy="32" r="18" fill="#7297ba" stroke-width="1.2857" style="paint-order:markers stroke fill"/>
 <path d="m32 22a10 10 0 0 0-10 10v10h10a10 10 0 0 0 10-10 10 10 0 0 0-10-10zm0 5a5 5 0 0 1 5 5 5 5 0 0 1-5 5 5 5 0 0 1-5-5 5 5 0 0 1 5-5z" fill="#fff" style="paint-order:stroke fill markers"/>
</svg>
