<svg width="64" height="64" version="1" xmlns="http://www.w3.org/2000/svg">
 <circle cx="32" cy="32" r="27" fill="#f9f9f9" stroke-width="3.7796" style="paint-order:stroke fill markers"/>
 <g transform="matrix(.88889 0 0 .88889 3.5556 3.5556)">
  <g stroke-width="1.0022">
   <path d="m32 3.875c-0.024 0-0.05 0.00402-0.074 0.00402h-8e-3c-8.972 0.056248-17.918 9.3958-17.918 16.405v23.173c0 9.5243 6.75 16.668 18 16.668 11.25 2e-3 18-7.1397 18-16.664v-22.538c0-7.2844-8.988-16.981-18-17.04z" fill="#4f4f4f"/>
   <path d="m32 3.883-0.073 0.00301h-8e-3c-8.972 0.056253-17.919 9.3958-17.919 16.405v11.717h36v-11.077c0-7.2844-8.988-16.981-18-17.04z" opacity=".1"/>
   <path d="m32 3.883-0.073 0.00301h-8e-3c-8.972 0.056253-17.919 9.3958-17.919 16.405v11.717h18v-28.117z" opacity=".1"/>
  </g>
  <path d="m32 10.5c1.8596 0 3.375 1.297 3.375 2.8942v7.7147c0 1.5951-1.5154 2.8911-3.375 2.8911s-3.375-1.296-3.375-2.8932v-7.7158c0-1.5951 1.5154-2.8911 3.375-2.8911" fill="#1dd0d0" stroke-width="1.0809"/>
  <circle cx="32" cy="54.5" r="1.125" fill="#1dd0d0" stroke-width="1.125" style="paint-order:markers stroke fill"/>
 </g>
</svg>
