<?xml version="1.0" encoding="UTF-8"?>
<svg width="64" height="64" version="1" xmlns="http://www.w3.org/2000/svg">
 <circle cx="32" cy="32" r="27" fill="#ececec" stroke-width="3.7796" style="paint-order:stroke fill markers"/>
 <path d="m24 10c-2.216 0-4 1.784-4 4v12h24v-12c0-2.216-1.784-4-4-4h-16z" fill="#b3b3b3"/>
 <path d="m18 26c-2.77 0-5 2.23-5 5v6c0 10.526 8.474 19 19 19s19-8.474 19-19v-6c0-2.77-2.23-5-5-5h-28z" fill="#4d4d4d"/>
 <rect x="21" y="42" width="22" height="2" rx="1" ry="1" opacity=".4" stroke-width=".5863"/>
 <rect x="23" y="46" width="18" height="2" rx="1" ry="1" opacity=".4" stroke-width=".61237"/>
 <rect x="25" y="50" width="14" height="2" rx="1" ry="1" opacity=".4" stroke-width=".66144"/>
 <path d="m23 14h7v3h-7z" opacity=".35" stroke-width=".59161"/>
 <path d="m34 14h7v3h-7z" opacity=".35" stroke-width=".59161"/>
</svg>
