<svg width="64" height="64" version="1" xmlns="http://www.w3.org/2000/svg" xmlns:xlink="http://www.w3.org/1999/xlink">
 <circle cx="32" cy="32" r="27" fill="#4d4d4d" style="paint-order:stroke fill markers"/>
 <path d="m55 32c-0.0045-0.33355-0.01619-0.66696-0.03516-1h-45.914c-0.024182 0.33292-0.041113 0.66634-0.050781 1 0.00447 0.33355 0.016187 0.66696 0.035156 1h45.914c0.02418-0.33292 0.04111-0.66634 0.05078-1zm-0.2207 3h-45.557c0.088978 0.67158 0.20758 1.3389 0.35547 2h44.854c0.14526-0.66122 0.26126-1.3285 0.34766-2zm-2e-3 -6c-0.08896-0.67158-0.20755-1.3389-0.35542-2h-44.854c-0.14526 0.66122-0.26126 1.3285-0.34766 2zm-0.87886 10h-43.779c0.21633 0.67779 0.46399 1.3452 0.74219 2h42.301c0.27622-0.65493 0.52192-1.3223 0.73633-2zm-0.01758-14c-0.21633-0.67779-0.46399-1.3452-0.74219-2h-42.301c-0.27622 0.65493-0.52192 1.3223-0.73633 2z" fill="#f8c44e" style="paint-order:stroke fill markers"/>
 <path d="m32 9c-0.33355 0.00447-0.66696 0.016187-1 0.035156v45.914c0.33292 0.02418 0.66634 0.04111 1 0.05078 0.33355-0.0045 0.66696-0.01619 1-0.03516v-45.914c-0.33292-0.024182-0.66634-0.041113-1-0.050781zm3 0.2207v45.557c0.67158-0.08898 1.3389-0.20758 2-0.35547v-44.854c-0.66122-0.14526-1.3285-0.26126-2-0.34766zm-6 0.00195c-0.67158 0.088978-1.3389 0.20758-2 0.35547v44.854c0.66122 0.14526 1.3285 0.26126 2 0.34766zm10 0.87891v43.779c0.67779-0.21633 1.3452-0.46399 2-0.74219v-42.301c-0.65493-0.27622-1.3223-0.52192-2-0.73633zm-14 0.01758c-0.67779 0.21633-1.3452 0.46399-2 0.74219v42.301c0.65493 0.27622 1.3223 0.52192 2 0.73633z" fill="#f8c44e" style="paint-order:stroke fill markers"/>
 <circle cx="32" cy="32" r="21" fill="#808080" stroke-width=".77778" style="paint-order:stroke fill markers"/>
 <path d="m20 19c-0.554 0-1 0.446-1 1v3c0 0.554 0.446 1 1 1h10c0.554 0 1-0.446 1-1v-3c0-0.554-0.446-1-1-1h-10zm14 0c-0.554 0-1 0.446-1 1v3c0 0.554 0.446 1 1 1h10c0.554 0 1-0.446 1-1v-3c0-0.554-0.446-1-1-1h-10zm-14 7c-0.554 0-1 0.446-1 1v3c0 0.554 0.446 1 1 1h10c0.554 0 1-0.446 1-1v-3c0-0.554-0.446-1-1-1h-10zm14 0c-0.554 0-1 0.446-1 1v3c0 0.554 0.446 1 1 1h10c0.554 0 1-0.446 1-1v-3c0-0.554-0.446-1-1-1h-10zm-14 7c-0.554 0-1 0.446-1 1v3c0 0.554 0.446 1 1 1h10c0.554 0 1-0.446 1-1v-3c0-0.554-0.446-1-1-1h-10zm14 0c-0.554 0-1 0.446-1 1v3c0 0.554 0.446 1 1 1h10c0.554 0 1-0.446 1-1v-3c0-0.554-0.446-1-1-1h-10zm-14 7c-0.554 0-1 0.446-1 1v3c0 0.554 0.446 1 1 1h10c0.554 0 1-0.446 1-1v-3c0-0.554-0.446-1-1-1h-10zm14 0c-0.554 0-1 0.446-1 1v3c0 0.554 0.446 1 1 1h10c0.554 0 1-0.446 1-1v-3c0-0.554-0.446-1-1-1h-10z" fill="#666" style="paint-order:stroke fill markers"/>
</svg>
