<svg width="64" height="64" version="1" xmlns="http://www.w3.org/2000/svg" xmlns:xlink="http://www.w3.org/1999/xlink">
 <circle cx="32" cy="32" r="27" fill="#4f4f4f" stroke-width="3.7796" style="paint-order:stroke fill markers"/>
 <path d="m17.5 33c-1.385 0-2.5 0.76828-2.5 2.7073v14.58c4.6163 4.3031 10.689 6.7012 17 6.7129 6.309-8e-3 12.382-2.4011 17-6.6992v-14.284c0-1.939-1.115-3.0169-2.5-3.0169z" opacity=".4" stroke-width="1.1832"/>
 <g fill="#f8c44e">
  <path d="m32 7a25 25 0 0 0-1 0.035156v9.9648h3v-9.9004a25 25 0 0 0-2-0.099609zm-2 0.089844a25 25 0 0 0-3 0.44141v9.4688h3v-9.9102zm5 0.11133v9.7988h3v-9.2383a25 25 0 0 0-3-0.56055zm-9 0.55469a25 25 0 0 0-3 0.92383v8.3203h3v-9.2441zm13 0.26172v8.9824h3v-7.9004a25 25 0 0 0-3-1.082zm-17 1.1035a25 25 0 0 0-3 1.5508v6.3281h3v-7.8789zm21 0.46289v7.416h3v-5.7031a25 25 0 0 0-3-1.7129zm4 2.4551v4.9609h3v-2.3418a25 25 0 0 0-3-2.6191zm-32 1.9609v3h3v-3h-3z"/>
 </g>
</svg>
