<?xml version="1.0" encoding="UTF-8" standalone="no"?>
<svg
   width="16"
   height="16"
   version="1.1"
   viewBox="0 0 16 16"
   id="svg2"
   sodipodi:docname="folder-visiting.svg"
   inkscape:version="1.4.2 (ebf0e940d0, 2025-05-08)"
   xmlns:inkscape="http://www.inkscape.org/namespaces/inkscape"
   xmlns:sodipodi="http://sodipodi.sourceforge.net/DTD/sodipodi-0.dtd"
   xmlns="http://www.w3.org/2000/svg"
   xmlns:svg="http://www.w3.org/2000/svg">
  <sodipodi:namedview
     id="namedview2"
     pagecolor="#505050"
     bordercolor="#ffffff"
     borderopacity="1"
     inkscape:showpageshadow="0"
     inkscape:pageopacity="0"
     inkscape:pagecheckerboard="1"
     inkscape:deskcolor="#505050"
     inkscape:zoom="38.25"
     inkscape:cx="8"
     inkscape:cy="8"
     inkscape:window-width="1366"
     inkscape:window-height="844"
     inkscape:window-x="0"
     inkscape:window-y="0"
     inkscape:window-maximized="1"
     inkscape:current-layer="svg2" />
  <defs
     id="defs1">
    <style
       id="current-color-scheme"
       type="text/css">.ColorScheme-Text { color:#727272; } .ColorScheme-Highlight { color:#5294e2; }</style>
  </defs>
  <g
     transform="translate(0,-6)"
     id="g2">
    <path
       transform="translate(-3,3)"
       d="M 5,4 C 4.446,4 4,4.446 4,5 v 3 h 6 l 1,-2 h 7 V 5 C 18,4.446 17.554,4 17,4 Z"
       class="ColorScheme-Text"
       fill="currentColor"
       opacity="0.5"
       id="path1-7"
       style="color:#727272" />
    <path
       d="M 8.918,9 7.8594,9.2832 H 7.85745 L 7.00003,11 h -5.5469 l -1.1738,0.31445 C 0.1091,11.4936 3e-5,11.73221 3e-5,12 v 1.459 l 15.629,-4.1875 C 15.62363,9.26674 15.6169,9.26445 15.61145,9.259781 15.52713,9.187505 15.43608,9.124711 15.33801,9.080091 15.22901,9.033197 15.11522,9.000013 15.00012,9.000013 h -6.082 z M 16,10.2285 0,14.5176 v 2.0703 l 16,-4.2891 z m 0,3.125 -16,4.2891 v 2.0703 l 16,-4.2871 z m 0,3.127 -15.717,4.2129 c 0.18159,0.18781 0.43371,0.30664 0.7168,0.30664 h 5.8633 l 9.1367,-2.4492 v -2.0703 z m 0,3.127 -5.1934,1.3926 H 15 c 0.554,0 1,-0.446 1,-1 v -0.39258 z"
       class="ColorScheme-Text"
       fill="currentColor"
       id="path2-5"
       style="color:#727272" />
  </g>
</svg>
