<?xml version="1.0" encoding="UTF-8" standalone="no"?>
<svg
   width="64"
   height="64"
   viewBox="0 0 16.933 16.933"
   version="1.1"
   id="svg21"
   sodipodi:docname="green-folder-script.svg"
   inkscape:version="1.1.2 (0a00cf5339, 2022-02-04)"
   xmlns:inkscape="http://www.inkscape.org/namespaces/inkscape"
   xmlns:sodipodi="http://sodipodi.sourceforge.net/DTD/sodipodi-0.dtd"
   xmlns="http://www.w3.org/2000/svg"
   xmlns:svg="http://www.w3.org/2000/svg">
  <sodipodi:namedview
     id="namedview23"
     pagecolor="#505050"
     bordercolor="#ffffff"
     borderopacity="1"
     inkscape:pageshadow="0"
     inkscape:pageopacity="0"
     inkscape:pagecheckerboard="1"
     showgrid="false"
     inkscape:zoom="11.5625"
     inkscape:cx="32"
     inkscape:cy="32"
     inkscape:window-width="1920"
     inkscape:window-height="1000"
     inkscape:window-x="0"
     inkscape:window-y="44"
     inkscape:window-maximized="1"
     inkscape:current-layer="svg21" />
  <defs
     id="defs7">
    <linearGradient
       id="a"
       x1="-197.72"
       x2="-197.72"
       y1="263.86"
       y2="273.76"
       gradientTransform="rotate(-45 -337.55 -145.8)"
       gradientUnits="userSpaceOnUse">
      <stop
         offset="0"
         id="stop2" />
      <stop
         stop-opacity="0"
         offset="1"
         id="stop4" />
    </linearGradient>
  </defs>
  <path
     transform="scale(.26458)"
     d="m27.002 8.984-14 .004c-1.11 0-1.493 1.013-2.002 1.998V11h-1c-2.216 0-4 1.784-4 4v28c0 2.216 1.784 4 4 4h44c2.216 0 4-1.784 4-4V15c0-2.216-1.784-4-4-4H37.141c-.047-.003-.092-.014-.14-.014h-7.997c-.586-.94-.89-2.002-2.002-2.002z"
     fill="#66bb6a"
     style="paint-order:stroke fill markers"
     id="path9" />
  <path
     transform="scale(.26458)"
     d="m27.002 8.984-14 .004c-1.11 0-1.493 1.013-2.002 1.998V11h-1c-2.216 0-4 1.784-4 4v28c0 2.216 1.784 4 4 4h44c2.216 0 4-1.784 4-4V15c0-2.216-1.784-4-4-4l-24.996-.014c-.586-.94-.89-2.002-2.002-2.002z"
     opacity=".18"
     style="paint-order:stroke fill markers"
     id="path11" />
  <rect
     x="2.381"
     y="3.7"
     width="12.171"
     height="5.027"
     ry=".533"
     fill="#fff"
     paint-order="markers stroke fill"
     id="rect13" />
  <rect
     x="3.704"
     y="2.64"
     width="3.175"
     height=".529"
     ry=".265"
     opacity=".25"
     paint-order="stroke markers fill"
     id="rect15" />
  <path
     transform="scale(.26458)"
     d="m34 16-3 4H6c-2.216 0-4 1.784-4 4v28c0 2.216 1.784 4 4 4h52c2.216 0 4-1.784 4-4V20c0-2.216-1.784-4-4-4z"
     fill="#66bb6a"
     style="paint-order:stroke fill markers"
     id="path17" />
  <path
     transform="scale(.26458)"
     d="M62 40 46 56h12c2.216 0 4-1.784 4-4V40z"
     fill="url(#a)"
     opacity=".2"
     style="paint-order:stroke fill markers"
     id="path19" />
  <path
     d="m 6.4879584,7.1436094 -0.4026615,0.1870567 1.664964,1.6649637 -1.664964,1.6649632 0.4026615,0.187057 1.1357805,-1.1357808 -0.0021,-0.00209 0.716213,-0.716213 -0.714149,-0.7141493 z m 1.7139635,3.7040936 v 0.529209 h 2.6457541 v -0.529209 z"
     class="ColorScheme-Background"
     fill="currentColor"
     id="path22"
     style="color:#ffffff;stroke-width:0.264578" />
</svg>
