<svg xmlns="http://www.w3.org/2000/svg" width="32" height="32"><rect width="30" height="30" x="1" y="1" fill="#f2f2f2" rx="15" ry="15" style="fill:#e6e6e6"/><g fill-rule="evenodd" stroke-width="0"><path fill="#48cfad" d="M15.883 28.874c4.88-3.601 5.475-7.397.174-11.461-6.199 4.526-3.93 8.079-.174 11.461" opacity=".85"/><path fill="#ed5565" d="M15.883 3.631c4.88 3.602 5.475 7.397.174 11.461-6.199-4.526-3.93-8.079-.174-11.46z" opacity=".85"/><path fill="#ffce54" d="M28.735 16.095c-3.601 4.88-7.397 5.475-11.461.174 4.526-6.199 8.079-3.93 11.461-.174" opacity=".85"/><path fill="#ac92ec" d="M3.472 16.179c3.6 4.88 7.397 5.475 11.46.174-4.525-6.199-8.078-3.93-11.46-.174" opacity=".85"/><path fill="#ec87c0" d="M15.399 15.454c-6.05.419-8.963-2.088-7.558-8.618 7.654-.568 8.227 3.609 7.558 8.618" opacity=".85"/><path fill="#5d9cec" d="M7.696 25.732c6.051.419 8.963-2.088 7.558-8.618-7.654-.568-8.227 3.609-7.558 8.618" opacity=".85"/><path fill="#fc6e51" d="M16.892 15.517c6.05.419 8.963-2.088 7.558-8.618-7.654-.568-8.227 3.609-7.558 8.618" opacity=".85"/><path fill="#a0d468" d="M24.584 25.753c-6.05.419-8.963-2.088-7.558-8.618 7.654-.568 8.227 3.609 7.558 8.618" opacity=".85"/></g></svg>