<svg width="32" height="32" version="1.1" xmlns="http://www.w3.org/2000/svg">
 <rect x="1" y="1" width="30" height="30" rx="15" ry="15" fill="#c6cad2"/>
 <g stroke-width=".5">
  <path d="M24.669 26c.731 0 1.33-.58 1.33-1.288V11.573c0-.709-.599-1.288-1.33-1.288H11.682l5.823 8.902-.61 6.812z" fill="#fff"/>
  <path d="M20.317 21.714h-4.653L16.894 26z" fill="#305fcf"/>
  <path d="M19.571 13.5v1.071h-2.55v1.073h.436v-.001h4.704c-.275.955-.882 1.875-1.475 2.576-.744-.868-.959-1.315-1.023-1.505H18.57c.08.245.38.899 1.49 2.18-.48.482-.842.767-.842.767l.335 1.033s.506-.429 1.14-1.091a47 47 0 0 0 2.516 2.468l.653-.679a41 41 0 0 1-2.544-2.468c.82-.956 1.653-2.18 1.829-3.282h1.78v.002h.002V14.57h-4.287V13.5z" fill="#5a717f"/>
  <path d="M7.33 6C6.6 6 6 6.58 6 7.29v13.136c0 .708.599 1.288 1.33 1.288h12.987L15.105 6z" fill="#4285f4"/>
  <path d="m13.517 17.071-.485-1.429h-2.636l-.485 1.429H8.5l2.347-6.429h1.724l2.357 6.429zm-.767-2.5-1.036-2.933-1.018 2.933z" fill="#fff"/>
 </g>
</svg>
