<svg xmlns="http://www.w3.org/2000/svg" width="32" height="32"><rect width="30" height="30" x="1" y="1" fill="#939297" rx="15" ry="15"/><g fill="#fff" transform="translate(0 -1)"><path d="M11.5 16a2.5 2.5 0 0 0-1.992 1H8c-.554 0-1 .446-1 1v1c0 .554.446 1 1 1h1.508a2.5 2.5 0 0 0 1.992 1 2.5 2.5 0 0 0 1.992-1H24c.554 0 1-.446 1-1v-1c0-.554-.446-1-1-1H13.498a2.5 2.5 0 0 0-1.998-1m0 1a1.5 1.5 0 0 1 1.5 1.5 1.5 1.5 0 0 1-1.5 1.5 1.5 1.5 0 0 1-1.5-1.5 1.5 1.5 0 0 1 1.5-1.5M8 18h1.057a2.5 2.5 0 0 0-.057.5 2.5 2.5 0 0 0 .057.5H8zm5.95 0H24v1H13.943a2.5 2.5 0 0 0 .057-.5 2.5 2.5 0 0 0-.05-.5M10.5 8C8.561 8 7 9.561 7 11.5S8.561 15 10.5 15h11c1.939 0 3.5-1.561 3.5-3.5S23.439 8 21.5 8zm0 1h11c1.385 0 2.5 1.115 2.5 2.5S22.885 14 21.5 14h-11C9.115 14 8 12.885 8 11.5S9.115 9 10.5 9"/><circle cx="21.5" cy="11.5" r="1.5"/><path d="M20.5 21a2.5 2.5 0 0 1 1.992 1H24c.554 0 1 .446 1 1v1c0 .554-.446 1-1 1h-1.508a2.5 2.5 0 0 1-1.992 1 2.5 2.5 0 0 1-1.992-1H8c-.554 0-1-.446-1-1v-1c0-.554.446-1 1-1h10.502a2.5 2.5 0 0 1 1.998-1m0 1a1.5 1.5 0 0 0-1.5 1.5 1.5 1.5 0 0 0 1.5 1.5 1.5 1.5 0 0 0 1.5-1.5 1.5 1.5 0 0 0-1.5-1.5m3.5 1h-1.057a2.5 2.5 0 0 1 .057.5 2.5 2.5 0 0 1-.057.5H24zm-5.95 0H8v1h10.057a2.5 2.5 0 0 1-.057-.5 2.5 2.5 0 0 1 .05-.5"/></g></svg>