<svg xmlns="http://www.w3.org/2000/svg" width="32" height="32"><rect width="30" height="30" x="1" y="1" fill="#f2f2f2" rx="15" ry="15" style="fill:#e6e6e6"/><g stroke-linecap="square" stroke-width=".1"><path fill="#303136" d="m4 14-.941 7.525a2 2 0 0 0 3.479 1.752l.001.004 5.46-6.28zm24 0-8 3 5.46 6.281.003-.004A2 2 0 0 0 29 22a2 2 0 0 0-.059-.475z"/><path fill="#3f4346" d="M10 8a6 6 0 0 0 0 12 6 6 0 0 0 3.31-1h5.38A6 6 0 0 0 22 20a6 6 0 0 0 0-12h-7z"/></g><g stroke-linecap="square" stroke-width=".1"><path fill="#27ae60" d="M23 11a1 1 0 0 0-1 1 1 1 0 0 0 1 1 1 1 0 0 0 1-1 1 1 0 0 0-1-1" style="fill:#fff"/><path fill="#f33777" d="M21 13a1 1 0 0 0-1 1 1 1 0 0 0 1 1 1 1 0 0 0 1-1 1 1 0 0 0-1-1" style="fill:#fff"/><path fill="#c0392b" d="M25 13a1 1 0 0 0-1 1 1 1 0 0 0 1 1 1 1 0 0 0 1-1 1 1 0 0 0-1-1" style="fill:#fff"/><path fill="#2980b9" d="M23 15a1 1 0 0 0-1 1 1 1 0 0 0 1 1 1 1 0 0 0 1-1 1 1 0 0 0-1-1" style="fill:#fff"/></g><g stroke-linecap="square"><path fill="#fff" d="M8 11v2H6v2h2v2h2v-2h2v-2h-2v-2z"/><path fill="#303136" d="M13 17a2 2 0 0 0-2 2 2 2 0 0 0 2 2 2 2 0 0 0 2-2 2 2 0 0 0-2-2m6 0a2 2 0 0 0-2 2 2 2 0 0 0 2 2 2 2 0 0 0 2-2 2 2 0 0 0-2-2"/><path fill="#fff" d="M13 18a1 1 0 0 0-1 1 1 1 0 0 0 1 1 1 1 0 0 0 1-1 1 1 0 0 0-1-1m6 0a1 1 0 0 0-1 1 1 1 0 0 0 1 1 1 1 0 0 0 1-1 1 1 0 0 0-1-1"/></g></svg>