<svg xmlns="http://www.w3.org/2000/svg" width="32" height="32"><rect width="30" height="30" x="1" y="1" fill="#ff4962" rx="15" ry="15"/><path fill="#fff" d="M13.943 10.156c-.516.145-.932.721-.932 1.281v8.876a2.54 2.54 0 0 0-1.894-.214c-1.258.343-2.046 1.449-1.776 2.47.27 1.023 1.509 1.594 2.767 1.251 1.004-.273 1.696-1.045 1.806-1.86l.03-8.388 6.524-1.83v6.619a2.54 2.54 0 0 0-1.893-.214c-1.258.343-2.047 1.449-1.777 2.47.27 1.023 1.51 1.594 2.767 1.251 1.004-.273 1.696-1.045 1.806-1.86l.03-10.92c0-.419-.248-.733-.583-.792z"/></svg>