<svg xmlns="http://www.w3.org/2000/svg" width="32" height="32"><g transform="translate(-2.286 -2.269)scale(1.1428)"><rect width="26.251" height="26.251" x="2.875" y="2.86" fill="#f2f2f2" rx="13.126" ry="13.126" style="fill:#666"/><path fill="#fff" d="m15.987 6.625-.036.003c-.443.045-.435.42-.578 1.344a8.085 8.062 28.59 0 0-.903.12c-.415-.953-.557-1.283-.928-1.15-.422.15-.32.514-.238 1.457a8.085 8.062 28.59 0 0-.822.338c-.596-.72-.78-1.047-1.184-.859-.357.167-.228.501.146 1.468a8.085 8.062 28.59 0 0-.72.55c-.755-.538-1.018-.802-1.358-.517-.299.25-.09.54.509 1.359a8.085 8.062 28.59 0 0-.543.71c-.876-.303-1.204-.483-1.45-.114-.213.321.064.54.845 1.14a8.085 8.062 28.59 0 0-.358.88c-.907-.102-1.265-.2-1.422.21-.14.367.185.518 1.118.946a8.085 8.062 28.59 0 0-.123.934c-.893.122-1.262.117-1.314.552-.046.391.307.455 1.325.645a8.085 8.062 28.59 0 0 .117.855c-.86.415-1.226.512-1.14.953.075.385.43.34 1.448.21a8.085 8.062 28.59 0 0 .348.845c-.739.625-1.073.81-.878 1.217.17.358.504.221 1.48-.166l-.091-.161a8.085 8.062 28.59 0 0 .62.825c-.523.779-.784 1.05-.488 1.384.255.289.54.077 1.322-.527a8.085 8.062 28.59 0 0 .731.563c-.367.983-.497 1.319-.136 1.482.405.183.588-.145 1.173-.87a8.085 8.062 28.59 0 0 .86.357c-.134.993-.178 1.346.202 1.424.437.089.54-.273.953-1.115a8.085 8.062 28.59 0 0 .899.125c.147 1.008.2 1.362.59 1.331.443-.035.445-.41.608-1.324a8.085 8.062 28.59 0 0 .932-.12c.38.905.523 1.228.887 1.103.415-.143.331-.503.261-1.403a8.085 8.062 28.59 0 0 .82-.33c.659.77.892 1.04 1.204.806.35-.26.164-.577-.173-1.4a8.085 8.062 28.59 0 0 .758-.576c.824.583 1.116.788 1.362.486.275-.339.016-.6-.514-1.32a8.085 8.062 28.59 0 0 .58-.763c.9.373 1.228.5 1.399.156.194-.392-.119-.589-.802-1.18a8.085 8.062 28.59 0 0 .342-.84c.991.107 1.345.14 1.412-.242.076-.433-.28-.532-1.109-.91a8.085 8.062 28.59 0 0 .12-.91c1.004-.156 1.357-.213 1.323-.602-.039-.442-.413-.44-1.328-.595a8.085 8.062 28.59 0 0-.122-.903c.923-.425 1.247-.576 1.108-.94-.157-.41-.515-.313-1.414-.213a8.085 8.062 28.59 0 0-.357-.858c.81-.626 1.094-.846.875-1.172-.251-.374-.58-.183-1.489.133a8.085 8.062 28.59 0 0-.552-.715c.594-.854.801-1.148.493-1.394-.346-.276-.604-.007-1.342.546a8.085 8.062 28.59 0 0-.736-.557c.373-.956.504-1.29.15-1.458h-.001c-.403-.188-.59.138-1.189.857a8.085 8.062 28.59 0 0-.836-.34c.134-1.02.18-1.375-.204-1.452-.443-.089-.54.279-.964 1.145a8.085 8.062 28.59 0 0-.89-.119c-.163-.962-.224-1.334-.554-1.344zm2.033 2.833c.284 0 .694.168 1.12.404.783.435 1.623 1.105 1.847 1.407 1.072 1.148 1.854 2.572 1.9 4.86.008.426-.032.812-.132 1.128-.11.33-.329.659-.675.82-.287.12-.606.206-.903.069-.924-.424-2.086-1.157-3.018-1.709-.157-.092-.271-.243-.288-.32l.004-.117a1.88 1.88 0 0 0-1.076-1.697.8.8 0 0 1-.074-.239 56 56 0 0 1-.017-3.36c.002-.766.554-1.218 1.232-1.24l.054-.005zm-4.011.043h.044c.207 0 .419.042.607.143q.061.033.12.075c.245.19.477.426.503.751.084 1.013.017 2.385-.006 3.468a.7.7 0 0 1-.121.388A1.88 1.88 0 0 0 14.125 16l.004.089a.7.7 0 0 1-.217.263 56 56 0 0 1-2.92 1.663c-.67.375-1.333.116-1.686-.463-.459-.606-.168-2.99.078-3.54.474-1.498 1.33-2.88 3.303-4.042.367-.216.724-.37 1.048-.437a2 2 0 0 1 .23-.03zm1.99 5.561a.94.94 0 0 1 .938.938.94.94 0 0 1-.937.937.94.94 0 0 1-.938-.937.94.94 0 0 1 .938-.938zm-1.106 2.52h.017q.046 0 .074.01l.032.003a1.9 1.9 0 0 0 .984.28 1.9 1.9 0 0 0 .981-.278l.056-.006a.7.7 0 0 1 .299.06 60 60 0 0 1 2.9 1.696c.66.392.767 1.096.441 1.691-.295.7-2.505 1.642-3.104 1.704-1.534.338-3.158.287-5.15-.84-.372-.21-.685-.441-.905-.688-.229-.262-.4-.618-.362-.998.042-.308.131-.626.4-.812.835-.58 2.058-1.206 3.008-1.727a.8.8 0 0 1 .33-.094z" style="fill:#fff"/></g></svg>