<svg xmlns="http://www.w3.org/2000/svg" xmlns:xlink="http://www.w3.org/1999/xlink" width="32" height="32"><defs><linearGradient id="a" x2="0" y1="532.8" y2="527.8" gradientUnits="userSpaceOnUse"><stop offset="0" stop-color="#ebf1f1"/><stop offset="1" stop-color="#fcfcfc"/></linearGradient><linearGradient id="b" x1="16" x2="16" y1="4" y2="11" gradientUnits="userSpaceOnUse"><stop offset="0" stop-color="#fdfefe"/><stop offset="1" stop-color="#dfe4e6"/></linearGradient><linearGradient xlink:href="#a" id="c" x1="7.5" x2="7.5" y1="12" y2="17" gradientUnits="userSpaceOnUse"/><linearGradient xlink:href="#a" id="d" x1="7.5" x2="7.5" y1="12" y2="17" gradientTransform="translate(17)" gradientUnits="userSpaceOnUse"/></defs><rect width="30" height="30" x="1" y="1" fill="#fb3646" rx="15" ry="15"/><path d="M16 1a14.96 14.96 0 0 0-13.756 9h27.512A14.96 14.96 0 0 0 16 1" style="fill:#000;opacity:.1"/><path fill="url(#b)" d="M11 4C9.338 4 8 5.338 8 7v3h2V7c0-.554.446-1 1-1h10c.554 0 1 .446 1 1v3h2V7c0-1.662-1.338-3-3-3z"/><path fill="url(#c)" fill-rule="evenodd" d="M7.5 12A2.5 2.5 0 0 0 5 14.5 2.5 2.5 0 0 0 7.5 17a2.5 2.5 0 0 0 2.5-2.5A2.5 2.5 0 0 0 7.5 12m0 1A1.5 1.5 0 0 1 9 14.5 1.5 1.5 0 0 1 7.5 16 1.5 1.5 0 0 1 6 14.5 1.5 1.5 0 0 1 7.5 13" style="paint-order:normal"/><path fill="url(#d)" fill-rule="evenodd" d="M24.5 12a2.5 2.5 0 0 0-2.5 2.5 2.5 2.5 0 0 0 2.5 2.5 2.5 2.5 0 0 0 2.5-2.5 2.5 2.5 0 0 0-2.5-2.5m0 1a1.5 1.5 0 0 1 1.5 1.5 1.5 1.5 0 0 1-1.5 1.5 1.5 1.5 0 0 1-1.5-1.5 1.5 1.5 0 0 1 1.5-1.5" style="paint-order:normal"/></svg>