<svg xmlns="http://www.w3.org/2000/svg" width="32" height="32"><circle cx="16" cy="16" r="15" fill="#5294e2" style="stroke-width:2.09966;paint-order:stroke markers fill"/><path d="M16 9a7 7 0 0 0-7 7 7 7 0 0 0 7 7 7 7 0 0 0 7-7 7 7 0 0 0-7-7m0 3a4 4 0 0 1 4 4 4 4 0 0 1-4 4 4 4 0 0 1-4-4 4 4 0 0 1 4-4" style="opacity:.15;fill:#000;stroke-width:2;stroke-linecap:round;stroke-linejoin:round;paint-order:stroke fill markers"/><path fill="#fff" d="m.004 3.034 18.363 14.022-4.324 4.317Z" style="stroke-width:4.0816;paint-order:stroke markers fill" transform="translate(6.998 5.314)scale(.55553)"/><path fill="#e6e6e6" d="M32.406 35.436 14.043 21.398l4.324-4.326Z" style="stroke-width:4.0816;paint-order:stroke markers fill" transform="translate(6.998 5.314)scale(.55553)"/></svg>