<svg xmlns="http://www.w3.org/2000/svg" width="32" height="32"><rect width="30" height="30" x="1" y="1" fill="#4285f4" rx="15" ry="15"/><path fill="#fff" fill-rule="evenodd" d="M12 8v2c-1.108 0-2 .892-2 2H8v1h2v1H8v1h2v2H8v1h2v1H8v1h2c0 1.108.892 2 2 2v2h1v-2h1v2h1v-2h2v2h1v-2h1v2h1v-2c1.108 0 2-.892 2-2h2v-1h-2v-1h2v-1h-2v-2h2v-1h-2v-1h2v-1h-2c0-1.108-.892-2-2-2V8h-1v2h-1V8h-1v2h-2V8h-1v2h-1V8zm0 3h8c.554 0 1 .446 1 1v8c0 .554-.446 1-1 1h-8c-.554 0-1-.446-1-1v-8c0-.554.446-1 1-1m1 2v6h6v-6zm1 1h1v1h1v-1h1v1h1v1h-1v1h1v1h-1v-1h-1v1h-1v-1h-1v-1h1v-1h-1zm1 2v1h1v-1zm1 0h1v-1h-1z" style="paint-order:stroke fill markers"/></svg>