<svg xmlns="http://www.w3.org/2000/svg" width="32" height="32"><rect width="30" height="30" x="1" y="1" fill="#f2f2f2" rx="15" ry="15" style="fill:#e6e6e6"/><path fill="#333" d="m15.673 9.345-6.67 8.536c-1.25 1.6-.9 4.452.7 5.702s4.452.9 5.702-.7l7.503-9.603c.834-1.067.6-2.968-.467-3.802-1.067-.833-2.967-.6-3.8.467l-6.67 8.536c-.417.534-.3 1.484.233 1.9.534.418 1.484.301 1.901-.232l5.836-7.47 1.067.834-5.836 7.47c-.834 1.066-2.734 1.3-3.801.466s-1.3-2.734-.467-3.801l6.67-8.537c1.25-1.6 4.1-1.95 5.701-.7s1.95 4.102.7 5.702l-.833 1.067-6.67 8.536c-1.667 2.134-5.468 2.601-7.602.934s-2.6-5.469-.934-7.603l6.67-8.536z"/></svg>