<svg xmlns="http://www.w3.org/2000/svg" width="32" height="32"><defs><linearGradient id="a" x1="16" x2="16" y1="30" y2="-10.919" gradientUnits="userSpaceOnUse"><stop offset="0" stop-color="#ff3069"/><stop offset="1" stop-color="#ff7954"/></linearGradient></defs><rect width="28" height="28" x="2" y="2" fill="url(#a)" rx="14" ry="14" style="fill:#ff545f;fill-opacity:1"/><g fill="#fff"><path d="M12.789 21.044s-.798.49.568.654c1.655.2 2.5.17 4.323-.193 0 0 .48.317 1.15.591-4.088 1.845-9.252-.107-6.041-1.052m-.5-2.408s-.895.697.472.846c1.768.193 3.163.208 5.58-.282 0 0 .333.357.858.552-4.942 1.523-10.446.12-6.91-1.116M16.5 14.55c1.007 1.222-.265 2.32-.265 2.32s2.558-1.39 1.383-3.133c-1.097-1.624-1.938-2.43 2.616-5.213 0 0-7.148 1.88-3.734 6.025"/><path d="M21.906 22.826s.59.512-.65.909c-2.36.753-9.82.98-11.893.03-.744-.342.653-.815 1.092-.915.458-.105.72-.086.72-.086-.829-.614-5.355 1.208-2.3 1.73 8.335 1.423 15.192-.64 13.03-1.668zm-8.733-6.686s-3.795.95-1.344 1.295c1.035.146 3.097.112 5.02-.058 1.57-.138 3.147-.436 3.147-.436s-.554.25-.954.539c-3.855 1.068-11.299.57-9.155-.522 1.811-.923 3.285-.818 3.285-.818zm6.807 4.009c3.918-2.145 2.106-4.206.842-3.928-.31.068-.448.127-.448.127s.115-.19.335-.272c2.501-.926 4.424 2.732-.807 4.181 0 0 .06-.057.078-.109M17.619 4.03s2.169 2.287-2.058 5.803c-3.39 2.82-.773 4.429-.002 6.267-1.979-1.881-3.43-3.537-2.457-5.078 1.43-2.262 5.392-3.36 4.517-6.991"/><path d="M13.558 25.961c3.76.254 9.534-.14 9.671-2.015 0 0-.263.71-3.107 1.274-3.21.637-7.169.563-9.516.154 0 0 .48.42 2.952.587"/></g></svg>