<svg xmlns="http://www.w3.org/2000/svg" width="32" height="32"><rect width="30" height="30" x="1" y="1" fill="#47515b" rx="15" ry="15"/><circle cx="16.075" cy="16.058" r="15.646" fill="none"/><path fill="#fff" d="M19.71 20.805c-2.13-1.665-.627-8.513-.627-8.513h2.603c.271 0 1.336-.17 1.336-1.446 0-1.568-1.301-1.472-1.301-1.472H12.14c-1.573 0-2.993 1.801-3.808 3.089-.433.688-.188.88.557.556 2.611-1.143 3.347-.731 3.347-.731.184.88.245 4.854-.425 6.422-.679 1.477-1.932 3.348-.092 4.447 1.437.815 2.944-.858 2.795-3.706-.07-1.507-.188-7.159-.188-7.159h2.4c-.074.88-.481 5.376-.056 8.04.442 4.446 5.275 3.583 6.177 1.064.223-.696.171-1.23.004-1.634-.306-.75-.819-.788-.762-.438.035.223.013.442-.022.64-.105.609-1.35 1.563-2.357.84z" opacity=".9"/></svg>