<svg xmlns="http://www.w3.org/2000/svg" width="32" height="32"><rect width="30" height="30" x="1" y="1" fill="#4d4d4d" rx="15" ry="15"/><path fill="#fff" d="M6 6.143v17.286C6 25 7.571 25 7.571 25h20.43zm3.929 8.542 7.45 6.386H9.93Z" opacity=".35" style="stroke-width:.39286"/><path fill="#e6e6e6" fill-rule="evenodd" d="M15.472 13.607c.412.015.787.245.988.605l5.892 10.607.148 2.93-2.21-1.783-4.862-8.752V13.61c.015 0 .03-.004.044-.004z" style="stroke-width:.39286"/><path fill="#fff" d="M15.385 13.607a1.18 1.18 0 0 0-.988.605L8.505 24.82l-.148 2.93 2.21-1.783.829-1.49a9.4 9.4 0 0 0 4.033.917 9.43 9.43 0 0 0 9.428-9.43H22.5a7.07 7.07 0 0 1-7.071 7.072 7.1 7.1 0 0 1-2.885-.628l2.885-5.193V13.61z" style="stroke-width:.39286"/><path fill="#ccc" d="M13.857 8.893v2.357h-.786c-1.571 0-1.571 1.571-1.571 1.571v3.929l2.75 2.75c.706.55 1.88.594 2.487-.13l2.62-2.62v-3.93s0-1.571-1.571-1.571H17V8.893Z" style="stroke-width:.39286"/><circle cx="15.429" cy="14.393" r="1.571" fill="#fff" style="stroke-width:.39286"/></svg>