<svg xmlns="http://www.w3.org/2000/svg" width="32" height="32"><rect width="30" height="30" x="1" y="1" fill="#999" rx="15" ry="15"/><g stroke-width=".2"><path fill="#9a9996" d="M8 27.8v.2h3.2v-.2zm12.8 0v.2H24v-.2z"/><path fill="#c0bfbc" d="M16 4c-.581 0-1.084.405-1.208.973L8 27.8h3.2L16 7.6l4.8 20.2H24L17.202 4.943l-.002.002A1.236 1.236 0 0 0 16 4m0 1a.6.6 0 1 1 0 1.2.6.6 0 0 1 0-1.2"/><path fill="#f6f5f4" d="M7.2 7.2h17.6a1.6 1.6 0 0 1 1.6 1.6v14.4a1.6 1.6 0 0 1-1.6 1.6H7.2a1.6 1.6 0 0 1-1.6-1.6V8.8a1.6 1.6 0 0 1 1.6-1.6"/><path fill="#e4aa50" d="m28.8 10.4-9.781 9.782a1.133 1.133 0 1 1-1.601-1.6l8.227-8.227c.98-.841 2.355-.755 3.155.045"/><path fill="#cfcecb" d="M21.337 15.117c1.03 0 1.538 1.252.8 1.97l-3.814 4.211a1.429 1.429 0 1 1-2.02-2.02l4.211-3.813c.216-.223.513-.348.823-.348"/></g><path fill="#2d343e" d="M17.6 16.8a3.2 3.2 0 0 1 0 6.4h-3.2V20a3.2 3.2 0 0 1 3.2-3.2"/><path fill="#fff" d="M16.001 19a.599.599 0 1 1 1.198 0A.599.599 0 0 1 16 19"/><path fill="#a475c0" d="M5.6 11.173v4.8c.4-.225.885-.298 1.334-.2s.861.362 1.134.732c.352.478.463 1.092.491 1.686.03.593-.013 1.191.08 1.779.125.8.507 1.558 1.081 2.13.574.57 1.338.95 2.14 1.053.523.068 1.052.041 1.578.043l.962.003v-.4a14 14 0 0 0-1.231-.232c-.268-.038-.54-.068-.8-.146s-.512-.205-.692-.408a1.26 1.26 0 0 1-.286-.614 1.9 1.9 0 0 1 .01-.68c.081-.45.278-.868.426-1.3.48-1.398.434-2.96-.075-4.346-.56-1.529-1.71-2.862-3.202-3.512a5.4 5.4 0 0 0-2.95-.388"/><path fill="#a475c0" d="m12.581 22.475.857.721 3.762.004-.4-.6c-.63-.943-1.827-1.8-2.4-1.8 0 1.2-1.113 1.82-1.819 1.675"/></svg>