<svg xmlns="http://www.w3.org/2000/svg" width="32" height="32"><path fill="#f6d031" d="M31 16c0 8.284-6.716 15-15 15S1 24.284 1 16 7.716 1 16 1s15 6.716 15 15"/><path fill="none" stroke="#3d3846" stroke-linecap="round" stroke-linejoin="round" d="M17.908 16.248c0 .626-.364 1.204-.954 1.517a2.05 2.05 0 0 1-1.908 0c-.59-.313-.954-.891-.954-1.517"/><path fill="#e93336" d="M12.978 7.999a2 2 0 0 0-1.38.606l-.585.586-.586-.586a2.002 2.002 0 1 0-2.828 2.83l2.708 2.708v-.002a1 1 0 0 0 1.414 0l2.706-2.706a2 2 0 0 0-1.45-3.436zm10.001 0a2 2 0 0 0-1.38.606l-.586.586-.586-.586a2 2 0 1 0-2.828 2.83l2.708 2.708v-.002a1 1 0 0 0 1.414 0l2.706-2.706a2 2 0 0 0-1.449-3.436z"/></svg>