<svg xmlns="http://www.w3.org/2000/svg" width="32" height="32"><rect width="30" height="30" x="1" y="1" fill="#f2f2f2" rx="15" ry="15" style="fill:#2b7ddf;fill-opacity:1"/><path d="M16 2C8.244 2 2 8.244 2 16c0 2.98.925 5.735 2.5 8H11v1c0 1.108.892 2 2 2h6c1.108 0 2-.892 2-2v-1h6.5a13.96 13.96 0 0 0 2.5-8c0-7.756-6.244-14-14-14" style="fill:#fff;fill-opacity:1;stroke-width:.933333"/><path fill="none" stroke="#3d3846" d="m9.999 18 1.5 1.5 2.5-2.5"/><path fill="#c0bfbc" d="M15.999 11h6v1h-6zm0 7h6v1h-6z"/><path fill="none" stroke="#3d3846" d="m9.999 11 1.5 1.5 2.5-2.5"/><path d="M16 2C8.244 2 2 8.244 2 16c0 2.98.925 5.735 2.5 8H11v-1.143H6.143A11.96 11.96 0 0 1 4 16C4 9.352 9.352 4 16 4s12 5.352 12 12c0 2.554-.792 4.916-2.143 6.857H21V24h6.5a13.96 13.96 0 0 0 2.5-8c0-7.756-6.244-14-14-14" style="fill:#2b7ddf;fill-opacity:1;stroke-width:.933333"/><path d="M16 1C7.69 1 1 7.69 1 16c0 2.136.446 4.164 1.244 6H4.46A13 13 0 0 1 3 16C3 8.798 8.798 3 16 3s13 5.798 13 13c0 2.168-.528 4.207-1.459 6h2.215A15 15 0 0 0 31 16c0-8.31-6.69-15-15-15" style="fill:#62a0ea;fill-opacity:1"/><path d="M2.244 22q.455 1.045 1.057 2H11v-2zM21 22v2h7.7q.6-.955 1.056-2z" style="opacity:1;fill:#62a0ea;fill-opacity:1;stroke-width:2.03419;stroke-linecap:round;stroke-linejoin:round;paint-order:stroke fill markers"/><path d="M11 23v2c0 1.108.892 2 2 2h6c1.108 0 2-.892 2-2v-2c0 1.108-.892 2-2 2h-6c-1.108 0-2-.892-2-2" style="opacity:1;fill:#62a0ea;fill-opacity:1;stroke-width:2;stroke-linecap:round;stroke-linejoin:round;paint-order:stroke fill markers"/></svg>