<svg xmlns="http://www.w3.org/2000/svg" width="32" height="32"><rect width="30" height="30" x="1" y="1" fill="#deddda" rx="15" ry="15"/><rect width="26" height="26" x="3" y="3" fill="#333" rx="13" ry="13"/><path fill="#ff7800" d="M8.006 7h8v1h-8Z"/><path fill="#deddda" d="M8.006 9h4v1h-4Z"/><path fill="#3584e4" d="M10.006 11h12v1h-12Z"/><path fill="#deddda" d="M10.006 13h6v1h-6Zm0 2h10v1h-10Z"/><path fill="#8ff0a4" d="M12.006 17h5v1h-5z"/><path fill="#ff7800" d="M17.006 19h7v1h-7z"/><path fill="#deddda" d="M8.006 21h9v1h-9Z"/><path fill="#3584e4" d="M8.006 23h5v1h-5Z"/><path fill="#8ff0a4" d="M12.006 19h4v1h-4z"/><path fill="#deddda" d="M18.006 17h6v1h-6z"/><path fill="#3584e4" d="M21.006 15h5v1h-5z"/></svg>