<svg width="64" height="64" version="1.1" viewBox="0 0 16.933 16.933" xmlns="http://www.w3.org/2000/svg" xmlns:xlink="http://www.w3.org/1999/xlink">
 <defs>
  <linearGradient id="a" x1="43.231" x2="48.179" y1="46.109" y2="51.287" gradientTransform="scale(.26458)" gradientUnits="userSpaceOnUse" xlink:href="#b"/>
  <linearGradient id="b">
   <stop offset="0"/>
   <stop stop-opacity="0" offset="1"/>
  </linearGradient>
  <linearGradient id="c" x1="42" x2="44" y1="51" y2="55" gradientUnits="userSpaceOnUse" xlink:href="#b"/>
 </defs>
 <circle cx="8.4665" cy="8.4665" r="7.4082" fill="#4379b9" style="paint-order:stroke fill markers"/>
 <path transform="scale(.26458)" d="m16.17 14a24 24 0 0 0-8.1699 18 24 24 0 0 0 24 24 24 24 0 0 0 24-24 24 24 0 0 0-8.1582-18h-31.672z" fill="#fff" style="paint-order:stroke fill markers"/>
 <path d="m8.466 4.2332c-0.29211 6.879e-4 -0.38134 0.27599-0.52916 0.52967l-0.30799 0.52812-5.5525 5.292e-4a7.1436 7.1436 0 0 0-0.75343 3.1749 7.1436 7.1436 0 0 0 7.1436 7.1436 7.1436 7.1436 0 0 0 7.1436-7.1436 7.1436 7.1436 0 0 0-1.3999-4.2332h-5.7432z" fill="#5294e2" style="paint-order:stroke markers fill"/>
 <path d="m15.61 8.4666-7.1437 7.1437a7.1437 7.1437 0 0 0 7.1437-7.1437z" fill="url(#a)" opacity=".1" style="paint-order:stroke markers fill"/>
 <path transform="scale(.26458)" d="m30 16c-1.3237 0-2.4299 1.0499-3 2l-1.1992 2h-19.061c-1.7922 3.7472-2.7282 7.8463-2.7402 12-6e-7 15.464 12.536 28 28 28 15.464 1e-6 28-12.536 28-28-0.01011-3.7983-0.79291-7.5548-2.3008-11.041-0.77563-1.7345-1.7759-3.5334-2.7617-4.959z" fill="#5294e2" style="paint-order:stroke fill markers"/>
 <path transform="scale(.26458)" d="m32 4a28 28 0 0 0-18.467 7h36.951a28 28 0 0 0-18.484-7z" opacity=".15" style="paint-order:stroke fill markers"/>
 <path transform="scale(.26458)" d="m57.312 43.891-27.693 15.99a28 28 0 0 0 2.3809 0.11914 28 28 0 0 0 25.312-16.109z" fill="url(#c)" opacity=".1" style="paint-order:stroke fill markers"/>
 <path d="m8.4665 7.4082c-1.0229 0-1.852 0.82919-1.852 1.852 7.009e-4 0.088759 0.00778 0.17735 0.021187 0.26509-0.00706-2.288e-4 -0.014124-4.01e-4 -0.021187-5.167e-4 -0.73061 0-1.3229 0.59228-1.3229 1.3229-2e-7 0.73061 0.59228 1.3229 1.3229 1.3229h3.4395c0.87674 0 1.5875-0.71073 1.5875-1.5875-6.97e-4 -0.78103-0.56942-1.4455-1.341-1.5668-0.12219-0.91976-0.90612-1.6072-1.834-1.6081z" fill="#fff" stroke-linejoin="round" stroke-width=".26458"/>
</svg>
