<svg width="64" height="64" version="1.1" xmlns="http://www.w3.org/2000/svg">
 <circle cx="32" cy="32" r="29" fill="#fff" opacity=".9" style="paint-order:stroke fill markers"/>
 <g transform="translate(0,6)">
  <path d="m29.599 43.43-9e-3 -8.103h-5.554l-6.63-1.2 4.37 7.839c0.215 0.38 1.499 1.465 3.667 1.465z" fill="#888"/>
  <path d="m24.036 35.327 1.424-2.558 1.821 1.085-1.291-3.734-1.292-3.725-3.774 0.704-3.767 0.703 1.523 0.911-1.241 2.218c-0.588 1.06-0.696 2.012-0.033 3.196l4.37 7.839c0.108 0.19 0.489 0.554 1.11 0.877-2.12-1.531-0.895-3.915 1.15-7.516z" fill="#bebebe"/>
  <path d="m21.644 23.266 6.788 4.056c0.927-1.663 1.854-3.327 2.773-4.991l4.329-5.331h-8.75c-0.43 0-1.978 0.604-3.062 2.541z" fill="#888"/>
  <path d="m31.205 22.34 1.432 2.557-1.821 1.093 3.774 0.703 3.767 0.704 1.3-3.725 1.29-3.733-1.523 0.91-1.241-2.227c-0.588-1.06-1.333-1.622-2.65-1.622h-8.749c-0.215 0-0.712 0.149-1.291 0.546 2.334-1.125 3.725 1.16 5.712 4.793z" fill="#bebebe"/>
  <path d="m44.2 26.346-7.027 4.056a910.9 910.9 0 0 0 2.79 4.81l2.268 6.34 4.602-7.707c0.224-0.372 0.522-2.028-0.555-3.907z" fill="#888"/>
  <path d="m39.963 35.211-2.94 0.041 0.034-2.119-5.165 5.977 2.491 2.905 2.5 2.914 0.025-1.771 2.55-0.042c1.208-0.016 2.077-0.397 2.773-1.564l4.602-7.707c0.116-0.19 0.248-0.695 0.207-1.399-0.265 2.6-2.939 2.732-7.077 2.765z" fill="#bebebe"/>
 </g>
 <path d="m32 5c-7.1234 0.013951-13.953 2.8424-19 7.8691 0 0.71029 1 2.1309 3 2.1309h32c2 0 3-1.4349 3-2.1523-5.0508-5.0189-11.88-7.8394-19-7.8477z" opacity=".35" style="paint-order:stroke fill markers"/>
 <path d="m50.799 12.656c-0.38191 0.63128-1.3128 1.3438-2.7988 1.3438h-32c-1.4815 0-2.4108-0.70065-2.7949-1.3242-0.067381 0.065718-0.13832 0.12687-0.20508 0.19336 0 0.71029 1 2.1309 3 2.1309h32c2 0 3-1.4349 3-2.1523-0.065816-0.0654-0.13476-0.12675-0.20117-0.19141z" opacity=".1" style="paint-order:stroke fill markers"/>
</svg>
