<svg width="64" height="64" version="1.1" viewBox="0 0 64 64" xmlns="http://www.w3.org/2000/svg">
 <path d="m32 5c14.912 0 27 12.088 27 27s-12.088 27-27 27c-14.912 0-27-12.088-27-27s12.088-27 27-27z" fill="#eaeaea" stroke-width="1.1739"/>
 <path d="m48 17.231c0-0.68185-0.54892-1.2308-1.2308-1.2308h-8.6154l-6.1538 1.2308-6.1538-1.2308h-8.6154c-0.68184 0-1.2308 0.54892-1.2308 1.2308v29.538c0 0.68185 0.54892 1.2308 1.2308 1.2308h8.6154l6.1538-1.2308 6.1538 1.2308h8.6154c0.68185 0 1.2308-0.54892 1.2308-1.2308zm-2.4615 1.2308v4.9231h-4.9231v-4.9231zm0 7.3846v4.9231h-4.9231v-4.9231zm0 7.3846v4.9231h-4.9231v-4.9231zm0 7.3846v4.9231h-4.9231v-4.9231zm-22.154-22.154v4.9231h-4.9231v-4.9231zm0 7.3846v4.9231h-4.9231v-4.9231zm0 7.3846v4.9231h-4.9231v-4.9231zm0 7.3846v4.9231h-4.9231v-4.9231z" fill="#525252" stroke-width="1.2308"/>
 <path d="m25.846 16v7.3846h12.308v-7.3846zm0 9.8462v12.308h12.308v-12.308zm0 14.769v7.3846h12.308v-7.3846z" fill="#1d7596" stroke-width="1.2308"/>
</svg>
