<?xml version="1.0" encoding="UTF-8" standalone="no"?>
<svg
   width="64"
   height="64"
   version="1.1"
   viewBox="0 0 16.933 16.933"
   id="svg21"
   sodipodi:docname="default-folder-templates.svg"
   inkscape:version="1.1.2 (0a00cf5339, 2022-02-04)"
   xmlns:inkscape="http://www.inkscape.org/namespaces/inkscape"
   xmlns:sodipodi="http://sodipodi.sourceforge.net/DTD/sodipodi-0.dtd"
   xmlns="http://www.w3.org/2000/svg"
   xmlns:svg="http://www.w3.org/2000/svg">
  <sodipodi:namedview
     id="namedview23"
     pagecolor="#505050"
     bordercolor="#ffffff"
     borderopacity="1"
     inkscape:pageshadow="0"
     inkscape:pageopacity="0"
     inkscape:pagecheckerboard="1"
     showgrid="false"
     inkscape:zoom="11.1875"
     inkscape:cx="32"
     inkscape:cy="32"
     inkscape:window-width="1920"
     inkscape:window-height="1000"
     inkscape:window-x="0"
     inkscape:window-y="44"
     inkscape:window-maximized="1"
     inkscape:current-layer="svg21" />
  <defs
     id="defs7">
    <linearGradient
       id="c"
       x1="42"
       x2="44"
       y1="51"
       y2="55"
       gradientUnits="userSpaceOnUse">
      <stop
         offset="0"
         id="stop2" />
      <stop
         stop-opacity="0"
         offset="1"
         id="stop4" />
    </linearGradient>
  </defs>
  <circle
     cx="8.4665"
     cy="8.4665"
     r="7.4082"
     fill="#258875"
     style="paint-order:stroke fill markers;fill:#3c4453;fill-opacity:1"
     id="circle9" />
  <path
     transform="scale(.26458)"
     d="m16.17 14a24 24 0 0 0-8.1699 18 24 24 0 0 0 24 24 24 24 0 0 0 24-24 24 24 0 0 0-8.1582-18h-31.672z"
     fill="#fff"
     style="paint-order:stroke fill markers"
     id="path11" />
  <path
     d="m7.9374 4.2333c-0.35022 0-0.6429 0.27778-0.79374 0.52916l-0.31728 0.52916h-5.0432c-0.47418 0.99143-0.72183 2.076-0.725 3.175-2e-7 4.0915 3.3168 7.4082 7.4082 7.4082 4.0915 0 7.4082-3.3168 7.4082-7.4082-0.002675-1.005-0.20979-1.9988-0.60875-2.9212-0.20522-0.45891-0.46987-0.93487-0.73069-1.3121z"
     fill="#16a085"
     stroke-width=".26458"
     style="paint-order:stroke fill markers;fill:#4d576a;fill-opacity:1"
     id="path13" />
  <path
     transform="scale(.26458)"
     d="m32 4a28 28 0 0 0-18.467 7h36.951a28 28 0 0 0-18.484-7z"
     opacity=".15"
     style="paint-order:stroke fill markers"
     id="path15" />
  <path
     transform="scale(.26458)"
     d="m57.312 43.891-27.693 15.99a28 28 0 0 0 2.3809 0.11914 28 28 0 0 0 25.312-16.109z"
     fill="url(#c)"
     opacity=".1"
     style="paint-order:stroke fill markers"
     id="path17" />
  <path
     d="m6.88 7.67a0.528 0.528 0 0 0-0.53 0.529v3.175c0 0.293 0.236 0.529 0.53 0.529h3.174c0.293 0 0.53-0.236 0.53-0.53v-3.174a0.528 0.528 0 0 0-0.53-0.53h-3.174zm0 0.264a0.265 0.265 0 0 1 0.264 0.265 0.265 0.265 0 0 1-0.265 0.264 0.265 0.265 0 0 1-0.264-0.264 0.265 0.265 0 0 1 0.264-0.265zm3.174 0a0.265 0.265 0 0 1 0.265 0.265 0.265 0.265 0 0 1-0.265 0.264 0.265 0.265 0 0 1-0.264-0.264 0.265 0.265 0 0 1 0.264-0.265zm-2.117 0.794h1.059c0.293 0 0.529 0.236 0.529 0.529v1.058c0 0.294-0.236 0.53-0.53 0.53h-1.057a0.528 0.528 0 0 1-0.529-0.53v-1.058c0-0.293 0.236-0.53 0.53-0.53zm0 0.264a0.264 0.264 0 0 0-0.264 0.265v1.058c0 0.147 0.118 0.265 0.264 0.265h1.059a0.264 0.264 0 0 0 0.264-0.265v-1.058a0.264 0.264 0 0 0-0.264-0.265zm-1.057 2.118a0.265 0.265 0 0 1 0.265 0.265 0.265 0.265 0 0 1-0.265 0.264 0.265 0.265 0 0 1-0.264-0.264 0.265 0.265 0 0 1 0.264-0.265zm3.175 0a0.265 0.265 0 0 1 0.265 0.265 0.265 0.265 0 0 1-0.265 0.264 0.265 0.265 0 0 1-0.264-0.264 0.265 0.265 0 0 1 0.264-0.265z"
     fill="#fff"
     style="paint-order:stroke markers fill"
     id="path19" />
</svg>
