<?xml version="1.0" encoding="UTF-8" standalone="no"?>
<svg
   width="64"
   height="64"
   version="1.1"
   viewBox="0 0 16.933 16.933"
   id="svg27"
   sodipodi:docname="default-folder-music.svg"
   inkscape:version="1.1.2 (0a00cf5339, 2022-02-04)"
   xmlns:inkscape="http://www.inkscape.org/namespaces/inkscape"
   xmlns:sodipodi="http://sodipodi.sourceforge.net/DTD/sodipodi-0.dtd"
   xmlns="http://www.w3.org/2000/svg"
   xmlns:svg="http://www.w3.org/2000/svg">
  <sodipodi:namedview
     id="namedview29"
     pagecolor="#505050"
     bordercolor="#ffffff"
     borderopacity="1"
     inkscape:pageshadow="0"
     inkscape:pageopacity="0"
     inkscape:pagecheckerboard="1"
     showgrid="false"
     inkscape:zoom="11.1875"
     inkscape:cx="32"
     inkscape:cy="32"
     inkscape:window-width="1920"
     inkscape:window-height="1000"
     inkscape:window-x="0"
     inkscape:window-y="44"
     inkscape:window-maximized="1"
     inkscape:current-layer="svg27" />
  <defs
     id="defs7">
    <linearGradient
       id="c"
       x1="42"
       x2="44"
       y1="51"
       y2="55"
       gradientUnits="userSpaceOnUse">
      <stop
         offset="0"
         id="stop2" />
      <stop
         stop-opacity="0"
         offset="1"
         id="stop4" />
    </linearGradient>
  </defs>
  <circle
     cx="8.4665"
     cy="8.4665"
     r="7.4082"
     fill="#258875"
     style="paint-order:stroke fill markers;fill:#3b4254;fill-opacity:1"
     id="circle9" />
  <path
     transform="scale(.26458)"
     d="m16.17 14a24 24 0 0 0-8.1699 18 24 24 0 0 0 24 24 24 24 0 0 0 24-24 24 24 0 0 0-8.1582-18h-31.672z"
     fill="#fff"
     style="paint-order:stroke fill markers"
     id="path11" />
  <path
     d="m7.9374 4.2333c-0.35022 0-0.6429 0.27778-0.79374 0.52916l-0.31728 0.52916h-5.0432c-0.47418 0.99143-0.72183 2.076-0.725 3.175-2e-7 4.0915 3.3168 7.4082 7.4082 7.4082 4.0915 0 7.4082-3.3168 7.4082-7.4082-0.002675-1.005-0.20979-1.9988-0.60875-2.9212-0.20522-0.45891-0.46987-0.93487-0.73069-1.3121z"
     fill="#16a085"
     stroke-width=".26458"
     style="paint-order:stroke fill markers;fill:#4d576a;fill-opacity:1"
     id="path13" />
  <path
     transform="scale(.26458)"
     d="m32 4a28 28 0 0 0-18.467 7h36.951a28 28 0 0 0-18.484-7z"
     opacity=".15"
     style="paint-order:stroke fill markers"
     id="path15" />
  <path
     transform="scale(.26458)"
     d="m57.312 43.891-27.693 15.99a28 28 0 0 0 2.3809 0.11914 28 28 0 0 0 25.312-16.109z"
     fill="url(#c)"
     opacity=".1"
     style="paint-order:stroke fill markers"
     id="path17" />
  <g
     transform="matrix(.7619 0 0 .7619 1.336 -215.05)"
     fill="#fff"
     style="paint-order:stroke markers fill"
     id="g25">
    <ellipse
       cx="8.665"
       cy="296.84"
       rx="1.736"
       ry="1.042"
       id="ellipse19" />
    <path
       d="m10.054 293.36h0.347v3.473h-0.347z"
       id="path21" />
    <path
       d="m10.054 292.5 1.736-0.53v1.208l-1.736 0.53z"
       id="path23" />
  </g>
</svg>
