<?xml version="1.0" encoding="UTF-8" standalone="no"?>
<svg
   width="64"
   height="64"
   version="1.1"
   viewBox="0 0 16.933 16.933"
   id="svg19"
   sodipodi:docname="default-folder-build.svg"
   inkscape:version="1.1.2 (0a00cf5339, 2022-02-04)"
   xmlns:inkscape="http://www.inkscape.org/namespaces/inkscape"
   xmlns:sodipodi="http://sodipodi.sourceforge.net/DTD/sodipodi-0.dtd"
   xmlns="http://www.w3.org/2000/svg"
   xmlns:svg="http://www.w3.org/2000/svg">
  <sodipodi:namedview
     id="namedview21"
     pagecolor="#505050"
     bordercolor="#ffffff"
     borderopacity="1"
     inkscape:pageshadow="0"
     inkscape:pageopacity="0"
     inkscape:pagecheckerboard="1"
     showgrid="false"
     inkscape:zoom="11.1875"
     inkscape:cx="32"
     inkscape:cy="32"
     inkscape:window-width="1920"
     inkscape:window-height="1000"
     inkscape:window-x="0"
     inkscape:window-y="44"
     inkscape:window-maximized="1"
     inkscape:current-layer="svg19" />
  <defs
     id="defs7">
    <linearGradient
       id="c"
       x1="42"
       x2="44"
       y1="51"
       y2="55"
       gradientUnits="userSpaceOnUse">
      <stop
         offset="0"
         id="stop2" />
      <stop
         stop-opacity="0"
         offset="1"
         id="stop4" />
    </linearGradient>
  </defs>
  <circle
     cx="8.4665"
     cy="8.4665"
     r="7.4082"
     fill="#258875"
     style="paint-order:stroke fill markers;fill:#3c4453;fill-opacity:1"
     id="circle9" />
  <path
     transform="scale(.26458)"
     d="m16.17 14a24 24 0 0 0-8.1699 18 24 24 0 0 0 24 24 24 24 0 0 0 24-24 24 24 0 0 0-8.1582-18h-31.672z"
     fill="#fff"
     style="paint-order:stroke fill markers"
     id="path11" />
  <path
     d="m7.9374 4.2333c-0.35022 0-0.6429 0.27778-0.79374 0.52916l-0.31728 0.52916h-5.0432c-0.47418 0.99143-0.72183 2.076-0.725 3.175-2e-7 4.0915 3.3168 7.4082 7.4082 7.4082 4.0915 0 7.4082-3.3168 7.4082-7.4082-0.002675-1.005-0.20979-1.9988-0.60875-2.9212-0.20522-0.45891-0.46987-0.93487-0.73069-1.3121z"
     fill="#16a085"
     stroke-width=".26458"
     style="paint-order:stroke fill markers;fill:#4d576a;fill-opacity:1"
     id="path13" />
  <path
     transform="scale(.26458)"
     d="m32 4a28 28 0 0 0-18.467 7h36.951a28 28 0 0 0-18.484-7z"
     opacity=".15"
     style="paint-order:stroke fill markers"
     id="path15" />
  <path
     transform="scale(.26458)"
     d="m57.312 43.891-27.693 15.99a28 28 0 0 0 2.3809 0.11914 28 28 0 0 0 25.312-16.109z"
     fill="url(#c)"
     opacity=".1"
     style="paint-order:stroke fill markers"
     id="path17" />
  <path
     d="m 7.3554341,11.699822 c 0.561954,-0.585061 1.075514,-1.193236 1.141092,-1.351649 0.06558,-0.158216 0.3239381,-0.4710918 0.5745941,-0.6948868 0.655778,-0.585852 1.0381798,-0.53983 1.3672518,0.164339 0.08395,0.179548 0.199501,0.3263088 0.256782,0.3263088 0.130759,0 0.734193,-0.5874328 0.734193,-0.7150328 0,-0.164932 -0.309716,-0.4493651 -0.489266,-0.4493651 -0.189621,0 -0.370947,-0.271989 -0.370947,-0.5560279 0,-0.2153002 -0.5925693,-0.814585 -1.0225748,-1.0342306 -0.205029,-0.1046869 -0.558003,-0.1562408 -1.0695881,-0.1562408 -0.773699,0 -1.097045,0.1281926 -0.601853,0.238608 0.148735,0.033183 0.428625,0.1925851 0.622198,0.354554 0.4977581,0.4167735 0.4778081,0.7298474 -0.09027,1.4047844 -0.242954,0.288581 -0.501117,0.524818 -0.574003,0.524818 -0.160982,0 -2.3293903,2.0161168 -2.3293903,2.1656418 0,0.112983 0.6656526,0.842238 0.7689584,0.842238 0.03358,0 0.5208681,-0.478598 1.0828199,-1.063859 z"
     color="#000000"
     fill="#919caf"
     overflow="visible"
     style="isolation:auto;mix-blend-mode:normal;fill:#ffffff;fill-opacity:1;stroke-width:0.197523"
     id="path13-3" />
</svg>
