<?xml version="1.0" encoding="UTF-8" standalone="no"?><svg   width="16"   height="16"   version="1.1"   id="svg1"   sodipodi:docname="applications-education-symbolic.svg"   xml:space="preserve"   inkscape:version="1.4.3 (0d15f75042, 2025-12-25)"   xmlns:inkscape="http://www.inkscape.org/namespaces/inkscape"   xmlns:sodipodi="http://sodipodi.sourceforge.net/DTD/sodipodi-0.dtd"   xmlns="http://www.w3.org/2000/svg"   xmlns:svg="http://www.w3.org/2000/svg"><defs     id="defs1"><style       id="current-color-scheme"       type="text/css">.ColorScheme-Text { color: #363636; }</style></defs><sodipodi:namedview     id="namedview1"     pagecolor="#505050"     bordercolor="#ffffff"     borderopacity="1"     inkscape:showpageshadow="0"     inkscape:pageopacity="0"     inkscape:pagecheckerboard="1"     inkscape:deskcolor="#505050"     inkscape:zoom="25.5625"     inkscape:cx="4.9095354"     inkscape:cy="7.9022005"     inkscape:window-width="1920"     inkscape:window-height="1012"     inkscape:window-x="0"     inkscape:window-y="0"     inkscape:window-maximized="1"     inkscape:current-layer="svg1" /><g     style="fill:#565656;fill-opacity:1"     id="g1"     transform="matrix(0.88888889,0,0,0.88888889,-1.7777778,-1.7776667)"><path       class="ColorScheme-Text"       d="m 13,14 h 4 v 2 h -4 z m -1,0 H 8 v 2 h 4 z"       fill="currentColor"       id="path1-6"       style="fill:#565656;fill-opacity:1" /><path       class="ColorScheme-Text"       d="M 5,3 C 3.338,3 2,4.338 2,6 v 10 c 0,1.662 1.338,3 3,3 h 12 c 1.662,0 3,-1.338 3,-3 V 6 C 20,4.338 18.662,3 17,3 Z m 0,2 h 12 c 0.554,0 1,0.446 1,1 v 10 c 0,0.554 -0.446,1 -1,1 H 5 C 4.446,17 4,16.554 4,16 V 6 C 4,5.446 4.446,5 5,5 Z"       fill="currentColor"       id="path2"       style="fill:#565656;fill-opacity:1" /></g></svg>