<svg width="64" height="64" viewBox="0 0 64 64" fill="none" xmlns="http://www.w3.org/2000/svg">
<path d="M27.0022 8.98446L13.0021 8.98837C11.8924 8.98837 11.5094 10.0012 11.0001 10.9864V11.0001H10.0001C7.78404 11.0001 6.00003 12.7841 6.00003 15.0001V43.0003C6.00003 45.2163 7.78404 47.0003 10.0001 47.0003H54.0004C56.2164 47.0003 58.0004 45.2163 58.0004 43.0003V15.0001C58.0004 12.7841 56.2164 11.0001 54.0004 11.0001H37.1413C37.094 10.9969 37.0488 10.9862 37.0006 10.9864H29.0045C28.4186 10.0453 28.1137 8.98438 27.0025 8.98438L27.0022 8.98446Z" fill="#7E57C2"/>
<path d="M27.0022 8.98446L13.0021 8.98837C11.8924 8.98837 11.5094 10.0012 11.0001 10.9864V11.0001H10.0001C7.78404 11.0001 6.00003 12.7841 6.00003 15.0001V43.0003C6.00003 45.2163 7.78404 47.0003 10.0001 47.0003H54.0004C56.2164 47.0003 58.0004 45.2163 58.0004 43.0003V15.0001C58.0004 12.7841 56.2164 11.0001 54.0004 11.0001L29.0042 10.9864C28.4184 10.0453 28.1134 8.98438 27.0022 8.98438V8.98446Z" fill="#BD93F9"/>
<path d="M52.9853 13.9845H11.0147C9.90161 13.9845 8.99924 14.8869 8.99924 16V30.9691C8.99924 32.0822 9.90161 32.9846 11.0147 32.9846H52.9853C54.0984 32.9846 55.0008 32.0822 55.0008 30.9691V16C55.0008 14.8869 54.0984 13.9845 52.9853 13.9845Z" fill="#F8F8F2"/>
<path opacity="0.25" d="M24.9983 9.97815H15.0012C14.4481 9.97815 13.9996 10.4257 13.9996 10.9779C13.9996 11.53 14.4481 11.9776 15.0012 11.9776H24.9983C25.5514 11.9776 25.9999 11.53 25.9999 10.9779C25.9999 10.4257 25.5514 9.97815 24.9983 9.97815Z" fill="#282A36"/>
<path d="M34.0002 16.0001L31.0002 20.0002H6.00003C3.78401 20.0002 2 21.7842 2 24.0002V52.0004C2 54.2164 3.78401 56.0004 6.00003 56.0004H58.0004C60.2164 56.0004 62.0004 54.2164 62.0004 52.0004V20.0002C62.0004 17.7841 60.2164 16.0001 58.0004 16.0001H34.0002Z" fill="#44475A"/>
<path opacity="0.2" d="M62.0005 40.0003L46.0003 56.0004H58.0004C60.2164 56.0004 62.0005 54.2164 62.0005 52.0004V40.0003Z" fill="url(#paint0_linear_6_121)"/>
<path d="M32.0019 28.0068C29.3495 28.0068 26.8058 29.0605 24.9302 30.936C23.0547 32.8115 22.0011 35.3553 22.0011 38.0076C22.0011 40.66 23.0547 43.2038 24.9302 45.0793C26.8058 46.9548 29.3495 48.0085 32.0019 48.0085C34.6536 48.0075 37.1964 46.9533 39.0711 45.0779C40.9458 43.2025 41.9989 40.6594 41.9989 38.0076C41.9989 35.3559 40.9458 32.8127 39.0711 30.9373C37.1964 29.0619 34.6536 28.0078 32.0019 28.0068V28.0068ZM32.0019 29.0084C34.3873 29.0094 36.6748 29.9575 38.3615 31.6442C40.0483 33.331 40.9963 35.6184 40.9973 38.0038C40.9978 39.1856 40.7656 40.356 40.3138 41.448C39.862 42.54 39.1995 43.5324 38.3642 44.3684C37.5289 45.2044 36.5371 45.8677 35.4455 46.3204C34.3538 46.7731 33.1837 47.0063 32.0019 47.0068C30.8198 47.0073 29.6492 46.775 28.5569 46.3229C27.4646 45.8709 26.4721 45.2081 25.636 44.3723C24.8 43.5366 24.1368 42.5445 23.6843 41.4524C23.2318 40.3603 22.9989 39.1898 22.9989 38.0076C22.9989 36.8255 23.2318 35.655 23.6843 34.5629C24.1368 33.4708 24.8 32.4785 25.636 31.6428C26.4721 30.8071 27.4646 30.1444 28.5569 29.6924C29.6492 29.2403 30.8198 29.0079 32.0019 29.0084V29.0084Z" fill="#F8F8F2"/>
<path d="M32.9997 32.977C32.9997 32.4238 32.5521 31.9753 32 31.9753C31.4479 31.9753 31.0003 32.4238 31.0003 32.977V36.9719C31.0003 37.5251 31.4479 37.9736 32 37.9736C32.5521 37.9736 32.9997 37.5251 32.9997 36.9719V32.977Z" fill="#F8F8F2"/>
<path d="M37.0874 43.0931L37.0901 43.0905C37.2849 42.8956 37.285 42.5798 37.0901 42.3849L32.8461 38.1409C32.6512 37.946 32.3353 37.946 32.1405 38.1409L32.1378 38.1435C31.943 38.3384 31.943 38.6543 32.1378 38.8491L36.3819 43.0932C36.5767 43.288 36.8926 43.2879 37.0874 43.0931Z" fill="#F8F8F2"/>
<path d="M32.0019 39.9844C33.1061 39.9844 34.0013 39.0892 34.0013 37.985C34.0013 36.8807 33.1061 35.9856 32.0019 35.9856C30.8976 35.9856 30.0025 36.8807 30.0025 37.985C30.0025 39.0892 30.8976 39.9844 32.0019 39.9844Z" fill="#F8F8F2"/>
<defs>
<linearGradient id="paint0_linear_6_121" x1="50.9985" y1="44.9989" x2="57.9989" y2="51.9994" gradientUnits="userSpaceOnUse">
<stop stop-color="#282A36"/>
<stop offset="1" stop-opacity="0"/>
</linearGradient>
</defs>
</svg>
