<svg width="64" height="64" viewBox="0 0 64 64" fill="none" xmlns="http://www.w3.org/2000/svg">
<path d="M27.0022 8.98446L13.0021 8.98837C11.8924 8.98837 11.5095 10.0012 11.0001 10.9864V11.0001H10.0001C7.78404 11.0001 6.00003 12.7841 6.00003 15.0001V20.0001C3.78401 20.0001 2 21.7841 2 24.0001V52.0003C2 54.2163 3.78401 56.0003 6.00003 56.0003H58.0004C60.2164 56.0003 62.0004 54.2163 62.0004 52.0003V20.0001C62.0004 17.7841 60.2164 16.0001 58.0004 16.0001V15.0001C58.0004 12.7841 56.2164 11.0001 54.0003 11.0001H37.1412C37.0939 10.9969 37.0487 10.9862 37.0006 10.9864H29.0045C28.4186 10.0452 28.1138 8.98437 27.0024 8.98437L27.0022 8.98446Z" fill="#44475A"/>
<path d="M27.0019 8.98449L13.0018 8.98838C11.8921 8.98838 11.5092 10.0012 10.9999 10.9864V11.0001H9.99989C7.78387 11.0001 5.99994 12.7841 5.99994 15.0001V20.0001H31.0001L34.0001 16.0001H58.0002V15.0001C58.0002 12.7841 56.2162 11.0002 54.0002 11.0002L29.0042 10.9865C28.4184 10.0454 28.1135 8.98456 27.0023 8.98456L27.0019 8.98449Z" fill="#BD93F9"/>
<path d="M11.016 13.9841C9.89943 13.9841 9.00043 14.8831 9.00043 15.9997V19.9997H31.0006L34.0006 15.9997H55.0007C55.0007 14.8831 54.1017 13.9841 52.9851 13.9841H11.0158H11.016Z" fill="#F8F8F2"/>
<path opacity="0.25" d="M25.0002 9.97814H14.9993C14.4472 9.97814 13.9996 10.4257 13.9996 10.9778C13.9996 11.53 14.4472 11.9775 14.9993 11.9775H25.0002C25.5523 11.9775 25.9999 11.53 25.9999 10.9778C25.9999 10.4257 25.5523 9.97814 25.0002 9.97814Z" fill="#282A36"/>
<path opacity="0.2" d="M62.0004 40.0003L46.0003 56.0004H58.0004C60.2164 56.0004 62.0004 54.2164 62.0004 52.0003V40.0003Z" fill="url(#paint0_linear_7_26)"/>
<path d="M31.223 27.5L22.311 32.6193L32.0445 38.2403L41.6885 32.6193L32.8677 27.5V31.4313L36.3417 33.4413C36.4791 33.487 36.4791 33.7161 36.3417 33.8079L32.2286 36.1834C32.0912 36.2296 31.9533 36.2296 31.862 36.1834L27.7489 33.8079C27.6115 33.7617 27.6115 33.5326 27.7489 33.4413L31.223 31.4307V27.5ZM41.6891 32.6193L32.045 38.2414L22.3116 32.6193V42.8112L25.6927 40.8455V36.8698C25.6927 36.733 25.8751 36.6406 25.9669 36.6862L30.0811 39.0629C30.2185 39.1091 30.2636 39.2453 30.2636 39.4283V44.1822C30.3553 44.319 30.1718 44.4102 30.035 44.3646L26.5609 42.3545L23.1798 44.3184L32.045 49.4377L40.8659 44.3184L37.4842 42.3545L34.0101 44.4108C33.8733 44.5026 33.7365 44.3646 33.7365 44.2272V39.4745C33.7365 39.3377 33.8277 39.2009 33.9189 39.1091L38.032 36.7324C38.1694 36.6412 38.3073 36.778 38.3073 36.9148V40.8906L41.6885 42.8562L41.6891 32.6193Z" fill="white"/>
<defs>
<linearGradient id="paint0_linear_7_26" x1="50.9984" y1="44.9989" x2="57.9988" y2="51.9993" gradientUnits="userSpaceOnUse">
<stop stop-color="#282A36"/>
<stop offset="1" stop-color="#282A36"/>
</linearGradient>
</defs>
</svg>
