<svg width="64" height="64" viewBox="0 0 64 64" fill="none" xmlns="http://www.w3.org/2000/svg">
<path d="M27.0022 8.98449L13.0022 8.98838C11.8925 8.98838 11.5095 10.0012 11.0002 10.9864V11.0001H10.0002C7.78418 11.0001 6.00024 12.7841 6.00024 15V43.0001C6.00024 45.2161 7.78425 47 10.0002 47H54.0023C56.2183 47 58.0023 45.216 58.0023 43.0001V15C58.0023 12.784 56.2183 11.0001 54.0023 11.0001H37.143C37.0957 10.9969 37.0505 10.9862 37.0024 10.9864H29.0063C28.4204 10.0453 28.1155 8.98438 27.0043 8.98438L27.0022 8.98449Z" fill="#7E57C2"/>
<path d="M27.0022 8.98449L13.0022 8.98838C11.8925 8.98838 11.5095 10.0012 11.0002 10.9864V11.0001H10.0002C7.78418 11.0001 6.00024 12.7841 6.00024 15V43.0001C6.00024 45.2161 7.78425 47 10.0002 47H54.0023C56.2183 47 58.0023 45.216 58.0023 43.0001V15C58.0023 12.784 56.2183 11.0001 54.0023 11.0001L29.0063 10.9864C28.4205 10.0453 28.1156 8.98439 27.0043 8.98439L27.0022 8.98449Z" fill="#BD93F9"/>
<path d="M52.9853 13.9845H11.0147C9.90161 13.9845 8.99924 14.8869 8.99924 16V30.9691C8.99924 32.0822 9.90161 32.9846 11.0147 32.9846H52.9853C54.0984 32.9846 55.0008 32.0822 55.0008 30.9691V16C55.0008 14.8869 54.0984 13.9845 52.9853 13.9845Z" fill="white"/>
<path opacity="0.25" d="M24.9983 9.97815H15.0012C14.4481 9.97815 13.9996 10.4257 13.9996 10.9779C13.9996 11.53 14.4481 11.9776 15.0012 11.9776H24.9983C25.5514 11.9776 25.9999 11.53 25.9999 10.9779C25.9999 10.4257 25.5514 9.97815 24.9983 9.97815Z" fill="black"/>
<path d="M53.0014 5.00041H10.9986C9.8944 5.00041 8.99924 5.89558 8.99924 6.99982V31.0003C8.99924 32.1045 9.8944 32.9997 10.9986 32.9997H53.0014C54.1056 32.9997 55.0008 32.1045 55.0008 31.0003V6.99982C55.0008 5.89558 54.1056 5.00041 53.0014 5.00041Z" fill="white" stroke="black" stroke-opacity="0.039" stroke-width="1.00159"/>
<path d="M53.0014 5.00041H10.9986C9.8944 5.00041 8.99924 5.89558 8.99924 6.99982V31.0003C8.99924 32.1045 9.8944 32.9997 10.9986 32.9997H53.0014C54.1056 32.9997 55.0008 32.1045 55.0008 31.0003V6.99982C55.0008 5.89558 54.1056 5.00041 53.0014 5.00041Z" fill="#F8F8F2"/>
<path opacity="0.15" d="M46.9994 20.9995H17.0006C16.4475 20.9995 15.9991 21.447 15.9991 21.9992C15.9991 22.5513 16.4475 22.9989 17.0006 22.9989H46.9994C47.5525 22.9989 48.0009 22.5513 48.0009 21.9992C48.0009 21.447 47.5525 20.9995 46.9994 20.9995Z" fill="#282A36"/>
<path opacity="0.15" d="M46.9994 8.99924H17.0006C16.4475 8.99924 15.9991 9.44682 15.9991 9.99894C15.9991 10.5511 16.4475 10.9986 17.0006 10.9986H46.9994C47.5525 10.9986 48.0009 10.5511 48.0009 9.99894C48.0009 9.44682 47.5525 8.99924 46.9994 8.99924Z" fill="#282A36"/>
<path opacity="0.15" d="M46.9994 12.998H17.0006C16.4475 12.998 15.9991 13.4456 15.9991 13.9978C15.9991 14.5499 16.4475 14.9975 17.0006 14.9975H46.9994C47.5525 14.9975 48.0009 14.5499 48.0009 13.9978C48.0009 13.4456 47.5525 12.998 46.9994 12.998Z" fill="#282A36"/>
<path opacity="0.15" d="M46.9994 17.0007H17.0006C16.4475 17.0007 15.9991 17.4482 15.9991 18.0004C15.9991 18.5525 16.4475 19.0001 17.0006 19.0001H46.9994C47.5525 19.0001 48.0009 18.5525 48.0009 18.0004C48.0009 17.4482 47.5525 17.0007 46.9994 17.0007Z" fill="#282A36"/>
<path d="M34.0001 20.0001L31.0001 24.0001H5.99995C3.78393 24.0001 2 25.7841 2 28V52.0005C2 54.2165 3.78401 56.0005 5.99995 56.0005H57.9997C60.2157 56.0005 61.9997 54.2165 61.9997 52.0005V24.0001C61.9997 21.7841 60.2156 20.0107 57.9997 20.0001H34.0001Z" fill="#44475A"/>
<path opacity="0.2" d="M62.0006 39.9995L46.0004 55.9997H58.0006C60.2167 55.9997 62.0006 54.2157 62.0006 51.9998V39.9995Z" fill="url(#paint0_linear_6_20)"/>
<defs>
<linearGradient id="paint0_linear_6_20" x1="50.9994" y1="45.0037" x2="58" y2="52.0043" gradientUnits="userSpaceOnUse">
<stop stop-color="#282A36"/>
<stop offset="1" stop-opacity="0"/>
</linearGradient>
</defs>
</svg>
