<svg width="64" height="64" viewBox="0 0 64 64" fill="none" xmlns="http://www.w3.org/2000/svg">
<path d="M27.0022 8.98446L13.0021 8.98837C11.8924 8.98837 11.5094 10.0012 11.0001 10.9864V11.0001H10.0001C7.78407 11.0001 6.00006 12.7841 6.00006 15.0001V43.0003C6.00006 45.2163 7.78407 47.0003 10.0001 47.0003H54.0004C56.2164 47.0003 58.0004 45.2163 58.0004 43.0003V15.0001C58.0004 12.7841 56.2164 11.0001 54.0004 11.0001H37.1413C37.094 10.9969 37.0488 10.9862 37.0007 10.9864H29.0045C28.4187 10.0453 28.1137 8.98438 27.0025 8.98438L27.0022 8.98446Z" fill="#7E57C2"/>
<path d="M27.0022 8.98446L13.0021 8.98837C11.8924 8.98837 11.5094 10.0012 11.0001 10.9864V11.0001H10.0001C7.78407 11.0001 6.00006 12.7841 6.00006 15.0001V43.0003C6.00006 45.2163 7.78407 47.0003 10.0001 47.0003H54.0004C56.2164 47.0003 58.0004 45.2163 58.0004 43.0003V15.0001C58.0004 12.7841 56.2164 11.0001 54.0004 11.0001L29.0042 10.9864C28.4184 10.0453 28.1135 8.98438 27.0022 8.98438V8.98446Z" fill="#BD93F9"/>
<path d="M52.9852 13.9845H11.0147C9.90158 13.9845 8.99921 14.8869 8.99921 16V30.9691C8.99921 32.0822 9.90158 32.9846 11.0147 32.9846H52.9852C54.0984 32.9846 55.0007 32.0822 55.0007 30.9691V16C55.0007 14.8869 54.0984 13.9845 52.9852 13.9845Z" fill="#F8F8F2"/>
<path opacity="0.25" d="M24.9983 9.97815H15.0012C14.4481 9.97815 13.9996 10.4257 13.9996 10.9779C13.9996 11.53 14.4481 11.9776 15.0012 11.9776H24.9983C25.5514 11.9776 25.9999 11.53 25.9999 10.9779C25.9999 10.4257 25.5514 9.97815 24.9983 9.97815Z" fill="#282A36"/>
<path d="M34.0002 16.0001L31.0002 20.0002H6.00003C3.78401 20.0002 2 21.7842 2 24.0002V52.0004C2 54.2164 3.78401 56.0004 6.00003 56.0004H58.0004C60.2164 56.0004 62.0004 54.2164 62.0004 52.0004V20.0002C62.0004 17.7841 60.2164 16.0001 58.0004 16.0001H34.0002Z" fill="#44475A"/>
<path opacity="0.2" d="M62.0004 40.0003L46.0003 56.0004H58.0004C60.2164 56.0004 62.0004 54.2164 62.0004 52.0004V40.0003Z" fill="url(#paint0_linear_6_151)"/>
<path d="M30.9712 28.9512V31.375C30.1873 31.5197 29.4427 31.8278 28.7857 32.2793L27.0748 30.5703L25.6158 32.0293L27.3267 33.7402C26.875 34.3959 26.5662 35.1392 26.4205 35.9219H24.0005V37.9883H26.4205C26.5651 38.7722 26.8732 39.5169 27.3248 40.1738L25.6158 41.8808L27.0748 43.3437L28.7857 41.6328C29.4425 42.085 30.1871 42.3938 30.9712 42.5391V44.9551H33.0337V42.5391C33.8176 42.3944 34.5623 42.0863 35.2192 41.6347L36.9262 43.3438L38.3892 41.8809L36.6782 40.1738C37.1305 39.5171 37.4393 38.7724 37.5845 37.9883H40.0005V35.9219H37.5825C37.4376 35.1387 37.1295 34.3947 36.6782 33.7383L38.3891 32.0293L36.9262 30.5703L35.2192 32.2812C34.5624 31.829 33.8177 31.5202 33.0337 31.3749V28.9511H30.9711L30.9712 28.9512ZM32.0025 33.8574C32.8239 33.8584 33.6113 34.1854 34.1918 34.7666C34.7723 35.3478 35.0983 36.1356 35.0982 36.9571C35.0972 37.7785 34.7702 38.5659 34.189 39.1464C33.6078 39.7269 32.82 40.0529 31.9986 40.0528C31.1771 40.0518 30.3897 39.7248 29.8092 39.1436C29.2288 38.5624 28.9028 37.7746 28.9028 36.9532C28.9038 36.1317 29.2308 35.3443 29.812 34.7638C30.3932 34.1834 31.181 33.8574 32.0025 33.8574V33.8574Z" fill="#F8F8F2"/>
<defs>
<linearGradient id="paint0_linear_6_151" x1="50.9984" y1="44.9989" x2="57.9989" y2="51.9994" gradientUnits="userSpaceOnUse">
<stop stop-color="#282A36"/>
<stop offset="1" stop-opacity="0"/>
</linearGradient>
</defs>
</svg>
