<svg width="64" height="64" viewBox="0 0 64 64" fill="none" xmlns="http://www.w3.org/2000/svg">
<path d="M27.0022 8.98446L13.0021 8.98837C11.8924 8.98837 11.5094 10.0012 11.0001 10.9864V11.0001H10.0001C7.78404 11.0001 6.00003 12.7841 6.00003 15.0001V43.0003C6.00003 45.2163 7.78404 47.0003 10.0001 47.0003H54.0004C56.2164 47.0003 58.0004 45.2163 58.0004 43.0003V15.0001C58.0004 12.7841 56.2164 11.0001 54.0004 11.0001H37.1413C37.094 10.9969 37.0488 10.9862 37.0006 10.9864H29.0045C28.4186 10.0453 28.1137 8.98438 27.0025 8.98438L27.0022 8.98446Z" fill="#7E57C2"/>
<path d="M27.0022 8.98446L13.0021 8.98837C11.8924 8.98837 11.5094 10.0012 11.0001 10.9864V11.0001H10.0001C7.78404 11.0001 6.00003 12.7841 6.00003 15.0001V43.0003C6.00003 45.2163 7.78404 47.0003 10.0001 47.0003H54.0004C56.2164 47.0003 58.0004 45.2163 58.0004 43.0003V15.0001C58.0004 12.7841 56.2164 11.0001 54.0004 11.0001L29.0042 10.9864C28.4184 10.0453 28.1134 8.98438 27.0022 8.98438V8.98446Z" fill="#BD93F9"/>
<path d="M52.9853 13.9845H11.0147C9.90161 13.9845 8.99924 14.8869 8.99924 16V30.9691C8.99924 32.0822 9.90161 32.9846 11.0147 32.9846H52.9853C54.0984 32.9846 55.0008 32.0822 55.0008 30.9691V16C55.0008 14.8869 54.0984 13.9845 52.9853 13.9845Z" fill="#F8F8F2"/>
<path opacity="0.25" d="M24.9983 9.97815H15.0012C14.4481 9.97815 13.9996 10.4257 13.9996 10.9779C13.9996 11.53 14.4481 11.9776 15.0012 11.9776H24.9983C25.5514 11.9776 25.9999 11.53 25.9999 10.9779C25.9999 10.4257 25.5514 9.97815 24.9983 9.97815Z" fill="#282A36"/>
<path d="M34.0002 16.0001L31.0002 20.0002H6.00003C3.78401 20.0002 2 21.7842 2 24.0002V52.0004C2 54.2164 3.78401 56.0004 6.00003 56.0004H58.0004C60.2164 56.0004 62.0004 54.2164 62.0004 52.0004V20.0002C62.0004 17.7841 60.2164 16.0001 58.0004 16.0001H34.0002Z" fill="#44475A"/>
<path opacity="0.2" d="M62.0005 40.0003L46.0003 56.0004H58.0004C60.2164 56.0004 62.0005 54.2164 62.0005 52.0004V40.0003Z" fill="url(#paint0_linear_6_133)"/>
<path d="M30.6394 42.1663C31.1413 41.6643 31.1413 40.8505 30.6394 40.3485C30.1374 39.8466 29.3235 39.8466 28.8216 40.3485L23.3667 45.8035C22.8647 46.3054 22.8647 47.1193 23.3666 47.6212C23.8686 48.1232 24.6825 48.1232 25.1844 47.6212L30.6394 42.1663Z" fill="#F8F8F2"/>
<path d="M34.5697 29.9861C33.7254 29.9861 32.8894 30.1524 32.1094 30.4755C31.3294 30.7986 30.6206 31.2722 30.0236 31.8692C29.4266 32.4662 28.953 33.1749 28.63 33.955C28.3069 34.735 28.1406 35.571 28.1406 36.4153C28.1406 37.2596 28.3069 38.0956 28.63 38.8756C28.953 39.6557 29.4266 40.3643 30.0236 40.9613C30.6206 41.5583 31.3294 42.0319 32.1094 42.355C32.8894 42.6781 33.7254 42.8444 34.5697 42.8444C36.2748 42.8444 37.9101 42.167 39.1158 40.9613C40.3215 39.7556 40.9988 38.1204 40.9988 36.4153C40.9988 34.7102 40.3215 33.0749 39.1158 31.8692C37.9101 30.6635 36.2748 29.9861 34.5697 29.9861ZM34.5697 31.9154C35.7631 31.9154 36.9077 32.3895 37.7516 33.2334C38.5955 34.0773 39.0696 35.2218 39.0696 36.4153C39.0696 37.6087 38.5955 38.7533 37.7516 39.5972C36.9077 40.4411 35.7631 40.9152 34.5697 40.9152C33.3762 40.9152 32.2317 40.4411 31.3878 39.5972C30.5439 38.7533 30.0698 37.6087 30.0698 36.4153C30.0698 35.2218 30.5439 34.0773 31.3878 33.2334C32.2317 32.3895 33.3762 31.9154 34.5697 31.9154V31.9154Z" fill="#F8F8F2"/>
<defs>
<linearGradient id="paint0_linear_6_133" x1="50.9985" y1="44.9989" x2="57.9989" y2="51.9994" gradientUnits="userSpaceOnUse">
<stop stop-color="#282A36"/>
<stop offset="1" stop-opacity="0"/>
</linearGradient>
</defs>
</svg>
