<svg width="64" height="64" viewBox="0 0 64 64" fill="none" xmlns="http://www.w3.org/2000/svg">
<path d="M27.0022 8.98446L13.0021 8.98837C11.8924 8.98837 11.5094 10.0012 11.0001 10.9864V11.0001H10.0001C7.78407 11.0001 6.00006 12.7841 6.00006 15.0001V43.0003C6.00006 45.2163 7.78407 47.0003 10.0001 47.0003H54.0004C56.2164 47.0003 58.0004 45.2163 58.0004 43.0003V15.0001C58.0004 12.7841 56.2164 11.0001 54.0004 11.0001H37.1413C37.094 10.9969 37.0488 10.9862 37.0007 10.9864H29.0045C28.4187 10.0453 28.1137 8.98438 27.0025 8.98438L27.0022 8.98446Z" fill="#7E57C2"/>
<path d="M27.0022 8.98446L13.0021 8.98837C11.8924 8.98837 11.5094 10.0012 11.0001 10.9864V11.0001H10.0001C7.78407 11.0001 6.00006 12.7841 6.00006 15.0001V43.0003C6.00006 45.2163 7.78407 47.0003 10.0001 47.0003H54.0004C56.2164 47.0003 58.0004 45.2163 58.0004 43.0003V15.0001C58.0004 12.7841 56.2164 11.0001 54.0004 11.0001L29.0042 10.9864C28.4184 10.0453 28.1135 8.98438 27.0022 8.98438V8.98446Z" fill="#BD93F9"/>
<path d="M52.9852 13.9845H11.0147C9.90158 13.9845 8.99921 14.8869 8.99921 16V30.9691C8.99921 32.0822 9.90158 32.9846 11.0147 32.9846H52.9852C54.0984 32.9846 55.0007 32.0822 55.0007 30.9691V16C55.0007 14.8869 54.0984 13.9845 52.9852 13.9845Z" fill="#F8F8F2"/>
<path opacity="0.25" d="M24.9983 9.97815H15.0012C14.4481 9.97815 13.9996 10.4257 13.9996 10.9779C13.9996 11.53 14.4481 11.9776 15.0012 11.9776H24.9983C25.5514 11.9776 25.9999 11.53 25.9999 10.9779C25.9999 10.4257 25.5514 9.97815 24.9983 9.97815Z" fill="#282A36"/>
<path d="M34.0002 16.0001L31.0002 20.0002H6.00003C3.78401 20.0002 2 21.7842 2 24.0002V52.0004C2 54.2164 3.78401 56.0004 6.00003 56.0004H58.0004C60.2164 56.0004 62.0004 54.2164 62.0004 52.0004V20.0002C62.0004 17.7841 60.2164 16.0001 58.0004 16.0001H34.0002Z" fill="#44475A"/>
<path opacity="0.2" d="M62.0004 40.0003L46.0003 56.0004H58.0004C60.2164 56.0004 62.0004 54.2164 62.0004 52.0004V40.0003Z" fill="url(#paint0_linear_6_167)"/>
<path d="M32.0019 29.9722C30.9368 29.9491 29.8777 30.1389 28.8869 30.5305C27.8961 30.9221 26.9935 31.5076 26.232 32.2528C25.4705 32.9979 24.8655 33.8876 24.4524 34.8696C24.0394 35.8517 23.8266 36.9064 23.8266 37.9718C23.8266 39.0372 24.0394 40.0918 24.4524 41.0739C24.8655 42.056 25.4705 42.9457 26.232 43.6908C26.9935 44.4359 27.8961 45.0214 28.8869 45.413C29.8777 45.8047 30.9368 45.9945 32.0019 45.9713C34.0934 45.9258 36.0839 45.0631 37.547 43.5678C39.0101 42.0726 39.8294 40.0638 39.8294 37.9718C39.8294 35.8798 39.0101 33.871 37.547 32.3757C36.0839 30.8805 34.0934 30.0177 32.0019 29.9722ZM29.9987 33.9711L36.0007 37.9737L29.9987 41.9725V33.9711Z" fill="#F8F8F2"/>
<defs>
<linearGradient id="paint0_linear_6_167" x1="50.9984" y1="44.9989" x2="57.9989" y2="51.9994" gradientUnits="userSpaceOnUse">
<stop stop-color="#282A36"/>
<stop offset="1" stop-opacity="0"/>
</linearGradient>
</defs>
</svg>
