<svg width="64" height="64" viewBox="0 0 64 64" fill="none" xmlns="http://www.w3.org/2000/svg">
<path d="M27.0022 8.98407L13.0021 8.98807C11.8921 8.98807 11.5091 10.0011 11.0001 10.9861V11.0001H10.0001C7.78404 11.0001 6.00003 12.7841 6.00003 15.0001V43.0003C6.00003 45.2163 7.78404 47.0003 10.0001 47.0003H54.0004C56.2164 47.0003 58.0004 45.2163 58.0004 43.0003V15.0001C58.0004 12.7841 56.2164 11.0001 54.0004 11.0001H37.1413C37.0943 10.9971 37.0493 10.9861 37.0013 10.9861H29.0042C28.4182 10.0461 28.1142 8.98407 27.0022 8.98407V8.98407Z" fill="#7E57C2"/>
<path d="M27.0022 8.98407L13.0021 8.98807C11.8921 8.98807 11.5091 10.0011 11.0001 10.9861V11.0001H10.0001C7.78404 11.0001 6.00003 12.7841 6.00003 15.0001V43.0003C6.00003 45.2163 7.78404 47.0003 10.0001 47.0003H54.0004C56.2164 47.0003 58.0004 45.2163 58.0004 43.0003V15.0001C58.0004 12.7841 56.2164 11.0001 54.0004 11.0001L29.0042 10.9861C28.4182 10.0461 28.1142 8.98407 27.0022 8.98407V8.98407Z" fill="#BD93F9"/>
<path d="M52.9862 13.9845H11.0138C9.90117 13.9845 8.99924 14.8865 8.99924 15.9991V30.9701C8.99924 32.0827 9.90117 32.9846 11.0138 32.9846H52.9862C54.0988 32.9846 55.0008 32.0827 55.0008 30.9701V15.9991C55.0008 14.8865 54.0988 13.9845 52.9862 13.9845Z" fill="white"/>
<path opacity="0.25" d="M24.9983 9.97815H15.0012C14.4481 9.97815 13.9996 10.4257 13.9996 10.9779C13.9996 11.53 14.4481 11.9776 15.0012 11.9776H24.9983C25.5514 11.9776 25.9999 11.53 25.9999 10.9779C25.9999 10.4257 25.5514 9.97815 24.9983 9.97815Z" fill="#282A36"/>
<path d="M34.0002 16.0001L31.0002 20.0002H6.00003C3.78401 20.0002 2 21.7842 2 24.0002V52.0004C2 54.2164 3.78401 56.0004 6.00003 56.0004H58.0004C60.2164 56.0004 62.0004 54.2164 62.0004 52.0004V20.0002C62.0004 17.7841 60.2164 16.0001 58.0004 16.0001H34.0002Z" fill="#44475A"/>
<path opacity="0.2" d="M62.0005 40.0003L46.0003 56.0004H58.0004C60.2164 56.0004 62.0005 54.2164 62.0005 52.0004V40.0003Z" fill="url(#paint0_linear_6_40)"/>
<path d="M27.801 44.2207C29.925 42.0094 31.866 39.7107 32.1139 39.112C32.3617 38.514 33.3382 37.3314 34.2856 36.4856C36.7642 34.2713 38.2095 34.4452 39.4533 37.1067C39.7706 37.7853 40.2073 38.34 40.4238 38.34C40.918 38.34 43.1988 36.1198 43.1988 35.6375C43.1988 35.0141 42.0282 33.9391 41.3495 33.9391C40.6328 33.9391 39.9475 32.9111 39.9475 31.8375C39.9475 31.0238 37.7078 28.7587 36.0826 27.9285C35.3076 27.5328 33.9735 27.338 32.04 27.338C29.1157 27.338 27.8936 27.8225 29.7652 28.2398C30.3274 28.3653 31.3852 28.9677 32.1169 29.5799C33.9982 31.1552 33.9228 32.3384 31.7757 34.8894C30.8574 35.9802 29.8816 36.873 29.6062 36.873C28.9977 36.873 20.802 44.4932 20.802 45.0583C20.802 45.4853 23.3179 48.2416 23.7084 48.2416C23.8353 48.2416 25.677 46.4327 27.801 44.2207H27.801Z" fill="#F8F8F2"/>
<defs>
<linearGradient id="paint0_linear_6_40" x1="50.9985" y1="44.9989" x2="57.9989" y2="51.9994" gradientUnits="userSpaceOnUse">
<stop stop-color="#282A36"/>
<stop offset="1" stop-opacity="0"/>
</linearGradient>
</defs>
</svg>
