<svg width="64" height="64" viewBox="0 0 64 64" fill="none" xmlns="http://www.w3.org/2000/svg">
<path d="M27.0022 8.98447L13.0021 8.98837C11.8924 8.98837 11.5094 10.0012 11.0001 10.9864V11.0001H10.0001C7.78404 11.0001 6.00003 12.7841 6.00003 15.0001V43.0003C6.00003 45.2163 7.78404 47.0003 10.0001 47.0003H54.0004C56.2164 47.0003 58.0004 45.2163 58.0004 43.0003V15.0001C58.0004 12.7841 56.2164 11.0001 54.0004 11.0001H37.1413C37.094 10.9969 37.0488 10.9862 37.0006 10.9864H29.0045C28.4186 10.0453 28.1137 8.98438 27.0025 8.98438L27.0022 8.98447Z" fill="#7E57C2"/>
<path d="M27.0022 8.98447L13.0021 8.98838C11.8924 8.98838 11.5094 10.0012 11.0001 10.9864V11.0001H10.0001C7.78404 11.0001 6.00003 12.7841 6.00003 15.0001V43.0003C6.00003 45.2163 7.78404 47.0003 10.0001 47.0003H54.0004C56.2164 47.0003 58.0004 45.2163 58.0004 43.0003V15.0001C58.0004 12.7841 56.2164 11.0001 54.0004 11.0001L29.0042 10.9864C28.4184 10.0453 28.1134 8.98438 27.0022 8.98438V8.98447Z" fill="#BD93F9"/>
<path d="M52.9853 13.9845H11.0147C9.90161 13.9845 8.99924 14.8869 8.99924 16V30.9691C8.99924 32.0822 9.90161 32.9846 11.0147 32.9846H52.9853C54.0984 32.9846 55.0008 32.0822 55.0008 30.9691V16C55.0008 14.8869 54.0984 13.9845 52.9853 13.9845Z" fill="white"/>
<path opacity="0.25" d="M24.9983 9.97815H15.0012C14.4481 9.97815 13.9996 10.4257 13.9996 10.9779C13.9996 11.53 14.4481 11.9776 15.0012 11.9776H24.9983C25.5514 11.9776 25.9999 11.53 25.9999 10.9779C25.9999 10.4257 25.5514 9.97815 24.9983 9.97815Z" fill="#282A36"/>
<path d="M34.0002 16.0001L31.0002 20.0002H6.00003C3.78401 20.0002 2 21.7842 2 24.0002V52.0004C2 54.2164 3.78401 56.0004 6.00003 56.0004H58.0004C60.2164 56.0004 62.0004 54.2164 62.0004 52.0004V20.0002C62.0004 17.7841 60.2164 16.0001 58.0004 16.0001H34.0002Z" fill="#44475A"/>
<path opacity="0.2" d="M62.0005 40.0003L46.0003 56.0004H58.0004C60.2164 56.0004 62.0005 54.2164 62.0005 52.0004V40.0003Z" fill="url(#paint0_linear_6_33)"/>
<defs>
<linearGradient id="paint0_linear_6_33" x1="50.9985" y1="44.9989" x2="57.9989" y2="51.9994" gradientUnits="userSpaceOnUse">
<stop stop-color="#282A36"/>
<stop offset="1" stop-opacity="0"/>
</linearGradient>
</defs>
</svg>
