<svg width="64" height="64" viewBox="0 0 64 64" fill="none" xmlns="http://www.w3.org/2000/svg">
<g clip-path="url(#clip0_6_72)">
<path d="M11.6 26.8C10.9352 26.8 10.7057 27.4096 10.4 28H8.60002C7.93522 28 7.40002 28.5352 7.40002 29.2V41.2C7.40002 41.8648 7.93522 42.4001 8.60002 42.4001H37.4C38.0648 42.4001 38.6 41.8648 38.6 41.2V29.2C38.6 28.5352 38.0648 28 37.4 28H21.2C20.8477 27.4362 20.6648 26.8 20 26.8H11.6Z" fill="#7E57C2"/>
<path d="M11.6 26.8C10.9352 26.8 10.7057 27.4096 10.4 28H8.60002C7.93522 28 7.40002 28.5352 7.40002 29.2V41.2C7.40002 41.8648 7.93522 42.4001 8.60002 42.4001H37.4C38.0648 42.4001 38.6 41.8648 38.6 41.2V29.2C38.6 28.5352 38.0648 28 37.4 28H21.2C20.8477 27.4362 20.6648 26.8 20 26.8H11.6Z" fill="#BD93F9"/>
<path d="M36.2 29.8H9.80004C9.46866 29.8 9.20001 30.0687 9.20001 30.4001V40.6C9.20001 40.9314 9.46866 41.2 9.80004 41.2H36.2C36.5314 41.2 36.8 40.9314 36.8 40.6V30.4001C36.8 30.0687 36.5314 29.8 36.2 29.8Z" fill="#F2F2F2"/>
<path d="M23 31C22.3352 31 22.1358 31.625 21.8008 32.1992L21.0996 33.4004H6.19922C5.53443 33.4004 5 33.9348 5 34.5996V53.8008C5 54.4656 5.53443 55 6.19922 55H39.8008C40.4656 55 41 54.4656 41 53.8008V41.1992V34.5996V32.1992C41 31.5344 40.4656 31 39.8008 31H23Z" fill="#44475A"/>
<path opacity="0.25" d="M18.8 27.4H12.8C12.4686 27.4 12.2 27.6687 12.2 28C12.2 28.3314 12.4686 28.6 12.8 28.6H18.8C19.1314 28.6 19.4 28.3314 19.4 28C19.4 27.6687 19.1314 27.4 18.8 27.4Z" fill="#282A36"/>
<path opacity="0.1" d="M41.3878 47.4121L33.3268 55.4732C33.2097 55.5903 33.2097 55.7803 33.3268 55.8974L40.5393 63.1099C40.6565 63.2271 40.8464 63.2271 40.9636 63.1099L49.0246 55.0489C49.1417 54.9317 49.1417 54.7418 49.0246 54.6246L41.8121 47.4121C41.695 47.295 41.505 47.295 41.3878 47.4121Z" fill="url(#paint0_linear_6_72)"/>
<path d="M30.6 11.8C29.9352 11.8 29.7057 12.4096 29.4 13H27.6C26.9352 13 26.4 13.5352 26.4 14.2V26.2C26.4 26.8648 26.9352 27.4001 27.6 27.4001H56.4C57.0648 27.4001 57.6 26.8648 57.6 26.2V14.2C57.6 13.5352 57.0648 13 56.4 13H40.2C39.8477 12.4362 39.6648 11.8 39 11.8H30.6Z" fill="#7E57C2"/>
<path d="M30.6 11.8C29.9352 11.8 29.7057 12.4096 29.4 13H27.6C26.9352 13 26.4 13.5352 26.4 14.2V26.2C26.4 26.8648 26.9352 27.4001 27.6 27.4001H56.4C57.0648 27.4001 57.6 26.8648 57.6 26.2V14.2C57.6 13.5352 57.0648 13 56.4 13H40.2C39.8477 12.4362 39.6648 11.8 39 11.8H30.6Z" fill="#BD93F9"/>
<path d="M55.2 14.8H28.8C28.4687 14.8 28.2 15.0687 28.2 15.4001V25.6C28.2 25.9314 28.4687 26.2 28.8 26.2H55.2C55.5314 26.2 55.8 25.9314 55.8 25.6V15.4001C55.8 15.0687 55.5314 14.8 55.2 14.8Z" fill="white"/>
<path d="M42 16C41.3352 16 41.1358 16.625 40.8008 17.1992L40.0996 18.4004H25.1992C24.5344 18.4004 24 18.9348 24 19.5996V38.8008C24 39.4656 24.5344 40 25.1992 40H58.8008C59.4656 40 60 39.4656 60 38.8008V26.1992V19.5996V17.1992C60 16.5344 59.4656 16 58.8008 16H42Z" fill="#7E57C2"/>
<path d="M42 16C41.3352 16 41.1358 16.6249 40.8008 17.1992L40.0996 18.4004H25.1992C24.5344 18.4004 24 18.9348 24 19.5996V38.8008C24 39.4656 24.5344 40 25.1992 40H58.8008C59.4656 40 60 39.4656 60 38.8008V26.1992V19.5996V17.1992C60 16.5344 59.4656 16 58.8008 16H42Z" fill="#44475A"/>
<path opacity="0.25" d="M37.8 12.4H31.8C31.4686 12.4 31.2 12.6687 31.2 13C31.2 13.3314 31.4686 13.6 31.8 13.6H37.8C38.1314 13.6 38.4 13.3314 38.4 13C38.4 12.6687 38.1314 12.4 37.8 12.4Z" fill="#282A36"/>
<path opacity="0.1" d="M60.3878 32.4121L52.3268 40.4732C52.2097 40.5903 52.2097 40.7803 52.3268 40.8974L59.5393 48.1099C59.6565 48.2271 59.8464 48.2271 59.9636 48.1099L68.0246 40.0489C68.1417 39.9317 68.1417 39.7418 68.0246 39.6246L60.8121 32.4121C60.695 32.295 60.505 32.295 60.3878 32.4121Z" fill="url(#paint1_linear_6_72)"/>
</g>
<defs>
<linearGradient id="paint0_linear_6_72" x1="36.8" y1="51.4" x2="39.8" y2="53.8" gradientUnits="userSpaceOnUse">
<stop/>
<stop offset="1" stop-opacity="0"/>
</linearGradient>
<linearGradient id="paint1_linear_6_72" x1="55.8" y1="36.4" x2="58.8" y2="38.8" gradientUnits="userSpaceOnUse">
<stop/>
<stop offset="1" stop-opacity="0"/>
</linearGradient>
<clipPath id="clip0_6_72">
<rect width="64" height="64" fill="white"/>
</clipPath>
</defs>
</svg>
