<svg width="64" height="64" viewBox="0 0 64 64" fill="none" xmlns="http://www.w3.org/2000/svg">
<path d="M27.0022 8.98449L13.0022 8.98838C11.8925 8.98838 11.5095 10.0012 11.0002 10.9864V11.0001H10.0002C7.78418 11.0001 6.00024 12.7841 6.00024 15V43.0001C6.00024 45.2161 7.78425 47 10.0002 47H54.0023C56.2183 47 58.0023 45.216 58.0023 43.0001V15C58.0023 12.784 56.2183 11.0001 54.0023 11.0001H37.143C37.0957 10.9969 37.0505 10.9862 37.0024 10.9864H29.0063C28.4204 10.0453 28.1155 8.98438 27.0043 8.98438L27.0022 8.98449Z" fill="#7E57C2"/>
<path d="M27.0022 8.98449L13.0022 8.98838C11.8925 8.98838 11.5095 10.0012 11.0002 10.9864V11.0001H10.0002C7.78418 11.0001 6.00024 12.7841 6.00024 15V43.0001C6.00024 45.2161 7.78425 47 10.0002 47H54.0023C56.2183 47 58.0023 45.216 58.0023 43.0001V15C58.0023 12.784 56.2183 11.0001 54.0023 11.0001L29.0063 10.9864C28.4205 10.0453 28.1156 8.98439 27.0043 8.98439L27.0022 8.98449Z" fill="#BD93F9"/>
<path opacity="0.25" d="M24.9983 9.97815H15.0012C14.4481 9.97815 13.9996 10.4257 13.9996 10.9779C13.9996 11.53 14.4481 11.9776 15.0012 11.9776H24.9983C25.5514 11.9776 25.9999 11.53 25.9999 10.9779C25.9999 10.4257 25.5514 9.97815 24.9983 9.97815Z" fill="#282A36"/>
<path d="M32.0019 12.9867L22.9989 21.9859H27.9993V30.989C27.9993 31.5408 28.4453 31.9868 29.0009 31.9868H34.9991C35.1305 31.9873 35.2606 31.9618 35.3821 31.9119C35.5036 31.862 35.6141 31.7886 35.7071 31.6959C35.8002 31.6031 35.874 31.493 35.9244 31.3717C35.9748 31.2504 36.0007 31.1203 36.0007 30.989V21.9859H41.0011L32.0019 12.9905V12.9867Z" fill="white" stroke="#F8F8F2" stroke-opacity="0.039" stroke-width="1.00001"/>
<path d="M34.0001 24.0001L31.0001 28H5.99995C3.78393 28 2 29.7841 2 32V52.0005C2 54.2165 3.78401 56.0005 5.99995 56.0005H57.9997C60.2157 56.0005 61.9997 54.2165 61.9997 52.0005V28C61.9997 25.784 60.2156 24.0088 57.9997 24.0001H34.0001Z" fill="#44475A"/>
<path opacity="0.2" d="M62.0006 39.9995L46.0004 55.9997H58.0007C60.2167 55.9997 62.0006 54.2157 62.0006 51.9998V39.9995Z" fill="url(#paint0_linear_6_98)"/>
<defs>
<linearGradient id="paint0_linear_6_98" x1="50.9995" y1="45.0037" x2="58" y2="52.0043" gradientUnits="userSpaceOnUse">
<stop stop-color="#282A36"/>
<stop offset="1" stop-opacity="0"/>
</linearGradient>
</defs>
</svg>
