<svg width="64" height="64" viewBox="0 0 64 64" fill="none" xmlns="http://www.w3.org/2000/svg">
<path d="M27.0022 8.98446L13.0021 8.98837C11.8924 8.98837 11.5094 10.0012 11.0001 10.9864V11.0001H10.0001C7.78406 11.0001 6.00005 12.7841 6.00005 15.0001V43.0003C6.00005 45.2163 7.78406 47.0003 10.0001 47.0003H54.0004C56.2164 47.0003 58.0004 45.2163 58.0004 43.0003V15.0001C58.0004 12.7841 56.2164 11.0001 54.0004 11.0001H37.1413C37.094 10.9969 37.0488 10.9862 37.0006 10.9864H29.0045C28.4186 10.0453 28.1137 8.98438 27.0025 8.98438L27.0022 8.98446Z" fill="#7E57C2"/>
<path d="M27.0022 8.98446L13.0021 8.98837C11.8924 8.98837 11.5094 10.0012 11.0001 10.9864V11.0001H10.0001C7.78406 11.0001 6.00005 12.7841 6.00005 15.0001V43.0003C6.00005 45.2163 7.78406 47.0003 10.0001 47.0003H54.0004C56.2164 47.0003 58.0004 45.2163 58.0004 43.0003V15.0001C58.0004 12.7841 56.2164 11.0001 54.0004 11.0001L29.0042 10.9864C28.4184 10.0453 28.1135 8.98438 27.0022 8.98438V8.98446Z" fill="#BD93F9"/>
<path d="M52.9853 13.9845H11.0147C9.90161 13.9845 8.99924 14.8869 8.99924 16V30.9691C8.99924 32.0822 9.90161 32.9846 11.0147 32.9846H52.9853C54.0984 32.9846 55.0008 32.0822 55.0008 30.9691V16C55.0008 14.8869 54.0984 13.9845 52.9853 13.9845Z" fill="white"/>
<path opacity="0.25" d="M24.9983 9.97815H15.0012C14.4481 9.97815 13.9996 10.4257 13.9996 10.9779C13.9996 11.53 14.4481 11.9776 15.0012 11.9776H24.9983C25.5515 11.9776 25.9999 11.53 25.9999 10.9779C25.9999 10.4257 25.5515 9.97815 24.9983 9.97815Z" fill="#282A36"/>
<path d="M34.0002 16.0001L31.0002 20.0001H6.00004C3.78403 20.0001 2.00002 21.7842 2.00002 24.0002V52.0004C2.00002 54.2164 3.78403 56.0004 6.00004 56.0004H58.0004C60.2164 56.0004 62.0004 54.2164 62.0004 52.0004V20.0001C62.0004 17.7841 60.2164 16.0001 58.0004 16.0001H34.0002Z" fill="#44475A"/>
<path opacity="0.2" d="M62.0005 40.0003L46.0003 56.0004H58.0004C60.2164 56.0004 62.0005 54.2164 62.0005 52.0004V40.0003Z" fill="url(#paint0_linear_6_197)"/>
<path d="M32.0019 29.9874L24.0005 37.9888H27.0015V43.987C27.0015 44.5426 27.4475 44.9886 27.9993 44.9886H30.0025V40.9898H34.0013V44.9886H36.0007C36.1324 44.9891 36.2628 44.9635 36.3846 44.9134C36.5063 44.8632 36.6169 44.7895 36.71 44.6964C36.8031 44.6033 36.8769 44.4926 36.9271 44.3709C36.9772 44.2492 37.0028 44.1187 37.0023 43.987V37.9888H39.9995L32.0019 29.9874ZM32.0019 34.9878C32.2748 34.971 32.5482 35.0103 32.8054 35.1031C33.0626 35.196 33.298 35.3406 33.4972 35.5279C33.6964 35.7152 33.8551 35.9413 33.9636 36.1923C34.0721 36.4432 34.1281 36.7138 34.1281 36.9872C34.1281 37.2606 34.0721 37.5311 33.9636 37.7821C33.8551 38.0331 33.6964 38.2592 33.4972 38.4465C33.298 38.6338 33.0626 38.7784 32.8054 38.8712C32.5482 38.9641 32.2748 39.0034 32.0019 38.9866C31.4929 38.9553 31.0149 38.731 30.6656 38.3595C30.3162 37.988 30.1217 37.4972 30.1217 36.9872C30.1217 36.4772 30.3162 35.9864 30.6656 35.6149C31.0149 35.2434 31.4929 35.0191 32.0019 34.9878V34.9878Z" fill="#F8F8F2"/>
<defs>
<linearGradient id="paint0_linear_6_197" x1="50.9985" y1="44.9989" x2="57.9989" y2="51.9994" gradientUnits="userSpaceOnUse">
<stop stop-color="#282A36"/>
<stop offset="1" stop-opacity="0"/>
</linearGradient>
</defs>
</svg>
