<svg width="64" height="64" viewBox="0 0 64 64" fill="none" xmlns="http://www.w3.org/2000/svg">
<path d="M27.0022 8.98446L13.0021 8.98837C11.8924 8.98837 11.5094 10.0012 11.0001 10.9864V11.0001H10.0001C7.78404 11.0001 6.00003 12.7841 6.00003 15.0001V43.0003C6.00003 45.2163 7.78404 47.0003 10.0001 47.0003H54.0004C56.2164 47.0003 58.0004 45.2163 58.0004 43.0003V15.0001C58.0004 12.7841 56.2164 11.0001 54.0004 11.0001H37.1413C37.094 10.9969 37.0488 10.9862 37.0006 10.9864H29.0045C28.4186 10.0453 28.1137 8.98438 27.0025 8.98438L27.0022 8.98446Z" fill="#7E57C2"/>
<path d="M27.0022 8.98446L13.0021 8.98837C11.8924 8.98837 11.5094 10.0012 11.0001 10.9864V11.0001H10.0001C7.78404 11.0001 6.00003 12.7841 6.00003 15.0001V43.0003C6.00003 45.2163 7.78404 47.0003 10.0001 47.0003H54.0004C56.2164 47.0003 58.0004 45.2163 58.0004 43.0003V15.0001C58.0004 12.7841 56.2164 11.0001 54.0004 11.0001L29.0042 10.9864C28.4184 10.0453 28.1134 8.98438 27.0022 8.98438V8.98446Z" fill="#BD93F9"/>
<path d="M52.9853 13.9845H11.0147C9.90161 13.9845 8.99924 14.8869 8.99924 16V30.9691C8.99924 32.0822 9.90161 32.9846 11.0147 32.9846H52.9853C54.0984 32.9846 55.0008 32.0822 55.0008 30.9691V16C55.0008 14.8869 54.0984 13.9845 52.9853 13.9845Z" fill="#F8F8F2"/>
<path opacity="0.25" d="M24.9983 9.97815H15.0012C14.4481 9.97815 13.9996 10.4257 13.9996 10.9779C13.9996 11.53 14.4481 11.9776 15.0012 11.9776H24.9983C25.5514 11.9776 25.9999 11.53 25.9999 10.9779C25.9999 10.4257 25.5514 9.97815 24.9983 9.97815Z" fill="#282A36"/>
<path d="M34.0002 16.0001L31.0002 20.0002H6.00003C3.78401 20.0002 2 21.7842 2 24.0002V52.0004C2 54.2164 3.78401 56.0004 6.00003 56.0004H58.0004C60.2164 56.0004 62.0004 54.2164 62.0004 52.0004V20.0002C62.0004 17.7841 60.2164 16.0001 58.0004 16.0001H34.0002Z" fill="#44475A"/>
<path opacity="0.2" d="M62.0005 40.0003L46.0003 56.0004H58.0004C60.2164 56.0004 62.0005 54.2164 62.0005 52.0004V40.0003Z" fill="url(#paint0_linear_6_113)"/>
<path d="M32.0022 29.5592C31.5521 29.5592 31.1064 29.6478 30.6905 29.8201C30.2746 29.9924 29.8967 30.2448 29.5784 30.5631C29.2601 30.8814 29.0077 31.2593 28.8354 31.6752C28.6632 32.0911 28.5745 32.5368 28.5745 32.9869H28.5726C28.5726 33.7374 28.6612 34.4806 28.8335 35.1739C29.0057 35.8673 29.2582 36.4973 29.5765 37.028C29.8948 37.5587 30.2727 37.9796 30.6886 38.2668C31.1044 38.554 31.5502 38.7018 32.0003 38.7018C32.4506 38.7022 32.8965 38.5547 33.3126 38.2678C33.7287 37.9808 34.1068 37.5599 34.4253 37.0292C34.7438 36.4985 34.9965 35.8683 35.1689 35.1747C35.3413 34.4811 35.43 33.7377 35.43 32.9869C35.43 32.5368 35.3414 32.0911 35.1691 31.6752C34.9969 31.2593 34.7444 30.8814 34.4261 30.5631C34.1078 30.2448 33.7299 29.9924 33.314 29.8201C32.8982 29.6478 32.4524 29.5592 32.0023 29.5592H32.0022ZM34.7562 40.1683C34.4382 40.5999 34.0234 40.9509 33.5451 41.1931C33.0668 41.4353 32.5384 41.5619 32.0022 41.5628C31.466 41.5624 30.9372 41.4363 30.4586 41.1944C29.9799 40.9525 29.5647 40.6017 29.2463 40.1702C27.7099 40.5323 26.3831 41.1886 25.4451 42.0505C24.507 42.9124 24.0027 43.9386 24.0002 44.9905H40.0023C40.0004 43.9382 39.4964 42.9117 38.5583 42.0493C37.6202 41.187 36.2931 40.5304 34.7562 40.1682V40.1683Z" fill="#F8F8F2"/>
<defs>
<linearGradient id="paint0_linear_6_113" x1="50.9985" y1="44.9989" x2="57.9989" y2="51.9994" gradientUnits="userSpaceOnUse">
<stop stop-color="#282A36"/>
<stop offset="1" stop-opacity="0"/>
</linearGradient>
</defs>
</svg>
