<svg width="64" height="64" viewBox="0 0 64 64" fill="none" xmlns="http://www.w3.org/2000/svg">
<path d="M27.0022 8.98407L13.0021 8.98807C11.8921 8.98807 11.5091 10.0011 11.0001 10.9861V11.0001H10.0001C7.78407 11.0001 6.00006 12.7841 6.00006 15.0001V43.0003C6.00006 45.2163 7.78407 47.0003 10.0001 47.0003H54.0004C56.2164 47.0003 58.0004 45.2163 58.0004 43.0003V15.0001C58.0004 12.7841 56.2164 11.0001 54.0004 11.0001H37.1413C37.0943 10.9971 37.0493 10.9861 37.0013 10.9861H29.0042C28.4182 10.0461 28.1142 8.98407 27.0022 8.98407V8.98407Z" fill="#7E57C2"/>
<path d="M27.0022 8.98407L13.0021 8.98807C11.8921 8.98807 11.5091 10.0011 11.0001 10.9861V11.0001H10.0001C7.78407 11.0001 6.00006 12.7841 6.00006 15.0001V43.0003C6.00006 45.2163 7.78407 47.0003 10.0001 47.0003H54.0004C56.2164 47.0003 58.0004 45.2163 58.0004 43.0003V15.0001C58.0004 12.7841 56.2164 11.0001 54.0004 11.0001L29.0042 10.9861C28.4182 10.0461 28.1142 8.98407 27.0022 8.98407V8.98407Z" fill="#BD93F9"/>
<path d="M52.9862 13.9845H11.0137C9.90114 13.9845 8.99921 14.8865 8.99921 15.9991V30.9701C8.99921 32.0827 9.90114 32.9846 11.0137 32.9846H52.9862C54.0988 32.9846 55.0007 32.0827 55.0007 30.9701V15.9991C55.0007 14.8865 54.0988 13.9845 52.9862 13.9845Z" fill="white"/>
<path opacity="0.25" d="M24.9983 9.97815H15.0012C14.4481 9.97815 13.9996 10.4257 13.9996 10.9779C13.9996 11.53 14.4481 11.9776 15.0012 11.9776H24.9983C25.5514 11.9776 25.9999 11.53 25.9999 10.9779C25.9999 10.4257 25.5514 9.97815 24.9983 9.97815Z" fill="#282A36"/>
<path d="M34.0002 16.0001L31.0002 20.0002H6.00003C3.78401 20.0002 2 21.7842 2 24.0002V52.0004C2 54.2164 3.78401 56.0004 6.00003 56.0004H58.0004C60.2164 56.0004 62.0004 54.2164 62.0004 52.0004V20.0002C62.0004 17.7841 60.2164 16.0001 58.0004 16.0001H34.0002Z" fill="#44475A"/>
<path opacity="0.2" d="M62.0004 40.0003L46.0003 56.0004H58.0004C60.2164 56.0004 62.0004 54.2164 62.0004 52.0004V40.0003Z" fill="url(#paint0_linear_6_64)"/>
<path d="M27.6354 50.3948C27.8875 50.3638 28.093 50.2649 28.2673 50.09C28.4153 49.9417 28.5106 49.7661 28.5511 49.5672C28.5741 49.4544 28.5763 49.3283 28.5743 48.2086L28.5724 47.0962L27.8249 47.0916C27.4138 47.0891 27.0632 47.0852 27.0459 47.0829C27.0284 47.0807 26.9669 47.0754 26.909 47.0712C26.6725 47.0546 26.3987 47.0191 26.1685 46.9759C25.3142 46.8155 24.6452 46.4978 24.17 46.0274C23.8726 45.7328 23.6722 45.408 23.5155 44.9661C23.2713 44.2777 22.9134 43.7182 22.3681 43.1726C22.1402 42.9445 21.994 42.8171 21.574 42.481C21.1827 42.1678 21.0801 42.06 21.0801 41.9621C21.0801 41.898 21.1287 41.8504 21.2588 41.7873C21.4416 41.6985 21.6199 41.6624 21.8405 41.6693C22.104 41.6776 22.3597 41.7503 22.6574 41.9018C23.0077 42.0801 23.3639 42.3487 23.7426 42.7202C23.9745 42.9476 24.1391 43.1318 24.4018 43.4576C25.1951 44.4418 25.6981 44.8103 26.4177 44.9342C26.6313 44.9708 26.721 44.9766 27.0915 44.9766C27.4432 44.9766 27.5269 44.9724 27.7477 44.9449C28.0535 44.9063 28.3336 44.8357 28.5098 44.7526L28.5736 44.7224L28.5781 44.5968C28.6046 43.8595 28.8892 43.2162 29.4081 42.721C29.4921 42.6407 29.6255 42.5297 29.7003 42.4778C29.7223 42.4623 29.7406 42.4479 29.7407 42.4456C29.7408 42.4432 29.7248 42.4392 29.705 42.4366C29.6307 42.4267 29.2683 42.3616 29.1163 42.3308C27.7166 42.0475 26.5607 41.6059 25.6109 40.9913C25.0309 40.6161 24.5271 40.169 24.1266 39.6742C23.4157 38.7957 22.9875 37.7483 22.8355 36.5158C22.7618 35.9178 22.7566 35.1886 22.8213 34.512C22.9668 32.9896 23.4518 31.6779 24.2891 30.5426C24.3025 30.5245 24.3025 30.5243 24.2634 30.3812C23.8929 29.0215 23.9182 27.5761 24.3388 26.0653L24.3553 26.0057L24.4917 26.0068C25.057 26.0114 25.7953 26.1799 26.5019 26.4655C27.2033 26.749 27.9438 27.1779 28.4789 27.6105C28.5163 27.6408 28.5509 27.6655 28.5556 27.6655C28.5604 27.6655 28.627 27.6465 28.7035 27.6232C29.547 27.3665 30.5155 27.1877 31.4955 27.1076C31.9415 27.0712 32.2663 27.0591 32.7939 27.0591C33.3371 27.0591 33.6772 27.0723 34.1345 27.1112C35.1235 27.1955 36.0328 27.3639 36.9129 27.6261L37.0419 27.6645L37.1516 27.5789C37.309 27.4561 37.4206 27.3759 37.6135 27.2469C38.7316 26.4995 40.0248 26.0374 41.0904 26.0045L41.2349 26L41.2455 26.0414C41.2515 26.0642 41.2708 26.1366 41.2883 26.2022C41.5925 27.332 41.6628 28.4943 41.4926 29.5746C41.4543 29.8175 41.39 30.1257 41.3353 30.3279C41.3198 30.3852 41.3074 30.4369 41.3074 30.4428C41.3074 30.4486 41.3399 30.4965 41.3797 30.5491C41.9237 31.2691 42.3246 32.0744 42.5805 32.9619C42.7843 33.6684 42.8897 34.3795 42.9157 35.2224C42.9418 36.068 42.8473 36.8714 42.6375 37.5896C42.3928 38.4268 41.9969 39.153 41.428 39.8075C41.3207 39.931 41.022 40.2314 40.8968 40.3418C39.9541 41.173 38.7484 41.7713 37.2226 42.165C36.8471 42.2619 36.2754 42.3802 35.9453 42.4293C35.9009 42.4357 35.8622 42.4433 35.8592 42.4459C35.8563 42.4486 35.8879 42.4762 35.9294 42.5073C36.2148 42.7212 36.4708 43.0062 36.6464 43.3051C36.8012 43.5688 36.9173 43.8894 36.9695 44.1976C37.0108 44.4411 37.0074 44.2255 37.0121 46.9662C37.0162 49.3057 37.0171 49.4793 37.0284 49.535C37.0613 49.6965 37.1081 49.8121 37.1935 49.942C37.2449 50.0204 37.3888 50.1645 37.4682 50.2172C37.6242 50.3207 37.7897 50.3805 37.968 50.3977C38.0002 50.4009 35.6717 50.4034 32.7939 50.4038C28.5017 50.4039 27.5749 50.4023 27.6354 50.3951L27.6354 50.3948Z" fill="#F8F8F2"/>
<defs>
<linearGradient id="paint0_linear_6_64" x1="50.9984" y1="44.9989" x2="57.9989" y2="51.9994" gradientUnits="userSpaceOnUse">
<stop stop-color="#282A36"/>
<stop offset="1" stop-opacity="0"/>
</linearGradient>
</defs>
</svg>
