<svg width="64" height="64" viewBox="0 0 64 64" fill="none" xmlns="http://www.w3.org/2000/svg">
<path d="M27.0022 8.98446L13.0021 8.98837C11.8924 8.98837 11.5095 10.0012 11.0001 10.9864V11.0001H10.0001C7.78404 11.0001 6.00003 12.7841 6.00003 15.0001V20.0001C3.78401 20.0001 2 21.7841 2 24.0001V52.0003C2 54.2163 3.78401 56.0003 6.00003 56.0003H58.0004C60.2164 56.0003 62.0004 54.2163 62.0004 52.0003V20.0001C62.0004 17.7841 60.2164 16.0001 58.0004 16.0001V15.0001C58.0004 12.7841 56.2164 11.0001 54.0003 11.0001H37.1412C37.0939 10.9969 37.0487 10.9862 37.0006 10.9864H29.0045C28.4186 10.0452 28.1135 8.98446 27.0022 8.98446Z" fill="#44475A"/>
<path d="M27.0019 8.98449L13.0018 8.98838C11.8921 8.98838 11.5092 10.0012 10.9999 10.9864V11.0001H9.99989C7.78387 11.0001 5.99994 12.7841 5.99994 15.0001V20.0001H31.0001L34.0001 16.0001H58.0002V15.0001C58.0002 12.7841 56.2162 11.0002 54.0002 11.0002L29.0042 10.9865C28.4184 10.0454 28.1135 8.98456 27.0023 8.98456L27.0019 8.98449Z" fill="#BD93F9"/>
<path d="M11.016 13.9841C9.89943 13.9841 9.00043 14.8831 9.00043 15.9997V19.9997H31.0006L34.0006 15.9997H55.0007C55.0007 14.8831 54.1017 13.9841 52.9851 13.9841H11.0158H11.016Z" fill="#F8F8F2"/>
<path opacity="0.25" d="M25.0002 9.97814H14.9993C14.4472 9.97814 13.9996 10.4257 13.9996 10.9778C13.9996 11.53 14.4472 11.9775 14.9993 11.9775H25.0002C25.5523 11.9775 25.9999 11.53 25.9999 10.9778C25.9999 10.4257 25.5523 9.97814 25.0002 9.97814Z" fill="#282A36"/>
<path opacity="0.2" d="M62.0004 40.0003L46.0003 56.0004H58.0004C60.2164 56.0004 62.0004 54.2164 62.0004 52.0003V40.0003Z" fill="url(#paint0_linear_7_18)"/>
<path d="M27.041 46.665C24.3517 45.9827 22.0961 45.3904 22.0287 45.3487C21.8595 45.2441 21.8715 42.9386 22.0412 42.9386C22.1155 42.9386 24.251 43.4675 26.7866 44.1139C29.3223 44.7603 31.6568 45.2892 31.9746 45.2892C32.2923 45.2892 34.6448 44.7616 37.2024 44.1166C39.76 43.4717 41.9068 42.9776 41.9731 43.0186C42.1361 43.1193 42.1276 45.2519 41.964 45.3531C41.871 45.4106 31.931 47.9436 31.931 47.9098C31.931 47.9074 29.7307 47.3472 27.0413 46.6649L27.041 46.665ZM26.8801 40.7473C24.3304 40.0893 22.1682 39.5006 22.0752 39.439C21.9654 39.3664 21.9061 38.9419 21.9061 38.2291C21.9061 37.2523 21.9344 37.1311 22.1623 37.1311C22.3032 37.1311 24.5122 37.66 27.0711 38.3064C29.63 38.9528 31.8768 39.4817 32.064 39.4817C32.2512 39.4817 34.4916 38.9528 37.0428 38.3064C39.594 37.66 41.7765 37.1311 41.8929 37.1311C42.0697 37.1311 42.098 37.3291 42.0646 38.3363L42.0244 39.5415L37.1849 40.7542C34.5232 41.4212 32.1587 41.9617 31.9306 41.9553C31.7024 41.9489 29.4297 41.4054 26.8801 40.7474L26.8801 40.7473ZM26.9062 34.9181C24.295 34.2514 22.099 33.6463 22.0262 33.5735C21.9534 33.5007 21.9121 32.9213 21.9344 32.2858L21.9751 31.1305L32.0071 28.6294L36.3245 29.7096C38.6991 30.3037 40.9686 30.8805 41.3679 30.9915L42.0939 31.1932V32.3598C42.0939 33.3303 42.0531 33.5477 41.8519 33.6534C41.5372 33.8186 32.1147 36.1684 31.8536 36.1468C31.744 36.1377 29.518 35.5849 26.9067 34.9181L26.9062 34.9181Z" fill="#F8F8F2"/>
<defs>
<linearGradient id="paint0_linear_7_18" x1="50.9984" y1="44.9989" x2="57.9988" y2="51.9993" gradientUnits="userSpaceOnUse">
<stop stop-color="#282A36"/>
<stop offset="1" stop-color="#282A36"/>
</linearGradient>
</defs>
</svg>
