<svg width="64" height="64" viewBox="0 0 64 64" fill="none" xmlns="http://www.w3.org/2000/svg">
<path d="M27.0022 8.98446L13.0021 8.98837C11.8924 8.98837 11.5094 10.0012 11.0001 10.9864V11.0001H10.0001C7.78407 11.0001 6.00006 12.7841 6.00006 15.0001V43.0003C6.00006 45.2163 7.78407 47.0003 10.0001 47.0003H54.0004C56.2164 47.0003 58.0004 45.2163 58.0004 43.0003V15.0001C58.0004 12.7841 56.2164 11.0001 54.0004 11.0001H37.1413C37.094 10.9969 37.0488 10.9862 37.0007 10.9864H29.0045C28.4187 10.0453 28.1137 8.98438 27.0025 8.98438L27.0022 8.98446Z" fill="#7E57C2"/>
<path d="M27.0022 8.98446L13.0021 8.98837C11.8924 8.98837 11.5094 10.0012 11.0001 10.9864V11.0001H10.0001C7.78407 11.0001 6.00006 12.7841 6.00006 15.0001V43.0003C6.00006 45.2163 7.78407 47.0003 10.0001 47.0003H54.0004C56.2164 47.0003 58.0004 45.2163 58.0004 43.0003V15.0001C58.0004 12.7841 56.2164 11.0001 54.0004 11.0001L29.0042 10.9864C28.4184 10.0453 28.1135 8.98438 27.0022 8.98438V8.98446Z" fill="#BD93F9"/>
<path d="M52.9852 13.9845H11.0147C9.90158 13.9845 8.99921 14.8869 8.99921 16V30.9691C8.99921 32.0822 9.90158 32.9846 11.0147 32.9846H52.9852C54.0984 32.9846 55.0007 32.0822 55.0007 30.9691V16C55.0007 14.8869 54.0984 13.9845 52.9852 13.9845Z" fill="#F8F8F2"/>
<path opacity="0.25" d="M24.9983 9.97815H15.0012C14.4481 9.97815 13.9996 10.4257 13.9996 10.9779C13.9996 11.53 14.4481 11.9776 15.0012 11.9776H24.9983C25.5514 11.9776 25.9999 11.53 25.9999 10.9779C25.9999 10.4257 25.5514 9.97815 24.9983 9.97815Z" fill="#282A36"/>
<path d="M34.0002 16.0001L31.0002 20.0002H6.00003C3.78401 20.0002 2 21.7842 2 24.0002V52.0004C2 54.2164 3.78401 56.0004 6.00003 56.0004H58.0004C60.2164 56.0004 62.0004 54.2164 62.0004 52.0004V20.0002C62.0004 17.7841 60.2164 16.0001 58.0004 16.0001H34.0002Z" fill="#44475A"/>
<path opacity="0.2" d="M62.0004 40.0003L46.0003 56.0004H58.0004C60.2164 56.0004 62.0004 54.2164 62.0004 52.0004V40.0003Z" fill="url(#paint0_linear_6_159)"/>
<path d="M26.0037 28.9895C25.7407 28.9885 25.48 29.0396 25.2368 29.1396C24.9935 29.2397 24.7725 29.3869 24.5863 29.5727C24.4002 29.7585 24.2526 29.9793 24.152 30.2223C24.0515 30.4654 24 30.7259 24.0005 30.989V42.9892C24.0005 44.0966 24.8925 44.9886 26.0037 44.9886H38.0001C39.1076 44.9886 40.0033 44.0966 40.0033 42.9854V30.989C40.0043 30.7256 39.9532 30.4647 39.8529 30.2212C39.7526 29.9777 39.605 29.7565 39.4188 29.5703C39.2326 29.384 39.0114 29.2365 38.7679 29.1362C38.5244 29.0359 38.2635 28.9848 38.0001 28.9858H26.0037V28.9895ZM26.0037 29.9874C26.2687 29.9884 26.5225 30.0943 26.7095 30.2821C26.8965 30.4698 27.0015 30.724 27.0015 30.989C27.0005 31.2539 26.8945 31.5077 26.7068 31.6947C26.5191 31.8818 26.2649 31.9868 25.9999 31.9868C25.7356 31.9858 25.4824 31.8803 25.2954 31.6934C25.1085 31.5065 25.0031 31.2533 25.0021 30.989C25.0021 30.724 25.1071 30.4698 25.2941 30.2821C25.4811 30.0943 25.7349 29.9884 25.9999 29.9874H26.0037ZM38.0001 29.9874C38.2658 29.9874 38.5205 30.0929 38.7084 30.2807C38.8962 30.4686 39.0017 30.7233 39.0017 30.989C39.0007 31.2539 38.8948 31.5077 38.707 31.6947C38.5193 31.8818 38.2651 31.9868 38.0001 31.9868C37.7358 31.9858 37.4826 31.8803 37.2957 31.6934C37.1088 31.5065 37.0033 31.2533 37.0023 30.989C37.0023 30.724 37.1073 30.4698 37.2943 30.2821C37.4814 30.0943 37.7352 29.9884 38.0001 29.9874V29.9874ZM29.9987 32.9884H34.0013C35.1087 32.9884 36.0007 33.8803 36.0007 34.9878V38.9866C36.0007 40.0978 35.1087 40.9898 33.9975 40.9898H30.0025C29.7395 40.9903 29.4789 40.9388 29.2359 40.8382C28.9928 40.7377 28.7721 40.5901 28.5863 40.4039C28.4004 40.2178 28.2533 39.9967 28.1532 39.7535C28.0531 39.5102 28.0021 39.2496 28.0031 38.9866V34.9878C28.0031 33.8803 28.8951 32.9846 30.0063 32.9846L29.9987 32.9884ZM29.9987 33.9862C29.8674 33.9862 29.7373 34.0121 29.616 34.0625C29.4947 34.1129 29.3845 34.1867 29.2918 34.2798C29.1991 34.3728 29.1257 34.4833 29.0758 34.6048C29.0259 34.7263 29.0004 34.8564 29.0009 34.9878V38.9866C29.0009 39.5422 29.4469 39.9882 29.9987 39.9882H34.0013C34.1327 39.9882 34.2627 39.9622 34.384 39.9119C34.5053 39.8615 34.6155 39.7877 34.7082 39.6946C34.8009 39.6015 34.8743 39.4911 34.9243 39.3696C34.9742 39.2481 34.9996 39.1179 34.9991 38.9866V34.9878C34.9996 34.8564 34.9742 34.7263 34.9243 34.6048C34.8743 34.4833 34.8009 34.3728 34.7082 34.2798C34.6155 34.1867 34.5053 34.1129 34.384 34.0625C34.2627 34.0121 34.1327 33.9862 34.0013 33.9862H29.9987ZM26.0037 41.9914C26.2693 41.9914 26.5241 42.0969 26.7119 42.2847C26.8998 42.4726 27.0053 42.7273 27.0053 42.993C27.0043 43.258 26.8983 43.5117 26.7106 43.6988C26.5229 43.8858 26.2687 43.9908 26.0037 43.9908C25.7394 43.9898 25.4861 43.8843 25.2992 43.6974C25.1123 43.5105 25.0069 43.2573 25.0059 42.993C25.0059 42.728 25.1109 42.4738 25.2979 42.2861C25.4849 42.0983 25.7387 41.9924 26.0037 41.9914V41.9914ZM38.0039 41.9914C38.2696 41.9914 38.5243 42.0969 38.7122 42.2847C38.9 42.4726 39.0055 42.7273 39.0055 42.993C39.0045 43.258 38.8985 43.5117 38.7108 43.6988C38.5231 43.8858 38.2689 43.9908 38.0039 43.9908C37.7396 43.9898 37.4864 43.8843 37.2995 43.6974C37.1125 43.5105 37.0071 43.2573 37.0061 42.993C37.0061 42.728 37.1111 42.4738 37.2981 42.2861C37.4851 42.0983 37.7389 41.9924 38.0039 41.9914V41.9914Z" fill="#F8F8F2"/>
<defs>
<linearGradient id="paint0_linear_6_159" x1="50.9984" y1="44.9989" x2="57.9989" y2="51.9994" gradientUnits="userSpaceOnUse">
<stop stop-color="#282A36"/>
<stop offset="1" stop-opacity="0"/>
</linearGradient>
</defs>
</svg>
