<svg width="64" height="64" viewBox="0 0 64 64" fill="none" xmlns="http://www.w3.org/2000/svg">
<path d="M27.0022 8.98446L13.0021 8.98837C11.8924 8.98837 11.5095 10.0012 11.0001 10.9864V11.0001H10.0001C7.78404 11.0001 6.00003 12.7841 6.00003 15.0001V20.0001C3.78401 20.0001 2 21.7841 2 24.0001V52.0003C2 54.2163 3.78401 56.0003 6.00003 56.0003H58.0004C60.2164 56.0003 62.0004 54.2163 62.0004 52.0003V20.0001C62.0004 17.7841 60.2164 16.0001 58.0004 16.0001V15.0001C58.0004 12.7841 56.2164 11.0001 54.0003 11.0001H37.1412C37.0939 10.9969 37.0487 10.9862 37.0006 10.9864H29.0045C28.4186 10.0452 28.1135 8.98446 27.0022 8.98446Z" fill="#44475A"/>
<path d="M27.0019 8.98449L13.0018 8.98838C11.8921 8.98838 11.5092 10.0012 10.9999 10.9864V11.0001H9.99989C7.78387 11.0001 5.99994 12.7841 5.99994 15.0001V20.0001H31.0001L34.0001 16.0001H58.0002V15.0001C58.0002 12.7841 56.2162 11.0002 54.0002 11.0002L29.0042 10.9865C28.4184 10.0454 28.1135 8.98456 27.0023 8.98456L27.0019 8.98449Z" fill="#BD93F9"/>
<path d="M11.016 13.9841C9.89943 13.9841 9.00043 14.8831 9.00043 15.9997V19.9997H31.0006L34.0006 15.9997H55.0007C55.0007 14.8831 54.1017 13.9841 52.9851 13.9841H11.0158H11.016Z" fill="#F8F8F2"/>
<path opacity="0.25" d="M25.0002 9.97814H14.9993C14.4472 9.97814 13.9996 10.4257 13.9996 10.9778C13.9996 11.53 14.4472 11.9775 14.9993 11.9775H25.0002C25.5523 11.9775 25.9999 11.53 25.9999 10.9778C25.9999 10.4257 25.5523 9.97814 25.0002 9.97814Z" fill="#282A36"/>
<path opacity="0.2" d="M62.0004 40.0003L46.0003 56.0004H58.0004C60.2164 56.0004 62.0004 54.2164 62.0004 52.0003V40.0003Z" fill="url(#paint0_linear_7_2)"/>
<path d="M37.297 28.99C36.9958 28.9912 36.717 29.09 36.4545 29.2775C35.792 29.755 34.4196 30.2525 32.0071 30.2525C29.5822 30.2525 28.2072 29.755 27.5447 29.2775C27.2822 29.09 27.0322 29.0025 26.7322 29.0025C26.4323 29.0025 26.081 29.09 25.7185 29.2775C24.431 29.9675 23.2311 32.1949 22.5811 35.1011C22.0312 37.581 21.8312 40.9497 22.1562 42.3059C22.4436 43.4834 22.9436 43.9996 23.8312 43.9996C25.1312 43.9746 26.7686 42.5171 27.8186 40.5497C28.5685 39.4597 30.3185 38.971 32.006 39.0222C33.681 38.9597 35.4322 39.4597 36.1821 40.5497C37.2321 42.5171 38.8683 43.9746 40.1807 43.9996C41.0556 43.9996 41.5557 43.4833 41.8432 42.3059C42.1681 40.9497 41.9682 37.581 41.4182 35.1011C40.7682 32.1949 39.5683 29.9675 38.2808 29.2788C37.9245 29.0838 37.5995 28.9888 37.297 28.9913L37.297 28.99ZM27 32.7499H28.25V33.9999H29.5V35.2499H28.25V36.4999H27V35.2499H25.75V33.9999H27V32.7499ZM36.3747 32.7499C36.5405 32.7499 36.6994 32.8157 36.8166 32.933C36.9338 33.0502 36.9997 33.2091 36.9997 33.3749C36.9997 33.5406 36.9338 33.6996 36.8166 33.8168C36.6994 33.934 36.5405 33.9999 36.3747 33.9999C36.209 33.9999 36.05 33.934 35.9328 33.8168C35.8156 33.6996 35.7497 33.5406 35.7497 33.3749C35.7497 33.2091 35.8156 33.0502 35.9328 32.933C36.05 32.8157 36.209 32.7499 36.3747 32.7499ZM35.1247 33.9999C35.2905 33.9999 35.4494 34.0657 35.5666 34.183C35.6838 34.3002 35.7497 34.4591 35.7497 34.6249C35.7497 34.7906 35.6838 34.9496 35.5666 35.0668C35.4494 35.184 35.2905 35.2499 35.1247 35.2499C34.959 35.2499 34.8 35.184 34.6828 35.0668C34.5656 34.9496 34.4997 34.7906 34.4997 34.6249C34.4997 34.4591 34.5656 34.3002 34.6828 34.183C34.8 34.0657 34.959 33.9999 35.1247 33.9999ZM37.6246 33.9999C37.7904 33.9999 37.9493 34.0657 38.0665 34.183C38.1837 34.3002 38.2496 34.4591 38.2496 34.6249C38.2496 34.7906 38.1837 34.9496 38.0665 35.0668C37.9493 35.184 37.7904 35.2499 37.6246 35.2499C37.4589 35.2499 37.2999 35.184 37.1827 35.0668C37.0655 34.9496 36.9996 34.7906 36.9996 34.6249C36.9996 34.4591 37.0655 34.3002 37.1827 34.183C37.2999 34.0657 37.4589 33.9999 37.6246 33.9999ZM36.3746 35.2499C36.5404 35.2499 36.6993 35.3157 36.8165 35.433C36.9337 35.5502 36.9996 35.7091 36.9996 35.8749C36.9996 35.957 36.9834 36.0382 36.952 36.114C36.9206 36.1899 36.8746 36.2588 36.8165 36.3168C36.7585 36.3748 36.6896 36.4209 36.6138 36.4523C36.538 36.4837 36.4567 36.4999 36.3746 36.4999C36.2925 36.4999 36.2113 36.4837 36.1354 36.4523C36.0596 36.4209 35.9907 36.3748 35.9327 36.3168C35.8746 36.2588 35.8286 36.1899 35.7972 36.114C35.7658 36.0382 35.7496 35.957 35.7496 35.8749C35.7496 35.7091 35.8155 35.5502 35.9327 35.433C36.0499 35.3157 36.2089 35.2499 36.3746 35.2499Z" fill="#F8F8F2"/>
<defs>
<linearGradient id="paint0_linear_7_2" x1="50.9984" y1="44.9989" x2="57.9988" y2="51.9993" gradientUnits="userSpaceOnUse">
<stop stop-color="#282A36"/>
<stop offset="1" stop-color="#282A36"/>
</linearGradient>
</defs>
</svg>
