<svg width="64" height="64" viewBox="0 0 64 64" fill="none" xmlns="http://www.w3.org/2000/svg">
<path d="M27.0022 8.98446L13.0021 8.98837C11.8924 8.98837 11.5094 10.0012 11.0001 10.9864V11.0001H10.0001C7.78406 11.0001 6.00005 12.7841 6.00005 15.0001V43.0003C6.00005 45.2163 7.78406 47.0003 10.0001 47.0003H54.0004C56.2164 47.0003 58.0004 45.2163 58.0004 43.0003V15.0001C58.0004 12.7841 56.2164 11.0001 54.0004 11.0001H37.1413C37.094 10.9969 37.0488 10.9862 37.0006 10.9864H29.0045C28.4186 10.0453 28.1137 8.98438 27.0025 8.98438L27.0022 8.98446Z" fill="#7E57C2"/>
<path d="M27.0022 8.98446L13.0021 8.98837C11.8924 8.98837 11.5094 10.0012 11.0001 10.9864V11.0001H10.0001C7.78406 11.0001 6.00005 12.7841 6.00005 15.0001V43.0003C6.00005 45.2163 7.78406 47.0003 10.0001 47.0003H54.0004C56.2164 47.0003 58.0004 45.2163 58.0004 43.0003V15.0001C58.0004 12.7841 56.2164 11.0001 54.0004 11.0001L29.0042 10.9864C28.4184 10.0453 28.1135 8.98438 27.0022 8.98438V8.98446Z" fill="#BD93F9"/>
<path d="M52.9853 13.9845H11.0147C9.90161 13.9845 8.99924 14.8869 8.99924 16V30.9691C8.99924 32.0822 9.90161 32.9846 11.0147 32.9846H52.9853C54.0984 32.9846 55.0008 32.0822 55.0008 30.9691V16C55.0008 14.8869 54.0984 13.9845 52.9853 13.9845Z" fill="#F8F8F2"/>
<path opacity="0.25" d="M24.9983 9.97815H15.0012C14.4481 9.97815 13.9996 10.4257 13.9996 10.9779C13.9996 11.53 14.4481 11.9776 15.0012 11.9776H24.9983C25.5515 11.9776 25.9999 11.53 25.9999 10.9779C25.9999 10.4257 25.5515 9.97815 24.9983 9.97815Z" fill="#282A36"/>
<path d="M34.0002 15.9998L31.0001 19.9998H5.99997C3.78395 19.9998 2.00002 21.7838 2.00002 23.9997V51.9998C2.00002 54.2158 3.78403 55.9997 5.99997 55.9997H57.9997C60.2157 55.9997 61.9997 54.2157 61.9997 51.9998V19.9994C61.9997 17.7834 60.2157 15.9994 57.9997 15.9994L34.0002 15.9998Z" fill="#44475A"/>
<path opacity="0.2" d="M62.0005 40.0003L46.0003 56.0004H58.0004C60.2164 56.0004 62.0005 54.2164 62.0005 52.0004V40.0003Z" fill="url(#paint0_linear_6_105)"/>
<path d="M23.9982 28.9902C22.8902 28.9902 21.9982 29.8822 21.9982 30.9902V31V43.0001C21.9982 44.1081 22.8902 45.0001 23.9982 45.0001H40.0003C41.1083 45.0001 42.0003 44.1081 42.0003 43.0001V30.99C42.0003 29.882 41.1083 28.99 40.0003 28.99H23.9982V28.9902ZM23.9982 30H40.0003C40.5543 30 41.0003 30.446 41.0003 31V42.1861L34.1604 35.3482L26.7893 42.7173C26.7488 42.6596 26.7298 42.5895 26.7355 42.5193C26.7412 42.449 26.7713 42.383 26.8205 42.3325L28.9378 40.2075L25.883 37.147L22.9982 40.0259V31.0005C22.9982 30.4465 23.4442 30.0004 23.9982 30.0004L23.9982 30ZM38.0003 31.9863L38.0042 31.9902C37.7391 31.9901 37.4847 32.0951 37.2969 32.2822C37.1091 32.4693 37.0031 32.7232 37.0022 32.9883C37.0031 33.2527 37.1086 33.506 37.2955 33.693C37.4825 33.88 37.7358 33.9854 38.0002 33.9864C38.2653 33.9865 38.5197 33.8815 38.7075 33.6944C38.8953 33.5073 39.0013 33.2534 39.0022 32.9883C39.0023 32.8567 38.9764 32.7264 38.9261 32.6048C38.8757 32.4832 38.8019 32.3727 38.7089 32.2797C38.6158 32.1866 38.5053 32.1128 38.3837 32.0625C38.2621 32.0121 38.1318 31.9862 38.0002 31.9863L38.0003 31.9863Z" fill="#F8F8F2"/>
<defs>
<linearGradient id="paint0_linear_6_105" x1="50.9985" y1="44.9989" x2="57.9989" y2="51.9994" gradientUnits="userSpaceOnUse">
<stop stop-color="#282A36"/>
<stop offset="1" stop-opacity="0"/>
</linearGradient>
</defs>
</svg>
