<svg width="64" height="64" viewBox="0 0 64 64" fill="none" xmlns="http://www.w3.org/2000/svg">
<path d="M27.0022 8.98446L13.0021 8.98837C11.8924 8.98837 11.5094 10.0012 11.0001 10.9864V11.0001H10.0001C7.78407 11.0001 6.00006 12.7841 6.00006 15.0001V43.0003C6.00006 45.2163 7.78407 47.0003 10.0001 47.0003H54.0004C56.2164 47.0003 58.0004 45.2163 58.0004 43.0003V15.0001C58.0004 12.7841 56.2164 11.0001 54.0004 11.0001H37.1413C37.094 10.9969 37.0488 10.9862 37.0007 10.9864H29.0045C28.4187 10.0453 28.1137 8.98438 27.0025 8.98438L27.0022 8.98446Z" fill="#7E57C2"/>
<path d="M27.0022 8.98446L13.0021 8.98837C11.8924 8.98837 11.5094 10.0012 11.0001 10.9864V11.0001H10.0001C7.78407 11.0001 6.00006 12.7841 6.00006 15.0001V43.0003C6.00006 45.2163 7.78407 47.0003 10.0001 47.0003H54.0004C56.2164 47.0003 58.0004 45.2163 58.0004 43.0003V15.0001C58.0004 12.7841 56.2164 11.0001 54.0004 11.0001L29.0042 10.9864C28.4184 10.0453 28.1135 8.98438 27.0022 8.98438V8.98446Z" fill="#BD93F9"/>
<path d="M52.9852 13.9845H11.0147C9.90158 13.9845 8.99921 14.8869 8.99921 16V30.9691C8.99921 32.0822 9.90158 32.9846 11.0147 32.9846H52.9852C54.0984 32.9846 55.0007 32.0822 55.0007 30.9691V16C55.0007 14.8869 54.0984 13.9845 52.9852 13.9845Z" fill="#F8F8F2"/>
<path opacity="0.25" d="M24.9983 9.97815H15.0012C14.4481 9.97815 13.9996 10.4257 13.9996 10.9779C13.9996 11.53 14.4481 11.9776 15.0012 11.9776H24.9983C25.5514 11.9776 25.9999 11.53 25.9999 10.9779C25.9999 10.4257 25.5514 9.97815 24.9983 9.97815Z" fill="#282A36"/>
<path d="M34.0002 16.0001L31.0002 20.0002H6.00003C3.78401 20.0002 2 21.7842 2 24.0002V52.0004C2 54.2164 3.78401 56.0004 6.00003 56.0004H58.0004C60.2164 56.0004 62.0004 54.2164 62.0004 52.0004V20.0002C62.0004 17.7841 60.2164 16.0001 58.0004 16.0001H34.0002Z" fill="#44475A"/>
<path opacity="0.2" d="M62.0004 40.0003L46.0003 56.0004H58.0004C60.2164 56.0004 62.0004 54.2164 62.0004 52.0004V40.0003Z" fill="url(#paint0_linear_6_189)"/>
<path d="M32.0019 27.9879C30.8198 27.9874 29.6492 28.2199 28.5569 28.6719C27.4646 29.1239 26.4721 29.7867 25.6361 30.6224C24.8 31.4581 24.1368 32.4504 23.6843 33.5424C23.2318 34.6345 22.9989 35.8051 22.9989 36.9872C22.9989 38.1693 23.2318 39.3398 23.6843 40.4319C24.1368 41.524 24.8 42.5162 25.6361 43.3519C26.4721 44.1876 27.4646 44.8504 28.5569 45.3025C29.6492 45.7545 30.8198 45.9869 32.0019 45.9864C34.3873 45.9854 36.6748 45.0374 38.3616 43.3506C40.0483 41.6638 40.9964 39.3764 40.9974 36.991C40.9979 35.8092 40.7656 34.6388 40.3138 33.5468C39.862 32.4548 39.1995 31.4624 38.3642 30.6264C37.5289 29.7904 36.5371 29.1271 35.4455 28.6744C34.3538 28.2217 33.1837 27.9884 32.0019 27.9879V27.9879ZM32.8032 28.948C33.6801 29.0273 34.5267 29.2277 35.2977 29.564C35.2312 29.6414 35.1811 29.7314 35.1503 29.8286C34.9122 30.5392 34.5607 30.199 34.9765 31.091C35.3922 31.9792 35.7362 32.2098 35.8571 31.794C35.9743 31.3782 35.5547 30.7924 36.031 31.0305C36.5072 31.2686 36.8549 30.9663 36.4996 31.4992C36.1444 32.0359 36.1519 32.3231 35.7362 32.206C35.3204 32.085 35.3317 32.909 34.916 33.0262C34.5002 33.1433 34.3566 32.8485 34.3566 33.1433C34.3566 33.4419 34.5947 33.166 34.5342 33.6422C34.5153 33.7896 34.5191 33.8161 34.504 33.8766C34.1147 33.7632 33.9408 33.7065 33.6536 33.8199C33.3588 33.937 33.0111 34.6967 33.0111 34.6967C33.3777 35.0671 33.5515 35.3355 33.6838 35.4602C33.6007 35.5018 33.5024 35.5207 33.4193 35.5774C32.8259 35.9931 32.3648 36.0687 32.1871 36.6659C32.0095 37.2593 32.0699 36.715 32.0699 37.4256C32.0699 38.14 31.8885 37.6562 32.2438 38.31C32.5991 38.9601 33.4722 39.2738 33.8879 39.6329C34.3037 39.9844 34.7308 38.8543 35.5623 39.9239C36.3938 40.9898 36.4467 40.5627 36.1481 41.1561C35.8533 41.7495 35.5623 41.946 35.4451 42.1803C35.3242 42.4185 35.6719 43.2386 36.0877 43.4125H36.1179L36.0612 43.5637C35.5245 43.8056 34.8631 44.142 34.7383 44.1798C34.4473 44.2629 33.4117 44.4368 32.6596 44.6484C32.5613 44.6749 32.4857 44.6749 32.4517 44.6787C32.5424 44.5766 33.287 44.1873 33.6536 43.9719C34.1563 43.6809 33.6234 43.7073 33.6234 43.7073C33.6234 43.7073 32.8259 43.6204 31.1893 43.6204C30.3729 43.6204 30.0176 43.6582 29.84 43.7073C29.7749 43.7242 29.7142 43.7552 29.6623 43.798C29.617 43.8358 29.5867 43.8736 29.5149 43.9152C29.2201 44.0815 29.6888 44.2554 29.3108 44.3839C29.0274 44.4783 28.9933 44.3839 28.7515 44.2062C28.9253 44.0361 29.1634 43.8283 29.4582 43.473C29.9874 42.8304 30.1612 42.9438 30.3389 42.358C30.5165 41.7722 28.8422 41.946 28.8422 41.5945C28.8422 41.243 28.5511 41.0087 28.0182 40.7743C27.4853 40.54 27.8481 40.4228 27.2547 40.2452C26.6613 40.0713 25.9961 41.1258 25.8185 40.7743C25.6408 40.4228 26.3741 40.4228 26.3741 40.0109C26.3741 39.6102 25.5312 40.3132 25.3763 39.8068C25.3763 39.7879 25.3498 39.7879 25.3498 39.7765C25.3347 39.7009 25.3423 39.6556 25.3498 39.5989C25.3876 39.1756 25.8752 39.013 26.0831 38.6011C26.3174 38.1324 26.1964 38.9526 26.495 39.3645C26.7898 39.7765 26.6727 38.8354 26.495 38.3063C26.3136 37.7771 26.6084 37.7771 27.0242 37.0741C27.4362 36.3711 27.4324 35.9591 27.4324 35.4338C27.4324 34.9046 27.7196 34.8441 28.313 34.315C28.5852 34.0731 28.7968 33.8614 28.9556 33.6725C28.9971 33.6536 29.0349 33.6536 29.0765 33.6422C29.7039 33.389 29.9685 33.011 30.5127 31.8809C31.057 30.7471 30.3011 31.8053 30.1348 31.7638C29.9647 31.7222 29.719 31.4236 29.1332 31.0872C29.034 31.03 28.9251 30.9916 28.8119 30.9738L29.8967 29.1785C30.2444 29.0878 30.6148 29.0236 30.9814 28.9744C31.1175 29.7341 31.0419 30.4447 31.0419 30.4447C31.0419 30.4447 30.834 30.6866 30.834 30.8529C30.834 31.023 31.9603 29.4695 32.1266 29.3864C32.2967 29.3032 32.72 29.8286 32.8032 29.0349V28.948ZM34.2886 32.1153C34.2524 32.1236 34.217 32.135 34.1827 32.1493C34.1827 32.3534 34.0996 32.5046 34.0656 32.5877C34.0429 32.5499 33.9786 32.497 33.9786 32.497C33.8879 32.6633 33.6952 32.8069 33.8879 32.7616C34.0807 32.7238 34.2281 32.8372 34.0958 32.6747L34.0656 32.6444C34.0883 32.6633 34.1412 32.6747 34.2432 32.6747H34.5078C34.3604 32.7805 34.2054 32.8258 34.4171 32.8825C34.7005 32.9581 34.8291 32.9695 34.8291 32.9128C34.8079 32.8217 34.7775 32.7331 34.7383 32.6482C34.795 32.6255 34.8442 32.5953 34.7988 32.497C34.7081 32.3231 34.572 32.1455 34.3868 32.1191C34.3548 32.1104 34.3215 32.1078 34.2886 32.1115V32.1153ZM38.877 32.6142C39.0244 32.841 39.1643 33.0753 39.289 33.321C39.2058 33.7934 38.998 34.1147 39.3457 34.1147C39.4439 34.1147 39.5347 34.092 39.6102 34.0807L39.6405 34.1676C39.0471 34.1676 38.7636 34.3452 38.4688 34.2885C38.1702 34.2281 37.3463 34.1752 37.8792 33.6422C38.1929 33.3285 38.5822 32.8334 38.877 32.6142V32.6142ZM35.1806 33.6989C35.2335 33.7216 35.2826 33.7745 35.328 33.8766C35.5056 34.2923 35.8004 34.64 35.5623 34.6967C35.4413 34.7248 35.3235 34.7653 35.2108 34.8177C35.2108 34.8177 36.031 35.3506 36.0914 34.7572C36.1481 34.1638 35.8571 33.8199 35.8571 33.8199C35.8571 33.8199 36.2653 34.2281 36.3863 34.4624C36.4996 34.7005 36.4996 34.4624 36.7944 34.7572C37.0893 35.0558 37.0212 33.5818 37.437 33.9937C37.8527 34.4095 38.1173 34.4019 37.9964 34.6967C37.8792 34.9953 38.7598 34.3415 38.7598 34.9349C38.7598 35.5056 39.1265 35.7361 38.4083 36.0196C38.1362 36.0007 37.9208 35.9553 37.8792 35.8722C37.762 35.6341 37.0855 35.8155 37.0855 35.8155C35.3128 35.3733 34.5418 35.2297 34.0353 35.3166C34.0429 35.2977 34.0542 35.2977 34.0656 35.2864C34.3226 34.8177 34.8102 34.1714 34.6514 33.937C34.8782 33.8048 35.0558 33.6649 35.1806 33.7027V33.6989ZM40.1696 36.6659V37.0174C40.1696 37.3538 40.1507 37.6902 40.1129 38.0152C39.5762 37.539 38.8203 37.5466 38.8203 37.5466C38.8203 37.5466 39.2814 37.0174 39.9353 36.7831C40.0181 36.7542 40.0968 36.7148 40.1696 36.6659V36.6659Z" fill="#F8F8F2"/>
<defs>
<linearGradient id="paint0_linear_6_189" x1="50.9984" y1="44.9989" x2="57.9989" y2="51.9994" gradientUnits="userSpaceOnUse">
<stop stop-color="#282A36"/>
<stop offset="1" stop-opacity="0"/>
</linearGradient>
</defs>
</svg>
