<svg width="64" height="64" viewBox="0 0 64 64" fill="none" xmlns="http://www.w3.org/2000/svg">
<path d="M6.00003 9.00006C3.78361 9.00006 2 10.7837 2 13.0001V51.0004C2 53.2034 3.76321 54.9751 5.96093 54.9965H58.0393C60.2371 54.9751 62.0002 53.2034 62.0002 51.0004V13.0001C62.0002 10.7837 60.2166 9.00006 58.0002 9.00006H5.99983H6.00003Z" fill="url(#paint0_linear_6_175)"/>
<path opacity="0.35" d="M15.0001 51.002C13.8921 51.002 13.0001 51.894 13.0001 53.002V55.002H51.0002V53.002C51.0002 51.8939 50.1082 51.002 49.0002 51.002H15.0001Z" fill="#F8F8F2"/>
<path d="M21.5003 48.0009H17.5002C17.2241 48.0009 17.0002 48.2248 17.0002 48.5009V52.501C17.0002 52.7771 17.2241 53.001 17.5002 53.001H21.5003C21.7764 53.001 22.0003 52.7771 22.0003 52.501V48.5009C22.0003 48.2248 21.7764 48.0009 21.5003 48.0009Z" fill="#F8F8F2"/>
<path d="M29.8339 48.0009H25.8339C25.5577 48.0009 25.3339 48.2248 25.3339 48.5009V52.501C25.3339 52.7771 25.5577 53.001 25.8339 53.001H29.8339C30.11 53.001 30.3339 52.7771 30.3339 52.501V48.5009C30.3339 48.2248 30.11 48.0009 29.8339 48.0009Z" fill="#F8F8F2"/>
<path d="M38.1672 48.0009H34.1672C33.891 48.0009 33.6672 48.2248 33.6672 48.5009V52.501C33.6672 52.7771 33.891 53.001 34.1672 53.001H38.1672C38.4434 53.001 38.6672 52.7771 38.6672 52.501V48.5009C38.6672 48.2248 38.4434 48.0009 38.1672 48.0009Z" fill="#F8F8F2"/>
<path d="M46.4989 48.0009H42.4989C42.2228 48.0009 41.9989 48.2248 41.9989 48.5009V52.501C41.9989 52.7771 42.2228 53.001 42.4989 53.001H46.4989C46.7751 53.001 46.9989 52.7771 46.9989 52.501V48.5009C46.9989 48.2248 46.7751 48.0009 46.4989 48.0009Z" fill="#F8F8F2"/>
<path opacity="0.35" d="M8.99545 9.99704H6.99982C6.44666 9.99704 5.99823 10.4446 5.99823 10.9967C5.99823 11.5489 6.44666 11.9964 6.99982 11.9964H8.99545C9.54862 11.9964 9.99705 11.5489 9.99705 10.9967C9.99705 10.4446 9.54862 9.99704 8.99545 9.99704Z" fill="#282A36"/>
<path opacity="0.35" d="M36.0007 9.99704H28.0031C27.4499 9.99704 27.0015 10.4446 27.0015 10.9967C27.0015 11.5489 27.4499 11.9964 28.0031 11.9964H36.0007C36.5539 11.9964 37.0023 11.5489 37.0023 10.9967C37.0023 10.4446 36.5539 9.99704 36.0007 9.99704Z" fill="#282A36"/>
<path opacity="0.35" d="M58.9996 10.9967C58.9996 10.4446 58.552 9.99704 57.9999 9.99704C57.4478 9.99704 57.0002 10.4446 57.0002 10.9967C57.0002 11.5489 57.4478 11.9964 57.9999 11.9964C58.552 11.9964 58.9996 11.5489 58.9996 10.9967Z" fill="#282A36"/>
<path opacity="0.35" d="M55.0008 9.99704H54.0029C53.4498 9.99704 53.0013 10.4446 53.0013 10.9967C53.0013 11.5489 53.4498 11.9964 54.0029 11.9964H55.0008C55.5539 11.9964 56.0023 11.5489 56.0023 10.9967C56.0023 10.4446 55.5539 9.99704 55.0008 9.99704Z" fill="#282A36"/>
<path opacity="0.35" d="M51.9998 10.9967C51.9998 10.4446 51.5522 9.99704 51.0001 9.99704C50.4479 9.99704 50.0004 10.4446 50.0004 10.9967C50.0004 11.5489 50.4479 11.9964 51.0001 11.9964C51.5522 11.9964 51.9998 11.5489 51.9998 10.9967Z" fill="#282A36"/>
<path opacity="0.25" d="M6.00003 9.00006C3.78431 9.00006 2.0011 10.7826 2 12.9981H32.0002H62.0004C61.9994 10.7826 60.2161 9.00006 58.0004 9.00006H32.0002H6.00003Z" fill="#282A36"/>
<defs>
<linearGradient id="paint0_linear_6_175" x1="51.2854" y1="63.9417" x2="10.502" y2="-2.63037" gradientUnits="userSpaceOnUse">
<stop stop-color="#FF79C6"/>
<stop offset="1" stop-color="#BD93F9"/>
</linearGradient>
</defs>
</svg>
