<svg width="64" height="64" viewBox="0 0 64 64" fill="none" xmlns="http://www.w3.org/2000/svg">
<path d="M27.0022 8.98446L13.0021 8.98837C11.8924 8.98837 11.5095 10.0012 11.0001 10.9864V11.0001H10.0001C7.78404 11.0001 6.00003 12.7841 6.00003 15.0001V20.0001C3.78401 20.0001 2 21.7841 2 24.0001V52.0003C2 54.2163 3.78401 56.0003 6.00003 56.0003H58.0004C60.2164 56.0003 62.0004 54.2163 62.0004 52.0003V20.0001C62.0004 17.7841 60.2164 16.0001 58.0004 16.0001V15.0001C58.0004 12.7841 56.2164 11.0001 54.0003 11.0001H37.1412C37.0939 10.9969 37.0487 10.9862 37.0006 10.9864H29.0045C28.4186 10.0452 28.1135 8.98446 27.0022 8.98446Z" fill="#44475A"/>
<path d="M27.0019 8.98449L13.0018 8.98838C11.8921 8.98838 11.5092 10.0012 10.9999 10.9864V11.0001H9.99989C7.78387 11.0001 5.99994 12.7841 5.99994 15.0001V20.0001H31.0001L34.0001 16.0001H58.0002V15.0001C58.0002 12.7841 56.2162 11.0002 54.0002 11.0002L29.0042 10.9865C28.4184 10.0454 28.1135 8.98456 27.0023 8.98456L27.0019 8.98449Z" fill="#BD93F9"/>
<path d="M11.016 13.9841C9.89943 13.9841 9.00043 14.8831 9.00043 15.9997V19.9997H31.0006L34.0006 15.9997H55.0007C55.0007 14.8831 54.1017 13.9841 52.9851 13.9841H11.0158H11.016Z" fill="#F8F8F2"/>
<path opacity="0.25" d="M25.0002 9.97814H14.9993C14.4472 9.97814 13.9996 10.4257 13.9996 10.9778C13.9996 11.53 14.4472 11.9775 14.9993 11.9775H25.0002C25.5523 11.9775 25.9999 11.53 25.9999 10.9778C25.9999 10.4257 25.5523 9.97814 25.0002 9.97814Z" fill="#282A36"/>
<path opacity="0.2" d="M62.0004 40.0003L46.0003 56.0004H58.0004C60.2164 56.0004 62.0004 54.2164 62.0004 52.0003V40.0003Z" fill="url(#paint0_linear_7_10)"/>
<path d="M42.321 37.549L32.9545 28.3154C32.4153 27.7835 31.5404 27.7835 31.0006 28.3154L29.0558 30.233L31.5229 32.6653C32.0964 32.4744 32.7539 32.6025 33.2108 33.0531C33.6705 33.5064 33.7992 34.1602 33.6007 34.7275L35.9787 37.0716C36.5541 36.876 37.2176 37.0024 37.6773 37.4562C38.3193 38.089 38.3193 39.1147 37.6773 39.748C37.0348 40.3813 35.9945 40.3813 35.3517 39.748C34.8688 39.2715 34.7493 38.5719 34.9942 37.9854L32.7763 35.799V41.5524C32.9327 41.6288 33.0804 41.7306 33.2109 41.8588C33.8529 42.4917 33.8529 43.5173 33.2109 44.1512C32.5688 44.7839 31.5278 44.7839 30.8863 44.1512C30.2442 43.5173 30.2442 42.4917 30.8863 41.8588C31.045 41.7025 31.2287 41.5843 31.4248 41.5052V35.6986C31.2287 35.6195 31.0454 35.5022 30.8863 35.3449C30.4 34.8657 30.283 34.162 30.5324 33.5732L28.1001 31.175L21.6774 37.5062C21.138 38.0385 21.138 38.901 21.6774 39.4329L31.0444 48.6665C31.5837 49.1983 32.4583 49.1983 32.9983 48.6665L42.3211 39.4756C42.8607 38.9436 42.8607 38.0807 42.3211 37.5489" fill="#F8F8F2"/>
<defs>
<linearGradient id="paint0_linear_7_10" x1="50.9984" y1="44.9989" x2="57.9988" y2="51.9993" gradientUnits="userSpaceOnUse">
<stop stop-color="#282A36"/>
<stop offset="1" stop-color="#282A36"/>
</linearGradient>
</defs>
</svg>
