<svg width="24" height="24" version="1.1" xmlns="http://www.w3.org/2000/svg">
 <defs>
  <style id="current-color-scheme" type="text/css">.ColorScheme-Text { color:#dfdfdf; } .ColorScheme-Highlight { color:#4285f4; }</style>
 </defs>
 <path class="ColorScheme-Text" d="m12 4a8 8 0 0 0-8 8 8 8 0 0 0 8 8 8 8 0 0 0 2.6543-0.47266 3.5 3.5 0 0 1-0.64453-1.8848 6 6 0 0 1-2.0098 0.35742 6 6 0 0 1-6-6 6 6 0 0 1 6-6 6 6 0 0 1 6 6 6 6 0 0 1-0.35547 2.0039 3.5 3.5 0 0 1 1.8848 0.64648 8 8 0 0 0 0.4707-2.6504 8 8 0 0 0-8-8zm0 4-3 3h2v5h2v-5h2z" fill="currentColor"/>
 <circle class="ColorScheme-Highlight" cx="17.5" cy="17.5" r="2.5" fill="currentColor"/>
</svg>
