<?xml version="1.0" encoding="UTF-8" standalone="no"?>
<svg
   width="64"
   height="64"
   version="1.1"
   viewBox="0 0 16.933 16.933"
   id="svg19"
   sodipodi:docname="manjaro-folder.svg"
   inkscape:version="1.1.2 (0a00cf5339, 2022-02-04)"
   xmlns:inkscape="http://www.inkscape.org/namespaces/inkscape"
   xmlns:sodipodi="http://sodipodi.sourceforge.net/DTD/sodipodi-0.dtd"
   xmlns="http://www.w3.org/2000/svg"
   xmlns:svg="http://www.w3.org/2000/svg">
  <sodipodi:namedview
     id="namedview21"
     pagecolor="#505050"
     bordercolor="#ffffff"
     borderopacity="1"
     inkscape:pageshadow="0"
     inkscape:pageopacity="0"
     inkscape:pagecheckerboard="1"
     showgrid="false"
     inkscape:zoom="11.5625"
     inkscape:cx="32"
     inkscape:cy="32"
     inkscape:window-width="1920"
     inkscape:window-height="1000"
     inkscape:window-x="0"
     inkscape:window-y="44"
     inkscape:window-maximized="1"
     inkscape:current-layer="svg19" />
  <defs
     id="defs7">
    <linearGradient
       id="c"
       x1="42"
       x2="44"
       y1="51"
       y2="55"
       gradientUnits="userSpaceOnUse">
      <stop
         offset="0"
         id="stop2" />
      <stop
         stop-opacity="0"
         offset="1"
         id="stop4" />
    </linearGradient>
  </defs>
  <circle
     cx="8.4665"
     cy="8.4665"
     r="7.4082"
     fill="#258875"
     style="paint-order:stroke fill markers"
     id="circle9" />
  <path
     transform="scale(.26458)"
     d="m16.17 14a24 24 0 0 0-8.1699 18 24 24 0 0 0 24 24 24 24 0 0 0 24-24 24 24 0 0 0-8.1582-18h-31.672z"
     fill="#fff"
     style="paint-order:stroke fill markers"
     id="path11" />
  <path
     d="m7.9374 4.2333c-0.35022 0-0.6429 0.27778-0.79374 0.52916l-0.31728 0.52916h-5.0432c-0.47418 0.99143-0.72183 2.076-0.725 3.175-2e-7 4.0915 3.3168 7.4082 7.4082 7.4082 4.0915 0 7.4082-3.3168 7.4082-7.4082-0.002675-1.005-0.20979-1.9988-0.60875-2.9212-0.20522-0.45891-0.46987-0.93487-0.73069-1.3121z"
     fill="#16a085"
     stroke-width=".26458"
     style="paint-order:stroke fill markers"
     id="path13" />
  <path
     transform="scale(.26458)"
     d="m32 4a28 28 0 0 0-18.467 7h36.951a28 28 0 0 0-18.484-7z"
     opacity=".15"
     style="paint-order:stroke fill markers"
     id="path15" />
  <path
     transform="scale(.26458)"
     d="m57.312 43.891-27.693 15.99a28 28 0 0 0 2.3809 0.11914 28 28 0 0 0 25.312-16.109z"
     fill="url(#c)"
     opacity=".1"
     style="paint-order:stroke fill markers"
     id="path17" />
  <g
     id="g838"
     transform="scale(0.26457812)">
    <g
       id="g849"
       transform="matrix(3.779602,0,0,3.779602,-2.2692014e-4,-1.0000004)">
      <path
         d="M 8.2609786,7.5404766 5.9030519,8.8949327 8.4783207,10.382115 11.029915,8.8949327 8.6961212,7.5404766 v 1.0401269 l 0.9191606,0.5318241 c 0.036351,0.012066 0.036351,0.072701 0,0.096987 L 8.5270433,9.83792 c -0.036351,0.012218 -0.072854,0.012218 -0.096987,0 L 7.3418177,9.2094145 c -0.036351,-0.012218 -0.036351,-0.072854 0,-0.096987 L 8.2609786,8.5804508 Z M 11.030068,8.8949327 8.4784735,10.382421 5.9032047,8.8949327 V 11.591473 L 6.7977749,11.07141 v -1.051888 c 0,-0.0362 0.048265,-0.060638 0.072548,-0.048565 l 1.088544,0.628812 c 0.036352,0.01222 0.048265,0.04826 0.048265,0.09668 v 1.257774 c 0.024285,0.0362 -0.024285,0.06033 -0.060483,0.04827 l -0.9191608,-0.531837 -0.8945702,0.519605 2.345555,1.354457 2.3337941,-1.354457 -0.8947231,-0.519605 -0.9191603,0.544043 c -0.036198,0.02429 -0.072396,-0.01222 -0.072396,-0.04856 v -1.257471 c 0,-0.0362 0.024133,-0.0724 0.048265,-0.09668 L 10.062491,9.9831754 c 0.03635,-0.024136 0.07285,0.012063 0.07285,0.048264 v 1.051888 l 0.89457,0.520063 z"
         fill="#333333"
         id="path4"
         style="fill:#ffffff;stroke-width:0.152736" />
    </g>
  </g>
</svg>
