<?xml version="1.0" encoding="UTF-8" standalone="no"?>
<svg
   width="64"
   height="64"
   version="1.1"
   viewBox="0 0 16.933 16.933"
   id="svg19"
   sodipodi:docname="blue-folder-games.svg"
   inkscape:version="1.1.1 (3bf5ae0d25, 2021-09-20)"
   xmlns:inkscape="http://www.inkscape.org/namespaces/inkscape"
   xmlns:sodipodi="http://sodipodi.sourceforge.net/DTD/sodipodi-0.dtd"
   xmlns="http://www.w3.org/2000/svg"
   xmlns:svg="http://www.w3.org/2000/svg">
  <sodipodi:namedview
     id="namedview21"
     pagecolor="#505050"
     bordercolor="#ffffff"
     borderopacity="1"
     inkscape:pageshadow="0"
     inkscape:pageopacity="0"
     inkscape:pagecheckerboard="1"
     showgrid="false"
     inkscape:zoom="11.1875"
     inkscape:cx="31.955307"
     inkscape:cy="32"
     inkscape:window-width="1920"
     inkscape:window-height="1000"
     inkscape:window-x="0"
     inkscape:window-y="44"
     inkscape:window-maximized="1"
     inkscape:current-layer="svg19" />
  <defs
     id="defs7">
    <linearGradient
       id="c"
       x1="42"
       x2="44"
       y1="51"
       y2="55"
       gradientUnits="userSpaceOnUse">
      <stop
         offset="0"
         id="stop2" />
      <stop
         stop-opacity="0"
         offset="1"
         id="stop4" />
    </linearGradient>
  </defs>
  <circle
     cx="8.4665"
     cy="8.4665"
     r="7.4082"
     fill="#4662cf"
     style="paint-order:stroke fill markers"
     id="circle9" />
  <path
     transform="scale(.26458)"
     d="m16.17 14a24 24 0 0 0-8.1699 18 24 24 0 0 0 24 24 24 24 0 0 0 24-24 24 24 0 0 0-8.1582-18h-31.672z"
     fill="#fff"
     style="paint-order:stroke fill markers"
     id="path11" />
  <path
     d="m7.9374 4.2333c-0.35022 0-0.6429 0.27778-0.79374 0.52916l-0.31728 0.52916h-5.0432c-0.47418 0.99143-0.72183 2.076-0.725 3.175-2e-7 4.0915 3.3168 7.4082 7.4082 7.4082 4.0915 0 7.4082-3.3168 7.4082-7.4082-0.002675-1.005-0.20979-1.9988-0.60875-2.9212-0.20522-0.45891-0.46987-0.93487-0.73069-1.3121z"
     fill="#5677fc"
     stroke-width=".26458"
     style="paint-order:stroke fill markers"
     id="path13" />
  <path
     transform="scale(.26458)"
     d="m32 4a28 28 0 0 0-18.467 7h36.951a28 28 0 0 0-18.484-7z"
     opacity=".15"
     style="paint-order:stroke fill markers"
     id="path15" />
  <path
     transform="scale(.26458)"
     d="m57.312 43.891-27.693 15.99a28 28 0 0 0 2.3809 0.11914 28 28 0 0 0 25.312-16.109z"
     fill="url(#c)"
     opacity=".1"
     style="paint-order:stroke fill markers"
     id="path17" />
  <path
     d="m 9.8680692,7.934698 c -0.0797,3.175e-4 -0.15345,0.026458 -0.222902,0.076064 -0.175277,0.1263334 -0.53839,0.2579557 -1.176684,0.2579557 -0.641576,0 -1.005371,-0.131625 -1.180654,-0.2579557 -0.06945,-0.049608 -0.135591,-0.072756 -0.214964,-0.072756 -0.07937,0 -0.172301,0.023151 -0.268203,0.072756 -0.340644,0.1825536 -0.658112,0.7718802 -0.830087,1.5407971 -0.145513,0.6561269 -0.198429,1.5474119 -0.112443,1.9062319 0.07606,0.31154 0.208349,0.448116 0.443168,0.448116 0.343951,-0.0066 0.777172,-0.392237 1.054979,-0.912768 0.198428,-0.28839 0.661419,-0.417689 1.107894,-0.404143 0.443168,-0.01654 0.906498,0.115751 1.104905,0.404143 0.277807,0.520531 0.7107098,0.906153 1.0579418,0.912768 0.2315,0 0.363795,-0.136586 0.439861,-0.448116 0.08599,-0.35882 0.03307,-1.250105 -0.112443,-1.9062319 C 10.786467,8.7826422 10.468995,8.1933209 10.128351,8.0111059 10.034101,7.9595129 9.9481122,7.9343809 9.8680802,7.9350419 Z m -2.724361,0.9947873 h 0.330723 v 0.3307226 h 0.330723 V 9.5909306 H 7.4744312 V 9.9216532 H 7.1437082 V 9.5909306 H 6.8129862 V 9.2602079 h 0.330722 z m 2.480341,0 a 0.16535603,0.16535603 0 0 1 0.165356,0.165356 0.16535603,0.16535603 0 0 1 -0.165356,0.1653561 0.16535603,0.16535603 0 0 1 -0.165356,-0.1653561 0.16535603,0.16535603 0 0 1 0.165356,-0.165356 z M 9.2933262,9.2602079 A 0.16535603,0.16535603 0 0 1 9.4586822,9.425564 0.16535603,0.16535603 0 0 1 9.2933262,9.59092 0.16535603,0.16535603 0 0 1 9.1279702,9.425564 0.16535603,0.16535603 0 0 1 9.2933262,9.2602079 Z m 0.661419,0 A 0.16535603,0.16535603 0 0 1 10.120101,9.425564 0.16535603,0.16535603 0 0 1 9.9547452,9.59092 0.16535603,0.16535603 0 0 1 9.7893892,9.425564 0.16535603,0.16535603 0 0 1 9.9547452,9.2602079 Z m -0.330723,0.3307227 a 0.16535603,0.16535603 0 0 1 0.165356,0.165356 0.16535603,0.16535603 0 0 1 -0.165356,0.1653561 0.16535603,0.16535603 0 0 1 -0.165356,-0.1653561 0.16535603,0.16535603 0 0 1 0.165356,-0.165356 z"
     color="#727272"
     fill="#ffffff"
     id="path28"
     style="stroke-width:0.264578" />
</svg>
