<svg width="64" height="64" version="1.1" xmlns="http://www.w3.org/2000/svg">
 <defs>
  <style id="current-color-scheme" type="text/css"/>
  <linearGradient id="a" x1="42" x2="44" y1="51" y2="55" gradientTransform="scale(1)" gradientUnits="userSpaceOnUse">
   <stop offset="0"/>
   <stop stop-opacity="0" offset="1"/>
  </linearGradient>
 </defs>
 <circle cx="32" cy="32" r="28" fill="#4379b9" stroke-width="3.7796" style="paint-order:stroke fill markers"/>
 <g>
  <path d="m16.17 14a24 24 0 0 0-8.17 18 24 24 0 0 0 24 24 24 24 0 0 0 24-24 24 24 0 0 0-8.1583-18h-31.672z" fill="#fff" style="paint-order:stroke fill markers"/>
  <path d="m30 16c-1.3237 0-2.4299 1.0499-3 2l-1.1992 2h-19.061c-1.7922 3.7472-2.7282 7.8465-2.7402 12-8e-7 15.464 12.536 28 28 28 15.464 0 28-12.536 28-28-0.0102-3.7985-0.79292-7.5547-2.3008-11.041-0.77565-1.7345-1.7759-3.5334-2.7617-4.9592z" fill="#5294e2" style="paint-order:stroke fill markers"/>
  <path d="m32 4a28 28 0 0 0-18.467 7h36.951a28 28 0 0 0-18.484-7z" opacity=".15" style="paint-order:stroke fill markers"/>
  <path d="m57.312 43.891-27.693 15.99a28 28 0 0 0 2.3809 0.11914 28 28 0 0 0 25.312-16.109z" fill="url(#a)" opacity=".1" style="paint-order:stroke fill markers"/>
 </g>
 <g transform="matrix(1.125 0 0 1.125 23 -26.626)" fill="#fff" stroke-width=".88889">
  <path d="m8 48.39-2.12 5.5-5.88 0.31 4.57 3.72-1.51 5.69 4.94-3.2 4 2.59v-2.932l-0.57-2.148 0.57-0.465v-1.455a1 1 0 0 1 1-1h2a1 1 0 0 1 0.016 0l0.984-0.8-5.88-0.31z" opacity=".3"/>
  <path class="warning" d="m13 56v5h2v-5zm0 6v2h2v-2z"/>
 </g>
</svg>
