<svg width="64" height="64" xmlns="http://www.w3.org/2000/svg"><defs><linearGradient id="a" x1="42" x2="44" y1="51" y2="55" gradientUnits="userSpaceOnUse"><stop offset="0"/><stop stop-opacity="0" offset="1"/></linearGradient></defs><circle cx="32" cy="32" r="28" fill="#4379b9" style="paint-order:stroke fill markers"/><path d="M16.17 14A24 24 0 0 0 8 32a24 24 0 0 0 24 24 24 24 0 0 0 24-24 24 24 0 0 0-8.158-18H16.17z" fill="#fff" style="paint-order:stroke fill markers"/><path d="M30 16c-1.324 0-2.43 1.05-3 2l-1.2 2H6.74A28 28 0 0 0 4 32c0 15.464 12.536 28 28 28s28-12.536 28-28a28.001 28.001 0 0 0-2.301-11.041c-.776-1.734-1.776-3.533-2.762-4.96z" fill="#5294e2" style="paint-order:stroke fill markers"/><path d="M32 4a28 28 0 0 0-18.467 7h36.951A28 28 0 0 0 32 4z" opacity=".15" style="paint-order:stroke fill markers"/><path d="m57.312 43.891-27.693 15.99a28 28 0 0 0 2.38.12 28 28 0 0 0 25.313-16.11z" fill="url(#a)" opacity=".1" style="paint-order:stroke fill markers"/><g fill="#fff" stroke-width=".889"><path d="M32 27.813 29.615 34 23 34.35l5.141 4.185-1.698 6.401 5.557-3.6 4.5 2.914V40.95l-.641-2.416.641-.523v-1.637a1.125 1.125 0 0 1 1.125-1.125h2.25a1.125 1.125 0 0 1 .018 0l1.107-.9L34.385 34z" opacity=".3"/><path class="warning" d="M37.625 36.374v5.625h2.25v-5.625zm0 6.75v2.25h2.25v-2.25z"/></g></svg>