<?xml version="1.0" encoding="UTF-8" standalone="no"?>
<svg
   width="64"
   height="64"
   version="1.1"
   viewBox="0 0 16.933 16.933"
   id="svg1382"
   sodipodi:docname="custom-folder-git.svg"
   inkscape:version="1.1.1 (3bf5ae0d25, 2021-09-20)"
   xmlns:inkscape="http://www.inkscape.org/namespaces/inkscape"
   xmlns:sodipodi="http://sodipodi.sourceforge.net/DTD/sodipodi-0.dtd"
   xmlns:xlink="http://www.w3.org/1999/xlink"
   xmlns="http://www.w3.org/2000/svg"
   xmlns:svg="http://www.w3.org/2000/svg">
  <sodipodi:namedview
     id="namedview1384"
     pagecolor="#ffffff"
     bordercolor="#666666"
     borderopacity="1.0"
     inkscape:pageshadow="2"
     inkscape:pageopacity="0.0"
     inkscape:pagecheckerboard="0"
     showgrid="false"
     inkscape:zoom="8.9714173"
     inkscape:cx="3.3996858"
     inkscape:cy="30.9873"
     inkscape:window-width="1920"
     inkscape:window-height="1000"
     inkscape:window-x="0"
     inkscape:window-y="44"
     inkscape:window-maximized="1"
     inkscape:current-layer="svg1382" />
  <defs
     id="defs1368">
    <linearGradient
       id="b">
      <stop
         offset="0"
         id="stop1361" />
      <stop
         stop-opacity="0"
         offset="1"
         id="stop1363" />
    </linearGradient>
    <linearGradient
       id="a"
       x1="43.231"
       x2="48.179"
       y1="46.109"
       y2="51.287"
       gradientTransform="scale(.26458)"
       gradientUnits="userSpaceOnUse"
       xlink:href="#b" />
    <linearGradient
       id="c"
       x1="42"
       x2="44"
       y1="51"
       y2="55"
       gradientUnits="userSpaceOnUse"
       xlink:href="#b" />
  </defs>
  <circle
     cx="8.4665"
     cy="8.4665"
     r="7.4082"
     fill="#3f3f3f"
     style="paint-order:stroke fill markers"
     id="circle1370" />
  <path
     transform="scale(.26458)"
     d="m16.17 14a24 24 0 0 0-8.1699 18 24 24 0 0 0 24 24 24 24 0 0 0 24-24 24 24 0 0 0-8.1582-18h-31.672z"
     fill="#fff"
     style="paint-order:stroke fill markers"
     id="path1372" />
  <path
     transform="scale(.26458)"
     d="m30 16c-1.3237 0-2.4299 1.0499-3 2l-1.1992 2h-19.061c-1.7922 3.7472-2.7282 7.8463-2.7402 12-6e-7 15.464 12.536 28 28 28 15.464 1e-6 28-12.536 28-28-0.01011-3.7983-0.79291-7.5548-2.3008-11.041-0.77563-1.7345-1.7759-3.5334-2.7617-4.959z"
     fill="#4d4d4d"
     style="paint-order:stroke fill markers"
     id="path1374" />
  <path
     transform="scale(.26458)"
     d="m32 4a28 28 0 0 0-18.467 7h36.951a28 28 0 0 0-18.484-7z"
     opacity=".15"
     style="paint-order:stroke fill markers"
     id="path1376" />
  <path
     transform="scale(.26458)"
     d="m57.312 43.891-27.693 15.99a28 28 0 0 0 2.3809 0.11914 28 28 0 0 0 25.312-16.109z"
     fill="url(#c)"
     opacity=".1"
     style="paint-order:stroke fill markers"
     id="path1378" />
  <path
     d="M 11.197454,9.7241644 8.7192423,7.2811236 c -0.142656,-0.1407331 -0.374132,-0.1407331 -0.516978,0 l -0.514562,0.5073708 0.652751,0.6435368 c 0.151729,-0.050506 0.325702,-0.016607 0.446589,0.1025931 0.121615,0.1199427 0.155682,0.2929278 0.103152,0.4430265 l 0.629178,0.620201 c 0.152255,-0.051735 0.327796,-0.018292 0.4494108,0.1017654 0.1698719,0.1674186 0.1698719,0.4388188 0,0.6063778 -0.1699938,0.167563 -0.4452348,0.167563 -0.6153038,0 -0.127761,-0.126076 -0.159371,-0.3111672 -0.09459,-0.4663632 L 8.6720673,9.2611577 v 1.5222393 c 0.04138,0.02021 0.08047,0.04714 0.114975,0.08107 0.169871,0.167449 0.169871,0.438819 0,0.606524 -0.169872,0.167394 -0.445311,0.167394 -0.615058,0 -0.169872,-0.167705 -0.169872,-0.439075 0,-0.606524 0.04199,-0.04134 0.09061,-0.07262 0.142482,-0.09356 V 9.2345909 C 8.2625943,9.2136565 8.2140873,9.1826369 8.1719843,9.1410105 8.0433273,9.0142161 8.0123673,8.8280296 8.0783633,8.6722423 L 7.4348283,8.0377243 5.7355114,9.7128467 c -0.1427259,0.1408491 -0.1427259,0.3690493 0,0.5097763 l 2.4783359,2.443046 c 0.142679,0.140705 0.374081,0.140705 0.516977,0 l 2.4666297,-2.431725 c 0.142772,-0.140752 0.142772,-0.3690672 0,-0.509777"
     style="fill:#ffffff;fill-opacity:1;fill-rule:nonzero;stroke:none;stroke-width:0.00613326"
     id="path870" />
</svg>
