<svg width="64" height="64" version="1.1" viewBox="0 0 16.933 16.933" xmlns="http://www.w3.org/2000/svg" xmlns:xlink="http://www.w3.org/1999/xlink">
 <defs>
  <linearGradient id="c" x1="42" x2="44" y1="51" y2="55" gradientUnits="userSpaceOnUse">
   <stop offset="0"/>
   <stop stop-opacity="0" offset="1"/>
  </linearGradient>
 </defs>
 <circle cx="8.4665" cy="8.4665" r="7.4082" fill="#3f3f3f" style="paint-order:stroke fill markers"/>
 <path transform="scale(.26458)" d="m16.17 14a24 24 0 0 0-8.1699 18 24 24 0 0 0 24 24 24 24 0 0 0 24-24 24 24 0 0 0-8.1582-18h-31.672z" fill="#fff" style="paint-order:stroke fill markers"/>
 <path d="m7.9374 4.2333c-0.35022 0-0.6429 0.27778-0.79374 0.52916l-0.31728 0.52916h-5.0432c-0.47418 0.99143-0.72183 2.076-0.725 3.175-2e-7 4.0915 3.3168 7.4082 7.4082 7.4082 4.0915 0 7.4082-3.3168 7.4082-7.4082-0.002675-1.005-0.20979-1.9988-0.60875-2.9212-0.20522-0.45891-0.46987-0.93487-0.73069-1.3121z" fill="#4d4d4d" stroke-width=".26458" style="paint-order:stroke fill markers"/>
 <path transform="scale(.26458)" d="m32 4a28 28 0 0 0-18.467 7h36.951a28 28 0 0 0-18.484-7z" opacity=".15" style="paint-order:stroke fill markers"/>
 <path transform="scale(.26458)" d="m57.312 43.891-27.693 15.99a28 28 0 0 0 2.3809 0.11914 28 28 0 0 0 25.312-16.109z" fill="url(#c)" opacity=".1" style="paint-order:stroke fill markers"/>
 <path d="m6.615 7.67a0.264 0.264 0 0 0-0.265 0.264v4.233c0 0.147 0.118 0.265 0.265 0.265h2.38l1.588-1.587v-2.91a0.264 0.264 0 0 0-0.264-0.265zm0.264 0.529h0.85v0.989h-0.212a0.4 0.4 0 0 0 0.212 0.288v0.361c-0.288-0.059-0.502-0.188-0.641-0.387-0.14-0.2-0.209-0.467-0.209-0.801zm1.136 0h0.85v0.989h-0.212c0.01 0.074 0.029 0.13 0.058 0.17 0.03 0.04 0.08 0.078 0.154 0.118v0.361c-0.288-0.059-0.502-0.188-0.641-0.387-0.14-0.2-0.209-0.467-0.209-0.801z" fill="#fff" style="paint-order:stroke markers fill"/>
</svg>
