<?xml version="1.0" encoding="UTF-8" standalone="no"?>
<svg
   width="64"
   height="64"
   version="1.1"
   viewBox="0 0 16.933 16.933"
   id="svg1382"
   sodipodi:docname="custom-folder-stack.svg"
   inkscape:version="1.1.1 (3bf5ae0d25, 2021-09-20)"
   xmlns:inkscape="http://www.inkscape.org/namespaces/inkscape"
   xmlns:sodipodi="http://sodipodi.sourceforge.net/DTD/sodipodi-0.dtd"
   xmlns:xlink="http://www.w3.org/1999/xlink"
   xmlns="http://www.w3.org/2000/svg"
   xmlns:svg="http://www.w3.org/2000/svg">
  <sodipodi:namedview
     id="namedview1384"
     pagecolor="#ffffff"
     bordercolor="#666666"
     borderopacity="1.0"
     inkscape:pageshadow="2"
     inkscape:pageopacity="0.0"
     inkscape:pagecheckerboard="0"
     showgrid="false"
     inkscape:zoom="6.34375"
     inkscape:cx="-5.91133"
     inkscape:cy="52.019704"
     inkscape:window-width="1920"
     inkscape:window-height="1000"
     inkscape:window-x="0"
     inkscape:window-y="44"
     inkscape:window-maximized="1"
     inkscape:current-layer="svg1382" />
  <defs
     id="defs1368">
    <linearGradient
       id="b">
      <stop
         offset="0"
         id="stop1361" />
      <stop
         stop-opacity="0"
         offset="1"
         id="stop1363" />
    </linearGradient>
    <linearGradient
       id="a"
       x1="43.231"
       x2="48.179"
       y1="46.109"
       y2="51.287"
       gradientTransform="scale(.26458)"
       gradientUnits="userSpaceOnUse"
       xlink:href="#b" />
    <linearGradient
       id="c"
       x1="42"
       x2="44"
       y1="51"
       y2="55"
       gradientUnits="userSpaceOnUse"
       xlink:href="#b" />
  </defs>
  <circle
     cx="8.4665"
     cy="8.4665"
     r="7.4082"
     fill="#3f3f3f"
     style="paint-order:stroke fill markers"
     id="circle1370" />
  <path
     transform="scale(.26458)"
     d="m16.17 14a24 24 0 0 0-8.1699 18 24 24 0 0 0 24 24 24 24 0 0 0 24-24 24 24 0 0 0-8.1582-18h-31.672z"
     fill="#fff"
     style="paint-order:stroke fill markers"
     id="path1372" />
  <path
     transform="scale(.26458)"
     d="m30 16c-1.3237 0-2.4299 1.0499-3 2l-1.1992 2h-19.061c-1.7922 3.7472-2.7282 7.8463-2.7402 12-6e-7 15.464 12.536 28 28 28 15.464 1e-6 28-12.536 28-28-0.01011-3.7983-0.79291-7.5548-2.3008-11.041-0.77563-1.7345-1.7759-3.5334-2.7617-4.959z"
     fill="#4d4d4d"
     style="paint-order:stroke fill markers"
     id="path1374" />
  <path
     style="fill:#fefefe;fill-opacity:1;stroke-width:0.0365836"
     d="m 7.1544631,12.346661 c -0.711534,-0.18051 -1.308304,-0.337228 -1.326157,-0.348261 -0.04476,-0.02767 -0.0416,-0.637665 0.0033,-0.637665 0.01967,0 0.584662,0.139925 1.255541,0.31096 0.670878,0.171028 1.288558,0.310962 1.37262,0.310962 0.08407,0 0.706482,-0.139599 1.3831548,-0.310232 0.6766721,-0.170627 1.2446741,-0.301357 1.2622241,-0.29051 0.04312,0.02665 0.04088,0.590882 -0.0024,0.617658 -0.02459,0.01521 -2.6545379,0.685384 -2.6545379,0.676451 0,-6.4e-4 -0.582163,-0.148852 -1.293695,-0.329363 z m -0.04256,-1.565682 c -0.674582,-0.1741 -1.246658,-0.329862 -1.271281,-0.346141 -0.02906,-0.0192 -0.04476,-0.131534 -0.04476,-0.320106 0,-0.2584443 0.0075,-0.2905093 0.06779,-0.2905093 0.03729,0 0.621727,0.139939 1.298757,0.3109593 0.677031,0.171029 1.271487,0.310961 1.321013,0.310961 0.04952,0 0.642303,-0.139924 1.31728,-0.310961 0.6749789,-0.1710273 1.2524309,-0.3109593 1.2832269,-0.3109593 0.04679,0 0.05426,0.05239 0.04543,0.3188573 l -0.01063,0.318859 -1.2804281,0.320845 c -0.7042348,0.176466 -1.3298148,0.319472 -1.3901788,0.317792 -0.06037,-0.0017 -0.661681,-0.145498 -1.336263,-0.319597 z m 0.0069,-1.5422693 c -0.690877,-0.176398 -1.271891,-0.336481 -1.291151,-0.35574 -0.01926,-0.01926 -0.03019,-0.17257 -0.02429,-0.34069 l 0.01077,-0.305675 1.327098,-0.330866 1.327096,-0.330867 1.142299,0.285785 c 0.6282639,0.157182 1.2287269,0.3098 1.3343619,0.33915 l 0.192065,0.05337 v 0.308652 c 0,0.256764 -0.01077,0.3143 -0.06402,0.342254 -0.08326,0.0437 -2.5762529,0.665414 -2.6453369,0.659708 -0.02899,-0.0024 -0.61796,-0.148679 -1.308831,-0.325075 z"
     id="path1438" />
  <path
     transform="scale(.26458)"
     d="m32 4a28 28 0 0 0-18.467 7h36.951a28 28 0 0 0-18.484-7z"
     opacity=".15"
     style="paint-order:stroke fill markers"
     id="path1376" />
  <path
     transform="scale(.26458)"
     d="m57.312 43.891-27.693 15.99a28 28 0 0 0 2.3809 0.11914 28 28 0 0 0 25.312-16.109z"
     fill="url(#c)"
     opacity=".1"
     style="paint-order:stroke fill markers"
     id="path1378" />
</svg>
