<svg width="64" height="64" xmlns="http://www.w3.org/2000/svg" xmlns:xlink="http://www.w3.org/1999/xlink"><defs><linearGradient id="a"><stop offset="0"/><stop stop-opacity="0" offset="1"/></linearGradient><linearGradient id="d" x1="-197.1" x2="-196.91" y1="217.68" y2="219.36" gradientTransform="scale(2.3088) rotate(-45 -330.942 -150.632)" gradientUnits="userSpaceOnUse" xlink:href="#a"/><style id="current-color-scheme" type="text/css">.ColorScheme-Highlight{color:#5294e2}</style></defs><g transform="translate(-17.929 15.972) scale(.98215)"><path class="ColorScheme-Highlight" d="M30.064 10.006c-.677 0-.909.62-1.22 1.22h-1.837a1.22 1.22 0 0 0-1.218 1.225v4.276h-1.225c-.676 0-1.219.543-1.219 1.219v19.553c0 .675.543 1.22 1.219 1.22h34.215c.676 0 1.22-.545 1.22-1.22V15.503a1.22 1.22 0 0 0-1.222-1.22h-1.22v-1.831a1.22 1.22 0 0 0-1.225-1.225H39.838c-.358-.573-.542-1.22-1.22-1.22z" fill="currentColor" opacity=".35"/><path d="M30.064 10.006c-.677 0-.909.62-1.22 1.22h-1.837a1.22 1.22 0 0 0-1.218 1.225v4.276h13.95l.712-1.221c.342-.581.547-1.219 1.224-1.219v-.004h15.881v-1.832a1.22 1.22 0 0 0-1.224-1.224H39.838c-.358-.574-.542-1.221-1.22-1.221z" opacity=".2"/><path d="M28.232 13.06a.61.61 0 0 0-.611.61v3.057H39.74l.71-1.22c.343-.582.548-1.22 1.225-1.22v-.003h14.05v-.614a.61.61 0 0 0-.612-.611z" fill="#fff"/><rect x="30.676" y="10.615" width="7.331" height="1.22" ry=".612" opacity=".25" stroke-width="3.848" style="paint-order:stroke markers fill"/><path d="m59.999 31.386-7.332 7.332h6.111a1.22 1.22 0 0 0 1.221-1.223z" fill="url(#d)" opacity=".1" stroke-width="2.309" style="paint-order:stroke markers fill"/></g><g transform="translate(.071 .972) scale(.98215)"><path class="ColorScheme-Highlight" d="M30.064 10.006c-.677 0-.909.62-1.22 1.22h-1.837a1.22 1.22 0 0 0-1.218 1.225v4.276h-1.225c-.676 0-1.219.543-1.219 1.219v19.553c0 .675.543 1.22 1.219 1.22h34.215c.676 0 1.22-.545 1.22-1.22V15.503a1.22 1.22 0 0 0-1.222-1.22h-1.22v-1.831a1.22 1.22 0 0 0-1.225-1.225H39.838c-.358-.573-.542-1.22-1.22-1.22z" fill="currentColor"/><path d="M30.064 10.006c-.677 0-.909.62-1.22 1.22h-1.837a1.22 1.22 0 0 0-1.218 1.225v4.276h13.95l.712-1.221c.342-.581.547-1.219 1.224-1.219v-.004h15.881v-1.832a1.22 1.22 0 0 0-1.224-1.224H39.838c-.358-.574-.542-1.221-1.22-1.221z" opacity=".2"/><path d="M28.232 13.06a.61.61 0 0 0-.611.61v3.057H39.74l.71-1.22c.343-.582.548-1.22 1.225-1.22v-.003h14.05v-.614a.61.61 0 0 0-.612-.611z" fill="#fff"/><rect x="30.676" y="10.615" width="7.331" height="1.22" ry=".612" opacity=".25" stroke-width="3.848" style="paint-order:stroke markers fill"/><path d="m59.999 31.386-7.332 7.332h6.111a1.22 1.22 0 0 0 1.221-1.223z" fill="url(#d)" opacity=".1" stroke-width="2.309" style="paint-order:stroke markers fill"/></g></svg>