<?xml version="1.0" encoding="UTF-8" standalone="no"?>
<svg
   width="64"
   height="64"
   version="1.1"
   viewBox="0 0 16.933 16.933"
   id="svg19"
   sodipodi:docname="default-folder-stack.svg"
   inkscape:version="1.1.1 (3bf5ae0d25, 2021-09-20)"
   xmlns:inkscape="http://www.inkscape.org/namespaces/inkscape"
   xmlns:sodipodi="http://sodipodi.sourceforge.net/DTD/sodipodi-0.dtd"
   xmlns="http://www.w3.org/2000/svg"
   xmlns:svg="http://www.w3.org/2000/svg">
  <sodipodi:namedview
     id="namedview21"
     pagecolor="#505050"
     bordercolor="#ffffff"
     borderopacity="1"
     inkscape:pageshadow="0"
     inkscape:pageopacity="0"
     inkscape:pagecheckerboard="1"
     showgrid="false"
     inkscape:zoom="11.1875"
     inkscape:cx="31.955307"
     inkscape:cy="32"
     inkscape:window-width="1920"
     inkscape:window-height="1000"
     inkscape:window-x="0"
     inkscape:window-y="44"
     inkscape:window-maximized="1"
     inkscape:current-layer="svg19" />
  <defs
     id="defs7">
    <linearGradient
       id="c"
       x1="42"
       x2="44"
       y1="51"
       y2="55"
       gradientUnits="userSpaceOnUse">
      <stop
         offset="0"
         id="stop2" />
      <stop
         stop-opacity="0"
         offset="1"
         id="stop4" />
    </linearGradient>
  </defs>
  <circle
     cx="8.4665"
     cy="8.4665"
     r="7.4082"
     fill="#4379b9"
     style="paint-order:stroke fill markers"
     id="circle9" />
  <path
     transform="scale(.26458)"
     d="m16.17 14a24 24 0 0 0-8.1699 18 24 24 0 0 0 24 24 24 24 0 0 0 24-24 24 24 0 0 0-8.1582-18h-31.672z"
     fill="#fff"
     style="paint-order:stroke fill markers"
     id="path11" />
  <path
     d="m7.9374 4.2333c-0.35022 0-0.6429 0.27778-0.79374 0.52916l-0.31728 0.52916h-5.0432c-0.47418 0.99143-0.72183 2.076-0.725 3.175-2e-7 4.0915 3.3168 7.4082 7.4082 7.4082 4.0915 0 7.4082-3.3168 7.4082-7.4082-0.002675-1.005-0.20979-1.9988-0.60875-2.9212-0.20522-0.45891-0.46987-0.93487-0.73069-1.3121z"
     fill="#5294e2"
     stroke-width=".26458"
     style="paint-order:stroke fill markers"
     id="path13" />
  <path
     transform="scale(.26458)"
     d="m32 4a28 28 0 0 0-18.467 7h36.951a28 28 0 0 0-18.484-7z"
     opacity=".15"
     style="paint-order:stroke fill markers"
     id="path15" />
  <path
     transform="scale(.26458)"
     d="m57.312 43.891-27.693 15.99a28 28 0 0 0 2.3809 0.11914 28 28 0 0 0 25.312-16.109z"
     fill="url(#c)"
     opacity=".1"
     style="paint-order:stroke fill markers"
     id="path17" />
  <path
     style="fill:#fefefe;fill-opacity:1;stroke-width:0.0365836"
     d="m 7.1544494,12.346661 c -0.711534,-0.18051 -1.308304,-0.337228 -1.326157,-0.348261 -0.04476,-0.02767 -0.0416,-0.637665 0.0033,-0.637665 0.01967,0 0.584662,0.139925 1.255541,0.31096 0.670878,0.171028 1.288558,0.310962 1.37262,0.310962 0.08407,0 0.706482,-0.139599 1.383155,-0.310232 0.6766716,-0.170627 1.2446736,-0.301357 1.2622236,-0.29051 0.04312,0.02665 0.04088,0.590882 -0.0024,0.617658 -0.02459,0.01521 -2.6545376,0.685384 -2.6545376,0.676451 0,-6.4e-4 -0.582163,-0.148852 -1.293695,-0.329363 z m -0.04256,-1.565682 c -0.674582,-0.1741 -1.246658,-0.329862 -1.271281,-0.346141 -0.02906,-0.0192 -0.04476,-0.131534 -0.04476,-0.320106 0,-0.2584443 0.0075,-0.2905093 0.06779,-0.2905093 0.03729,0 0.621727,0.139939 1.298757,0.3109593 0.677031,0.171029 1.271487,0.310961 1.321013,0.310961 0.04952,0 0.642303,-0.139924 1.31728,-0.310961 0.6749786,-0.1710273 1.2524306,-0.3109593 1.2832266,-0.3109593 0.04679,0 0.05426,0.05239 0.04543,0.3188573 l -0.01063,0.318859 -1.2804276,0.320845 c -0.704235,0.176466 -1.329815,0.319472 -1.390179,0.317792 -0.06037,-0.0017 -0.661681,-0.145498 -1.336263,-0.319597 z m 0.0069,-1.5422693 c -0.690877,-0.176398 -1.271891,-0.336481 -1.291151,-0.35574 -0.01926,-0.01926 -0.03019,-0.17257 -0.02429,-0.34069 l 0.01077,-0.305675 1.327098,-0.330866 1.327096,-0.330867 1.142299,0.285785 c 0.6282636,0.157182 1.2287266,0.3098 1.3343616,0.33915 l 0.192065,0.05337 v 0.308652 c 0,0.256764 -0.01077,0.3143 -0.06402,0.342254 -0.08326,0.0437 -2.5762526,0.665414 -2.6453366,0.659708 -0.02899,-0.0024 -0.61796,-0.148679 -1.308831,-0.325075 z"
     id="path1438" />
</svg>
