<svg width="64" height="64" xmlns="http://www.w3.org/2000/svg" xmlns:xlink="http://www.w3.org/1999/xlink"><defs><linearGradient id="b" x1="43.231" x2="48.179" y1="46.109" y2="51.287" gradientTransform="scale(.26458)" gradientUnits="userSpaceOnUse" xlink:href="#a"/><linearGradient id="a"><stop offset="0"/><stop stop-opacity="0" offset="1"/></linearGradient><linearGradient id="c" x1="42" x2="44" y1="51" y2="55" gradientUnits="userSpaceOnUse" xlink:href="#a"/></defs><g transform="scale(3.7796)"><circle cx="8.466" cy="8.466" r="7.408" fill="#4379b9" style="paint-order:stroke fill markers"/><path transform="scale(.26458)" d="M16.17 14A24 24 0 0 0 8 32a24 24 0 0 0 24 24 24 24 0 0 0 24-24 24 24 0 0 0-8.158-18H16.17z" fill="#fff" style="paint-order:stroke fill markers"/><path d="M8.466 4.233c-.292 0-.381.276-.53.53l-.307.528H2.076a7.144 7.144 0 0 0-.753 3.175 7.144 7.144 0 0 0 7.144 7.144 7.144 7.144 0 0 0 7.143-7.144 7.144 7.144 0 0 0-1.4-4.233H8.467z" fill="#5294e2" style="paint-order:stroke markers fill"/><path d="M15.61 8.467 8.466 15.61a7.144 7.144 0 0 0 7.144-7.143z" fill="url(#b)" opacity=".1" style="paint-order:stroke markers fill"/><path transform="scale(.26458)" d="M30 16c-1.324 0-2.43 1.05-3 2l-1.2 2H6.74A28 28 0 0 0 4 32c0 15.464 12.536 28 28 28s28-12.536 28-28a28 28 0 0 0-2.301-11.041c-.776-1.734-1.776-3.533-2.762-4.959z" fill="#5294e2" style="paint-order:stroke fill markers"/><path transform="scale(.26458)" d="M32 4a28 28 0 0 0-18.467 7h36.951A28 28 0 0 0 32 4z" opacity=".15" style="paint-order:stroke fill markers"/><path transform="scale(.26458)" d="m57.312 43.891-27.693 15.99a28 28 0 0 0 2.38.12 28 28 0 0 0 25.313-16.11z" fill="url(#c)" opacity=".1" style="paint-order:stroke fill markers"/></g><path d="M32 28c-2.77 0-5 2.23-5 5v3h-2c-.554 0-1 .446-1 1v8c0 .554.446 1 1 1h14c.554 0 1-.446 1-1v-8c0-.554-.446-1-1-1h-2v-3c0-2.77-2.23-5-5-5zm0 2c1.662 0 3 1.338 3 3v3h-6v-3c0-1.662 1.338-3 3-3z" fill="#fff" fill-rule="evenodd" style="paint-order:fill markers stroke"/></svg>