<svg width="64" height="64" version="1.1" xmlns="http://www.w3.org/2000/svg" xmlns:xlink="http://www.w3.org/1999/xlink">
 <defs>
  <style id="current-color-scheme" type="text/css"/>
  <linearGradient id="c" x1="42" x2="44" y1="51" y2="55" gradientUnits="userSpaceOnUse">
   <stop offset="0"/>
   <stop stop-opacity="0" offset="1"/>
  </linearGradient>
 </defs>
 <g transform="scale(3.7796)">
  <circle cx="8.4665" cy="8.4665" r="7.4082" fill="#4379b9" style="paint-order:stroke fill markers"/>
  <path transform="scale(.26458)" d="m16.17 14a24 24 0 0 0-8.1699 18 24 24 0 0 0 24 24 24 24 0 0 0 24-24 24 24 0 0 0-8.1582-18h-31.672z" fill="#fff" style="paint-order:stroke fill markers"/>
  <path d="m7.9375 4.2332c-0.35022 0-0.6429 0.27778-0.79374 0.52916l-0.31728 0.52916h-5.0432c-0.47418 0.99143-0.72183 2.076-0.725 3.175-2e-7 4.0915 3.3168 7.4082 7.4082 7.4082 4.0915 0 7.4082-3.3168 7.4082-7.4082-0.0027-1.005-0.20979-1.9988-0.60874-2.9212-0.20522-0.45891-0.46987-0.93487-0.73069-1.3121z" fill="#5294e2" stroke-width=".26458" style="paint-order:stroke fill markers"/>
  <path transform="scale(.26458)" d="m32 4a28 28 0 0 0-18.467 7h36.951a28 28 0 0 0-18.484-7z" opacity=".15" style="paint-order:stroke fill markers"/>
  <path transform="scale(.26458)" d="m57.312 43.891-27.693 15.99a28 28 0 0 0 2.3809 0.11914 28 28 0 0 0 25.312-16.109z" fill="url(#c)" opacity=".1" style="paint-order:stroke fill markers"/>
 </g>
 <path d="m32 28c-2.77 0-5 2.23-5 5v1h2v-1c0-1.662 1.338-3 3-3s3 1.338 3 3v3h-10c-0.554 0-1 0.446-1 1v8c0 0.554 0.446 1 1 1h14c0.554 0 1-0.446 1-1v-8c0-0.554-0.446-1-1-1h-2v-3c0-2.77-2.23-5-5-5z" fill="#fff" fill-rule="evenodd" style="paint-order:fill markers stroke"/>
</svg>
