<svg width="64" height="64" xmlns="http://www.w3.org/2000/svg" xmlns:xlink="http://www.w3.org/1999/xlink"><defs><linearGradient id="b" x1="43.231" x2="48.179" y1="46.109" y2="51.287" gradientTransform="scale(.26458)" gradientUnits="userSpaceOnUse" xlink:href="#a"/><linearGradient id="a"><stop offset="0"/><stop stop-opacity="0" offset="1"/></linearGradient><linearGradient id="c" x1="42" x2="44" y1="51" y2="55" gradientUnits="userSpaceOnUse" xlink:href="#a"/></defs><g transform="scale(3.7796)"><circle cx="8.466" cy="8.466" r="7.408" fill="#4379b9" style="paint-order:stroke fill markers"/><path transform="scale(.26458)" d="M16.17 14A24 24 0 0 0 8 32a24 24 0 0 0 24 24 24 24 0 0 0 24-24 24 24 0 0 0-8.158-18H16.17z" fill="#fff" style="paint-order:stroke fill markers"/><path d="M8.466 4.233c-.292 0-.381.276-.53.53l-.307.528H2.076a7.144 7.144 0 0 0-.753 3.175 7.144 7.144 0 0 0 7.144 7.144 7.144 7.144 0 0 0 7.143-7.144 7.144 7.144 0 0 0-1.4-4.233H8.467z" fill="#5294e2" style="paint-order:stroke markers fill"/><path d="M15.61 8.467 8.466 15.61a7.144 7.144 0 0 0 7.144-7.143z" fill="url(#b)" opacity=".1" style="paint-order:stroke markers fill"/><path transform="scale(.26458)" d="M30 16c-1.324 0-2.43 1.05-3 2l-1.2 2H6.74A28 28 0 0 0 4 32c0 15.464 12.536 28 28 28s28-12.536 28-28a28 28 0 0 0-2.301-11.041c-.776-1.734-1.776-3.533-2.762-4.959z" fill="#5294e2" style="paint-order:stroke fill markers"/><path transform="scale(.26458)" d="M32 4a28 28 0 0 0-18.467 7h36.951A28 28 0 0 0 32 4z" opacity=".15" style="paint-order:stroke fill markers"/><path transform="scale(.26458)" d="m57.312 43.891-27.693 15.99a28 28 0 0 0 2.38.12 28 28 0 0 0 25.313-16.11z" fill="url(#c)" opacity=".1" style="paint-order:stroke fill markers"/></g><path d="M37.297 29.99c-.301.001-.58.1-.842.287-.663.478-2.035.975-4.448.975-2.425 0-3.8-.497-4.462-.975a1.328 1.328 0 0 0-.813-.275c-.3 0-.651.088-1.013.275-1.288.69-2.488 2.918-3.138 5.824-.55 2.48-.75 5.849-.425 7.205.288 1.177.788 1.694 1.675 1.694 1.3-.025 2.938-1.483 3.988-3.45.75-1.09 2.5-1.579 4.187-1.528 1.675-.062 3.426.438 4.176 1.528 1.05 1.967 2.686 3.425 3.999 3.45.875 0 1.375-.517 1.662-1.694.325-1.356.125-4.725-.425-7.205-.65-2.906-1.85-5.134-3.137-5.822-.356-.195-.681-.29-.984-.288zM27 33.75h1.25V35h1.25v1.25h-1.25v1.25H27v-1.25h-1.25V35H27zm9.375 0a.625.625 0 0 1 .625.625.625.625 0 0 1-.625.625.625.625 0 0 1-.625-.625.625.625 0 0 1 .625-.625zM35.125 35a.625.625 0 0 1 .625.625.625.625 0 0 1-.625.625.625.625 0 0 1-.625-.625.625.625 0 0 1 .625-.625zm2.5 0a.625.625 0 0 1 .625.625.625.625 0 0 1-.625.625.625.625 0 0 1-.625-.625.625.625 0 0 1 .625-.625zm-1.25 1.25a.625.625 0 0 1 .625.625.625.625 0 0 1-.625.625.625.625 0 0 1-.625-.625.625.625 0 0 1 .625-.625z" color="#727272" fill="#fff"/></svg>