<svg width="64" height="64" version="1.1" xmlns="http://www.w3.org/2000/svg" xmlns:xlink="http://www.w3.org/1999/xlink">
 <defs>
  <style id="current-color-scheme" type="text/css"/>
  <linearGradient id="c" x1="42" x2="44" y1="51" y2="55" gradientUnits="userSpaceOnUse">
   <stop offset="0"/>
   <stop stop-opacity="0" offset="1"/>
  </linearGradient>
 </defs>
 <g transform="scale(3.7796)">
  <circle cx="8.4665" cy="8.4665" r="7.4082" fill="#4379b9" style="paint-order:stroke fill markers"/>
  <path transform="scale(.26458)" d="m16.17 14a24 24 0 0 0-8.1699 18 24 24 0 0 0 24 24 24 24 0 0 0 24-24 24 24 0 0 0-8.1582-18h-31.672z" fill="#fff" style="paint-order:stroke fill markers"/>
  <path d="m7.9374 4.2333c-0.35022 0-0.6429 0.27778-0.79374 0.52916l-0.31728 0.52916h-5.0432c-0.47418 0.99143-0.72183 2.076-0.725 3.175-2e-7 4.0915 3.3168 7.4082 7.4082 7.4082 4.0915 0 7.4082-3.3168 7.4082-7.4082-0.002675-1.005-0.20979-1.9988-0.60875-2.9212-0.20522-0.45891-0.46987-0.93487-0.73069-1.3121z" fill="#5294e2" stroke-width=".26458" style="paint-order:stroke fill markers"/>
  <path transform="scale(.26458)" d="m32 4a28 28 0 0 0-18.467 7h36.951a28 28 0 0 0-18.484-7z" opacity=".15" style="paint-order:stroke fill markers"/>
  <path transform="scale(.26458)" d="m57.312 43.891-27.693 15.99a28 28 0 0 0 2.3809 0.11914 28 28 0 0 0 25.312-16.109z" fill="url(#c)" opacity=".1" style="paint-order:stroke fill markers"/>
 </g>
 <path d="m28.143 30-1.2857 1.2857h-1.2857c-2.5714 0-2.5714 2.5714-2.5714 2.5714v8.5714c0 2.5714 2.5714 2.5714 2.5714 2.5714h12.857c2.5714 0 2.5714-2.5714 2.5714-2.5714v-8.5714c0-2.5714-2.5714-2.5714-2.5714-2.5714h-1.2857l-1.2857-1.2857zm3.8571 3.8571c5.1452-0.0023 5.1452 7.7119 0 7.7143-5.1405-0.0023-5.1405-7.7166 0-7.7143z" color="#727272" fill="#fff"/>
</svg>
