<?xml version="1.0" encoding="UTF-8" standalone="no"?>
<svg
   width="64"
   height="64"
   version="1.1"
   viewBox="0 0 16.933 16.933"
   id="svg19"
   sodipodi:docname="grey-folder-games.svg"
   inkscape:version="1.1.1 (3bf5ae0d25, 2021-09-20)"
   xmlns:inkscape="http://www.inkscape.org/namespaces/inkscape"
   xmlns:sodipodi="http://sodipodi.sourceforge.net/DTD/sodipodi-0.dtd"
   xmlns="http://www.w3.org/2000/svg"
   xmlns:svg="http://www.w3.org/2000/svg">
  <sodipodi:namedview
     id="namedview21"
     pagecolor="#505050"
     bordercolor="#ffffff"
     borderopacity="1"
     inkscape:pageshadow="0"
     inkscape:pageopacity="0"
     inkscape:pagecheckerboard="1"
     showgrid="false"
     inkscape:zoom="11.1875"
     inkscape:cx="31.955307"
     inkscape:cy="32"
     inkscape:window-width="1920"
     inkscape:window-height="1000"
     inkscape:window-x="0"
     inkscape:window-y="44"
     inkscape:window-maximized="1"
     inkscape:current-layer="svg19" />
  <defs
     id="defs7">
    <linearGradient
       id="c"
       x1="42"
       x2="44"
       y1="51"
       y2="55"
       gradientUnits="userSpaceOnUse">
      <stop
         offset="0"
         id="stop2" />
      <stop
         stop-opacity="0"
         offset="1"
         id="stop4" />
    </linearGradient>
  </defs>
  <circle
     cx="8.4665"
     cy="8.4665"
     r="7.4082"
     fill="#7b7b7b"
     style="paint-order:stroke fill markers"
     id="circle9" />
  <path
     transform="scale(.26458)"
     d="m16.17 14a24 24 0 0 0-8.1699 18 24 24 0 0 0 24 24 24 24 0 0 0 24-24 24 24 0 0 0-8.1582-18h-31.672z"
     fill="#555555"
     style="paint-order:stroke fill markers"
     id="path11" />
  <path
     d="m7.9374 4.2333c-0.35022 0-0.6429 0.27778-0.79374 0.52916l-0.31728 0.52916h-5.0432c-0.47418 0.99143-0.72183 2.076-0.725 3.175-2e-7 4.0915 3.3168 7.4082 7.4082 7.4082 4.0915 0 7.4082-3.3168 7.4082-7.4082-0.002675-1.005-0.20979-1.9988-0.60875-2.9212-0.20522-0.45891-0.46987-0.93487-0.73069-1.3121z"
     fill="#bdbdbd"
     stroke-width=".26458"
     style="paint-order:stroke fill markers"
     id="path13" />
  <path
     transform="scale(.26458)"
     d="m32 4a28 28 0 0 0-18.467 7h36.951a28 28 0 0 0-18.484-7z"
     opacity=".15"
     style="paint-order:stroke fill markers"
     id="path15" />
  <path
     transform="scale(.26458)"
     d="m57.312 43.891-27.693 15.99a28 28 0 0 0 2.3809 0.11914 28 28 0 0 0 25.312-16.109z"
     fill="url(#c)"
     opacity=".1"
     style="paint-order:stroke fill markers"
     id="path17" />
  <path
     d="M 9.8680694,7.934698 C 9.7883684,7.9350155 9.7146194,7.961156 9.6451677,8.010762 9.46989,8.1370954 9.1067777,8.2687177 8.4684829,8.2687177 7.8269075,8.2687177 7.4631125,8.1370927 7.2878295,8.010762 7.2183805,7.961154 7.1522385,7.938006 7.0728651,7.938006 c -0.079371,0 -0.1723012,0.023151 -0.2682028,0.072756 C 6.4640179,8.1933152 6.1465506,8.7826418 5.9745749,9.5515587 5.8290622,10.207686 5.7761466,11.09897 5.8621318,11.457791 c 0.076064,0.311541 0.20835,0.448116 0.4431684,0.448116 0.3439515,-0.0066 0.7771717,-0.392237 1.0549788,-0.912768 0.1984283,-0.28839 0.6614188,-0.417689 1.1078944,-0.404143 0.4431683,-0.01654 0.9064975,0.11575 1.1049047,0.404143 0.277807,0.520531 0.7107099,0.906154 1.0579419,0.912768 0.231501,0 0.363795,-0.136586 0.439861,-0.448116 0.08599,-0.358821 0.03307,-1.250105 -0.112443,-1.9062323 C 10.786468,8.7826418 10.468995,8.1933205 10.128351,8.0111055 10.034101,7.9595125 9.9481123,7.9343805 9.86808,7.9350415 Z M 7.1437085,8.9294853 H 7.4744312 V 9.2602079 H 7.8051538 V 9.5909306 H 7.4744312 V 9.9216532 H 7.1437085 V 9.5909306 H 6.8129859 V 9.2602079 h 0.3307226 z m 2.4803405,0 A 0.16535603,0.16535603 0 0 1 9.7894051,9.0948413 0.16535603,0.16535603 0 0 1 9.624049,9.2601973 0.16535603,0.16535603 0 0 1 9.458693,9.0948413 0.16535603,0.16535603 0 0 1 9.624049,8.9294853 Z M 9.2933264,9.2602079 a 0.16535603,0.16535603 0 0 1 0.165356,0.165356 0.16535603,0.16535603 0 0 1 -0.165356,0.1653561 0.16535603,0.16535603 0 0 1 -0.165356,-0.1653561 0.16535603,0.16535603 0 0 1 0.165356,-0.165356 z m 0.6614188,0 A 0.16535603,0.16535603 0 0 1 10.120101,9.4255639 0.16535603,0.16535603 0 0 1 9.9547452,9.59092 0.16535603,0.16535603 0 0 1 9.7893892,9.4255639 0.16535603,0.16535603 0 0 1 9.9547452,9.2602079 Z M 9.6240226,9.5909306 a 0.16535603,0.16535603 0 0 1 0.165356,0.165356 0.16535603,0.16535603 0 0 1 -0.165356,0.165356 0.16535603,0.16535603 0 0 1 -0.165356,-0.165356 0.16535603,0.16535603 0 0 1 0.165356,-0.165356 z"
     color="#727272"
     fill="#ffffff"
     id="path28"
     style="stroke-width:0.264578;fill:#555555;fill-opacity:1" />
</svg>
