<?xml version="1.0" encoding="UTF-8" standalone="no"?>
<svg
   width="64"
   height="64"
   version="1.1"
   viewBox="0 0 16.933 16.933"
   id="svg19"
   sodipodi:docname="grey-folder-git.svg"
   inkscape:version="1.1.1 (3bf5ae0d25, 2021-09-20)"
   xmlns:inkscape="http://www.inkscape.org/namespaces/inkscape"
   xmlns:sodipodi="http://sodipodi.sourceforge.net/DTD/sodipodi-0.dtd"
   xmlns="http://www.w3.org/2000/svg"
   xmlns:svg="http://www.w3.org/2000/svg">
  <sodipodi:namedview
     id="namedview21"
     pagecolor="#505050"
     bordercolor="#ffffff"
     borderopacity="1"
     inkscape:pageshadow="0"
     inkscape:pageopacity="0"
     inkscape:pagecheckerboard="1"
     showgrid="false"
     inkscape:zoom="11.1875"
     inkscape:cx="31.955307"
     inkscape:cy="32"
     inkscape:window-width="1920"
     inkscape:window-height="1000"
     inkscape:window-x="0"
     inkscape:window-y="44"
     inkscape:window-maximized="1"
     inkscape:current-layer="svg19" />
  <defs
     id="defs7">
    <linearGradient
       id="c"
       x1="42"
       x2="44"
       y1="51"
       y2="55"
       gradientUnits="userSpaceOnUse">
      <stop
         offset="0"
         id="stop2" />
      <stop
         stop-opacity="0"
         offset="1"
         id="stop4" />
    </linearGradient>
  </defs>
  <circle
     cx="8.4665"
     cy="8.4665"
     r="7.4082"
     fill="#7b7b7b"
     style="paint-order:stroke fill markers"
     id="circle9" />
  <path
     transform="scale(.26458)"
     d="m16.17 14a24 24 0 0 0-8.1699 18 24 24 0 0 0 24 24 24 24 0 0 0 24-24 24 24 0 0 0-8.1582-18h-31.672z"
     fill="#555555"
     style="paint-order:stroke fill markers"
     id="path11" />
  <path
     d="m7.9374 4.2333c-0.35022 0-0.6429 0.27778-0.79374 0.52916l-0.31728 0.52916h-5.0432c-0.47418 0.99143-0.72183 2.076-0.725 3.175-2e-7 4.0915 3.3168 7.4082 7.4082 7.4082 4.0915 0 7.4082-3.3168 7.4082-7.4082-0.002675-1.005-0.20979-1.9988-0.60875-2.9212-0.20522-0.45891-0.46987-0.93487-0.73069-1.3121z"
     fill="#bdbdbd"
     stroke-width=".26458"
     style="paint-order:stroke fill markers"
     id="path13" />
  <path
     transform="scale(.26458)"
     d="m32 4a28 28 0 0 0-18.467 7h36.951a28 28 0 0 0-18.484-7z"
     opacity=".15"
     style="paint-order:stroke fill markers"
     id="path15" />
  <path
     transform="scale(.26458)"
     d="m57.312 43.891-27.693 15.99a28 28 0 0 0 2.3809 0.11914 28 28 0 0 0 25.312-16.109z"
     fill="url(#c)"
     opacity=".1"
     style="paint-order:stroke fill markers"
     id="path17" />
  <path
     d="M 11.197357,9.7242143 8.719145,7.2811732 c -0.142656,-0.1407331 -0.374132,-0.1407331 -0.516978,0 L 7.687605,7.788544 8.340356,8.4320813 c 0.151729,-0.05051 0.325702,-0.01661 0.446589,0.102593 0.121615,0.119942 0.155682,0.292927 0.103152,0.443026 l 0.629178,0.620201 c 0.152255,-0.05174 0.327796,-0.01829 0.449411,0.101766 0.169872,0.167418 0.169872,0.4388177 0,0.6063767 -0.169994,0.167563 -0.445235,0.167563 -0.615304,0 C 9.225621,10.179968 9.194011,9.9948773 9.258792,9.8396813 L 8.67197,9.2612073 v 1.5222387 c 0.04138,0.02021 0.08047,0.04714 0.114975,0.08107 0.169871,0.167449 0.169871,0.438819 0,0.606524 -0.169872,0.167394 -0.445311,0.167394 -0.615058,0 -0.169872,-0.167705 -0.169872,-0.439075 0,-0.606524 0.04199,-0.04134 0.09061,-0.07262 0.142482,-0.09356 V 9.2346403 C 8.262499,9.2137103 8.21399,9.1826903 8.171887,9.1410603 8.04323,9.0142653 8.01227,8.8280793 8.078267,8.6722923 L 7.434732,8.0377743 5.735415,9.7128963 c -0.142726,0.140849 -0.142726,0.3690487 0,0.5097757 l 2.478336,2.443046 c 0.142679,0.140705 0.374081,0.140705 0.516977,0 l 2.46663,-2.431725 c 0.142772,-0.140752 0.142772,-0.3690667 0,-0.5097767"
     style="fill:#555555;fill-opacity:1;fill-rule:nonzero;stroke:none;stroke-width:0.00613326"
     id="path870" />
</svg>
