<svg width="64" height="64" viewBox="0 0 16.933 16.933" xmlns="http://www.w3.org/2000/svg"><g transform="translate(.794 -.794)" fill-rule="evenodd"><circle cx="7.673" cy="9.26" r="7.144" fill="#5294e2" style="paint-order:normal"/><path d="M11.642 12.7c0-1.3-2.206-1.963-3.085-2.199 0 0 .036-.728.121-.996.085-.267.097-.57.134-.656.036-.085.466-.473.49-.838-.006-.217-.049-.269-.156-.269v-1.13c0-.609-.89-1.141-1.473-1.141-.583 0-1.472.532-1.472 1.142v1.13c-.108 0-.15.05-.156.268.024.365.453.753.49.838.036.085.048.39.133.656.085.268.122.996.122.996-.88.236-3.086.9-3.086 2.199z" fill="#f9f9f9"/></g></svg>