<svg width="22" height="22" version="1.1" viewBox="0 0 22 22" xmlns="http://www.w3.org/2000/svg">
 <g transform="matrix(4.8596 0 0 4.8596 -5.7171 -1415.6)" paint-order="stroke markers fill">
  <circle cx="3.44" cy="293.56" r="1.852" fill="#77767b"/>
  <circle cx="3.44" cy="293.56" r=".926" opacity=".15"/>
  <g fill="#ffffff" stroke-width="3.714">
   <path d="m3.44 292.78a0.784 0.784 0 0 0-0.784 0.783 0.784 0.784 0 0 0 0.784 0.784 0.784 0.784 0 0 0 0.783-0.784 0.784 0.784 0 0 0-0.783-0.783zm0 0.356a0.427 0.427 0 0 1 0.427 0.427 0.427 0.427 0 0 1-0.427 0.428 0.427 0.427 0 0 1-0.428-0.428 0.427 0.427 0 0 1 0.428-0.427z"/>
   <path d="m3.297 292.46h0.285v0.499h-0.285zm0 1.71h0.285v0.498h-0.285zm1.247-0.748v0.285h-0.499v-0.285zm-1.71 0v0.285h-0.498v-0.285zm1.487 0.822-0.201 0.202-0.353-0.353 0.202-0.201zm-1.209-1.208-0.201 0.201-0.353-0.353 0.202-0.201zm-0.352 1.41-0.202-0.202 0.353-0.352 0.201 0.201zm1.209-1.209-0.202-0.201 0.353-0.353 0.201 0.201z"/>
  </g>
 </g>
</svg>
