<svg width="64" height="64" version="1.1" xmlns="http://www.w3.org/2000/svg">
 <defs>
  <style id="current-color-scheme" type="text/css">.ColorScheme-Text { color:#565656; } .ColorScheme-Highlight { color:#5294e2; }</style>
 </defs>
 <linearGradient id="b" x1="19.577" x2="16" y1="12.05" y2="12.05" gradientTransform="translate(44.967 1009.3)" gradientUnits="userSpaceOnUse">
  <stop stop-color="#fff" stop-opacity="0" offset="0"/>
  <stop stop-color="#fcfcfc" offset="1"/>
 </linearGradient>
 <linearGradient id="a" x1="19.514" x2="15" y1="15.555" y2="11" gradientTransform="translate(44.967 1009.3)" gradientUnits="userSpaceOnUse">
  <stop stop-color="#f3f3f3" offset="0"/>
  <stop stop-color="#fcfcfc" stop-opacity="0" offset="1"/>
 </linearGradient>
 <circle cx="32" cy="32" r="27" fill="#f0f0f0" style="paint-order:stroke fill markers"/>
 <rect x="22" y="33" width="20" height="15" rx="2.584" ry="2.584" fill="#6d7680" fill-rule="evenodd" style="paint-order:stroke fill markers"/>
 <rect x="13" y="17" width="38" height="28" rx="6" ry="6" fill="#2f3337"/>
 <rect class="ColorScheme-Highlight" x="15" y="19" width="34" height="24" rx="4" ry="4" fill="currentColor"/>
 <g stroke-width=".5">
  <path transform="translate(-49.29 -1330.7) scale(1.3333)" d="m60.967 1015.3a6 6 0 0 0-6 6 6 6 0 0 0 6 6 6 6 0 0 0 6-6 6 6 0 0 0-6-6m0 1a5 5 0 0 1 5 5 5 5 0 0 1-5 5 5 5 0 0 1-5-5 5 5 0 0 1 5-5" fill="url(#a)"/>
  <path transform="translate(-49.29 -1330.7) scale(1.3333)" d="M60.967 1015.3a6 6 0 0 0-6 6 6 6 0 0 0 6 6 6 6 0 0 0 4.215-1.736l-.701-.71a5 5 0 0 1-3.514 1.446 5 5 0 0 1-5-5 5 5 0 0 1 5-5z" fill="url(#b)"/>
 </g>
</svg>
