<svg width="64" height="64" version="1.1" xmlns="http://www.w3.org/2000/svg">
 <defs>
  <style id="current-color-scheme" type="text/css">.ColorScheme-Text { color:#565656; } .ColorScheme-Highlight { color:#5294e2; }</style>
  <linearGradient id="a-3" x1="42" x2="44" y1="51" y2="55" gradientTransform="matrix(.96432 0 0 .96425 1.144 1.144)" gradientUnits="userSpaceOnUse">
   <stop offset="0"/>
   <stop stop-opacity="0" offset="1"/>
  </linearGradient>
 </defs>
 <circle class="ColorScheme-Highlight" cx="32" cy="32" r="27" fill="currentColor"/>
 <path d="m56.412 43.467-26.705 15.416a27 26.998 0 0 0 2.296 0.117 27 26.998 0 0 0 24.41-15.533z" fill="url(#a-3)" opacity=".1"/>
 <path d="m32 5a27 26.998 0 0 0-24.39 15.431h18.413l1.159-1.932c0.547-0.914 1.615-1.928 2.89-1.928h24.084a27 26.998 0 0 0-22.156-11.57z" opacity=".2"/>
 <path d="m16.736 14.643a23.144 23.142 0 0 0-4.702 5.787h13.988l1.16-1.931c0.546-0.915 1.614-1.928 2.89-1.928h19.113a23.144 23.142 0 0 0-1.907-1.928z" fill="#ffffff"/>
 <path d="m32.004 5a27 26.998 0 0 0-17.812 6.75h35.631a27 26.998 0 0 0-17.823-6.75z" opacity=".15"/>
 <rect x="34.894" y="18.499" width="14.466" height="1.928" ry=".966" opacity=".25"/>
 <path d="m23.329 35.552-0.0073-6.1924 6.9432-1.0351v7.2275zm8.0913-7.4097 9.2576-1.4798v8.8894h-9.2576zm9.2576 8.678v8.8894l-9.2576-1.4287v-7.4607zm-10.413 7.2967-6.9359-1.0424v-6.2543h6.9359z" fill="#ffffff" stroke-width="3.6447"/>
</svg>
