<?xml version="1.0" encoding="UTF-8"?>
<svg width="128" height="128" version="1.1" xml:space="preserve" xmlns="http://www.w3.org/2000/svg"><g fill="#565656"><path d="m41.078 81.614c-7.9787 1.1404-15.154 5.9967-20.096 12.634-2.3148 3.1089-3.1568 9.4947 1.007 11.574 3.2518 1.6238 5.7155-1.8505 7.6997-3.9878 3.1489-3.3918 7.6297-6.7506 12.288-7.0934 5.6348-0.41468 10.27 1.7228 15.272 4.151 10.127 4.917 20.651 12.871 32.34 10.209 7.3265-1.668 13.493-7.5184 17.574-13.91 1.9261-3.0165 2.0572-8.7915-1.6292-10.579-3.4104-1.6534-5.7139 2.2595-7.655 4.4476-3.6007 4.0587-7.373 7.0679-12.781 7.425-5.0072 0.33064-10.035-2.4949-14.373-4.7728-8.923-4.6847-19.201-11.591-29.645-10.098z"/><path d="m41.392 50.001c-7.9787 1.1404-15.154 5.9967-20.096 12.634-2.3148 3.1089-3.1568 9.4947 1.007 11.574 3.2518 1.6238 5.7155-1.8505 7.6997-3.9878 3.1489-3.3918 7.6297-6.7506 12.288-7.0934 5.6348-0.41468 10.27 1.7228 15.272 4.151 10.127 4.917 20.651 12.871 32.34 10.209 7.3265-1.668 13.493-7.5184 17.574-13.91 1.9261-3.0165 2.0572-8.7915-1.6292-10.579-3.4104-1.6534-5.7139 2.2595-7.655 4.4476-3.6007 4.0587-7.373 7.0679-12.781 7.425-5.0072 0.33063-10.035-2.4949-14.373-4.7728-8.923-4.6847-19.201-11.591-29.645-10.098z"/><path d="m41.392 18.401c-7.9787 1.1404-15.154 5.9967-20.096 12.634-2.3148 3.1089-3.1568 9.4947 1.007 11.574 3.2518 1.6238 5.7155-1.8505 7.6997-3.9878 3.1489-3.3918 7.6297-6.7506 12.288-7.0934 5.6348-0.41468 10.27 1.7228 15.272 4.151 10.127 4.917 20.651 12.871 32.34 10.209 7.3265-1.668 13.493-7.5184 17.574-13.91 1.9261-3.0165 2.0572-8.7915-1.6292-10.579-3.4104-1.6534-5.7139 2.2595-7.655 4.4476-3.6007 4.0587-7.373 7.0679-12.781 7.425-5.0072 0.33063-10.035-2.495-14.373-4.7728-8.923-4.6847-19.201-11.591-29.645-10.098z"/></g></svg>
