<?xml version="1.0" encoding="UTF-8"?>
<svg height="16px" viewBox="0 0 16 16" width="16px" xmlns="http://www.w3.org/2000/svg">
    <path d="m 8 1 c -2.761719 0 -5 2.238281 -5 5 c 0 0.171875 0.015625 0.332031 0.03125 0.5 s 0.035156 0.335938 0.0625 0.5 c 0.570312 3.511719 2.90625 6.003906 4.90625 8.003906 c 2 -2 4.335938 -4.488281 4.90625 -8.003906 c 0.027344 -0.164062 0.050781 -0.332031 0.0625 -0.5 c 0.015625 -0.167969 0.03125 -0.328125 0.03125 -0.5 c 0 -2.761719 -2.238281 -5 -5 -5 z m 0 3 c 1.105469 0 2 0.894531 2 2 s -0.894531 2 -2 2 s -2 -0.894531 -2 -2 s 0.894531 -2 2 -2 z m 0 0" fill="#555555"/>
</svg>
