<svg width="64" height="64" viewBox="0 0 64 64" fill="none" xmlns="http://www.w3.org/2000/svg">
<path d="M31.9981 59.9974C47.4617 59.9974 59.9974 47.4617 59.9974 31.9981C59.9974 16.5345 47.4617 3.99883 31.9981 3.99883C16.5345 3.99883 3.99882 16.5345 3.99882 31.9981C3.99882 47.4617 16.5345 59.9974 31.9981 59.9974Z" fill="#BD93F9"/>
<path d="M16.1701 14.0001C13.6082 16.2482 11.5546 19.0163 10.1458 22.12C8.73711 25.2236 8.00562 28.5918 8.00006 32.0002C8.00006 38.3655 10.5286 44.47 15.0295 48.9709C19.5304 53.4718 25.635 56.0004 32.0002 56.0004C38.3655 56.0004 44.47 53.4718 48.9709 48.9709C53.4718 44.47 56.0004 38.3655 56.0004 32.0002C55.9963 28.5927 55.2667 25.2251 53.8601 22.1215C52.4534 19.0179 50.402 16.2493 47.8423 14.0001H16.1701Z" fill="#F8F8F2"/>
<path d="M29.9987 15.9991C28.6758 15.9991 27.5684 17.0498 27.0015 18.0022L25.7996 20.0017H6.73903C4.94679 23.7489 4.01077 27.8481 3.99882 32.0019C3.99882 39.4283 6.94893 46.5505 12.2002 51.8017C17.4514 57.053 24.5736 60.0031 32 60.0031C39.4264 60.0031 46.5486 57.053 51.7998 51.8017C57.0511 46.5505 60.0012 39.4283 60.0012 32.0019C59.99 28.2023 59.2055 24.4447 57.6956 20.9579C56.9236 19.227 56.0003 17.5676 54.9365 15.9991H29.9987Z" fill="#44475A"/>
<path opacity="0.15" d="M32.0002 4.00003C25.1986 4.01298 18.6343 6.50123 13.5331 11.0001H50.4844C45.3788 6.49736 38.8077 4.00885 32.0002 4.00003V4.00003Z" fill="black"/>
<path opacity="0.1" d="M57.3124 43.8913L29.6192 59.8814C30.4105 59.9552 31.2045 59.9952 31.9992 60.0014C37.3123 59.9944 42.5136 58.4759 46.9959 55.6232C51.4781 52.7706 55.0563 48.7015 57.3124 43.8913V43.8913Z" fill="url(#paint0_linear_2_164)"/>
<path d="M25.5232 29.001L24 29.7078L30.293 36.0008L24 42.2939L25.5232 43.0007L29.813 38.707L29.8055 38.6995L32.5117 35.9933L29.813 33.2946L25.5232 29.001ZM32.0014 43.0007V45.0038H41.9985V43.0007H32.0014Z" fill="#F8F8F2"/>
<defs>
<linearGradient id="paint0_linear_2_164" x1="42.0003" y1="51.0004" x2="44.0003" y2="55.0004" gradientUnits="userSpaceOnUse">
<stop/>
<stop offset="1" stop-opacity="0"/>
</linearGradient>
</defs>
</svg>
