<svg width="64" height="64" viewBox="0 0 64 64" fill="none" xmlns="http://www.w3.org/2000/svg">
<path d="M31.9981 59.9974C47.4617 59.9974 59.9974 47.4617 59.9974 31.9981C59.9974 16.5345 47.4617 3.99883 31.9981 3.99883C16.5345 3.99883 3.99883 16.5345 3.99883 31.9981C3.99883 47.4617 16.5345 59.9974 31.9981 59.9974Z" fill="#BD93F9"/>
<path d="M16.1701 14.0001C13.6082 16.2482 11.5546 19.0163 10.1458 22.12C8.73712 25.2236 8.00563 28.5918 8.00006 32.0002C8.00006 38.3655 10.5286 44.47 15.0295 48.9709C19.5305 53.4718 25.635 56.0004 32.0002 56.0004C38.3655 56.0004 44.47 53.4718 48.9709 48.9709C53.4718 44.47 56.0004 38.3655 56.0004 32.0002C55.9963 28.5927 55.2667 25.2251 53.8601 22.1215C52.4534 19.0179 50.402 16.2493 47.8423 14.0001H16.1701Z" fill="#F8F8F2"/>
<path d="M29.9987 15.9991C28.6758 15.9991 27.5684 17.0498 27.0015 18.0022L25.7996 20.0017H6.73904C4.94679 23.7489 4.01077 27.8481 3.99883 32.0019C3.99883 39.4283 6.94894 46.5505 12.2002 51.8017C17.4514 57.053 24.5736 60.0031 32 60.0031C39.4264 60.0031 46.5486 57.053 51.7998 51.8017C57.0511 46.5505 60.0012 39.4283 60.0012 32.0019C59.99 28.2023 59.2056 24.4447 57.6956 20.9579C56.9236 19.227 56.0003 17.5676 54.9365 15.9991H29.9987Z" fill="#44475A"/>
<path opacity="0.15" d="M32.0002 4.00003C25.1986 4.01298 18.6343 6.50123 13.5331 11.0001H50.4844C45.3788 6.49736 38.8077 4.00885 32.0002 4.00003Z" fill="black"/>
<path opacity="0.1" d="M57.3124 43.8913L29.6192 59.8814C30.4105 59.9552 31.2045 59.9952 31.9992 60.0014C37.3122 59.9944 42.5136 58.4759 46.9959 55.6232C51.4781 52.7706 55.0563 48.7015 57.3124 43.8913Z" fill="url(#paint0_linear_2_187)"/>
<path d="M31.223 27.5L22.311 32.6193L32.0445 38.2403L41.6885 32.6193L32.8676 27.5V31.4313L36.3417 33.4413C36.4791 33.487 36.4791 33.7161 36.3417 33.8079L32.2286 36.1834C32.0912 36.2296 31.9532 36.2296 31.862 36.1834L27.7489 33.8079C27.6115 33.7617 27.6115 33.5326 27.7489 33.4413L31.223 31.4307V27.5ZM41.689 32.6193L32.045 38.2414L22.3115 32.6193V42.8112L25.6927 40.8455V36.8698C25.6927 36.733 25.8751 36.6406 25.9669 36.6862L30.0811 39.0629C30.2185 39.1091 30.2635 39.2453 30.2635 39.4283V44.1822C30.3553 44.319 30.1718 44.4102 30.0349 44.3646L26.5609 42.3545L23.1798 44.3184L32.045 49.4377L40.8658 44.3184L37.4841 42.3545L34.0101 44.4108C33.8733 44.5026 33.7365 44.3646 33.7365 44.2272V39.4745C33.7365 39.3377 33.8277 39.2009 33.9189 39.1091L38.032 36.7324C38.1694 36.6412 38.3073 36.778 38.3073 36.9148V40.8906L41.6884 42.8562L41.689 32.6193Z" fill="#F8F8F2"/>
<defs>
<linearGradient id="paint0_linear_2_187" x1="42.0003" y1="51.0004" x2="44.0003" y2="55.0004" gradientUnits="userSpaceOnUse">
<stop/>
<stop offset="1" stop-opacity="0"/>
</linearGradient>
</defs>
</svg>
