<svg width="64" height="64" viewBox="0 0 64 64" fill="none" xmlns="http://www.w3.org/2000/svg">
<path d="M32 60C47.464 60 60 47.464 60 32C60 16.536 47.464 3.99995 32 3.99995C16.536 3.99995 3.99995 16.536 3.99995 32C3.99995 47.464 16.536 60 32 60Z" fill="#BD93F9"/>
<path d="M16.1701 14.0001C13.6082 16.2482 11.5546 19.0163 10.1459 22.12C8.73718 25.2237 8.0057 28.5918 8.00015 32.0002C8.00015 38.3655 10.5287 44.47 15.0296 48.9709C19.5305 53.4718 25.6351 56.0004 32.0003 56.0004C38.3656 56.0004 44.4701 53.4718 48.971 48.9709C53.4719 44.47 56.0005 38.3655 56.0005 32.0002C55.9964 28.5927 55.2667 25.2251 53.8601 22.1215C52.4534 19.0178 50.402 16.2493 47.8422 14.0001H16.17H16.1701Z" fill="#F8F8F2"/>
<path d="M30.0002 16.0002C28.6765 16.0002 27.5703 17.0501 27.0002 18.0002L25.801 20.0002H6.73971C4.9475 23.7474 4.01148 27.8467 3.9995 32.0004C3.9995 47.4647 16.5357 60.0005 31.9995 60.0005C47.4638 60.0005 59.9996 47.4643 59.9996 32.0004C59.9895 28.2019 59.2067 24.4458 57.6988 20.9595C56.9231 19.225 55.9228 17.426 54.937 16.0003L30.0002 16.0002Z" fill="#44475A"/>
<path opacity="0.15" d="M32.0002 4.00003C25.1986 4.01298 18.6343 6.50123 13.5331 11.0001H50.4844C45.3788 6.49736 38.8077 4.00885 32.0002 4.00003V4.00003Z" fill="black"/>
<path opacity="0.1" d="M57.3124 43.8913L29.6192 59.8814C30.4108 59.9549 31.2051 59.9947 32.0001 60.0006C37.3129 59.9934 42.5139 58.475 46.996 55.6225C51.4781 52.7701 55.0561 48.7013 57.3123 43.8915L57.3124 43.8913Z" fill="url(#paint0_linear_2_220)"/>
<path d="M32.0019 29.9874L24.0005 37.9888H27.0015V43.987C27.0015 44.5426 27.4475 44.9886 27.9993 44.9886H30.0025V40.9898H34.0013V44.9886H36.0007C36.1324 44.9891 36.2628 44.9635 36.3846 44.9134C36.5063 44.8632 36.617 44.7895 36.7101 44.6964C36.8032 44.6033 36.8769 44.4926 36.9271 44.3709C36.9772 44.2492 37.0028 44.1187 37.0023 43.987V37.9888H39.9995L32.0019 29.9874ZM32.0019 34.9878C32.2748 34.971 32.5483 35.0103 32.8054 35.1031C33.0626 35.196 33.298 35.3406 33.4972 35.5279C33.6964 35.7152 33.8551 35.9413 33.9636 36.1923C34.0721 36.4432 34.1281 36.7138 34.1281 36.9872C34.1281 37.2606 34.0721 37.5311 33.9636 37.7821C33.8551 38.0331 33.6964 38.2592 33.4972 38.4465C33.298 38.6338 33.0626 38.7784 32.8054 38.8712C32.5483 38.9641 32.2748 39.0034 32.0019 38.9866C31.4929 38.9553 31.0149 38.731 30.6656 38.3595C30.3162 37.988 30.1217 37.4972 30.1217 36.9872C30.1217 36.4772 30.3162 35.9864 30.6656 35.6149C31.0149 35.2434 31.4929 35.0191 32.0019 34.9878V34.9878Z" fill="#F8F8F2"/>
<defs>
<linearGradient id="paint0_linear_2_220" x1="42.0003" y1="51.0004" x2="44.0003" y2="55.0004" gradientUnits="userSpaceOnUse">
<stop/>
<stop offset="1" stop-opacity="0"/>
</linearGradient>
</defs>
</svg>
