<svg width="64" height="64" viewBox="0 0 64 64" fill="none" xmlns="http://www.w3.org/2000/svg">
<path d="M32 60C47.464 60 60 47.464 60 32C60 16.536 47.464 3.99995 32 3.99995C16.536 3.99995 3.99995 16.536 3.99995 32C3.99995 47.464 16.536 60 32 60Z" fill="#BD93F9"/>
<path d="M16.1701 14.0001C13.6082 16.2482 11.5546 19.0163 10.1459 22.12C8.73718 25.2237 8.0057 28.5918 8.00015 32.0002C8.00015 38.3655 10.5287 44.47 15.0296 48.9709C19.5305 53.4718 25.6351 56.0004 32.0003 56.0004C38.3656 56.0004 44.4701 53.4718 48.971 48.9709C53.4719 44.47 56.0005 38.3655 56.0005 32.0002C55.9964 28.5927 55.2667 25.2251 53.8601 22.1215C52.4534 19.0178 50.402 16.2493 47.8422 14.0001H16.17H16.1701Z" fill="#F8F8F2"/>
<path d="M30.0002 16.0002C28.6765 16.0002 27.5703 17.0501 27.0002 18.0002L25.801 20.0002H6.73971C4.9475 23.7474 4.01148 27.8467 3.9995 32.0004C3.9995 47.4647 16.5357 60.0005 31.9995 60.0005C47.4638 60.0005 59.9996 47.4643 59.9996 32.0004C59.9895 28.2019 59.2067 24.4458 57.6988 20.9595C56.9231 19.225 55.9228 17.426 54.937 16.0003L30.0002 16.0002Z" fill="#44475A"/>
<path opacity="0.15" d="M32.0002 4.00003C25.1986 4.01298 18.6343 6.50123 13.5331 11.0001H50.4844C45.3788 6.49736 38.8077 4.00885 32.0002 4.00003V4.00003Z" fill="black"/>
<path opacity="0.1" d="M57.3124 43.8913L29.6192 59.8814C30.4108 59.9549 31.2052 59.9947 32.0001 60.0006C37.3129 59.9934 42.514 58.475 46.996 55.6225C51.4781 52.7701 55.0561 48.7013 57.3123 43.8915L57.3124 43.8913Z" fill="url(#paint0_linear_2_144)"/>
<path d="M32.0019 28.0068C29.3495 28.0068 26.8058 29.0605 24.9302 30.936C23.0547 32.8115 22.0011 35.3553 22.0011 38.0076C22.0011 40.66 23.0547 43.2038 24.9302 45.0793C26.8058 46.9548 29.3495 48.0085 32.0019 48.0085C34.6536 48.0075 37.1964 46.9533 39.0711 45.0779C40.9458 43.2025 41.9989 40.6594 41.9989 38.0076C41.9989 35.3559 40.9458 32.8127 39.0711 30.9373C37.1964 29.0619 34.6536 28.0078 32.0019 28.0068V28.0068ZM32.0019 29.0084C34.3873 29.0094 36.6748 29.9575 38.3615 31.6442C40.0483 33.331 40.9963 35.6184 40.9973 38.0038C40.9978 39.1856 40.7656 40.356 40.3138 41.448C39.862 42.54 39.1995 43.5324 38.3642 44.3684C37.5289 45.2044 36.5371 45.8677 35.4455 46.3204C34.3538 46.7731 33.1837 47.0063 32.0019 47.0068C30.8198 47.0073 29.6492 46.775 28.5569 46.3229C27.4646 45.8709 26.4721 45.2081 25.636 44.3723C24.8 43.5366 24.1368 42.5445 23.6843 41.4524C23.2318 40.3603 22.9989 39.1898 22.9989 38.0076C22.9989 36.8255 23.2318 35.655 23.6843 34.5629C24.1368 33.4708 24.8 32.4785 25.636 31.6428C26.4721 30.8071 27.4646 30.1444 28.5569 29.6924C29.6492 29.2403 30.8198 29.0079 32.0019 29.0084V29.0084Z" fill="#F8F8F2"/>
<path d="M32.9997 32.977C32.9997 32.4238 32.5521 31.9753 32 31.9753C31.4479 31.9753 31.0003 32.4238 31.0003 32.977V36.9719C31.0003 37.5251 31.4479 37.9736 32 37.9736C32.5521 37.9736 32.9997 37.5251 32.9997 36.9719V32.977Z" fill="#F8F8F2"/>
<path d="M37.0874 43.0931L37.0901 43.0905C37.2849 42.8956 37.2849 42.5798 37.0901 42.3849L32.8461 38.1409C32.6512 37.946 32.3353 37.946 32.1405 38.1409L32.1378 38.1435C31.943 38.3384 31.943 38.6543 32.1378 38.8491L36.3819 43.0932C36.5767 43.288 36.8926 43.2879 37.0874 43.0931Z" fill="#F8F8F2"/>
<path d="M32.0019 39.9844C33.1061 39.9844 34.0013 39.0892 34.0013 37.985C34.0013 36.8807 33.1061 35.9856 32.0019 35.9856C30.8977 35.9856 30.0025 36.8807 30.0025 37.985C30.0025 39.0892 30.8977 39.9844 32.0019 39.9844Z" fill="#F8F8F2"/>
<defs>
<linearGradient id="paint0_linear_2_144" x1="42.0003" y1="51.0004" x2="44.0003" y2="55.0004" gradientUnits="userSpaceOnUse">
<stop/>
<stop offset="1" stop-opacity="0"/>
</linearGradient>
</defs>
</svg>
