<svg width="64" height="64" viewBox="0 0 64 64" fill="none" xmlns="http://www.w3.org/2000/svg">
<path d="M32 60C47.464 60 60 47.464 60 32C60 16.536 47.464 3.99994 32 3.99994C16.536 3.99994 3.99994 16.536 3.99994 32C3.99994 47.464 16.536 60 32 60Z" fill="#BD93F9"/>
<path opacity="0.15" d="M32.0004 3.99994C25.1988 4.01292 18.6344 6.50122 13.5332 11.0001H50.4845C45.3789 6.49735 38.8079 4.00879 32.0004 3.99994V3.99994Z" fill="black"/>
<path d="M32.0019 9L22.9989 17.9992H27.9993V27.0022C27.9993 27.5541 28.4453 28.0001 29.0009 28.0001H34.9991C35.1305 28.0006 35.2606 27.9751 35.3821 27.9252C35.5036 27.8753 35.6141 27.8019 35.7071 27.7091C35.8002 27.6164 35.874 27.5063 35.9244 27.385C35.9748 27.2637 36.0007 27.1336 36.0007 27.0022V17.9992H41.0011L32.0019 9.00378V9Z" fill="#F8F8F2" stroke="black" stroke-opacity="0.039" stroke-width="1.00001" stroke-linecap="round" stroke-linejoin="round"/>
<path d="M29.9998 23C28.6762 23 27.5699 24.0499 26.9999 25L25.8006 27H4.4746C4.16694 28.6491 4.0081 30.3226 4 32.0001C4 39.4262 6.95 46.5481 12.201 51.7991C17.4521 57.0501 24.574 60.0001 32 60.0001C35.6771 60.0001 39.3181 59.2759 42.7152 57.8688C46.1123 56.4616 49.199 54.3991 51.7991 51.7991C54.3991 49.1991 56.4616 46.1124 57.8687 42.7152C59.2758 39.3181 60.0001 35.6771 60.0001 32.0001C59.9886 28.9371 59.4746 25.8967 58.4786 23.0001L29.9998 23Z" fill="#44475A"/>
<path opacity="0.1" d="M57.3139 43.8925L29.6207 59.8825C30.4123 59.956 31.2067 59.9957 32.0017 60.0016C37.3144 59.9945 42.5154 58.476 46.9974 55.6236C51.4794 52.7711 55.0575 48.7024 57.3136 43.8926L57.3139 43.8925Z" fill="url(#paint0_linear_2_121)"/>
<defs>
<linearGradient id="paint0_linear_2_121" x1="42.0003" y1="51.0004" x2="44.0003" y2="55.0004" gradientUnits="userSpaceOnUse">
<stop/>
<stop offset="1" stop-opacity="0"/>
</linearGradient>
</defs>
</svg>
