<svg width="64" height="64" viewBox="0 0 64 64" fill="none" xmlns="http://www.w3.org/2000/svg">
<path d="M59.9985 31.9992C59.9985 16.5357 47.4628 3.99995 31.9992 3.99995C16.5356 3.99995 3.99994 16.5357 3.99994 31.9992C3.99994 47.4628 16.5356 59.9985 31.9992 59.9985C47.4628 59.9985 59.9985 47.4628 59.9985 31.9992Z" fill="#BD93F9"/>
<path opacity="0.35" d="M50.0004 41.9914H14.0034C13.4503 41.9914 13.0018 42.4398 13.0018 42.993V45.9902C13.0018 46.5434 13.4503 46.9918 14.0034 46.9918H50.0004C50.5535 46.9918 51.002 46.5434 51.002 45.9902V42.993C51.002 42.4398 50.5535 41.9914 50.0004 41.9914Z" fill="#F8F8F2"/>
<path d="M21.5021 38.9677H17.4995C17.224 38.9677 17.0006 39.191 17.0006 39.4665V43.4692C17.0006 43.7447 17.224 43.9681 17.4995 43.9681H21.5021C21.7777 43.9681 22.0011 43.7447 22.0011 43.4692V39.4665C22.0011 39.191 21.7777 38.9677 21.5021 38.9677Z" fill="#F8F8F2"/>
<path d="M29.8362 38.9677H25.8336C25.558 38.9677 25.3347 39.191 25.3347 39.4665V43.4692C25.3347 43.7447 25.558 43.9681 25.8336 43.9681H29.8362C30.1117 43.9681 30.3351 43.7447 30.3351 43.4692V39.4665C30.3351 39.191 30.1117 38.9677 29.8362 38.9677Z" fill="#F8F8F2"/>
<path d="M38.1702 38.9677H34.1676C33.8921 38.9677 33.6687 39.191 33.6687 39.4665V43.4692C33.6687 43.7447 33.8921 43.9681 34.1676 43.9681H38.1702C38.4457 43.9681 38.6691 43.7447 38.6691 43.4692V39.4665C38.6691 39.191 38.4457 38.9677 38.1702 38.9677Z" fill="#F8F8F2"/>
<path d="M46.5042 38.9677H42.5016C42.2261 38.9677 42.0027 39.191 42.0027 39.4665V43.4692C42.0027 43.7447 42.2261 43.9681 42.5016 43.9681H46.5042C46.7797 43.9681 47.0031 43.7447 47.0031 43.4692V39.4665C47.0031 39.191 46.7797 38.9677 46.5042 38.9677Z" fill="#F8F8F2"/>
<path opacity="0.35" d="M32.0002 4.00003C26.04 4.00003 20.5302 5.84954 16.0001 9.00007H48.0004C43.4698 5.84954 37.9603 4.00003 32.0002 4.00003Z" fill="black"/>
<path opacity="0.35" d="M35.9981 5.97177H28.0019C27.4485 5.97177 27 6.41949 27 6.97178C27 7.52407 27.4485 7.97179 28.0019 7.97179H35.9981C36.5515 7.97179 37 7.52407 37 6.97178C37 6.41949 36.5515 5.97177 35.9981 5.97177Z" fill="black"/>
</svg>
