<svg width="64" height="64" viewBox="0 0 64 64" fill="none" xmlns="http://www.w3.org/2000/svg">
<path d="M32 60C47.464 60 60 47.464 60 32C60 16.536 47.464 3.99995 32 3.99995C16.536 3.99995 3.99995 16.536 3.99995 32C3.99995 47.464 16.536 60 32 60Z" fill="#BD93F9"/>
<path d="M16.1701 14.0001C13.6082 16.2482 11.5546 19.0163 10.1459 22.12C8.73718 25.2237 8.0057 28.5918 8.00015 32.0002C8.00015 38.3655 10.5287 44.47 15.0296 48.9709C19.5305 53.4718 25.6351 56.0004 32.0003 56.0004C38.3656 56.0004 44.4701 53.4718 48.971 48.9709C53.4719 44.47 56.0005 38.3655 56.0005 32.0002C55.9964 28.5927 55.2667 25.2251 53.8601 22.1215C52.4534 19.0178 50.402 16.2493 47.8422 14.0001H16.17H16.1701Z" fill="#F8F8F2"/>
<path d="M30.0002 16.0002C28.6765 16.0002 27.5703 17.0501 27.0002 18.0002L25.801 20.0002H6.73971C4.9475 23.7474 4.01148 27.8467 3.9995 32.0004C3.9995 47.4647 16.5357 60.0005 31.9995 60.0005C47.4638 60.0005 59.9996 47.4643 59.9996 32.0004C59.9895 28.2019 59.2067 24.4458 57.6988 20.9595C56.9231 19.225 55.9228 17.426 54.937 16.0003L30.0002 16.0002Z" fill="#44475A"/>
<path opacity="0.15" d="M32.0002 4.00003C25.1986 4.01298 18.6343 6.50123 13.5331 11.0001H50.4844C45.3788 6.49736 38.8077 4.00885 32.0002 4.00003V4.00003Z" fill="black"/>
<path opacity="0.1" d="M57.3124 43.8913L29.6192 59.8814C30.4108 59.9549 31.2051 59.9947 32.0001 60.0006C37.3129 59.9934 42.5139 58.475 46.996 55.6225C51.4781 52.7701 55.0561 48.7013 57.3123 43.8915L57.3124 43.8913Z" fill="url(#paint0_linear_2_134)"/>
<path d="M34.7557 40.1788C34.4378 40.6105 34.023 40.9616 33.5448 41.2039C33.0665 41.4462 32.5381 41.573 32.0019 41.574C31.4656 41.5736 30.9369 41.4473 30.4582 41.2053C29.9796 40.9634 29.5644 40.6125 29.2461 40.1809C27.7095 40.543 26.3828 41.1993 25.4447 42.0613C24.5066 42.9233 24.0024 43.9496 24 45.0016H40.0018C40 43.9492 39.4961 42.9225 38.558 42.0601C37.6199 41.1976 36.2927 40.541 34.7557 40.1788V40.1788Z" fill="#F8F8F2"/>
<path d="M32.0019 36.4142C33.8949 36.4142 35.4295 34.8797 35.4295 32.9867C35.4295 31.0937 33.8949 29.5591 32.0019 29.5591C30.1089 29.5591 28.5744 31.0937 28.5744 32.9867C28.5744 34.8797 30.1089 36.4142 32.0019 36.4142Z" fill="#F8F8F2"/>
<path d="M28.5722 32.9867C28.5722 33.7372 28.6609 34.4803 28.8331 35.1736C29.0054 35.867 29.2578 36.497 29.5761 37.0276C29.8944 37.5583 30.2722 37.9793 30.6881 38.2664C31.104 38.5536 31.5497 38.7015 31.9998 38.7015C32.4501 38.7019 32.896 38.5545 33.3121 38.2675C33.7282 37.9805 34.1063 37.5597 34.4248 37.029C34.7433 36.4982 34.996 35.8681 35.1684 35.1745C35.3408 34.4809 35.4295 33.7375 35.4295 32.9867H28.5722Z" fill="#F8F8F2"/>
<defs>
<linearGradient id="paint0_linear_2_134" x1="42.0003" y1="51.0004" x2="44.0003" y2="55.0004" gradientUnits="userSpaceOnUse">
<stop/>
<stop offset="1" stop-opacity="0"/>
</linearGradient>
</defs>
</svg>
