<svg width="64" height="64" viewBox="0 0 64 64" fill="none" xmlns="http://www.w3.org/2000/svg">
<path d="M32 60C47.464 60 60 47.464 60 32C60 16.536 47.464 3.99994 32 3.99994C16.536 3.99994 3.99995 16.536 3.99995 32C3.99995 47.464 16.536 60 32 60Z" fill="#BD93F9"/>
<path d="M16.1701 14.0001C13.6082 16.2482 11.5546 19.0163 10.1459 22.12C8.73718 25.2237 8.00571 28.5918 8.00016 32.0002C8.00016 38.3655 10.5287 44.47 15.0296 48.9709C19.5305 53.4718 25.6351 56.0004 32.0003 56.0004C38.3656 56.0004 44.4701 53.4718 48.971 48.9709C53.4719 44.47 56.0005 38.3655 56.0005 32.0002C55.9964 28.5927 55.2668 25.2251 53.8601 22.1215C52.4534 19.0178 50.402 16.2493 47.8422 14.0001H16.17H16.1701Z" fill="#F8F8F2"/>
<path d="M30.0002 16.0002C28.6765 16.0002 27.5703 17.0501 27.0002 18.0002L25.801 20.0002H6.73971C4.9475 23.7474 4.01148 27.8467 3.9995 32.0004C3.9995 47.4647 16.5357 60.0005 31.9995 60.0005C47.4638 60.0005 59.9996 47.4643 59.9996 32.0004C59.9895 28.2019 59.2067 24.4458 57.6988 20.9595C56.9231 19.225 55.9228 17.426 54.937 16.0003L30.0002 16.0002Z" fill="#44475A"/>
<path opacity="0.15" d="M32.0002 4.00003C25.1986 4.01298 18.6343 6.50123 13.5331 11.0001H50.4844C45.3788 6.49736 38.8077 4.00885 32.0002 4.00003V4.00003Z" fill="black"/>
<path opacity="0.1" d="M57.3124 43.8913L29.6192 59.8814C30.4108 59.9549 31.2052 59.9947 32.0001 60.0006C37.3129 59.9934 42.514 58.475 46.996 55.6225C51.4781 52.7701 55.0561 48.7013 57.3123 43.8915L57.3124 43.8913Z" fill="url(#paint0_linear_2_74)"/>
<path d="M25.0021 28.9895C24.8707 28.989 24.7406 29.0145 24.6191 29.0644C24.4976 29.1143 24.3871 29.1877 24.2941 29.2805C24.201 29.3732 24.1272 29.4833 24.0768 29.6046C24.0264 29.7259 24.0005 29.856 24.0005 29.9874V45.9864C24.0005 46.542 24.4465 46.988 25.0021 46.988H33.9975L39.9995 40.9898V29.9911C40 29.8598 39.9746 29.7296 39.9247 29.6081C39.8747 29.4866 39.8013 29.3762 39.7086 29.2831C39.6159 29.1901 39.5057 29.1162 39.3844 29.0659C39.2631 29.0155 39.1331 28.9895 39.0017 28.9895H25.0021ZM25.9999 30.989H29.2125V34.727H28.4113C28.4512 34.9581 28.5444 35.1768 28.6835 35.3658C28.8226 35.5547 29.0037 35.7087 29.2125 35.8155V37.1799C28.124 36.9569 27.3152 36.4694 26.7898 35.7172C26.2607 34.9613 25.9999 33.9522 25.9999 32.6898V30.989ZM30.2935 30.989H33.5062V34.727H32.7049C32.7427 35.0067 32.8145 35.2183 32.9241 35.3695C33.0375 35.5207 33.2265 35.6643 33.5062 35.8155V37.1799C32.4176 36.9569 31.6088 36.4694 31.0834 35.7172C30.5543 34.9613 30.2935 33.9522 30.2935 32.6898V30.989Z" fill="#F8F8F2"/>
<defs>
<linearGradient id="paint0_linear_2_74" x1="42.0003" y1="51.0004" x2="44.0003" y2="55.0004" gradientUnits="userSpaceOnUse">
<stop/>
<stop offset="1" stop-opacity="0"/>
</linearGradient>
</defs>
</svg>
