<svg width="64" height="64" viewBox="0 0 64 64" fill="none" xmlns="http://www.w3.org/2000/svg">
<path d="M31.9981 59.9974C47.4617 59.9974 59.9974 47.4617 59.9974 31.9981C59.9974 16.5345 47.4617 3.99881 31.9981 3.99881C16.5345 3.99881 3.99882 16.5345 3.99882 31.9981C3.99882 47.4617 16.5345 59.9974 31.9981 59.9974Z" fill="#BD93F9"/>
<path d="M16.1701 14.0001C13.6082 16.2482 11.5546 19.0163 10.1458 22.12C8.73711 25.2236 8.00562 28.5918 8.00005 32.0002C8.00005 38.3655 10.5286 44.47 15.0295 48.9709C19.5304 53.4718 25.635 56.0004 32.0002 56.0004C38.3655 56.0004 44.47 53.4718 48.9709 48.9709C53.4718 44.47 56.0004 38.3655 56.0004 32.0002C55.9963 28.5927 55.2667 25.2251 53.8601 22.1215C52.4534 19.0179 50.402 16.2493 47.8423 14.0001H16.1701Z" fill="#F8F8F2"/>
<path d="M29.9987 15.9991C28.6758 15.9991 27.5684 17.0498 27.0015 18.0022L25.7996 20.0017H6.73903C4.94679 23.7489 4.01077 27.8481 3.99882 32.0019C3.99882 39.4283 6.94893 46.5505 12.2002 51.8017C17.4514 57.053 24.5736 60.0031 32 60.0031C39.4264 60.0031 46.5486 57.053 51.7998 51.8017C57.0511 46.5505 60.0012 39.4283 60.0012 32.0019C59.99 28.2023 59.2055 24.4447 57.6956 20.9579C56.9236 19.227 56.0003 17.5676 54.9365 15.9991H29.9987Z" fill="#44475A"/>
<path opacity="0.15" d="M32.0002 4.00003C25.1986 4.01298 18.6343 6.50123 13.5331 11.0001H50.4844C45.3788 6.49736 38.8077 4.00885 32.0002 4.00003Z" fill="black"/>
<path opacity="0.1" d="M57.3124 43.8913L29.6192 59.8814C30.4105 59.9552 31.2045 59.9952 31.9992 60.0014C37.3123 59.9944 42.5136 58.4759 46.9959 55.6232C51.4781 52.7706 55.0563 48.7015 57.3124 43.8913Z" fill="url(#paint0_linear_2_67)"/>
<path d="M27.8006 44.2207C29.9246 42.0094 31.8656 39.7107 32.1135 39.112C32.3614 38.514 33.3378 37.3314 34.2852 36.4856C36.7638 34.2713 38.2091 34.4452 39.4529 37.1067C39.7702 37.7853 40.2069 38.34 40.4234 38.34C40.9176 38.34 43.1984 36.1198 43.1984 35.6375C43.1984 35.0141 42.0278 33.9391 41.3491 33.9391C40.6325 33.9391 39.9471 32.9111 39.9471 31.8375C39.9471 31.0238 37.7074 28.7587 36.0822 27.9285C35.3073 27.5328 33.9732 27.338 32.0396 27.338C29.1153 27.338 27.8932 27.8225 29.7648 28.2398C30.327 28.3653 31.3848 28.9677 32.1165 29.5799C33.9978 31.1552 33.9224 32.3384 31.7753 34.8894C30.857 35.9802 29.8813 36.873 29.6058 36.873C28.9973 36.873 20.8016 44.4932 20.8016 45.0583C20.8016 45.4853 23.3175 48.2416 23.708 48.2416C23.8349 48.2416 25.6766 46.4327 27.8006 44.2207H27.8006Z" fill="#F8F8F2"/>
<defs>
<linearGradient id="paint0_linear_2_67" x1="42.0003" y1="51.0004" x2="44.0003" y2="55.0004" gradientUnits="userSpaceOnUse">
<stop/>
<stop offset="1" stop-opacity="0"/>
</linearGradient>
</defs>
</svg>
