<svg width="64" height="64" viewBox="0 0 64 64" fill="none" xmlns="http://www.w3.org/2000/svg">
<path d="M32 60C47.464 60 60 47.464 60 32C60 16.536 47.464 3.99994 32 3.99994C16.536 3.99994 3.99995 16.536 3.99995 32C3.99995 47.464 16.536 60 32 60Z" fill="#BD93F9"/>
<path d="M16.1701 14.0001C13.6082 16.2482 11.5546 19.0163 10.1459 22.12C8.73718 25.2237 8.00571 28.5918 8.00016 32.0002C8.00016 38.3655 10.5287 44.47 15.0296 48.9709C19.5305 53.4718 25.6351 56.0004 32.0003 56.0004C38.3656 56.0004 44.4701 53.4718 48.971 48.9709C53.4719 44.47 56.0005 38.3655 56.0005 32.0002C55.9964 28.5927 55.2668 25.2251 53.8601 22.1215C52.4534 19.0178 50.402 16.2493 47.8422 14.0001H16.1701Z" fill="#F8F8F2"/>
<path d="M30.0002 16.0001C28.6765 16.0001 27.5703 17.05 27.0002 18.0001L25.801 20.0002H6.73985C4.94763 23.7474 4.01163 27.8465 3.99963 32.0002C3.99963 47.4643 16.5357 60.0004 31.9998 60.0004C47.4639 60.0004 60 47.4643 60 32.0002C59.9899 28.2019 59.2071 24.4454 57.6992 20.9592C56.9236 19.2246 55.9233 17.4257 54.9375 16.0001H30.0002Z" fill="#44475A"/>
<path opacity="0.15" d="M32.0002 4.00003C25.1986 4.01298 18.6343 6.50123 13.5331 11.0001H50.4844C45.3788 6.49736 38.8077 4.00885 32.0002 4.00003V4.00003Z" fill="black"/>
<path opacity="0.1" d="M57.3124 43.8913L29.6192 59.8814C30.4108 59.9549 31.2052 59.9947 32.0001 60.0006C37.3129 59.9934 42.514 58.475 46.996 55.6225C51.4781 52.7701 55.0561 48.7013 57.3123 43.8915L57.3124 43.8913Z" fill="url(#paint0_linear_2_81)"/>
<path d="M31.0042 29.9732C30.4493 29.9732 30.0022 30.4203 30.0022 30.9752V38.9675H24.0002L32.0022 46.9695L40.0003 38.9675H34.0022V30.9752C34.0022 30.4203 33.5552 29.9732 33.0002 29.9732H31.0041H31.0042Z" fill="#F8F8F2"/>
<defs>
<linearGradient id="paint0_linear_2_81" x1="42.0003" y1="51.0004" x2="44.0003" y2="55.0004" gradientUnits="userSpaceOnUse">
<stop/>
<stop offset="1" stop-opacity="0"/>
</linearGradient>
</defs>
</svg>
