<svg width="64" height="64" viewBox="0 0 64 64" fill="none" xmlns="http://www.w3.org/2000/svg">
<path d="M32 60C47.464 60 60 47.464 60 32C60 16.536 47.464 3.99995 32 3.99995C16.536 3.99995 3.99994 16.536 3.99994 32C3.99994 47.464 16.536 60 32 60Z" fill="#BD93F9"/>
<path d="M16.1701 14.0001C13.6082 16.2482 11.5546 19.0163 10.1459 22.12C8.73718 25.2237 8.0057 28.5918 8.00015 32.0002C8.00015 38.3655 10.5287 44.47 15.0296 48.9709C19.5305 53.4718 25.6351 56.0004 32.0003 56.0004C38.3656 56.0004 44.4701 53.4718 48.971 48.9709C53.4719 44.47 56.0005 38.3655 56.0005 32.0002C55.9964 28.5927 55.2667 25.2251 53.8601 22.1215C52.4534 19.0178 50.402 16.2493 47.8422 14.0001H16.17H16.1701Z" fill="#F8F8F2"/>
<path d="M30.0002 16.0002C28.6765 16.0002 27.5703 17.0501 27.0002 18.0002L25.801 20.0002H6.73972C4.94751 23.7474 4.01149 27.8467 3.99951 32.0004C3.99951 47.4647 16.5357 60.0005 31.9996 60.0005C47.4638 60.0005 59.9996 47.4643 59.9996 32.0004C59.9895 28.2019 59.2067 24.4458 57.6988 20.9595C56.9231 19.225 55.9229 17.426 54.9371 16.0003L30.0002 16.0002Z" fill="#44475A"/>
<path opacity="0.15" d="M32.0002 4.00003C25.1986 4.01298 18.6343 6.50123 13.5331 11.0001H50.4843C45.3788 6.49736 38.8077 4.00885 32.0002 4.00003V4.00003Z" fill="black"/>
<path opacity="0.1" d="M57.3124 43.8913L29.6192 59.8814C30.4108 59.9549 31.2051 59.9947 32.0001 60.0006C37.3129 59.9934 42.5139 58.475 46.996 55.6225C51.4781 52.7701 55.0561 48.7013 57.3123 43.8915L57.3124 43.8913Z" fill="url(#paint0_linear_2_127)"/>
<path d="M21.9973 28.9895V44.9886H41.9989V28.9895H22.0011H21.9973ZM22.9989 29.9874H41.0011V42.1879L34.16 35.3468L26.7898 42.7171C26.749 42.6594 26.7297 42.5893 26.7353 42.5188C26.7408 42.4484 26.7708 42.3822 26.8201 42.3315L28.9366 40.2074L25.8827 37.1459L22.9989 40.026V29.9874ZM38.0039 31.9906C37.7389 31.9905 37.4847 32.0956 37.297 32.2826C37.1093 32.4696 37.0033 32.7234 37.0023 32.9884C37.0033 33.2527 37.1087 33.5059 37.2957 33.6928C37.4826 33.8797 37.7358 33.9852 38.0001 33.9862C38.2651 33.9862 38.5193 33.8812 38.707 33.6942C38.8947 33.5071 39.0007 33.2533 39.0017 32.9884C39.0017 32.7227 38.8962 32.468 38.7084 32.2801C38.5205 32.0923 38.2658 31.9868 38.0001 31.9868L38.0039 31.9906Z" fill="#F8F8F2"/>
<defs>
<linearGradient id="paint0_linear_2_127" x1="42.0003" y1="51.0004" x2="44.0003" y2="55.0004" gradientUnits="userSpaceOnUse">
<stop/>
<stop offset="1" stop-opacity="0"/>
</linearGradient>
</defs>
</svg>
