<svg width="64" height="64" viewBox="0 0 64 64" fill="none" xmlns="http://www.w3.org/2000/svg">
<path d="M32 60C47.464 60 60 47.464 60 32C60 16.536 47.464 3.99994 32 3.99994C16.536 3.99994 3.99995 16.536 3.99995 32C3.99995 47.464 16.536 60 32 60Z" fill="#BD93F9"/>
<path d="M16.1703 14C13.6084 16.2481 11.5548 19.0161 10.1461 22.1198C8.73734 25.2235 8.00585 28.5916 8.00027 32C8.00027 38.3652 10.5288 44.4697 15.0297 48.9706C19.5306 53.4715 25.6351 56.0001 32.0004 56.0001C38.3656 56.0001 44.4701 53.4715 48.971 48.9706C53.4719 44.4697 56.0005 38.3652 56.0005 32C55.9964 28.5925 55.2667 25.2249 53.86 22.1213C52.4534 19.0177 50.4019 16.2492 47.8422 14H16.1699H16.1703Z" fill="#F8F8F2"/>
<path opacity="0.15" d="M32.0004 3.99994C25.1988 4.01292 18.6344 6.50122 13.5332 11.0001H50.4845C45.3789 6.49735 38.8079 4.00879 32.0004 3.99994V3.99994Z" fill="black"/>
<path d="M29.9998 23C28.6761 23 27.5699 24.0499 26.9998 25L25.8006 27H4.47459C4.16692 28.6491 4.00808 30.3225 3.99998 32.0001C3.99998 39.4261 6.94998 46.5481 12.201 51.7991C17.452 57.0501 24.574 60.0001 32 60.0001C35.6771 60.0001 39.3181 59.2759 42.7152 57.8687C46.1123 56.4616 49.199 54.3991 51.7991 51.7991C54.3991 49.199 56.4616 46.1123 57.8687 42.7152C59.2758 39.3181 60.0001 35.6771 60.0001 32.0001C59.9886 28.937 59.4746 25.8967 58.4786 23.0001L29.9998 23Z" fill="#44475A"/>
<path opacity="0.1" d="M57.3139 43.8925L29.6207 59.8825C30.4123 59.956 31.2067 59.9957 32.0017 60.0016C37.3144 59.9945 42.5154 58.476 46.9974 55.6236C51.4794 52.7711 55.0575 48.7024 57.3136 43.8926L57.3139 43.8925Z" fill="url(#paint0_linear_2_54)"/>
<defs>
<linearGradient id="paint0_linear_2_54" x1="42.0003" y1="51.0003" x2="44.0003" y2="55.0004" gradientUnits="userSpaceOnUse">
<stop/>
<stop offset="1" stop-opacity="0"/>
</linearGradient>
</defs>
</svg>
