<svg width="64" height="64" viewBox="0 0 64 64" fill="none" xmlns="http://www.w3.org/2000/svg">
<path d="M32 60C47.464 60 60 47.464 60 32C60 16.536 47.464 3.99995 32 3.99995C16.536 3.99995 3.99995 16.536 3.99995 32C3.99995 47.464 16.536 60 32 60Z" fill="#BD93F9"/>
<path d="M16.1701 14.0001C13.6082 16.2482 11.5546 19.0163 10.1459 22.12C8.73718 25.2237 8.0057 28.5918 8.00015 32.0002C8.00015 38.3655 10.5287 44.47 15.0296 48.9709C19.5305 53.4718 25.6351 56.0004 32.0003 56.0004C38.3656 56.0004 44.4701 53.4718 48.971 48.9709C53.4719 44.47 56.0005 38.3655 56.0005 32.0002C55.9964 28.5927 55.2667 25.2251 53.8601 22.1215C52.4534 19.0178 50.402 16.2493 47.8422 14.0001H16.17H16.1701Z" fill="#F8F8F2"/>
<path d="M30.0002 16.0002C28.6765 16.0002 27.5703 17.0501 27.0002 18.0002L25.801 20.0002H6.73971C4.9475 23.7474 4.01148 27.8467 3.9995 32.0004C3.9995 47.4647 16.5357 60.0005 31.9995 60.0005C47.4638 60.0005 59.9996 47.4643 59.9996 32.0004C59.9895 28.2019 59.2067 24.4458 57.6988 20.9595C56.9231 19.225 55.9228 17.426 54.937 16.0003L30.0002 16.0002Z" fill="#44475A"/>
<path opacity="0.15" d="M32.0002 4.00003C25.1986 4.01298 18.6343 6.50123 13.5331 11.0001H50.4844C45.3788 6.49736 38.8077 4.00885 32.0002 4.00003V4.00003Z" fill="black"/>
<path opacity="0.1" d="M57.3124 43.8913L29.6192 59.8814C30.4108 59.9549 31.2051 59.9947 32.0001 60.0006C37.3129 59.9934 42.5139 58.475 46.996 55.6225C51.4781 52.7701 55.0561 48.7013 57.3123 43.8915L57.3124 43.8913Z" fill="url(#paint0_linear_2_196)"/>
<path d="M32.0019 29.9722C30.9367 29.9491 29.8777 30.1389 28.8869 30.5305C27.8961 30.9221 26.9934 31.5076 26.2319 32.2528C25.4705 32.9979 24.8654 33.8876 24.4524 34.8696C24.0393 35.8517 23.8266 36.9064 23.8266 37.9718C23.8266 39.0372 24.0393 40.0918 24.4524 41.0739C24.8654 42.056 25.4705 42.9457 26.2319 43.6908C26.9934 44.4359 27.8961 45.0214 28.8869 45.413C29.8777 45.8047 30.9367 45.9945 32.0019 45.9713C34.0934 45.9258 36.0839 45.0631 37.547 43.5678C39.0101 42.0726 39.8294 40.0638 39.8294 37.9718C39.8294 35.8798 39.0101 33.871 37.547 32.3757C36.0839 30.8805 34.0934 30.0177 32.0019 29.9722ZM29.9987 33.9711L36.0007 37.9737L29.9987 41.9725V33.9711Z" fill="#F8F8F2"/>
<defs>
<linearGradient id="paint0_linear_2_196" x1="42.0003" y1="51.0004" x2="44.0003" y2="55.0004" gradientUnits="userSpaceOnUse">
<stop/>
<stop offset="1" stop-opacity="0"/>
</linearGradient>
</defs>
</svg>
