<svg width="64" height="64" viewBox="0 0 64 64" fill="none" xmlns="http://www.w3.org/2000/svg">
<path d="M32 60C47.464 60 60 47.464 60 32C60 16.536 47.464 3.99995 32 3.99995C16.536 3.99995 3.99995 16.536 3.99995 32C3.99995 47.464 16.536 60 32 60Z" fill="#BD93F9"/>
<path d="M16.1701 14.0001C13.6082 16.2482 11.5546 19.0163 10.1459 22.12C8.73718 25.2237 8.0057 28.5918 8.00015 32.0002C8.00015 38.3655 10.5287 44.47 15.0296 48.9709C19.5305 53.4718 25.6351 56.0004 32.0003 56.0004C38.3656 56.0004 44.4701 53.4718 48.971 48.9709C53.4719 44.47 56.0005 38.3655 56.0005 32.0002C55.9964 28.5927 55.2667 25.2251 53.8601 22.1215C52.4534 19.0178 50.402 16.2493 47.8422 14.0001H16.17H16.1701Z" fill="#F8F8F2"/>
<path d="M30.0002 16.0002C28.6765 16.0002 27.5703 17.0501 27.0002 18.0002L25.801 20.0002H6.73971C4.9475 23.7474 4.01148 27.8467 3.9995 32.0005C3.9995 47.4647 16.5357 60.0005 31.9995 60.0005C47.4638 60.0005 59.9996 47.4643 59.9996 32.0005C59.9895 28.2019 59.2067 24.4458 57.6988 20.9595C56.9231 19.225 55.9228 17.426 54.937 16.0003L30.0002 16.0002Z" fill="#44475A"/>
<path opacity="0.15" d="M32.0002 4.00003C25.1986 4.01298 18.6343 6.50123 13.5331 11.0001H50.4844C45.3788 6.49736 38.8077 4.00885 32.0002 4.00003V4.00003Z" fill="black"/>
<path opacity="0.1" d="M57.3124 43.8913L29.6192 59.8814C30.4108 59.9549 31.2051 59.9947 32.0001 60.0006C37.3129 59.9934 42.5139 58.475 46.996 55.6225C51.4781 52.7701 55.0561 48.7013 57.3123 43.8915L57.3124 43.8913Z" fill="url(#paint0_linear_2_180)"/>
<path d="M26.0037 28.9895C25.7406 28.9885 25.48 29.0396 25.2368 29.1396C24.9935 29.2397 24.7725 29.3869 24.5863 29.5727C24.4001 29.7585 24.2526 29.9793 24.152 30.2223C24.0515 30.4654 24 30.7259 24.0005 30.989V42.9892C24.0005 44.0966 24.8925 44.9886 26.0037 44.9886H38.0001C39.1075 44.9886 40.0033 44.0966 40.0033 42.9854V30.989C40.0043 30.7256 39.9532 30.4647 39.8529 30.2212C39.7525 29.9777 39.605 29.7565 39.4188 29.5703C39.2326 29.384 39.0114 29.2365 38.7679 29.1362C38.5244 29.0359 38.2635 28.9848 38.0001 28.9858H26.0037V28.9895ZM26.0037 29.9874C26.2687 29.9884 26.5224 30.0943 26.7095 30.2821C26.8965 30.4698 27.0015 30.724 27.0015 30.989C27.0005 31.2539 26.8945 31.5077 26.7068 31.6947C26.5191 31.8818 26.2649 31.9868 25.9999 31.9868C25.7356 31.9858 25.4823 31.8803 25.2954 31.6934C25.1085 31.5065 25.0031 31.2533 25.0021 30.989C25.0021 30.724 25.1071 30.4698 25.2941 30.2821C25.4811 30.0943 25.7349 29.9884 25.9999 29.9874H26.0037ZM38.0001 29.9874C38.2658 29.9874 38.5205 30.0929 38.7084 30.2807C38.8962 30.4686 39.0017 30.7233 39.0017 30.989C39.0007 31.2539 38.8948 31.5077 38.707 31.6947C38.5193 31.8818 38.2651 31.9868 38.0001 31.9868C37.7358 31.9858 37.4826 31.8803 37.2957 31.6934C37.1087 31.5065 37.0033 31.2533 37.0023 30.989C37.0023 30.724 37.1073 30.4698 37.2943 30.2821C37.4813 30.0943 37.7351 29.9884 38.0001 29.9874V29.9874ZM29.9987 32.9884H34.0013C35.1087 32.9884 36.0007 33.8803 36.0007 34.9878V38.9866C36.0007 40.0978 35.1087 40.9898 33.9975 40.9898H30.0025C29.7395 40.9903 29.4789 40.9388 29.2359 40.8382C28.9928 40.7377 28.772 40.5901 28.5862 40.4039C28.4004 40.2178 28.2532 39.9967 28.1532 39.7535C28.0531 39.5102 28.0021 39.2496 28.0031 38.9866V34.9878C28.0031 33.8803 28.8951 32.9846 30.0063 32.9846L29.9987 32.9884ZM29.9987 33.9862C29.8674 33.9862 29.7373 34.0121 29.616 34.0625C29.4947 34.1129 29.3845 34.1867 29.2918 34.2798C29.1991 34.3728 29.1257 34.4833 29.0758 34.6048C29.0258 34.7263 29.0004 34.8564 29.0009 34.9878V38.9866C29.0009 39.5422 29.4469 39.9882 29.9987 39.9882H34.0013C34.1327 39.9882 34.2627 39.9622 34.384 39.9119C34.5053 39.8615 34.6155 39.7877 34.7082 39.6946C34.8009 39.6015 34.8743 39.4911 34.9243 39.3696C34.9742 39.2481 34.9996 39.1179 34.9991 38.9866V34.9878C34.9996 34.8564 34.9742 34.7263 34.9243 34.6048C34.8743 34.4833 34.8009 34.3728 34.7082 34.2798C34.6155 34.1867 34.5053 34.1129 34.384 34.0625C34.2627 34.0121 34.1327 33.9862 34.0013 33.9862H29.9987ZM26.0037 41.9914C26.2693 41.9914 26.5241 42.0969 26.7119 42.2847C26.8997 42.4726 27.0053 42.7273 27.0053 42.993C27.0043 43.258 26.8983 43.5117 26.7106 43.6988C26.5228 43.8858 26.2687 43.9908 26.0037 43.9908C25.7393 43.9898 25.4861 43.8843 25.2992 43.6974C25.1123 43.5105 25.0068 43.2573 25.0059 42.993C25.0058 42.728 25.1109 42.4738 25.2979 42.2861C25.4849 42.0983 25.7387 41.9924 26.0037 41.9914V41.9914ZM38.0039 41.9914C38.2695 41.9914 38.5243 42.0969 38.7121 42.2847C38.9 42.4726 39.0055 42.7273 39.0055 42.993C39.0045 43.258 38.8985 43.5117 38.7108 43.6988C38.5231 43.8858 38.2689 43.9908 38.0039 43.9908C37.7396 43.9898 37.4864 43.8843 37.2994 43.6974C37.1125 43.5105 37.0071 43.2573 37.0061 42.993C37.0061 42.728 37.1111 42.4738 37.2981 42.2861C37.4851 42.0983 37.7389 41.9924 38.0039 41.9914V41.9914Z" fill="#F8F8F2"/>
<defs>
<linearGradient id="paint0_linear_2_180" x1="42.0003" y1="51.0004" x2="44.0003" y2="55.0004" gradientUnits="userSpaceOnUse">
<stop/>
<stop offset="1" stop-opacity="0"/>
</linearGradient>
</defs>
</svg>
