<svg width="64" height="64" viewBox="0 0 64 64" fill="none" xmlns="http://www.w3.org/2000/svg">
<path d="M32 60C47.464 60 60 47.464 60 32C60 16.536 47.464 3.99995 32 3.99995C16.536 3.99995 3.99995 16.536 3.99995 32C3.99995 47.464 16.536 60 32 60Z" fill="#BD93F9"/>
<path d="M16.1701 14.0001C13.6082 16.2482 11.5546 19.0163 10.1459 22.12C8.73718 25.2237 8.00571 28.5918 8.00016 32.0002C8.00016 38.3655 10.5287 44.47 15.0296 48.9709C19.5305 53.4718 25.6351 56.0004 32.0003 56.0004C38.3656 56.0004 44.4701 53.4718 48.971 48.9709C53.4719 44.47 56.0005 38.3655 56.0005 32.0002C55.9964 28.5927 55.2668 25.2251 53.8601 22.1215C52.4534 19.0178 50.402 16.2493 47.8422 14.0001H16.17H16.1701Z" fill="#F8F8F2"/>
<path d="M30.0002 16.0002C28.6765 16.0002 27.5703 17.0501 27.0002 18.0002L25.801 20.0002H6.73971C4.9475 23.7474 4.01148 27.8467 3.9995 32.0005C3.9995 47.4647 16.5357 60.0005 31.9995 60.0005C47.4638 60.0005 59.9996 47.4643 59.9996 32.0005C59.9895 28.202 59.2067 24.4458 57.6988 20.9595C56.9231 19.225 55.9228 17.426 54.937 16.0003L30.0002 16.0002Z" fill="#44475A"/>
<path opacity="0.15" d="M32.0002 4.00003C25.1986 4.01298 18.6343 6.50123 13.5331 11.0001H50.4844C45.3788 6.49736 38.8077 4.00885 32.0002 4.00003Z" fill="black"/>
<path opacity="0.1" d="M57.3124 43.8913L29.6192 59.8814C30.4108 59.9549 31.2052 59.9947 32.0001 60.0006C37.3129 59.9934 42.514 58.475 46.996 55.6225C51.4781 52.7701 55.0561 48.7013 57.3123 43.8915L57.3124 43.8913Z" fill="url(#paint0_linear_2_171)"/>
<path d="M32.0019 31.295C30.4963 31.295 29.0523 31.8931 27.9877 32.9577C26.923 34.0224 26.3249 35.4663 26.3249 36.9719C26.3249 38.4776 26.923 39.9215 27.9877 40.9862C29.0523 42.0508 30.4963 42.649 32.0019 42.649C33.5075 42.649 34.9515 42.0508 36.0161 40.9862C37.0807 39.9215 37.6789 38.4776 37.6789 36.9719C37.6789 35.4663 37.0807 34.0224 36.0161 32.9577C34.9515 31.8931 33.5075 31.295 32.0019 31.295ZM32.0019 33.8728C32.8232 33.8738 33.6106 34.2007 34.191 34.7818C34.7714 35.3629 35.0974 36.1506 35.0974 36.9719C35.0964 37.7933 34.7694 38.5807 34.1883 39.1611C33.6072 39.7415 32.8194 40.0674 31.9981 40.0674C31.1768 40.0664 30.3894 39.7395 29.809 39.1584C29.2286 38.5773 28.9026 37.7896 28.9026 36.9683C28.9036 36.1469 29.2306 35.3595 29.8117 34.7791C30.3928 34.1987 31.1806 33.8728 32.0019 33.8728Z" fill="#F8F8F2"/>
<path d="M30.9701 28.9518H33.0337V32.5689H30.9701V28.9518ZM30.9701 41.3413H33.0337V44.9545H30.9701V41.3413ZM39.9995 35.9213V37.9888H36.39V35.9213H39.9995ZM27.6138 35.9213V37.9888H24.0005V35.9213H27.6138ZM38.3894 41.8818L36.9267 43.3444L34.3755 40.7895L35.8344 39.3306L38.3894 41.8818ZM29.6321 33.1245L28.1694 34.5834L25.6144 32.0284L27.0733 30.5694L29.6321 33.1245ZM27.0733 43.3444L25.6144 41.8818L28.1694 39.3306L29.6283 40.7895L27.0733 43.3444ZM35.8306 34.5834L34.3755 33.1245L36.9267 30.5694L38.3894 32.0284L35.8306 34.5834Z" fill="#F8F8F2"/>
<defs>
<linearGradient id="paint0_linear_2_171" x1="42.0003" y1="51.0004" x2="44.0003" y2="55.0004" gradientUnits="userSpaceOnUse">
<stop/>
<stop offset="1" stop-opacity="0"/>
</linearGradient>
</defs>
</svg>
