<svg width="64" height="64" viewBox="0 0 64 64" fill="none" xmlns="http://www.w3.org/2000/svg">
<path d="M31.9981 59.9974C47.4617 59.9974 59.9974 47.4617 59.9974 31.9981C59.9974 16.5345 47.4617 3.99881 31.9981 3.99881C16.5345 3.99881 3.99882 16.5345 3.99882 31.9981C3.99882 47.4617 16.5345 59.9974 31.9981 59.9974Z" fill="#BD93F9"/>
<path d="M16.1701 14.0001C13.6082 16.2482 11.5546 19.0163 10.1458 22.12C8.73711 25.2236 8.00562 28.5918 8.00005 32.0002C8.00005 38.3655 10.5286 44.47 15.0295 48.9709C19.5304 53.4718 25.635 56.0004 32.0002 56.0004C38.3655 56.0004 44.47 53.4718 48.9709 48.9709C53.4718 44.47 56.0004 38.3655 56.0004 32.0002C55.9963 28.5927 55.2667 25.2251 53.8601 22.1215C52.4534 19.0179 50.402 16.2493 47.8423 14.0001H16.1701Z" fill="#F8F8F2"/>
<path d="M29.9987 15.9991C28.6758 15.9991 27.5684 17.0498 27.0015 18.0022L25.7996 20.0017H6.73903C4.94679 23.7489 4.01077 27.8481 3.99882 32.0019C3.99882 39.4283 6.94893 46.5505 12.2002 51.8017C17.4514 57.053 24.5736 60.0031 32 60.0031C39.4264 60.0031 46.5486 57.053 51.7998 51.8017C57.0511 46.5505 60.0012 39.4283 60.0012 32.0019C59.99 28.2023 59.2055 24.4447 57.6956 20.9579C56.9236 19.227 56.0003 17.5676 54.9365 15.9991H29.9987Z" fill="#44475A"/>
<path opacity="0.15" d="M32.0002 4.00003C25.1986 4.01298 18.6343 6.50123 13.5331 11.0001H50.4844C45.3788 6.49736 38.8077 4.00885 32.0002 4.00003Z" fill="black"/>
<path opacity="0.1" d="M57.3124 43.8913L29.6192 59.8814C30.4105 59.9552 31.2045 59.9952 31.9992 60.0014C37.3122 59.9944 42.5136 58.4759 46.9959 55.6232C51.4781 52.7706 55.0563 48.7015 57.3124 43.8913Z" fill="url(#paint0_linear_2_88)"/>
<path d="M27.6354 50.3948C27.8875 50.3638 28.0929 50.2649 28.2673 50.09C28.4152 49.9417 28.5105 49.7661 28.5511 49.5672C28.5741 49.4544 28.5763 49.3283 28.5743 48.2086L28.5723 47.0962L27.8249 47.0916C27.4138 47.0891 27.0632 47.0852 27.0458 47.0829C27.0284 47.0807 26.9669 47.0754 26.909 47.0712C26.6725 47.0546 26.3987 47.0191 26.1685 46.9759C25.3142 46.8155 24.6451 46.4978 24.17 46.0274C23.8725 45.7328 23.6722 45.408 23.5154 44.9661C23.2713 44.2777 22.9133 43.7182 22.3681 43.1726C22.1402 42.9445 21.9939 42.8171 21.574 42.481C21.1827 42.1678 21.0801 42.06 21.0801 41.9621C21.0801 41.898 21.1287 41.8504 21.2587 41.7873C21.4416 41.6985 21.6199 41.6624 21.8405 41.6693C22.104 41.6776 22.3597 41.7503 22.6574 41.9018C23.0077 42.0801 23.3639 42.3487 23.7426 42.7202C23.9745 42.9476 24.1391 43.1318 24.4017 43.4576C25.195 44.4418 25.6981 44.8103 26.4177 44.9342C26.6313 44.9708 26.721 44.9766 27.0914 44.9766C27.4432 44.9766 27.5269 44.9724 27.7477 44.9449C28.0535 44.9063 28.3335 44.8357 28.5098 44.7526L28.5736 44.7224L28.5781 44.5968C28.6046 43.8595 28.8892 43.2162 29.4081 42.721C29.4921 42.6407 29.6255 42.5297 29.7003 42.4778C29.7223 42.4623 29.7405 42.4479 29.7407 42.4456C29.7408 42.4432 29.7248 42.4392 29.705 42.4366C29.6307 42.4267 29.2683 42.3616 29.1163 42.3308C27.7165 42.0475 26.5607 41.6059 25.6109 40.9913C25.0309 40.6161 24.5271 40.169 24.1266 39.6742C23.4157 38.7957 22.9875 37.7483 22.8355 36.5158C22.7618 35.9178 22.7566 35.1886 22.8212 34.512C22.9667 32.9896 23.4518 31.6779 24.2891 30.5426C24.3025 30.5245 24.3025 30.5243 24.2634 30.3812C23.8929 29.0215 23.9182 27.5761 24.3388 26.0653L24.3553 26.0057L24.4916 26.0068C25.057 26.0114 25.7953 26.1799 26.5019 26.4655C27.2032 26.749 27.9438 27.1779 28.4789 27.6105C28.5163 27.6408 28.5508 27.6655 28.5556 27.6655C28.5604 27.6655 28.627 27.6465 28.7035 27.6232C29.547 27.3665 30.5155 27.1877 31.4955 27.1076C31.9415 27.0712 32.2663 27.0591 32.7939 27.0591C33.337 27.0591 33.6772 27.0723 34.1344 27.1112C35.1235 27.1955 36.0328 27.3639 36.9129 27.6261L37.0419 27.6645L37.1515 27.5789C37.309 27.4561 37.4206 27.3759 37.6135 27.2469C38.7315 26.4995 40.0247 26.0374 41.0904 26.0045L41.2349 26L41.2455 26.0414C41.2515 26.0642 41.2708 26.1366 41.2883 26.2022C41.5924 27.332 41.6628 28.4943 41.4926 29.5746C41.4543 29.8175 41.3899 30.1257 41.3353 30.3279C41.3198 30.3852 41.3073 30.4369 41.3073 30.4428C41.3073 30.4486 41.3398 30.4965 41.3797 30.5491C41.9237 31.2691 42.3245 32.0744 42.5805 32.9619C42.7842 33.6684 42.8896 34.3795 42.9156 35.2224C42.9417 36.068 42.8473 36.8714 42.6374 37.5896C42.3928 38.4268 41.9968 39.153 41.428 39.8075C41.3207 39.931 41.022 40.2314 40.8968 40.3418C39.954 41.173 38.7483 41.7713 37.2226 42.165C36.847 42.2619 36.2753 42.3802 35.9452 42.4293C35.9008 42.4357 35.8621 42.4433 35.8592 42.4459C35.8562 42.4486 35.8878 42.4762 35.9294 42.5073C36.2147 42.7212 36.4708 43.0062 36.6464 43.3051C36.8012 43.5688 36.9173 43.8894 36.9695 44.1976C37.0107 44.4411 37.0074 44.2255 37.0121 46.9662C37.0162 49.3057 37.0171 49.4793 37.0284 49.535C37.0613 49.6965 37.1081 49.8121 37.1934 49.942C37.2449 50.0204 37.3888 50.1645 37.4682 50.2172C37.6241 50.3207 37.7897 50.3805 37.968 50.3977C38.0001 50.4009 35.6716 50.4034 32.7939 50.4038C28.5017 50.4039 27.5749 50.4023 27.6353 50.3951L27.6354 50.3948Z" fill="white"/>
<defs>
<linearGradient id="paint0_linear_2_88" x1="42.0003" y1="51.0004" x2="44.0003" y2="55.0004" gradientUnits="userSpaceOnUse">
<stop/>
<stop offset="1" stop-opacity="0"/>
</linearGradient>
</defs>
</svg>
