<?xml version="1.0" encoding="UTF-8" standalone="no"?>
<svg
   width="64"
   height="64"
   viewBox="0 0 16.933 16.933"
   version="1.1"
   id="svg21"
   sodipodi:docname="custom-folder.svg"
   inkscape:version="1.1.2 (0a00cf5339, 2022-02-04)"
   xmlns:inkscape="http://www.inkscape.org/namespaces/inkscape"
   xmlns:sodipodi="http://sodipodi.sourceforge.net/DTD/sodipodi-0.dtd"
   xmlns="http://www.w3.org/2000/svg"
   xmlns:svg="http://www.w3.org/2000/svg">
  <sodipodi:namedview
     id="namedview23"
     pagecolor="#505050"
     bordercolor="#ffffff"
     borderopacity="1"
     inkscape:pageshadow="0"
     inkscape:pageopacity="0"
     inkscape:pagecheckerboard="1"
     showgrid="false"
     inkscape:zoom="11.1875"
     inkscape:cx="32"
     inkscape:cy="32"
     inkscape:window-width="1920"
     inkscape:window-height="1000"
     inkscape:window-x="0"
     inkscape:window-y="44"
     inkscape:window-maximized="1"
     inkscape:current-layer="svg21" />
  <defs
     id="defs7">
    <linearGradient
       id="a"
       x1="-197.72"
       x2="-197.72"
       y1="263.86"
       y2="273.76"
       gradientTransform="rotate(-45 -337.55 -145.8)"
       gradientUnits="userSpaceOnUse">
      <stop
         offset="0"
         id="stop2" />
      <stop
         stop-opacity="0"
         offset="1"
         id="stop4" />
    </linearGradient>
  </defs>
  <path
     transform="scale(.26458)"
     d="m27.002 8.984-14 .004c-1.11 0-1.493 1.013-2.002 1.998V11h-1c-2.216 0-4 1.784-4 4v28c0 2.216 1.784 4 4 4h44c2.216 0 4-1.784 4-4V15c0-2.216-1.784-4-4-4H37.141c-.047-.003-.092-.014-.14-.014h-7.997c-.586-.94-.89-2.002-2.002-2.002z"
     fill="#4d4d4d"
     style="paint-order:stroke fill markers"
     id="path9" />
  <path
     transform="scale(.26458)"
     d="m27.002 8.984-14 .004c-1.11 0-1.493 1.013-2.002 1.998V11h-1c-2.216 0-4 1.784-4 4v28c0 2.216 1.784 4 4 4h44c2.216 0 4-1.784 4-4V15c0-2.216-1.784-4-4-4l-24.996-.014c-.586-.94-.89-2.002-2.002-2.002z"
     opacity=".18"
     style="paint-order:stroke fill markers"
     id="path11" />
  <rect
     x="2.381"
     y="3.7"
     width="12.171"
     height="5.027"
     ry=".533"
     fill="#fff"
     paint-order="markers stroke fill"
     id="rect13" />
  <rect
     x="3.704"
     y="2.64"
     width="3.175"
     height=".529"
     ry=".265"
     opacity=".25"
     paint-order="stroke markers fill"
     id="rect15" />
  <path
     transform="scale(.26458)"
     d="m34 16-3 4H6c-2.216 0-4 1.784-4 4v28c0 2.216 1.784 4 4 4h52c2.216 0 4-1.784 4-4V20c0-2.216-1.784-4-4-4z"
     fill="#4d4d4d"
     style="paint-order:stroke fill markers"
     id="path17" />
  <path
     transform="scale(.26458)"
     d="M62 40 46 56h12c2.216 0 4-1.784 4-4V40z"
     fill="url(#a)"
     opacity=".2"
     style="paint-order:stroke fill markers"
     id="path19" />
  <path
     style="fill:#ffffff;stroke-width:0.000905939"
     d="m 4.9320261,12.286432 c -0.044579,-0.0057 -0.080729,-0.03523 -0.094637,-0.0771 -0.00543,-0.01635 -0.025945,-0.136035 -0.038468,-0.224395 -0.059391,-0.419133 -0.057269,-0.823811 0.00632,-1.205796 0.069837,-0.41954 0.2133464,-0.8065176 0.424473,-1.1446495 C 5.410625,9.3447617 5.638137,9.0957819 5.9040844,8.8964928 c 0.024264,-0.018178 0.057307,-0.042016 0.058181,-0.041968 4.187e-4,2.22e-5 0.1046595,0.1798626 0.2317164,0.3996487 0.1270566,0.2197865 0.2351573,0.4060599 0.2402166,0.4139455 0.023449,0.036516 0.04768,0.066822 0.079043,0.098855 0.086962,0.088825 0.1980225,0.1490204 0.3203273,0.1736214 0.082949,0.01668 0.1719583,0.01591 0.2533949,-0.0022 0.049528,-0.01101 0.100219,-0.02922 0.1434016,-0.05151 0.00698,-0.0036 0.063032,-0.03464 0.1245678,-0.068976 0.094752,-0.052868 0.1125748,-0.06251 0.116412,-0.062966 0.0039,-4.406e-4 0.00871,-0.00315 0.035027,-0.01965 0.1820697,-0.1141159 0.3499576,-0.2339057 0.5112488,-0.364792 0.066244,-0.053754 0.1641251,-0.1375758 0.178344,-0.1527207 0.019268,-0.020529 0.029567,-0.047376 0.029567,-0.077077 0,-0.037232 -0.016014,-0.068121 -0.047561,-0.091734 -0.014128,-0.010575 -0.029638,-0.017609 -0.047635,-0.021599 -0.012463,-0.00278 -0.034202,-0.00296 -0.046583,-3.965e-4 -0.015246,0.00315 -0.031265,0.00979 -0.043939,0.018216 -0.00322,0.00216 -0.018321,0.014817 -0.033519,0.028135 -0.1897778,0.1663175 -0.378385,0.3086562 -0.587493,0.4433764 -0.051598,0.033242 -0.06608,0.041902 -0.1318164,0.078832 -0.03662,0.020578 -0.084318,0.047392 -0.1059927,0.059587 -0.021674,0.012201 -0.040013,0.02219 -0.040757,0.022204 -7.491e-4,1.86e-5 -0.00645,0.00278 -0.012681,0.00617 C 7.0143721,9.7446846 6.8748,9.7435486 6.7603513,9.6805146 6.7061408,9.6506514 6.6578352,9.6057312 6.6243782,9.5540588 6.6134749,9.5372181 6.1264293,8.694022 6.11877,8.6787254 6.09814,8.6375164 6.085335,8.5932624 6.080113,8.5451016 c -0.00178,-0.016497 -0.00152,-0.062769 4.847e-4,-0.079555 0.00995,-0.083996 0.044261,-0.1588765 0.1008336,-0.22009 0.029824,-0.032276 0.069155,-0.061766 0.1089599,-0.081707 0.020967,-0.010504 0.075074,-0.035538 0.1219307,-0.056413 0.4502873,-0.2006409 0.8885265,-0.3129602 1.3140538,-0.3367944 0.1122006,-0.00628 0.2269236,-0.00658 0.3374574,-8.827e-4 0.3389317,0.017449 0.6754482,0.090422 1.0318545,0.2237569 0.1949072,0.072914 0.3932889,0.1619912 0.6563469,0.2947077 0.041069,0.020721 0.084082,0.042545 0.2128934,0.1080226 0.1534691,0.07801 0.2637741,0.1310826 0.3533151,0.1699878 0.183665,0.079803 0.327371,0.1218197 0.454776,0.1329683 0.192622,0.016856 0.353147,-0.037002 0.500526,-0.1679251 0.01476,-0.01312 0.04448,-0.042272 0.05827,-0.057176 0.03094,-0.033442 0.06202,-0.075467 0.08573,-0.1159599 0.01094,-0.0187 0.03203,-0.061021 0.03994,-0.080173 0.05652,-0.1368423 0.06719,-0.2853037 0.03073,-0.4270387 -0.03674,-0.1426907 -0.117744,-0.2674547 -0.234149,-0.360562 -0.03146,-0.02516 -0.07545,-0.053398 -0.112376,-0.072113 -0.08235,-0.041749 -0.168476,-0.065395 -0.262679,-0.072129 -0.0192,-0.00137 -0.0723,-0.00137 -0.09104,1.48e-5 -0.06888,0.00507 -0.132286,0.018842 -0.193419,0.042021 -0.05153,0.019542 -0.105763,0.048376 -0.147665,0.078526 -0.03617,0.026023 -0.04814,0.031568 -0.0744,0.034465 -0.02914,0.00322 -0.06252,-0.00748 -0.0842,-0.026968 -0.0058,-0.00522 -0.150791,-0.155154 -0.157649,-0.1630359 -0.01511,-0.017348 -0.0248,-0.040632 -0.02729,-0.06558 -0.0024,-0.024537 0.0055,-0.051973 0.02168,-0.074385 0.0079,-0.011006 0.03074,-0.032357 0.06477,-0.060614 0.101757,-0.084492 0.212494,-0.149002 0.336821,-0.1962114 0.09919,-0.03766 0.209278,-0.062399 0.317526,-0.071354 0.03506,-0.00289 0.05311,-0.00356 0.09738,-0.00356 0.04453,-7.5e-6 0.0621,6.389e-4 0.09785,0.00359 0.298037,0.024698 0.573674,0.1609952 0.774316,0.3828852 0.134334,0.1485576 0.24059,0.3386094 0.301003,0.5383874 0.0839,0.2774105 0.08318,0.5716479 -0.0021,0.8678813 -0.117319,0.4074935 -0.389196,0.8134386 -0.81186,1.2121989 -0.138758,0.130912 -0.288456,0.2563876 -0.465189,0.3899186 -0.03919,0.0296 -0.06164,0.04744 -0.08491,0.06741 -0.192204,0.16508 -0.346251,0.391614 -0.461181,0.678185 -0.131,0.326657 -0.206934,0.731643 -0.217585,1.160496 -10e-4,0.04234 -0.0015,0.04869 -0.0033,0.05798 -0.0088,0.04306 -0.04153,0.0759 -0.08641,0.08665 -0.0064,0.0016 -0.02034,0.0017 -0.2686072,0.0019 -0.1900224,3.74e-4 -0.2641141,1.9e-5 -0.2701952,-7.06e-4 -0.01304,-0.0016 -0.024065,-0.0049 -0.036006,-0.01085 -0.012491,-0.0063 -0.020726,-0.01212 -0.03021,-0.02171 -0.00791,-0.008 -0.014372,-0.01689 -0.019277,-0.02657 -0.00749,-0.0149 -0.00959,-0.02238 -0.013523,-0.04911 -0.020768,-0.141453 -0.079489,-0.272507 -0.1710844,-0.381796 -0.029511,-0.0352 -0.068723,-0.07375 -0.1048921,-0.103102 -0.1166272,-0.09462 -0.2608622,-0.153509 -0.4097755,-0.167306 -0.04995,-0.0047 -0.1096414,-0.0042 -0.1576281,0.0014 -0.2030339,0.02297 -0.3875669,0.125182 -0.5149236,0.285207 -0.082133,0.103208 -0.1372605,0.229249 -0.1567761,0.358458 -0.00406,0.02688 -0.00498,0.03176 -0.00735,0.03906 -0.00547,0.01684 -0.014615,0.03179 -0.027115,0.0443 -0.012859,0.01286 -0.027734,0.02205 -0.044542,0.02748 -0.016856,0.0055 0.00304,0.0051 -0.2893073,0.0051 -0.2566877,0 -0.2689403,0 -0.2761255,-0.0017 -0.021871,-0.0048 -0.039835,-0.01426 -0.055314,-0.02912 -0.010183,-0.0098 -0.017343,-0.0195 -0.023241,-0.03162 -0.00613,-0.0126 -0.00884,-0.02197 -0.011298,-0.03916 C 7.088358,12.138882 7.08039,12.102222 7.068256,12.0621 7.023841,11.915288 6.9350075,11.784257 6.814436,11.687728 6.7089692,11.603288 6.5847642,11.548808 6.4512778,11.528422 c -0.059439,-0.0091 -0.1240159,-0.01098 -0.1852662,-0.0054 -0.2994935,0.02708 -0.5575069,0.230165 -0.6542179,0.514965 -0.016153,0.04758 -0.027005,0.09378 -0.034283,0.145968 -0.00278,0.01997 -0.00538,0.02889 -0.012577,0.04311 -0.010518,0.0208 -0.028328,0.03805 -0.050343,0.04877 -0.00551,0.0027 -0.013067,0.0057 -0.016805,0.0068 -0.017144,0.0047 -0.00326,0.0045 -0.2935223,0.0044 -0.1482316,0 -0.2707362,-3.76e-4 -0.2722326,-4.64e-4 z M 9.8651637,9.3071548 c 0.02785,-0.024268 0.0513,-0.059836 0.06341,-0.096185 0.0084,-0.025138 0.01189,-0.046727 0.01188,-0.072921 -1.5e-5,-0.025478 -0.0033,-0.045973 -0.01143,-0.070669 C 9.9017837,8.9843618 9.8287088,8.9246332 9.741183,8.9138551 9.726594,8.9120751 9.701847,8.9120751 9.687566,8.9138814 9.636622,8.9203414 9.590221,8.9429154 9.554539,8.9785984 9.514919,9.0182194 9.491071,9.0718834 9.488731,9.126719 L 9.4881806,9.1394 9.5301816,9.160436 c 0.1193077,0.059735 0.3166049,0.1590504 0.3173079,0.1597247 9.99e-4,8.826e-4 0.0058,-0.0027 0.01766,-0.013005 z"
     id="path928" />
</svg>
