<svg width="32" height="32" version="1" xmlns="http://www.w3.org/2000/svg" xmlns:xlink="http://www.w3.org/1999/xlink">
 <circle cx="16" cy="16" r="14" fill="#ececec" stroke-width=".51852" style="paint-order:stroke fill markers"/>
 <path d="m16 4a12 12 0 0 0-0.5 0.017578v7.4824h-1v-7.3926a12 12 0 0 0-1 0.16992v7.2227h-1v-6.9668a12 12 0 0 0-1 0.35156v6.6152h-6.6172a12 12 0 0 0-0.35938 1h6.9766v1h-7.2324a12 12 0 0 0-0.16211 1h7.3945v1h-7.4746a12 12 0 0 0-0.025391 0.5 12 12 0 0 0 0.017578 0.5h7.4824v1h-7.3926a12 12 0 0 0 0.16992 1h7.2227v1h-6.9668a12 12 0 0 0 0.35156 1h6.6152v6.6172a12 12 0 0 0 1 0.35937v-6.9766h1v7.2324a12 12 0 0 0 1 0.16211v-7.3945h1v7.4746a12 12 0 0 0 0.5 0.025391 12 12 0 0 0 0.5-0.017578v-7.4824h1v7.3926a12 12 0 0 0 1-0.16992v-7.2227h1v6.9668a12 12 0 0 0 1-0.35156v-6.6152h6.6172a12 12 0 0 0 0.35937-1h-6.9766v-1h7.2324a12 12 0 0 0 0.16211-1h-7.3945v-1h7.4746a12 12 0 0 0 0.025391-0.5 12 12 0 0 0-0.017578-0.5h-7.4824v-1h7.3926a12 12 0 0 0-0.16992-1h-7.2227v-1h6.9668a12 12 0 0 0-0.35156-1h-6.6152v-6.6172a12 12 0 0 0-1-0.35938v6.9766h-1v-7.2324a12 12 0 0 0-1-0.16211v7.3945h-1v-7.4746a12 12 0 0 0-0.5-0.025391zm-3.5 8.5h1v1h-1v-1zm2 0h1v1h-1v-1zm2 0h1v1h-1v-1zm2 0h1v1h-1v-1zm-6 2h1v1h-1v-1zm2 0h1v1h-1v-1zm2 0h1v1h-1v-1zm2 0h1v1h-1v-1zm-6 2h1v1h-1v-1zm2 0h1v1h-1v-1zm2 0h1v1h-1v-1zm2 0h1v1h-1v-1zm-6 2h1v1h-1v-1zm2 0h1v1h-1v-1zm2 0h1v1h-1v-1zm2 0h1v1h-1v-1z" fill="#f8c44e" stroke-width=".55168" style="paint-order:stroke fill markers"/>
 <circle cx="16" cy="16" r="11" fill="#419d45" stroke-width=".40741" style="paint-order:stroke fill markers"/>
 <path d="m14 11h1v2.5h-1zm3 0h1v2.5h-1zm-3 7.5h1v2.5h-1zm3 0h1v2.5h-1zm4-4.5v1h-2.5v-1zm0 3v1h-2.5v-1zm-7.5-3v1h-2.5v-1zm0 3v1h-2.5v-1z" fill="#fff" stroke-width=".5"/>
 <rect x="13" y="13" width="6" height="6" rx="1.2" ry="1.2" fill="#4e4e4e" stroke-width=".5"/>
</svg>
