<svg width="32" height="32" version="1" xmlns="http://www.w3.org/2000/svg">
 <circle cx="16" cy="16" r="14" fill="#4f4f4f" stroke-width=".51852" style="paint-order:stroke fill markers"/>
 <circle transform="matrix(0,-1,-1,0,0,0)" cx="-8.2222" cy="-23.778" r="1.037" fill="#fff" stroke-width=".41481"/>
 <circle transform="matrix(0,-1,-1,0,0,0)" cx="-15" cy="-18" r="6" fill="#fff" stroke-width=".52174"/>
 <circle transform="rotate(-90)" cx="-15" cy="18" r="4" fill="#007095" stroke-width=".47059"/>
 <circle transform="matrix(0,-1,-1,0,0,0)" cx="-15" cy="-18" r="2" fill="#49acdc" stroke-width=".44444"/>
 <path d="m6.9199 6.6992a13 13 0 0 0-3.9199 9.3008 13 13 0 0 0 3.9199 9.2852v-18.586z" fill="#3f3f3f" stroke-width=".98531"/>
 <g stroke-width=".51852">
  <circle cx="11.593" cy="25.593" r=".77778" opacity=".5"/>
  <circle cx="14.704" cy="25.593" r=".77778" opacity=".5"/>
  <circle cx="17.815" cy="25.593" r=".77778" opacity=".5"/>
  <circle cx="20.926" cy="25.593" r=".77778" opacity=".5"/>
  <circle cx="13.148" cy="27.667" r=".77778" opacity=".5"/>
  <circle cx="16.259" cy="27.667" r=".77778" opacity=".5"/>
  <circle cx="19.37" cy="27.667" r=".77778" opacity=".5"/>
 </g>
 <circle transform="matrix(0,-1,-1,0,0,0)" cx="-8.2222" cy="-23.778" r=".51852" fill="#ff4d4d" stroke-width=".34568"/>
</svg>
