<svg width="32" height="32" version="1" xmlns="http://www.w3.org/2000/svg">
 <circle cx="16" cy="16" r="14" fill="#f2f2f2" stroke-width=".51852" style="paint-order:stroke fill markers"/>
 <rect x="7" y="9" width="18" height="13" rx="1" ry="1" fill="#2f3337" stroke-width=".31225"/>
 <path d="m8 10h16v10h-16z" fill="#5294e2" fill-rule="evenodd" stroke-width=".2952"/>
 <path d="m5 21.037v0.5c0 0.277 0.23362 0.5 0.52381 0.5h20.952c0.29019 0 0.52381-0.223 0.52381-0.5v-0.5h-21.476z" fill="#fff" stroke-width=".51177" style="paint-order:stroke fill markers"/>
 <path d="m5 21.037v0.5c0 0.277 0.23362 0.5 0.52381 0.5h20.952c0.29019 0 0.52381-0.223 0.52381-0.5v-0.5h-7.3333c0 0.277-0.23362 0.5-0.52381 0.5h-6.2857c-0.29019 0-0.52381-0.223-0.52381-0.5h-6.8095z" fill="#ccc" stroke-width=".51177" style="paint-order:stroke fill markers"/>
</svg>
