<svg width="32" height="32" version="1" xmlns="http://www.w3.org/2000/svg">
 <circle cx="16" cy="16" r="14" fill="#4d4d4d" stroke-width=".51852" style="paint-order:stroke fill markers"/>
 <path d="m16 4v7h-1v-6.9531a12 12 0 0 0-1 0.12305v6.8301h-1v-6.6094a12 12 0 0 0-1 0.31055v6.2988h-1v-5.8926a12 12 0 0 0-1 0.51758v5.375h-4.8945a12 12 0 0 0-0.4043 1h5.2988v1h-5.6055a12 12 0 0 0-0.21289 1h5.8184v1h-5.9492a12 12 0 0 0-0.050781 1h6v1h-5.9531a12 12 0 0 0 0.12305 1h5.8301v1h-5.6094a12 12 0 0 0 0.31055 1h5.2988v1h-4.8926a12 12 0 0 0 0.51758 1h4.375v4.3809a12 12 0 0 0 1 0.51367v-4.8945h1v5.2988a12 12 0 0 0 1 0.30664v-5.6055h1v5.8184a12 12 0 0 0 1 0.13086v-5.9492h1v6a12 12 0 0 0 1-0.046875v-5.9531h1v5.8301a12 12 0 0 0 1-0.2207v-5.6094h1v5.2988a12 12 0 0 0 1-0.40625v-4.8926h5.3809a12 12 0 0 0 0.51367-1h-5.8945v-1h6.2988a12 12 0 0 0 0.30664-1h-6.6055v-1h6.8184a12 12 0 0 0 0.13086-1h-6.9492v-1h7a12 12 0 0 0-0.046875-1h-6.9531v-1h6.8301a12 12 0 0 0-0.2207-1h-6.6094v-1h6.2988a12 12 0 0 0-0.40625-1h-5.8926v-5.8945a12 12 0 0 0-1-0.4043v6.2988h-1v-6.6055a12 12 0 0 0-1-0.21289v6.8184h-1v-6.9492a12 12 0 0 0-1-0.050781zm-5 8h1v1h-1v-1zm2 0h1v1h-1v-1zm2 0h1v1h-1v-1zm2 0h1v1h-1v-1zm2 0h1v1h-1v-1zm-8 2h1v1h-1v-1zm2 0h1v1h-1v-1zm2 0h1v1h-1v-1zm2 0h1v1h-1v-1zm2 0h1v1h-1v-1zm-8 2h1v1h-1v-1zm2 0h1v1h-1v-1zm2 0h1v1h-1v-1zm2 0h1v1h-1v-1zm2 0h1v1h-1v-1zm-8 2h1v1h-1v-1zm2 0h1v1h-1v-1zm2 0h1v1h-1v-1zm2 0h1v1h-1v-1zm2 0h1v1h-1v-1zm-8 2h1v1h-1v-1zm2 0h1v1h-1v-1zm2 0h1v1h-1v-1zm2 0h1v1h-1v-1zm2 0h1v1h-1v-1z" fill="#f8c44e" style="paint-order:stroke fill markers"/>
 <circle cx="16" cy="16" r="11" fill="#808080" stroke-width=".40741" style="paint-order:stroke fill markers"/>
 <g>
  <rect x="10" y="11" width="1" height="1" opacity=".15" style="paint-order:stroke fill markers"/>
  <rect x="12" y="11" width="1" height="1" opacity=".15" style="paint-order:stroke fill markers"/>
  <rect x="14" y="11" width="1" height="1" opacity=".15" style="paint-order:stroke fill markers"/>
  <rect x="16" y="11" width="1" height="1" opacity=".15" style="paint-order:stroke fill markers"/>
  <rect x="18" y="11" width="1" height="1" opacity=".15" style="paint-order:stroke fill markers"/>
  <rect x="20" y="11" width="1" height="1" opacity=".15" style="paint-order:stroke fill markers"/>
  <rect x="10" y="13" width="1" height="1" opacity=".15" style="paint-order:stroke fill markers"/>
  <rect x="12" y="13" width="1" height="1" opacity=".15" style="paint-order:stroke fill markers"/>
  <rect x="14" y="13" width="1" height="1" opacity=".15" style="paint-order:stroke fill markers"/>
  <rect x="16" y="13" width="1" height="1" opacity=".15" style="paint-order:stroke fill markers"/>
  <rect x="18" y="13" width="1" height="1" opacity=".15" style="paint-order:stroke fill markers"/>
  <rect x="20" y="13" width="1" height="1" opacity=".15" style="paint-order:stroke fill markers"/>
  <rect x="10" y="15" width="1" height="1" opacity=".15" style="paint-order:stroke fill markers"/>
  <rect x="12" y="15" width="1" height="1" opacity=".15" style="paint-order:stroke fill markers"/>
  <rect x="14" y="15" width="1" height="1" opacity=".15" style="paint-order:stroke fill markers"/>
  <rect x="16" y="15" width="1" height="1" opacity=".15" style="paint-order:stroke fill markers"/>
  <rect x="18" y="15" width="1" height="1" opacity=".15" style="paint-order:stroke fill markers"/>
  <rect x="20" y="15" width="1" height="1" opacity=".15" style="paint-order:stroke fill markers"/>
  <rect x="10" y="17" width="1" height="1" opacity=".15" style="paint-order:stroke fill markers"/>
  <rect x="12" y="17" width="1" height="1" opacity=".15" style="paint-order:stroke fill markers"/>
  <rect x="14" y="17" width="1" height="1" opacity=".15" style="paint-order:stroke fill markers"/>
  <rect x="16" y="17" width="1" height="1" opacity=".15" style="paint-order:stroke fill markers"/>
  <rect x="18" y="17" width="1" height="1" opacity=".15" style="paint-order:stroke fill markers"/>
  <rect x="20" y="17" width="1" height="1" opacity=".15" style="paint-order:stroke fill markers"/>
  <rect x="10" y="19" width="1" height="1" opacity=".15" style="paint-order:stroke fill markers"/>
  <rect x="12" y="19" width="1" height="1" opacity=".15" style="paint-order:stroke fill markers"/>
  <rect x="14" y="19" width="1" height="1" opacity=".15" style="paint-order:stroke fill markers"/>
  <rect x="16" y="19" width="1" height="1" opacity=".15" style="paint-order:stroke fill markers"/>
  <rect x="18" y="19" width="1" height="1" opacity=".15" style="paint-order:stroke fill markers"/>
  <rect x="20" y="19" width="1" height="1" opacity=".15" style="paint-order:stroke fill markers"/>
  <rect x="10" y="21" width="1" height="1" opacity=".15" style="paint-order:stroke fill markers"/>
  <rect x="12" y="21" width="1" height="1" opacity=".15" style="paint-order:stroke fill markers"/>
  <rect x="14" y="21" width="1" height="1" opacity=".15" style="paint-order:stroke fill markers"/>
  <rect x="16" y="21" width="1" height="1" opacity=".15" style="paint-order:stroke fill markers"/>
  <rect x="18" y="21" width="1" height="1" opacity=".15" style="paint-order:stroke fill markers"/>
  <rect x="20" y="21" width="1" height="1" opacity=".15" style="paint-order:stroke fill markers"/>
 </g>
</svg>
