<svg width="32" height="32" version="1" xmlns="http://www.w3.org/2000/svg" xmlns:xlink="http://www.w3.org/1999/xlink">
 <circle cx="16" cy="16" r="15" fill="#666" style="paint-order:stroke fill markers"/>
 <circle cx="16" cy="16" r="11" fill="#537bbc" stroke-width="1.2767" style="paint-order:markers stroke fill"/>
 <path d="m14.551 19.802h2.9007v1.0877h-2.9007zm0 1.813h2.9007v1.0877h-2.9007zm1.4501-7.6149a2.5383 2.5383 0 0 0-2.5383 2.5383 2.5383 2.5383 0 0 0 2.5383 2.5383 2.5383 2.5383 0 0 0 2.5383-2.5383 2.5383 2.5383 0 0 0-2.5383-2.5383zm0 1.0877a1.4506 1.4506 0 0 1 1.4506 1.4506 1.4506 1.4506 0 0 1-1.4506 1.4506 1.4506 1.4506 0 0 1-1.4501-1.4506 1.4506 1.4506 0 0 1 1.4501-1.4506zm3.332 0.14538-2.051-2.0515 2.0515-2.051 2.051 2.0515zm-4.6151-2.0515-2.0515 2.0515-0.76892-0.76946 2.0515-2.0515zm-1.2821-1.2815-2.0515 2.051-0.76892-0.76946 2.0515-2.051z" fill="#fff" stroke-width=".99992"/>
</svg>
