<svg width="32" height="32" version="1" xmlns="http://www.w3.org/2000/svg" xmlns:xlink="http://www.w3.org/1999/xlink">
 <circle cx="16" cy="16" r="14" fill="#4d4d4d" stroke-width=".53846" style="paint-order:stroke markers fill"/>
 <path d="m9 18c-1.108 0-2 1.0708-2 2.4004v4.9609a13 13 0 0 0 9 3.6387 13 13 0 0 0 9-3.625v-4.9746c0-1.3296-0.892-2.4004-2-2.4004h-14z" opacity=".4" stroke-width="1.0466"/>
 <path d="m16 3a13 13 0 0 0-1 0.042969v5.957h2v-5.9512a13 13 0 0 0-1-0.048828zm-2 0.16406a13 13 0 0 0-2 0.48438v5.3516h2v-5.8359zm4 0.0078125v5.8281h2v-5.3613a13 13 0 0 0-2-0.4668zm3 0.83008v4.998h2v-3.9375a13 13 0 0 0-2-1.0605zm-10 0.0097657a13 13 0 0 0-2 1.0352v3.9531h2v-4.9883zm-3 1.748a13 13 0 0 0-2 1.9395v1.3008h2v-3.2402zm16 0.011719v3.2285h2v-1.2891a13 13 0 0 0-2-1.9395z" fill="#f8c44e" stroke-width="1.3131"/>
</svg>
