<svg width="32" height="32" version="1.1" viewBox="0 0 64 64" xmlns="http://www.w3.org/2000/svg" xmlns:xlink="http://www.w3.org/1999/xlink">
 <g>
  <circle cx="32" cy="32" r="28" fill="#3f3f3f" stroke-width="1.037" style="paint-order:stroke fill markers"/>
  <path transform="scale(2)" d="m4.4102 10.143a13 13 0 0 0-0.41016 0.86523v8.6348c0 0.75186 0.446 1.3574 1 1.3574h22c0.554 0 1-0.60556 1-1.3574v-8.6152a13 13 0 0 0-0.39648-0.88477h-23.193z" fill="#1eb29b" style="paint-order:stroke fill markers"/>
  <path transform="scale(2)" d="m16 3a13 13 0 0 0-11.59 7.1426h23.193a13 13 0 0 0-11.604-7.1426z" fill="#0071e2" style="paint-order:stroke fill markers"/>
  <path transform="scale(2)" d="m9 13c-1.662 0-3 1.338-3 3s1.338 3 3 3h14c1.662 0 3-1.338 3-3s-1.338-3-3-3z" fill="#4d4d4d" style="paint-order:stroke fill markers"/>
 </g>
 <path transform="scale(2)" d="m6.8242 23-1.2598 2.3066a14 14 0 0 0 10.436 4.6934 14 14 0 0 0 10.438-4.6914l-1.2617-2.3086h-18.352z" fill="#4f4f4f" stroke-width=".50234"/>
 <circle cx="20" cy="50" r="2" opacity=".4" stroke-width=".7736" style="paint-order:markers fill stroke"/>
 <path d="m24 28h16v8.0021h-16z" fill="#ccc" stroke-width="1.1938" style="paint-order:markers fill stroke"/>
 <path d="m24 28v8.0021h7.3467a12.773 12.777 0 0 0 0.65333-4.001 12.773 12.777 0 0 0-0.65333-4.001z" fill="#874f29" stroke-width="1.2895" style="paint-order:markers fill stroke"/>
 <circle cx="44" cy="50" r="2" opacity=".4" stroke-width=".7736" style="paint-order:markers fill stroke"/>
</svg>
