<svg width="32" height="32" version="1.1" viewBox="0 0 64 64" xmlns="http://www.w3.org/2000/svg" xmlns:xlink="http://www.w3.org/1999/xlink">
 <circle cx="32" cy="32" r="28" fill="#f2f2f2" stroke-width="1.037" style="paint-order:stroke fill markers"/>
 <rect transform="matrix(0,-1,-1,0,0,0)" x="-26" y="-52" width="10" height="40" rx="2" ry="1.9048" fill="#666" stroke-width=".59761"/>
 <g fill="#9eee5a" stroke-width=".33333">
  <circle cx="49" cy="21" r="1"/>
  <circle cx="45" cy="21" r="1" opacity=".6"/>
  <circle cx="41" cy="21" r="1" opacity=".3"/>
 </g>
 <rect transform="rotate(-45)" x="-5.475" y="26.724" width="6" height="1" ry=".5" opacity=".25" style="paint-order:stroke fill markers"/>
 <rect transform="rotate(-45)" x="-3.3537" y="28.845" width="6" height="1" ry=".5" opacity=".25" style="paint-order:stroke fill markers"/>
 <rect transform="rotate(-45)" x="-1.0681" y="31.13" width="6" height="1" ry=".5" opacity=".25" style="paint-order:stroke fill markers"/>
 <g transform="translate(0,12)">
  <rect transform="matrix(0,-1,-1,0,0,0)" x="-26" y="-52" width="10" height="40" rx="2" ry="1.9048" fill="#666" stroke-width=".59761"/>
  <g fill="#9eee5a" stroke-width=".33333">
   <circle cx="49" cy="21" r="1"/>
   <circle cx="45" cy="21" r="1" opacity=".6"/>
   <circle cx="41" cy="21" r="1" opacity=".3"/>
  </g>
  <rect transform="rotate(-45)" x="-5.475" y="26.724" width="6" height="1" ry=".5" opacity=".25" style="paint-order:stroke fill markers"/>
  <rect transform="rotate(-45)" x="-3.3537" y="28.845" width="6" height="1" ry=".5" opacity=".25" style="paint-order:stroke fill markers"/>
  <rect transform="rotate(-45)" x="-1.0681" y="31.13" width="6" height="1" ry=".5" opacity=".25" style="paint-order:stroke fill markers"/>
 </g>
 <g transform="translate(0,24)">
  <rect transform="matrix(0,-1,-1,0,0,0)" x="-26" y="-52" width="10" height="40" rx="2" ry="1.9048" fill="#666" stroke-width=".59761"/>
  <g fill="#9eee5a" stroke-width=".33333">
   <circle cx="49" cy="21" r="1"/>
   <circle cx="45" cy="21" r="1" opacity=".6"/>
   <circle cx="41" cy="21" r="1" opacity=".3"/>
  </g>
  <rect transform="rotate(-45)" x="-5.475" y="26.724" width="6" height="1" ry=".5" opacity=".25" style="paint-order:stroke fill markers"/>
  <rect transform="rotate(-45)" x="-3.3537" y="28.845" width="6" height="1" ry=".5" opacity=".25" style="paint-order:stroke fill markers"/>
  <rect transform="rotate(-45)" x="-1.0681" y="31.13" width="6" height="1" ry=".5" opacity=".25" style="paint-order:stroke fill markers"/>
 </g>
</svg>
