<svg width="32" height="32" version="1" xmlns="http://www.w3.org/2000/svg">
 <circle cx="16" cy="16" r="14" fill="#f2f2f2" stroke-width=".51852" style="paint-order:stroke fill markers"/>
 <rect x="9" y="5" width="14" height="22" rx="2" ry="2" fill="#333" stroke-width=".40562"/>
 <path d="m11 6c-0.554 0-1 0.446-1 1v17c0 0.554 0.446 1 1 1h10c0.554 0 1-0.446 1-1v-17c0-0.554-0.446-1-1-1h-2.165l-0.5088 0.74025c-0.08168 0.11871-0.18207 0.25976-0.32617 0.25976h-4c-0.1441 0-0.24662-0.14093-0.32812-0.25976l-0.50685-0.74025h-2.165z" fill="#5294e2" stroke-width=".41188"/>
 <rect x="13" y="25.5" width="6" height=".5" ry=".25" opacity=".25" stroke-width=".5" style="paint-order:stroke fill markers"/>
 <circle cx="20.75" cy="25.75" r=".25" fill="#a02c2c" stroke-width=".5" style="paint-order:stroke fill markers"/>
</svg>
