<svg width="32" height="32" version="1" xmlns="http://www.w3.org/2000/svg"><circle cx="16" cy="16" r="14" fill="#f2f2f2" style="paint-order:stroke fill markers"/><path d="M16 3a13 13 0 0 0-9 3.625V12.5h18V6.639A13 13 0 0 0 16 3z" fill="#fff"/><path d="M2.762 20.5A14 14 0 0 0 16 30a14 14 0 0 0 13.242-9.5H2.762z" fill="#8e8e8e"/><path d="M4.518 8A14 14 0 0 0 2 16a14 14 0 0 0 .928 5h26.13A14 14 0 0 0 30 16a14 14 0 0 0-2.531-8H4.518z" fill="#4f4f4f"/><path d="M4.05 15A12 12 0 0 0 4 16a12 12 0 0 0 .17 2h23.648A12 12 0 0 0 28 16a12 12 0 0 0-.047-1H4.05z" opacity=".35"/><circle cx="25" cy="12" r="1" fill="#4fbc4f" style="paint-order:stroke fill markers"/><path opacity=".35" style="paint-order:stroke fill markers" d="M23 22h1v4h-1zM21 22h1v4h-1zM19 22h1v4h-1zM17 22h1v4h-1z"/></svg>