<svg width="32" height="32" version="1" xmlns="http://www.w3.org/2000/svg" xmlns:xlink="http://www.w3.org/1999/xlink">
 <defs>
  <linearGradient id="a" x1="164.79" x2="164.79" y1="170.34" y2="181.81" gradientTransform="matrix(.31818 0 0 .31184 -34.907 -32.845)" gradientUnits="userSpaceOnUse">
   <stop stop-color="#252525" offset="0"/>
   <stop stop-color="#3d3d3d" offset="1"/>
  </linearGradient>
 </defs>
 <circle cx="16" cy="16" r="15" fill="#ececec" stroke-width=".55556" style="paint-order:stroke fill markers"/>
 <path d="m6.7144 19h18.571c0.41704 0 0.71442 0.41624 0.71442 1h-20c0-0.58376 0.29798-1 0.71442-1z" display="block" fill-opacity=".417" overflow="visible" stroke-width="1.4445" style="isolation:auto;mix-blend-mode:normal;paint-order:fill markers stroke"/>
 <path d="m10 5.0554v2.9485l-2 0.00211v1.994h16v-1.994h-2v-3.006z" fill="#333" overflow="visible" stroke-width="1.0768" style="isolation:auto;mix-blend-mode:normal"/>
 <path d="m11 4h10v6h-10z" fill="#fff" overflow="visible" stroke="#000" stroke-linecap="round" stroke-linejoin="round" stroke-opacity=".059" stroke-width=".94994" style="isolation:auto;mix-blend-mode:normal;paint-order:markers stroke fill"/>
 <path d="m8 20h16l3 4h-22z" fill="url(#a)" overflow="visible" stroke-width="1.0768" style="isolation:auto;mix-blend-mode:normal"/>
 <path d="M 9,20 6.5449,24.9102 A 13,13 0 0 0 16,29 13,13 0 0 0 25.4512,24.9023 L 23,20 Z" fill="#fff" stroke="#828282" stroke-linecap="round" stroke-linejoin="round" stroke-opacity=".059" stroke-width=".94994" style="isolation:auto;mix-blend-mode:normal;paint-order:markers stroke fill"/>
 <path d="m4.4785 10c-0.96793 1.8521-1.4751 3.9102-1.4785 6 0.00161 2.0893 0.50676 4.1474 1.4727 6h0.070313l2.457-3h18l2.4551 3h0.06641c0.96792-1.8521 1.4751-3.9102 1.4785-6-0.0016-2.0893-0.50676-4.1474-1.4727-6z" display="block" fill="#4d4d4d" stroke-width="1.0568" style="isolation:auto;mix-blend-mode:normal;paint-order:fill markers stroke"/>
 <g>
  <rect x="22" y="12" width="1" height="4" opacity=".35" style="paint-order:stroke fill markers"/>
  <rect x="24" y="12" width="1" height="4" opacity=".35" style="paint-order:stroke fill markers"/>
  <rect x="20" y="12" width="1" height="4" opacity=".35" style="paint-order:stroke fill markers"/>
 </g>
</svg>
