<svg width="32" height="32" version="1" xmlns="http://www.w3.org/2000/svg" xmlns:xlink="http://www.w3.org/1999/xlink">
 <defs>
  <linearGradient id="a" x1="-55" x2="-22" y1="-32" y2="-32" gradientTransform="matrix(0 .56016 -1.0821 0 -18.628 41.809)" gradientUnits="userSpaceOnUse">
   <stop stop-color="#388dd4" offset="0"/>
   <stop stop-color="#388dd4" stop-opacity="0" offset="1"/>
  </linearGradient>
 </defs>
 <circle cx="16" cy="16" r="14" fill="#4f4f4f" stroke-width="1.9598" style="paint-order:stroke fill markers"/>
 <circle cx="16" cy="16" r="12" fill="#fff" stroke-width="1.6798" style="paint-order:stroke fill markers"/>
 <path d="m5.1055 11a12 12 0 0 0-1.1055 5 12 12 0 0 0 12 12 12 12 0 0 0 12-12 12 12 0 0 0-1.1074-5h-21.787z" fill="url(#a)" opacity=".5" stroke-width=".77854"/>
 <path d="m3.3691 10a14 14 0 0 0-0.7793 2h26.814a14 14 0 0 0-0.77148-2h-25.264z" fill="#388dd4" stroke-width=".66667"/>
</svg>
