<svg width="32" height="32" version="1" xmlns="http://www.w3.org/2000/svg" xmlns:xlink="http://www.w3.org/1999/xlink">
 <circle cx="16" cy="16" r="14" fill="#f2f2f2" stroke-width=".51852" style="paint-order:stroke fill markers"/>
 <rect x="9" y="5" width="14" height="22" rx="2" ry="2" fill="#333" stroke-width=".40562"/>
 <path d="m11 6c-0.554 0-1 0.446-1 1v17c0 0.554 0.446 1 1 1h10c0.554 0 1-0.446 1-1v-17c0-0.554-0.446-1-1-1h-2.165l-0.5088 0.74025c-0.08168 0.11871-0.18207 0.25976-0.32617 0.25976h-4c-0.1441 0-0.24662-0.14093-0.32812-0.25976l-0.50685-0.74025h-2.165z" fill="#5294e2" stroke-width=".41188"/>
 <g stroke-width=".5">
  <rect x="13" y="25.5" width="6" height=".5" ry=".25" opacity=".25" style="paint-order:stroke fill markers"/>
  <circle cx="20.75" cy="25.75" r=".25" fill="#a02c2c" style="paint-order:stroke fill markers"/>
  <path d="m13.934 9.7676-0.86719 0.5 0.88867 1.541a3 3 0 0 0-0.95508 2.1914h6a3 3 0 0 0-0.95508-2.1914l0.88867-1.541-0.86719-0.5-0.85938 1.4883a3 3 0 0 0-1.207-0.25586 3 3 0 0 0-1.207 0.25586l-0.85938-1.4883zm0.56641 2.7324a0.5 0.5 0 0 1 0.5 0.5 0.5 0.5 0 0 1-0.5 0.5 0.5 0.5 0 0 1-0.5-0.5 0.5 0.5 0 0 1 0.5-0.5zm3 0a0.5 0.5 0 0 1 0.5 0.5 0.5 0.5 0 0 1-0.5 0.5 0.5 0.5 0 0 1-0.5-0.5 0.5 0.5 0 0 1 0.5-0.5zm-6 2.5c-0.277 0-0.5 0.223-0.5 0.5v2.5c0 0.277 0.223 0.5 0.5 0.5s0.5-0.223 0.5-0.5v-2.5c0-0.277-0.223-0.5-0.5-0.5zm1.5 0v5h1v1.5c0 0.277 0.223 0.5 0.5 0.5s0.49206-0.22311 0.5-0.5v-1.5h2v1.5c0 0.277 0.223 0.5 0.5 0.5s0.5-0.223 0.5-0.5v-1.5h1v-5h-6zm7.5 0c-0.277 0-0.5 0.223-0.5 0.5v2.5c0 0.277 0.223 0.5 0.5 0.5s0.5-0.223 0.5-0.5v-2.5c0-0.277-0.223-0.5-0.5-0.5z" fill="#fff" style="paint-order:stroke fill markers"/>
 </g>
</svg>
