<svg width="32" height="32" version="1" xmlns="http://www.w3.org/2000/svg" xmlns:xlink="http://www.w3.org/1999/xlink">
 <circle cx="16" cy="16" r="14" fill="#f2f2f2" stroke-width=".51852" style="paint-order:stroke fill markers"/>
 <g transform="translate(0,-1)">
  <rect transform="matrix(0,-1,-1,0,0,0)" x="-26" y="-24" width="19" height="16" rx="1.357" ry="1.4545" fill="#8e8e8e" stroke-width=".37308"/>
  <path d="m21 7v10c0 2.77-2.23 5-5 5s-5-2.23-5-5v-10z" opacity=".5" stroke-width=".35715"/>
  <g stroke-width=".33334">
   <circle cx="16" cy="17" r="2" fill="#3697c4"/>
   <circle cx="16" cy="12" r="1" fill="#ff6e40"/>
   <circle cx="16" cy="9" r="1" fill="#76ff03"/>
  </g>
  <path d="m12 25c-0.554 0-1 0.446-1 1h10c0-0.554-0.446-1-1-1z" opacity=".35" stroke-width=".5" style="paint-order:stroke fill markers"/>
  <path d="m8 19v1h1.5c0.277 0 0.5-0.223 0.5-0.5 0-0.277-0.223-0.5-0.5-0.5zm0 1.5v1h1.5c0.277 0 0.5-0.223 0.5-0.5 0-0.277-0.223-0.5-0.5-0.5zm0 1.5v1h1.5c0.277 0 0.5-0.223 0.5-0.5s-0.223-0.5-0.5-0.5z" opacity=".35" stroke-width=".5" style="paint-order:stroke fill markers"/>
  <path d="m24 19v1h-1.5c-0.277 0-0.5-0.223-0.5-0.5 0-0.277 0.223-0.5 0.5-0.5zm0 1.5v1h-1.5c-0.277 0-0.5-0.223-0.5-0.5 0-0.277 0.223-0.5 0.5-0.5zm0 1.5v1h-1.5c-0.277 0-0.5-0.223-0.5-0.5s0.223-0.5 0.5-0.5z" opacity=".35" stroke-width=".5" style="paint-order:stroke fill markers"/>
 </g>
</svg>
