<svg width="32" height="32" version="1" xmlns="http://www.w3.org/2000/svg" xmlns:xlink="http://www.w3.org/1999/xlink">
 <circle cx="16" cy="16" r="14" fill="#333" stroke-width=".51852" style="paint-order:stroke fill markers"/>
 <rect transform="rotate(90)" x="5" y="-21" width="22" height="10" rx="1" ry="1" fill="#e4e4e4" stroke-width=".38872"/>
 <g fill="#999" stroke-width=".33334">
  <circle transform="rotate(90)" cx="24" cy="-18" r="1"/>
  <circle transform="rotate(90)" cx="20" cy="-18" r="1"/>
  <circle transform="rotate(90)" cx="24" cy="-14" r="1"/>
 </g>
 <circle transform="rotate(90)" cx="20" cy="-14" r="1" fill="#d35f5f" stroke-width=".33334"/>
 <path d="m15.5 7c-0.277 0-0.5 0.223-0.5 0.5v1.5h-1.5c-0.277 0-0.5 0.223-0.5 0.5v1c0 0.277 0.223 0.5 0.5 0.5h1.5v1.5c0 0.277 0.223 0.5 0.5 0.5h1c0.277 0 0.5-0.223 0.5-0.5v-1.5h1.5c0.277 0 0.5-0.223 0.5-0.5v-1c0-0.277-0.223-0.5-0.5-0.5h-1.5v-1.5c0-0.277-0.223-0.5-0.5-0.5z" fill="#666" stroke-width=".5" style="paint-order:stroke fill markers"/>
</svg>
